G04 This is an RS-274x file exported by *
G04 gerbv version 2.4.0 *
G04 More information is available about gerbv at *
G04 http://gerbv.gpleda.org/ *
G04 --End of header info--*
%MOIN*%
%FSLAX23Y23*%
%IPPOS*%
G04 --Define apertures--*
%ADD10C,0.0010*%
%ADD11R,0.0197X0.0236*%
%ADD12R,0.0236X0.0197*%
%ADD13R,0.0236X0.0354*%
%ADD14R,0.0354X0.0236*%
%ADD15R,0.0492X0.0827*%
%ADD16C,0.1500*%
%ADD17R,0.0787X0.1181*%
%ADD18R,0.1181X0.0787*%
%ADD19R,0.0315X0.0354*%
%ADD20C,0.0157*%
%ADD21R,0.0472X0.0098*%
%ADD22R,0.0320X0.0130*%
%ADD23R,0.0315X0.0102*%
%ADD24R,0.0295X0.1181*%
%ADD25R,0.0236X0.0098*%
%ADD26R,0.0098X0.0236*%
%ADD27R,0.0551X0.0551*%
%ADD28R,0.0217X0.0295*%
%ADD29R,0.0165X0.0236*%
%ADD30R,0.0315X0.0276*%
%ADD31R,0.0157X0.0236*%
%ADD32R,0.0236X0.0157*%
%ADD33R,0.0551X0.0197*%
%ADD34R,0.0197X0.0551*%
%ADD35R,0.0276X0.0551*%
%ADD36R,0.0236X0.0335*%
%ADD37R,0.0335X0.0236*%
%ADD38R,0.0420X0.0236*%
%ADD39R,0.0138X0.0394*%
%ADD40R,0.0512X0.0138*%
%ADD41R,0.0138X0.0512*%
%ADD42R,0.0276X0.0354*%
%ADD43R,0.0551X0.0276*%
G04 --Start main section--*
G54D11*
G01X00090Y-1330D03*
G01X00050Y-1330D03*
G01X00090Y-1290D03*
G01X00050Y-1290D03*
G01X00010Y-1250D03*
G01X-0030Y-1250D03*
G01X00090Y-1250D03*
G01X00050Y-1250D03*
G01X00240Y-1400D03*
G01X00200Y-1400D03*
G01X-0380Y-1780D03*
G01X-0340Y-1780D03*
G01X-0290Y-1780D03*
G01X-0250Y-1780D03*
G01X00230Y-1560D03*
G01X00190Y-1560D03*
G01X02131Y-2718D03*
G01X02092Y-2718D03*
G01X02251Y-2748D03*
G01X02212Y-2748D03*
G01X02131Y-2278D03*
G01X02092Y-2278D03*
G01X02251Y-2308D03*
G01X02212Y-2308D03*
G01X02131Y-2498D03*
G01X02092Y-2498D03*
G01X02251Y-2528D03*
G01X02212Y-2528D03*
G01X02131Y-1618D03*
G01X02092Y-1618D03*
G01X02251Y-1648D03*
G01X02212Y-1648D03*
G01X02131Y-1838D03*
G01X02092Y-1838D03*
G01X02251Y-1868D03*
G01X02212Y-1868D03*
G01X02131Y-2058D03*
G01X02092Y-2058D03*
G01X02251Y-2088D03*
G01X02212Y-2088D03*
G01X02131Y-1398D03*
G01X02092Y-1398D03*
G01X02251Y-1428D03*
G01X02212Y-1428D03*
G01X02131Y-0738D03*
G01X02092Y-0738D03*
G01X02251Y-0768D03*
G01X02212Y-0768D03*
G01X02131Y-0518D03*
G01X02092Y-0518D03*
G01X02251Y-0548D03*
G01X02212Y-0548D03*
G01X02131Y-0958D03*
G01X02092Y-0958D03*
G01X02251Y-0988D03*
G01X02212Y-0988D03*
G01X02131Y-0078D03*
G01X02092Y-0078D03*
G01X02251Y-0108D03*
G01X02212Y-0108D03*
G01X02131Y-0298D03*
G01X02092Y-0298D03*
G01X02251Y-0328D03*
G01X02212Y-0328D03*
G01X02131Y-1178D03*
G01X02092Y-1178D03*
G01X02251Y-1208D03*
G01X02212Y-1208D03*
G01X02131Y00142D03*
G01X02092Y00142D03*
G01X02251Y00112D03*
G01X02212Y00112D03*
G01X02510Y00310D03*
G01X02550Y00310D03*
G54D12*
G01X02260Y00350D03*
G01X02260Y00310D03*
G01X03880Y-2930D03*
G01X03880Y-2970D03*
G01X03520Y-2930D03*
G01X03520Y-2970D03*
G01X02320Y00350D03*
G01X02320Y00310D03*
G01X02140Y00350D03*
G01X02140Y00310D03*
G01X02200Y00350D03*
G01X02200Y00310D03*
G01X03520Y-2500D03*
G01X03520Y-2540D03*
G01X03880Y-2500D03*
G01X03880Y-2540D03*
G01X03885Y-1650D03*
G01X03885Y-1690D03*
G01X03520Y-1660D03*
G01X03520Y-1700D03*
G01X03520Y-2080D03*
G01X03520Y-2120D03*
G01X03885Y-2080D03*
G01X03885Y-2120D03*
G01X03885Y-0380D03*
G01X03885Y-0420D03*
G01X03520Y-0380D03*
G01X03520Y-0420D03*
G01X03520Y00040D03*
G01X03520Y00000D03*
G01X03885Y00050D03*
G01X03885Y00010D03*
G01X03885Y-0800D03*
G01X03885Y-0840D03*
G01X03520Y-0810D03*
G01X03520Y-0850D03*
G01X03520Y-1230D03*
G01X03520Y-1270D03*
G01X03885Y-1230D03*
G01X03885Y-1270D03*
G54D11*
G01X03920Y00250D03*
G01X03880Y00250D03*
G01X03920Y00200D03*
G01X03880Y00200D03*
G54D12*
G01X02880Y-2890D03*
G01X02880Y-2930D03*
G54D11*
G01X01470Y00060D03*
G01X01430Y00060D03*
G54D12*
G01X00720Y00090D03*
G01X00720Y00130D03*
G01X00880Y00130D03*
G01X00880Y00090D03*
G54D11*
G01X00100Y-0120D03*
G01X00060Y-0120D03*
G01X01470Y00110D03*
G01X01430Y00110D03*
G01X01470Y00160D03*
G01X01430Y00160D03*
G01X01470Y00210D03*
G01X01430Y00210D03*
G01X01430Y00310D03*
G01X01470Y00310D03*
G01X01470Y00360D03*
G01X01430Y00360D03*
G01X01470Y00260D03*
G01X01430Y00260D03*
G01X00210Y-0640D03*
G01X00170Y-0640D03*
G54D12*
G01X01240Y-1800D03*
G01X01240Y-1840D03*
G01X01240Y-2040D03*
G01X01240Y-2000D03*
G01X01240Y-1640D03*
G01X01240Y-1680D03*
G54D11*
G01X00440Y-0220D03*
G01X00400Y-0220D03*
G01X00520Y-0220D03*
G01X00480Y-0220D03*
G01X00410Y-0430D03*
G01X00450Y-0430D03*
G01X00480Y-0430D03*
G01X00520Y-0430D03*
G01X00450Y-0470D03*
G01X00410Y-0470D03*
G54D12*
G01X00530Y-0320D03*
G01X00530Y-0360D03*
G54D11*
G01X00030Y-0740D03*
G01X-0010Y-0740D03*
G54D12*
G01X00569Y-2671D03*
G01X00569Y-2631D03*
G01X00469Y-2671D03*
G01X00469Y-2631D03*
G01X00369Y-2671D03*
G01X00369Y-2631D03*
G01X00269Y-2671D03*
G01X00269Y-2631D03*
G01X-0400Y-2360D03*
G01X-0400Y-2320D03*
G01X-0250Y-2320D03*
G01X-0250Y-2360D03*
G01X-0380Y-1950D03*
G01X-0380Y-1990D03*
G01X-0350Y-2320D03*
G01X-0350Y-2360D03*
G01X-0300Y-2320D03*
G01X-0300Y-2360D03*
G01X00169Y-2671D03*
G01X00169Y-2631D03*
G01X00069Y-2671D03*
G01X00069Y-2631D03*
G01X-0031Y-2671D03*
G01X-0031Y-2631D03*
G01X-0131Y-2671D03*
G01X-0131Y-2631D03*
G54D11*
G01X00760Y-1970D03*
G01X00720Y-1970D03*
G01X00310Y-2050D03*
G01X00350Y-2050D03*
G01X00740Y-1520D03*
G01X00700Y-1520D03*
G01X00740Y-1470D03*
G01X00700Y-1470D03*
G01X00740Y-1570D03*
G01X00700Y-1570D03*
G01X00620Y-2050D03*
G01X00660Y-2050D03*
G54D12*
G01X00708Y-2669D03*
G01X00708Y-2630D03*
G01X00808Y-2669D03*
G01X00808Y-2630D03*
G01X00908Y-2669D03*
G01X00908Y-2630D03*
G01X01008Y-2669D03*
G01X01008Y-2630D03*
G01X01108Y-2669D03*
G01X01108Y-2630D03*
G01X01208Y-2669D03*
G01X01208Y-2630D03*
G01X01308Y-2669D03*
G01X01308Y-2630D03*
G01X01408Y-2669D03*
G01X01408Y-2630D03*
G01X-0310Y-1990D03*
G01X-0310Y-1950D03*
G01X-0260Y-1990D03*
G01X-0260Y-1950D03*
G01X00830Y-0600D03*
G01X00830Y-0560D03*
G54D11*
G01X00470Y-0620D03*
G01X00430Y-0620D03*
G54D12*
G01X00100Y-1160D03*
G01X00100Y-1200D03*
G01X00060Y-1160D03*
G01X00060Y-1200D03*
G01X00020Y-1160D03*
G01X00020Y-1200D03*
G54D11*
G01X00270Y-1070D03*
G01X00310Y-1070D03*
G01X-0010Y-1100D03*
G01X-0050Y-1100D03*
G54D12*
G01X00150Y-1160D03*
G01X00150Y-1200D03*
G54D11*
G01X-0010Y-1060D03*
G01X-0050Y-1060D03*
G54D12*
G01X00200Y-1160D03*
G01X00200Y-1200D03*
G54D11*
G01X-0010Y-0980D03*
G01X-0050Y-0980D03*
G01X-0010Y-0940D03*
G01X-0050Y-0940D03*
G54D12*
G01X00020Y-0860D03*
G01X00020Y-0820D03*
G54D11*
G01X-0130Y-0760D03*
G01X-0170Y-0760D03*
G01X-0130Y-0700D03*
G01X-0170Y-0700D03*
G01X-0130Y-1070D03*
G01X-0170Y-1070D03*
G54D12*
G01X00220Y-0820D03*
G01X00220Y-0860D03*
G54D11*
G01X-0110Y-1020D03*
G01X-0070Y-1020D03*
G54D12*
G01X00100Y-0860D03*
G01X00100Y-0820D03*
G01X00060Y-0860D03*
G01X00060Y-0820D03*
G01X00180Y-0860D03*
G01X00180Y-0820D03*
G01X00140Y-0860D03*
G01X00140Y-0820D03*
G54D11*
G01X00330Y-0670D03*
G01X00290Y-0670D03*
G01X00290Y-0830D03*
G01X00330Y-0830D03*
G01X01400Y-1310D03*
G01X01360Y-1310D03*
G01X01270Y-1310D03*
G01X01310Y-1310D03*
G01X01400Y-1350D03*
G01X01360Y-1350D03*
G01X01270Y-1350D03*
G01X01310Y-1350D03*
G01X01570Y-0150D03*
G01X01530Y-0150D03*
G01X01570Y-1100D03*
G01X01530Y-1100D03*
G01X01570Y-0350D03*
G01X01530Y-0350D03*
G01X01570Y-0650D03*
G01X01530Y-0650D03*
G54D12*
G01X00850Y-1410D03*
G01X00850Y-1370D03*
G01X00780Y-1410D03*
G01X00780Y-1370D03*
G54D11*
G01X00930Y-0470D03*
G01X00890Y-0470D03*
G54D12*
G01X00990Y-0560D03*
G01X00990Y-0600D03*
G54D11*
G01X01570Y-1500D03*
G01X01530Y-1500D03*
G01X01570Y-1000D03*
G01X01530Y-1000D03*
G01X01570Y-1850D03*
G01X01530Y-1850D03*
G01X01570Y-2350D03*
G01X01530Y-2350D03*
G01X01570Y-1200D03*
G01X01530Y-1200D03*
G01X01570Y-2050D03*
G01X01530Y-2050D03*
G01X01570Y-2150D03*
G01X01530Y-2150D03*
G01X01570Y-1300D03*
G01X01530Y-1300D03*
G01X01570Y-0450D03*
G01X01530Y-0450D03*
G01X01050Y-1620D03*
G01X01090Y-1620D03*
G01X01050Y-1560D03*
G01X01090Y-1560D03*
G01X00740Y-1620D03*
G01X00700Y-1620D03*
G01X01030Y-1810D03*
G01X01070Y-1810D03*
G54D12*
G01X00650Y-1610D03*
G01X00650Y-1650D03*
G01X00610Y-1610D03*
G01X00610Y-1650D03*
G01X00570Y-1610D03*
G01X00570Y-1650D03*
G01X00530Y-1610D03*
G01X00530Y-1650D03*
G01X00600Y-1370D03*
G01X00600Y-1410D03*
G01X00480Y-1610D03*
G01X00480Y-1650D03*
G01X00560Y-1370D03*
G01X00560Y-1410D03*
G01X00520Y-1370D03*
G01X00520Y-1410D03*
G54D13*
G01X02421Y-2608D03*
G01X02362Y-2608D03*
G01X02421Y-2168D03*
G01X02362Y-2168D03*
G01X02421Y-2388D03*
G01X02362Y-2388D03*
G01X02421Y-1508D03*
G01X02362Y-1508D03*
G01X02421Y-1728D03*
G01X02362Y-1728D03*
G01X02421Y-1948D03*
G01X02362Y-1948D03*
G01X02421Y-1288D03*
G01X02362Y-1288D03*
G01X02421Y-0628D03*
G01X02362Y-0628D03*
G01X02421Y-0408D03*
G01X02362Y-0408D03*
G01X02421Y-0848D03*
G01X02362Y-0848D03*
G01X02421Y00032D03*
G01X02362Y00032D03*
G01X02421Y-0188D03*
G01X02362Y-0188D03*
G01X02421Y-1068D03*
G01X02362Y-1068D03*
G01X02421Y00252D03*
G01X02362Y00252D03*
G54D14*
G01X03080Y-2979D03*
G01X03080Y-2920D03*
G54D13*
G01X00951Y00130D03*
G01X01010Y00130D03*
G01X00051Y-0070D03*
G01X00110Y-0070D03*
G54D14*
G01X00100Y-0350D03*
G01X00100Y-0409D03*
G01X00100Y-0309D03*
G01X00100Y-0250D03*
G01X00570Y-0359D03*
G01X00570Y-0300D03*
G01X00569Y-2521D03*
G01X00569Y-2580D03*
G01X00469Y-2521D03*
G01X00469Y-2580D03*
G01X00369Y-2521D03*
G01X00369Y-2580D03*
G01X00269Y-2521D03*
G01X00269Y-2580D03*
G01X00169Y-2521D03*
G01X00169Y-2580D03*
G01X00069Y-2521D03*
G01X00069Y-2580D03*
G01X-0031Y-2521D03*
G01X-0031Y-2580D03*
G01X-0131Y-2521D03*
G01X-0131Y-2580D03*
G01X00708Y-2520D03*
G01X00708Y-2579D03*
G01X00808Y-2520D03*
G01X00808Y-2579D03*
G01X00908Y-2520D03*
G01X00908Y-2579D03*
G01X01008Y-2520D03*
G01X01008Y-2579D03*
G01X01108Y-2520D03*
G01X01108Y-2579D03*
G01X01208Y-2520D03*
G01X01208Y-2579D03*
G01X01308Y-2520D03*
G01X01308Y-2579D03*
G01X01408Y-2520D03*
G01X01408Y-2579D03*
G54D15*
G01X00290Y-0400D03*
G01X00170Y-0400D03*
G01X00290Y-0260D03*
G01X00170Y-0260D03*
G54D17*
G01X-0378Y-1430D03*
G01X-0142Y-1430D03*
G01X-0378Y-1650D03*
G01X-0142Y-1650D03*
G54D18*
G01X02740Y-2968D03*
G01X02740Y-2732D03*
G54D17*
G01X00762Y00260D03*
G01X00998Y00260D03*
G54D18*
G01X-0240Y-0228D03*
G01X-0240Y00008D03*
G54D19*
G01X00335Y-0782D03*
G01X00335Y-0717D03*
G01X00285Y-0717D03*
G01X00285Y-0782D03*
G54D20*
G01X00421Y-1299D03*
G01X00421Y-1268D03*
G01X00421Y-1236D03*
G01X00421Y-1205D03*
G01X00421Y-1173D03*
G01X00421Y-1142D03*
G01X00421Y-1110D03*
G01X00421Y-1079D03*
G01X00421Y-1047D03*
G01X00421Y-1016D03*
G01X00421Y-0984D03*
G01X00421Y-0953D03*
G01X00421Y-0921D03*
G01X00421Y-0890D03*
G01X00421Y-0858D03*
G01X00421Y-0827D03*
G01X00421Y-0795D03*
G01X00421Y-0764D03*
G01X00421Y-0732D03*
G01X00421Y-0701D03*
G01X00452Y-1299D03*
G01X00452Y-1268D03*
G01X00452Y-1236D03*
G01X00452Y-1205D03*
G01X00452Y-1173D03*
G01X00452Y-1142D03*
G01X00452Y-1110D03*
G01X00452Y-1079D03*
G01X00452Y-1047D03*
G01X00452Y-1016D03*
G01X00452Y-0984D03*
G01X00452Y-0953D03*
G01X00452Y-0921D03*
G01X00452Y-0890D03*
G01X00452Y-0858D03*
G01X00452Y-0827D03*
G01X00452Y-0795D03*
G01X00452Y-0764D03*
G01X00452Y-0732D03*
G01X00452Y-0701D03*
G01X00484Y-1299D03*
G01X00484Y-1268D03*
G01X00484Y-0732D03*
G01X00484Y-0701D03*
G01X00515Y-1299D03*
G01X00515Y-1268D03*
G01X00515Y-0732D03*
G01X00515Y-0701D03*
G01X00547Y-1299D03*
G01X00547Y-1268D03*
G01X00547Y-0732D03*
G01X00547Y-0701D03*
G01X00578Y-1299D03*
G01X00578Y-1268D03*
G01X00578Y-0732D03*
G01X00578Y-0701D03*
G01X00610Y-1299D03*
G01X00610Y-1268D03*
G01X00610Y-1110D03*
G01X00610Y-1079D03*
G01X00610Y-1047D03*
G01X00610Y-1016D03*
G01X00610Y-0984D03*
G01X00610Y-0953D03*
G01X00610Y-0921D03*
G01X00610Y-0890D03*
G01X00610Y-0732D03*
G01X00610Y-0701D03*
G01X00641Y-1299D03*
G01X00641Y-1268D03*
G01X00641Y-1110D03*
G01X00641Y-1079D03*
G01X00641Y-1047D03*
G01X00641Y-1016D03*
G01X00641Y-0984D03*
G01X00641Y-0953D03*
G01X00641Y-0921D03*
G01X00641Y-0890D03*
G01X00641Y-0732D03*
G01X00641Y-0701D03*
G01X00673Y-1299D03*
G01X00673Y-1268D03*
G01X00673Y-1110D03*
G01X00673Y-1079D03*
G01X00673Y-1047D03*
G01X00673Y-1016D03*
G01X00673Y-0984D03*
G01X00673Y-0953D03*
G01X00673Y-0921D03*
G01X00673Y-0890D03*
G01X00673Y-0732D03*
G01X00673Y-0701D03*
G01X00704Y-1299D03*
G01X00704Y-1268D03*
G01X00704Y-1110D03*
G01X00704Y-1079D03*
G01X00704Y-1047D03*
G01X00704Y-1016D03*
G01X00704Y-0984D03*
G01X00704Y-0953D03*
G01X00704Y-0921D03*
G01X00704Y-0890D03*
G01X00704Y-0732D03*
G01X00704Y-0701D03*
G01X00736Y-1299D03*
G01X00736Y-1268D03*
G01X00736Y-1110D03*
G01X00736Y-1079D03*
G01X00736Y-1047D03*
G01X00736Y-1016D03*
G01X00736Y-0984D03*
G01X00736Y-0953D03*
G01X00736Y-0921D03*
G01X00736Y-0890D03*
G01X00736Y-0732D03*
G01X00736Y-0701D03*
G01X00767Y-1299D03*
G01X00767Y-1268D03*
G01X00767Y-1110D03*
G01X00767Y-1079D03*
G01X00767Y-1047D03*
G01X00767Y-1016D03*
G01X00767Y-0984D03*
G01X00767Y-0953D03*
G01X00767Y-0921D03*
G01X00767Y-0890D03*
G01X00767Y-0732D03*
G01X00767Y-0701D03*
G01X00799Y-1299D03*
G01X00799Y-1268D03*
G01X00799Y-1110D03*
G01X00799Y-1079D03*
G01X00799Y-1047D03*
G01X00799Y-1016D03*
G01X00799Y-0984D03*
G01X00799Y-0953D03*
G01X00799Y-0921D03*
G01X00799Y-0890D03*
G01X00799Y-0732D03*
G01X00799Y-0701D03*
G01X00830Y-1299D03*
G01X00830Y-1268D03*
G01X00830Y-1110D03*
G01X00830Y-1079D03*
G01X00830Y-1047D03*
G01X00830Y-1016D03*
G01X00830Y-0984D03*
G01X00830Y-0953D03*
G01X00830Y-0921D03*
G01X00830Y-0890D03*
G01X00830Y-0732D03*
G01X00830Y-0701D03*
G01X00862Y-1299D03*
G01X00862Y-1268D03*
G01X00862Y-0732D03*
G01X00862Y-0701D03*
G01X00893Y-1299D03*
G01X00893Y-1268D03*
G01X00893Y-0732D03*
G01X00893Y-0701D03*
G01X00925Y-1299D03*
G01X00925Y-1268D03*
G01X00925Y-0732D03*
G01X00925Y-0701D03*
G01X00956Y-1299D03*
G01X00956Y-1268D03*
G01X00956Y-0732D03*
G01X00956Y-0701D03*
G01X00988Y-1299D03*
G01X00988Y-1268D03*
G01X00988Y-0732D03*
G01X00988Y-0701D03*
G01X01019Y-1299D03*
G01X01019Y-1268D03*
G01X01019Y-1236D03*
G01X01019Y-1205D03*
G01X01019Y-1173D03*
G01X01019Y-1142D03*
G01X01019Y-1110D03*
G01X01019Y-1079D03*
G01X01019Y-1047D03*
G01X01019Y-1016D03*
G01X01019Y-0984D03*
G01X01019Y-0953D03*
G01X01019Y-0921D03*
G01X01019Y-0890D03*
G01X01019Y-0858D03*
G01X01019Y-0827D03*
G01X01019Y-0795D03*
G01X01019Y-0764D03*
G01X01019Y-0732D03*
G01X01019Y-0701D03*
G01X00988Y-1236D03*
G01X00988Y-1205D03*
G01X00988Y-1173D03*
G01X00988Y-1142D03*
G01X00988Y-1110D03*
G01X00988Y-1079D03*
G01X00988Y-1047D03*
G01X00988Y-1016D03*
G01X00988Y-0984D03*
G01X00988Y-0953D03*
G01X00988Y-0921D03*
G01X00988Y-0890D03*
G01X00988Y-0858D03*
G01X00988Y-0827D03*
G01X00988Y-0795D03*
G01X00988Y-0764D03*
G54D21*
G01X00141Y-1261D03*
G01X00141Y-1280D03*
G01X00141Y-1300D03*
G01X00141Y-1320D03*
G01X00141Y-1339D03*
G01X00279Y-1339D03*
G01X00279Y-1320D03*
G01X00279Y-1300D03*
G01X00279Y-1280D03*
G01X00279Y-1261D03*
G54D22*
G01X01520Y00040D03*
G01X01520Y00065D03*
G01X01520Y00090D03*
G01X01520Y00115D03*
G01X01520Y00140D03*
G01X01520Y00165D03*
G01X01520Y00190D03*
G01X01520Y00215D03*
G01X01520Y00240D03*
G54D23*
G01X00479Y-0369D03*
G01X00479Y-0350D03*
G01X00479Y-0330D03*
G01X00479Y-0310D03*
G01X00479Y-0291D03*
G01X00361Y-0291D03*
G01X00361Y-0310D03*
G01X00361Y-0330D03*
G01X00361Y-0350D03*
G01X00361Y-0369D03*
G54D24*
G01X00420Y-0330D03*
G54D25*
G01X00036Y-0951D03*
G01X00036Y-0971D03*
G01X00036Y-0990D03*
G01X00036Y-1010D03*
G01X00036Y-1030D03*
G01X00036Y-1049D03*
G01X00036Y-1069D03*
G01X00036Y-1089D03*
G01X00225Y-1089D03*
G01X00225Y-1069D03*
G01X00225Y-1049D03*
G01X00225Y-1030D03*
G01X00225Y-1010D03*
G01X00225Y-0990D03*
G01X00225Y-0971D03*
G01X00225Y-0951D03*
G54D26*
G01X00061Y-1114D03*
G01X00081Y-1114D03*
G01X00101Y-1114D03*
G01X00120Y-1114D03*
G01X00140Y-1114D03*
G01X00160Y-1114D03*
G01X00179Y-1114D03*
G01X00199Y-1114D03*
G01X00199Y-0925D03*
G01X00179Y-0925D03*
G01X00160Y-0925D03*
G01X00140Y-0925D03*
G01X00120Y-0925D03*
G01X00101Y-0925D03*
G01X00081Y-0925D03*
G01X00061Y-0925D03*
G54D27*
G01X00095Y-0985D03*
G01X00095Y-1055D03*
G01X00165Y-1055D03*
G01X00165Y-0985D03*
G54D28*
G01X02086Y-2672D03*
G01X02137Y-2672D03*
G01X02112Y-2605D03*
G01X02086Y-2232D03*
G01X02137Y-2232D03*
G01X02112Y-2165D03*
G01X02086Y-2452D03*
G01X02137Y-2452D03*
G01X02112Y-2385D03*
G01X02086Y-1572D03*
G01X02137Y-1572D03*
G01X02112Y-1505D03*
G01X02086Y-1792D03*
G01X02137Y-1792D03*
G01X02112Y-1725D03*
G01X02086Y-2012D03*
G01X02137Y-2012D03*
G01X02112Y-1945D03*
G01X02086Y-1352D03*
G01X02137Y-1352D03*
G01X02112Y-1285D03*
G01X02086Y-0692D03*
G01X02137Y-0692D03*
G01X02112Y-0625D03*
G01X02086Y-0472D03*
G01X02137Y-0472D03*
G01X02112Y-0405D03*
G01X02086Y-0912D03*
G01X02137Y-0912D03*
G01X02112Y-0845D03*
G01X02086Y-0032D03*
G01X02137Y-0032D03*
G01X02112Y00035D03*
G01X02086Y-0252D03*
G01X02137Y-0252D03*
G01X02112Y-0185D03*
G01X02086Y-1132D03*
G01X02137Y-1132D03*
G01X02112Y-1065D03*
G01X02086Y00188D03*
G01X02137Y00188D03*
G01X02112Y00255D03*
G54D29*
G01X00164Y-0758D03*
G54D30*
G01X00209Y-0758D03*
G54D29*
G01X00215Y-0680D03*
G01X00164Y-0680D03*
G54D31*
G01X00194Y-1517D03*
G01X00220Y-1517D03*
G01X00246Y-1517D03*
G01X00246Y-1443D03*
G01X00194Y-1443D03*
G54D32*
G01X00763Y00136D03*
G01X00763Y00110D03*
G01X00763Y00084D03*
G01X00837Y00084D03*
G01X00837Y00136D03*
G54D31*
G01X00946Y-0523D03*
G01X00920Y-0523D03*
G01X00894Y-0523D03*
G01X00894Y-0597D03*
G01X00946Y-0597D03*
G54D32*
G01X02467Y00304D03*
G01X02467Y00330D03*
G01X02467Y00356D03*
G01X02393Y00356D03*
G01X02393Y00330D03*
G01X02393Y00304D03*
G54D33*
G01X03808Y-2973D03*
G01X03808Y-2923D03*
G01X03808Y-2873D03*
G01X03808Y-2823D03*
G01X03808Y-2773D03*
G01X03808Y-2723D03*
G01X03808Y-2673D03*
G01X03808Y-2623D03*
G01X03595Y-2623D03*
G01X03595Y-2673D03*
G01X03595Y-2723D03*
G01X03595Y-2773D03*
G01X03595Y-2823D03*
G01X03595Y-2873D03*
G01X03595Y-2923D03*
G01X03595Y-2973D03*
G01X03808Y-2548D03*
G01X03808Y-2498D03*
G01X03808Y-2448D03*
G01X03808Y-2398D03*
G01X03808Y-2348D03*
G01X03808Y-2298D03*
G01X03808Y-2248D03*
G01X03808Y-2198D03*
G01X03595Y-2198D03*
G01X03595Y-2248D03*
G01X03595Y-2298D03*
G01X03595Y-2348D03*
G01X03595Y-2398D03*
G01X03595Y-2448D03*
G01X03595Y-2498D03*
G01X03595Y-2548D03*
G01X03808Y-1698D03*
G01X03808Y-1648D03*
G01X03808Y-1598D03*
G01X03808Y-1548D03*
G01X03808Y-1498D03*
G01X03808Y-1448D03*
G01X03808Y-1398D03*
G01X03808Y-1348D03*
G01X03595Y-1348D03*
G01X03595Y-1398D03*
G01X03595Y-1448D03*
G01X03595Y-1498D03*
G01X03595Y-1548D03*
G01X03595Y-1598D03*
G01X03595Y-1648D03*
G01X03595Y-1698D03*
G01X03808Y-2123D03*
G01X03808Y-2073D03*
G01X03808Y-2023D03*
G01X03808Y-1973D03*
G01X03808Y-1923D03*
G01X03808Y-1873D03*
G01X03808Y-1823D03*
G01X03808Y-1773D03*
G01X03595Y-1773D03*
G01X03595Y-1823D03*
G01X03595Y-1873D03*
G01X03595Y-1923D03*
G01X03595Y-1973D03*
G01X03595Y-2023D03*
G01X03595Y-2073D03*
G01X03595Y-2123D03*
G01X03808Y-0423D03*
G01X03808Y-0373D03*
G01X03808Y-0323D03*
G01X03808Y-0273D03*
G01X03808Y-0223D03*
G01X03808Y-0173D03*
G01X03808Y-0123D03*
G01X03808Y-0073D03*
G01X03595Y-0073D03*
G01X03595Y-0123D03*
G01X03595Y-0173D03*
G01X03595Y-0223D03*
G01X03595Y-0273D03*
G01X03595Y-0323D03*
G01X03595Y-0373D03*
G01X03595Y-0423D03*
G01X03808Y00002D03*
G01X03808Y00052D03*
G01X03808Y00102D03*
G01X03808Y00152D03*
G01X03808Y00202D03*
G01X03808Y00252D03*
G01X03808Y00302D03*
G01X03808Y00352D03*
G01X03595Y00352D03*
G01X03595Y00302D03*
G01X03595Y00252D03*
G01X03595Y00202D03*
G01X03595Y00152D03*
G01X03595Y00102D03*
G01X03595Y00052D03*
G01X03595Y00002D03*
G01X03808Y-0848D03*
G01X03808Y-0798D03*
G01X03808Y-0748D03*
G01X03808Y-0698D03*
G01X03808Y-0648D03*
G01X03808Y-0598D03*
G01X03808Y-0548D03*
G01X03808Y-0498D03*
G01X03595Y-0498D03*
G01X03595Y-0548D03*
G01X03595Y-0598D03*
G01X03595Y-0648D03*
G01X03595Y-0698D03*
G01X03595Y-0748D03*
G01X03595Y-0798D03*
G01X03595Y-0848D03*
G01X03808Y-1273D03*
G01X03808Y-1223D03*
G01X03808Y-1173D03*
G01X03808Y-1123D03*
G01X03808Y-1073D03*
G01X03808Y-1024D03*
G01X03808Y-0973D03*
G01X03808Y-0923D03*
G01X03595Y-0923D03*
G01X03595Y-0973D03*
G01X03595Y-1024D03*
G01X03595Y-1073D03*
G01X03595Y-1123D03*
G01X03595Y-1173D03*
G01X03595Y-1223D03*
G01X03595Y-1273D03*
G54D34*
G01X01055Y00016D03*
G01X01005Y00016D03*
G01X00955Y00016D03*
G01X00905Y00016D03*
G01X00855Y00016D03*
G01X00805Y00016D03*
G01X00755Y00016D03*
G01X00705Y00016D03*
G01X00705Y-0196D03*
G01X00755Y-0196D03*
G01X00805Y-0196D03*
G01X00855Y-0196D03*
G01X00905Y-0196D03*
G01X00955Y-0196D03*
G01X01005Y-0196D03*
G01X01055Y-0196D03*
G54D33*
G01X01336Y-0045D03*
G01X01336Y00005D03*
G01X01336Y00055D03*
G01X01336Y00105D03*
G01X01336Y00155D03*
G01X01336Y00205D03*
G01X01336Y00255D03*
G01X01336Y00305D03*
G01X01124Y00305D03*
G01X01124Y00255D03*
G01X01124Y00205D03*
G01X01124Y00155D03*
G01X01124Y00105D03*
G01X01124Y00055D03*
G01X01124Y00005D03*
G01X01124Y-0045D03*
G54D35*
G01X00105Y-1434D03*
G01X00055Y-1434D03*
G01X00005Y-1434D03*
G01X-0045Y-1434D03*
G01X-0045Y-1646D03*
G01X00005Y-1646D03*
G01X00055Y-1646D03*
G01X00105Y-1646D03*
G54D36*
G01X02242Y-2690D03*
G01X02279Y-2607D03*
G01X02204Y-2607D03*
G01X02242Y-2250D03*
G01X02279Y-2167D03*
G01X02204Y-2167D03*
G01X02242Y-2470D03*
G01X02279Y-2387D03*
G01X02204Y-2387D03*
G01X02242Y-1590D03*
G01X02279Y-1507D03*
G01X02204Y-1507D03*
G01X02242Y-1810D03*
G01X02279Y-1727D03*
G01X02204Y-1727D03*
G01X02242Y-2030D03*
G01X02279Y-1947D03*
G01X02204Y-1947D03*
G01X02242Y-1370D03*
G01X02279Y-1287D03*
G01X02204Y-1287D03*
G01X02242Y-0710D03*
G01X02279Y-0627D03*
G01X02204Y-0627D03*
G01X02242Y-0490D03*
G01X02279Y-0407D03*
G01X02204Y-0407D03*
G01X02242Y-0930D03*
G01X02279Y-0847D03*
G01X02204Y-0847D03*
G01X02242Y-0050D03*
G01X02279Y00033D03*
G01X02204Y00033D03*
G01X02242Y-0270D03*
G01X02279Y-0187D03*
G01X02204Y-0187D03*
G01X02242Y-1150D03*
G01X02279Y-1067D03*
G01X02204Y-1067D03*
G01X02242Y00170D03*
G01X02279Y00253D03*
G01X02204Y00253D03*
G54D37*
G01X03069Y-2730D03*
G01X03151Y-2767D03*
G01X03151Y-2693D03*
G01X02879Y-2730D03*
G01X02961Y-2767D03*
G01X02961Y-2693D03*
G54D38*
G01X02341Y-2671D03*
G01X02342Y-2708D03*
G01X02341Y-2746D03*
G01X02443Y-2746D03*
G01X02443Y-2671D03*
G01X02341Y-2231D03*
G01X02342Y-2268D03*
G01X02341Y-2306D03*
G01X02443Y-2306D03*
G01X02443Y-2231D03*
G01X02341Y-2451D03*
G01X02342Y-2488D03*
G01X02341Y-2526D03*
G01X02443Y-2526D03*
G01X02443Y-2451D03*
G01X02341Y-1571D03*
G01X02342Y-1608D03*
G01X02341Y-1646D03*
G01X02443Y-1646D03*
G01X02443Y-1571D03*
G01X02341Y-1791D03*
G01X02342Y-1828D03*
G01X02341Y-1866D03*
G01X02443Y-1866D03*
G01X02443Y-1791D03*
G01X02341Y-2011D03*
G01X02342Y-2048D03*
G01X02341Y-2086D03*
G01X02443Y-2086D03*
G01X02443Y-2011D03*
G01X02341Y-1351D03*
G01X02342Y-1388D03*
G01X02341Y-1426D03*
G01X02443Y-1426D03*
G01X02443Y-1351D03*
G01X02341Y-0691D03*
G01X02342Y-0728D03*
G01X02341Y-0766D03*
G01X02443Y-0766D03*
G01X02443Y-0691D03*
G01X02341Y-0471D03*
G01X02342Y-0508D03*
G01X02341Y-0546D03*
G01X02443Y-0546D03*
G01X02443Y-0471D03*
G01X02341Y-0911D03*
G01X02342Y-0948D03*
G01X02341Y-0986D03*
G01X02443Y-0986D03*
G01X02443Y-0911D03*
G01X02341Y-0031D03*
G01X02342Y-0068D03*
G01X02341Y-0106D03*
G01X02443Y-0106D03*
G01X02443Y-0031D03*
G01X02341Y-0251D03*
G01X02342Y-0288D03*
G01X02341Y-0326D03*
G01X02443Y-0326D03*
G01X02443Y-0251D03*
G01X02341Y-1131D03*
G01X02342Y-1168D03*
G01X02341Y-1206D03*
G01X02443Y-1206D03*
G01X02443Y-1131D03*
G01X02341Y00189D03*
G01X02342Y00152D03*
G01X02341Y00114D03*
G01X02443Y00114D03*
G01X02443Y00189D03*
G01X00051Y-0677D03*
G01X00051Y-0640D03*
G01X00051Y-0603D03*
G01X-0051Y-0603D03*
G01X-0051Y-0640D03*
G01X-0051Y-0677D03*
G54D39*
G01X-0323Y-2270D03*
G01X-0297Y-2270D03*
G01X-0272Y-2270D03*
G01X-0246Y-2270D03*
G01X-0220Y-2270D03*
G01X-0220Y-2050D03*
G01X-0246Y-2050D03*
G01X-0272Y-2050D03*
G01X-0297Y-2050D03*
G01X-0323Y-2050D03*
G01X-0348Y-2050D03*
G01X-0374Y-2050D03*
G01X-0400Y-2050D03*
G01X-0348Y-2270D03*
G01X-0374Y-2270D03*
G01X-0400Y-2270D03*
G54D40*
G01X00967Y-1925D03*
G01X00967Y-1900D03*
G01X00967Y-1874D03*
G01X00967Y-1848D03*
G01X00967Y-1823D03*
G01X00967Y-1797D03*
G01X00967Y-1772D03*
G01X00967Y-1746D03*
G01X00967Y-1720D03*
G01X00967Y-1695D03*
G01X00733Y-1695D03*
G01X00733Y-1720D03*
G01X00733Y-1746D03*
G01X00733Y-1772D03*
G01X00733Y-1797D03*
G01X00733Y-1823D03*
G01X00733Y-1848D03*
G01X00733Y-1874D03*
G01X00733Y-1900D03*
G01X00733Y-1925D03*
G54D41*
G01X00335Y-1753D03*
G01X00310Y-1753D03*
G01X00284Y-1753D03*
G01X00258Y-1753D03*
G01X00233Y-1753D03*
G01X00207Y-1753D03*
G01X00182Y-1753D03*
G01X00156Y-1753D03*
G01X00130Y-1753D03*
G01X00105Y-1753D03*
G01X00105Y-1987D03*
G01X00130Y-1987D03*
G01X00156Y-1987D03*
G01X00182Y-1987D03*
G01X00207Y-1987D03*
G01X00233Y-1987D03*
G01X00258Y-1987D03*
G01X00284Y-1987D03*
G01X00310Y-1987D03*
G01X00335Y-1987D03*
G01X00645Y-1753D03*
G01X00620Y-1753D03*
G01X00594Y-1753D03*
G01X00568Y-1753D03*
G01X00543Y-1753D03*
G01X00517Y-1753D03*
G01X00492Y-1753D03*
G01X00466Y-1753D03*
G01X00440Y-1753D03*
G01X00415Y-1753D03*
G01X00415Y-1987D03*
G01X00440Y-1987D03*
G01X00466Y-1987D03*
G01X00492Y-1987D03*
G01X00517Y-1987D03*
G01X00543Y-1987D03*
G01X00568Y-1987D03*
G01X00594Y-1987D03*
G01X00620Y-1987D03*
G01X00645Y-1987D03*
G54D20*
G01X01386Y-1126D03*
G01X01355Y-1126D03*
G01X01323Y-1126D03*
G01X01197Y-1126D03*
G01X01166Y-1126D03*
G01X01134Y-1126D03*
G01X01386Y-1094D03*
G01X01355Y-1094D03*
G01X01323Y-1094D03*
G01X01197Y-1094D03*
G01X01166Y-1094D03*
G01X01134Y-1094D03*
G01X01386Y-1063D03*
G01X01355Y-1063D03*
G01X01323Y-1063D03*
G01X01197Y-1063D03*
G01X01166Y-1063D03*
G01X01134Y-1063D03*
G01X01386Y-1031D03*
G01X01355Y-1031D03*
G01X01323Y-1031D03*
G01X01197Y-1031D03*
G01X01166Y-1031D03*
G01X01134Y-1031D03*
G01X01386Y-1000D03*
G01X01355Y-1000D03*
G01X01323Y-1000D03*
G01X01197Y-1000D03*
G01X01166Y-1000D03*
G01X01134Y-1000D03*
G01X01386Y-0968D03*
G01X01355Y-0968D03*
G01X01323Y-0968D03*
G01X01197Y-0968D03*
G01X01166Y-0968D03*
G01X01134Y-0968D03*
G01X01386Y-0937D03*
G01X01355Y-0937D03*
G01X01323Y-0937D03*
G01X01197Y-0937D03*
G01X01166Y-0937D03*
G01X01134Y-0937D03*
G01X01386Y-0905D03*
G01X01355Y-0905D03*
G01X01323Y-0905D03*
G01X01197Y-0905D03*
G01X01166Y-0905D03*
G01X01134Y-0905D03*
G01X01386Y-0874D03*
G01X01355Y-0874D03*
G01X01323Y-0874D03*
G01X01197Y-0874D03*
G01X01166Y-0874D03*
G01X01134Y-0874D03*
G54D42*
G01X01986Y-2746D03*
G01X02037Y-2746D03*
G01X02012Y-2671D03*
G01X01986Y-2306D03*
G01X02037Y-2306D03*
G01X02012Y-2231D03*
G01X01986Y-2526D03*
G01X02037Y-2526D03*
G01X02012Y-2451D03*
G01X01986Y-1646D03*
G01X02037Y-1646D03*
G01X02012Y-1571D03*
G01X01986Y-1866D03*
G01X02037Y-1866D03*
G01X02012Y-1791D03*
G01X01986Y-2086D03*
G01X02037Y-2086D03*
G01X02012Y-2011D03*
G01X01986Y-1426D03*
G01X02037Y-1426D03*
G01X02012Y-1351D03*
G01X01986Y-0766D03*
G01X02037Y-0766D03*
G01X02012Y-0691D03*
G01X01986Y-0546D03*
G01X02037Y-0546D03*
G01X02012Y-0471D03*
G01X01986Y-0986D03*
G01X02037Y-0986D03*
G01X02012Y-0911D03*
G01X01986Y-0106D03*
G01X02037Y-0106D03*
G01X02012Y-0031D03*
G01X01986Y-0326D03*
G01X02037Y-0326D03*
G01X02012Y-0251D03*
G01X01986Y-1206D03*
G01X02037Y-1206D03*
G01X02012Y-1131D03*
G01X01986Y00114D03*
G01X02037Y00114D03*
G01X02012Y00189D03*
G54D11*
G01X02511Y-2608D03*
G01X02472Y-2608D03*
G01X02511Y-2168D03*
G01X02472Y-2168D03*
G01X02511Y-2388D03*
G01X02472Y-2388D03*
G01X02511Y-1508D03*
G01X02472Y-1508D03*
G01X02511Y-1728D03*
G01X02472Y-1728D03*
G01X02511Y-1948D03*
G01X02472Y-1948D03*
G01X02511Y-1288D03*
G01X02472Y-1288D03*
G01X02511Y-0628D03*
G01X02472Y-0628D03*
G01X02511Y-0408D03*
G01X02472Y-0408D03*
G01X02511Y-0848D03*
G01X02472Y-0848D03*
G01X02511Y00032D03*
G01X02472Y00032D03*
G01X02511Y-0188D03*
G01X02472Y-0188D03*
G01X02511Y-1068D03*
G01X02472Y-1068D03*
G01X02511Y00252D03*
G01X02472Y00252D03*
G54D38*
G01X02341Y-2891D03*
G01X02342Y-2928D03*
G01X02341Y-2966D03*
G01X02443Y-2966D03*
G01X02443Y-2891D03*
G54D13*
G01X02421Y-2828D03*
G01X02362Y-2828D03*
G54D36*
G01X02242Y-2910D03*
G01X02279Y-2827D03*
G01X02204Y-2827D03*
G54D11*
G01X02131Y-2938D03*
G01X02092Y-2938D03*
G54D28*
G01X02086Y-2892D03*
G01X02137Y-2892D03*
G01X02112Y-2825D03*
G54D42*
G01X01986Y-2966D03*
G01X02037Y-2966D03*
G01X02012Y-2891D03*
G54D11*
G01X02251Y-2968D03*
G01X02212Y-2968D03*
G01X02511Y-2828D03*
G01X02472Y-2828D03*
G54D43*
G01X00794Y-1465D03*
G01X00794Y-1515D03*
G01X00794Y-1565D03*
G01X00794Y-1615D03*
G01X01006Y-1615D03*
G01X01006Y-1565D03*
G01X01006Y-1515D03*
G01X01006Y-1465D03*
G54D11*
G01X01570Y-0500D03*
G01X01530Y-0500D03*
G01X01530Y-0550D03*
G01X01570Y-0550D03*
G01X01570Y-1350D03*
G01X01530Y-1350D03*
G01X01530Y-1400D03*
G01X01570Y-1400D03*
G01X01570Y-2200D03*
G01X01530Y-2200D03*
G01X01530Y-2250D03*
G01X01570Y-2250D03*
G01X01070Y-1860D03*
G01X01030Y-1860D03*
G01X01050Y-0260D03*
G01X01010Y-0260D03*
M02*
