G04 (created by PCBNEW-RS274X (2010-03-14)-final) date Mon 31 Jan 2011 05:12:30 PM EST*
G01*
G70*
G90*
%MOIN*%
G04 Gerber Fmt 3.4, Leading zero omitted, Abs format*
%FSLAX34Y34*%
G04 APERTURE LIST*
%ADD10C,0.001000*%
%ADD11R,0.026600X0.022700*%
%ADD12R,0.022700X0.026600*%
%ADD13R,0.038400X0.026600*%
%ADD14R,0.026600X0.038400*%
%ADD15C,0.066000*%
%ADD16C,0.152600*%
%ADD17C,0.140800*%
%ADD18C,0.153000*%
%ADD19R,0.034500X0.038400*%
%ADD20C,0.143000*%
%ADD21C,0.069900*%
%ADD22C,0.073900*%
%ADD23C,0.132900*%
%ADD24C,0.063000*%
%ADD25C,0.058000*%
%ADD26R,0.357300X0.239200*%
%ADD27C,0.129000*%
%ADD28C,0.062100*%
%ADD29C,0.097500*%
G04 APERTURE END LIST*
G54D10*
G54D11*
X00500Y-15303D03*
X00500Y-15697D03*
X02100Y-13197D03*
X02100Y-12803D03*
G54D12*
X12103Y02000D03*
X12497Y02000D03*
X10497Y00100D03*
X10103Y00100D03*
G54D11*
X06900Y-09197D03*
X06900Y-08803D03*
G54D12*
X06347Y-09600D03*
X05953Y-09600D03*
X07003Y-07800D03*
X07397Y-07800D03*
G54D11*
X01600Y-09797D03*
X01600Y-09403D03*
X01100Y-10703D03*
X01100Y-11097D03*
G54D12*
X00897Y-09700D03*
X00503Y-09700D03*
X12797Y-09800D03*
X12403Y-09800D03*
X12403Y-11000D03*
X12797Y-11000D03*
X13903Y-11100D03*
X14297Y-11100D03*
X12797Y-11400D03*
X12403Y-11400D03*
G54D11*
X13900Y-08297D03*
X13900Y-07903D03*
G54D12*
X12797Y-10600D03*
X12403Y-10600D03*
X05497Y-10000D03*
X05103Y-10000D03*
X05497Y-08400D03*
X05103Y-08400D03*
X00897Y-10400D03*
X00503Y-10400D03*
G54D11*
X07400Y-09197D03*
X07400Y-08803D03*
X07900Y-09197D03*
X07900Y-08803D03*
X06400Y-09197D03*
X06400Y-08803D03*
X07900Y-10503D03*
X07900Y-10897D03*
G54D12*
X08897Y-10600D03*
X08503Y-10600D03*
X05503Y-10600D03*
X05897Y-10600D03*
G54D11*
X07400Y-10503D03*
X07400Y-10897D03*
X06900Y-10503D03*
X06900Y-10897D03*
X06400Y-10503D03*
X06400Y-10897D03*
G54D12*
X08053Y-10100D03*
X08447Y-10100D03*
X06347Y-10100D03*
X05953Y-10100D03*
X12403Y-10200D03*
X12797Y-10200D03*
X08053Y-09600D03*
X08447Y-09600D03*
G54D13*
X01000Y-15795D03*
X01000Y-15205D03*
G54D14*
X07495Y-08300D03*
X06905Y-08300D03*
X02005Y-09200D03*
X02595Y-09200D03*
G54D13*
X-00300Y-10405D03*
X-00300Y-10995D03*
G54D14*
X06905Y-11500D03*
X07495Y-11500D03*
G54D15*
X41900Y-24500D03*
X41900Y-25500D03*
X41900Y-26500D03*
X41900Y-27500D03*
X41900Y-28500D03*
X41900Y-29500D03*
X40900Y-24500D03*
X40900Y-25500D03*
X40900Y-26500D03*
X40900Y-27500D03*
X40900Y-28500D03*
G54D16*
X30100Y00068D03*
G54D17*
X30108Y03454D03*
G54D16*
X30100Y-21845D03*
G54D17*
X30084Y-25254D03*
G54D18*
X16000Y-32000D03*
X-09000Y06000D03*
X16000Y06000D03*
X-09000Y-32000D03*
G54D15*
X-02400Y02500D03*
X-02400Y01500D03*
X-00700Y-04100D03*
X00300Y-04100D03*
X-00700Y-02500D03*
X00300Y-02500D03*
X11500Y-14300D03*
X11500Y-15300D03*
X11500Y-16300D03*
X11500Y-17300D03*
X11500Y-18300D03*
X11500Y-19300D03*
X11500Y-20300D03*
X14200Y-20400D03*
X13200Y-20400D03*
X14200Y-19400D03*
X13200Y-19400D03*
X14200Y-18400D03*
X13200Y-18400D03*
X14200Y-17400D03*
X13200Y-17400D03*
X14200Y-16400D03*
X13200Y-16400D03*
X14200Y-15400D03*
X13200Y-15400D03*
X14200Y-14400D03*
X13200Y-14400D03*
X16400Y-01500D03*
X16400Y-02500D03*
X16400Y-04500D03*
X16400Y-05500D03*
X16400Y-06500D03*
X16400Y-07500D03*
X16400Y-08500D03*
X16400Y-03500D03*
X16400Y-10000D03*
X16400Y-11000D03*
X16400Y-13000D03*
X16400Y-14000D03*
X16400Y-15000D03*
X16400Y-16000D03*
X16400Y-17000D03*
X16400Y-12000D03*
X16400Y-18500D03*
X16400Y-19500D03*
X16400Y-21500D03*
X16400Y-22500D03*
X16400Y-23500D03*
X16400Y-24500D03*
X16400Y-25500D03*
X16400Y-20500D03*
G54D19*
X05054Y-09525D03*
X05054Y-08875D03*
X05546Y-08875D03*
X05546Y-09525D03*
G54D20*
X-06800Y-19480D03*
G54D21*
X-06241Y-22206D03*
X-06241Y-23297D03*
X-06241Y-24387D03*
X-06241Y-25478D03*
X-06241Y-26569D03*
X-07359Y-22752D03*
X-07359Y-23842D03*
X-07359Y-24933D03*
X-07359Y-26023D03*
G54D20*
X-06800Y-29319D03*
G54D22*
X00100Y00100D03*
X01100Y00100D03*
X04100Y00100D03*
X05100Y00100D03*
X06100Y00100D03*
X06100Y03100D03*
X00100Y03100D03*
G54D23*
X-06660Y-00359D03*
X-06660Y-05241D03*
G54D15*
X-05593Y-02237D03*
X-04806Y-02237D03*
X-04806Y-03221D03*
X-05593Y-03221D03*
G54D24*
X34400Y-27350D03*
X33400Y-27350D03*
X32400Y-27350D03*
X32400Y-29850D03*
X34400Y-29850D03*
X-07850Y01500D03*
X-07850Y02500D03*
X-07850Y03500D03*
X-10350Y03500D03*
X-10350Y01500D03*
G54D25*
X43919Y-25035D03*
X44669Y-24535D03*
X43919Y-24035D03*
X44669Y-23535D03*
X43919Y-23035D03*
X44669Y-22535D03*
X43919Y-22035D03*
X44669Y-21535D03*
X43919Y-21035D03*
X44669Y-20535D03*
X43919Y-20035D03*
X44669Y-19535D03*
X43919Y-19035D03*
X44669Y-18535D03*
X43919Y-18035D03*
X44669Y-17535D03*
X43919Y-17035D03*
X44669Y-16535D03*
X43919Y-16035D03*
X44669Y-15535D03*
X43919Y-15035D03*
X44669Y-14535D03*
X43919Y-14035D03*
X44669Y-13535D03*
X43919Y-13035D03*
X44669Y-12535D03*
X43919Y-12035D03*
X44669Y-11535D03*
X43919Y-11035D03*
X44669Y-10535D03*
X43919Y-10035D03*
X44669Y-09535D03*
X43919Y-09035D03*
X44669Y-08535D03*
X45419Y-25035D03*
X46169Y-24535D03*
X45419Y-24035D03*
X46169Y-23535D03*
X45419Y-23035D03*
X46169Y-22535D03*
X45419Y-22035D03*
X46169Y-21535D03*
X45419Y-21035D03*
X46169Y-20535D03*
X45419Y-20035D03*
X46169Y-19535D03*
X45419Y-19035D03*
X46169Y-18535D03*
X45419Y-18035D03*
X46169Y-17535D03*
X45419Y-17035D03*
X46169Y-16535D03*
X45419Y-16035D03*
X46169Y-15535D03*
X45419Y-15035D03*
X46169Y-14535D03*
X45419Y-14035D03*
X46169Y-13535D03*
X45419Y-13035D03*
X46169Y-12535D03*
X45419Y-12035D03*
X46169Y-11535D03*
X45419Y-11035D03*
X46169Y-10535D03*
X45419Y-10035D03*
X46169Y-09535D03*
X45419Y-09035D03*
X46169Y-08535D03*
G54D26*
X45419Y-28185D03*
X45419Y-05385D03*
G54D27*
X-06451Y-07251D03*
X-06451Y-11751D03*
G54D21*
X-05250Y-06448D03*
X-05250Y-12552D03*
G54D28*
X-08049Y-06891D03*
X-08049Y-12111D03*
X-08049Y-07891D03*
X-08049Y-11111D03*
X-03951Y-07751D03*
X-02951Y-08251D03*
X-03951Y-08751D03*
X-02951Y-09251D03*
X-03951Y-09751D03*
X-02951Y-10251D03*
X-03951Y-10751D03*
X-02951Y-11251D03*
G54D29*
X-09349Y-15859D03*
X-08404Y-15072D03*
X-06239Y-15072D03*
X-05451Y-14107D03*
X-05451Y-17493D03*
X-08955Y-17493D03*
G54D15*
X20117Y-26185D03*
X20117Y-21785D03*
X20117Y-23985D03*
X20117Y-15185D03*
X20117Y-17385D03*
X20117Y-19585D03*
X20117Y-12985D03*
X20117Y-06385D03*
X20117Y-04185D03*
X20117Y-08585D03*
X20117Y00215D03*
X20117Y-01985D03*
X20117Y-10785D03*
X20117Y02415D03*
X03690Y-24510D03*
X04690Y-24510D03*
X05690Y-24510D03*
X02690Y-24510D03*
X01690Y-24510D03*
X00690Y-24510D03*
X-00310Y-24510D03*
X-01310Y-24510D03*
X14083Y-24496D03*
X13083Y-24496D03*
X12083Y-24496D03*
X11083Y-24496D03*
X10083Y-24496D03*
X09083Y-24496D03*
X08083Y-24496D03*
X07083Y-24496D03*
X-01000Y-11500D03*
X-01000Y-12600D03*
X20117Y-28385D03*
G54D12*
X12103Y00600D03*
X12497Y00600D03*
G54D18*
X46000Y-32000D03*
X46000Y06000D03*
X21000Y-32000D03*
X21000Y06000D03*
M02*
