M48
;DRILL file {PCBNEW (20080506 SVN-R1059)} date 23/5/2008-17:25:16
;FORMAT={2:4 / absolute / Inches / decimal format}
R,T
VER,1
FMAT,2
INCH,TZ
TCST,OFF
ICI,OFF
ATC,ON
T1C0.006
T2C0.010
T3C0.031
T4C0.035
T5C0.039
T6C0.047
T7C0.067
T8C0.091
T9C0.098
T10C0.126
%
M47
G05
M72
T1
X1.031Y1.228
X1.079Y1.244
X1.157Y1.480
X1.181Y1.929
X1.275Y1.244
X1.275Y1.346
X1.283Y1.543
X1.307Y1.275
X1.307Y1.307
X1.307Y1.339
X1.307Y1.433
X1.307Y1.528
X1.323Y1.669
X1.354Y1.323
X1.354Y1.354
X1.354Y1.449
X1.354Y1.512
X1.354Y1.638
X1.354Y1.740
X1.370Y1.189
X1.386Y1.291
X1.386Y1.323
X1.386Y1.417
X1.386Y1.449
X1.386Y1.480
X1.386Y1.575
X1.386Y1.606
X1.386Y1.638
X1.386Y1.669
X1.386Y1.701
X1.417Y1.291
X1.417Y1.323
X1.417Y1.354
X1.417Y1.386
X1.417Y1.417
X1.417Y1.449
X1.417Y1.480
X1.417Y1.512
X1.417Y1.543
X1.417Y1.575
X1.417Y1.638
X1.441Y1.709
X1.449Y1.024
X1.449Y1.047
X1.449Y1.086
X1.449Y1.291
X1.449Y1.323
X1.449Y1.354
X1.449Y1.386
X1.449Y1.417
X1.449Y1.480
X1.449Y1.512
X1.449Y1.543
X1.449Y1.575
X1.449Y1.606
X1.472Y1.086
X1.480Y1.291
X1.480Y1.323
X1.480Y1.354
X1.480Y1.386
X1.480Y1.417
X1.480Y1.449
X1.480Y1.512
X1.480Y1.543
X1.480Y1.575
X1.480Y1.606
X1.480Y1.740
X1.504Y0.882
X1.512Y1.260
X1.512Y1.291
X1.512Y1.354
X1.512Y1.386
X1.512Y1.480
X1.512Y1.543
X1.512Y1.575
X1.527Y1.676
X1.527Y1.984
X1.543Y1.260
X1.543Y1.291
X1.543Y1.323
X1.543Y1.512
X1.543Y1.543
X1.543Y1.575
X1.543Y1.606
X1.543Y1.638
X1.551Y1.055
X1.567Y1.102
X1.575Y0.953
X1.575Y1.291
X1.575Y1.323
X1.575Y1.386
X1.575Y1.543
X1.578Y1.705
X1.583Y1.811
X1.590Y1.102
X1.606Y0.953
X1.606Y1.291
X1.606Y1.323
X1.606Y1.386
X1.606Y1.417
X1.606Y1.480
X1.606Y1.512
X1.606Y1.543
X1.606Y1.575
X1.606Y1.606
X1.614Y0.913
X1.614Y1.086
X1.622Y1.228
X1.630Y0.897
X1.630Y0.929
X1.630Y0.953
X1.630Y1.071
X1.630Y1.787
X1.638Y1.323
X1.638Y1.386
X1.638Y1.417
X1.638Y1.449
X1.638Y1.480
X1.638Y1.543
X1.638Y1.575
X1.638Y1.669
X1.645Y1.031
X1.661Y1.016
X1.669Y1.197
X1.669Y1.291
X1.669Y1.323
X1.669Y1.354
X1.669Y1.386
X1.669Y1.480
X1.669Y1.543
X1.669Y1.669
X1.701Y1.323
X1.701Y1.354
X1.701Y1.386
X1.701Y1.449
X1.701Y1.480
X1.701Y1.512
X1.701Y1.543
X1.701Y1.575
X1.732Y1.291
X1.732Y1.323
X1.732Y1.354
X1.732Y1.417
X1.732Y1.543
X1.732Y1.575
X1.732Y1.606
X1.764Y1.228
X1.764Y1.291
X1.764Y1.606
X1.764Y1.669
X1.772Y1.528
X1.798Y1.669
X1.803Y1.551
X1.806Y1.372
X1.850Y1.370
X1.850Y1.496
X1.850Y1.559
X1.850Y1.622
X1.850Y1.653
X1.880Y1.702
X1.882Y1.465
X1.882Y1.496
X1.882Y1.528
X1.882Y1.559
X1.882Y1.677
X1.913Y1.496
X1.913Y1.622
X1.929Y1.661
X1.953Y1.512
X1.953Y1.543
X1.953Y1.575
X1.953Y1.606
X1.968Y1.354
X1.968Y1.417
X1.976Y1.528
X1.992Y1.575
X2.000Y1.370
X2.000Y1.433
X2.031Y1.480
X2.031Y1.512
X2.031Y1.543
X2.031Y1.575
X2.039Y1.370
X2.039Y1.622
X2.039Y1.653
X2.071Y1.370
X2.071Y1.465
X2.071Y1.559
X2.086Y1.669
X2.102Y1.370
X2.102Y1.401
X2.102Y1.433
X2.102Y1.496
X2.102Y1.590
X2.102Y1.653
X2.123Y1.716
X2.150Y1.488
X2.165Y1.212
X2.165Y1.275
X2.197Y1.212
X2.228Y1.299
X2.244Y1.433
T2
X0.173Y2.204
X0.212Y2.236
X0.220Y2.158
X0.228Y1.992
X0.252Y2.158
X0.260Y0.874
X0.291Y2.158
X0.299Y2.244
X0.315Y2.102
X0.331Y2.197
X0.339Y2.071
X0.386Y2.173
X0.410Y2.354
X0.449Y2.260
X0.488Y2.142
X0.512Y0.535
X0.520Y2.142
X0.520Y1.197
X0.527Y0.401
X0.551Y2.142
X0.551Y2.039
X0.567Y2.236
X0.685Y0.370
X0.693Y1.189
X0.709Y1.386
X0.709Y1.653
X0.724Y0.496
X0.732Y1.212
X0.740Y1.551
X0.748Y1.716
X0.764Y1.173
X0.764Y2.410
X0.772Y1.512
X0.772Y1.921
X0.772Y2.047
X0.780Y1.291
X0.780Y1.441
X0.795Y1.701
X0.795Y2.016
X0.819Y2.047
X0.827Y0.724
X0.827Y1.031
X0.827Y1.858
X0.842Y2.016
X0.850Y1.197
X0.858Y1.031
X0.858Y1.339
X0.866Y0.653
X0.874Y1.370
X0.874Y1.787
X0.886Y0.618
X0.890Y0.567
X0.890Y0.653
X0.890Y1.031
X0.905Y1.512
X0.905Y1.866
X0.913Y1.165
X0.913Y1.307
X0.921Y1.031
X0.937Y1.220
X0.945Y1.685
X0.945Y1.929
X0.953Y0.575
X0.953Y1.031
X0.961Y1.094
X0.961Y1.339
X0.968Y1.291
X0.968Y1.480
X0.976Y1.590
X0.984Y0.646
X0.984Y0.685
X0.984Y1.984
X1.015Y0.897
X1.015Y1.008
X1.023Y1.488
X1.031Y0.732
X1.031Y1.567
X1.033Y1.374
X1.039Y1.748
X1.039Y2.039
X1.047Y1.913
X1.079Y1.590
X1.083Y1.374
X1.110Y0.709
X1.118Y0.425
X1.118Y0.598
X1.118Y1.488
X1.118Y1.890
X1.118Y2.063
X1.126Y1.386
X1.126Y1.567
X1.126Y1.701
X1.165Y0.535
X1.165Y0.728
X1.165Y1.677
X1.173Y1.795
X1.181Y1.583
X1.197Y0.567
X1.197Y1.441
X1.197Y1.701
X1.212Y0.811
X1.212Y0.882
X1.212Y0.961
X1.228Y0.441
X1.228Y0.598
X1.228Y0.748
X1.228Y2.094
X1.236Y1.606
X1.236Y1.701
X1.244Y0.496
X1.244Y1.291
X1.268Y0.362
X1.268Y0.819
X1.275Y0.606
X1.275Y0.646
X1.275Y1.150
X1.283Y0.528
X1.299Y1.795
X1.299Y2.370
X1.346Y0.685
X1.346Y0.756
X1.346Y1.000
X1.346Y1.094
X1.354Y2.228
X1.362Y0.622
X1.378Y0.370
X1.386Y2.071
X1.393Y0.590
X1.401Y0.669
X1.401Y0.921
X1.409Y1.842
X1.409Y1.913
X1.409Y2.039
X1.409Y2.346
X1.417Y0.488
X1.425Y0.575
X1.433Y0.732
X1.441Y0.401
X1.441Y1.913
X1.449Y2.417
X1.457Y0.496
X1.457Y0.953
X1.472Y2.102
X1.488Y1.780
X1.496Y0.575
X1.512Y2.244
X1.527Y0.401
X1.527Y0.669
X1.527Y0.795
X1.527Y0.953
X1.527Y1.945
X1.527Y2.016
X1.535Y0.496
X1.543Y2.268
X1.567Y0.401
X1.567Y0.575
X1.575Y2.039
X1.583Y2.134
X1.606Y1.937
X1.661Y0.567
X1.669Y2.378
X1.693Y0.614
X1.701Y0.669
X1.701Y0.764
X1.709Y1.992
X1.709Y2.031
X1.744Y0.571
X1.756Y0.425
X1.764Y0.929
X1.787Y1.897
X1.787Y2.087
X1.795Y1.173
X1.803Y0.630
X1.803Y0.693
X1.803Y0.740
X1.803Y1.039
X1.811Y1.008
X1.811Y1.811
X1.819Y1.118
X1.866Y0.795
X1.866Y0.858
X1.866Y0.905
X1.874Y0.590
X1.905Y0.772
X1.913Y0.622
X1.913Y1.299
X1.929Y1.086
X1.929Y1.189
X1.937Y0.716
X1.937Y0.669
X1.961Y1.142
X1.961Y2.299
X1.968Y0.531
X1.968Y0.575
X1.968Y1.811
X1.976Y0.953
X1.976Y1.031
X2.008Y0.842
X2.008Y1.299
X2.015Y1.165
X2.055Y1.709
X2.055Y1.811
X2.072Y1.042
X2.094Y1.819
X2.094Y2.000
X2.094Y2.024
X2.102Y0.842
X2.102Y2.559
X2.165Y1.842
X2.165Y2.291
X2.189Y2.622
X2.212Y2.433
X2.228Y2.378
X2.291Y2.464
X2.307Y2.858
X2.315Y1.291
X2.323Y1.410
X2.323Y1.504
X2.370Y1.410
X2.370Y1.496
X2.386Y2.228
X2.393Y2.653
X2.393Y2.795
X2.401Y2.929
X2.409Y2.976
X2.417Y1.260
X2.417Y2.535
X2.417Y2.716
X2.417Y2.866
X2.441Y2.575
X2.441Y2.614
X2.449Y2.331
X2.480Y2.520
X2.480Y2.811
X2.488Y2.212
X2.488Y2.307
X2.488Y2.362
X2.496Y2.961
X2.520Y1.992
X2.527Y1.945
X2.559Y2.638
X2.630Y2.709
X2.669Y2.055
X2.669Y2.087
X2.677Y2.000
X2.693Y1.913
X2.701Y2.055
X2.701Y2.087
X2.772Y2.000
X2.890Y1.795
X2.913Y1.882
X2.921Y1.795
X2.929Y3.055
X2.937Y2.150
X2.937Y2.614
X2.976Y2.212
X2.992Y2.311
X2.992Y2.362
X2.992Y2.409
X2.992Y2.461
X3.000Y1.882
X3.015Y2.590
X3.015Y2.630
X3.027Y2.728
X3.047Y2.961
X3.047Y3.000
X3.071Y2.457
X3.079Y3.118
X3.083Y0.464
X3.083Y0.531
X3.090Y2.063
X3.098Y1.260
X3.098Y2.850
X3.114Y2.362
X3.121Y1.493
X3.121Y0.694
X3.134Y1.567
X3.134Y2.575
X3.142Y2.685
X3.145Y0.275
X3.157Y0.760
X3.157Y2.291
X3.181Y1.842
X3.181Y2.520
X3.189Y1.051
X3.189Y2.614
X3.189Y3.118
X3.197Y1.386
X3.197Y2.181
X3.201Y0.579
X3.212Y2.661
X3.252Y2.590
X3.299Y1.646
X3.299Y1.740
X3.299Y2.590
X3.315Y0.244
X3.315Y1.039
X3.315Y1.842
X3.354Y1.500
X3.354Y1.819
X3.354Y2.590
X3.358Y0.697
X3.358Y2.299
X3.358Y3.098
X3.370Y2.370
X3.390Y1.642
X3.393Y1.740
X3.433Y2.839
X3.441Y0.461
X3.567Y1.996
X3.575Y1.193
X3.618Y2.653
X3.622Y0.262
X3.622Y1.055
X3.622Y1.850
X3.626Y2.248
X3.638Y0.652
X3.638Y1.445
X3.645Y3.055
X3.661Y0.360
X3.661Y1.165
X3.661Y1.583
X3.661Y0.772
X3.665Y0.522
X3.669Y0.118
X3.673Y1.720
X3.689Y2.004
X3.689Y2.401
X3.693Y2.799
X3.693Y3.197
X3.701Y0.957
X3.701Y1.354
X3.701Y2.158
X3.701Y2.551
X3.701Y2.953
X3.704Y0.286
X3.724Y2.689
X3.728Y1.886
X3.728Y2.287
X3.732Y0.691
X3.732Y1.488
X3.740Y0.094
X3.740Y0.496
X3.740Y0.897
X3.740Y1.299
X3.740Y1.693
X3.740Y2.094
X3.740Y3.087
X3.744Y1.086
X3.764Y2.504
X3.772Y2.905
X3.795Y0.547
X3.795Y2.941
X3.799Y0.945
X3.799Y2.146
X3.799Y2.543
X3.803Y0.142
X3.803Y1.342
X3.803Y1.744
X3.925Y0.140
X3.925Y0.380
X3.929Y0.545
X3.929Y2.661
X3.933Y0.262
X3.933Y0.664
X3.933Y0.786
X3.933Y0.945
X3.933Y1.059
X3.933Y1.177
X3.933Y1.461
X3.933Y1.984
X3.933Y2.142
X3.933Y2.260
X3.933Y2.382
X3.933Y2.783
X3.933Y2.941
X3.933Y3.181
X3.937Y1.342
X3.937Y1.583
X3.937Y1.740
X3.937Y1.858
X3.937Y2.539
X3.937Y3.063
X4.050Y2.544
X4.051Y0.148
X4.051Y0.549
X4.051Y0.770
X4.051Y0.953
X4.051Y1.354
X4.051Y1.571
X4.051Y1.760
X4.051Y1.964
X4.051Y2.158
X4.051Y2.366
X4.051Y2.764
X4.051Y2.961
X4.051Y3.165
X4.055Y0.376
X4.055Y1.165
X4.102Y1.063
X4.102Y3.063
X4.110Y1.457
X4.110Y1.866
X4.110Y2.260
X4.110Y2.661
X4.118Y0.661
X4.139Y0.261
X4.216Y0.664
X4.220Y1.063
X4.220Y1.862
X4.224Y0.262
X4.224Y1.461
X4.228Y2.260
X4.232Y2.661
X4.232Y3.059
X4.401Y0.059
X4.401Y0.161
X4.401Y0.260
X4.401Y0.358
X4.401Y0.461
X4.401Y0.559
X4.401Y0.657
X4.401Y0.752
X4.401Y0.858
X4.401Y0.957
X4.401Y1.055
X4.401Y1.153
X4.401Y1.268
X4.401Y1.358
X4.401Y1.457
X4.401Y1.559
X4.401Y1.657
X4.401Y1.756
X4.401Y1.858
X4.401Y1.964
X4.401Y2.059
X4.401Y2.158
X4.401Y2.256
X4.401Y2.358
X4.401Y2.457
X4.401Y2.555
X4.401Y2.658
X4.401Y2.756
X4.401Y2.858
X4.401Y2.957
X4.401Y3.059
X4.401Y3.158
X4.401Y3.244
X4.614Y0.386
X4.614Y0.433
X4.614Y1.291
X4.614Y1.339
X4.614Y1.984
X4.614Y2.031
X4.614Y2.937
X4.622Y2.890
X4.630Y2.834
X4.637Y1.244
T3
X2.581Y1.341
X2.581Y1.741
X2.681Y1.341
X2.681Y1.741
X2.781Y1.341
X2.781Y1.741
T4
X0.362Y1.405
X0.362Y1.484
X0.362Y1.563
X0.462Y1.445
X0.462Y1.524
X0.462Y1.602
T5
X0.087Y1.913
X0.087Y2.013
X0.113Y2.346
X0.213Y2.346
X0.345Y0.361
X0.345Y0.461
X0.345Y0.561
X0.345Y0.661
X0.345Y0.761
X0.345Y0.861
X0.345Y0.961
X0.345Y1.061
X0.386Y1.913
X0.486Y1.913
X0.580Y0.561
X0.580Y0.661
X0.580Y0.761
X0.580Y0.861
X0.580Y0.961
X0.580Y1.061
X0.637Y2.178
X0.637Y2.278
X0.661Y1.957
X0.661Y2.039
X0.680Y0.661
X0.680Y0.761
X0.680Y0.861
X0.680Y0.961
X0.680Y1.061
X0.737Y2.178
X0.737Y2.278
X0.781Y0.233
X0.835Y0.386
X0.835Y0.486
X0.837Y2.178
X0.837Y2.278
X0.882Y0.233
X0.937Y2.178
X0.937Y2.278
X0.981Y0.233
X1.031Y0.390
X1.031Y0.472
X1.037Y2.178
X1.037Y2.278
X1.081Y0.233
X1.137Y2.178
X1.137Y2.278
X1.181Y0.233
X1.237Y2.178
X1.237Y2.278
X1.281Y0.233
X1.382Y0.233
X1.514Y2.484
X1.613Y2.484
X1.614Y0.236
X1.692Y2.484
X1.714Y0.236
X1.790Y2.484
X1.925Y1.890
X2.008Y1.890
X2.010Y3.192
X2.110Y3.092
X2.110Y3.192
X2.152Y0.439
X2.157Y2.090
X2.157Y2.173
X2.210Y3.092
X2.210Y3.192
X2.238Y0.948
X2.252Y0.439
X2.288Y0.848
X2.310Y3.092
X2.310Y3.192
X2.315Y1.699
X2.315Y1.799
X2.315Y1.899
X2.315Y1.999
X2.315Y2.099
X2.315Y2.199
X2.315Y2.299
X2.315Y2.399
X2.338Y0.948
X2.388Y0.848
X2.410Y3.092
X2.410Y3.192
X2.438Y0.948
X2.488Y0.848
X2.510Y3.092
X2.510Y3.192
X2.538Y0.948
X2.574Y0.439
X2.588Y0.848
X2.674Y0.439
X2.976Y1.428
X2.976Y1.528
X2.981Y1.639
X2.981Y1.721
X4.690Y2.083
X4.690Y2.183
X4.690Y2.283
X4.690Y2.383
X4.690Y2.483
X4.690Y2.583
X4.690Y2.683
X4.690Y2.783
X4.691Y0.531
X4.691Y0.631
X4.691Y0.731
X4.691Y0.831
X4.691Y0.931
X4.691Y1.031
X4.691Y1.131
X4.691Y1.231
X4.698Y1.637
X4.790Y2.083
X4.790Y2.183
X4.790Y2.283
X4.790Y2.383
X4.790Y2.483
X4.790Y2.583
X4.790Y2.683
X4.790Y2.783
X4.791Y0.531
X4.791Y0.631
X4.791Y0.731
X4.791Y0.831
X4.791Y0.931
X4.791Y1.031
X4.791Y1.131
X4.791Y1.231
X4.798Y1.637
T6
X0.467Y2.554
X0.521Y2.666
X0.576Y2.554
X0.630Y2.666
X0.685Y2.554
X0.740Y2.666
X0.794Y2.554
X0.849Y2.666
X0.903Y2.554
T7
X2.108Y0.719
X2.718Y0.719
T8
X0.272Y1.268
X0.272Y1.740
X1.394Y2.591
X1.921Y2.591
T9
X0.157Y0.157
X0.157Y3.150
X2.756Y3.150
X2.913Y0.157
X4.803Y0.157
X4.803Y3.150
T10
X0.194Y2.610
X1.178Y2.610
X2.188Y0.599
X2.638Y0.599
T0
M30
