G04 (Genere par PCBNEW (20080313-r890)) le 29/5/2008-04:29:58*
G01*
G70*
G90*
%MOIN*%
G04 Gerber Fmt 3.4, Leading zero omitted, Abs format*
%FSLAX34Y34*%
G04 APERTURE LIST*
%ADD10R,0.019700X0.023600*%
%ADD11C,0.001500*%
%ADD12C,0.001000*%
%ADD13C,0.005000*%
%ADD14C,0.012000*%
%ADD15C,0.015000*%
%ADD16C,0.003900*%
%ADD17R,0.023600X0.019700*%
%ADD18R,0.035400X0.023600*%
%ADD19R,0.027600X0.037400*%
%ADD20R,0.037400X0.027600*%
%ADD21C,0.098400*%
G04 APERTURE END LIST*
G54D10*
X27047Y-20000D03*
X27441Y-20000D03*
G54D17*
X17008Y-06968D03*
X17008Y-07362D03*
G54D10*
X15314Y-09213D03*
X15708Y-09213D03*
X14291Y-09213D03*
X14685Y-09213D03*
G54D17*
X14015Y-07362D03*
X14015Y-06968D03*
G54D10*
X21614Y-18189D03*
X21220Y-18189D03*
G54D17*
X20551Y-17756D03*
X20551Y-17362D03*
X12992Y-17283D03*
X12992Y-17677D03*
G54D10*
X10905Y-14803D03*
X10511Y-14803D03*
G54D17*
X17952Y-11142D03*
X17952Y-11536D03*
G54D10*
X15472Y-14646D03*
X15866Y-14646D03*
X15866Y-14173D03*
X15472Y-14173D03*
X19803Y-12992D03*
X19409Y-12992D03*
X18464Y-11890D03*
X18858Y-11890D03*
G54D17*
X12756Y-12874D03*
X12756Y-13268D03*
G54D10*
X16614Y-14173D03*
X17008Y-14173D03*
G54D17*
X15748Y-15709D03*
X15748Y-16103D03*
X15118Y-14606D03*
X15118Y-14212D03*
G54D10*
X16729Y-15067D03*
X16335Y-15067D03*
X11929Y-16457D03*
X12323Y-16457D03*
X19015Y-18110D03*
X19409Y-18110D03*
G54D17*
X10157Y-09803D03*
X10157Y-09409D03*
X08228Y-06929D03*
X08228Y-06535D03*
X12756Y-11772D03*
X12756Y-12166D03*
X16850Y-19882D03*
X16850Y-20276D03*
X15590Y-19646D03*
X15590Y-20040D03*
G54D18*
X17795Y-18130D03*
X17795Y-18720D03*
X21653Y-12382D03*
X21653Y-12972D03*
G54D19*
X14980Y-06142D03*
X14310Y-06142D03*
G54D20*
X15275Y-07658D03*
X15275Y-06988D03*
G36*
X11732Y-06899D02*
X11300Y-06899D01*
X11300Y-06801D01*
X11732Y-06801D01*
G37*
G36*
X11732Y-06702D02*
X11300Y-06702D01*
X11300Y-06604D01*
X11732Y-06604D01*
G37*
G36*
X11732Y-06505D02*
X11300Y-06505D01*
X11300Y-06407D01*
X11732Y-06407D01*
G37*
G36*
X11732Y-06308D02*
X11300Y-06308D01*
X11300Y-06210D01*
X11732Y-06210D01*
G37*
G36*
X11732Y-06112D02*
X11300Y-06112D01*
X11300Y-06014D01*
X11732Y-06014D01*
G37*
G36*
X09566Y-06112D02*
X09134Y-06112D01*
X09134Y-06014D01*
X09566Y-06014D01*
G37*
G36*
X09566Y-06308D02*
X09134Y-06308D01*
X09134Y-06210D01*
X09566Y-06210D01*
G37*
G36*
X09566Y-06505D02*
X09134Y-06505D01*
X09134Y-06407D01*
X09566Y-06407D01*
G37*
G36*
X09566Y-06702D02*
X09134Y-06702D01*
X09134Y-06604D01*
X09566Y-06604D01*
G37*
G36*
X09566Y-06899D02*
X09134Y-06899D01*
X09134Y-06801D01*
X09566Y-06801D01*
G37*
X16102Y-19665D03*
X16102Y-20335D03*
G54D21*
X01574Y-01575D03*
X48031Y-01575D03*
X48031Y-31496D03*
X01574Y-31496D03*
X29134Y-01575D03*
X27559Y-31496D03*
M02*
