G04 (created by PCBNEW-RS274X (2010-03-14)-final) date Tue 01 Feb 2011 02:56:59 PM EST*
G01*
G70*
G90*
%MOIN*%
G04 Gerber Fmt 3.4, Leading zero omitted, Abs format*
%FSLAX34Y34*%
G04 APERTURE LIST*
%ADD10C,0.001000*%
%ADD11R,0.022700X0.026600*%
%ADD12R,0.026600X0.022700*%
%ADD13R,0.026600X0.038400*%
%ADD14R,0.038400X0.026600*%
%ADD15C,0.066000*%
%ADD16R,0.052200X0.085700*%
%ADD17C,0.152600*%
%ADD18C,0.140800*%
%ADD19C,0.153000*%
%ADD20R,0.081700X0.121100*%
%ADD21R,0.121100X0.081700*%
%ADD22R,0.034500X0.038400*%
%ADD23C,0.073900*%
%ADD24C,0.132900*%
%ADD25C,0.063000*%
%ADD26C,0.018700*%
%ADD27R,0.050200X0.012800*%
%ADD28R,0.035000X0.016000*%
%ADD29R,0.034500X0.013200*%
%ADD30R,0.032500X0.121100*%
%ADD31R,0.026600X0.012800*%
%ADD32R,0.012800X0.026600*%
%ADD33R,0.058100X0.058100*%
%ADD34R,0.024700X0.032500*%
%ADD35R,0.019500X0.026600*%
%ADD36R,0.034500X0.030600*%
%ADD37R,0.018700X0.026600*%
%ADD38R,0.026600X0.018700*%
%ADD39C,0.058000*%
%ADD40R,0.357300X0.239200*%
%ADD41C,0.097500*%
%ADD42R,0.058100X0.022700*%
%ADD43R,0.022700X0.058100*%
%ADD44R,0.030600X0.058100*%
%ADD45R,0.026600X0.036500*%
%ADD46R,0.036500X0.026600*%
%ADD47R,0.045000X0.026600*%
%ADD48R,0.016800X0.042400*%
%ADD49R,0.054200X0.016800*%
%ADD50R,0.016800X0.054200*%
%ADD51R,0.030600X0.038400*%
%ADD52R,0.058100X0.030600*%
%ADD53C,0.143000*%
%ADD54C,0.069900*%
%ADD55C,0.089600*%
%ADD56C,0.062100*%
G04 APERTURE END LIST*
G54D10*
G54D11*
X00897Y-13300D03*
X00503Y-13300D03*
X00897Y-12900D03*
X00503Y-12900D03*
X00097Y-12500D03*
X-00297Y-12500D03*
X00897Y-12500D03*
X00503Y-12500D03*
X02397Y-14000D03*
X02003Y-14000D03*
X-03797Y-17800D03*
X-03403Y-17800D03*
X-02897Y-17800D03*
X-02503Y-17800D03*
X02297Y-15600D03*
X01903Y-15600D03*
X21314Y-27185D03*
X20920Y-27185D03*
X22514Y-27485D03*
X22120Y-27485D03*
X21314Y-22785D03*
X20920Y-22785D03*
X22514Y-23085D03*
X22120Y-23085D03*
X21314Y-24985D03*
X20920Y-24985D03*
X22514Y-25285D03*
X22120Y-25285D03*
X21314Y-16185D03*
X20920Y-16185D03*
X22514Y-16485D03*
X22120Y-16485D03*
X21314Y-18385D03*
X20920Y-18385D03*
X22514Y-18685D03*
X22120Y-18685D03*
X21314Y-20585D03*
X20920Y-20585D03*
X22514Y-20885D03*
X22120Y-20885D03*
X21314Y-13985D03*
X20920Y-13985D03*
X22514Y-14285D03*
X22120Y-14285D03*
X21314Y-07385D03*
X20920Y-07385D03*
X22514Y-07685D03*
X22120Y-07685D03*
X21314Y-05185D03*
X20920Y-05185D03*
X22514Y-05485D03*
X22120Y-05485D03*
X21314Y-09585D03*
X20920Y-09585D03*
X22514Y-09885D03*
X22120Y-09885D03*
X21314Y-00785D03*
X20920Y-00785D03*
X22514Y-01085D03*
X22120Y-01085D03*
X21314Y-02985D03*
X20920Y-02985D03*
X22514Y-03285D03*
X22120Y-03285D03*
X21314Y-11785D03*
X20920Y-11785D03*
X22514Y-12085D03*
X22120Y-12085D03*
X21314Y01415D03*
X20920Y01415D03*
X22514Y01115D03*
X22120Y01115D03*
X25103Y03100D03*
X25497Y03100D03*
G54D12*
X22600Y03497D03*
X22600Y03103D03*
X38800Y-29303D03*
X38800Y-29697D03*
X35200Y-29303D03*
X35200Y-29697D03*
X23200Y03497D03*
X23200Y03103D03*
X21400Y03497D03*
X21400Y03103D03*
X22000Y03497D03*
X22000Y03103D03*
X35200Y-25003D03*
X35200Y-25397D03*
X38800Y-25003D03*
X38800Y-25397D03*
X38850Y-16503D03*
X38850Y-16897D03*
X35200Y-16603D03*
X35200Y-16997D03*
X35200Y-20803D03*
X35200Y-21197D03*
X38850Y-20803D03*
X38850Y-21197D03*
X38850Y-03803D03*
X38850Y-04197D03*
X35200Y-03803D03*
X35200Y-04197D03*
X35200Y00397D03*
X35200Y00003D03*
X38850Y00497D03*
X38850Y00103D03*
X38850Y-08003D03*
X38850Y-08397D03*
X35200Y-08103D03*
X35200Y-08497D03*
X35200Y-12303D03*
X35200Y-12697D03*
X38850Y-12303D03*
X38850Y-12697D03*
G54D11*
X39197Y02500D03*
X38803Y02500D03*
X39197Y02000D03*
X38803Y02000D03*
G54D12*
X28800Y-28903D03*
X28800Y-29297D03*
G54D11*
X14697Y00600D03*
X14303Y00600D03*
G54D12*
X07200Y00903D03*
X07200Y01297D03*
X08800Y01297D03*
X08800Y00903D03*
G54D11*
X00997Y-01200D03*
X00603Y-01200D03*
X14697Y01100D03*
X14303Y01100D03*
X14697Y01600D03*
X14303Y01600D03*
X14697Y02100D03*
X14303Y02100D03*
X14303Y03100D03*
X14697Y03100D03*
X14697Y03600D03*
X14303Y03600D03*
X14697Y02600D03*
X14303Y02600D03*
X02097Y-06400D03*
X01703Y-06400D03*
G54D12*
X12400Y-18003D03*
X12400Y-18397D03*
X12400Y-20397D03*
X12400Y-20003D03*
X12400Y-16403D03*
X12400Y-16797D03*
G54D11*
X04397Y-02200D03*
X04003Y-02200D03*
X05197Y-02200D03*
X04803Y-02200D03*
X04103Y-04300D03*
X04497Y-04300D03*
X04803Y-04300D03*
X05197Y-04300D03*
X04497Y-04700D03*
X04103Y-04700D03*
G54D12*
X05300Y-03203D03*
X05300Y-03597D03*
G54D11*
X00297Y-07400D03*
X-00097Y-07400D03*
G54D12*
X05690Y-26707D03*
X05690Y-26313D03*
X04690Y-26707D03*
X04690Y-26313D03*
X03690Y-26707D03*
X03690Y-26313D03*
X02690Y-26707D03*
X02690Y-26313D03*
X-04000Y-23597D03*
X-04000Y-23203D03*
X-02500Y-23203D03*
X-02500Y-23597D03*
X-03800Y-19503D03*
X-03800Y-19897D03*
X-03500Y-23203D03*
X-03500Y-23597D03*
X-03000Y-23203D03*
X-03000Y-23597D03*
X01690Y-26707D03*
X01690Y-26313D03*
X00690Y-26707D03*
X00690Y-26313D03*
X-00310Y-26707D03*
X-00310Y-26313D03*
X-01310Y-26707D03*
X-01310Y-26313D03*
G54D11*
X07597Y-19700D03*
X07203Y-19700D03*
X03103Y-20500D03*
X03497Y-20500D03*
X07397Y-15200D03*
X07003Y-15200D03*
X07397Y-14700D03*
X07003Y-14700D03*
X07397Y-15700D03*
X07003Y-15700D03*
X06203Y-20500D03*
X06597Y-20500D03*
G54D12*
X07083Y-26693D03*
X07083Y-26299D03*
X08083Y-26693D03*
X08083Y-26299D03*
X09083Y-26693D03*
X09083Y-26299D03*
X10083Y-26693D03*
X10083Y-26299D03*
X11083Y-26693D03*
X11083Y-26299D03*
X12083Y-26693D03*
X12083Y-26299D03*
X13083Y-26693D03*
X13083Y-26299D03*
X14083Y-26693D03*
X14083Y-26299D03*
X-03100Y-19897D03*
X-03100Y-19503D03*
X-02600Y-19897D03*
X-02600Y-19503D03*
X08300Y-05997D03*
X08300Y-05603D03*
G54D11*
X04697Y-06200D03*
X04303Y-06200D03*
G54D12*
X01000Y-11603D03*
X01000Y-11997D03*
X00600Y-11603D03*
X00600Y-11997D03*
X00200Y-11603D03*
X00200Y-11997D03*
G54D11*
X02703Y-10700D03*
X03097Y-10700D03*
X-00103Y-11000D03*
X-00497Y-11000D03*
G54D12*
X01500Y-11603D03*
X01500Y-11997D03*
G54D11*
X-00103Y-10600D03*
X-00497Y-10600D03*
G54D12*
X02000Y-11603D03*
X02000Y-11997D03*
G54D11*
X-00103Y-09800D03*
X-00497Y-09800D03*
X-00103Y-09400D03*
X-00497Y-09400D03*
G54D12*
X00200Y-08597D03*
X00200Y-08203D03*
G54D11*
X-01303Y-07600D03*
X-01697Y-07600D03*
X-01303Y-07000D03*
X-01697Y-07000D03*
X-01303Y-10700D03*
X-01697Y-10700D03*
G54D12*
X02200Y-08203D03*
X02200Y-08597D03*
G54D11*
X-01097Y-10200D03*
X-00703Y-10200D03*
G54D12*
X01000Y-08597D03*
X01000Y-08203D03*
X00600Y-08597D03*
X00600Y-08203D03*
X01800Y-08597D03*
X01800Y-08203D03*
X01400Y-08597D03*
X01400Y-08203D03*
G54D11*
X03297Y-06700D03*
X02903Y-06700D03*
X02903Y-08300D03*
X03297Y-08300D03*
X13997Y-13100D03*
X13603Y-13100D03*
X12703Y-13100D03*
X13097Y-13100D03*
X13997Y-13500D03*
X13603Y-13500D03*
X12703Y-13500D03*
X13097Y-13500D03*
X15697Y-01500D03*
X15303Y-01500D03*
X15697Y-11000D03*
X15303Y-11000D03*
X15697Y-03500D03*
X15303Y-03500D03*
X15697Y-06500D03*
X15303Y-06500D03*
G54D12*
X08500Y-14097D03*
X08500Y-13703D03*
X07800Y-14097D03*
X07800Y-13703D03*
G54D11*
X09297Y-04700D03*
X08903Y-04700D03*
G54D12*
X09900Y-05603D03*
X09900Y-05997D03*
G54D11*
X15697Y-15000D03*
X15303Y-15000D03*
X15697Y-10000D03*
X15303Y-10000D03*
X15697Y-18500D03*
X15303Y-18500D03*
X15697Y-23500D03*
X15303Y-23500D03*
X15697Y-12000D03*
X15303Y-12000D03*
X15697Y-20500D03*
X15303Y-20500D03*
X15697Y-21500D03*
X15303Y-21500D03*
X15697Y-13000D03*
X15303Y-13000D03*
X15697Y-04500D03*
X15303Y-04500D03*
X10503Y-16200D03*
X10897Y-16200D03*
X10503Y-15600D03*
X10897Y-15600D03*
X07397Y-16200D03*
X07003Y-16200D03*
X10303Y-18100D03*
X10697Y-18100D03*
G54D12*
X06500Y-16103D03*
X06500Y-16497D03*
X06100Y-16103D03*
X06100Y-16497D03*
X05700Y-16103D03*
X05700Y-16497D03*
X05300Y-16103D03*
X05300Y-16497D03*
X06000Y-13703D03*
X06000Y-14097D03*
X04800Y-16103D03*
X04800Y-16497D03*
X05600Y-13703D03*
X05600Y-14097D03*
X05200Y-13703D03*
X05200Y-14097D03*
G54D13*
X24212Y-26085D03*
X23622Y-26085D03*
X24212Y-21685D03*
X23622Y-21685D03*
X24212Y-23885D03*
X23622Y-23885D03*
X24212Y-15085D03*
X23622Y-15085D03*
X24212Y-17285D03*
X23622Y-17285D03*
X24212Y-19485D03*
X23622Y-19485D03*
X24212Y-12885D03*
X23622Y-12885D03*
X24212Y-06285D03*
X23622Y-06285D03*
X24212Y-04085D03*
X23622Y-04085D03*
X24212Y-08485D03*
X23622Y-08485D03*
X24212Y00315D03*
X23622Y00315D03*
X24212Y-01885D03*
X23622Y-01885D03*
X24212Y-10685D03*
X23622Y-10685D03*
X24212Y02515D03*
X23622Y02515D03*
G54D14*
X30800Y-29795D03*
X30800Y-29205D03*
G54D13*
X09505Y01300D03*
X10095Y01300D03*
X00505Y-00700D03*
X01095Y-00700D03*
G54D14*
X01000Y-03505D03*
X01000Y-04095D03*
X01000Y-03095D03*
X01000Y-02505D03*
X05700Y-03595D03*
X05700Y-03005D03*
X05690Y-25215D03*
X05690Y-25805D03*
X04690Y-25215D03*
X04690Y-25805D03*
X03690Y-25215D03*
X03690Y-25805D03*
X02690Y-25215D03*
X02690Y-25805D03*
X01690Y-25215D03*
X01690Y-25805D03*
X00690Y-25215D03*
X00690Y-25805D03*
X-00310Y-25215D03*
X-00310Y-25805D03*
X-01310Y-25215D03*
X-01310Y-25805D03*
X07083Y-25201D03*
X07083Y-25791D03*
X08083Y-25201D03*
X08083Y-25791D03*
X09083Y-25201D03*
X09083Y-25791D03*
X10083Y-25201D03*
X10083Y-25791D03*
X11083Y-25201D03*
X11083Y-25791D03*
X12083Y-25201D03*
X12083Y-25791D03*
X13083Y-25201D03*
X13083Y-25791D03*
X14083Y-25201D03*
X14083Y-25791D03*
G54D15*
X41900Y-24500D03*
X41900Y-25500D03*
X41900Y-26500D03*
X41900Y-27500D03*
X41900Y-28500D03*
X41900Y-29500D03*
X40900Y-24500D03*
X40900Y-25500D03*
X40900Y-26500D03*
X40900Y-27500D03*
X40900Y-28500D03*
G54D16*
X02900Y-04000D03*
X01700Y-04000D03*
X02900Y-02600D03*
X01700Y-02600D03*
G54D17*
X30100Y00068D03*
G54D18*
X30108Y03454D03*
G54D17*
X30100Y-21845D03*
G54D18*
X30084Y-25254D03*
G54D19*
X16000Y-32000D03*
X-09000Y06000D03*
X16000Y06000D03*
X-09000Y-32000D03*
G54D20*
X-03781Y-14300D03*
X-01419Y-14300D03*
X-03781Y-16500D03*
X-01419Y-16500D03*
G54D21*
X27400Y-29681D03*
X27400Y-27319D03*
G54D20*
X07619Y02600D03*
X09981Y02600D03*
G54D21*
X-02400Y-02281D03*
X-02400Y00081D03*
G54D15*
X-02400Y02500D03*
X-02400Y01500D03*
X-00700Y-04100D03*
X00300Y-04100D03*
X-00700Y-02500D03*
X00300Y-02500D03*
X11500Y-14300D03*
X11500Y-15300D03*
X11500Y-16300D03*
X11500Y-17300D03*
X11500Y-18300D03*
X11500Y-19300D03*
X11500Y-20300D03*
X14200Y-20400D03*
X13200Y-20400D03*
X14200Y-19400D03*
X13200Y-19400D03*
X14200Y-18400D03*
X13200Y-18400D03*
X14200Y-17400D03*
X13200Y-17400D03*
X14200Y-16400D03*
X13200Y-16400D03*
X14200Y-15400D03*
X13200Y-15400D03*
X14200Y-14400D03*
X13200Y-14400D03*
X16400Y-01500D03*
X16400Y-02500D03*
X16400Y-04500D03*
X16400Y-05500D03*
X16400Y-06500D03*
X16400Y-07500D03*
X16400Y-08500D03*
X16400Y-03500D03*
X16400Y-10000D03*
X16400Y-11000D03*
X16400Y-13000D03*
X16400Y-14000D03*
X16400Y-15000D03*
X16400Y-16000D03*
X16400Y-17000D03*
X16400Y-12000D03*
X16400Y-18500D03*
X16400Y-19500D03*
X16400Y-21500D03*
X16400Y-22500D03*
X16400Y-23500D03*
X16400Y-24500D03*
X16400Y-25500D03*
X16400Y-20500D03*
G54D22*
X03346Y-07825D03*
X03346Y-07175D03*
X02854Y-07175D03*
X02854Y-07825D03*
G54D23*
X00100Y00100D03*
X01100Y00100D03*
X04100Y00100D03*
X05100Y00100D03*
X06100Y00100D03*
X06100Y03100D03*
X00100Y03100D03*
G54D24*
X-06660Y-00359D03*
X-06660Y-05241D03*
G54D15*
X-05593Y-02237D03*
X-04806Y-02237D03*
X-04806Y-03221D03*
X-05593Y-03221D03*
G54D25*
X34400Y-27350D03*
X33400Y-27350D03*
X32400Y-27350D03*
X32400Y-29850D03*
X34400Y-29850D03*
X-07850Y01500D03*
X-07850Y02500D03*
X-07850Y03500D03*
X-10350Y03500D03*
X-10350Y01500D03*
G54D26*
X04208Y-12993D03*
X04208Y-12678D03*
X04208Y-12363D03*
X04208Y-12048D03*
X04208Y-11733D03*
X04208Y-11418D03*
X04208Y-11103D03*
X04208Y-10788D03*
X04208Y-10473D03*
X04208Y-10158D03*
X04208Y-09843D03*
X04208Y-09528D03*
X04208Y-09213D03*
X04208Y-08898D03*
X04208Y-08583D03*
X04208Y-08268D03*
X04208Y-07953D03*
X04208Y-07638D03*
X04208Y-07323D03*
X04208Y-07008D03*
X04523Y-12993D03*
X04523Y-12678D03*
X04523Y-12363D03*
X04523Y-12048D03*
X04523Y-11733D03*
X04523Y-11418D03*
X04523Y-11103D03*
X04523Y-10788D03*
X04523Y-10473D03*
X04523Y-10158D03*
X04523Y-09843D03*
X04523Y-09528D03*
X04523Y-09213D03*
X04523Y-08898D03*
X04523Y-08583D03*
X04523Y-08268D03*
X04523Y-07953D03*
X04523Y-07638D03*
X04523Y-07323D03*
X04523Y-07008D03*
X04838Y-12993D03*
X04838Y-12678D03*
X04838Y-07323D03*
X04838Y-07008D03*
X05153Y-12993D03*
X05153Y-12678D03*
X05153Y-07323D03*
X05153Y-07008D03*
X05468Y-12993D03*
X05468Y-12678D03*
X05468Y-07323D03*
X05468Y-07008D03*
X05783Y-12993D03*
X05783Y-12678D03*
X05783Y-07323D03*
X05783Y-07008D03*
X06098Y-12993D03*
X06098Y-12678D03*
X06098Y-11103D03*
X06098Y-10788D03*
X06098Y-10473D03*
X06098Y-10158D03*
X06098Y-09843D03*
X06098Y-09528D03*
X06098Y-09213D03*
X06098Y-08898D03*
X06098Y-07323D03*
X06098Y-07008D03*
X06413Y-12993D03*
X06413Y-12678D03*
X06413Y-11103D03*
X06413Y-10788D03*
X06413Y-10473D03*
X06413Y-10158D03*
X06413Y-09843D03*
X06413Y-09528D03*
X06413Y-09213D03*
X06413Y-08898D03*
X06413Y-07323D03*
X06413Y-07008D03*
X06728Y-12993D03*
X06728Y-12678D03*
X06728Y-11103D03*
X06728Y-10788D03*
X06728Y-10473D03*
X06728Y-10158D03*
X06728Y-09843D03*
X06728Y-09528D03*
X06728Y-09213D03*
X06728Y-08898D03*
X06728Y-07323D03*
X06728Y-07008D03*
X07043Y-12993D03*
X07043Y-12678D03*
X07043Y-11103D03*
X07043Y-10788D03*
X07043Y-10473D03*
X07043Y-10158D03*
X07043Y-09843D03*
X07043Y-09528D03*
X07043Y-09213D03*
X07043Y-08898D03*
X07043Y-07323D03*
X07043Y-07008D03*
X07358Y-12993D03*
X07358Y-12678D03*
X07358Y-11103D03*
X07358Y-10788D03*
X07358Y-10473D03*
X07358Y-10158D03*
X07358Y-09843D03*
X07358Y-09528D03*
X07358Y-09213D03*
X07358Y-08898D03*
X07358Y-07323D03*
X07358Y-07008D03*
X07673Y-12993D03*
X07673Y-12678D03*
X07673Y-11103D03*
X07673Y-10788D03*
X07673Y-10473D03*
X07673Y-10158D03*
X07673Y-09843D03*
X07673Y-09528D03*
X07673Y-09213D03*
X07673Y-08898D03*
X07673Y-07323D03*
X07673Y-07008D03*
X07988Y-12993D03*
X07988Y-12678D03*
X07988Y-11103D03*
X07988Y-10788D03*
X07988Y-10473D03*
X07988Y-10158D03*
X07988Y-09843D03*
X07988Y-09528D03*
X07988Y-09213D03*
X07988Y-08898D03*
X07988Y-07323D03*
X07988Y-07008D03*
X08303Y-12993D03*
X08303Y-12678D03*
X08303Y-11103D03*
X08303Y-10788D03*
X08303Y-10473D03*
X08303Y-10158D03*
X08303Y-09843D03*
X08303Y-09528D03*
X08303Y-09213D03*
X08303Y-08898D03*
X08303Y-07323D03*
X08303Y-07008D03*
X08618Y-12993D03*
X08618Y-12678D03*
X08618Y-07323D03*
X08618Y-07008D03*
X08933Y-12993D03*
X08933Y-12678D03*
X08933Y-07323D03*
X08933Y-07008D03*
X09248Y-12993D03*
X09248Y-12678D03*
X09248Y-07323D03*
X09248Y-07008D03*
X09563Y-12993D03*
X09563Y-12678D03*
X09563Y-07323D03*
X09563Y-07008D03*
X09878Y-12993D03*
X09878Y-12678D03*
X09878Y-07323D03*
X09878Y-07008D03*
X10193Y-12993D03*
X10193Y-12678D03*
X10193Y-12363D03*
X10193Y-12048D03*
X10193Y-11733D03*
X10193Y-11418D03*
X10193Y-11103D03*
X10193Y-10788D03*
X10193Y-10473D03*
X10193Y-10158D03*
X10193Y-09843D03*
X10193Y-09528D03*
X10193Y-09213D03*
X10193Y-08898D03*
X10193Y-08583D03*
X10193Y-08268D03*
X10193Y-07953D03*
X10193Y-07638D03*
X10193Y-07323D03*
X10193Y-07008D03*
X09878Y-12363D03*
X09878Y-12048D03*
X09878Y-11733D03*
X09878Y-11418D03*
X09878Y-11103D03*
X09878Y-10788D03*
X09878Y-10473D03*
X09878Y-10158D03*
X09878Y-09843D03*
X09878Y-09528D03*
X09878Y-09213D03*
X09878Y-08898D03*
X09878Y-08583D03*
X09878Y-08268D03*
X09878Y-07953D03*
X09878Y-07638D03*
G54D27*
X01411Y-12608D03*
X01411Y-12804D03*
X01411Y-13000D03*
X01411Y-13196D03*
X01411Y-13392D03*
X02790Y-13392D03*
X02790Y-13196D03*
X02790Y-13000D03*
X02790Y-12804D03*
X02790Y-12608D03*
G54D28*
X15200Y00400D03*
X15200Y00650D03*
X15200Y00900D03*
X15200Y01150D03*
X15200Y01400D03*
X15200Y01650D03*
X15200Y01900D03*
X15200Y02150D03*
X15200Y02400D03*
G54D29*
X04791Y-03694D03*
X04791Y-03497D03*
X04791Y-03300D03*
X04791Y-03103D03*
X04791Y-02906D03*
X03609Y-02906D03*
X03609Y-03103D03*
X03609Y-03300D03*
X03609Y-03497D03*
X03609Y-03694D03*
G54D30*
X04200Y-03300D03*
G54D31*
X00355Y-09511D03*
X00355Y-09708D03*
X00355Y-09905D03*
X00355Y-10102D03*
X00355Y-10298D03*
X00355Y-10495D03*
X00355Y-10692D03*
X00355Y-10889D03*
X02245Y-10889D03*
X02245Y-10692D03*
X02245Y-10495D03*
X02245Y-10298D03*
X02245Y-10102D03*
X02245Y-09905D03*
X02245Y-09708D03*
X02245Y-09511D03*
G54D32*
X00611Y-11145D03*
X00808Y-11145D03*
X01005Y-11145D03*
X01202Y-11145D03*
X01398Y-11145D03*
X01595Y-11145D03*
X01792Y-11145D03*
X01989Y-11145D03*
X01989Y-09255D03*
X01792Y-09255D03*
X01595Y-09255D03*
X01398Y-09255D03*
X01202Y-09255D03*
X01005Y-09255D03*
X00808Y-09255D03*
X00611Y-09255D03*
G54D33*
X00946Y-09846D03*
X00946Y-10554D03*
X01654Y-10554D03*
X01654Y-09846D03*
G54D34*
X20861Y-26716D03*
X21373Y-26716D03*
X21117Y-26054D03*
X20861Y-22316D03*
X21373Y-22316D03*
X21117Y-21654D03*
X20861Y-24516D03*
X21373Y-24516D03*
X21117Y-23854D03*
X20861Y-15716D03*
X21373Y-15716D03*
X21117Y-15054D03*
X20861Y-17916D03*
X21373Y-17916D03*
X21117Y-17254D03*
X20861Y-20116D03*
X21373Y-20116D03*
X21117Y-19454D03*
X20861Y-13516D03*
X21373Y-13516D03*
X21117Y-12854D03*
X20861Y-06916D03*
X21373Y-06916D03*
X21117Y-06254D03*
X20861Y-04716D03*
X21373Y-04716D03*
X21117Y-04054D03*
X20861Y-09116D03*
X21373Y-09116D03*
X21117Y-08454D03*
X20861Y-00316D03*
X21373Y-00316D03*
X21117Y00346D03*
X20861Y-02516D03*
X21373Y-02516D03*
X21117Y-01854D03*
X20861Y-11316D03*
X21373Y-11316D03*
X21117Y-10654D03*
X20861Y01884D03*
X21373Y01884D03*
X21117Y02546D03*
G54D35*
X01636Y-07584D03*
G54D36*
X02089Y-07584D03*
G54D35*
X02148Y-06796D03*
X01636Y-06796D03*
G54D37*
X01944Y-15174D03*
X02200Y-15174D03*
X02456Y-15174D03*
X02456Y-14426D03*
X01944Y-14426D03*
G54D38*
X07626Y01356D03*
X07626Y01100D03*
X07626Y00844D03*
X08374Y00844D03*
X08374Y01356D03*
G54D37*
X09456Y-05226D03*
X09200Y-05226D03*
X08944Y-05226D03*
X08944Y-05974D03*
X09456Y-05974D03*
G54D38*
X24674Y03044D03*
X24674Y03300D03*
X24674Y03556D03*
X23926Y03556D03*
X23926Y03300D03*
X23926Y03044D03*
G54D39*
X43919Y-25035D03*
X44669Y-24535D03*
X43919Y-24035D03*
X44669Y-23535D03*
X43919Y-23035D03*
X44669Y-22535D03*
X43919Y-22035D03*
X44669Y-21535D03*
X43919Y-21035D03*
X44669Y-20535D03*
X43919Y-20035D03*
X44669Y-19535D03*
X43919Y-19035D03*
X44669Y-18535D03*
X43919Y-18035D03*
X44669Y-17535D03*
X43919Y-17035D03*
X44669Y-16535D03*
X43919Y-16035D03*
X44669Y-15535D03*
X43919Y-15035D03*
X44669Y-14535D03*
X43919Y-14035D03*
X44669Y-13535D03*
X43919Y-13035D03*
X44669Y-12535D03*
X43919Y-12035D03*
X44669Y-11535D03*
X43919Y-11035D03*
X44669Y-10535D03*
X43919Y-10035D03*
X44669Y-09535D03*
X43919Y-09035D03*
X44669Y-08535D03*
X45419Y-25035D03*
X46169Y-24535D03*
X45419Y-24035D03*
X46169Y-23535D03*
X45419Y-23035D03*
X46169Y-22535D03*
X45419Y-22035D03*
X46169Y-21535D03*
X45419Y-21035D03*
X46169Y-20535D03*
X45419Y-20035D03*
X46169Y-19535D03*
X45419Y-19035D03*
X46169Y-18535D03*
X45419Y-18035D03*
X46169Y-17535D03*
X45419Y-17035D03*
X46169Y-16535D03*
X45419Y-16035D03*
X46169Y-15535D03*
X45419Y-15035D03*
X46169Y-14535D03*
X45419Y-14035D03*
X46169Y-13535D03*
X45419Y-13035D03*
X46169Y-12535D03*
X45419Y-12035D03*
X46169Y-11535D03*
X45419Y-11035D03*
X46169Y-10535D03*
X45419Y-10035D03*
X46169Y-09535D03*
X45419Y-09035D03*
X46169Y-08535D03*
G54D40*
X45419Y-28185D03*
X45419Y-05385D03*
G54D41*
X-09349Y-15859D03*
X-08404Y-15072D03*
X-06239Y-15072D03*
X-05451Y-14107D03*
X-05451Y-17493D03*
X-08955Y-17493D03*
G54D42*
X38080Y-29735D03*
X38080Y-29235D03*
X38080Y-28735D03*
X38080Y-28235D03*
X38080Y-27735D03*
X38080Y-27235D03*
X38080Y-26735D03*
X38080Y-26235D03*
X35954Y-26235D03*
X35954Y-26735D03*
X35954Y-27235D03*
X35954Y-27735D03*
X35954Y-28235D03*
X35954Y-28735D03*
X35954Y-29235D03*
X35954Y-29735D03*
X38080Y-25485D03*
X38080Y-24985D03*
X38080Y-24485D03*
X38080Y-23985D03*
X38080Y-23485D03*
X38080Y-22985D03*
X38080Y-22485D03*
X38080Y-21985D03*
X35954Y-21985D03*
X35954Y-22485D03*
X35954Y-22985D03*
X35954Y-23485D03*
X35954Y-23985D03*
X35954Y-24485D03*
X35954Y-24985D03*
X35954Y-25485D03*
X38080Y-16985D03*
X38080Y-16485D03*
X38080Y-15985D03*
X38080Y-15485D03*
X38080Y-14985D03*
X38080Y-14485D03*
X38080Y-13985D03*
X38080Y-13485D03*
X35954Y-13485D03*
X35954Y-13985D03*
X35954Y-14485D03*
X35954Y-14985D03*
X35954Y-15485D03*
X35954Y-15985D03*
X35954Y-16485D03*
X35954Y-16985D03*
X38080Y-21235D03*
X38080Y-20735D03*
X38080Y-20235D03*
X38080Y-19735D03*
X38080Y-19235D03*
X38080Y-18735D03*
X38080Y-18235D03*
X38080Y-17735D03*
X35954Y-17735D03*
X35954Y-18235D03*
X35954Y-18735D03*
X35954Y-19235D03*
X35954Y-19735D03*
X35954Y-20235D03*
X35954Y-20735D03*
X35954Y-21235D03*
X38080Y-04235D03*
X38080Y-03735D03*
X38080Y-03235D03*
X38080Y-02735D03*
X38080Y-02235D03*
X38080Y-01735D03*
X38080Y-01235D03*
X38080Y-00735D03*
X35954Y-00735D03*
X35954Y-01235D03*
X35954Y-01735D03*
X35954Y-02235D03*
X35954Y-02735D03*
X35954Y-03235D03*
X35954Y-03735D03*
X35954Y-04235D03*
X38080Y00015D03*
X38080Y00515D03*
X38080Y01015D03*
X38080Y01515D03*
X38080Y02015D03*
X38080Y02515D03*
X38080Y03015D03*
X38080Y03515D03*
X35954Y03515D03*
X35954Y03015D03*
X35954Y02515D03*
X35954Y02015D03*
X35954Y01515D03*
X35954Y01015D03*
X35954Y00515D03*
X35954Y00015D03*
X38080Y-08485D03*
X38080Y-07985D03*
X38080Y-07485D03*
X38080Y-06985D03*
X38080Y-06485D03*
X38080Y-05985D03*
X38080Y-05485D03*
X38080Y-04985D03*
X35954Y-04985D03*
X35954Y-05485D03*
X35954Y-05985D03*
X35954Y-06485D03*
X35954Y-06985D03*
X35954Y-07485D03*
X35954Y-07985D03*
X35954Y-08485D03*
X38080Y-12735D03*
X38080Y-12235D03*
X38080Y-11735D03*
X38080Y-11235D03*
X38080Y-10735D03*
X38080Y-10235D03*
X38080Y-09735D03*
X38080Y-09235D03*
X35954Y-09235D03*
X35954Y-09735D03*
X35954Y-10235D03*
X35954Y-10735D03*
X35954Y-11235D03*
X35954Y-11735D03*
X35954Y-12235D03*
X35954Y-12735D03*
G54D43*
X10550Y00163D03*
X10050Y00163D03*
X09550Y00163D03*
X09050Y00163D03*
X08550Y00163D03*
X08050Y00163D03*
X07550Y00163D03*
X07050Y00163D03*
X07050Y-01963D03*
X07550Y-01963D03*
X08050Y-01963D03*
X08550Y-01963D03*
X09050Y-01963D03*
X09550Y-01963D03*
X10050Y-01963D03*
X10550Y-01963D03*
G54D42*
X13363Y-00450D03*
X13363Y00050D03*
X13363Y00550D03*
X13363Y01050D03*
X13363Y01550D03*
X13363Y02050D03*
X13363Y02550D03*
X13363Y03050D03*
X11237Y03050D03*
X11237Y02550D03*
X11237Y02050D03*
X11237Y01550D03*
X11237Y01050D03*
X11237Y00550D03*
X11237Y00050D03*
X11237Y-00450D03*
G54D44*
X01050Y-14337D03*
X00550Y-14337D03*
X00050Y-14337D03*
X-00450Y-14337D03*
X-00450Y-16463D03*
X00050Y-16463D03*
X00550Y-16463D03*
X01050Y-16463D03*
G54D45*
X22417Y-26898D03*
X22791Y-26072D03*
X22043Y-26072D03*
X22417Y-22498D03*
X22791Y-21672D03*
X22043Y-21672D03*
X22417Y-24698D03*
X22791Y-23872D03*
X22043Y-23872D03*
X22417Y-15898D03*
X22791Y-15072D03*
X22043Y-15072D03*
X22417Y-18098D03*
X22791Y-17272D03*
X22043Y-17272D03*
X22417Y-20298D03*
X22791Y-19472D03*
X22043Y-19472D03*
X22417Y-13698D03*
X22791Y-12872D03*
X22043Y-12872D03*
X22417Y-07098D03*
X22791Y-06272D03*
X22043Y-06272D03*
X22417Y-04898D03*
X22791Y-04072D03*
X22043Y-04072D03*
X22417Y-09298D03*
X22791Y-08472D03*
X22043Y-08472D03*
X22417Y-00498D03*
X22791Y00328D03*
X22043Y00328D03*
X22417Y-02698D03*
X22791Y-01872D03*
X22043Y-01872D03*
X22417Y-11498D03*
X22791Y-10672D03*
X22043Y-10672D03*
X22417Y01702D03*
X22791Y02528D03*
X22043Y02528D03*
G54D46*
X30687Y-27300D03*
X31513Y-27674D03*
X31513Y-26926D03*
X28787Y-27300D03*
X29613Y-27674D03*
X29613Y-26926D03*
G54D47*
X23405Y-26711D03*
X23417Y-27085D03*
X23405Y-27459D03*
X24429Y-27459D03*
X24429Y-26711D03*
X23405Y-22311D03*
X23417Y-22685D03*
X23405Y-23059D03*
X24429Y-23059D03*
X24429Y-22311D03*
X23405Y-24511D03*
X23417Y-24885D03*
X23405Y-25259D03*
X24429Y-25259D03*
X24429Y-24511D03*
X23405Y-15711D03*
X23417Y-16085D03*
X23405Y-16459D03*
X24429Y-16459D03*
X24429Y-15711D03*
X23405Y-17911D03*
X23417Y-18285D03*
X23405Y-18659D03*
X24429Y-18659D03*
X24429Y-17911D03*
X23405Y-20111D03*
X23417Y-20485D03*
X23405Y-20859D03*
X24429Y-20859D03*
X24429Y-20111D03*
X23405Y-13511D03*
X23417Y-13885D03*
X23405Y-14259D03*
X24429Y-14259D03*
X24429Y-13511D03*
X23405Y-06911D03*
X23417Y-07285D03*
X23405Y-07659D03*
X24429Y-07659D03*
X24429Y-06911D03*
X23405Y-04711D03*
X23417Y-05085D03*
X23405Y-05459D03*
X24429Y-05459D03*
X24429Y-04711D03*
X23405Y-09111D03*
X23417Y-09485D03*
X23405Y-09859D03*
X24429Y-09859D03*
X24429Y-09111D03*
X23405Y-00311D03*
X23417Y-00685D03*
X23405Y-01059D03*
X24429Y-01059D03*
X24429Y-00311D03*
X23405Y-02511D03*
X23417Y-02885D03*
X23405Y-03259D03*
X24429Y-03259D03*
X24429Y-02511D03*
X23405Y-11311D03*
X23417Y-11685D03*
X23405Y-12059D03*
X24429Y-12059D03*
X24429Y-11311D03*
X23405Y01889D03*
X23417Y01515D03*
X23405Y01141D03*
X24429Y01141D03*
X24429Y01889D03*
X00512Y-06774D03*
X00512Y-06400D03*
X00512Y-06026D03*
X-00512Y-06026D03*
X-00512Y-06400D03*
X-00512Y-06774D03*
G54D15*
X20117Y-26185D03*
X20117Y-21785D03*
X20117Y-23985D03*
X20117Y-15185D03*
X20117Y-17385D03*
X20117Y-19585D03*
X20117Y-12985D03*
X20117Y-06385D03*
X20117Y-04185D03*
X20117Y-08585D03*
X20117Y00215D03*
X20117Y-01985D03*
X20117Y-10785D03*
X20117Y02415D03*
X03690Y-24510D03*
X04690Y-24510D03*
X05690Y-24510D03*
X02690Y-24510D03*
X01690Y-24510D03*
X00690Y-24510D03*
X-00310Y-24510D03*
X-01310Y-24510D03*
X14083Y-24496D03*
X13083Y-24496D03*
X12083Y-24496D03*
X11083Y-24496D03*
X10083Y-24496D03*
X09083Y-24496D03*
X08083Y-24496D03*
X07083Y-24496D03*
X-01000Y-11500D03*
X-01000Y-12600D03*
G54D48*
X-03228Y-22702D03*
X-02972Y-22702D03*
X-02716Y-22702D03*
X-02460Y-22702D03*
X-02204Y-22702D03*
X-02204Y-20498D03*
X-02460Y-20498D03*
X-02716Y-20498D03*
X-02972Y-20498D03*
X-03228Y-20498D03*
X-03484Y-20498D03*
X-03740Y-20498D03*
X-03996Y-20498D03*
X-03484Y-22702D03*
X-03740Y-22702D03*
X-03996Y-22702D03*
G54D49*
X09669Y-19252D03*
X09669Y-18996D03*
X09669Y-18740D03*
X09669Y-18484D03*
X09669Y-18228D03*
X09669Y-17972D03*
X09669Y-17716D03*
X09669Y-17460D03*
X09669Y-17204D03*
X09669Y-16948D03*
X07331Y-16948D03*
X07331Y-17204D03*
X07331Y-17460D03*
X07331Y-17716D03*
X07331Y-17972D03*
X07331Y-18228D03*
X07331Y-18484D03*
X07331Y-18740D03*
X07331Y-18996D03*
X07331Y-19252D03*
G54D50*
X03352Y-17531D03*
X03096Y-17531D03*
X02840Y-17531D03*
X02584Y-17531D03*
X02328Y-17531D03*
X02072Y-17531D03*
X01816Y-17531D03*
X01560Y-17531D03*
X01304Y-17531D03*
X01048Y-17531D03*
X01048Y-19869D03*
X01304Y-19869D03*
X01560Y-19869D03*
X01816Y-19869D03*
X02072Y-19869D03*
X02328Y-19869D03*
X02584Y-19869D03*
X02840Y-19869D03*
X03096Y-19869D03*
X03352Y-19869D03*
X06452Y-17531D03*
X06196Y-17531D03*
X05940Y-17531D03*
X05684Y-17531D03*
X05428Y-17531D03*
X05172Y-17531D03*
X04916Y-17531D03*
X04660Y-17531D03*
X04404Y-17531D03*
X04148Y-17531D03*
X04148Y-19869D03*
X04404Y-19869D03*
X04660Y-19869D03*
X04916Y-19869D03*
X05172Y-19869D03*
X05428Y-19869D03*
X05684Y-19869D03*
X05940Y-19869D03*
X06196Y-19869D03*
X06452Y-19869D03*
G54D26*
X13860Y-11260D03*
X13545Y-11260D03*
X13230Y-11260D03*
X11970Y-11260D03*
X11655Y-11260D03*
X11340Y-11260D03*
X13860Y-10945D03*
X13545Y-10945D03*
X13230Y-10945D03*
X11970Y-10945D03*
X11655Y-10945D03*
X11340Y-10945D03*
X13860Y-10630D03*
X13545Y-10630D03*
X13230Y-10630D03*
X11970Y-10630D03*
X11655Y-10630D03*
X11340Y-10630D03*
X13860Y-10315D03*
X13545Y-10315D03*
X13230Y-10315D03*
X11970Y-10315D03*
X11655Y-10315D03*
X11340Y-10315D03*
X13860Y-10000D03*
X13545Y-10000D03*
X13230Y-10000D03*
X11970Y-10000D03*
X11655Y-10000D03*
X11340Y-10000D03*
X13860Y-09685D03*
X13545Y-09685D03*
X13230Y-09685D03*
X11970Y-09685D03*
X11655Y-09685D03*
X11340Y-09685D03*
X13860Y-09370D03*
X13545Y-09370D03*
X13230Y-09370D03*
X11970Y-09370D03*
X11655Y-09370D03*
X11340Y-09370D03*
X13860Y-09055D03*
X13545Y-09055D03*
X13230Y-09055D03*
X11970Y-09055D03*
X11655Y-09055D03*
X11340Y-09055D03*
X13860Y-08740D03*
X13545Y-08740D03*
X13230Y-08740D03*
X11970Y-08740D03*
X11655Y-08740D03*
X11340Y-08740D03*
G54D51*
X19861Y-27459D03*
X20373Y-27459D03*
X20117Y-26711D03*
X19861Y-23059D03*
X20373Y-23059D03*
X20117Y-22311D03*
X19861Y-25259D03*
X20373Y-25259D03*
X20117Y-24511D03*
X19861Y-16459D03*
X20373Y-16459D03*
X20117Y-15711D03*
X19861Y-18659D03*
X20373Y-18659D03*
X20117Y-17911D03*
X19861Y-20859D03*
X20373Y-20859D03*
X20117Y-20111D03*
X19861Y-14259D03*
X20373Y-14259D03*
X20117Y-13511D03*
X19861Y-07659D03*
X20373Y-07659D03*
X20117Y-06911D03*
X19861Y-05459D03*
X20373Y-05459D03*
X20117Y-04711D03*
X19861Y-09859D03*
X20373Y-09859D03*
X20117Y-09111D03*
X19861Y-01059D03*
X20373Y-01059D03*
X20117Y-00311D03*
X19861Y-03259D03*
X20373Y-03259D03*
X20117Y-02511D03*
X19861Y-12059D03*
X20373Y-12059D03*
X20117Y-11311D03*
X19861Y01141D03*
X20373Y01141D03*
X20117Y01889D03*
G54D11*
X25114Y-26085D03*
X24720Y-26085D03*
X25114Y-21685D03*
X24720Y-21685D03*
X25114Y-23885D03*
X24720Y-23885D03*
X25114Y-15085D03*
X24720Y-15085D03*
X25114Y-17285D03*
X24720Y-17285D03*
X25114Y-19485D03*
X24720Y-19485D03*
X25114Y-12885D03*
X24720Y-12885D03*
X25114Y-06285D03*
X24720Y-06285D03*
X25114Y-04085D03*
X24720Y-04085D03*
X25114Y-08485D03*
X24720Y-08485D03*
X25114Y00315D03*
X24720Y00315D03*
X25114Y-01885D03*
X24720Y-01885D03*
X25114Y-10685D03*
X24720Y-10685D03*
X25114Y02515D03*
X24720Y02515D03*
G54D47*
X23405Y-28911D03*
X23417Y-29285D03*
X23405Y-29659D03*
X24429Y-29659D03*
X24429Y-28911D03*
G54D13*
X24212Y-28285D03*
X23622Y-28285D03*
G54D45*
X22417Y-29098D03*
X22791Y-28272D03*
X22043Y-28272D03*
G54D11*
X21314Y-29385D03*
X20920Y-29385D03*
G54D34*
X20861Y-28916D03*
X21373Y-28916D03*
X21117Y-28254D03*
G54D15*
X20117Y-28385D03*
G54D51*
X19861Y-29659D03*
X20373Y-29659D03*
X20117Y-28911D03*
G54D11*
X22514Y-29685D03*
X22120Y-29685D03*
X25114Y-28285D03*
X24720Y-28285D03*
G54D52*
X07937Y-14650D03*
X07937Y-15150D03*
X07937Y-15650D03*
X07937Y-16150D03*
X10063Y-16150D03*
X10063Y-15650D03*
X10063Y-15150D03*
X10063Y-14650D03*
G54D11*
X15697Y-05000D03*
X15303Y-05000D03*
X15303Y-05500D03*
X15697Y-05500D03*
X15697Y-13500D03*
X15303Y-13500D03*
X15303Y-14000D03*
X15697Y-14000D03*
X15697Y-22000D03*
X15303Y-22000D03*
X15303Y-22500D03*
X15697Y-22500D03*
X10697Y-18600D03*
X10303Y-18600D03*
X10497Y-02600D03*
X10103Y-02600D03*
G54D19*
X46000Y-32000D03*
X46000Y06000D03*
X21000Y-32000D03*
X21000Y06000D03*
G54D53*
X-06800Y-19480D03*
G54D54*
X-06241Y-22206D03*
X-06241Y-23297D03*
X-06241Y-24387D03*
X-06241Y-25478D03*
X-06241Y-26569D03*
X-07359Y-22752D03*
X-07359Y-23842D03*
X-07359Y-24933D03*
X-07359Y-26023D03*
G54D53*
X-06800Y-29319D03*
G54D17*
X-06451Y-07251D03*
X-06451Y-11751D03*
G54D55*
X-05250Y-06448D03*
X-05250Y-12552D03*
G54D56*
X-08049Y-06891D03*
X-08049Y-12111D03*
X-08049Y-07891D03*
X-08049Y-11111D03*
X-03951Y-07751D03*
X-02951Y-08251D03*
X-03951Y-08751D03*
X-02951Y-09251D03*
X-03951Y-09751D03*
X-02951Y-10251D03*
X-03951Y-10751D03*
X-02951Y-11251D03*
M02*
