G04 (created by PCBNEW-RS274X (2010-03-14)-final) date Tue 01 Feb 2011 02:56:59 PM EST*
G01*
G70*
G90*
%MOIN*%
G04 Gerber Fmt 3.4, Leading zero omitted, Abs format*
%FSLAX34Y34*%
G04 APERTURE LIST*
%ADD10C,0.001000*%
%ADD11C,0.005000*%
%ADD12C,0.015000*%
%ADD13C,0.003300*%
%ADD14C,0.010000*%
G04 APERTURE END LIST*
G54D10*
G54D11*
X00650Y-15850D02*
X00700Y-15800D01*
X00400Y-15500D02*
X00600Y-15500D01*
X01950Y-12650D02*
X01900Y-12700D01*
X02200Y-13000D02*
X02000Y-13000D01*
X12650Y02150D02*
X12600Y02200D01*
X12300Y01900D02*
X12300Y02100D01*
X09950Y-00050D02*
X10000Y-00100D01*
X10300Y00200D02*
X10300Y00000D01*
X06750Y-08650D02*
X06700Y-08700D01*
X07000Y-09000D02*
X06800Y-09000D01*
X05800Y-09750D02*
X05850Y-09800D01*
X06150Y-09500D02*
X06150Y-09700D01*
X07550Y-07650D02*
X07500Y-07600D01*
X07200Y-07900D02*
X07200Y-07700D01*
X01450Y-09250D02*
X01400Y-09300D01*
X01700Y-09600D02*
X01500Y-09600D01*
X01250Y-11250D02*
X01300Y-11200D01*
X01000Y-10900D02*
X01200Y-10900D01*
X00350Y-09850D02*
X00400Y-09900D01*
X00700Y-09600D02*
X00700Y-09800D01*
X12250Y-09950D02*
X12300Y-10000D01*
X12600Y-09700D02*
X12600Y-09900D01*
X12950Y-10850D02*
X12900Y-10800D01*
X12600Y-11100D02*
X12600Y-10900D01*
X14450Y-10950D02*
X14400Y-10900D01*
X14100Y-11200D02*
X14100Y-11000D01*
X12250Y-11550D02*
X12300Y-11600D01*
X12600Y-11300D02*
X12600Y-11500D01*
X13750Y-07750D02*
X13700Y-07800D01*
X14000Y-08100D02*
X13800Y-08100D01*
X12250Y-10750D02*
X12300Y-10800D01*
X12600Y-10500D02*
X12600Y-10700D01*
X04950Y-10150D02*
X05000Y-10200D01*
X05300Y-09900D02*
X05300Y-10100D01*
X04950Y-08550D02*
X05000Y-08600D01*
X05300Y-08300D02*
X05300Y-08500D01*
X00350Y-10550D02*
X00400Y-10600D01*
X00700Y-10300D02*
X00700Y-10500D01*
X07250Y-08650D02*
X07200Y-08700D01*
X07500Y-09000D02*
X07300Y-09000D01*
X07750Y-08650D02*
X07700Y-08700D01*
X08000Y-09000D02*
X07800Y-09000D01*
X06250Y-08650D02*
X06200Y-08700D01*
X06500Y-09000D02*
X06300Y-09000D01*
X08050Y-11050D02*
X08100Y-11000D01*
X07800Y-10700D02*
X08000Y-10700D01*
X08350Y-10750D02*
X08400Y-10800D01*
X08700Y-10500D02*
X08700Y-10700D01*
X06050Y-10450D02*
X06000Y-10400D01*
X05700Y-10700D02*
X05700Y-10500D01*
X07550Y-11050D02*
X07600Y-11000D01*
X07300Y-10700D02*
X07500Y-10700D01*
X07050Y-11050D02*
X07100Y-11000D01*
X06800Y-10700D02*
X07000Y-10700D01*
X06550Y-11050D02*
X06600Y-11000D01*
X06300Y-10700D02*
X06500Y-10700D01*
X08600Y-09950D02*
X08550Y-09900D01*
X08250Y-10200D02*
X08250Y-10000D01*
X05800Y-10250D02*
X05850Y-10300D01*
X06150Y-10000D02*
X06150Y-10200D01*
X12950Y-10050D02*
X12900Y-10000D01*
X12600Y-10300D02*
X12600Y-10100D01*
X08600Y-09450D02*
X08550Y-09400D01*
X08250Y-09700D02*
X08250Y-09500D01*
X00850Y-16000D02*
X00800Y-16000D01*
X00800Y-16000D02*
X00750Y-15950D01*
X00750Y-15950D02*
X00750Y-15900D01*
X01250Y-15900D02*
X01250Y-15950D01*
X01250Y-15950D02*
X01200Y-16000D01*
X01200Y-16000D02*
X01150Y-16000D01*
X01150Y-15500D02*
X00850Y-15500D01*
X07700Y-08450D02*
X07700Y-08500D01*
X07700Y-08500D02*
X07650Y-08550D01*
X07650Y-08550D02*
X07600Y-08550D01*
X07600Y-08050D02*
X07650Y-08050D01*
X07650Y-08050D02*
X07700Y-08100D01*
X07700Y-08100D02*
X07700Y-08150D01*
X07200Y-08150D02*
X07200Y-08450D01*
X01800Y-09050D02*
X01800Y-09000D01*
X01800Y-09000D02*
X01850Y-08950D01*
X01850Y-08950D02*
X01900Y-08950D01*
X01900Y-09450D02*
X01850Y-09450D01*
X01850Y-09450D02*
X01800Y-09400D01*
X01800Y-09400D02*
X01800Y-09350D01*
X02300Y-09350D02*
X02300Y-09050D01*
X-00150Y-10200D02*
X-00100Y-10200D01*
X-00100Y-10200D02*
X-00050Y-10250D01*
X-00050Y-10250D02*
X-00050Y-10300D01*
X-00550Y-10300D02*
X-00550Y-10250D01*
X-00550Y-10250D02*
X-00500Y-10200D01*
X-00500Y-10200D02*
X-00450Y-10200D01*
X-00450Y-10700D02*
X-00150Y-10700D01*
X06700Y-11350D02*
X06700Y-11300D01*
X06700Y-11300D02*
X06750Y-11250D01*
X06750Y-11250D02*
X06800Y-11250D01*
X06800Y-11750D02*
X06750Y-11750D01*
X06750Y-11750D02*
X06700Y-11700D01*
X06700Y-11700D02*
X06700Y-11650D01*
X07200Y-11650D02*
X07200Y-11350D01*
G54D12*
X-11349Y-15859D02*
X-11349Y-18259D01*
X-11349Y-18259D02*
X-04549Y-18259D01*
X-04549Y-18259D02*
X-04549Y-13259D01*
X-04549Y-13259D02*
X-11349Y-13259D01*
X-11349Y-13259D02*
X-11349Y-15859D01*
G54D11*
X12650Y00750D02*
X12600Y00800D01*
X12300Y00500D02*
X12300Y00700D01*
G54D13*
X00205Y-15325D02*
X00214Y-15315D01*
X00224Y-15287D01*
X00224Y-15268D01*
X00214Y-15239D01*
X00195Y-15220D01*
X00176Y-15211D01*
X00138Y-15201D01*
X00110Y-15201D01*
X00072Y-15211D01*
X00053Y-15220D01*
X00033Y-15239D01*
X00024Y-15268D01*
X00024Y-15287D01*
X00033Y-15315D01*
X00043Y-15325D01*
X00024Y-15496D02*
X00024Y-15458D01*
X00033Y-15439D01*
X00043Y-15430D01*
X00072Y-15411D01*
X00110Y-15401D01*
X00186Y-15401D01*
X00205Y-15411D01*
X00214Y-15420D01*
X00224Y-15439D01*
X00224Y-15477D01*
X00214Y-15496D01*
X00205Y-15506D01*
X00186Y-15515D01*
X00138Y-15515D01*
X00119Y-15506D01*
X00110Y-15496D01*
X00100Y-15477D01*
X00100Y-15439D01*
X00110Y-15420D01*
X00119Y-15411D01*
X00138Y-15401D01*
X00091Y-15686D02*
X00224Y-15686D01*
X00014Y-15639D02*
X00157Y-15591D01*
X00157Y-15715D01*
X-00308Y-15149D02*
X-00308Y-15168D01*
X-00299Y-15187D01*
X-00289Y-15196D01*
X-00270Y-15206D01*
X-00232Y-15215D01*
X-00184Y-15215D01*
X-00146Y-15206D01*
X-00127Y-15196D01*
X-00118Y-15187D01*
X-00108Y-15168D01*
X-00108Y-15149D01*
X-00118Y-15130D01*
X-00127Y-15120D01*
X-00146Y-15111D01*
X-00184Y-15101D01*
X-00232Y-15101D01*
X-00270Y-15111D01*
X-00289Y-15120D01*
X-00299Y-15130D01*
X-00308Y-15149D01*
X-00127Y-15301D02*
X-00118Y-15310D01*
X-00108Y-15301D01*
X-00118Y-15291D01*
X-00127Y-15301D01*
X-00108Y-15301D01*
X-00108Y-15500D02*
X-00108Y-15386D01*
X-00108Y-15443D02*
X-00308Y-15443D01*
X-00279Y-15424D01*
X-00260Y-15405D01*
X-00251Y-15386D01*
X-00241Y-15671D02*
X-00108Y-15671D01*
X-00241Y-15586D02*
X-00137Y-15586D01*
X-00118Y-15595D01*
X-00108Y-15614D01*
X-00108Y-15643D01*
X-00118Y-15662D01*
X-00127Y-15671D01*
X-00241Y-15738D02*
X-00241Y-15814D01*
X-00108Y-15767D02*
X-00279Y-15767D01*
X-00299Y-15776D01*
X-00308Y-15795D01*
X-00308Y-15814D01*
X01826Y-12885D02*
X01835Y-12875D01*
X01845Y-12847D01*
X01845Y-12828D01*
X01835Y-12799D01*
X01816Y-12780D01*
X01797Y-12771D01*
X01759Y-12761D01*
X01731Y-12761D01*
X01693Y-12771D01*
X01674Y-12780D01*
X01654Y-12799D01*
X01645Y-12828D01*
X01645Y-12847D01*
X01654Y-12875D01*
X01664Y-12885D01*
X01645Y-13056D02*
X01645Y-13018D01*
X01654Y-12999D01*
X01664Y-12990D01*
X01693Y-12971D01*
X01731Y-12961D01*
X01807Y-12961D01*
X01826Y-12971D01*
X01835Y-12980D01*
X01845Y-12999D01*
X01845Y-13037D01*
X01835Y-13056D01*
X01826Y-13066D01*
X01807Y-13075D01*
X01759Y-13075D01*
X01740Y-13066D01*
X01731Y-13056D01*
X01721Y-13037D01*
X01721Y-12999D01*
X01731Y-12980D01*
X01740Y-12971D01*
X01759Y-12961D01*
X01845Y-13170D02*
X01845Y-13208D01*
X01835Y-13227D01*
X01826Y-13237D01*
X01797Y-13256D01*
X01759Y-13265D01*
X01683Y-13265D01*
X01664Y-13256D01*
X01654Y-13246D01*
X01645Y-13227D01*
X01645Y-13189D01*
X01654Y-13170D01*
X01664Y-13161D01*
X01683Y-13151D01*
X01731Y-13151D01*
X01750Y-13161D01*
X01759Y-13170D01*
X01769Y-13189D01*
X01769Y-13227D01*
X01759Y-13246D01*
X01750Y-13256D01*
X01731Y-13265D01*
X02492Y-12942D02*
X02492Y-12828D01*
X02492Y-12885D02*
X02292Y-12885D01*
X02321Y-12866D01*
X02340Y-12847D01*
X02349Y-12828D01*
X02359Y-13113D02*
X02492Y-13113D01*
X02359Y-13028D02*
X02463Y-13028D01*
X02482Y-13037D01*
X02492Y-13056D01*
X02492Y-13085D01*
X02482Y-13104D01*
X02473Y-13113D01*
X02359Y-13180D02*
X02359Y-13256D01*
X02492Y-13209D02*
X02321Y-13209D01*
X02301Y-13218D01*
X02292Y-13237D01*
X02292Y-13256D01*
X12362Y02249D02*
X12372Y02240D01*
X12400Y02230D01*
X12419Y02230D01*
X12448Y02240D01*
X12467Y02259D01*
X12476Y02278D01*
X12486Y02316D01*
X12486Y02344D01*
X12476Y02382D01*
X12467Y02401D01*
X12448Y02421D01*
X12419Y02430D01*
X12400Y02430D01*
X12372Y02421D01*
X12362Y02411D01*
X12267Y02230D02*
X12229Y02230D01*
X12210Y02240D01*
X12200Y02249D01*
X12181Y02278D01*
X12172Y02316D01*
X12172Y02392D01*
X12181Y02411D01*
X12191Y02421D01*
X12210Y02430D01*
X12248Y02430D01*
X12267Y02421D01*
X12276Y02411D01*
X12286Y02392D01*
X12286Y02344D01*
X12276Y02325D01*
X12267Y02316D01*
X12248Y02306D01*
X12210Y02306D01*
X12191Y02316D01*
X12181Y02325D01*
X12172Y02344D01*
X12105Y02430D02*
X11972Y02430D01*
X12058Y02230D01*
X12615Y01837D02*
X12596Y01837D01*
X12577Y01828D01*
X12568Y01818D01*
X12558Y01799D01*
X12549Y01761D01*
X12549Y01713D01*
X12558Y01675D01*
X12568Y01656D01*
X12577Y01647D01*
X12596Y01637D01*
X12615Y01637D01*
X12634Y01647D01*
X12644Y01656D01*
X12653Y01675D01*
X12663Y01713D01*
X12663Y01761D01*
X12653Y01799D01*
X12644Y01818D01*
X12634Y01828D01*
X12615Y01837D01*
X12463Y01656D02*
X12454Y01647D01*
X12463Y01637D01*
X12473Y01647D01*
X12463Y01656D01*
X12463Y01637D01*
X12264Y01637D02*
X12378Y01637D01*
X12321Y01637D02*
X12321Y01837D01*
X12340Y01808D01*
X12359Y01789D01*
X12378Y01780D01*
X12093Y01770D02*
X12093Y01637D01*
X12178Y01770D02*
X12178Y01666D01*
X12169Y01647D01*
X12150Y01637D01*
X12121Y01637D01*
X12102Y01647D01*
X12093Y01656D01*
X12026Y01770D02*
X11950Y01770D01*
X11997Y01637D02*
X11997Y01808D01*
X11988Y01828D01*
X11969Y01837D01*
X11950Y01837D01*
X10412Y-00293D02*
X10422Y-00302D01*
X10450Y-00312D01*
X10469Y-00312D01*
X10498Y-00302D01*
X10517Y-00283D01*
X10526Y-00264D01*
X10536Y-00226D01*
X10536Y-00198D01*
X10526Y-00160D01*
X10517Y-00141D01*
X10498Y-00121D01*
X10469Y-00112D01*
X10450Y-00112D01*
X10422Y-00121D01*
X10412Y-00131D01*
X10317Y-00312D02*
X10279Y-00312D01*
X10260Y-00302D01*
X10250Y-00293D01*
X10231Y-00264D01*
X10222Y-00226D01*
X10222Y-00150D01*
X10231Y-00131D01*
X10241Y-00121D01*
X10260Y-00112D01*
X10298Y-00112D01*
X10317Y-00121D01*
X10326Y-00131D01*
X10336Y-00150D01*
X10336Y-00198D01*
X10326Y-00217D01*
X10317Y-00226D01*
X10298Y-00236D01*
X10260Y-00236D01*
X10241Y-00226D01*
X10231Y-00217D01*
X10222Y-00198D01*
X10127Y-00312D02*
X10089Y-00312D01*
X10070Y-00302D01*
X10060Y-00293D01*
X10041Y-00264D01*
X10032Y-00226D01*
X10032Y-00150D01*
X10041Y-00131D01*
X10051Y-00121D01*
X10070Y-00112D01*
X10108Y-00112D01*
X10127Y-00121D01*
X10136Y-00131D01*
X10146Y-00150D01*
X10146Y-00198D01*
X10136Y-00217D01*
X10127Y-00226D01*
X10108Y-00236D01*
X10070Y-00236D01*
X10051Y-00226D01*
X10041Y-00217D01*
X10032Y-00198D01*
X10515Y00569D02*
X10496Y00569D01*
X10477Y00560D01*
X10468Y00550D01*
X10458Y00531D01*
X10449Y00493D01*
X10449Y00445D01*
X10458Y00407D01*
X10468Y00388D01*
X10477Y00379D01*
X10496Y00369D01*
X10515Y00369D01*
X10534Y00379D01*
X10544Y00388D01*
X10553Y00407D01*
X10563Y00445D01*
X10563Y00493D01*
X10553Y00531D01*
X10544Y00550D01*
X10534Y00560D01*
X10515Y00569D01*
X10363Y00388D02*
X10354Y00379D01*
X10363Y00369D01*
X10373Y00379D01*
X10363Y00388D01*
X10363Y00369D01*
X10164Y00369D02*
X10278Y00369D01*
X10221Y00369D02*
X10221Y00569D01*
X10240Y00540D01*
X10259Y00521D01*
X10278Y00512D01*
X09993Y00502D02*
X09993Y00369D01*
X10078Y00502D02*
X10078Y00398D01*
X10069Y00379D01*
X10050Y00369D01*
X10021Y00369D01*
X10002Y00379D01*
X09993Y00388D01*
X09926Y00502D02*
X09850Y00502D01*
X09897Y00369D02*
X09897Y00540D01*
X09888Y00560D01*
X09869Y00569D01*
X09850Y00569D01*
X07223Y-07052D02*
X07337Y-07052D01*
X07280Y-07052D02*
X07280Y-06852D01*
X07299Y-06881D01*
X07318Y-06900D01*
X07337Y-06909D01*
X07052Y-06919D02*
X07052Y-07052D01*
X07137Y-06919D02*
X07137Y-07023D01*
X07128Y-07042D01*
X07109Y-07052D01*
X07080Y-07052D01*
X07061Y-07042D01*
X07052Y-07033D01*
X06985Y-06919D02*
X06909Y-06919D01*
X06956Y-07052D02*
X06956Y-06881D01*
X06947Y-06861D01*
X06928Y-06852D01*
X06909Y-06852D01*
X02214Y-09983D02*
X02224Y-09992D01*
X02252Y-10002D01*
X02271Y-10002D01*
X02300Y-09992D01*
X02319Y-09973D01*
X02328Y-09954D01*
X02338Y-09916D01*
X02338Y-09888D01*
X02328Y-09850D01*
X02319Y-09831D01*
X02300Y-09811D01*
X02271Y-09802D01*
X02252Y-09802D01*
X02224Y-09811D01*
X02214Y-09821D01*
X02147Y-09802D02*
X02024Y-09802D01*
X02090Y-09878D01*
X02062Y-09878D01*
X02043Y-09888D01*
X02033Y-09897D01*
X02024Y-09916D01*
X02024Y-09964D01*
X02033Y-09983D01*
X02043Y-09992D01*
X02062Y-10002D01*
X02119Y-10002D01*
X02138Y-09992D01*
X02147Y-09983D01*
X01948Y-09821D02*
X01938Y-09811D01*
X01919Y-09802D01*
X01872Y-09802D01*
X01853Y-09811D01*
X01843Y-09821D01*
X01834Y-09840D01*
X01834Y-09859D01*
X01843Y-09888D01*
X01957Y-10002D01*
X01834Y-10002D01*
X01551Y-08994D02*
X01665Y-08994D01*
X01608Y-08994D02*
X01608Y-08794D01*
X01627Y-08823D01*
X01646Y-08842D01*
X01665Y-08851D01*
X01380Y-08861D02*
X01380Y-08994D01*
X01465Y-08861D02*
X01465Y-08965D01*
X01456Y-08984D01*
X01437Y-08994D01*
X01408Y-08994D01*
X01389Y-08984D01*
X01380Y-08975D01*
X01313Y-08861D02*
X01237Y-08861D01*
X01284Y-08994D02*
X01284Y-08823D01*
X01275Y-08803D01*
X01256Y-08794D01*
X01237Y-08794D01*
X01775Y-10988D02*
X01785Y-10997D01*
X01813Y-11007D01*
X01832Y-11007D01*
X01861Y-10997D01*
X01880Y-10978D01*
X01889Y-10959D01*
X01899Y-10921D01*
X01899Y-10893D01*
X01889Y-10855D01*
X01880Y-10836D01*
X01861Y-10816D01*
X01832Y-10807D01*
X01813Y-10807D01*
X01785Y-10816D01*
X01775Y-10826D01*
X01708Y-10807D02*
X01585Y-10807D01*
X01651Y-10883D01*
X01623Y-10883D01*
X01604Y-10893D01*
X01594Y-10902D01*
X01585Y-10921D01*
X01585Y-10969D01*
X01594Y-10988D01*
X01604Y-10997D01*
X01623Y-11007D01*
X01680Y-11007D01*
X01699Y-10997D01*
X01708Y-10988D01*
X01518Y-10807D02*
X01385Y-10807D01*
X01471Y-11007D01*
X01251Y-11226D02*
X01232Y-11226D01*
X01213Y-11235D01*
X01204Y-11245D01*
X01194Y-11264D01*
X01185Y-11302D01*
X01185Y-11350D01*
X01194Y-11388D01*
X01204Y-11407D01*
X01213Y-11416D01*
X01232Y-11426D01*
X01251Y-11426D01*
X01270Y-11416D01*
X01280Y-11407D01*
X01289Y-11388D01*
X01299Y-11350D01*
X01299Y-11302D01*
X01289Y-11264D01*
X01280Y-11245D01*
X01270Y-11235D01*
X01251Y-11226D01*
X01099Y-11407D02*
X01090Y-11416D01*
X01099Y-11426D01*
X01109Y-11416D01*
X01099Y-11407D01*
X01099Y-11426D01*
X00900Y-11426D02*
X01014Y-11426D01*
X00957Y-11426D02*
X00957Y-11226D01*
X00976Y-11255D01*
X00995Y-11274D01*
X01014Y-11283D01*
X00729Y-11293D02*
X00729Y-11426D01*
X00814Y-11293D02*
X00814Y-11397D01*
X00805Y-11416D01*
X00786Y-11426D01*
X00757Y-11426D01*
X00738Y-11416D01*
X00729Y-11407D01*
X00662Y-11293D02*
X00586Y-11293D01*
X00633Y-11426D02*
X00633Y-11255D01*
X00624Y-11235D01*
X00605Y-11226D01*
X00586Y-11226D01*
X00822Y-10071D02*
X00832Y-10080D01*
X00860Y-10090D01*
X00879Y-10090D01*
X00908Y-10080D01*
X00927Y-10061D01*
X00936Y-10042D01*
X00946Y-10004D01*
X00946Y-09976D01*
X00936Y-09938D01*
X00927Y-09919D01*
X00908Y-09899D01*
X00879Y-09890D01*
X00860Y-09890D01*
X00832Y-09899D01*
X00822Y-09909D01*
X00755Y-09890D02*
X00632Y-09890D01*
X00698Y-09966D01*
X00670Y-09966D01*
X00651Y-09976D01*
X00641Y-09985D01*
X00632Y-10004D01*
X00632Y-10052D01*
X00641Y-10071D01*
X00651Y-10080D01*
X00670Y-10090D01*
X00727Y-10090D01*
X00746Y-10080D01*
X00755Y-10071D01*
X00565Y-09890D02*
X00442Y-09890D01*
X00508Y-09966D01*
X00480Y-09966D01*
X00461Y-09976D01*
X00451Y-09985D01*
X00442Y-10004D01*
X00442Y-10052D01*
X00451Y-10071D01*
X00461Y-10080D01*
X00480Y-10090D01*
X00537Y-10090D01*
X00556Y-10080D01*
X00565Y-10071D01*
X00929Y-09280D02*
X00910Y-09280D01*
X00891Y-09289D01*
X00882Y-09299D01*
X00872Y-09318D01*
X00863Y-09356D01*
X00863Y-09404D01*
X00872Y-09442D01*
X00882Y-09461D01*
X00891Y-09470D01*
X00910Y-09480D01*
X00929Y-09480D01*
X00948Y-09470D01*
X00958Y-09461D01*
X00967Y-09442D01*
X00977Y-09404D01*
X00977Y-09356D01*
X00967Y-09318D01*
X00958Y-09299D01*
X00948Y-09289D01*
X00929Y-09280D01*
X00777Y-09461D02*
X00768Y-09470D01*
X00777Y-09480D01*
X00787Y-09470D01*
X00777Y-09461D01*
X00777Y-09480D01*
X00578Y-09480D02*
X00692Y-09480D01*
X00635Y-09480D02*
X00635Y-09280D01*
X00654Y-09309D01*
X00673Y-09328D01*
X00692Y-09337D01*
X00407Y-09347D02*
X00407Y-09480D01*
X00492Y-09347D02*
X00492Y-09451D01*
X00483Y-09470D01*
X00464Y-09480D01*
X00435Y-09480D01*
X00416Y-09470D01*
X00407Y-09461D01*
X00340Y-09347D02*
X00264Y-09347D01*
X00311Y-09480D02*
X00311Y-09309D01*
X00302Y-09289D01*
X00283Y-09280D01*
X00264Y-09280D01*
X13374Y-09860D02*
X13384Y-09869D01*
X13412Y-09879D01*
X13431Y-09879D01*
X13460Y-09869D01*
X13479Y-09850D01*
X13488Y-09831D01*
X13498Y-09793D01*
X13498Y-09765D01*
X13488Y-09727D01*
X13479Y-09708D01*
X13460Y-09688D01*
X13431Y-09679D01*
X13412Y-09679D01*
X13384Y-09688D01*
X13374Y-09698D01*
X13260Y-09765D02*
X13279Y-09755D01*
X13288Y-09746D01*
X13298Y-09727D01*
X13298Y-09717D01*
X13288Y-09698D01*
X13279Y-09688D01*
X13260Y-09679D01*
X13222Y-09679D01*
X13203Y-09688D01*
X13193Y-09698D01*
X13184Y-09717D01*
X13184Y-09727D01*
X13193Y-09746D01*
X13203Y-09755D01*
X13222Y-09765D01*
X13260Y-09765D01*
X13279Y-09774D01*
X13288Y-09784D01*
X13298Y-09803D01*
X13298Y-09841D01*
X13288Y-09860D01*
X13279Y-09869D01*
X13260Y-09879D01*
X13222Y-09879D01*
X13203Y-09869D01*
X13193Y-09860D01*
X13184Y-09841D01*
X13184Y-09803D01*
X13193Y-09784D01*
X13203Y-09774D01*
X13222Y-09765D01*
X11760Y-09646D02*
X11741Y-09646D01*
X11722Y-09655D01*
X11713Y-09665D01*
X11703Y-09684D01*
X11694Y-09722D01*
X11694Y-09770D01*
X11703Y-09808D01*
X11713Y-09827D01*
X11722Y-09836D01*
X11741Y-09846D01*
X11760Y-09846D01*
X11779Y-09836D01*
X11789Y-09827D01*
X11798Y-09808D01*
X11808Y-09770D01*
X11808Y-09722D01*
X11798Y-09684D01*
X11789Y-09665D01*
X11779Y-09655D01*
X11760Y-09646D01*
X11608Y-09827D02*
X11599Y-09836D01*
X11608Y-09846D01*
X11618Y-09836D01*
X11608Y-09827D01*
X11608Y-09846D01*
X11409Y-09846D02*
X11523Y-09846D01*
X11466Y-09846D02*
X11466Y-09646D01*
X11485Y-09675D01*
X11504Y-09694D01*
X11523Y-09703D01*
X11238Y-09713D02*
X11238Y-09846D01*
X11323Y-09713D02*
X11323Y-09817D01*
X11314Y-09836D01*
X11295Y-09846D01*
X11266Y-09846D01*
X11247Y-09836D01*
X11238Y-09827D01*
X11171Y-09713D02*
X11095Y-09713D01*
X11142Y-09846D02*
X11142Y-09675D01*
X11133Y-09655D01*
X11114Y-09646D01*
X11095Y-09646D01*
X13324Y-11052D02*
X13334Y-11061D01*
X13362Y-11071D01*
X13381Y-11071D01*
X13410Y-11061D01*
X13429Y-11042D01*
X13438Y-11023D01*
X13448Y-10985D01*
X13448Y-10957D01*
X13438Y-10919D01*
X13429Y-10900D01*
X13410Y-10880D01*
X13381Y-10871D01*
X13362Y-10871D01*
X13334Y-10880D01*
X13324Y-10890D01*
X13153Y-10871D02*
X13191Y-10871D01*
X13210Y-10880D01*
X13219Y-10890D01*
X13238Y-10919D01*
X13248Y-10957D01*
X13248Y-11033D01*
X13238Y-11052D01*
X13229Y-11061D01*
X13210Y-11071D01*
X13172Y-11071D01*
X13153Y-11061D01*
X13143Y-11052D01*
X13134Y-11033D01*
X13134Y-10985D01*
X13143Y-10966D01*
X13153Y-10957D01*
X13172Y-10947D01*
X13210Y-10947D01*
X13229Y-10957D01*
X13238Y-10966D01*
X13248Y-10985D01*
X11828Y-10879D02*
X11809Y-10879D01*
X11790Y-10888D01*
X11781Y-10898D01*
X11771Y-10917D01*
X11762Y-10955D01*
X11762Y-11003D01*
X11771Y-11041D01*
X11781Y-11060D01*
X11790Y-11069D01*
X11809Y-11079D01*
X11828Y-11079D01*
X11847Y-11069D01*
X11857Y-11060D01*
X11866Y-11041D01*
X11876Y-11003D01*
X11876Y-10955D01*
X11866Y-10917D01*
X11857Y-10898D01*
X11847Y-10888D01*
X11828Y-10879D01*
X11676Y-11060D02*
X11667Y-11069D01*
X11676Y-11079D01*
X11686Y-11069D01*
X11676Y-11060D01*
X11676Y-11079D01*
X11477Y-11079D02*
X11591Y-11079D01*
X11534Y-11079D02*
X11534Y-10879D01*
X11553Y-10908D01*
X11572Y-10927D01*
X11591Y-10936D01*
X11306Y-10946D02*
X11306Y-11079D01*
X11391Y-10946D02*
X11391Y-11050D01*
X11382Y-11069D01*
X11363Y-11079D01*
X11334Y-11079D01*
X11315Y-11069D01*
X11306Y-11060D01*
X11239Y-10946D02*
X11163Y-10946D01*
X11210Y-11079D02*
X11210Y-10908D01*
X11201Y-10888D01*
X11182Y-10879D01*
X11163Y-10879D01*
X14151Y-10861D02*
X14161Y-10870D01*
X14189Y-10880D01*
X14208Y-10880D01*
X14237Y-10870D01*
X14256Y-10851D01*
X14265Y-10832D01*
X14275Y-10794D01*
X14275Y-10766D01*
X14265Y-10728D01*
X14256Y-10709D01*
X14237Y-10689D01*
X14208Y-10680D01*
X14189Y-10680D01*
X14161Y-10689D01*
X14151Y-10699D01*
X13970Y-10680D02*
X14065Y-10680D01*
X14075Y-10775D01*
X14065Y-10766D01*
X14046Y-10756D01*
X13999Y-10756D01*
X13980Y-10766D01*
X13970Y-10775D01*
X13961Y-10794D01*
X13961Y-10842D01*
X13970Y-10861D01*
X13980Y-10870D01*
X13999Y-10880D01*
X14046Y-10880D01*
X14065Y-10870D01*
X14075Y-10861D01*
X14204Y-11450D02*
X14318Y-11450D01*
X14261Y-11450D02*
X14261Y-11250D01*
X14280Y-11279D01*
X14299Y-11298D01*
X14318Y-11307D01*
X14033Y-11317D02*
X14033Y-11450D01*
X14118Y-11317D02*
X14118Y-11421D01*
X14109Y-11440D01*
X14090Y-11450D01*
X14061Y-11450D01*
X14042Y-11440D01*
X14033Y-11431D01*
X13966Y-11317D02*
X13890Y-11317D01*
X13937Y-11450D02*
X13937Y-11279D01*
X13928Y-11259D01*
X13909Y-11250D01*
X13890Y-11250D01*
X13337Y-11476D02*
X13347Y-11485D01*
X13375Y-11495D01*
X13394Y-11495D01*
X13423Y-11485D01*
X13442Y-11466D01*
X13451Y-11447D01*
X13461Y-11409D01*
X13461Y-11381D01*
X13451Y-11343D01*
X13442Y-11324D01*
X13423Y-11304D01*
X13394Y-11295D01*
X13375Y-11295D01*
X13347Y-11304D01*
X13337Y-11314D01*
X13270Y-11295D02*
X13147Y-11295D01*
X13213Y-11371D01*
X13185Y-11371D01*
X13166Y-11381D01*
X13156Y-11390D01*
X13147Y-11409D01*
X13147Y-11457D01*
X13156Y-11476D01*
X13166Y-11485D01*
X13185Y-11495D01*
X13242Y-11495D01*
X13261Y-11485D01*
X13270Y-11476D01*
X11910Y-11479D02*
X12024Y-11479D01*
X11967Y-11479D02*
X11967Y-11279D01*
X11986Y-11308D01*
X12005Y-11327D01*
X12024Y-11336D01*
X11739Y-11346D02*
X11739Y-11479D01*
X11824Y-11346D02*
X11824Y-11450D01*
X11815Y-11469D01*
X11796Y-11479D01*
X11767Y-11479D01*
X11748Y-11469D01*
X11739Y-11460D01*
X11672Y-11346D02*
X11596Y-11346D01*
X11643Y-11479D02*
X11643Y-11308D01*
X11634Y-11288D01*
X11615Y-11279D01*
X11596Y-11279D01*
X14546Y-08168D02*
X14556Y-08177D01*
X14584Y-08187D01*
X14603Y-08187D01*
X14632Y-08177D01*
X14651Y-08158D01*
X14660Y-08139D01*
X14670Y-08101D01*
X14670Y-08073D01*
X14660Y-08035D01*
X14651Y-08016D01*
X14632Y-07996D01*
X14603Y-07987D01*
X14584Y-07987D01*
X14556Y-07996D01*
X14546Y-08006D01*
X14356Y-08187D02*
X14470Y-08187D01*
X14413Y-08187D02*
X14413Y-07987D01*
X14432Y-08016D01*
X14451Y-08035D01*
X14470Y-08044D01*
X14232Y-07987D02*
X14213Y-07987D01*
X14194Y-07996D01*
X14185Y-08006D01*
X14175Y-08025D01*
X14166Y-08063D01*
X14166Y-08111D01*
X14175Y-08149D01*
X14185Y-08168D01*
X14194Y-08177D01*
X14213Y-08187D01*
X14232Y-08187D01*
X14251Y-08177D01*
X14261Y-08168D01*
X14270Y-08149D01*
X14280Y-08111D01*
X14280Y-08063D01*
X14270Y-08025D01*
X14261Y-08006D01*
X14251Y-07996D01*
X14232Y-07987D01*
X13358Y-07971D02*
X13339Y-07971D01*
X13320Y-07980D01*
X13311Y-07990D01*
X13301Y-08009D01*
X13292Y-08047D01*
X13292Y-08095D01*
X13301Y-08133D01*
X13311Y-08152D01*
X13320Y-08161D01*
X13339Y-08171D01*
X13358Y-08171D01*
X13377Y-08161D01*
X13387Y-08152D01*
X13396Y-08133D01*
X13406Y-08095D01*
X13406Y-08047D01*
X13396Y-08009D01*
X13387Y-07990D01*
X13377Y-07980D01*
X13358Y-07971D01*
X13206Y-08152D02*
X13197Y-08161D01*
X13206Y-08171D01*
X13216Y-08161D01*
X13206Y-08152D01*
X13206Y-08171D01*
X13007Y-08171D02*
X13121Y-08171D01*
X13064Y-08171D02*
X13064Y-07971D01*
X13083Y-08000D01*
X13102Y-08019D01*
X13121Y-08028D01*
X12836Y-08038D02*
X12836Y-08171D01*
X12921Y-08038D02*
X12921Y-08142D01*
X12912Y-08161D01*
X12893Y-08171D01*
X12864Y-08171D01*
X12845Y-08161D01*
X12836Y-08152D01*
X12769Y-08038D02*
X12693Y-08038D01*
X12740Y-08171D02*
X12740Y-08000D01*
X12731Y-07980D01*
X12712Y-07971D01*
X12693Y-07971D01*
X13449Y-10652D02*
X13459Y-10661D01*
X13487Y-10671D01*
X13506Y-10671D01*
X13535Y-10661D01*
X13554Y-10642D01*
X13563Y-10623D01*
X13573Y-10585D01*
X13573Y-10557D01*
X13563Y-10519D01*
X13554Y-10500D01*
X13535Y-10480D01*
X13506Y-10471D01*
X13487Y-10471D01*
X13459Y-10480D01*
X13449Y-10490D01*
X13259Y-10671D02*
X13373Y-10671D01*
X13316Y-10671D02*
X13316Y-10471D01*
X13335Y-10500D01*
X13354Y-10519D01*
X13373Y-10528D01*
X13069Y-10671D02*
X13183Y-10671D01*
X13126Y-10671D02*
X13126Y-10471D01*
X13145Y-10500D01*
X13164Y-10519D01*
X13183Y-10528D01*
X11768Y-10467D02*
X11749Y-10467D01*
X11730Y-10476D01*
X11721Y-10486D01*
X11711Y-10505D01*
X11702Y-10543D01*
X11702Y-10591D01*
X11711Y-10629D01*
X11721Y-10648D01*
X11730Y-10657D01*
X11749Y-10667D01*
X11768Y-10667D01*
X11787Y-10657D01*
X11797Y-10648D01*
X11806Y-10629D01*
X11816Y-10591D01*
X11816Y-10543D01*
X11806Y-10505D01*
X11797Y-10486D01*
X11787Y-10476D01*
X11768Y-10467D01*
X11616Y-10648D02*
X11607Y-10657D01*
X11616Y-10667D01*
X11626Y-10657D01*
X11616Y-10648D01*
X11616Y-10667D01*
X11417Y-10667D02*
X11531Y-10667D01*
X11474Y-10667D02*
X11474Y-10467D01*
X11493Y-10496D01*
X11512Y-10515D01*
X11531Y-10524D01*
X11246Y-10534D02*
X11246Y-10667D01*
X11331Y-10534D02*
X11331Y-10638D01*
X11322Y-10657D01*
X11303Y-10667D01*
X11274Y-10667D01*
X11255Y-10657D01*
X11246Y-10648D01*
X11179Y-10534D02*
X11103Y-10534D01*
X11150Y-10667D02*
X11150Y-10496D01*
X11141Y-10476D01*
X11122Y-10467D01*
X11103Y-10467D01*
X05298Y-10197D02*
X05165Y-10197D01*
X05251Y-10397D01*
X05089Y-10264D02*
X05089Y-10464D01*
X05089Y-10273D02*
X05070Y-10264D01*
X05032Y-10264D01*
X05013Y-10273D01*
X05004Y-10283D01*
X04994Y-10302D01*
X04994Y-10359D01*
X05004Y-10378D01*
X05013Y-10387D01*
X05032Y-10397D01*
X05070Y-10397D01*
X05089Y-10387D01*
X04937Y-10264D02*
X04861Y-10264D01*
X04908Y-10397D02*
X04908Y-10226D01*
X04899Y-10206D01*
X04880Y-10197D01*
X04861Y-10197D01*
X05515Y-07996D02*
X05382Y-07996D01*
X05468Y-08196D01*
X05306Y-08063D02*
X05306Y-08263D01*
X05306Y-08072D02*
X05287Y-08063D01*
X05249Y-08063D01*
X05230Y-08072D01*
X05221Y-08082D01*
X05211Y-08101D01*
X05211Y-08158D01*
X05221Y-08177D01*
X05230Y-08186D01*
X05249Y-08196D01*
X05287Y-08196D01*
X05306Y-08186D01*
X05154Y-08063D02*
X05078Y-08063D01*
X05125Y-08196D02*
X05125Y-08025D01*
X05116Y-08005D01*
X05097Y-07996D01*
X05078Y-07996D01*
X00734Y-10755D02*
X00744Y-10764D01*
X00772Y-10774D01*
X00791Y-10774D01*
X00820Y-10764D01*
X00839Y-10745D01*
X00848Y-10726D01*
X00858Y-10688D01*
X00858Y-10660D01*
X00848Y-10622D01*
X00839Y-10603D01*
X00820Y-10583D01*
X00791Y-10574D01*
X00772Y-10574D01*
X00744Y-10583D01*
X00734Y-10593D01*
X00563Y-10641D02*
X00563Y-10774D01*
X00610Y-10564D02*
X00658Y-10707D01*
X00534Y-10707D01*
X00468Y-10593D02*
X00458Y-10583D01*
X00439Y-10574D01*
X00392Y-10574D01*
X00373Y-10583D01*
X00363Y-10593D01*
X00354Y-10612D01*
X00354Y-10631D01*
X00363Y-10660D01*
X00477Y-10774D01*
X00354Y-10774D01*
X01945Y-10234D02*
X01926Y-10234D01*
X01907Y-10243D01*
X01898Y-10253D01*
X01888Y-10272D01*
X01879Y-10310D01*
X01879Y-10358D01*
X01888Y-10396D01*
X01898Y-10415D01*
X01907Y-10424D01*
X01926Y-10434D01*
X01945Y-10434D01*
X01964Y-10424D01*
X01974Y-10415D01*
X01983Y-10396D01*
X01993Y-10358D01*
X01993Y-10310D01*
X01983Y-10272D01*
X01974Y-10253D01*
X01964Y-10243D01*
X01945Y-10234D01*
X01793Y-10415D02*
X01784Y-10424D01*
X01793Y-10434D01*
X01803Y-10424D01*
X01793Y-10415D01*
X01793Y-10434D01*
X01594Y-10434D02*
X01708Y-10434D01*
X01651Y-10434D02*
X01651Y-10234D01*
X01670Y-10263D01*
X01689Y-10282D01*
X01708Y-10291D01*
X01423Y-10301D02*
X01423Y-10434D01*
X01508Y-10301D02*
X01508Y-10405D01*
X01499Y-10424D01*
X01480Y-10434D01*
X01451Y-10434D01*
X01432Y-10424D01*
X01423Y-10415D01*
X01356Y-10301D02*
X01280Y-10301D01*
X01327Y-10434D02*
X01327Y-10263D01*
X01318Y-10243D01*
X01299Y-10234D01*
X01280Y-10234D01*
X07638Y-07556D02*
X07638Y-07575D01*
X07647Y-07594D01*
X07657Y-07603D01*
X07676Y-07613D01*
X07714Y-07622D01*
X07762Y-07622D01*
X07800Y-07613D01*
X07819Y-07603D01*
X07828Y-07594D01*
X07838Y-07575D01*
X07838Y-07556D01*
X07828Y-07537D01*
X07819Y-07527D01*
X07800Y-07518D01*
X07762Y-07508D01*
X07714Y-07508D01*
X07676Y-07518D01*
X07657Y-07527D01*
X07647Y-07537D01*
X07638Y-07556D01*
X07819Y-07708D02*
X07828Y-07717D01*
X07838Y-07708D01*
X07828Y-07698D01*
X07819Y-07708D01*
X07838Y-07708D01*
X07638Y-07841D02*
X07638Y-07860D01*
X07647Y-07879D01*
X07657Y-07888D01*
X07676Y-07898D01*
X07714Y-07907D01*
X07762Y-07907D01*
X07800Y-07898D01*
X07819Y-07888D01*
X07828Y-07879D01*
X07838Y-07860D01*
X07838Y-07841D01*
X07828Y-07822D01*
X07819Y-07812D01*
X07800Y-07803D01*
X07762Y-07793D01*
X07714Y-07793D01*
X07676Y-07803D01*
X07657Y-07812D01*
X07647Y-07822D01*
X07638Y-07841D01*
X07838Y-08097D02*
X07838Y-07983D01*
X07838Y-08040D02*
X07638Y-08040D01*
X07667Y-08021D01*
X07686Y-08002D01*
X07695Y-07983D01*
X07705Y-08268D02*
X07838Y-08268D01*
X07705Y-08183D02*
X07809Y-08183D01*
X07828Y-08192D01*
X07838Y-08211D01*
X07838Y-08240D01*
X07828Y-08259D01*
X07819Y-08268D01*
X07705Y-08335D02*
X07705Y-08411D01*
X07838Y-08364D02*
X07667Y-08364D01*
X07647Y-08373D01*
X07638Y-08392D01*
X07638Y-08411D01*
X08094Y-08286D02*
X08094Y-08305D01*
X08103Y-08324D01*
X08113Y-08333D01*
X08132Y-08343D01*
X08170Y-08352D01*
X08218Y-08352D01*
X08256Y-08343D01*
X08275Y-08333D01*
X08284Y-08324D01*
X08294Y-08305D01*
X08294Y-08286D01*
X08284Y-08267D01*
X08275Y-08257D01*
X08256Y-08248D01*
X08218Y-08238D01*
X08170Y-08238D01*
X08132Y-08248D01*
X08113Y-08257D01*
X08103Y-08267D01*
X08094Y-08286D01*
X08275Y-08438D02*
X08284Y-08447D01*
X08294Y-08438D01*
X08284Y-08428D01*
X08275Y-08438D01*
X08294Y-08438D01*
X08094Y-08571D02*
X08094Y-08590D01*
X08103Y-08609D01*
X08113Y-08618D01*
X08132Y-08628D01*
X08170Y-08637D01*
X08218Y-08637D01*
X08256Y-08628D01*
X08275Y-08618D01*
X08284Y-08609D01*
X08294Y-08590D01*
X08294Y-08571D01*
X08284Y-08552D01*
X08275Y-08542D01*
X08256Y-08533D01*
X08218Y-08523D01*
X08170Y-08523D01*
X08132Y-08533D01*
X08113Y-08542D01*
X08103Y-08552D01*
X08094Y-08571D01*
X08294Y-08827D02*
X08294Y-08713D01*
X08294Y-08770D02*
X08094Y-08770D01*
X08123Y-08751D01*
X08142Y-08732D01*
X08151Y-08713D01*
X08161Y-08998D02*
X08294Y-08998D01*
X08161Y-08913D02*
X08265Y-08913D01*
X08284Y-08922D01*
X08294Y-08941D01*
X08294Y-08970D01*
X08284Y-08989D01*
X08275Y-08998D01*
X08161Y-09065D02*
X08161Y-09141D01*
X08294Y-09094D02*
X08123Y-09094D01*
X08103Y-09103D01*
X08094Y-09122D01*
X08094Y-09141D01*
X06316Y-07556D02*
X06316Y-07575D01*
X06325Y-07594D01*
X06335Y-07603D01*
X06354Y-07613D01*
X06392Y-07622D01*
X06440Y-07622D01*
X06478Y-07613D01*
X06497Y-07603D01*
X06506Y-07594D01*
X06516Y-07575D01*
X06516Y-07556D01*
X06506Y-07537D01*
X06497Y-07527D01*
X06478Y-07518D01*
X06440Y-07508D01*
X06392Y-07508D01*
X06354Y-07518D01*
X06335Y-07527D01*
X06325Y-07537D01*
X06316Y-07556D01*
X06497Y-07708D02*
X06506Y-07717D01*
X06516Y-07708D01*
X06506Y-07698D01*
X06497Y-07708D01*
X06516Y-07708D01*
X06316Y-07841D02*
X06316Y-07860D01*
X06325Y-07879D01*
X06335Y-07888D01*
X06354Y-07898D01*
X06392Y-07907D01*
X06440Y-07907D01*
X06478Y-07898D01*
X06497Y-07888D01*
X06506Y-07879D01*
X06516Y-07860D01*
X06516Y-07841D01*
X06506Y-07822D01*
X06497Y-07812D01*
X06478Y-07803D01*
X06440Y-07793D01*
X06392Y-07793D01*
X06354Y-07803D01*
X06335Y-07812D01*
X06325Y-07822D01*
X06316Y-07841D01*
X06516Y-08097D02*
X06516Y-07983D01*
X06516Y-08040D02*
X06316Y-08040D01*
X06345Y-08021D01*
X06364Y-08002D01*
X06373Y-07983D01*
X06383Y-08268D02*
X06516Y-08268D01*
X06383Y-08183D02*
X06487Y-08183D01*
X06506Y-08192D01*
X06516Y-08211D01*
X06516Y-08240D01*
X06506Y-08259D01*
X06497Y-08268D01*
X06383Y-08335D02*
X06383Y-08411D01*
X06516Y-08364D02*
X06345Y-08364D01*
X06325Y-08373D01*
X06316Y-08392D01*
X06316Y-08411D01*
X07795Y-11270D02*
X07795Y-11289D01*
X07804Y-11308D01*
X07814Y-11317D01*
X07833Y-11327D01*
X07871Y-11336D01*
X07919Y-11336D01*
X07957Y-11327D01*
X07976Y-11317D01*
X07985Y-11308D01*
X07995Y-11289D01*
X07995Y-11270D01*
X07985Y-11251D01*
X07976Y-11241D01*
X07957Y-11232D01*
X07919Y-11222D01*
X07871Y-11222D01*
X07833Y-11232D01*
X07814Y-11241D01*
X07804Y-11251D01*
X07795Y-11270D01*
X07976Y-11422D02*
X07985Y-11431D01*
X07995Y-11422D01*
X07985Y-11412D01*
X07976Y-11422D01*
X07995Y-11422D01*
X07995Y-11621D02*
X07995Y-11507D01*
X07995Y-11564D02*
X07795Y-11564D01*
X07824Y-11545D01*
X07843Y-11526D01*
X07852Y-11507D01*
X07862Y-11792D02*
X07995Y-11792D01*
X07862Y-11707D02*
X07966Y-11707D01*
X07985Y-11716D01*
X07995Y-11735D01*
X07995Y-11764D01*
X07985Y-11783D01*
X07976Y-11792D01*
X07862Y-11859D02*
X07862Y-11935D01*
X07995Y-11888D02*
X07824Y-11888D01*
X07804Y-11897D01*
X07795Y-11916D01*
X07795Y-11935D01*
X09482Y-10683D02*
X09596Y-10683D01*
X09539Y-10683D02*
X09539Y-10483D01*
X09558Y-10512D01*
X09577Y-10531D01*
X09596Y-10540D01*
X09311Y-10550D02*
X09311Y-10683D01*
X09396Y-10550D02*
X09396Y-10654D01*
X09387Y-10673D01*
X09368Y-10683D01*
X09339Y-10683D01*
X09320Y-10673D01*
X09311Y-10664D01*
X09244Y-10550D02*
X09168Y-10550D01*
X09215Y-10683D02*
X09215Y-10512D01*
X09206Y-10492D01*
X09187Y-10483D01*
X09168Y-10483D01*
X05711Y-10946D02*
X05825Y-10946D01*
X05768Y-10946D02*
X05768Y-10746D01*
X05787Y-10775D01*
X05806Y-10794D01*
X05825Y-10803D01*
X05540Y-10813D02*
X05540Y-10946D01*
X05625Y-10813D02*
X05625Y-10917D01*
X05616Y-10936D01*
X05597Y-10946D01*
X05568Y-10946D01*
X05549Y-10936D01*
X05540Y-10927D01*
X05473Y-10813D02*
X05397Y-10813D01*
X05444Y-10946D02*
X05444Y-10775D01*
X05435Y-10755D01*
X05416Y-10746D01*
X05397Y-10746D01*
X07404Y-12065D02*
X07404Y-12084D01*
X07413Y-12103D01*
X07423Y-12112D01*
X07442Y-12122D01*
X07480Y-12131D01*
X07528Y-12131D01*
X07566Y-12122D01*
X07585Y-12112D01*
X07594Y-12103D01*
X07604Y-12084D01*
X07604Y-12065D01*
X07594Y-12046D01*
X07585Y-12036D01*
X07566Y-12027D01*
X07528Y-12017D01*
X07480Y-12017D01*
X07442Y-12027D01*
X07423Y-12036D01*
X07413Y-12046D01*
X07404Y-12065D01*
X07585Y-12217D02*
X07594Y-12226D01*
X07604Y-12217D01*
X07594Y-12207D01*
X07585Y-12217D01*
X07604Y-12217D01*
X07604Y-12416D02*
X07604Y-12302D01*
X07604Y-12359D02*
X07404Y-12359D01*
X07433Y-12340D01*
X07452Y-12321D01*
X07461Y-12302D01*
X07471Y-12587D02*
X07604Y-12587D01*
X07471Y-12502D02*
X07575Y-12502D01*
X07594Y-12511D01*
X07604Y-12530D01*
X07604Y-12559D01*
X07594Y-12578D01*
X07585Y-12587D01*
X07471Y-12654D02*
X07471Y-12730D01*
X07604Y-12683D02*
X07433Y-12683D01*
X07413Y-12692D01*
X07404Y-12711D01*
X07404Y-12730D01*
X06754Y-12036D02*
X06754Y-12055D01*
X06763Y-12074D01*
X06773Y-12083D01*
X06792Y-12093D01*
X06830Y-12102D01*
X06878Y-12102D01*
X06916Y-12093D01*
X06935Y-12083D01*
X06944Y-12074D01*
X06954Y-12055D01*
X06954Y-12036D01*
X06944Y-12017D01*
X06935Y-12007D01*
X06916Y-11998D01*
X06878Y-11988D01*
X06830Y-11988D01*
X06792Y-11998D01*
X06773Y-12007D01*
X06763Y-12017D01*
X06754Y-12036D01*
X06935Y-12188D02*
X06944Y-12197D01*
X06954Y-12188D01*
X06944Y-12178D01*
X06935Y-12188D01*
X06954Y-12188D01*
X06954Y-12387D02*
X06954Y-12273D01*
X06954Y-12330D02*
X06754Y-12330D01*
X06783Y-12311D01*
X06802Y-12292D01*
X06811Y-12273D01*
X06821Y-12558D02*
X06954Y-12558D01*
X06821Y-12473D02*
X06925Y-12473D01*
X06944Y-12482D01*
X06954Y-12501D01*
X06954Y-12530D01*
X06944Y-12549D01*
X06935Y-12558D01*
X06821Y-12625D02*
X06821Y-12701D01*
X06954Y-12654D02*
X06783Y-12654D01*
X06763Y-12663D01*
X06754Y-12682D01*
X06754Y-12701D01*
X06263Y-11395D02*
X06263Y-11414D01*
X06272Y-11433D01*
X06282Y-11442D01*
X06301Y-11452D01*
X06339Y-11461D01*
X06387Y-11461D01*
X06425Y-11452D01*
X06444Y-11442D01*
X06453Y-11433D01*
X06463Y-11414D01*
X06463Y-11395D01*
X06453Y-11376D01*
X06444Y-11366D01*
X06425Y-11357D01*
X06387Y-11347D01*
X06339Y-11347D01*
X06301Y-11357D01*
X06282Y-11366D01*
X06272Y-11376D01*
X06263Y-11395D01*
X06444Y-11547D02*
X06453Y-11556D01*
X06463Y-11547D01*
X06453Y-11537D01*
X06444Y-11547D01*
X06463Y-11547D01*
X06463Y-11746D02*
X06463Y-11632D01*
X06463Y-11689D02*
X06263Y-11689D01*
X06292Y-11670D01*
X06311Y-11651D01*
X06320Y-11632D01*
X06330Y-11917D02*
X06463Y-11917D01*
X06330Y-11832D02*
X06434Y-11832D01*
X06453Y-11841D01*
X06463Y-11860D01*
X06463Y-11889D01*
X06453Y-11908D01*
X06444Y-11917D01*
X06330Y-11984D02*
X06330Y-12060D01*
X06463Y-12013D02*
X06292Y-12013D01*
X06272Y-12022D01*
X06263Y-12041D01*
X06263Y-12060D01*
X09474Y-09983D02*
X09455Y-09983D01*
X09436Y-09992D01*
X09427Y-10002D01*
X09417Y-10021D01*
X09408Y-10059D01*
X09408Y-10107D01*
X09417Y-10145D01*
X09427Y-10164D01*
X09436Y-10173D01*
X09455Y-10183D01*
X09474Y-10183D01*
X09493Y-10173D01*
X09503Y-10164D01*
X09512Y-10145D01*
X09522Y-10107D01*
X09522Y-10059D01*
X09512Y-10021D01*
X09503Y-10002D01*
X09493Y-09992D01*
X09474Y-09983D01*
X09322Y-10164D02*
X09313Y-10173D01*
X09322Y-10183D01*
X09332Y-10173D01*
X09322Y-10164D01*
X09322Y-10183D01*
X09123Y-10183D02*
X09237Y-10183D01*
X09180Y-10183D02*
X09180Y-09983D01*
X09199Y-10012D01*
X09218Y-10031D01*
X09237Y-10040D01*
X08952Y-10050D02*
X08952Y-10183D01*
X09037Y-10050D02*
X09037Y-10154D01*
X09028Y-10173D01*
X09009Y-10183D01*
X08980Y-10183D01*
X08961Y-10173D01*
X08952Y-10164D01*
X08885Y-10050D02*
X08809Y-10050D01*
X08856Y-10183D02*
X08856Y-10012D01*
X08847Y-09992D01*
X08828Y-09983D01*
X08809Y-09983D01*
X13516Y-10280D02*
X13526Y-10289D01*
X13554Y-10299D01*
X13573Y-10299D01*
X13602Y-10289D01*
X13621Y-10270D01*
X13630Y-10251D01*
X13640Y-10213D01*
X13640Y-10185D01*
X13630Y-10147D01*
X13621Y-10128D01*
X13602Y-10108D01*
X13573Y-10099D01*
X13554Y-10099D01*
X13526Y-10108D01*
X13516Y-10118D01*
X13326Y-10299D02*
X13440Y-10299D01*
X13383Y-10299D02*
X13383Y-10099D01*
X13402Y-10128D01*
X13421Y-10147D01*
X13440Y-10156D01*
X13259Y-10099D02*
X13136Y-10099D01*
X13202Y-10175D01*
X13174Y-10175D01*
X13155Y-10185D01*
X13145Y-10194D01*
X13136Y-10213D01*
X13136Y-10261D01*
X13145Y-10280D01*
X13155Y-10289D01*
X13174Y-10299D01*
X13231Y-10299D01*
X13250Y-10289D01*
X13259Y-10280D01*
X11743Y-10063D02*
X11724Y-10063D01*
X11705Y-10072D01*
X11696Y-10082D01*
X11686Y-10101D01*
X11677Y-10139D01*
X11677Y-10187D01*
X11686Y-10225D01*
X11696Y-10244D01*
X11705Y-10253D01*
X11724Y-10263D01*
X11743Y-10263D01*
X11762Y-10253D01*
X11772Y-10244D01*
X11781Y-10225D01*
X11791Y-10187D01*
X11791Y-10139D01*
X11781Y-10101D01*
X11772Y-10082D01*
X11762Y-10072D01*
X11743Y-10063D01*
X11591Y-10244D02*
X11582Y-10253D01*
X11591Y-10263D01*
X11601Y-10253D01*
X11591Y-10244D01*
X11591Y-10263D01*
X11392Y-10263D02*
X11506Y-10263D01*
X11449Y-10263D02*
X11449Y-10063D01*
X11468Y-10092D01*
X11487Y-10111D01*
X11506Y-10120D01*
X11221Y-10130D02*
X11221Y-10263D01*
X11306Y-10130D02*
X11306Y-10234D01*
X11297Y-10253D01*
X11278Y-10263D01*
X11249Y-10263D01*
X11230Y-10253D01*
X11221Y-10244D01*
X11154Y-10130D02*
X11078Y-10130D01*
X11125Y-10263D02*
X11125Y-10092D01*
X11116Y-10072D01*
X11097Y-10063D01*
X11078Y-10063D01*
X09495Y-09499D02*
X09476Y-09499D01*
X09457Y-09508D01*
X09448Y-09518D01*
X09438Y-09537D01*
X09429Y-09575D01*
X09429Y-09623D01*
X09438Y-09661D01*
X09448Y-09680D01*
X09457Y-09689D01*
X09476Y-09699D01*
X09495Y-09699D01*
X09514Y-09689D01*
X09524Y-09680D01*
X09533Y-09661D01*
X09543Y-09623D01*
X09543Y-09575D01*
X09533Y-09537D01*
X09524Y-09518D01*
X09514Y-09508D01*
X09495Y-09499D01*
X09343Y-09680D02*
X09334Y-09689D01*
X09343Y-09699D01*
X09353Y-09689D01*
X09343Y-09680D01*
X09343Y-09699D01*
X09144Y-09699D02*
X09258Y-09699D01*
X09201Y-09699D02*
X09201Y-09499D01*
X09220Y-09528D01*
X09239Y-09547D01*
X09258Y-09556D01*
X08973Y-09566D02*
X08973Y-09699D01*
X09058Y-09566D02*
X09058Y-09670D01*
X09049Y-09689D01*
X09030Y-09699D01*
X09001Y-09699D01*
X08982Y-09689D01*
X08973Y-09680D01*
X08906Y-09566D02*
X08830Y-09566D01*
X08877Y-09699D02*
X08877Y-09528D01*
X08868Y-09508D01*
X08849Y-09499D01*
X08830Y-09499D01*
X00696Y-15315D02*
X00696Y-15201D01*
X00696Y-15258D02*
X00496Y-15258D01*
X00525Y-15239D01*
X00544Y-15220D01*
X00553Y-15201D01*
X00496Y-15439D02*
X00496Y-15458D01*
X00505Y-15477D01*
X00515Y-15486D01*
X00534Y-15496D01*
X00572Y-15505D01*
X00620Y-15505D01*
X00658Y-15496D01*
X00677Y-15486D01*
X00686Y-15477D01*
X00696Y-15458D01*
X00696Y-15439D01*
X00686Y-15420D01*
X00677Y-15410D01*
X00658Y-15401D01*
X00620Y-15391D01*
X00572Y-15391D01*
X00534Y-15401D01*
X00515Y-15410D01*
X00505Y-15420D01*
X00496Y-15439D01*
X00563Y-15676D02*
X00696Y-15676D01*
X00563Y-15591D02*
X00667Y-15591D01*
X00686Y-15600D01*
X00696Y-15619D01*
X00696Y-15648D01*
X00686Y-15667D01*
X00677Y-15676D01*
X00563Y-15743D02*
X00563Y-15819D01*
X00696Y-15772D02*
X00525Y-15772D01*
X00505Y-15781D01*
X00496Y-15800D01*
X00496Y-15819D01*
X07385Y-08766D02*
X07499Y-08766D01*
X07442Y-08766D02*
X07442Y-08566D01*
X07461Y-08595D01*
X07480Y-08614D01*
X07499Y-08623D01*
X07261Y-08566D02*
X07242Y-08566D01*
X07223Y-08575D01*
X07214Y-08585D01*
X07204Y-08604D01*
X07195Y-08642D01*
X07195Y-08690D01*
X07204Y-08728D01*
X07214Y-08747D01*
X07223Y-08756D01*
X07242Y-08766D01*
X07261Y-08766D01*
X07280Y-08756D01*
X07290Y-08747D01*
X07299Y-08728D01*
X07309Y-08690D01*
X07309Y-08642D01*
X07299Y-08604D01*
X07290Y-08585D01*
X07280Y-08575D01*
X07261Y-08566D01*
X07024Y-08633D02*
X07024Y-08766D01*
X07109Y-08633D02*
X07109Y-08737D01*
X07100Y-08756D01*
X07081Y-08766D01*
X07052Y-08766D01*
X07033Y-08756D01*
X07024Y-08747D01*
X06957Y-08633D02*
X06881Y-08633D01*
X06928Y-08766D02*
X06928Y-08595D01*
X06919Y-08575D01*
X06900Y-08566D01*
X06881Y-08566D01*
X02485Y-08896D02*
X02599Y-08896D01*
X02542Y-08896D02*
X02542Y-08696D01*
X02561Y-08725D01*
X02580Y-08744D01*
X02599Y-08753D01*
X02361Y-08696D02*
X02342Y-08696D01*
X02323Y-08705D01*
X02314Y-08715D01*
X02304Y-08734D01*
X02295Y-08772D01*
X02295Y-08820D01*
X02304Y-08858D01*
X02314Y-08877D01*
X02323Y-08886D01*
X02342Y-08896D01*
X02361Y-08896D01*
X02380Y-08886D01*
X02390Y-08877D01*
X02399Y-08858D01*
X02409Y-08820D01*
X02409Y-08772D01*
X02399Y-08734D01*
X02390Y-08715D01*
X02380Y-08705D01*
X02361Y-08696D01*
X02124Y-08763D02*
X02124Y-08896D01*
X02209Y-08763D02*
X02209Y-08867D01*
X02200Y-08886D01*
X02181Y-08896D01*
X02152Y-08896D01*
X02133Y-08886D01*
X02124Y-08877D01*
X02057Y-08763D02*
X01981Y-08763D01*
X02028Y-08896D02*
X02028Y-08725D01*
X02019Y-08705D01*
X02000Y-08696D01*
X01981Y-08696D01*
X00166Y-10515D02*
X00166Y-10401D01*
X00166Y-10458D02*
X-00034Y-10458D01*
X-00005Y-10439D01*
X00014Y-10420D01*
X00023Y-10401D01*
X-00034Y-10639D02*
X-00034Y-10658D01*
X-00025Y-10677D01*
X-00015Y-10686D01*
X00004Y-10696D01*
X00042Y-10705D01*
X00090Y-10705D01*
X00128Y-10696D01*
X00147Y-10686D01*
X00156Y-10677D01*
X00166Y-10658D01*
X00166Y-10639D01*
X00156Y-10620D01*
X00147Y-10610D01*
X00128Y-10601D01*
X00090Y-10591D01*
X00042Y-10591D01*
X00004Y-10601D01*
X-00015Y-10610D01*
X-00025Y-10620D01*
X-00034Y-10639D01*
X00033Y-10876D02*
X00166Y-10876D01*
X00033Y-10791D02*
X00137Y-10791D01*
X00156Y-10800D01*
X00166Y-10819D01*
X00166Y-10848D01*
X00156Y-10867D01*
X00147Y-10876D01*
X00033Y-10943D02*
X00033Y-11019D01*
X00166Y-10972D02*
X-00005Y-10972D01*
X-00025Y-10981D01*
X-00034Y-11000D01*
X-00034Y-11019D01*
X07385Y-11196D02*
X07499Y-11196D01*
X07442Y-11196D02*
X07442Y-10996D01*
X07461Y-11025D01*
X07480Y-11044D01*
X07499Y-11053D01*
X07261Y-10996D02*
X07242Y-10996D01*
X07223Y-11005D01*
X07214Y-11015D01*
X07204Y-11034D01*
X07195Y-11072D01*
X07195Y-11120D01*
X07204Y-11158D01*
X07214Y-11177D01*
X07223Y-11186D01*
X07242Y-11196D01*
X07261Y-11196D01*
X07280Y-11186D01*
X07290Y-11177D01*
X07299Y-11158D01*
X07309Y-11120D01*
X07309Y-11072D01*
X07299Y-11034D01*
X07290Y-11015D01*
X07280Y-11005D01*
X07261Y-10996D01*
X07024Y-11063D02*
X07024Y-11196D01*
X07109Y-11063D02*
X07109Y-11167D01*
X07100Y-11186D01*
X07081Y-11196D01*
X07052Y-11196D01*
X07033Y-11186D01*
X07024Y-11177D01*
X06957Y-11063D02*
X06881Y-11063D01*
X06928Y-11196D02*
X06928Y-11025D01*
X06919Y-11005D01*
X06900Y-10996D01*
X06881Y-10996D01*
X04452Y-08085D02*
X04452Y-08180D01*
X04509Y-08066D02*
X04309Y-08133D01*
X04509Y-08199D01*
X04404Y-08332D02*
X04414Y-08361D01*
X04423Y-08370D01*
X04442Y-08380D01*
X04471Y-08380D01*
X04490Y-08370D01*
X04499Y-08361D01*
X04509Y-08342D01*
X04509Y-08266D01*
X04309Y-08266D01*
X04309Y-08332D01*
X04318Y-08351D01*
X04328Y-08361D01*
X04347Y-08370D01*
X04366Y-08370D01*
X04385Y-08361D01*
X04395Y-08351D01*
X04404Y-08332D01*
X04404Y-08266D01*
X04509Y-08466D02*
X04309Y-08466D01*
X04452Y-08532D01*
X04309Y-08599D01*
X04509Y-08599D01*
X04509Y-08799D02*
X04509Y-08685D01*
X04509Y-08742D02*
X04309Y-08742D01*
X04338Y-08723D01*
X04357Y-08704D01*
X04366Y-08685D01*
X04309Y-08923D02*
X04309Y-08942D01*
X04318Y-08961D01*
X04328Y-08970D01*
X04347Y-08980D01*
X04385Y-08989D01*
X04433Y-08989D01*
X04471Y-08980D01*
X04490Y-08970D01*
X04499Y-08961D01*
X04509Y-08942D01*
X04509Y-08923D01*
X04499Y-08904D01*
X04490Y-08894D01*
X04471Y-08885D01*
X04433Y-08875D01*
X04385Y-08875D01*
X04347Y-08885D01*
X04328Y-08894D01*
X04318Y-08904D01*
X04309Y-08923D01*
X04309Y-09056D02*
X04509Y-09189D01*
X04309Y-09189D02*
X04509Y-09056D01*
X04309Y-09236D02*
X04309Y-09350D01*
X04509Y-09293D02*
X04309Y-09293D01*
X04452Y-09407D02*
X04452Y-09502D01*
X04509Y-09388D02*
X04309Y-09455D01*
X04509Y-09521D01*
X04509Y-09683D02*
X04509Y-09588D01*
X04309Y-09588D01*
X04433Y-09750D02*
X04433Y-09902D01*
X04328Y-09988D02*
X04318Y-09998D01*
X04309Y-10017D01*
X04309Y-10064D01*
X04318Y-10083D01*
X04328Y-10093D01*
X04347Y-10102D01*
X04366Y-10102D01*
X04395Y-10093D01*
X04509Y-09979D01*
X04509Y-10102D01*
X04309Y-10283D02*
X04309Y-10188D01*
X04404Y-10178D01*
X04395Y-10188D01*
X04385Y-10207D01*
X04385Y-10254D01*
X04395Y-10273D01*
X04404Y-10283D01*
X04423Y-10292D01*
X04471Y-10292D01*
X04490Y-10283D01*
X04499Y-10273D01*
X04509Y-10254D01*
X04509Y-10207D01*
X04499Y-10188D01*
X04490Y-10178D01*
G54D14*
X-03857Y-13194D02*
X-03857Y-13480D01*
X-03685Y-13137D02*
X-04285Y-13337D01*
X-03685Y-13537D01*
X-04285Y-13737D02*
X-03799Y-13737D01*
X-03742Y-13765D01*
X-03714Y-13794D01*
X-03685Y-13851D01*
X-03685Y-13965D01*
X-03714Y-14023D01*
X-03742Y-14051D01*
X-03799Y-14080D01*
X-04285Y-14080D01*
X-03685Y-14366D02*
X-04285Y-14366D01*
X-04285Y-14509D01*
X-04257Y-14594D01*
X-04199Y-14652D01*
X-04142Y-14680D01*
X-04028Y-14709D01*
X-03942Y-14709D01*
X-03828Y-14680D01*
X-03771Y-14652D01*
X-03714Y-14594D01*
X-03685Y-14509D01*
X-03685Y-14366D01*
X-03685Y-14966D02*
X-04285Y-14966D01*
X-04285Y-15366D02*
X-04285Y-15480D01*
X-04257Y-15538D01*
X-04199Y-15595D01*
X-04085Y-15623D01*
X-03885Y-15623D01*
X-03771Y-15595D01*
X-03714Y-15538D01*
X-03685Y-15480D01*
X-03685Y-15366D01*
X-03714Y-15309D01*
X-03771Y-15252D01*
X-03885Y-15223D01*
X-04085Y-15223D01*
X-04199Y-15252D01*
X-04257Y-15309D01*
X-04285Y-15366D01*
X-03628Y-15738D02*
X-03628Y-16195D01*
X-04285Y-16509D02*
X-03857Y-16509D01*
X-03771Y-16481D01*
X-03714Y-16424D01*
X-03685Y-16338D01*
X-03685Y-16281D01*
X-03857Y-16766D02*
X-03857Y-17052D01*
X-03685Y-16709D02*
X-04285Y-16909D01*
X-03685Y-17109D01*
X-03742Y-17652D02*
X-03714Y-17623D01*
X-03685Y-17537D01*
X-03685Y-17480D01*
X-03714Y-17395D01*
X-03771Y-17337D01*
X-03828Y-17309D01*
X-03942Y-17280D01*
X-04028Y-17280D01*
X-04142Y-17309D01*
X-04199Y-17337D01*
X-04257Y-17395D01*
X-04285Y-17480D01*
X-04285Y-17537D01*
X-04257Y-17623D01*
X-04228Y-17652D01*
X-03685Y-17909D02*
X-04285Y-17909D01*
X-03685Y-18252D02*
X-04028Y-17995D01*
X-04285Y-18252D02*
X-03942Y-17909D01*
G54D13*
X12520Y00854D02*
X12530Y00845D01*
X12558Y00835D01*
X12577Y00835D01*
X12606Y00845D01*
X12625Y00864D01*
X12634Y00883D01*
X12644Y00921D01*
X12644Y00949D01*
X12634Y00987D01*
X12625Y01006D01*
X12606Y01026D01*
X12577Y01035D01*
X12558Y01035D01*
X12530Y01026D01*
X12520Y01016D01*
X12330Y00835D02*
X12444Y00835D01*
X12387Y00835D02*
X12387Y01035D01*
X12406Y01006D01*
X12425Y00987D01*
X12444Y00978D01*
X12159Y00968D02*
X12159Y00835D01*
X12206Y01045D02*
X12254Y00902D01*
X12130Y00902D01*
X11969Y01035D02*
X12007Y01035D01*
X12026Y01026D01*
X12035Y01016D01*
X12054Y00987D01*
X12064Y00949D01*
X12064Y00873D01*
X12054Y00854D01*
X12045Y00845D01*
X12026Y00835D01*
X11988Y00835D01*
X11969Y00845D01*
X11959Y00854D01*
X11950Y00873D01*
X11950Y00921D01*
X11959Y00940D01*
X11969Y00949D01*
X11988Y00959D01*
X12026Y00959D01*
X12045Y00949D01*
X12054Y00940D01*
X12064Y00921D01*
X12634Y00383D02*
X12615Y00383D01*
X12596Y00374D01*
X12587Y00364D01*
X12577Y00345D01*
X12568Y00307D01*
X12568Y00259D01*
X12577Y00221D01*
X12587Y00202D01*
X12596Y00193D01*
X12615Y00183D01*
X12634Y00183D01*
X12653Y00193D01*
X12663Y00202D01*
X12672Y00221D01*
X12682Y00259D01*
X12682Y00307D01*
X12672Y00345D01*
X12663Y00364D01*
X12653Y00374D01*
X12634Y00383D01*
X12482Y00202D02*
X12473Y00193D01*
X12482Y00183D01*
X12492Y00193D01*
X12482Y00202D01*
X12482Y00183D01*
X12283Y00183D02*
X12397Y00183D01*
X12340Y00183D02*
X12340Y00383D01*
X12359Y00354D01*
X12378Y00335D01*
X12397Y00326D01*
X12112Y00316D02*
X12112Y00183D01*
X12197Y00316D02*
X12197Y00212D01*
X12188Y00193D01*
X12169Y00183D01*
X12140Y00183D01*
X12121Y00193D01*
X12112Y00202D01*
X12045Y00316D02*
X11969Y00316D01*
X12016Y00183D02*
X12016Y00354D01*
X12007Y00374D01*
X11988Y00383D01*
X11969Y00383D01*
M02*
