G04 (created by PCBNEW-RS274X (2010-03-14)-final) date Thu 07 Oct 2010 02:34:07 PM EDT*
G01*
G70*
G90*
%MOIN*%
G04 Gerber Fmt 3.4, Leading zero omitted, Abs format*
%FSLAX34Y34*%
G04 APERTURE LIST*
%ADD10C,0.001000*%
%ADD11C,0.015000*%
G04 APERTURE END LIST*
G54D10*
G54D11*
X-43000Y31358D02*
X-41858Y32500D01*
X-43000Y31358D02*
X-43000Y-02000D01*
X-42000Y-03000D02*
X-43000Y-02000D01*
X-19500Y-03000D02*
X-42000Y-03000D01*
X-17364Y-05178D02*
X-19500Y-03000D01*
X17248Y-05150D02*
X-17364Y-05178D01*
X17248Y-05150D02*
X18176Y-04052D01*
X18176Y-04052D02*
X18176Y03176D01*
X18176Y03176D02*
X18473Y03473D01*
X24473Y03473D02*
X18473Y03473D01*
X24848Y03848D02*
X24473Y03473D01*
X24848Y09652D02*
X24848Y03848D01*
X24366Y10134D02*
X24848Y09652D01*
X18366Y10134D02*
X24366Y10134D01*
X18366Y10134D02*
X18000Y10500D01*
X18000Y11000D02*
X18000Y10500D01*
X18320Y11320D02*
X18000Y11000D01*
X30820Y11320D02*
X18320Y11320D01*
X31883Y12383D02*
X30820Y11320D01*
X31883Y17615D02*
X31883Y12383D01*
X30646Y18853D02*
X31883Y17615D01*
X26460Y18853D02*
X30646Y18853D01*
X21500Y17881D02*
X21500Y19313D01*
X21039Y17419D02*
X21500Y17881D01*
X21039Y17419D02*
X18916Y17419D01*
X17833Y18502D02*
X18916Y17419D01*
X17833Y21035D02*
X17833Y18502D01*
X18205Y21478D02*
X27000Y21479D01*
X27000Y27744D02*
X27000Y21479D01*
X18229Y27744D02*
X27000Y27744D01*
X18229Y27744D02*
X18229Y31719D01*
X18229Y31719D02*
X17448Y32500D01*
X-41858Y32500D02*
X17448Y32500D01*
X18205Y21478D02*
X17833Y21035D01*
X26460Y18853D02*
X26037Y19305D01*
X26037Y19305D02*
X21500Y19313D01*
M02*
