G04 (created by PCBNEW-RS274X (2010-03-14)-final) date Mon 05 Jul 2010 03:41:04 PM EDT*
G01*
G70*
G90*
%MOIN*%
G04 Gerber Fmt 3.4, Leading zero omitted, Abs format*
%FSLAX34Y34*%
G04 APERTURE LIST*
%ADD10C,0.001000*%
%ADD11R,0.023600X0.019700*%
%ADD12R,0.019700X0.023600*%
%ADD13R,0.035400X0.023600*%
%ADD14R,0.023600X0.035400*%
%ADD15R,0.049200X0.082700*%
%ADD16C,0.063000*%
%ADD17R,0.031500X0.035400*%
%ADD18C,0.140000*%
%ADD19C,0.066900*%
%ADD20C,0.129900*%
%ADD21C,0.060000*%
%ADD22C,0.016000*%
%ADD23R,0.043300X0.047200*%
%ADD24R,0.030000X0.014500*%
%ADD25R,0.031500X0.010200*%
%ADD26R,0.029500X0.118100*%
%ADD27R,0.009800X0.025600*%
%ADD28R,0.025600X0.009800*%
%ADD29R,0.031500X0.031500*%
%ADD30R,0.023600X0.016500*%
%ADD31R,0.027600X0.031500*%
%ADD32R,0.023600X0.015700*%
%ADD33R,0.015700X0.023600*%
%ADD34R,0.019700X0.019700*%
%ADD35R,0.042000X0.023600*%
%ADD36R,0.027600X0.009800*%
%ADD37R,0.009800X0.027600*%
%ADD38R,0.039400X0.013800*%
%ADD39R,0.013800X0.051200*%
%ADD40C,0.019000*%
%ADD41C,0.025000*%
%ADD42C,0.018000*%
%ADD43C,0.005000*%
%ADD44C,0.010000*%
%ADD45C,0.015000*%
%ADD46C,0.025000*%
G04 APERTURE END LIST*
G54D10*
G54D11*
X24500Y-32497D03*
X24500Y-32103D03*
X26100Y-32103D03*
X26100Y-32497D03*
X26500Y-32497D03*
X26500Y-32103D03*
X26900Y-32103D03*
X26900Y-32497D03*
X27300Y-31103D03*
X27300Y-31497D03*
X26900Y-31497D03*
X26900Y-31103D03*
X26500Y-31103D03*
X26500Y-31497D03*
X24900Y-31203D03*
X24900Y-31597D03*
X27600Y-28397D03*
X27600Y-28003D03*
X25900Y-30797D03*
X25900Y-30403D03*
G54D12*
X26603Y-27300D03*
X26997Y-27300D03*
G54D11*
X26700Y-30403D03*
X26700Y-30797D03*
X27100Y-30403D03*
X27100Y-30797D03*
X26300Y-30403D03*
X26300Y-30797D03*
G54D12*
X28303Y-30100D03*
X28697Y-30100D03*
G54D11*
X28000Y-28003D03*
X28000Y-28397D03*
G54D12*
X34203Y-31700D03*
X34597Y-31700D03*
X34597Y-30100D03*
X34203Y-30100D03*
G54D11*
X27350Y-27003D03*
X27350Y-27397D03*
G54D12*
X24797Y-19900D03*
X24403Y-19900D03*
X24403Y-18400D03*
X24797Y-18400D03*
G54D11*
X24400Y-22403D03*
X24400Y-22797D03*
G54D12*
X40203Y-32700D03*
X40597Y-32700D03*
X39503Y-32700D03*
X39897Y-32700D03*
X40597Y-30750D03*
X40203Y-30750D03*
X39897Y-30750D03*
X39503Y-30750D03*
X40203Y-30350D03*
X40597Y-30350D03*
G54D11*
X38800Y-31797D03*
X38800Y-31403D03*
X27700Y-31897D03*
X27700Y-31503D03*
X28200Y-31797D03*
X28200Y-31403D03*
X33700Y-16297D03*
X33700Y-15903D03*
G54D12*
X37203Y-16700D03*
X37597Y-16700D03*
X37203Y-16300D03*
X37597Y-16300D03*
X37203Y-18100D03*
X37597Y-18100D03*
X35903Y-18200D03*
X36297Y-18200D03*
X35297Y-18200D03*
X34903Y-18200D03*
G54D11*
X37800Y-15297D03*
X37800Y-14903D03*
G54D12*
X35703Y-14100D03*
X36097Y-14100D03*
X41097Y-20750D03*
X40703Y-20750D03*
X41097Y-21750D03*
X40703Y-21750D03*
X41097Y-22750D03*
X40703Y-22750D03*
X41097Y-23750D03*
X40703Y-23750D03*
X50197Y-29200D03*
X49803Y-29200D03*
X49803Y-28300D03*
X50197Y-28300D03*
G54D11*
X46600Y-29597D03*
X46600Y-29203D03*
G54D12*
X50197Y-29600D03*
X49803Y-29600D03*
X50197Y-28800D03*
X49803Y-28800D03*
X38703Y-32700D03*
X39097Y-32700D03*
X41097Y-24750D03*
X40703Y-24750D03*
X41097Y-25750D03*
X40703Y-25750D03*
X41097Y-26750D03*
X40703Y-26750D03*
X41097Y-27750D03*
X40703Y-27750D03*
G54D11*
X33500Y-16803D03*
X33500Y-17197D03*
G54D12*
X32603Y-16400D03*
X32997Y-16400D03*
G54D11*
X32900Y-26703D03*
X32900Y-27097D03*
X31300Y-26703D03*
X31300Y-27097D03*
X31700Y-26703D03*
X31700Y-27097D03*
X32500Y-26703D03*
X32500Y-27097D03*
X29100Y-22203D03*
X29100Y-22597D03*
G54D12*
X45097Y-27750D03*
X44703Y-27750D03*
X45097Y-26750D03*
X44703Y-26750D03*
X45097Y-25750D03*
X44703Y-25750D03*
X45097Y-24750D03*
X44703Y-24750D03*
X45097Y-23750D03*
X44703Y-23750D03*
X45097Y-22750D03*
X44703Y-22750D03*
X45097Y-21750D03*
X44703Y-21750D03*
X45097Y-20750D03*
X44703Y-20750D03*
G54D11*
X34000Y-27097D03*
X34000Y-26703D03*
X34000Y-27797D03*
X34000Y-27403D03*
X34000Y-28797D03*
X34000Y-28403D03*
G54D13*
X43200Y-31395D03*
X43200Y-30805D03*
X43200Y-32005D03*
X43200Y-32595D03*
X38300Y-31305D03*
X38300Y-31895D03*
G54D14*
X34105Y-29600D03*
X34695Y-29600D03*
X39605Y-20750D03*
X40195Y-20750D03*
X39605Y-21750D03*
X40195Y-21750D03*
X39605Y-22750D03*
X40195Y-22750D03*
X39605Y-23750D03*
X40195Y-23750D03*
X39605Y-24750D03*
X40195Y-24750D03*
X39605Y-25750D03*
X40195Y-25750D03*
X39605Y-26750D03*
X40195Y-26750D03*
X39605Y-27750D03*
X40195Y-27750D03*
X43605Y-27750D03*
X44195Y-27750D03*
X43605Y-26750D03*
X44195Y-26750D03*
X43605Y-25750D03*
X44195Y-25750D03*
X43605Y-24750D03*
X44195Y-24750D03*
X43605Y-23750D03*
X44195Y-23750D03*
X43605Y-22750D03*
X44195Y-22750D03*
X43605Y-21750D03*
X44195Y-21750D03*
X43605Y-20750D03*
X44195Y-20750D03*
G54D15*
X41300Y-31000D03*
X42500Y-31000D03*
X41300Y-32400D03*
X42500Y-32400D03*
G54D16*
X37400Y-31100D03*
X37400Y-32100D03*
X42100Y-29800D03*
X43100Y-29800D03*
X42100Y-33500D03*
X43100Y-33500D03*
X39000Y-29900D03*
X38000Y-29900D03*
X39300Y-33500D03*
X38300Y-33500D03*
X22600Y-18400D03*
X23600Y-18400D03*
X22600Y-19400D03*
X23600Y-19400D03*
X22600Y-20400D03*
X23600Y-20400D03*
X22600Y-21400D03*
X23600Y-21400D03*
X22600Y-22400D03*
X23600Y-22400D03*
X22600Y-23400D03*
X23600Y-23400D03*
X22600Y-24400D03*
X23600Y-24400D03*
G54D17*
X34646Y-31225D03*
X34646Y-30575D03*
X34154Y-30575D03*
X34154Y-31225D03*
G54D18*
X47400Y-26120D03*
G54D19*
X46841Y-23394D03*
X46841Y-22303D03*
X46841Y-21213D03*
X46841Y-20122D03*
X46841Y-19031D03*
X47959Y-22848D03*
X47959Y-21758D03*
X47959Y-20667D03*
X47959Y-19577D03*
G54D18*
X47400Y-16281D03*
G54D20*
X44341Y-17240D03*
X39459Y-17240D03*
G54D16*
X42463Y-18307D03*
X42463Y-19094D03*
X41479Y-19094D03*
X41479Y-18307D03*
G54D21*
X49650Y-32800D03*
X49650Y-31800D03*
X49650Y-30800D03*
X47150Y-30800D03*
X47150Y-32800D03*
G54D22*
X33447Y-27653D03*
X33447Y-27968D03*
X33447Y-28283D03*
X33447Y-28598D03*
X33447Y-28913D03*
X33447Y-29228D03*
X33447Y-29543D03*
X33447Y-29858D03*
X33447Y-30173D03*
X33447Y-30488D03*
X33447Y-30803D03*
X33447Y-31118D03*
X33447Y-31433D03*
X33447Y-31747D03*
X33132Y-27653D03*
X33132Y-27968D03*
X33132Y-28283D03*
X33132Y-28598D03*
X33132Y-28913D03*
X33132Y-29228D03*
X33132Y-29543D03*
X33132Y-29858D03*
X33132Y-30173D03*
X33132Y-30488D03*
X33132Y-30803D03*
X33132Y-31118D03*
X33132Y-31433D03*
X33132Y-31747D03*
X32817Y-27653D03*
X32817Y-27968D03*
X32817Y-28283D03*
X32817Y-28598D03*
X32817Y-28913D03*
X32817Y-29228D03*
X32817Y-29543D03*
X32817Y-29858D03*
X32817Y-30173D03*
X32817Y-30488D03*
X32817Y-30803D03*
X32817Y-31118D03*
X32817Y-31433D03*
X32817Y-31747D03*
X32502Y-27653D03*
X32502Y-27968D03*
X32502Y-28283D03*
X32502Y-28598D03*
X32502Y-28913D03*
X32502Y-29228D03*
X32502Y-29543D03*
X32502Y-29858D03*
X32502Y-30173D03*
X32502Y-30488D03*
X32502Y-30803D03*
X32502Y-31118D03*
X32502Y-31433D03*
X32502Y-31747D03*
X32187Y-27653D03*
X32187Y-27968D03*
X32187Y-28283D03*
X32187Y-28598D03*
X32187Y-30803D03*
X32187Y-31118D03*
X32187Y-31433D03*
X32187Y-31747D03*
X31872Y-27653D03*
X31872Y-27968D03*
X31872Y-28283D03*
X31872Y-28598D03*
X31872Y-30803D03*
X31872Y-31118D03*
X31872Y-31433D03*
X31872Y-31747D03*
X31557Y-27653D03*
X31557Y-27968D03*
X31557Y-28283D03*
X31557Y-28598D03*
X31557Y-30803D03*
X31557Y-31118D03*
X31557Y-31433D03*
X31557Y-31747D03*
X31242Y-27653D03*
X31242Y-27968D03*
X31242Y-28283D03*
X31242Y-28598D03*
X31242Y-30803D03*
X31242Y-31118D03*
X31242Y-31433D03*
X31242Y-31747D03*
X30927Y-27653D03*
X30927Y-27968D03*
X30927Y-28283D03*
X30927Y-28598D03*
X30927Y-30803D03*
X30927Y-31118D03*
X30927Y-31433D03*
X30927Y-31747D03*
X30612Y-27653D03*
X30612Y-27968D03*
X30612Y-28283D03*
X30612Y-28598D03*
X30612Y-30803D03*
X30612Y-31118D03*
X30612Y-31433D03*
X30612Y-31747D03*
X30297Y-27653D03*
X30297Y-27968D03*
X30297Y-28283D03*
X30297Y-28598D03*
X30297Y-28913D03*
X30297Y-29228D03*
X30297Y-29543D03*
X30297Y-29858D03*
X30297Y-30173D03*
X30297Y-30488D03*
X30297Y-30803D03*
X30297Y-31118D03*
X30297Y-31433D03*
X30297Y-31747D03*
X29982Y-27653D03*
X29982Y-27968D03*
X29982Y-28283D03*
X29982Y-28598D03*
X29982Y-28913D03*
X29982Y-29228D03*
X29982Y-29543D03*
X29982Y-29858D03*
X29982Y-30173D03*
X29982Y-30488D03*
X29982Y-30803D03*
X29982Y-31118D03*
X29982Y-31433D03*
X29982Y-31747D03*
X29667Y-27653D03*
X29667Y-27968D03*
X29667Y-28283D03*
X29667Y-28598D03*
X29667Y-28913D03*
X29667Y-29228D03*
X29667Y-29543D03*
X29667Y-29858D03*
X29667Y-30173D03*
X29667Y-30488D03*
X29667Y-30803D03*
X29667Y-31118D03*
X29667Y-31433D03*
X29667Y-31747D03*
X29353Y-27653D03*
X29353Y-27968D03*
X29353Y-28283D03*
X29353Y-28598D03*
X29353Y-28913D03*
X29353Y-29228D03*
X29353Y-29543D03*
X29353Y-29858D03*
X29353Y-30173D03*
X29353Y-30488D03*
X29353Y-30803D03*
X29353Y-31118D03*
X29353Y-31433D03*
X29353Y-31747D03*
G54D23*
X37215Y-14933D03*
X37215Y-14067D03*
X36585Y-14067D03*
X36585Y-14933D03*
G54D24*
X23450Y-27775D03*
X23450Y-28025D03*
X23450Y-28275D03*
X23450Y-28525D03*
X23450Y-28775D03*
X23450Y-29025D03*
X23450Y-29275D03*
X23450Y-29525D03*
X23450Y-29775D03*
X23450Y-30025D03*
X23450Y-30275D03*
X23450Y-30525D03*
X23450Y-30775D03*
X23450Y-31025D03*
X23450Y-31275D03*
X23450Y-31525D03*
X23450Y-31775D03*
X23450Y-32025D03*
X23950Y-27775D03*
X23950Y-28025D03*
X23950Y-28275D03*
X23950Y-28525D03*
X23950Y-28775D03*
X23950Y-29025D03*
X23950Y-29275D03*
X23950Y-29525D03*
X23950Y-29775D03*
X23950Y-30025D03*
X23950Y-30275D03*
X23950Y-30525D03*
X23950Y-30775D03*
X23950Y-31025D03*
X23950Y-31275D03*
X23950Y-31525D03*
X23950Y-31775D03*
X23950Y-32025D03*
G54D25*
X39409Y-31306D03*
X39409Y-31503D03*
X39409Y-31700D03*
X39409Y-31897D03*
X39409Y-32094D03*
X40591Y-32094D03*
X40591Y-31897D03*
X40591Y-31700D03*
X40591Y-31503D03*
X40591Y-31306D03*
G54D26*
X40000Y-31700D03*
G54D27*
X25114Y-30052D03*
X25311Y-30052D03*
X25508Y-30052D03*
X25705Y-30052D03*
X25902Y-30052D03*
X26098Y-30052D03*
X26295Y-30052D03*
X26492Y-30052D03*
X26689Y-30052D03*
X26886Y-30052D03*
X26886Y-27748D03*
X26689Y-27748D03*
X26492Y-27748D03*
X26295Y-27748D03*
X26098Y-27748D03*
X25902Y-27748D03*
X25705Y-27748D03*
X25508Y-27748D03*
X25311Y-27748D03*
X25114Y-27748D03*
G54D28*
X27152Y-29786D03*
X27152Y-29589D03*
X27152Y-29392D03*
X27152Y-29195D03*
X27152Y-28998D03*
X27152Y-28802D03*
X27152Y-28605D03*
X27152Y-28408D03*
X27152Y-28211D03*
X27152Y-28014D03*
X24848Y-28014D03*
X24848Y-28211D03*
X24848Y-28408D03*
X24848Y-28605D03*
X24848Y-28802D03*
X24848Y-28998D03*
X24848Y-29195D03*
X24848Y-29392D03*
X24848Y-29589D03*
X24848Y-29786D03*
G54D29*
X26000Y-28900D03*
G54D30*
X28484Y-27464D03*
G54D31*
X28484Y-27011D03*
G54D30*
X27696Y-26952D03*
X27696Y-27464D03*
G54D32*
X25674Y-32556D03*
X25674Y-32300D03*
X25674Y-32044D03*
X24926Y-32044D03*
X24926Y-32556D03*
X26074Y-31656D03*
X26074Y-31400D03*
X26074Y-31144D03*
X25326Y-31144D03*
X25326Y-31656D03*
G54D33*
X32544Y-17574D03*
X32800Y-17574D03*
X33056Y-17574D03*
X33056Y-16826D03*
X32544Y-16826D03*
G54D34*
X37785Y-17700D03*
X37215Y-17700D03*
X37785Y-17100D03*
X37215Y-17100D03*
X37785Y-15900D03*
X37215Y-15900D03*
G54D35*
X27588Y-28826D03*
X27588Y-29200D03*
X27588Y-29574D03*
X28612Y-29574D03*
X28612Y-29200D03*
X28612Y-28826D03*
G54D16*
X38650Y-22750D03*
X38650Y-21750D03*
X38650Y-20750D03*
X38650Y-23750D03*
X38650Y-24750D03*
X38650Y-25750D03*
X38650Y-26750D03*
X38650Y-27750D03*
X42650Y-20750D03*
X42650Y-21750D03*
X42650Y-22750D03*
X42650Y-23750D03*
X42650Y-24750D03*
X42650Y-25750D03*
X42650Y-26750D03*
X42650Y-27750D03*
X26200Y-33200D03*
X36800Y-26800D03*
X36800Y-27800D03*
X25400Y-33200D03*
X24300Y-33200D03*
X35600Y-24500D03*
X34500Y-26800D03*
X34500Y-27800D03*
X34500Y-28800D03*
X36800Y-25800D03*
X36800Y-24800D03*
X36800Y-23800D03*
G54D36*
X34120Y-16402D03*
X34120Y-16598D03*
X34120Y-16795D03*
X34120Y-16992D03*
X34120Y-17189D03*
X36680Y-17189D03*
X36679Y-16992D03*
X36679Y-16795D03*
X36679Y-16598D03*
X36679Y-16402D03*
X36679Y-16205D03*
X36679Y-16008D03*
X36679Y-15811D03*
G54D37*
X34711Y-17780D03*
X34908Y-17780D03*
X35105Y-17780D03*
X35302Y-17780D03*
X35498Y-17780D03*
X35695Y-17780D03*
X35892Y-17780D03*
X36089Y-17780D03*
X36089Y-15220D03*
X35892Y-15220D03*
X35695Y-15220D03*
X35498Y-15220D03*
X35302Y-15220D03*
X35105Y-15220D03*
X34908Y-15220D03*
X34711Y-15220D03*
G54D36*
X34120Y-15811D03*
X34120Y-16008D03*
X34120Y-16205D03*
G54D38*
X49302Y-28828D03*
X49302Y-28572D03*
X49302Y-28316D03*
X49302Y-28060D03*
X49302Y-27804D03*
X47098Y-27804D03*
X47098Y-28060D03*
X47098Y-28316D03*
X47098Y-28572D03*
X47098Y-28828D03*
X47098Y-29084D03*
X47098Y-29340D03*
X47098Y-29596D03*
X49302Y-29084D03*
X49302Y-29340D03*
X49302Y-29596D03*
G54D39*
X28652Y-20431D03*
X28396Y-20431D03*
X28140Y-20431D03*
X27884Y-20431D03*
X27628Y-20431D03*
X27372Y-20431D03*
X27116Y-20431D03*
X26860Y-20431D03*
X26604Y-20431D03*
X26348Y-20431D03*
X26348Y-22769D03*
X26604Y-22769D03*
X26860Y-22769D03*
X27116Y-22769D03*
X27372Y-22769D03*
X27628Y-22769D03*
X27884Y-22769D03*
X28140Y-22769D03*
X28396Y-22769D03*
X28652Y-22769D03*
X33148Y-22769D03*
X33404Y-22769D03*
X33660Y-22769D03*
X33916Y-22769D03*
X34172Y-22769D03*
X34428Y-22769D03*
X34684Y-22769D03*
X34940Y-22769D03*
X35196Y-22769D03*
X35452Y-22769D03*
X35452Y-20431D03*
X35196Y-20431D03*
X34940Y-20431D03*
X34684Y-20431D03*
X34428Y-20431D03*
X34172Y-20431D03*
X33916Y-20431D03*
X33660Y-20431D03*
X33404Y-20431D03*
X33148Y-20431D03*
X30048Y-22769D03*
X30304Y-22769D03*
X30560Y-22769D03*
X30816Y-22769D03*
X31072Y-22769D03*
X31328Y-22769D03*
X31584Y-22769D03*
X31840Y-22769D03*
X32096Y-22769D03*
X32352Y-22769D03*
X32352Y-20431D03*
X32096Y-20431D03*
X31840Y-20431D03*
X31584Y-20431D03*
X31328Y-20431D03*
X31072Y-20431D03*
X30816Y-20431D03*
X30560Y-20431D03*
X30304Y-20431D03*
X30048Y-20431D03*
G54D16*
X27000Y-33200D03*
X36900Y-28900D03*
X34400Y-32300D03*
G54D11*
X46400Y-28597D03*
X46400Y-28203D03*
G54D12*
X30003Y-23600D03*
X30397Y-23600D03*
G54D16*
X31400Y-16000D03*
X30400Y-16000D03*
X29400Y-16000D03*
X28400Y-16000D03*
X27400Y-16000D03*
X26400Y-16000D03*
X25400Y-16000D03*
G54D11*
X32100Y-17597D03*
X32100Y-17203D03*
G54D12*
X28897Y-30500D03*
X28503Y-30500D03*
G54D40*
X26996Y-24500D03*
G54D41*
X30753Y-21818D03*
X34384Y-22193D03*
X31264Y-21887D03*
X29893Y-23958D03*
G54D42*
X28708Y-28272D03*
X31406Y-28135D03*
X28695Y-29852D03*
X31723Y-28436D03*
G54D41*
X31982Y-23322D03*
G54D42*
X31232Y-27399D03*
X34258Y-28232D03*
X29511Y-28753D03*
X28882Y-27013D03*
X32038Y-28116D03*
G54D40*
X27281Y-24529D03*
G54D41*
X29509Y-22980D03*
X27619Y-20867D03*
X29385Y-21086D03*
G54D40*
X25436Y-30893D03*
X32894Y-26535D03*
X28803Y-27761D03*
X26744Y-24471D03*
X27881Y-23193D03*
G54D41*
X30184Y-22283D03*
G54D42*
X27930Y-29407D03*
X32346Y-28121D03*
G54D41*
X33395Y-23296D03*
G54D42*
X28151Y-29573D03*
X32862Y-27443D03*
G54D41*
X33680Y-23894D03*
G54D42*
X32074Y-26535D03*
X33916Y-22312D03*
G54D40*
X28140Y-22334D03*
G54D42*
X29151Y-30049D03*
X32967Y-28432D03*
G54D41*
X33986Y-23506D03*
G54D42*
X33440Y-26819D03*
G54D41*
X36284Y-16994D03*
X34240Y-24172D03*
G54D42*
X33559Y-27016D03*
G54D41*
X36664Y-17414D03*
X34516Y-23908D03*
X34672Y-22293D03*
G54D42*
X33283Y-28128D03*
G54D41*
X35609Y-18212D03*
X34969Y-22208D03*
G54D40*
X25958Y-28519D03*
G54D42*
X32984Y-28742D03*
G54D41*
X34906Y-23338D03*
G54D42*
X28309Y-27192D03*
X32963Y-30347D03*
G54D41*
X31070Y-23777D03*
X31872Y-21787D03*
G54D40*
X28272Y-28842D03*
G54D42*
X31109Y-26810D03*
G54D41*
X29622Y-24379D03*
X31576Y-21839D03*
X29519Y-23592D03*
X31009Y-21487D03*
G54D42*
X32521Y-26524D03*
X25653Y-31497D03*
X28800Y-27526D03*
G54D41*
X30776Y-22247D03*
G54D40*
X27596Y-24659D03*
X27644Y-23693D03*
G54D42*
X29077Y-29833D03*
G54D41*
X25395Y-23400D03*
G54D42*
X31106Y-28415D03*
X32046Y-27215D03*
G54D40*
X34002Y-26525D03*
G54D42*
X30864Y-27253D03*
X34224Y-27380D03*
G54D40*
X23164Y-31767D03*
X23139Y-29536D03*
X23148Y-29271D03*
X23150Y-29028D03*
X23148Y-28782D03*
X23147Y-28528D03*
X23145Y-28273D03*
X23144Y-28028D03*
X23163Y-31520D03*
X23162Y-31273D03*
X23160Y-31023D03*
X23159Y-30774D03*
X23158Y-30527D03*
X23156Y-30274D03*
X23155Y-30033D03*
X23146Y-29778D03*
X28279Y-28063D03*
G54D42*
X31914Y-26702D03*
G54D41*
X31421Y-24001D03*
X31661Y-22331D03*
G54D40*
X26732Y-29094D03*
X27434Y-28535D03*
X25112Y-31630D03*
X25638Y-30669D03*
X24798Y-27255D03*
X26970Y-27536D03*
X24726Y-32043D03*
G54D42*
X25983Y-29718D03*
G54D40*
X25676Y-28792D03*
G54D42*
X33645Y-27960D03*
G54D40*
X27109Y-29981D03*
X25984Y-29393D03*
X27996Y-27791D03*
X27602Y-27775D03*
X26490Y-28412D03*
X25151Y-28035D03*
X26430Y-27005D03*
X24776Y-26999D03*
X27331Y-30795D03*
X25322Y-30548D03*
X25759Y-30940D03*
X24900Y-31001D03*
X24228Y-32543D03*
X23455Y-32226D03*
X25893Y-32074D03*
X26902Y-31906D03*
X27898Y-31138D03*
G54D42*
X29153Y-30407D03*
X28031Y-31951D03*
X30132Y-30603D03*
X30497Y-30589D03*
X31398Y-30643D03*
X31722Y-30643D03*
X32658Y-30661D03*
X33002Y-30661D03*
X33662Y-30482D03*
X32292Y-29713D03*
X32673Y-28738D03*
X31893Y-28774D03*
X31247Y-28777D03*
X30449Y-28784D03*
X30135Y-28753D03*
X30477Y-29190D03*
X30469Y-29869D03*
X33649Y-31748D03*
X28464Y-27673D03*
X33796Y-28185D03*
X29211Y-31750D03*
X30772Y-31591D03*
X31747Y-29896D03*
X31254Y-29897D03*
X31003Y-29409D03*
X31429Y-29399D03*
X32655Y-30944D03*
G54D41*
X46702Y-27821D03*
X46340Y-29209D03*
X38039Y-15901D03*
X37799Y-17387D03*
X35709Y-14405D03*
X36587Y-15278D03*
X37639Y-14125D03*
X37794Y-15502D03*
X33706Y-16504D03*
X33506Y-17408D03*
X32088Y-16950D03*
X32799Y-17812D03*
X33245Y-16394D03*
X36353Y-16676D03*
X35147Y-16586D03*
G54D42*
X34616Y-30305D03*
X34175Y-31487D03*
G54D41*
X40152Y-32338D03*
X40148Y-31065D03*
X39866Y-32338D03*
X39862Y-31061D03*
X39300Y-30748D03*
X38798Y-31139D03*
X38305Y-31021D03*
X43517Y-31396D03*
X43517Y-32005D03*
X43200Y-31694D03*
X41097Y-27300D03*
X41097Y-21243D03*
X45097Y-21236D03*
X45030Y-27269D03*
G54D40*
X23452Y-27567D03*
G54D41*
X26108Y-20429D03*
X29100Y-21958D03*
X29804Y-22793D03*
X30346Y-20000D03*
X33426Y-20849D03*
X32723Y-22769D03*
G54D42*
X34653Y-29889D03*
X28601Y-30818D03*
X28273Y-30495D03*
X27987Y-29778D03*
X25393Y-29721D03*
G54D41*
X24395Y-23098D03*
X27903Y-32565D03*
X27688Y-32797D03*
X37821Y-18097D03*
X34633Y-18197D03*
X50391Y-29199D03*
X50389Y-28299D03*
G54D42*
X25704Y-29752D03*
X25582Y-28052D03*
X27392Y-29320D03*
G54D41*
X35450Y-23197D03*
X46345Y-29719D03*
X32574Y-16611D03*
X36355Y-15998D03*
X32571Y-16080D03*
X39074Y-18642D03*
X38632Y-18582D03*
G54D42*
X27965Y-31450D03*
G54D41*
X29815Y-23599D03*
X31293Y-21586D03*
G54D42*
X32357Y-31606D03*
X40986Y-31697D03*
G54D41*
X38585Y-31844D03*
X27384Y-21075D03*
G54D40*
X26487Y-24442D03*
X28409Y-23149D03*
G54D42*
X33291Y-30955D03*
X30476Y-30200D03*
X30926Y-30616D03*
X32182Y-30609D03*
X32294Y-29227D03*
X32187Y-28780D03*
X30445Y-28448D03*
X32043Y-29393D03*
G54D40*
X27098Y-31497D03*
G54D42*
X26303Y-32717D03*
X24598Y-31518D03*
X27885Y-27566D03*
X28005Y-29155D03*
X30452Y-30954D03*
X31080Y-31272D03*
X31712Y-31274D03*
X32667Y-31269D03*
X32661Y-30018D03*
X32668Y-29695D03*
X32662Y-29071D03*
X31556Y-28783D03*
X30924Y-28773D03*
X30480Y-29533D03*
X29823Y-28758D03*
X29508Y-28125D03*
X33586Y-27517D03*
X29356Y-27455D03*
G54D41*
X33702Y-15695D03*
X28908Y-22772D03*
X28908Y-22772D03*
X30040Y-19996D03*
X33123Y-20849D03*
G54D42*
X33859Y-29595D03*
X24797Y-18698D03*
G54D41*
X24790Y-20195D03*
X24797Y-18698D03*
X31636Y-23574D03*
X32099Y-17870D03*
X32354Y-17865D03*
G54D43*
X35297Y-18173D02*
X35135Y-18438D01*
X35135Y-18438D02*
X34188Y-18538D01*
X34188Y-18538D02*
X32347Y-18756D01*
X32347Y-18756D02*
X29913Y-19825D01*
X29803Y-19992D02*
X29758Y-20577D01*
X29758Y-20577D02*
X29956Y-20836D01*
X30753Y-21818D02*
X29956Y-20836D01*
X29913Y-19825D02*
X29803Y-19992D01*
X28533Y-27041D02*
X28927Y-26397D01*
X28927Y-26397D02*
X28977Y-25362D01*
X28977Y-25362D02*
X28687Y-24935D01*
X27712Y-24858D02*
X27485Y-24843D01*
X27485Y-24843D02*
X27199Y-24693D01*
X26996Y-24500D02*
X27199Y-24693D01*
X28687Y-24935D02*
X28436Y-24834D01*
X28436Y-24834D02*
X27712Y-24858D01*
X30612Y-27653D02*
X30452Y-27284D01*
X30452Y-27284D02*
X30322Y-26986D01*
X30322Y-26986D02*
X30287Y-25429D01*
X36800Y-25800D02*
X36285Y-25245D01*
X36285Y-25245D02*
X36146Y-23714D01*
X36146Y-23714D02*
X35897Y-22493D01*
X35897Y-22493D02*
X35121Y-21956D01*
X35121Y-21956D02*
X31876Y-22134D01*
X31876Y-22134D02*
X31484Y-22092D01*
X31264Y-21887D02*
X31484Y-22092D01*
X30287Y-25429D02*
X30143Y-24585D01*
X30143Y-24585D02*
X29893Y-23958D01*
X31406Y-28135D02*
X31557Y-28283D01*
X28695Y-29852D02*
X28697Y-30100D01*
X31723Y-28436D02*
X31872Y-28283D01*
X31982Y-23322D02*
X31839Y-22769D01*
X31232Y-27399D02*
X31242Y-27653D01*
X34258Y-28232D02*
X34000Y-28403D01*
X29511Y-28753D02*
X29361Y-28758D01*
X29361Y-28758D02*
X29163Y-28718D01*
X29163Y-28718D02*
X28976Y-28419D01*
X28976Y-28419D02*
X28980Y-27420D01*
X28882Y-27013D02*
X28980Y-27420D01*
X32187Y-27968D02*
X32038Y-28116D01*
X36297Y-18200D02*
X36293Y-17552D01*
X36293Y-17552D02*
X35979Y-17348D01*
X35979Y-17348D02*
X34282Y-17361D01*
X34282Y-17361D02*
X33880Y-17723D01*
X29721Y-19559D02*
X33880Y-17723D01*
X29500Y-19902D02*
X29385Y-21086D01*
X29385Y-21086D02*
X29459Y-21856D01*
X29459Y-21856D02*
X29509Y-22980D01*
X30553Y-23110D02*
X30560Y-22769D01*
X29778Y-23139D02*
X29509Y-22980D01*
X30141Y-23217D02*
X29778Y-23139D01*
X30141Y-23217D02*
X30455Y-23198D01*
X30455Y-23198D02*
X30553Y-23110D01*
X28882Y-27013D02*
X29136Y-26410D01*
X29136Y-26410D02*
X29176Y-25591D01*
X29176Y-25591D02*
X29165Y-25150D01*
X29165Y-25150D02*
X28649Y-24610D01*
X28649Y-24610D02*
X27538Y-24485D01*
X27281Y-24529D02*
X27538Y-24485D01*
X27628Y-20431D02*
X27619Y-20867D01*
X29721Y-19559D02*
X29500Y-19902D01*
X36092Y-17621D02*
X36089Y-17780D01*
X35937Y-17461D02*
X36092Y-17621D01*
X34337Y-17462D02*
X35937Y-17461D01*
X34337Y-17462D02*
X33961Y-17797D01*
X29782Y-19649D02*
X33961Y-17797D01*
X29598Y-19935D02*
X29540Y-20718D01*
X29540Y-20718D02*
X29729Y-21616D01*
X29729Y-21616D02*
X30038Y-22043D01*
X30273Y-22430D02*
X30304Y-22769D01*
X32894Y-26535D02*
X32900Y-26703D01*
X28803Y-27761D02*
X28532Y-27844D01*
X28532Y-27844D02*
X28359Y-27831D01*
X28359Y-27831D02*
X28267Y-27722D01*
X28267Y-27722D02*
X28174Y-27393D01*
X28174Y-27393D02*
X28138Y-27188D01*
X28138Y-27188D02*
X28291Y-26792D01*
X28291Y-26792D02*
X28612Y-26726D01*
X28830Y-26369D02*
X28861Y-25397D01*
X28861Y-25397D02*
X28619Y-25019D01*
X28422Y-24953D02*
X27620Y-24974D01*
X27620Y-24974D02*
X27272Y-24892D01*
X27272Y-24892D02*
X26870Y-24621D01*
X26744Y-24471D02*
X26870Y-24621D01*
X27884Y-22769D02*
X27881Y-23193D01*
X30273Y-22430D02*
X30184Y-22283D01*
X30038Y-22043D02*
X30184Y-22283D01*
X29782Y-19649D02*
X29598Y-19935D01*
X28612Y-26726D02*
X28830Y-26369D01*
X28619Y-25019D02*
X28422Y-24953D01*
X32502Y-27968D02*
X32346Y-28121D01*
X33404Y-22769D02*
X33395Y-23296D01*
X32862Y-27443D02*
X32817Y-27653D01*
X33660Y-22769D02*
X33680Y-23894D01*
X32817Y-27968D02*
X32961Y-27795D01*
X32961Y-27795D02*
X32977Y-27642D01*
X32977Y-27642D02*
X32979Y-27587D01*
X32979Y-27587D02*
X33124Y-27439D01*
X33124Y-27439D02*
X33142Y-27060D01*
X33142Y-27060D02*
X33098Y-26927D01*
X33098Y-26927D02*
X32965Y-26910D01*
X32965Y-26910D02*
X32379Y-26907D01*
X32379Y-26907D02*
X32185Y-26910D01*
X32185Y-26910D02*
X32096Y-26801D01*
X32074Y-26535D02*
X32096Y-26801D01*
X33916Y-22769D02*
X33916Y-22312D01*
X28140Y-22769D02*
X28140Y-22334D01*
X28140Y-22334D02*
X28141Y-22333D01*
X32817Y-28283D02*
X32967Y-28432D01*
X34172Y-22769D02*
X34167Y-23241D01*
X34167Y-23241D02*
X33986Y-23506D01*
X33132Y-27653D02*
X33227Y-27458D01*
X33440Y-26819D02*
X33227Y-27458D01*
X34240Y-24172D02*
X34252Y-23504D01*
X34252Y-23504D02*
X34388Y-23238D01*
X34388Y-23238D02*
X34428Y-22769D01*
X34428Y-22769D02*
X34383Y-22177D01*
X36679Y-16992D02*
X36284Y-16994D01*
X33132Y-27968D02*
X33290Y-27709D01*
X33290Y-27709D02*
X33295Y-27549D01*
X33295Y-27549D02*
X33343Y-27449D01*
X33559Y-27016D02*
X33343Y-27449D01*
X34684Y-22769D02*
X34661Y-23318D01*
X34661Y-23318D02*
X34494Y-23611D01*
X34494Y-23611D02*
X34514Y-23907D01*
X34672Y-22293D02*
X34682Y-22805D01*
X36680Y-17189D02*
X36664Y-17414D01*
X33132Y-28283D02*
X33281Y-28126D01*
X35695Y-17780D02*
X35688Y-18031D01*
X35688Y-18031D02*
X35609Y-18212D01*
X34940Y-22769D02*
X34969Y-22208D01*
X27152Y-29195D02*
X26765Y-29274D01*
X26765Y-29274D02*
X26597Y-29242D01*
X26597Y-29242D02*
X26411Y-28903D01*
X26411Y-28903D02*
X26276Y-28684D01*
X26276Y-28684D02*
X25958Y-28519D01*
X33132Y-28598D02*
X32981Y-28739D01*
X35196Y-22769D02*
X35181Y-23147D01*
X34906Y-23338D02*
X35181Y-23147D01*
X28309Y-27192D02*
X28584Y-27011D01*
X32817Y-30488D02*
X32963Y-30347D01*
X35302Y-17780D02*
X35297Y-18200D01*
X30927Y-28283D02*
X31084Y-28093D01*
X31084Y-28093D02*
X31083Y-27579D01*
X31083Y-27579D02*
X31060Y-27351D01*
X31060Y-27351D02*
X31089Y-27088D01*
X31089Y-27088D02*
X30947Y-26903D01*
X30947Y-26903D02*
X30942Y-26776D01*
X30942Y-26776D02*
X31013Y-26449D01*
X31070Y-23777D02*
X31013Y-26449D01*
X31872Y-21787D02*
X35164Y-21726D01*
X35164Y-21726D02*
X36101Y-22290D01*
X36101Y-22290D02*
X36800Y-23800D01*
X28612Y-28826D02*
X28272Y-28842D01*
X31109Y-26810D02*
X31300Y-26703D01*
X31300Y-26703D02*
X31158Y-24153D01*
X31158Y-24153D02*
X31267Y-23850D01*
X31356Y-23304D02*
X31339Y-23147D01*
X31339Y-23147D02*
X31328Y-22769D01*
X31267Y-23850D02*
X31356Y-23304D01*
X30182Y-27325D02*
X30297Y-27653D01*
X30182Y-27325D02*
X30033Y-27032D01*
X30025Y-25364D02*
X30033Y-27032D01*
X29622Y-24379D02*
X29864Y-24844D01*
X31576Y-21839D02*
X31740Y-22012D01*
X32108Y-22020D02*
X35150Y-21854D01*
X35150Y-21854D02*
X35983Y-22408D01*
X35983Y-22408D02*
X36351Y-24221D01*
X36351Y-24221D02*
X36800Y-24800D01*
X31740Y-22012D02*
X32108Y-22020D01*
X29864Y-24844D02*
X30025Y-25364D01*
X30297Y-28283D02*
X30447Y-28124D01*
X30447Y-28124D02*
X30454Y-27936D01*
X30454Y-27936D02*
X30454Y-27545D01*
X30454Y-27545D02*
X30134Y-27005D01*
X30134Y-27005D02*
X30198Y-25895D01*
X30198Y-25895D02*
X30152Y-25206D01*
X30152Y-25206D02*
X29778Y-24184D01*
X29778Y-24184D02*
X29519Y-23592D01*
X31009Y-21487D02*
X31730Y-21140D01*
X31730Y-21140D02*
X34869Y-21123D01*
X34869Y-21123D02*
X36313Y-21903D01*
X36313Y-21903D02*
X37379Y-23073D01*
X37379Y-23073D02*
X37773Y-24736D01*
X37773Y-24736D02*
X37929Y-27555D01*
X37929Y-27555D02*
X38447Y-28377D01*
X38447Y-28377D02*
X41321Y-28565D01*
X41321Y-28565D02*
X46067Y-28247D01*
X46067Y-28247D02*
X46356Y-28247D01*
X46356Y-28247D02*
X46400Y-28203D01*
X32521Y-26524D02*
X32500Y-26703D01*
X28800Y-27526D02*
X28708Y-26979D01*
X28708Y-26979D02*
X28762Y-26857D01*
X30816Y-22769D02*
X30830Y-22458D01*
X30776Y-22247D02*
X30552Y-21934D01*
X29651Y-20626D02*
X29858Y-20902D01*
X29651Y-20626D02*
X29696Y-19968D01*
X29696Y-19968D02*
X29839Y-19747D01*
X34058Y-17864D02*
X34409Y-17563D01*
X34409Y-17563D02*
X35435Y-17562D01*
X35435Y-17562D02*
X35494Y-17618D01*
X35494Y-17618D02*
X35498Y-17780D01*
X29034Y-26404D02*
X29074Y-25333D01*
X29074Y-25333D02*
X28836Y-24954D01*
X28836Y-24954D02*
X28611Y-24713D01*
X27596Y-24659D02*
X28611Y-24713D01*
X27644Y-23693D02*
X27628Y-22769D01*
X30776Y-22247D02*
X30830Y-22458D01*
X30552Y-21934D02*
X29858Y-20902D01*
X29839Y-19747D02*
X34058Y-17864D01*
X28762Y-26857D02*
X29034Y-26404D01*
X28897Y-30500D02*
X28953Y-30030D01*
X28953Y-30030D02*
X29077Y-29833D01*
X29353Y-27968D02*
X29196Y-27701D01*
X29196Y-27701D02*
X29187Y-27253D01*
X29342Y-26394D02*
X29395Y-25977D01*
X29386Y-25053D02*
X28742Y-24416D01*
X25389Y-24052D02*
X23893Y-23944D01*
X23893Y-23944D02*
X23314Y-23824D01*
X23314Y-23824D02*
X23102Y-23534D01*
X23102Y-23534D02*
X23107Y-22010D01*
X23107Y-22010D02*
X23600Y-21400D01*
X29342Y-26394D02*
X29187Y-27253D01*
X29395Y-25977D02*
X29386Y-25053D01*
X28742Y-24416D02*
X25389Y-24052D01*
X29982Y-28283D02*
X30138Y-28116D01*
X30138Y-28116D02*
X30137Y-27505D01*
X30137Y-27505D02*
X29925Y-27028D01*
X29925Y-27028D02*
X29865Y-25323D01*
X29754Y-24839D02*
X29865Y-25323D01*
X29754Y-24839D02*
X28928Y-24041D01*
X28928Y-24041D02*
X25859Y-23608D01*
X25395Y-23400D02*
X25859Y-23608D01*
X29667Y-28283D02*
X29487Y-28441D01*
X29487Y-28441D02*
X29217Y-28437D01*
X29077Y-28306D02*
X29217Y-28437D01*
X29077Y-28306D02*
X29089Y-27358D01*
X29089Y-27358D02*
X29063Y-27023D01*
X29290Y-25095D02*
X29288Y-25968D01*
X29290Y-25095D02*
X28699Y-24508D01*
X25388Y-24160D02*
X23600Y-24400D01*
X29242Y-26385D02*
X29063Y-27023D01*
X28699Y-24508D02*
X25388Y-24160D01*
X29288Y-25968D02*
X29242Y-26385D01*
X31242Y-28283D02*
X31106Y-28415D01*
X34002Y-26525D02*
X34000Y-26703D01*
X29667Y-27968D02*
X29524Y-27823D01*
X29524Y-27823D02*
X29512Y-27665D01*
X29512Y-27665D02*
X29509Y-27629D01*
X29509Y-27629D02*
X29529Y-27524D01*
X29529Y-27524D02*
X29563Y-27399D01*
X29563Y-27399D02*
X29582Y-27061D01*
X29498Y-25936D02*
X29582Y-27061D01*
X29498Y-25936D02*
X29483Y-25003D01*
X29483Y-25003D02*
X28785Y-24321D01*
X24978Y-23612D02*
X25424Y-23951D01*
X24776Y-22573D02*
X24634Y-22208D01*
X24634Y-22208D02*
X24140Y-21025D01*
X24140Y-21025D02*
X23600Y-20400D01*
X24978Y-23612D02*
X24776Y-22573D01*
X28785Y-24321D02*
X25424Y-23951D01*
X30927Y-27653D02*
X30864Y-27253D01*
X34000Y-27403D02*
X34224Y-27380D01*
X30612Y-28283D02*
X30771Y-28097D01*
X30771Y-28097D02*
X30767Y-27579D01*
X30767Y-27579D02*
X30533Y-27223D01*
X30533Y-27223D02*
X30423Y-26871D01*
X30423Y-26871D02*
X30397Y-23600D01*
X29982Y-27968D02*
X29829Y-27814D01*
X29829Y-27814D02*
X29819Y-27564D01*
X29819Y-27564D02*
X29822Y-27044D01*
X29822Y-27044D02*
X29698Y-25612D01*
X28879Y-24132D02*
X25437Y-23710D01*
X25183Y-23506D02*
X25437Y-23710D01*
X25042Y-21232D02*
X24984Y-19559D01*
X24984Y-19559D02*
X24338Y-18786D01*
X24338Y-18786D02*
X23600Y-18400D01*
X29698Y-25612D02*
X29672Y-24912D01*
X25183Y-23506D02*
X25042Y-21232D01*
X24403Y-18400D02*
X23600Y-18400D01*
X29672Y-24912D02*
X28879Y-24132D01*
X29667Y-27653D02*
X29678Y-27047D01*
X29678Y-27047D02*
X29614Y-26097D01*
X29614Y-26097D02*
X29578Y-24957D01*
X28830Y-24227D02*
X25444Y-23835D01*
X25089Y-23572D02*
X25444Y-23835D01*
X24728Y-22166D02*
X24228Y-20460D01*
X24228Y-20460D02*
X23955Y-20087D01*
X23648Y-19972D02*
X23297Y-20046D01*
X23297Y-20046D02*
X23182Y-20267D01*
X23195Y-20557D02*
X23403Y-20831D01*
X23403Y-20831D02*
X23931Y-21023D01*
X23931Y-21023D02*
X24104Y-21389D01*
X24104Y-21389D02*
X24084Y-21928D01*
X24084Y-21928D02*
X23600Y-22400D01*
X23182Y-20267D02*
X23195Y-20557D01*
X23955Y-20087D02*
X23648Y-19972D01*
X23621Y-22380D02*
X24400Y-22403D01*
X24917Y-22590D02*
X24728Y-22166D01*
X25089Y-23572D02*
X24917Y-22590D01*
X29578Y-24957D02*
X28830Y-24227D01*
X23450Y-31775D02*
X23164Y-31767D01*
X23139Y-29536D02*
X23450Y-29525D01*
X23148Y-29271D02*
X23450Y-29275D01*
X23450Y-29025D02*
X23150Y-29028D01*
X23450Y-28775D02*
X23148Y-28782D01*
X23450Y-28525D02*
X23147Y-28528D01*
X23450Y-28275D02*
X23145Y-28273D01*
X23450Y-28025D02*
X23144Y-28028D01*
X23950Y-28025D02*
X24169Y-27939D01*
X24799Y-27425D02*
X24169Y-27939D01*
X25342Y-27425D02*
X24799Y-27425D01*
X25342Y-27425D02*
X25511Y-27584D01*
X25511Y-27584D02*
X25508Y-27748D01*
X24132Y-28198D02*
X23950Y-28275D01*
X24132Y-28198D02*
X24217Y-28061D01*
X25253Y-27527D02*
X25314Y-27581D01*
X25314Y-27581D02*
X25311Y-27748D01*
X24217Y-28061D02*
X24736Y-27619D01*
X24736Y-27619D02*
X24993Y-27527D01*
X24993Y-27527D02*
X25253Y-27527D01*
X23950Y-28525D02*
X24112Y-28473D01*
X24166Y-28422D02*
X24112Y-28473D01*
X24166Y-28422D02*
X24300Y-28124D01*
X24300Y-28124D02*
X24737Y-27782D01*
X24737Y-27782D02*
X24984Y-27763D01*
X24984Y-27763D02*
X25114Y-27748D01*
X23450Y-31525D02*
X23163Y-31520D01*
X23950Y-28775D02*
X24121Y-28723D01*
X24302Y-28396D02*
X24484Y-28141D01*
X24484Y-28141D02*
X24640Y-28013D01*
X24231Y-28640D02*
X24121Y-28723D01*
X24231Y-28640D02*
X24302Y-28396D01*
X24640Y-28013D02*
X24848Y-28014D01*
X23950Y-29025D02*
X24130Y-28964D01*
X24130Y-28964D02*
X24317Y-28711D01*
X24317Y-28711D02*
X24390Y-28453D01*
X24390Y-28453D02*
X24541Y-28235D01*
X24541Y-28235D02*
X24675Y-28215D01*
X24675Y-28215D02*
X24848Y-28211D01*
X23950Y-29275D02*
X24160Y-29208D01*
X24160Y-29208D02*
X24345Y-28876D01*
X24345Y-28876D02*
X24422Y-28726D01*
X24490Y-28490D02*
X24422Y-28726D01*
X24490Y-28490D02*
X24581Y-28408D01*
X24581Y-28408D02*
X24848Y-28408D01*
X24669Y-28605D02*
X24609Y-28623D01*
X24609Y-28623D02*
X24564Y-28686D01*
X24564Y-28686D02*
X24268Y-29228D01*
X24268Y-29228D02*
X24192Y-29430D01*
X24192Y-29430D02*
X23950Y-29525D01*
X24669Y-28605D02*
X24848Y-28605D01*
X24183Y-29696D02*
X23950Y-29775D01*
X24183Y-29696D02*
X24277Y-29495D01*
X24277Y-29495D02*
X24379Y-29236D01*
X24558Y-28907D02*
X24379Y-29236D01*
X24657Y-28816D02*
X24558Y-28907D01*
X24657Y-28816D02*
X24848Y-28802D01*
X23950Y-30025D02*
X24206Y-29941D01*
X24206Y-29941D02*
X24359Y-29557D01*
X24359Y-29557D02*
X24558Y-29117D01*
X24558Y-29117D02*
X24669Y-29012D01*
X24669Y-29012D02*
X24848Y-28998D01*
X23950Y-30275D02*
X24192Y-30213D01*
X24192Y-30213D02*
X24308Y-30065D01*
X24308Y-30065D02*
X24425Y-29663D01*
X24425Y-29663D02*
X24598Y-29274D01*
X24598Y-29274D02*
X24688Y-29202D01*
X24688Y-29202D02*
X24848Y-29195D01*
X24603Y-29512D02*
X24487Y-29818D01*
X24487Y-29818D02*
X24402Y-30145D01*
X24402Y-30145D02*
X24143Y-30474D01*
X24143Y-30474D02*
X23950Y-30525D01*
X24603Y-29512D02*
X24688Y-29410D01*
X24688Y-29410D02*
X24848Y-29392D01*
X24658Y-29662D02*
X24501Y-30183D01*
X24501Y-30183D02*
X24389Y-30347D01*
X24389Y-30347D02*
X24195Y-30701D01*
X24195Y-30701D02*
X23950Y-30775D01*
X24658Y-29662D02*
X24709Y-29598D01*
X24709Y-29598D02*
X24848Y-29589D01*
X23950Y-31025D02*
X24205Y-30950D01*
X24205Y-30950D02*
X24441Y-30607D01*
X24441Y-30607D02*
X24767Y-30011D01*
X24767Y-30011D02*
X24848Y-29786D01*
X23450Y-31275D02*
X23162Y-31273D01*
X23950Y-31275D02*
X24214Y-31191D01*
X24214Y-31191D02*
X24574Y-30658D01*
X24574Y-30658D02*
X24892Y-30133D01*
X24892Y-30133D02*
X25114Y-30052D01*
X23950Y-31525D02*
X24248Y-31441D01*
X24248Y-31441D02*
X24616Y-30776D01*
X24616Y-30776D02*
X24949Y-30371D01*
X24949Y-30371D02*
X25182Y-30297D01*
X25182Y-30297D02*
X25301Y-30215D01*
X25301Y-30215D02*
X25311Y-30052D01*
X23950Y-31775D02*
X24225Y-31734D01*
X24225Y-31734D02*
X24387Y-31521D01*
X24387Y-31521D02*
X24687Y-30856D01*
X24687Y-30856D02*
X25008Y-30458D01*
X25008Y-30458D02*
X25392Y-30335D01*
X25392Y-30335D02*
X25497Y-30212D01*
X25497Y-30212D02*
X25508Y-30052D01*
X23450Y-31025D02*
X23160Y-31023D01*
X23450Y-30775D02*
X23159Y-30774D01*
X23450Y-30525D02*
X23158Y-30527D01*
X23450Y-30275D02*
X23156Y-30274D01*
X23450Y-30025D02*
X23155Y-30033D01*
X23146Y-29778D02*
X23450Y-29775D01*
X28612Y-29574D02*
X28879Y-29447D01*
X28879Y-29447D02*
X28967Y-29270D01*
X28967Y-29270D02*
X28937Y-28750D01*
X28937Y-28750D02*
X28834Y-28539D01*
X28279Y-28063D02*
X28547Y-28370D01*
X31700Y-26703D02*
X31914Y-26702D01*
X31421Y-24001D02*
X31914Y-26702D01*
X31072Y-22769D02*
X31076Y-22449D01*
X31076Y-22449D02*
X31192Y-22328D01*
X31661Y-22331D02*
X31192Y-22328D01*
X28547Y-28370D02*
X28834Y-28539D01*
G54D44*
X27588Y-28826D02*
X27600Y-28397D01*
X28000Y-28397D02*
X27600Y-28397D01*
X27600Y-28397D02*
X27434Y-28535D01*
X27434Y-28535D02*
X27588Y-28826D01*
X25326Y-31656D02*
X25112Y-31630D01*
X25112Y-31630D02*
X24900Y-31597D01*
G54D43*
X25900Y-30403D02*
X26090Y-30259D01*
X26090Y-30259D02*
X26098Y-30052D01*
X25638Y-30669D02*
X25900Y-30403D01*
X26886Y-27748D02*
X26970Y-27536D01*
X26997Y-27300D02*
X26970Y-27536D01*
G54D44*
X24726Y-32043D02*
X24926Y-32044D01*
X24726Y-32043D02*
X24500Y-32103D01*
G54D43*
X26886Y-27748D02*
X26883Y-28088D01*
X26883Y-28088D02*
X26957Y-28202D01*
X26957Y-28202D02*
X27152Y-28211D01*
X26097Y-30078D02*
X26094Y-29840D01*
X26094Y-29840D02*
X25983Y-29718D01*
X25676Y-28792D02*
X25704Y-28548D01*
X25704Y-28548D02*
X25841Y-28346D01*
X25841Y-28346D02*
X26046Y-28350D01*
X26046Y-28350D02*
X26344Y-28610D01*
X26344Y-28610D02*
X26835Y-28934D01*
X26835Y-28934D02*
X26963Y-29001D01*
X26963Y-29001D02*
X27152Y-28998D01*
X33447Y-27968D02*
X33645Y-27960D01*
X33645Y-27960D02*
X33733Y-27780D01*
X33733Y-27780D02*
X33760Y-27396D01*
X33760Y-27396D02*
X33633Y-25443D01*
X33633Y-25443D02*
X32686Y-23978D01*
X32686Y-23978D02*
X32421Y-23707D01*
X32421Y-23707D02*
X32225Y-23224D01*
X32115Y-23085D02*
X32096Y-22769D01*
X32225Y-23224D02*
X32115Y-23085D01*
X27588Y-29200D02*
X27355Y-29348D01*
G54D44*
X27600Y-28003D02*
X28000Y-28003D01*
X27996Y-27791D02*
X28000Y-28003D01*
X27152Y-28408D02*
X27283Y-28410D01*
X27283Y-28410D02*
X27367Y-28325D01*
X27367Y-28325D02*
X27415Y-28161D01*
X27415Y-28161D02*
X27600Y-28003D01*
X27600Y-28003D02*
X27602Y-27775D01*
X27152Y-28408D02*
X26490Y-28412D01*
X26603Y-27300D02*
X26430Y-27005D01*
G54D43*
X26689Y-27748D02*
X26690Y-27541D01*
X26690Y-27541D02*
X26609Y-27491D01*
X26609Y-27491D02*
X26603Y-27300D01*
X26492Y-27748D02*
X26498Y-27510D01*
X26498Y-27510D02*
X26609Y-27491D01*
X26295Y-27748D02*
X26284Y-27564D01*
X26284Y-27564D02*
X26349Y-27508D01*
X26349Y-27508D02*
X26498Y-27510D01*
G54D44*
X27100Y-30797D02*
X26700Y-30797D01*
X26700Y-30797D02*
X26502Y-30798D01*
X26300Y-30797D02*
X25900Y-30797D01*
X27100Y-30797D02*
X27331Y-30795D01*
X25900Y-30797D02*
X25759Y-30940D01*
X26074Y-31400D02*
X26284Y-31320D01*
X26284Y-31320D02*
X26500Y-31103D01*
X27300Y-31103D02*
X27331Y-30795D01*
X26500Y-31103D02*
X26502Y-30798D01*
X26502Y-30798D02*
X26300Y-30797D01*
X24900Y-31203D02*
X24900Y-31001D01*
X24500Y-32497D02*
X24228Y-32543D01*
X23450Y-32025D02*
X23950Y-32025D01*
X23450Y-32025D02*
X23455Y-32226D01*
X26100Y-32103D02*
X25893Y-32074D01*
X25893Y-32074D02*
X25674Y-32044D01*
X26900Y-32103D02*
X26902Y-31906D01*
X27300Y-31103D02*
X27517Y-31100D01*
X27517Y-31100D02*
X27898Y-31138D01*
G54D45*
X27700Y-31897D02*
X28031Y-31951D01*
X28031Y-31951D02*
X28200Y-31797D01*
G54D43*
X30132Y-30603D02*
X29982Y-30488D01*
X30132Y-30603D02*
X30297Y-30488D01*
X30497Y-30589D02*
X30297Y-30488D01*
X30497Y-30589D02*
X30612Y-30803D01*
X31242Y-30803D02*
X31398Y-30643D01*
X31557Y-30803D02*
X31398Y-30643D01*
X31557Y-30803D02*
X31722Y-30643D01*
X31872Y-30803D02*
X31722Y-30643D01*
X32658Y-30661D02*
X32502Y-30803D01*
X32658Y-30661D02*
X32502Y-30488D01*
X32658Y-30661D02*
X32817Y-30803D01*
X33002Y-30661D02*
X32817Y-30803D01*
X33002Y-30661D02*
X33132Y-30803D01*
X33002Y-30661D02*
X33132Y-30488D01*
X33132Y-30488D02*
X33447Y-30488D01*
X33447Y-30488D02*
X33662Y-30482D01*
X32292Y-29713D02*
X32502Y-29858D01*
X32292Y-29713D02*
X32502Y-29543D01*
X32673Y-28738D02*
X32502Y-28598D01*
X32673Y-28738D02*
X32817Y-28913D01*
X32673Y-28738D02*
X32817Y-28598D01*
X31893Y-28774D02*
X31872Y-28598D01*
X31242Y-28598D02*
X31247Y-28777D01*
X30449Y-28784D02*
X30612Y-28598D01*
X30449Y-28784D02*
X30297Y-28913D01*
X29982Y-28598D02*
X30135Y-28753D01*
X30135Y-28753D02*
X30297Y-28913D01*
X30477Y-29190D02*
X30297Y-29228D01*
X30469Y-29869D02*
X30297Y-29858D01*
X33649Y-31748D02*
X33447Y-31747D01*
X28464Y-27673D02*
X28484Y-27464D01*
G54D44*
X29211Y-31750D02*
X29353Y-31747D01*
G54D43*
X24400Y-22797D02*
X24395Y-23098D01*
G54D44*
X47098Y-28060D02*
X47098Y-27804D01*
X47098Y-27804D02*
X46702Y-27821D01*
X47098Y-29340D02*
X46821Y-29322D01*
X46821Y-29322D02*
X46600Y-29203D01*
X46600Y-29203D02*
X46340Y-29209D01*
G54D43*
X37785Y-15900D02*
X38039Y-15901D01*
X37785Y-17100D02*
X37799Y-17387D01*
X37785Y-17700D02*
X37799Y-17387D01*
X35703Y-14100D02*
X35709Y-14405D01*
X36585Y-14933D02*
X36587Y-15278D01*
X37639Y-14125D02*
X37215Y-14067D01*
X37800Y-15297D02*
X37794Y-15502D01*
X34120Y-16205D02*
X33898Y-16222D01*
X33898Y-16222D02*
X33700Y-16297D01*
X33700Y-16297D02*
X33706Y-16504D01*
X33500Y-17197D02*
X33506Y-17408D01*
G54D44*
X32100Y-17203D02*
X32088Y-16950D01*
X32800Y-17574D02*
X32799Y-17812D01*
X32997Y-16400D02*
X33245Y-16394D01*
G54D43*
X36679Y-16795D02*
X36489Y-16794D01*
X36489Y-16794D02*
X36366Y-16675D01*
X34597Y-30100D02*
X34616Y-30305D01*
X34646Y-30575D02*
X34616Y-30305D01*
X34175Y-31487D02*
X34203Y-31700D01*
X34175Y-31487D02*
X34154Y-31225D01*
G54D44*
X40056Y-32009D02*
X40152Y-32338D01*
X40000Y-31817D02*
X39866Y-32338D01*
X40000Y-31700D02*
X39862Y-31061D01*
X40148Y-31065D02*
X39862Y-31061D01*
X40152Y-32338D02*
X39866Y-32338D01*
G54D43*
X39503Y-32700D02*
X39593Y-32526D01*
X39593Y-32526D02*
X39866Y-32338D01*
X39503Y-30750D02*
X39300Y-30748D01*
G54D44*
X38800Y-31403D02*
X39093Y-31484D01*
X39093Y-31484D02*
X39230Y-31504D01*
X39230Y-31504D02*
X39409Y-31503D01*
X39409Y-31503D02*
X39818Y-31504D01*
X39818Y-31504D02*
X39975Y-31582D01*
X38798Y-31139D02*
X38800Y-31403D01*
X38300Y-31305D02*
X38305Y-31021D01*
X38300Y-31305D02*
X38800Y-31403D01*
G54D46*
X43200Y-31395D02*
X43517Y-31396D01*
X43200Y-32005D02*
X43517Y-32005D01*
X43200Y-31395D02*
X43200Y-31694D01*
X43200Y-31694D02*
X43200Y-32005D01*
G54D45*
X41097Y-27750D02*
X41097Y-27300D01*
X41097Y-26835D02*
X41097Y-25750D01*
X41097Y-25750D02*
X41097Y-24750D01*
X41097Y-24750D02*
X41097Y-23750D01*
X41097Y-23750D02*
X41097Y-22750D01*
X41097Y-22750D02*
X41097Y-21750D01*
X41097Y-21750D02*
X41097Y-21243D01*
X41097Y-27300D02*
X41097Y-26750D01*
X41097Y-21243D02*
X41097Y-20750D01*
X45097Y-20750D02*
X45097Y-21236D01*
X45097Y-21750D02*
X45097Y-22750D01*
X45097Y-22750D02*
X45097Y-23750D01*
X45097Y-23750D02*
X45097Y-24750D01*
X45097Y-24750D02*
X45097Y-25750D01*
X45097Y-25750D02*
X45097Y-26750D01*
X45030Y-27269D02*
X45097Y-26750D01*
X45097Y-21236D02*
X45097Y-21750D01*
X45030Y-27269D02*
X45097Y-27750D01*
G54D43*
X23450Y-27775D02*
X23950Y-27775D01*
X23450Y-27775D02*
X23452Y-27567D01*
X27372Y-20431D02*
X27116Y-20431D01*
X27153Y-20431D02*
X26860Y-20431D01*
X26860Y-20431D02*
X26604Y-20431D01*
X26604Y-20431D02*
X26348Y-20431D01*
X26348Y-20431D02*
X26108Y-20429D01*
X29100Y-22203D02*
X29100Y-21958D01*
X30048Y-22769D02*
X29804Y-22793D01*
X30346Y-20000D02*
X30304Y-20431D01*
X33426Y-20849D02*
X33404Y-20431D01*
G54D45*
X33148Y-22769D02*
X32723Y-22769D01*
X32723Y-22769D02*
X32352Y-22769D01*
G54D43*
X35452Y-22769D02*
X35450Y-23197D01*
G54D45*
X34597Y-30100D02*
X34653Y-29889D01*
X34695Y-29600D02*
X34653Y-29889D01*
G54D43*
X40591Y-31700D02*
X40000Y-31700D01*
G54D44*
X37597Y-18100D02*
X37821Y-18097D01*
X37786Y-17668D02*
X37821Y-18097D01*
X34903Y-18200D02*
X34633Y-18197D01*
X50197Y-29200D02*
X50391Y-29199D01*
X50197Y-28300D02*
X50389Y-28299D01*
G54D43*
X25985Y-29392D02*
X26000Y-28900D01*
X25705Y-30052D02*
X25902Y-30052D01*
X26295Y-30052D02*
X26295Y-29743D01*
X26295Y-29743D02*
X26097Y-29492D01*
X25985Y-29388D02*
X26097Y-29492D01*
X25985Y-29392D02*
X25826Y-29598D01*
X25826Y-29598D02*
X25704Y-29752D01*
X25705Y-30052D02*
X25704Y-29752D01*
X26097Y-29492D02*
X25909Y-29489D01*
X26098Y-27748D02*
X26295Y-27748D01*
X26098Y-27748D02*
X25902Y-27748D01*
X25902Y-27748D02*
X25705Y-27748D01*
X25705Y-27748D02*
X25700Y-27931D01*
X25582Y-28052D02*
X25700Y-27931D01*
X27556Y-29221D02*
X27921Y-28983D01*
X27921Y-28983D02*
X28161Y-28667D01*
X28161Y-28667D02*
X28307Y-28384D01*
X28307Y-28384D02*
X28164Y-28234D01*
X28164Y-28234D02*
X28000Y-28003D01*
X27355Y-29348D02*
X27152Y-29392D01*
X28503Y-30500D02*
X28273Y-30495D01*
X28503Y-30500D02*
X28601Y-30818D01*
X26000Y-28900D02*
X25677Y-28969D01*
X25677Y-28969D02*
X25542Y-28920D01*
X25474Y-28756D02*
X25537Y-28509D01*
X25537Y-28509D02*
X25582Y-28052D01*
X25542Y-28920D02*
X25474Y-28756D01*
X25582Y-28052D02*
X26239Y-28252D01*
X26239Y-28252D02*
X26490Y-28412D01*
G54D44*
X47098Y-29596D02*
X46600Y-29597D01*
X46600Y-29597D02*
X46345Y-29719D01*
X32544Y-16826D02*
X32574Y-16611D01*
X32574Y-16611D02*
X32603Y-16400D01*
G54D43*
X36679Y-16008D02*
X36355Y-15998D01*
G54D44*
X32571Y-16080D02*
X32603Y-16400D01*
X42463Y-19094D02*
X41992Y-18724D01*
X41992Y-18724D02*
X41992Y-18121D01*
X41992Y-18121D02*
X40631Y-16474D01*
X40631Y-16474D02*
X39115Y-16446D01*
X39115Y-16446D02*
X38195Y-16699D01*
X38195Y-16699D02*
X37597Y-16700D01*
X37597Y-16300D02*
X38849Y-16217D01*
X40745Y-16225D02*
X42463Y-18307D01*
X38849Y-16217D02*
X40745Y-16225D01*
G54D43*
X36089Y-15220D02*
X36097Y-14100D01*
X36097Y-14140D02*
X36585Y-14067D01*
X35892Y-17780D02*
X35903Y-18200D01*
X36679Y-16402D02*
X36980Y-16396D01*
X36980Y-16396D02*
X37203Y-16300D01*
X37203Y-16300D02*
X37215Y-15900D01*
X36679Y-15811D02*
X36686Y-15646D01*
X36686Y-15646D02*
X37215Y-14933D01*
X37800Y-14903D02*
X37215Y-14933D01*
X37215Y-17700D02*
X37203Y-18100D01*
X37215Y-17700D02*
X36558Y-17701D01*
X36558Y-17701D02*
X36043Y-17107D01*
X36043Y-17107D02*
X36028Y-16435D01*
X36028Y-16435D02*
X36298Y-16205D01*
X36298Y-16205D02*
X36679Y-16205D01*
G54D46*
X39074Y-18642D02*
X38632Y-18582D01*
X38632Y-18582D02*
X37440Y-18535D01*
X37440Y-18535D02*
X37210Y-18353D01*
G54D45*
X37203Y-18100D02*
X37210Y-18353D01*
G54D43*
X27700Y-31503D02*
X27965Y-31450D01*
X27965Y-31450D02*
X28200Y-31403D01*
G54D44*
X47489Y-21781D02*
X47303Y-22086D01*
X47489Y-21781D02*
X47515Y-20255D01*
X47515Y-20255D02*
X47959Y-19577D01*
X46841Y-19031D02*
X47959Y-19577D01*
X47303Y-22086D02*
X46841Y-22303D01*
X46841Y-21213D02*
X46067Y-21982D01*
X46136Y-26885D02*
X46067Y-21982D01*
X47523Y-27690D02*
X46136Y-26885D01*
X47523Y-27690D02*
X47510Y-28686D01*
X47510Y-28686D02*
X47420Y-28810D01*
X47420Y-28810D02*
X47098Y-28828D01*
X50197Y-29600D02*
X50034Y-29841D01*
X49068Y-29839D02*
X50034Y-29841D01*
X48939Y-29726D02*
X49068Y-29839D01*
X48939Y-29726D02*
X48945Y-29193D01*
X48945Y-29193D02*
X49048Y-29096D01*
X49048Y-29096D02*
X49302Y-29084D01*
X50197Y-28800D02*
X49999Y-28586D01*
X49999Y-28586D02*
X49803Y-28571D01*
X49803Y-28571D02*
X49302Y-28572D01*
G54D43*
X38703Y-32700D02*
X38300Y-33500D01*
X40203Y-32700D02*
X39897Y-32700D01*
X39897Y-32700D02*
X39709Y-32928D01*
X39709Y-32928D02*
X39208Y-32928D01*
X39208Y-32928D02*
X39097Y-32700D01*
X39123Y-32753D02*
X39126Y-32471D01*
X39126Y-32471D02*
X39372Y-32304D01*
X39372Y-32304D02*
X39409Y-32094D01*
X40195Y-24750D02*
X40703Y-24750D01*
X40195Y-25750D02*
X40703Y-25750D01*
X40195Y-20750D02*
X40703Y-20750D01*
X40195Y-21750D02*
X40703Y-21750D01*
X40195Y-22750D02*
X40703Y-22750D01*
X40195Y-23750D02*
X40703Y-23750D01*
X47098Y-28572D02*
X46425Y-28572D01*
X46425Y-28572D02*
X46400Y-28597D01*
X46664Y-28399D02*
X46109Y-28402D01*
X41314Y-28666D02*
X38339Y-28471D01*
X38339Y-28471D02*
X37813Y-27555D01*
X37813Y-27555D02*
X37654Y-24702D01*
X37654Y-24702D02*
X37268Y-23172D01*
X37268Y-23172D02*
X36178Y-21945D01*
X36178Y-21945D02*
X34813Y-21224D01*
X34813Y-21224D02*
X31719Y-21259D01*
X30003Y-23600D02*
X29815Y-23599D01*
X31293Y-21586D02*
X31719Y-21259D01*
X46109Y-28402D02*
X41314Y-28666D01*
X46664Y-28399D02*
X46800Y-28324D01*
X46800Y-28324D02*
X47098Y-28316D01*
G54D44*
X49302Y-28828D02*
X49803Y-28800D01*
X49302Y-29596D02*
X49803Y-29600D01*
X49302Y-29340D02*
X49602Y-29322D01*
X49602Y-29322D02*
X49803Y-29200D01*
X49302Y-28316D02*
X49803Y-28300D01*
G54D43*
X32502Y-28283D02*
X32652Y-28127D01*
X32658Y-28004D02*
X32652Y-28127D01*
X32658Y-28004D02*
X32657Y-27347D01*
X32657Y-27347D02*
X32734Y-27234D01*
X32734Y-27234D02*
X32900Y-27097D01*
X31557Y-27968D02*
X31411Y-27840D01*
X31411Y-27840D02*
X31397Y-27644D01*
X31397Y-27644D02*
X31398Y-27335D01*
X31398Y-27335D02*
X31300Y-27097D01*
X31557Y-27653D02*
X31700Y-27097D01*
X32502Y-27653D02*
X32500Y-27097D01*
X33447Y-31118D02*
X33893Y-30939D01*
X33893Y-30939D02*
X34289Y-30931D01*
X34289Y-30931D02*
X34453Y-30972D01*
X34453Y-30972D02*
X34646Y-31225D01*
X34597Y-31700D02*
X34646Y-31225D01*
X32502Y-31747D02*
X32357Y-31606D01*
X39409Y-31306D02*
X39620Y-31017D01*
X39620Y-31017D02*
X39709Y-30850D01*
X39709Y-30850D02*
X39897Y-30750D01*
X39897Y-30750D02*
X40203Y-30750D01*
X40203Y-30750D02*
X40203Y-30350D01*
X40591Y-31503D02*
X40875Y-31510D01*
X40875Y-31510D02*
X40988Y-31589D01*
X40988Y-31589D02*
X40986Y-31697D01*
X40983Y-31790D02*
X40920Y-31898D01*
X40920Y-31898D02*
X40591Y-31897D01*
X40986Y-31697D02*
X40983Y-31790D01*
G54D44*
X39176Y-31710D02*
X38800Y-31797D01*
X39176Y-31710D02*
X39409Y-31700D01*
X38585Y-31844D02*
X38300Y-31895D01*
G54D45*
X38300Y-31895D02*
X37400Y-32100D01*
G54D44*
X38585Y-31844D02*
X38800Y-31797D01*
X40591Y-32094D02*
X40885Y-32115D01*
X40885Y-32115D02*
X41300Y-32400D01*
G54D43*
X40597Y-32700D02*
X40387Y-32972D01*
X40387Y-32972D02*
X39719Y-33030D01*
X39719Y-33030D02*
X39082Y-33027D01*
X38915Y-32900D02*
X39082Y-33027D01*
X38915Y-32900D02*
X38908Y-32356D01*
X38908Y-32356D02*
X39058Y-32042D01*
X39058Y-32042D02*
X39178Y-31916D01*
X39178Y-31916D02*
X39409Y-31897D01*
X42500Y-32400D02*
X42224Y-32848D01*
X42224Y-32848D02*
X42053Y-32991D01*
X42053Y-32991D02*
X40890Y-32971D01*
X40890Y-32971D02*
X40597Y-32700D01*
G54D46*
X42500Y-32400D02*
X43200Y-32595D01*
X43200Y-32595D02*
X43100Y-33500D01*
G54D43*
X27606Y-17129D02*
X27400Y-16000D01*
X28140Y-20431D02*
X28107Y-19740D01*
X28107Y-19740D02*
X27606Y-17129D01*
X26400Y-16000D02*
X27494Y-19102D01*
X27884Y-20431D02*
X27846Y-19896D01*
X27494Y-19102D02*
X27846Y-19896D01*
X28470Y-19367D02*
X28928Y-17129D01*
X28928Y-17129D02*
X29400Y-16000D01*
X28396Y-20431D02*
X28425Y-19783D01*
X28425Y-19783D02*
X28470Y-19367D01*
G54D44*
X40591Y-31306D02*
X40909Y-31297D01*
X40909Y-31297D02*
X41300Y-31000D01*
G54D43*
X22600Y-20400D02*
X23141Y-19940D01*
X23141Y-19940D02*
X23661Y-19833D01*
X23661Y-19833D02*
X24403Y-19900D01*
X27372Y-22769D02*
X27384Y-21075D01*
X28539Y-26641D02*
X28186Y-26717D01*
X28847Y-19072D02*
X29437Y-17251D01*
X29437Y-17251D02*
X29864Y-16377D01*
X29864Y-16377D02*
X29894Y-15766D01*
X29894Y-15766D02*
X29792Y-15532D01*
X29792Y-15532D02*
X29365Y-15471D01*
X29365Y-15471D02*
X26416Y-15451D01*
X26416Y-15451D02*
X25684Y-15543D01*
X25684Y-15543D02*
X25400Y-16000D01*
X28539Y-26641D02*
X28734Y-26335D01*
X27519Y-25076D02*
X26894Y-24868D01*
X26487Y-24442D02*
X26894Y-24868D01*
X28652Y-20431D02*
X28686Y-19578D01*
X28686Y-19578D02*
X28847Y-19072D01*
X28409Y-23149D02*
X28396Y-22769D01*
X28396Y-22769D02*
X28382Y-22265D01*
X28382Y-22265D02*
X28650Y-20895D01*
X28650Y-20895D02*
X28652Y-20431D01*
X27350Y-27003D02*
X27645Y-27003D01*
X27645Y-27003D02*
X27652Y-26926D01*
X28734Y-26335D02*
X28706Y-25386D01*
X28706Y-25386D02*
X28584Y-25173D01*
X27519Y-25076D02*
X28446Y-25062D01*
X28186Y-26717D02*
X27652Y-26926D01*
X28584Y-25173D02*
X28446Y-25062D01*
X33447Y-30803D02*
X33839Y-30751D01*
X33839Y-30751D02*
X34154Y-30575D01*
X34154Y-30575D02*
X34203Y-30100D01*
X33447Y-30803D02*
X33290Y-30953D01*
X40597Y-30350D02*
X40597Y-30750D01*
X40597Y-30350D02*
X42080Y-30356D01*
X42080Y-30356D02*
X42500Y-31000D01*
G54D46*
X42500Y-31000D02*
X43200Y-30805D01*
X43200Y-30805D02*
X43100Y-29800D01*
G54D43*
X36679Y-16598D02*
X36995Y-16612D01*
X36995Y-16612D02*
X37203Y-16700D01*
X37203Y-16700D02*
X37215Y-17100D01*
G54D44*
X47322Y-20926D02*
X46841Y-20122D01*
X47320Y-21476D02*
X47322Y-20926D01*
X47320Y-21476D02*
X47065Y-21755D01*
X47065Y-21755D02*
X46574Y-21840D01*
X46311Y-22171D02*
X46574Y-21840D01*
X46343Y-26810D02*
X46311Y-22171D01*
X46343Y-26810D02*
X47819Y-27602D01*
X47819Y-27602D02*
X47803Y-28727D01*
X47803Y-28727D02*
X47503Y-29074D01*
X47503Y-29074D02*
X47098Y-29084D01*
G54D43*
X44195Y-27750D02*
X44703Y-27750D01*
X42650Y-27750D02*
X42069Y-26707D01*
X42069Y-26707D02*
X41856Y-25649D01*
X41856Y-25649D02*
X41789Y-24897D01*
X41789Y-24897D02*
X41695Y-23648D01*
X41695Y-23648D02*
X41599Y-22374D01*
X41599Y-22374D02*
X41602Y-21825D01*
X32352Y-20431D02*
X32604Y-20423D01*
X32604Y-20423D02*
X32887Y-19982D01*
X32887Y-19982D02*
X33876Y-19570D01*
X33876Y-19570D02*
X34860Y-19419D01*
X34860Y-19419D02*
X35759Y-19323D01*
X35759Y-19323D02*
X37113Y-19629D01*
X41602Y-21825D02*
X41464Y-20649D01*
X41464Y-20649D02*
X41325Y-20510D01*
X41325Y-20510D02*
X40659Y-20314D01*
X40659Y-20314D02*
X37113Y-19629D01*
X42650Y-27750D02*
X43605Y-27750D01*
X44195Y-26750D02*
X44703Y-26750D01*
X44195Y-25750D02*
X44703Y-25750D01*
X42650Y-25750D02*
X42008Y-25069D01*
X42008Y-25069D02*
X41909Y-23789D01*
X41911Y-23817D02*
X41807Y-22448D01*
X41807Y-22448D02*
X41802Y-21489D01*
X31840Y-20431D02*
X31845Y-20082D01*
X31845Y-20082D02*
X31975Y-19970D01*
X31975Y-19970D02*
X32242Y-19852D01*
X32242Y-19852D02*
X33861Y-19360D01*
X33861Y-19360D02*
X34861Y-19215D01*
X34861Y-19215D02*
X35803Y-19115D01*
X35803Y-19115D02*
X37126Y-19398D01*
X41802Y-21489D02*
X41656Y-20570D01*
X41656Y-20570D02*
X41599Y-20469D01*
X41599Y-20469D02*
X41442Y-20318D01*
X41442Y-20318D02*
X40690Y-20111D01*
X40690Y-20111D02*
X37126Y-19398D01*
X42650Y-25750D02*
X43605Y-25750D01*
X44195Y-24750D02*
X44703Y-24750D01*
X38650Y-26750D02*
X38234Y-26035D01*
X38075Y-24917D02*
X38234Y-26035D01*
X38075Y-24917D02*
X37498Y-22515D01*
X37498Y-22515D02*
X35960Y-20546D01*
X35960Y-20546D02*
X35735Y-20213D01*
X35561Y-20096D02*
X35735Y-20213D01*
X35561Y-20096D02*
X35247Y-20099D01*
X35247Y-20099D02*
X35198Y-20139D01*
X35198Y-20139D02*
X35196Y-20431D01*
X38650Y-26750D02*
X39605Y-26750D01*
X33056Y-16826D02*
X33500Y-16803D01*
X40195Y-26750D02*
X40703Y-26750D01*
X40195Y-27750D02*
X40703Y-27750D01*
X36124Y-19961D02*
X38650Y-22750D01*
X36124Y-19961D02*
X35700Y-19662D01*
X35700Y-19662D02*
X35196Y-19697D01*
X35196Y-19697D02*
X34775Y-19745D01*
X34775Y-19745D02*
X34452Y-19906D01*
X34452Y-19906D02*
X34204Y-20103D01*
X34204Y-20103D02*
X34172Y-20431D01*
X38650Y-22750D02*
X39605Y-22750D01*
X38650Y-20750D02*
X37875Y-20414D01*
X37875Y-20414D02*
X36263Y-19788D01*
X36263Y-19788D02*
X35736Y-19432D01*
X35736Y-19432D02*
X35094Y-19502D01*
X35094Y-19502D02*
X34665Y-19551D01*
X34665Y-19551D02*
X33790Y-19992D01*
X33790Y-19992D02*
X33680Y-20099D01*
X33680Y-20099D02*
X33660Y-20431D01*
X38650Y-20750D02*
X39605Y-20750D01*
X38650Y-24750D02*
X38181Y-23898D01*
X38181Y-23898D02*
X37739Y-22468D01*
X37739Y-22468D02*
X35952Y-20117D01*
X35952Y-20117D02*
X35653Y-19884D01*
X35653Y-19884D02*
X35241Y-19896D01*
X35241Y-19896D02*
X34959Y-19933D01*
X34959Y-19933D02*
X34717Y-20100D01*
X34717Y-20100D02*
X34684Y-20431D01*
X38650Y-24750D02*
X39605Y-24750D01*
X42650Y-26750D02*
X41967Y-25690D01*
X41967Y-25690D02*
X41898Y-24979D01*
X41901Y-25008D02*
X41801Y-23709D01*
X41801Y-23709D02*
X41704Y-22429D01*
X41704Y-22429D02*
X41702Y-21701D01*
X32096Y-20431D02*
X32098Y-20082D01*
X32098Y-20082D02*
X32251Y-19958D01*
X33877Y-19461D02*
X32251Y-19958D01*
X33877Y-19461D02*
X34877Y-19315D01*
X34877Y-19315D02*
X35793Y-19217D01*
X35793Y-19217D02*
X37142Y-19505D01*
X41702Y-21701D02*
X41561Y-20615D01*
X41561Y-20615D02*
X41500Y-20522D01*
X41500Y-20522D02*
X41369Y-20417D01*
X41369Y-20417D02*
X40665Y-20211D01*
X40665Y-20211D02*
X37142Y-19505D01*
X42650Y-26750D02*
X43605Y-26750D01*
X42650Y-24750D02*
X42018Y-23900D01*
X42018Y-23900D02*
X41917Y-22568D01*
X41917Y-22568D02*
X41901Y-21306D01*
X31584Y-20431D02*
X31586Y-20100D01*
X31586Y-20100D02*
X31657Y-20017D01*
X31657Y-20017D02*
X31891Y-19850D01*
X31891Y-19850D02*
X32218Y-19753D01*
X32218Y-19753D02*
X33853Y-19257D01*
X33853Y-19257D02*
X34874Y-19112D01*
X34874Y-19112D02*
X35825Y-19011D01*
X35825Y-19011D02*
X37139Y-19298D01*
X41901Y-21306D02*
X41750Y-20522D01*
X41750Y-20522D02*
X41675Y-20400D01*
X41675Y-20400D02*
X41493Y-20228D01*
X41493Y-20228D02*
X40699Y-20009D01*
X40699Y-20009D02*
X37139Y-19298D01*
X42650Y-24750D02*
X43605Y-24750D01*
X42650Y-22750D02*
X42140Y-21744D01*
X42140Y-21744D02*
X42096Y-21022D01*
X31072Y-20431D02*
X31080Y-20111D01*
X31080Y-20111D02*
X31145Y-19992D01*
X31145Y-19992D02*
X31338Y-19889D01*
X31338Y-19889D02*
X31826Y-19657D01*
X31826Y-19657D02*
X32223Y-19541D01*
X32223Y-19541D02*
X33850Y-19047D01*
X33850Y-19047D02*
X35780Y-18785D01*
X35780Y-18785D02*
X35937Y-18797D01*
X35937Y-18797D02*
X37168Y-19098D01*
X42096Y-21022D02*
X41938Y-20446D01*
X41938Y-20446D02*
X41842Y-20265D01*
X41842Y-20265D02*
X41584Y-20039D01*
X41584Y-20039D02*
X40720Y-19805D01*
X40720Y-19805D02*
X37168Y-19098D01*
X42650Y-22750D02*
X43605Y-22750D01*
X30560Y-20431D02*
X30565Y-20056D01*
X30565Y-20056D02*
X30629Y-19902D01*
X30629Y-19902D02*
X30779Y-19804D01*
X30779Y-19804D02*
X31865Y-19430D01*
X31865Y-19430D02*
X33858Y-18834D01*
X33858Y-18834D02*
X35830Y-18575D01*
X35830Y-18575D02*
X36299Y-18637D01*
X36299Y-18637D02*
X37251Y-18908D01*
X37251Y-18908D02*
X40721Y-19593D01*
X40721Y-19593D02*
X41681Y-19843D01*
X41681Y-19843D02*
X42031Y-20140D01*
X42031Y-20140D02*
X42650Y-20750D01*
X42650Y-20750D02*
X43605Y-20750D01*
X38650Y-27750D02*
X38116Y-26853D01*
X38116Y-26853D02*
X37992Y-25099D01*
X37992Y-25099D02*
X37398Y-22556D01*
X37398Y-22556D02*
X36147Y-20959D01*
X36147Y-20959D02*
X35679Y-20447D01*
X35679Y-20447D02*
X35452Y-20431D01*
X38650Y-27750D02*
X39605Y-27750D01*
X38650Y-25750D02*
X38186Y-24828D01*
X38186Y-24828D02*
X37586Y-22439D01*
X37586Y-22439D02*
X35874Y-20186D01*
X35874Y-20186D02*
X35629Y-19994D01*
X35629Y-19994D02*
X35232Y-19998D01*
X35232Y-19998D02*
X35089Y-20039D01*
X35089Y-20039D02*
X34950Y-20125D01*
X34950Y-20125D02*
X34940Y-20431D01*
X38650Y-25750D02*
X39605Y-25750D01*
X38139Y-22821D02*
X38650Y-23750D01*
X38139Y-22821D02*
X36017Y-20027D01*
X36017Y-20027D02*
X35666Y-19765D01*
X35666Y-19765D02*
X35200Y-19798D01*
X35200Y-19798D02*
X34803Y-19843D01*
X34803Y-19843D02*
X34542Y-19994D01*
X34542Y-19994D02*
X34421Y-20139D01*
X34421Y-20139D02*
X34428Y-20431D01*
X38650Y-23750D02*
X39605Y-23750D01*
X36173Y-19849D02*
X38650Y-21750D01*
X36173Y-19849D02*
X35724Y-19547D01*
X35724Y-19547D02*
X35110Y-19604D01*
X35110Y-19604D02*
X34718Y-19649D01*
X34718Y-19649D02*
X34322Y-19862D01*
X34322Y-19862D02*
X33950Y-20115D01*
X33950Y-20115D02*
X33916Y-20431D01*
X38650Y-21750D02*
X39605Y-21750D01*
X42650Y-21750D02*
X42133Y-20773D01*
X30816Y-20431D02*
X30813Y-20105D01*
X30813Y-20105D02*
X30858Y-20006D01*
X30858Y-20006D02*
X30980Y-19895D01*
X30980Y-19895D02*
X31793Y-19562D01*
X31793Y-19562D02*
X33071Y-19178D01*
X33071Y-19178D02*
X33863Y-18937D01*
X33863Y-18937D02*
X35660Y-18699D01*
X35660Y-18699D02*
X35821Y-18678D01*
X35821Y-18678D02*
X36207Y-18726D01*
X36207Y-18726D02*
X37203Y-19002D01*
X42133Y-20773D02*
X42025Y-20382D01*
X42025Y-20382D02*
X41932Y-20188D01*
X41932Y-20188D02*
X41629Y-19934D01*
X41629Y-19934D02*
X40632Y-19679D01*
X40632Y-19679D02*
X37203Y-19002D01*
X42650Y-21750D02*
X43605Y-21750D01*
X42650Y-23750D02*
X42028Y-22700D01*
X42028Y-22700D02*
X41998Y-21083D01*
X31328Y-20431D02*
X31332Y-20082D01*
X31332Y-20082D02*
X31443Y-19955D01*
X31443Y-19955D02*
X31850Y-19758D01*
X31850Y-19758D02*
X32204Y-19652D01*
X32204Y-19652D02*
X33847Y-19153D01*
X33847Y-19153D02*
X34854Y-19012D01*
X34854Y-19012D02*
X35265Y-18969D01*
X35265Y-18969D02*
X35821Y-18910D01*
X35821Y-18910D02*
X35952Y-18922D01*
X35952Y-18922D02*
X37143Y-19195D01*
X41998Y-21083D02*
X41846Y-20488D01*
X41846Y-20488D02*
X41767Y-20337D01*
X41767Y-20337D02*
X41534Y-20130D01*
X41534Y-20130D02*
X40710Y-19907D01*
X40710Y-19907D02*
X37143Y-19195D01*
X42650Y-23750D02*
X43605Y-23750D01*
X34000Y-27097D02*
X34500Y-26800D01*
X34500Y-27800D02*
X34000Y-27797D01*
X34000Y-28797D02*
X34500Y-28800D01*
X44195Y-23750D02*
X44703Y-23750D01*
X44195Y-22750D02*
X44703Y-22750D01*
X44195Y-21750D02*
X44703Y-21750D01*
X44195Y-20750D02*
X44703Y-20750D01*
X26689Y-30052D02*
X26700Y-30403D01*
X26886Y-30052D02*
X26956Y-30212D01*
X26956Y-30212D02*
X27100Y-30403D01*
G54D44*
X26500Y-32103D02*
X26100Y-32497D01*
X26100Y-32497D02*
X25674Y-32556D01*
X24926Y-32556D02*
X25674Y-32556D01*
G54D43*
X26492Y-30052D02*
X26457Y-30212D01*
X26457Y-30212D02*
X26300Y-30403D01*
G54D44*
X26500Y-31497D02*
X26900Y-31103D01*
X26500Y-31497D02*
X26298Y-31629D01*
X26298Y-31629D02*
X26074Y-31656D01*
X26074Y-31656D02*
X25916Y-31662D01*
X25916Y-31662D02*
X25847Y-31606D01*
X25847Y-31606D02*
X25846Y-31192D01*
X25846Y-31192D02*
X25895Y-31146D01*
X25895Y-31146D02*
X26074Y-31144D01*
G54D43*
X27152Y-29589D02*
X27588Y-29574D01*
X28612Y-29200D02*
X28378Y-29195D01*
X28378Y-29195D02*
X28328Y-29243D01*
X28328Y-29243D02*
X28324Y-29775D01*
X28324Y-29775D02*
X28303Y-30100D01*
X30476Y-30200D02*
X30297Y-30173D01*
X30927Y-30803D02*
X30926Y-30616D01*
X32187Y-30803D02*
X32182Y-30609D01*
X32502Y-29228D02*
X32294Y-29227D01*
X32187Y-28598D02*
X32187Y-28780D01*
X30445Y-28448D02*
X30297Y-28598D01*
G54D44*
X26900Y-31497D02*
X27098Y-31497D01*
X27098Y-31497D02*
X27300Y-31497D01*
G54D43*
X27400Y-27397D02*
X27796Y-27464D01*
X27796Y-27464D02*
X27885Y-27566D01*
X30297Y-30803D02*
X30452Y-30954D01*
X30927Y-31118D02*
X31080Y-31272D01*
X31872Y-31118D02*
X31710Y-31272D01*
X32817Y-31118D02*
X32672Y-31275D01*
X32502Y-30173D02*
X32661Y-30018D01*
X33132Y-30173D02*
X32976Y-30018D01*
X32976Y-30018D02*
X32661Y-30018D01*
X32668Y-29695D02*
X32817Y-29543D01*
X32662Y-29071D02*
X32502Y-28913D01*
X31557Y-28598D02*
X31556Y-28783D01*
X30927Y-28598D02*
X30924Y-28773D01*
X30480Y-29533D02*
X30297Y-29543D01*
X29823Y-28758D02*
X29667Y-28598D01*
X29353Y-28283D02*
X29505Y-28128D01*
X33447Y-27653D02*
X33586Y-27517D01*
X29356Y-27455D02*
X29353Y-27653D01*
X34120Y-16008D02*
X33881Y-15998D01*
X33881Y-15998D02*
X33700Y-15903D01*
X33702Y-15695D02*
X33700Y-15903D01*
X28652Y-22769D02*
X28908Y-22772D01*
X28908Y-22772D02*
X29100Y-22597D01*
X30048Y-20431D02*
X30040Y-19996D01*
X33123Y-20849D02*
X33148Y-20431D01*
G54D45*
X34105Y-29600D02*
X33859Y-29595D01*
G54D43*
X31584Y-22769D02*
X31581Y-23254D01*
X31581Y-23254D02*
X31636Y-23574D01*
X24797Y-19900D02*
X24790Y-20195D01*
X24797Y-18400D02*
X24797Y-18698D01*
X31636Y-23574D02*
X31678Y-23564D01*
G54D44*
X26900Y-32497D02*
X26500Y-32497D01*
X33056Y-17574D02*
X33044Y-17387D01*
X33044Y-17387D02*
X32946Y-17318D01*
X32946Y-17318D02*
X32636Y-17314D01*
X32636Y-17314D02*
X32550Y-17412D01*
X32550Y-17412D02*
X32544Y-17574D01*
X32544Y-17574D02*
X32355Y-17584D01*
X32100Y-17597D02*
X32099Y-17870D01*
X32355Y-17584D02*
X32100Y-17597D01*
X32355Y-17584D02*
X32354Y-17865D01*
X27000Y-33200D02*
X26900Y-32497D01*
M02*
