G04 (created by PCBNEW-RS274X (2010-03-14)-final) date Thu 13 Oct 2011 08:56:15 PM EDT*
G01*
G70*
G90*
%MOIN*%
G04 Gerber Fmt 3.4, Leading zero omitted, Abs format*
%FSLAX34Y34*%
G04 APERTURE LIST*
%ADD10C,0.001000*%
%ADD11C,0.005000*%
%ADD12C,0.015000*%
%ADD13C,0.006500*%
%ADD14C,0.008000*%
%ADD15C,0.003900*%
%ADD16C,0.003300*%
%ADD17C,0.004600*%
%ADD18C,0.006600*%
G04 APERTURE END LIST*
G54D10*
G54D11*
X19100Y03150D02*
X19050Y03100D01*
X18750Y03400D02*
X18750Y03200D01*
X22200Y04850D02*
X22150Y04900D01*
X22450Y05200D02*
X22250Y05200D01*
X17450Y02100D02*
X17500Y02150D01*
X17800Y01850D02*
X17800Y02050D01*
X22050Y04100D02*
X22000Y04150D01*
X22300Y04450D02*
X22100Y04450D01*
X22350Y04150D02*
X22400Y04100D01*
X22100Y03800D02*
X22300Y03800D01*
X20900Y05550D02*
X20950Y05500D01*
X20650Y05200D02*
X20850Y05200D01*
X20550Y03850D02*
X20600Y03800D01*
X20300Y03500D02*
X20500Y03500D01*
X19850Y03150D02*
X19800Y03100D01*
X19500Y03400D02*
X19500Y03200D01*
X22550Y01850D02*
X22500Y01800D01*
X22200Y02100D02*
X22200Y01900D01*
X22550Y02650D02*
X22500Y02600D01*
X22200Y02900D02*
X22200Y02700D01*
X22550Y03050D02*
X22500Y03000D01*
X22200Y03300D02*
X22200Y03100D01*
X22550Y02250D02*
X22500Y02200D01*
X22200Y02500D02*
X22200Y02300D01*
X31500Y03150D02*
X31450Y03100D01*
X31150Y03400D02*
X31150Y03200D01*
X34600Y04850D02*
X34550Y04900D01*
X34850Y05200D02*
X34650Y05200D01*
X29850Y02100D02*
X29900Y02150D01*
X30200Y01850D02*
X30200Y02050D01*
X34450Y04100D02*
X34400Y04150D01*
X34700Y04450D02*
X34500Y04450D01*
X34750Y04150D02*
X34800Y04100D01*
X34500Y03800D02*
X34700Y03800D01*
X33300Y05550D02*
X33350Y05500D01*
X33050Y05200D02*
X33250Y05200D01*
X32950Y03850D02*
X33000Y03800D01*
X32700Y03500D02*
X32900Y03500D01*
X32250Y03150D02*
X32200Y03100D01*
X31900Y03400D02*
X31900Y03200D01*
X34950Y01850D02*
X34900Y01800D01*
X34600Y02100D02*
X34600Y01900D01*
X34950Y02650D02*
X34900Y02600D01*
X34600Y02900D02*
X34600Y02700D01*
X34950Y03050D02*
X34900Y03000D01*
X34600Y03300D02*
X34600Y03100D01*
X34950Y02250D02*
X34900Y02200D01*
X34600Y02500D02*
X34600Y02300D01*
X37700Y03150D02*
X37650Y03100D01*
X37350Y03400D02*
X37350Y03200D01*
X40800Y04850D02*
X40750Y04900D01*
X41050Y05200D02*
X40850Y05200D01*
X36050Y02100D02*
X36100Y02150D01*
X36400Y01850D02*
X36400Y02050D01*
X40650Y04100D02*
X40600Y04150D01*
X40900Y04450D02*
X40700Y04450D01*
X40950Y04150D02*
X41000Y04100D01*
X40700Y03800D02*
X40900Y03800D01*
X39500Y05550D02*
X39550Y05500D01*
X39250Y05200D02*
X39450Y05200D01*
X39150Y03850D02*
X39200Y03800D01*
X38900Y03500D02*
X39100Y03500D01*
X38450Y03150D02*
X38400Y03100D01*
X38100Y03400D02*
X38100Y03200D01*
X41150Y01850D02*
X41100Y01800D01*
X40800Y02100D02*
X40800Y01900D01*
X41150Y02650D02*
X41100Y02600D01*
X40800Y02900D02*
X40800Y02700D01*
X41150Y03050D02*
X41100Y03000D01*
X40800Y03300D02*
X40800Y03100D01*
X41150Y02250D02*
X41100Y02200D01*
X40800Y02500D02*
X40800Y02300D01*
X25300Y03150D02*
X25250Y03100D01*
X24950Y03400D02*
X24950Y03200D01*
X28400Y04850D02*
X28350Y04900D01*
X28650Y05200D02*
X28450Y05200D01*
X23650Y02100D02*
X23700Y02150D01*
X24000Y01850D02*
X24000Y02050D01*
X28250Y04100D02*
X28200Y04150D01*
X28500Y04450D02*
X28300Y04450D01*
X28550Y04150D02*
X28600Y04100D01*
X28300Y03800D02*
X28500Y03800D01*
X27100Y05550D02*
X27150Y05500D01*
X26850Y05200D02*
X27050Y05200D01*
X26750Y03850D02*
X26800Y03800D01*
X26500Y03500D02*
X26700Y03500D01*
X26050Y03150D02*
X26000Y03100D01*
X25700Y03400D02*
X25700Y03200D01*
X28750Y01850D02*
X28700Y01800D01*
X28400Y02100D02*
X28400Y01900D01*
X28750Y02650D02*
X28700Y02600D01*
X28400Y02900D02*
X28400Y02700D01*
X28750Y03050D02*
X28700Y03000D01*
X28400Y03300D02*
X28400Y03100D01*
X28750Y02250D02*
X28700Y02200D01*
X28400Y02500D02*
X28400Y02300D01*
X24750Y10350D02*
X24700Y10400D01*
X25000Y10700D02*
X24800Y10700D01*
X26850Y11050D02*
X26900Y11000D01*
X26600Y10700D02*
X26800Y10700D01*
X29950Y14650D02*
X30000Y14600D01*
X29700Y14300D02*
X29900Y14300D01*
X24350Y13150D02*
X24400Y13100D01*
X24100Y12800D02*
X24300Y12800D01*
X24350Y12450D02*
X24400Y12400D01*
X24100Y12100D02*
X24300Y12100D01*
X22050Y12650D02*
X22000Y12700D01*
X22300Y13000D02*
X22100Y13000D01*
X22050Y11850D02*
X22000Y11900D01*
X22300Y12200D02*
X22100Y12200D01*
X21950Y13350D02*
X22000Y13300D01*
X21700Y13000D02*
X21900Y13000D01*
X23850Y11250D02*
X23800Y11200D01*
X23500Y11500D02*
X23500Y11300D01*
X30550Y13550D02*
X30600Y13500D01*
X30300Y13200D02*
X30500Y13200D01*
X31350Y13550D02*
X31400Y13500D01*
X31100Y13200D02*
X31300Y13200D01*
X32150Y12150D02*
X32200Y12200D01*
X32500Y11900D02*
X32500Y12100D01*
X31750Y11450D02*
X31700Y11500D01*
X32000Y11800D02*
X31800Y11800D01*
X32450Y11750D02*
X32500Y11700D01*
X32200Y11400D02*
X32400Y11400D01*
X32150Y11050D02*
X32200Y11100D01*
X32500Y10800D02*
X32500Y11000D01*
X32150Y10550D02*
X32100Y10500D01*
X31800Y10800D02*
X31800Y10600D01*
X33550Y11850D02*
X33500Y11800D01*
X33200Y12100D02*
X33200Y11900D01*
X33538Y12873D02*
X33588Y12823D01*
X33288Y12523D02*
X33488Y12523D01*
X31650Y13750D02*
X31700Y13800D01*
X32000Y13500D02*
X32000Y13700D01*
X31650Y13350D02*
X31700Y13400D01*
X32000Y13100D02*
X32000Y13300D01*
X31650Y12950D02*
X31700Y13000D01*
X32000Y12700D02*
X32000Y12900D01*
X31650Y12550D02*
X31700Y12600D01*
X32000Y12300D02*
X32000Y12500D01*
X29750Y10650D02*
X29700Y10600D01*
X29400Y10900D02*
X29400Y10700D01*
X30650Y12850D02*
X30600Y12900D01*
X30900Y13200D02*
X30700Y13200D01*
X30250Y10850D02*
X30300Y10900D01*
X30600Y10600D02*
X30600Y10800D01*
X29650Y14650D02*
X29600Y14700D01*
X29900Y15000D02*
X29700Y15000D01*
X29650Y15350D02*
X29600Y15400D01*
X29900Y15700D02*
X29700Y15700D01*
X32550Y13250D02*
X32500Y13300D01*
X32800Y13600D02*
X32600Y13600D01*
X23100Y15950D02*
X23100Y16000D01*
X23100Y16000D02*
X23050Y16050D01*
X23050Y16050D02*
X23000Y16050D01*
X23000Y15550D02*
X23050Y15550D01*
X23050Y15550D02*
X23100Y15600D01*
X23100Y15600D02*
X23100Y15650D01*
X22600Y15650D02*
X22600Y15950D01*
X23200Y15650D02*
X23200Y15600D01*
X23200Y15600D02*
X23250Y15550D01*
X23250Y15550D02*
X23300Y15550D01*
X23300Y16050D02*
X23250Y16050D01*
X23250Y16050D02*
X23200Y16000D01*
X23200Y16000D02*
X23200Y15950D01*
X23700Y15950D02*
X23700Y15650D01*
X22100Y11350D02*
X22100Y11300D01*
X22100Y11300D02*
X22150Y11250D01*
X22150Y11250D02*
X22200Y11250D01*
X22200Y11750D02*
X22150Y11750D01*
X22150Y11750D02*
X22100Y11700D01*
X22100Y11700D02*
X22100Y11650D01*
X22600Y11650D02*
X22600Y11350D01*
X21650Y12200D02*
X21600Y12200D01*
X21600Y12200D02*
X21550Y12150D01*
X21550Y12150D02*
X21550Y12100D01*
X22050Y12100D02*
X22050Y12150D01*
X22050Y12150D02*
X22000Y12200D01*
X22000Y12200D02*
X21950Y12200D01*
X21950Y11700D02*
X21650Y11700D01*
X22650Y15500D02*
X22950Y15500D01*
X22950Y15500D02*
X23050Y15400D01*
X23050Y15400D02*
X23050Y15300D01*
X21950Y15300D02*
X21950Y15400D01*
X21950Y15400D02*
X22050Y15500D01*
X22050Y15500D02*
X22350Y15500D01*
X21950Y13700D02*
X21950Y13600D01*
X21950Y13600D02*
X22050Y13500D01*
X22050Y13500D02*
X22950Y13500D01*
X22950Y13500D02*
X23050Y13600D01*
X23050Y13600D02*
X23050Y13700D01*
X22100Y14500D02*
X22900Y14500D01*
X23950Y15500D02*
X24250Y15500D01*
X24250Y15500D02*
X24350Y15400D01*
X24350Y15400D02*
X24350Y15300D01*
X23250Y15300D02*
X23250Y15400D01*
X23250Y15400D02*
X23350Y15500D01*
X23350Y15500D02*
X23650Y15500D01*
X23250Y13700D02*
X23250Y13600D01*
X23250Y13600D02*
X23350Y13500D01*
X23350Y13500D02*
X24250Y13500D01*
X24250Y13500D02*
X24350Y13600D01*
X24350Y13600D02*
X24350Y13700D01*
X23400Y14500D02*
X24200Y14500D01*
G54D12*
X33679Y10900D02*
X33929Y10650D01*
X33929Y10650D02*
X36429Y10650D01*
X36429Y10650D02*
X36679Y10900D01*
X33679Y11900D02*
X33929Y12150D01*
X33929Y12150D02*
X36429Y12150D01*
X36429Y12150D02*
X36679Y11900D01*
G54D13*
X29362Y11396D02*
X29204Y11238D01*
X29204Y11238D02*
X24638Y11238D01*
X24638Y11238D02*
X24638Y15962D01*
X24638Y15962D02*
X29362Y15962D01*
X29362Y15962D02*
X29362Y11396D01*
G54D12*
X17300Y03950D02*
X17300Y05750D01*
X17300Y05750D02*
X20300Y05750D01*
X20300Y05750D02*
X20300Y03950D01*
X24600Y09700D02*
X24600Y07900D01*
X24600Y07900D02*
X21600Y07900D01*
X21600Y07900D02*
X21600Y09700D01*
X29700Y03950D02*
X29700Y05750D01*
X29700Y05750D02*
X32700Y05750D01*
X32700Y05750D02*
X32700Y03950D01*
X31200Y09700D02*
X31200Y07900D01*
X31200Y07900D02*
X28200Y07900D01*
X28200Y07900D02*
X28200Y09700D01*
X35900Y03950D02*
X35900Y05750D01*
X35900Y05750D02*
X38900Y05750D01*
X38900Y05750D02*
X38900Y03950D01*
X34500Y09700D02*
X34500Y07900D01*
X34500Y07900D02*
X31500Y07900D01*
X31500Y07900D02*
X31500Y09700D01*
X23500Y03950D02*
X23500Y05750D01*
X23500Y05750D02*
X26500Y05750D01*
X26500Y05750D02*
X26500Y03950D01*
X27900Y09700D02*
X27900Y07900D01*
X27900Y07900D02*
X24900Y07900D01*
X24900Y07900D02*
X24900Y09700D01*
X33700Y15900D02*
X35500Y15900D01*
X35500Y15900D02*
X35500Y12900D01*
X35500Y12900D02*
X33700Y12900D01*
X21673Y-00176D02*
X21476Y-00373D01*
X21476Y-00176D02*
X21772Y-00472D01*
X21673Y02776D02*
X21476Y02973D01*
X18327Y02776D02*
X18524Y02973D01*
X18524Y-00373D02*
X18327Y-00176D01*
X34073Y-00176D02*
X33876Y-00373D01*
X33876Y-00176D02*
X34172Y-00472D01*
X34073Y02776D02*
X33876Y02973D01*
X30727Y02776D02*
X30924Y02973D01*
X30924Y-00373D02*
X30727Y-00176D01*
X40273Y-00176D02*
X40076Y-00373D01*
X40076Y-00176D02*
X40372Y-00472D01*
X40273Y02776D02*
X40076Y02973D01*
X36927Y02776D02*
X37124Y02973D01*
X37124Y-00373D02*
X36927Y-00176D01*
X27873Y-00176D02*
X27676Y-00373D01*
X27676Y-00176D02*
X27972Y-00472D01*
X27873Y02776D02*
X27676Y02973D01*
X24527Y02776D02*
X24724Y02973D01*
X24724Y-00373D02*
X24527Y-00176D01*
G54D14*
X32091Y13967D02*
X30909Y13967D01*
X32091Y16033D02*
X30909Y16033D01*
G54D11*
X21900Y04400D02*
X21900Y03700D01*
X21900Y03700D02*
X20700Y03700D01*
X20700Y03700D02*
X20700Y04400D01*
X20700Y04400D02*
X21900Y04400D01*
X34300Y04400D02*
X34300Y03700D01*
X34300Y03700D02*
X33100Y03700D01*
X33100Y03700D02*
X33100Y04400D01*
X33100Y04400D02*
X34300Y04400D01*
X40500Y04400D02*
X40500Y03700D01*
X40500Y03700D02*
X39300Y03700D01*
X39300Y03700D02*
X39300Y04400D01*
X39300Y04400D02*
X40500Y04400D01*
X28100Y04400D02*
X28100Y03700D01*
X28100Y03700D02*
X26900Y03700D01*
X26900Y03700D02*
X26900Y04400D01*
X26900Y04400D02*
X28100Y04400D01*
X32950Y15950D02*
X33000Y16000D01*
X33300Y15700D02*
X33300Y15900D01*
X23650Y10450D02*
X23700Y10500D01*
X24000Y10200D02*
X24000Y10400D01*
G54D15*
X24239Y10961D02*
X24161Y10961D01*
X24279Y11000D02*
X24121Y11000D01*
X24318Y11039D02*
X24082Y11039D01*
X24357Y11079D02*
X24200Y10921D01*
X24200Y10921D02*
X24043Y11079D01*
X24043Y11079D02*
X24357Y11079D01*
G54D11*
X24050Y11500D02*
X24000Y11500D01*
X24000Y11500D02*
X23950Y11450D01*
X23950Y11450D02*
X23950Y11400D01*
X24450Y11400D02*
X24450Y11450D01*
X24450Y11450D02*
X24400Y11500D01*
X24400Y11500D02*
X24350Y11500D01*
G54D16*
X17687Y01590D02*
X17677Y01581D01*
X17649Y01571D01*
X17630Y01571D01*
X17601Y01581D01*
X17582Y01600D01*
X17573Y01619D01*
X17563Y01657D01*
X17563Y01685D01*
X17573Y01723D01*
X17582Y01742D01*
X17601Y01762D01*
X17630Y01771D01*
X17649Y01771D01*
X17677Y01762D01*
X17687Y01752D01*
X17754Y01771D02*
X17877Y01771D01*
X17811Y01695D01*
X17839Y01695D01*
X17858Y01685D01*
X17868Y01676D01*
X17877Y01657D01*
X17877Y01609D01*
X17868Y01590D01*
X17858Y01581D01*
X17839Y01571D01*
X17782Y01571D01*
X17763Y01581D01*
X17754Y01590D01*
X18058Y01771D02*
X17963Y01771D01*
X17953Y01676D01*
X17963Y01685D01*
X17982Y01695D01*
X18029Y01695D01*
X18048Y01685D01*
X18058Y01676D01*
X18067Y01657D01*
X18067Y01609D01*
X18058Y01590D01*
X18048Y01581D01*
X18029Y01571D01*
X17982Y01571D01*
X17963Y01581D01*
X17953Y01590D01*
X22574Y04393D02*
X22583Y04383D01*
X22593Y04355D01*
X22593Y04336D01*
X22583Y04307D01*
X22564Y04288D01*
X22545Y04279D01*
X22507Y04269D01*
X22479Y04269D01*
X22441Y04279D01*
X22422Y04288D01*
X22402Y04307D01*
X22393Y04336D01*
X22393Y04355D01*
X22402Y04383D01*
X22412Y04393D01*
X22393Y04460D02*
X22393Y04583D01*
X22469Y04517D01*
X22469Y04545D01*
X22479Y04564D01*
X22488Y04574D01*
X22507Y04583D01*
X22555Y04583D01*
X22574Y04574D01*
X22583Y04564D01*
X22593Y04545D01*
X22593Y04488D01*
X22583Y04469D01*
X22574Y04460D01*
X22479Y04697D02*
X22469Y04678D01*
X22460Y04669D01*
X22441Y04659D01*
X22431Y04659D01*
X22412Y04669D01*
X22402Y04678D01*
X22393Y04697D01*
X22393Y04735D01*
X22402Y04754D01*
X22412Y04764D01*
X22431Y04773D01*
X22441Y04773D01*
X22460Y04764D01*
X22469Y04754D01*
X22479Y04735D01*
X22479Y04697D01*
X22488Y04678D01*
X22498Y04669D01*
X22517Y04659D01*
X22555Y04659D01*
X22574Y04669D01*
X22583Y04678D01*
X22593Y04697D01*
X22593Y04735D01*
X22583Y04754D01*
X22574Y04764D01*
X22555Y04773D01*
X22517Y04773D01*
X22498Y04764D01*
X22488Y04754D01*
X22479Y04735D01*
X22585Y03685D02*
X22594Y03675D01*
X22604Y03647D01*
X22604Y03628D01*
X22594Y03599D01*
X22575Y03580D01*
X22556Y03571D01*
X22518Y03561D01*
X22490Y03561D01*
X22452Y03571D01*
X22433Y03580D01*
X22413Y03599D01*
X22404Y03628D01*
X22404Y03647D01*
X22413Y03675D01*
X22423Y03685D01*
X22471Y03856D02*
X22604Y03856D01*
X22394Y03809D02*
X22537Y03761D01*
X22537Y03885D01*
X22423Y03951D02*
X22413Y03961D01*
X22404Y03980D01*
X22404Y04027D01*
X22413Y04046D01*
X22423Y04056D01*
X22442Y04065D01*
X22461Y04065D01*
X22490Y04056D01*
X22604Y03942D01*
X22604Y04065D01*
X20617Y04395D02*
X20522Y04328D01*
X20617Y04281D02*
X20417Y04281D01*
X20417Y04357D01*
X20426Y04376D01*
X20436Y04385D01*
X20455Y04395D01*
X20484Y04395D01*
X20503Y04385D01*
X20512Y04376D01*
X20522Y04357D01*
X20522Y04281D01*
X20484Y04566D02*
X20617Y04566D01*
X20407Y04519D02*
X20550Y04471D01*
X20550Y04595D01*
X20617Y04775D02*
X20617Y04661D01*
X20617Y04718D02*
X20417Y04718D01*
X20446Y04699D01*
X20465Y04680D01*
X20474Y04661D01*
X20213Y03378D02*
X20222Y03368D01*
X20232Y03340D01*
X20232Y03321D01*
X20222Y03292D01*
X20203Y03273D01*
X20184Y03264D01*
X20146Y03254D01*
X20118Y03254D01*
X20080Y03264D01*
X20061Y03273D01*
X20041Y03292D01*
X20032Y03321D01*
X20032Y03340D01*
X20041Y03368D01*
X20051Y03378D01*
X20099Y03549D02*
X20232Y03549D01*
X20022Y03502D02*
X20165Y03454D01*
X20165Y03578D01*
X20232Y03758D02*
X20232Y03644D01*
X20232Y03701D02*
X20032Y03701D01*
X20061Y03682D01*
X20080Y03663D01*
X20089Y03644D01*
X22064Y01692D02*
X22054Y01683D01*
X22026Y01673D01*
X22007Y01673D01*
X21978Y01683D01*
X21959Y01702D01*
X21950Y01721D01*
X21940Y01759D01*
X21940Y01787D01*
X21950Y01825D01*
X21959Y01844D01*
X21978Y01864D01*
X22007Y01873D01*
X22026Y01873D01*
X22054Y01864D01*
X22064Y01854D01*
X22131Y01873D02*
X22254Y01873D01*
X22188Y01797D01*
X22216Y01797D01*
X22235Y01787D01*
X22245Y01778D01*
X22254Y01759D01*
X22254Y01711D01*
X22245Y01692D01*
X22235Y01683D01*
X22216Y01673D01*
X22159Y01673D01*
X22140Y01683D01*
X22131Y01692D01*
X22349Y01673D02*
X22387Y01673D01*
X22406Y01683D01*
X22416Y01692D01*
X22435Y01721D01*
X22444Y01759D01*
X22444Y01835D01*
X22435Y01854D01*
X22425Y01864D01*
X22406Y01873D01*
X22368Y01873D01*
X22349Y01864D01*
X22340Y01854D01*
X22330Y01835D01*
X22330Y01787D01*
X22340Y01768D01*
X22349Y01759D01*
X22368Y01749D01*
X22406Y01749D01*
X22425Y01759D01*
X22435Y01768D01*
X22444Y01787D01*
X30087Y01590D02*
X30077Y01581D01*
X30049Y01571D01*
X30030Y01571D01*
X30001Y01581D01*
X29982Y01600D01*
X29973Y01619D01*
X29963Y01657D01*
X29963Y01685D01*
X29973Y01723D01*
X29982Y01742D01*
X30001Y01762D01*
X30030Y01771D01*
X30049Y01771D01*
X30077Y01762D01*
X30087Y01752D01*
X30258Y01704D02*
X30258Y01571D01*
X30211Y01781D02*
X30163Y01638D01*
X30287Y01638D01*
X30344Y01771D02*
X30467Y01771D01*
X30401Y01695D01*
X30429Y01695D01*
X30448Y01685D01*
X30458Y01676D01*
X30467Y01657D01*
X30467Y01609D01*
X30458Y01590D01*
X30448Y01581D01*
X30429Y01571D01*
X30372Y01571D01*
X30353Y01581D01*
X30344Y01590D01*
X34974Y04393D02*
X34983Y04383D01*
X34993Y04355D01*
X34993Y04336D01*
X34983Y04307D01*
X34964Y04288D01*
X34945Y04279D01*
X34907Y04269D01*
X34879Y04269D01*
X34841Y04279D01*
X34822Y04288D01*
X34802Y04307D01*
X34793Y04336D01*
X34793Y04355D01*
X34802Y04383D01*
X34812Y04393D01*
X34860Y04564D02*
X34993Y04564D01*
X34783Y04517D02*
X34926Y04469D01*
X34926Y04593D01*
X34793Y04754D02*
X34793Y04716D01*
X34802Y04697D01*
X34812Y04688D01*
X34841Y04669D01*
X34879Y04659D01*
X34955Y04659D01*
X34974Y04669D01*
X34983Y04678D01*
X34993Y04697D01*
X34993Y04735D01*
X34983Y04754D01*
X34974Y04764D01*
X34955Y04773D01*
X34907Y04773D01*
X34888Y04764D01*
X34879Y04754D01*
X34869Y04735D01*
X34869Y04697D01*
X34879Y04678D01*
X34888Y04669D01*
X34907Y04659D01*
X34985Y03685D02*
X34994Y03675D01*
X35004Y03647D01*
X35004Y03628D01*
X34994Y03599D01*
X34975Y03580D01*
X34956Y03571D01*
X34918Y03561D01*
X34890Y03561D01*
X34852Y03571D01*
X34833Y03580D01*
X34813Y03599D01*
X34804Y03628D01*
X34804Y03647D01*
X34813Y03675D01*
X34823Y03685D01*
X34804Y03866D02*
X34804Y03771D01*
X34899Y03761D01*
X34890Y03771D01*
X34880Y03790D01*
X34880Y03837D01*
X34890Y03856D01*
X34899Y03866D01*
X34918Y03875D01*
X34966Y03875D01*
X34985Y03866D01*
X34994Y03856D01*
X35004Y03837D01*
X35004Y03790D01*
X34994Y03771D01*
X34985Y03761D01*
X34804Y03999D02*
X34804Y04018D01*
X34813Y04037D01*
X34823Y04046D01*
X34842Y04056D01*
X34880Y04065D01*
X34928Y04065D01*
X34966Y04056D01*
X34985Y04046D01*
X34994Y04037D01*
X35004Y04018D01*
X35004Y03999D01*
X34994Y03980D01*
X34985Y03970D01*
X34966Y03961D01*
X34928Y03951D01*
X34880Y03951D01*
X34842Y03961D01*
X34823Y03970D01*
X34813Y03980D01*
X34804Y03999D01*
X33017Y04395D02*
X32922Y04328D01*
X33017Y04281D02*
X32817Y04281D01*
X32817Y04357D01*
X32826Y04376D01*
X32836Y04385D01*
X32855Y04395D01*
X32884Y04395D01*
X32903Y04385D01*
X32912Y04376D01*
X32922Y04357D01*
X32922Y04281D01*
X32817Y04576D02*
X32817Y04481D01*
X32912Y04471D01*
X32903Y04481D01*
X32893Y04500D01*
X32893Y04547D01*
X32903Y04566D01*
X32912Y04576D01*
X32931Y04585D01*
X32979Y04585D01*
X32998Y04576D01*
X33007Y04566D01*
X33017Y04547D01*
X33017Y04500D01*
X33007Y04481D01*
X32998Y04471D01*
X32817Y04652D02*
X32817Y04775D01*
X32893Y04709D01*
X32893Y04737D01*
X32903Y04756D01*
X32912Y04766D01*
X32931Y04775D01*
X32979Y04775D01*
X32998Y04766D01*
X33007Y04756D01*
X33017Y04737D01*
X33017Y04680D01*
X33007Y04661D01*
X32998Y04652D01*
X32613Y03378D02*
X32622Y03368D01*
X32632Y03340D01*
X32632Y03321D01*
X32622Y03292D01*
X32603Y03273D01*
X32584Y03264D01*
X32546Y03254D01*
X32518Y03254D01*
X32480Y03264D01*
X32461Y03273D01*
X32441Y03292D01*
X32432Y03321D01*
X32432Y03340D01*
X32441Y03368D01*
X32451Y03378D01*
X32499Y03549D02*
X32632Y03549D01*
X32422Y03502D02*
X32565Y03454D01*
X32565Y03578D01*
X32632Y03663D02*
X32632Y03701D01*
X32622Y03720D01*
X32613Y03730D01*
X32584Y03749D01*
X32546Y03758D01*
X32470Y03758D01*
X32451Y03749D01*
X32441Y03739D01*
X32432Y03720D01*
X32432Y03682D01*
X32441Y03663D01*
X32451Y03654D01*
X32470Y03644D01*
X32518Y03644D01*
X32537Y03654D01*
X32546Y03663D01*
X32556Y03682D01*
X32556Y03720D01*
X32546Y03739D01*
X32537Y03749D01*
X32518Y03758D01*
X34464Y01692D02*
X34454Y01683D01*
X34426Y01673D01*
X34407Y01673D01*
X34378Y01683D01*
X34359Y01702D01*
X34350Y01721D01*
X34340Y01759D01*
X34340Y01787D01*
X34350Y01825D01*
X34359Y01844D01*
X34378Y01864D01*
X34407Y01873D01*
X34426Y01873D01*
X34454Y01864D01*
X34464Y01854D01*
X34635Y01806D02*
X34635Y01673D01*
X34588Y01883D02*
X34540Y01740D01*
X34664Y01740D01*
X34721Y01873D02*
X34854Y01873D01*
X34768Y01673D01*
X36287Y01590D02*
X36277Y01581D01*
X36249Y01571D01*
X36230Y01571D01*
X36201Y01581D01*
X36182Y01600D01*
X36173Y01619D01*
X36163Y01657D01*
X36163Y01685D01*
X36173Y01723D01*
X36182Y01742D01*
X36201Y01762D01*
X36230Y01771D01*
X36249Y01771D01*
X36277Y01762D01*
X36287Y01752D01*
X36468Y01771D02*
X36373Y01771D01*
X36363Y01676D01*
X36373Y01685D01*
X36392Y01695D01*
X36439Y01695D01*
X36458Y01685D01*
X36468Y01676D01*
X36477Y01657D01*
X36477Y01609D01*
X36468Y01590D01*
X36458Y01581D01*
X36439Y01571D01*
X36392Y01571D01*
X36373Y01581D01*
X36363Y01590D01*
X36667Y01571D02*
X36553Y01571D01*
X36610Y01571D02*
X36610Y01771D01*
X36591Y01742D01*
X36572Y01723D01*
X36553Y01714D01*
X41174Y04393D02*
X41183Y04383D01*
X41193Y04355D01*
X41193Y04336D01*
X41183Y04307D01*
X41164Y04288D01*
X41145Y04279D01*
X41107Y04269D01*
X41079Y04269D01*
X41041Y04279D01*
X41022Y04288D01*
X41002Y04307D01*
X40993Y04336D01*
X40993Y04355D01*
X41002Y04383D01*
X41012Y04393D01*
X40993Y04574D02*
X40993Y04479D01*
X41088Y04469D01*
X41079Y04479D01*
X41069Y04498D01*
X41069Y04545D01*
X41079Y04564D01*
X41088Y04574D01*
X41107Y04583D01*
X41155Y04583D01*
X41174Y04574D01*
X41183Y04564D01*
X41193Y04545D01*
X41193Y04498D01*
X41183Y04479D01*
X41174Y04469D01*
X41060Y04754D02*
X41193Y04754D01*
X40983Y04707D02*
X41126Y04659D01*
X41126Y04783D01*
X41185Y03685D02*
X41194Y03675D01*
X41204Y03647D01*
X41204Y03628D01*
X41194Y03599D01*
X41175Y03580D01*
X41156Y03571D01*
X41118Y03561D01*
X41090Y03561D01*
X41052Y03571D01*
X41033Y03580D01*
X41013Y03599D01*
X41004Y03628D01*
X41004Y03647D01*
X41013Y03675D01*
X41023Y03685D01*
X41004Y03866D02*
X41004Y03771D01*
X41099Y03761D01*
X41090Y03771D01*
X41080Y03790D01*
X41080Y03837D01*
X41090Y03856D01*
X41099Y03866D01*
X41118Y03875D01*
X41166Y03875D01*
X41185Y03866D01*
X41194Y03856D01*
X41204Y03837D01*
X41204Y03790D01*
X41194Y03771D01*
X41185Y03761D01*
X41090Y03989D02*
X41080Y03970D01*
X41071Y03961D01*
X41052Y03951D01*
X41042Y03951D01*
X41023Y03961D01*
X41013Y03970D01*
X41004Y03989D01*
X41004Y04027D01*
X41013Y04046D01*
X41023Y04056D01*
X41042Y04065D01*
X41052Y04065D01*
X41071Y04056D01*
X41080Y04046D01*
X41090Y04027D01*
X41090Y03989D01*
X41099Y03970D01*
X41109Y03961D01*
X41128Y03951D01*
X41166Y03951D01*
X41185Y03961D01*
X41194Y03970D01*
X41204Y03989D01*
X41204Y04027D01*
X41194Y04046D01*
X41185Y04056D01*
X41166Y04065D01*
X41128Y04065D01*
X41109Y04056D01*
X41099Y04046D01*
X41090Y04027D01*
X39217Y04395D02*
X39122Y04328D01*
X39217Y04281D02*
X39017Y04281D01*
X39017Y04357D01*
X39026Y04376D01*
X39036Y04385D01*
X39055Y04395D01*
X39084Y04395D01*
X39103Y04385D01*
X39112Y04376D01*
X39122Y04357D01*
X39122Y04281D01*
X39017Y04566D02*
X39017Y04528D01*
X39026Y04509D01*
X39036Y04500D01*
X39065Y04481D01*
X39103Y04471D01*
X39179Y04471D01*
X39198Y04481D01*
X39207Y04490D01*
X39217Y04509D01*
X39217Y04547D01*
X39207Y04566D01*
X39198Y04576D01*
X39179Y04585D01*
X39131Y04585D01*
X39112Y04576D01*
X39103Y04566D01*
X39093Y04547D01*
X39093Y04509D01*
X39103Y04490D01*
X39112Y04481D01*
X39131Y04471D01*
X39017Y04766D02*
X39017Y04671D01*
X39112Y04661D01*
X39103Y04671D01*
X39093Y04690D01*
X39093Y04737D01*
X39103Y04756D01*
X39112Y04766D01*
X39131Y04775D01*
X39179Y04775D01*
X39198Y04766D01*
X39207Y04756D01*
X39217Y04737D01*
X39217Y04690D01*
X39207Y04671D01*
X39198Y04661D01*
X38813Y03378D02*
X38822Y03368D01*
X38832Y03340D01*
X38832Y03321D01*
X38822Y03292D01*
X38803Y03273D01*
X38784Y03264D01*
X38746Y03254D01*
X38718Y03254D01*
X38680Y03264D01*
X38661Y03273D01*
X38641Y03292D01*
X38632Y03321D01*
X38632Y03340D01*
X38641Y03368D01*
X38651Y03378D01*
X38632Y03559D02*
X38632Y03464D01*
X38727Y03454D01*
X38718Y03464D01*
X38708Y03483D01*
X38708Y03530D01*
X38718Y03549D01*
X38727Y03559D01*
X38746Y03568D01*
X38794Y03568D01*
X38813Y03559D01*
X38822Y03549D01*
X38832Y03530D01*
X38832Y03483D01*
X38822Y03464D01*
X38813Y03454D01*
X38632Y03635D02*
X38632Y03768D01*
X38832Y03682D01*
X40664Y01692D02*
X40654Y01683D01*
X40626Y01673D01*
X40607Y01673D01*
X40578Y01683D01*
X40559Y01702D01*
X40550Y01721D01*
X40540Y01759D01*
X40540Y01787D01*
X40550Y01825D01*
X40559Y01844D01*
X40578Y01864D01*
X40607Y01873D01*
X40626Y01873D01*
X40654Y01864D01*
X40664Y01854D01*
X40845Y01873D02*
X40750Y01873D01*
X40740Y01778D01*
X40750Y01787D01*
X40769Y01797D01*
X40816Y01797D01*
X40835Y01787D01*
X40845Y01778D01*
X40854Y01759D01*
X40854Y01711D01*
X40845Y01692D01*
X40835Y01683D01*
X40816Y01673D01*
X40769Y01673D01*
X40750Y01683D01*
X40740Y01692D01*
X41035Y01873D02*
X40940Y01873D01*
X40930Y01778D01*
X40940Y01787D01*
X40959Y01797D01*
X41006Y01797D01*
X41025Y01787D01*
X41035Y01778D01*
X41044Y01759D01*
X41044Y01711D01*
X41035Y01692D01*
X41025Y01683D01*
X41006Y01673D01*
X40959Y01673D01*
X40940Y01683D01*
X40930Y01692D01*
X23887Y01590D02*
X23877Y01581D01*
X23849Y01571D01*
X23830Y01571D01*
X23801Y01581D01*
X23782Y01600D01*
X23773Y01619D01*
X23763Y01657D01*
X23763Y01685D01*
X23773Y01723D01*
X23782Y01742D01*
X23801Y01762D01*
X23830Y01771D01*
X23849Y01771D01*
X23877Y01762D01*
X23887Y01752D01*
X24068Y01771D02*
X23973Y01771D01*
X23963Y01676D01*
X23973Y01685D01*
X23992Y01695D01*
X24039Y01695D01*
X24058Y01685D01*
X24068Y01676D01*
X24077Y01657D01*
X24077Y01609D01*
X24068Y01590D01*
X24058Y01581D01*
X24039Y01571D01*
X23992Y01571D01*
X23973Y01581D01*
X23963Y01590D01*
X24172Y01571D02*
X24210Y01571D01*
X24229Y01581D01*
X24239Y01590D01*
X24258Y01619D01*
X24267Y01657D01*
X24267Y01733D01*
X24258Y01752D01*
X24248Y01762D01*
X24229Y01771D01*
X24191Y01771D01*
X24172Y01762D01*
X24163Y01752D01*
X24153Y01733D01*
X24153Y01685D01*
X24163Y01666D01*
X24172Y01657D01*
X24191Y01647D01*
X24229Y01647D01*
X24248Y01657D01*
X24258Y01666D01*
X24267Y01685D01*
X28774Y04393D02*
X28783Y04383D01*
X28793Y04355D01*
X28793Y04336D01*
X28783Y04307D01*
X28764Y04288D01*
X28745Y04279D01*
X28707Y04269D01*
X28679Y04269D01*
X28641Y04279D01*
X28622Y04288D01*
X28602Y04307D01*
X28593Y04336D01*
X28593Y04355D01*
X28602Y04383D01*
X28612Y04393D01*
X28593Y04564D02*
X28593Y04526D01*
X28602Y04507D01*
X28612Y04498D01*
X28641Y04479D01*
X28679Y04469D01*
X28755Y04469D01*
X28774Y04479D01*
X28783Y04488D01*
X28793Y04507D01*
X28793Y04545D01*
X28783Y04564D01*
X28774Y04574D01*
X28755Y04583D01*
X28707Y04583D01*
X28688Y04574D01*
X28679Y04564D01*
X28669Y04545D01*
X28669Y04507D01*
X28679Y04488D01*
X28688Y04479D01*
X28707Y04469D01*
X28612Y04659D02*
X28602Y04669D01*
X28593Y04688D01*
X28593Y04735D01*
X28602Y04754D01*
X28612Y04764D01*
X28631Y04773D01*
X28650Y04773D01*
X28679Y04764D01*
X28793Y04650D01*
X28793Y04773D01*
X28785Y03685D02*
X28794Y03675D01*
X28804Y03647D01*
X28804Y03628D01*
X28794Y03599D01*
X28775Y03580D01*
X28756Y03571D01*
X28718Y03561D01*
X28690Y03561D01*
X28652Y03571D01*
X28633Y03580D01*
X28613Y03599D01*
X28604Y03628D01*
X28604Y03647D01*
X28613Y03675D01*
X28623Y03685D01*
X28604Y03856D02*
X28604Y03818D01*
X28613Y03799D01*
X28623Y03790D01*
X28652Y03771D01*
X28690Y03761D01*
X28766Y03761D01*
X28785Y03771D01*
X28794Y03780D01*
X28804Y03799D01*
X28804Y03837D01*
X28794Y03856D01*
X28785Y03866D01*
X28766Y03875D01*
X28718Y03875D01*
X28699Y03866D01*
X28690Y03856D01*
X28680Y03837D01*
X28680Y03799D01*
X28690Y03780D01*
X28699Y03771D01*
X28718Y03761D01*
X28604Y04046D02*
X28604Y04008D01*
X28613Y03989D01*
X28623Y03980D01*
X28652Y03961D01*
X28690Y03951D01*
X28766Y03951D01*
X28785Y03961D01*
X28794Y03970D01*
X28804Y03989D01*
X28804Y04027D01*
X28794Y04046D01*
X28785Y04056D01*
X28766Y04065D01*
X28718Y04065D01*
X28699Y04056D01*
X28690Y04046D01*
X28680Y04027D01*
X28680Y03989D01*
X28690Y03970D01*
X28699Y03961D01*
X28718Y03951D01*
X26817Y04395D02*
X26722Y04328D01*
X26817Y04281D02*
X26617Y04281D01*
X26617Y04357D01*
X26626Y04376D01*
X26636Y04385D01*
X26655Y04395D01*
X26684Y04395D01*
X26703Y04385D01*
X26712Y04376D01*
X26722Y04357D01*
X26722Y04281D01*
X26617Y04462D02*
X26617Y04595D01*
X26817Y04509D01*
X26617Y04652D02*
X26617Y04785D01*
X26817Y04699D01*
X26413Y03378D02*
X26422Y03368D01*
X26432Y03340D01*
X26432Y03321D01*
X26422Y03292D01*
X26403Y03273D01*
X26384Y03264D01*
X26346Y03254D01*
X26318Y03254D01*
X26280Y03264D01*
X26261Y03273D01*
X26241Y03292D01*
X26232Y03321D01*
X26232Y03340D01*
X26241Y03368D01*
X26251Y03378D01*
X26232Y03549D02*
X26232Y03511D01*
X26241Y03492D01*
X26251Y03483D01*
X26280Y03464D01*
X26318Y03454D01*
X26394Y03454D01*
X26413Y03464D01*
X26422Y03473D01*
X26432Y03492D01*
X26432Y03530D01*
X26422Y03549D01*
X26413Y03559D01*
X26394Y03568D01*
X26346Y03568D01*
X26327Y03559D01*
X26318Y03549D01*
X26308Y03530D01*
X26308Y03492D01*
X26318Y03473D01*
X26327Y03464D01*
X26346Y03454D01*
X26232Y03749D02*
X26232Y03654D01*
X26327Y03644D01*
X26318Y03654D01*
X26308Y03673D01*
X26308Y03720D01*
X26318Y03739D01*
X26327Y03749D01*
X26346Y03758D01*
X26394Y03758D01*
X26413Y03749D01*
X26422Y03739D01*
X26432Y03720D01*
X26432Y03673D01*
X26422Y03654D01*
X26413Y03644D01*
X28264Y01692D02*
X28254Y01683D01*
X28226Y01673D01*
X28207Y01673D01*
X28178Y01683D01*
X28159Y01702D01*
X28150Y01721D01*
X28140Y01759D01*
X28140Y01787D01*
X28150Y01825D01*
X28159Y01844D01*
X28178Y01864D01*
X28207Y01873D01*
X28226Y01873D01*
X28254Y01864D01*
X28264Y01854D01*
X28435Y01873D02*
X28397Y01873D01*
X28378Y01864D01*
X28369Y01854D01*
X28350Y01825D01*
X28340Y01787D01*
X28340Y01711D01*
X28350Y01692D01*
X28359Y01683D01*
X28378Y01673D01*
X28416Y01673D01*
X28435Y01683D01*
X28445Y01692D01*
X28454Y01711D01*
X28454Y01759D01*
X28445Y01778D01*
X28435Y01787D01*
X28416Y01797D01*
X28378Y01797D01*
X28359Y01787D01*
X28350Y01778D01*
X28340Y01759D01*
X28521Y01873D02*
X28644Y01873D01*
X28578Y01797D01*
X28606Y01797D01*
X28625Y01787D01*
X28635Y01778D01*
X28644Y01759D01*
X28644Y01711D01*
X28635Y01692D01*
X28625Y01683D01*
X28606Y01673D01*
X28549Y01673D01*
X28530Y01683D01*
X28521Y01692D01*
X24421Y10544D02*
X24421Y10677D01*
X24621Y10591D01*
X24488Y10753D02*
X24688Y10753D01*
X24497Y10753D02*
X24488Y10772D01*
X24488Y10810D01*
X24497Y10829D01*
X24507Y10838D01*
X24526Y10848D01*
X24583Y10848D01*
X24602Y10838D01*
X24611Y10829D01*
X24621Y10810D01*
X24621Y10772D01*
X24611Y10753D01*
X24488Y10905D02*
X24488Y10981D01*
X24621Y10934D02*
X24450Y10934D01*
X24430Y10943D01*
X24421Y10962D01*
X24421Y10981D01*
X26938Y10365D02*
X27071Y10365D01*
X26861Y10318D02*
X27004Y10270D01*
X27004Y10394D01*
X27052Y10470D02*
X27061Y10479D01*
X27071Y10470D01*
X27061Y10460D01*
X27052Y10470D01*
X27071Y10470D01*
X26871Y10546D02*
X26871Y10679D01*
X27071Y10593D01*
X26938Y10755D02*
X27138Y10755D01*
X26947Y10755D02*
X26938Y10774D01*
X26938Y10812D01*
X26947Y10831D01*
X26957Y10840D01*
X26976Y10850D01*
X27033Y10850D01*
X27052Y10840D01*
X27061Y10831D01*
X27071Y10812D01*
X27071Y10774D01*
X27061Y10755D01*
X26966Y11002D02*
X26966Y10936D01*
X27071Y10936D02*
X26871Y10936D01*
X26871Y11031D01*
X29867Y13454D02*
X29772Y13387D01*
X29867Y13340D02*
X29667Y13340D01*
X29667Y13416D01*
X29676Y13435D01*
X29686Y13444D01*
X29705Y13454D01*
X29734Y13454D01*
X29753Y13444D01*
X29762Y13435D01*
X29772Y13416D01*
X29772Y13340D01*
X29667Y13521D02*
X29667Y13644D01*
X29743Y13578D01*
X29743Y13606D01*
X29753Y13625D01*
X29762Y13635D01*
X29781Y13644D01*
X29829Y13644D01*
X29848Y13635D01*
X29857Y13625D01*
X29867Y13606D01*
X29867Y13549D01*
X29857Y13530D01*
X29848Y13521D01*
X29667Y13768D02*
X29667Y13787D01*
X29676Y13806D01*
X29686Y13815D01*
X29705Y13825D01*
X29743Y13834D01*
X29791Y13834D01*
X29829Y13825D01*
X29848Y13815D01*
X29857Y13806D01*
X29867Y13787D01*
X29867Y13768D01*
X29857Y13749D01*
X29848Y13739D01*
X29829Y13730D01*
X29791Y13720D01*
X29743Y13720D01*
X29705Y13730D01*
X29686Y13739D01*
X29676Y13749D01*
X29667Y13768D01*
X24008Y12858D02*
X23913Y12791D01*
X24008Y12744D02*
X23808Y12744D01*
X23808Y12820D01*
X23817Y12839D01*
X23827Y12848D01*
X23846Y12858D01*
X23875Y12858D01*
X23894Y12848D01*
X23903Y12839D01*
X23913Y12820D01*
X23913Y12744D01*
X24008Y13048D02*
X24008Y12934D01*
X24008Y12991D02*
X23808Y12991D01*
X23837Y12972D01*
X23856Y12953D01*
X23865Y12934D01*
X23808Y13229D02*
X23808Y13134D01*
X23903Y13124D01*
X23894Y13134D01*
X23884Y13153D01*
X23884Y13200D01*
X23894Y13219D01*
X23903Y13229D01*
X23922Y13238D01*
X23970Y13238D01*
X23989Y13229D01*
X23998Y13219D01*
X24008Y13200D01*
X24008Y13153D01*
X23998Y13134D01*
X23989Y13124D01*
X23997Y11887D02*
X23902Y11820D01*
X23997Y11773D02*
X23797Y11773D01*
X23797Y11849D01*
X23806Y11868D01*
X23816Y11877D01*
X23835Y11887D01*
X23864Y11887D01*
X23883Y11877D01*
X23892Y11868D01*
X23902Y11849D01*
X23902Y11773D01*
X23997Y12077D02*
X23997Y11963D01*
X23997Y12020D02*
X23797Y12020D01*
X23826Y12001D01*
X23845Y11982D01*
X23854Y11963D01*
X23797Y12248D02*
X23797Y12210D01*
X23806Y12191D01*
X23816Y12182D01*
X23845Y12163D01*
X23883Y12153D01*
X23959Y12153D01*
X23978Y12163D01*
X23987Y12172D01*
X23997Y12191D01*
X23997Y12229D01*
X23987Y12248D01*
X23978Y12258D01*
X23959Y12267D01*
X23911Y12267D01*
X23892Y12258D01*
X23883Y12248D01*
X23873Y12229D01*
X23873Y12191D01*
X23883Y12172D01*
X23892Y12163D01*
X23911Y12153D01*
X22601Y11926D02*
X22506Y11859D01*
X22601Y11812D02*
X22401Y11812D01*
X22401Y11888D01*
X22410Y11907D01*
X22420Y11916D01*
X22439Y11926D01*
X22468Y11926D01*
X22487Y11916D01*
X22496Y11907D01*
X22506Y11888D01*
X22506Y11812D01*
X22601Y12116D02*
X22601Y12002D01*
X22601Y12059D02*
X22401Y12059D01*
X22430Y12040D01*
X22449Y12021D01*
X22458Y12002D01*
X22401Y12183D02*
X22401Y12306D01*
X22477Y12240D01*
X22477Y12268D01*
X22487Y12287D01*
X22496Y12297D01*
X22515Y12306D01*
X22563Y12306D01*
X22582Y12297D01*
X22591Y12287D01*
X22601Y12268D01*
X22601Y12211D01*
X22591Y12192D01*
X22582Y12183D01*
X21785Y13465D02*
X21794Y13455D01*
X21804Y13427D01*
X21804Y13408D01*
X21794Y13379D01*
X21775Y13360D01*
X21756Y13351D01*
X21718Y13341D01*
X21690Y13341D01*
X21652Y13351D01*
X21633Y13360D01*
X21613Y13379D01*
X21604Y13408D01*
X21604Y13427D01*
X21613Y13455D01*
X21623Y13465D01*
X21804Y13655D02*
X21804Y13541D01*
X21804Y13598D02*
X21604Y13598D01*
X21633Y13579D01*
X21652Y13560D01*
X21661Y13541D01*
X21804Y13845D02*
X21804Y13731D01*
X21804Y13788D02*
X21604Y13788D01*
X21633Y13769D01*
X21652Y13750D01*
X21661Y13731D01*
X23477Y11076D02*
X23467Y11067D01*
X23439Y11057D01*
X23420Y11057D01*
X23391Y11067D01*
X23372Y11086D01*
X23363Y11105D01*
X23353Y11143D01*
X23353Y11171D01*
X23363Y11209D01*
X23372Y11228D01*
X23391Y11248D01*
X23420Y11257D01*
X23439Y11257D01*
X23467Y11248D01*
X23477Y11238D01*
X23544Y11257D02*
X23667Y11257D01*
X23601Y11181D01*
X23629Y11181D01*
X23648Y11171D01*
X23658Y11162D01*
X23667Y11143D01*
X23667Y11095D01*
X23658Y11076D01*
X23648Y11067D01*
X23629Y11057D01*
X23572Y11057D01*
X23553Y11067D01*
X23544Y11076D01*
X32663Y11600D02*
X32568Y11600D01*
X32568Y11800D01*
X32815Y11733D02*
X32815Y11600D01*
X32768Y11810D02*
X32720Y11667D01*
X32844Y11667D01*
X32069Y11115D02*
X32069Y11020D01*
X31869Y11020D01*
X31869Y11277D02*
X31869Y11182D01*
X31964Y11172D01*
X31955Y11182D01*
X31945Y11201D01*
X31945Y11248D01*
X31955Y11267D01*
X31964Y11277D01*
X31983Y11286D01*
X32031Y11286D01*
X32050Y11277D01*
X32059Y11267D01*
X32069Y11248D01*
X32069Y11201D01*
X32059Y11182D01*
X32050Y11172D01*
X32541Y10547D02*
X32531Y10538D01*
X32503Y10528D01*
X32484Y10528D01*
X32455Y10538D01*
X32436Y10557D01*
X32427Y10576D01*
X32417Y10614D01*
X32417Y10642D01*
X32427Y10680D01*
X32436Y10699D01*
X32455Y10719D01*
X32484Y10728D01*
X32503Y10728D01*
X32531Y10719D01*
X32541Y10709D01*
X32617Y10709D02*
X32627Y10719D01*
X32646Y10728D01*
X32693Y10728D01*
X32712Y10719D01*
X32722Y10709D01*
X32731Y10690D01*
X32731Y10671D01*
X32722Y10642D01*
X32608Y10528D01*
X32731Y10528D01*
X32845Y10642D02*
X32826Y10652D01*
X32817Y10661D01*
X32807Y10680D01*
X32807Y10690D01*
X32817Y10709D01*
X32826Y10719D01*
X32845Y10728D01*
X32883Y10728D01*
X32902Y10719D01*
X32912Y10709D01*
X32921Y10690D01*
X32921Y10680D01*
X32912Y10661D01*
X32902Y10652D01*
X32883Y10642D01*
X32845Y10642D01*
X32826Y10633D01*
X32817Y10623D01*
X32807Y10604D01*
X32807Y10566D01*
X32817Y10547D01*
X32826Y10538D01*
X32845Y10528D01*
X32883Y10528D01*
X32902Y10538D01*
X32912Y10547D01*
X32921Y10566D01*
X32921Y10604D01*
X32912Y10623D01*
X32902Y10633D01*
X32883Y10642D01*
X31727Y10371D02*
X31717Y10362D01*
X31689Y10352D01*
X31670Y10352D01*
X31641Y10362D01*
X31622Y10381D01*
X31613Y10400D01*
X31603Y10438D01*
X31603Y10466D01*
X31613Y10504D01*
X31622Y10523D01*
X31641Y10543D01*
X31670Y10552D01*
X31689Y10552D01*
X31717Y10543D01*
X31727Y10533D01*
X31794Y10552D02*
X31917Y10552D01*
X31851Y10476D01*
X31879Y10476D01*
X31898Y10466D01*
X31908Y10457D01*
X31917Y10438D01*
X31917Y10390D01*
X31908Y10371D01*
X31898Y10362D01*
X31879Y10352D01*
X31822Y10352D01*
X31803Y10362D01*
X31794Y10371D01*
X31993Y10533D02*
X32003Y10543D01*
X32022Y10552D01*
X32069Y10552D01*
X32088Y10543D01*
X32098Y10533D01*
X32107Y10514D01*
X32107Y10495D01*
X32098Y10466D01*
X31984Y10352D01*
X32107Y10352D01*
X33787Y12303D02*
X33796Y12293D01*
X33806Y12265D01*
X33806Y12246D01*
X33796Y12217D01*
X33777Y12198D01*
X33758Y12189D01*
X33720Y12179D01*
X33692Y12179D01*
X33654Y12189D01*
X33635Y12198D01*
X33615Y12217D01*
X33606Y12246D01*
X33606Y12265D01*
X33615Y12293D01*
X33625Y12303D01*
X33606Y12370D02*
X33606Y12493D01*
X33682Y12427D01*
X33682Y12455D01*
X33692Y12474D01*
X33701Y12484D01*
X33720Y12493D01*
X33768Y12493D01*
X33787Y12484D01*
X33796Y12474D01*
X33806Y12455D01*
X33806Y12398D01*
X33796Y12379D01*
X33787Y12370D01*
X33806Y12683D02*
X33806Y12569D01*
X33806Y12626D02*
X33606Y12626D01*
X33635Y12607D01*
X33654Y12588D01*
X33663Y12569D01*
X31954Y13821D02*
X31859Y13821D01*
X31859Y14021D01*
X32106Y14021D02*
X32068Y14021D01*
X32049Y14012D01*
X32040Y14002D01*
X32021Y13973D01*
X32011Y13935D01*
X32011Y13859D01*
X32021Y13840D01*
X32030Y13831D01*
X32049Y13821D01*
X32087Y13821D01*
X32106Y13831D01*
X32116Y13840D01*
X32125Y13859D01*
X32125Y13907D01*
X32116Y13926D01*
X32106Y13935D01*
X32087Y13945D01*
X32049Y13945D01*
X32030Y13935D01*
X32021Y13926D01*
X32011Y13907D01*
X32619Y13133D02*
X32609Y13124D01*
X32581Y13114D01*
X32562Y13114D01*
X32533Y13124D01*
X32514Y13143D01*
X32505Y13162D01*
X32495Y13200D01*
X32495Y13228D01*
X32505Y13266D01*
X32514Y13285D01*
X32533Y13305D01*
X32562Y13314D01*
X32581Y13314D01*
X32609Y13305D01*
X32619Y13295D01*
X32686Y13314D02*
X32809Y13314D01*
X32743Y13238D01*
X32771Y13238D01*
X32790Y13228D01*
X32800Y13219D01*
X32809Y13200D01*
X32809Y13152D01*
X32800Y13133D01*
X32790Y13124D01*
X32771Y13114D01*
X32714Y13114D01*
X32695Y13124D01*
X32686Y13133D01*
X32933Y13314D02*
X32952Y13314D01*
X32971Y13305D01*
X32980Y13295D01*
X32990Y13276D01*
X32999Y13238D01*
X32999Y13190D01*
X32990Y13152D01*
X32980Y13133D01*
X32971Y13124D01*
X32952Y13114D01*
X32933Y13114D01*
X32914Y13124D01*
X32904Y13133D01*
X32895Y13152D01*
X32885Y13190D01*
X32885Y13238D01*
X32895Y13276D01*
X32904Y13295D01*
X32914Y13305D01*
X32933Y13314D01*
X32612Y12740D02*
X32602Y12731D01*
X32574Y12721D01*
X32555Y12721D01*
X32526Y12731D01*
X32507Y12750D01*
X32498Y12769D01*
X32488Y12807D01*
X32488Y12835D01*
X32498Y12873D01*
X32507Y12892D01*
X32526Y12912D01*
X32555Y12921D01*
X32574Y12921D01*
X32602Y12912D01*
X32612Y12902D01*
X32688Y12902D02*
X32698Y12912D01*
X32717Y12921D01*
X32764Y12921D01*
X32783Y12912D01*
X32793Y12902D01*
X32802Y12883D01*
X32802Y12864D01*
X32793Y12835D01*
X32679Y12721D01*
X32802Y12721D01*
X32869Y12921D02*
X33002Y12921D01*
X32916Y12721D01*
X32584Y12354D02*
X32574Y12345D01*
X32546Y12335D01*
X32527Y12335D01*
X32498Y12345D01*
X32479Y12364D01*
X32470Y12383D01*
X32460Y12421D01*
X32460Y12449D01*
X32470Y12487D01*
X32479Y12506D01*
X32498Y12526D01*
X32527Y12535D01*
X32546Y12535D01*
X32574Y12526D01*
X32584Y12516D01*
X32660Y12516D02*
X32670Y12526D01*
X32689Y12535D01*
X32736Y12535D01*
X32755Y12526D01*
X32765Y12516D01*
X32774Y12497D01*
X32774Y12478D01*
X32765Y12449D01*
X32651Y12335D01*
X32774Y12335D01*
X32945Y12535D02*
X32907Y12535D01*
X32888Y12526D01*
X32879Y12516D01*
X32860Y12487D01*
X32850Y12449D01*
X32850Y12373D01*
X32860Y12354D01*
X32869Y12345D01*
X32888Y12335D01*
X32926Y12335D01*
X32945Y12345D01*
X32955Y12354D01*
X32964Y12373D01*
X32964Y12421D01*
X32955Y12440D01*
X32945Y12449D01*
X32926Y12459D01*
X32888Y12459D01*
X32869Y12449D01*
X32860Y12440D01*
X32850Y12421D01*
X29273Y11005D02*
X29206Y11100D01*
X29159Y11005D02*
X29159Y11205D01*
X29235Y11205D01*
X29254Y11196D01*
X29263Y11186D01*
X29273Y11167D01*
X29273Y11138D01*
X29263Y11119D01*
X29254Y11110D01*
X29235Y11100D01*
X29159Y11100D01*
X29349Y11186D02*
X29359Y11196D01*
X29378Y11205D01*
X29425Y11205D01*
X29444Y11196D01*
X29454Y11186D01*
X29463Y11167D01*
X29463Y11148D01*
X29454Y11119D01*
X29340Y11005D01*
X29463Y11005D01*
X29653Y11005D02*
X29539Y11005D01*
X29596Y11005D02*
X29596Y11205D01*
X29577Y11176D01*
X29558Y11157D01*
X29539Y11148D01*
X29138Y10581D02*
X29148Y10591D01*
X29167Y10600D01*
X29214Y10600D01*
X29233Y10591D01*
X29243Y10581D01*
X29252Y10562D01*
X29252Y10543D01*
X29243Y10514D01*
X29129Y10400D01*
X29252Y10400D01*
X29328Y10581D02*
X29338Y10591D01*
X29357Y10600D01*
X29404Y10600D01*
X29423Y10591D01*
X29433Y10581D01*
X29442Y10562D01*
X29442Y10543D01*
X29433Y10514D01*
X29319Y10400D01*
X29442Y10400D01*
X29528Y10400D02*
X29528Y10600D01*
X29547Y10476D02*
X29604Y10400D01*
X29604Y10533D02*
X29528Y10457D01*
X30480Y10333D02*
X30470Y10324D01*
X30442Y10314D01*
X30423Y10314D01*
X30394Y10324D01*
X30375Y10343D01*
X30366Y10362D01*
X30356Y10400D01*
X30356Y10428D01*
X30366Y10466D01*
X30375Y10485D01*
X30394Y10505D01*
X30423Y10514D01*
X30442Y10514D01*
X30470Y10505D01*
X30480Y10495D01*
X30556Y10495D02*
X30566Y10505D01*
X30585Y10514D01*
X30632Y10514D01*
X30651Y10505D01*
X30661Y10495D01*
X30670Y10476D01*
X30670Y10457D01*
X30661Y10428D01*
X30547Y10314D01*
X30670Y10314D01*
X30737Y10514D02*
X30860Y10514D01*
X30794Y10438D01*
X30822Y10438D01*
X30841Y10428D01*
X30851Y10419D01*
X30860Y10400D01*
X30860Y10352D01*
X30851Y10333D01*
X30841Y10324D01*
X30822Y10314D01*
X30765Y10314D01*
X30746Y10324D01*
X30737Y10333D01*
X29599Y15572D02*
X29504Y15505D01*
X29599Y15458D02*
X29399Y15458D01*
X29399Y15534D01*
X29408Y15553D01*
X29418Y15562D01*
X29437Y15572D01*
X29466Y15572D01*
X29485Y15562D01*
X29494Y15553D01*
X29504Y15534D01*
X29504Y15458D01*
X29418Y15648D02*
X29408Y15658D01*
X29399Y15677D01*
X29399Y15724D01*
X29408Y15743D01*
X29418Y15753D01*
X29437Y15762D01*
X29456Y15762D01*
X29485Y15753D01*
X29599Y15639D01*
X29599Y15762D01*
X29599Y15857D02*
X29599Y15895D01*
X29589Y15914D01*
X29580Y15924D01*
X29551Y15943D01*
X29513Y15952D01*
X29437Y15952D01*
X29418Y15943D01*
X29408Y15933D01*
X29399Y15914D01*
X29399Y15876D01*
X29408Y15857D01*
X29418Y15848D01*
X29437Y15838D01*
X29485Y15838D01*
X29504Y15848D01*
X29513Y15857D01*
X29523Y15876D01*
X29523Y15914D01*
X29513Y15933D01*
X29504Y15943D01*
X29485Y15952D01*
X33120Y13431D02*
X33025Y13364D01*
X33120Y13317D02*
X32920Y13317D01*
X32920Y13393D01*
X32929Y13412D01*
X32939Y13421D01*
X32958Y13431D01*
X32987Y13431D01*
X33006Y13421D01*
X33015Y13412D01*
X33025Y13393D01*
X33025Y13317D01*
X32939Y13507D02*
X32929Y13517D01*
X32920Y13536D01*
X32920Y13583D01*
X32929Y13602D01*
X32939Y13612D01*
X32958Y13621D01*
X32977Y13621D01*
X33006Y13612D01*
X33120Y13498D01*
X33120Y13621D01*
X32920Y13688D02*
X32920Y13811D01*
X32996Y13745D01*
X32996Y13773D01*
X33006Y13792D01*
X33015Y13802D01*
X33034Y13811D01*
X33082Y13811D01*
X33101Y13802D01*
X33110Y13792D01*
X33120Y13773D01*
X33120Y13716D01*
X33110Y13697D01*
X33101Y13688D01*
X32295Y13257D02*
X32285Y13267D01*
X32276Y13286D01*
X32276Y13333D01*
X32285Y13352D01*
X32295Y13362D01*
X32314Y13371D01*
X32333Y13371D01*
X32362Y13362D01*
X32476Y13248D01*
X32476Y13371D01*
X32295Y13447D02*
X32285Y13457D01*
X32276Y13476D01*
X32276Y13523D01*
X32285Y13542D01*
X32295Y13552D01*
X32314Y13561D01*
X32333Y13561D01*
X32362Y13552D01*
X32476Y13438D01*
X32476Y13561D01*
X32476Y13647D02*
X32276Y13647D01*
X32400Y13666D02*
X32476Y13723D01*
X32343Y13723D02*
X32419Y13647D01*
X22394Y16054D02*
X22280Y16054D01*
X22337Y16054D02*
X22337Y16254D01*
X22318Y16225D01*
X22299Y16206D01*
X22280Y16197D01*
X22518Y16254D02*
X22537Y16254D01*
X22556Y16245D01*
X22565Y16235D01*
X22575Y16216D01*
X22584Y16178D01*
X22584Y16130D01*
X22575Y16092D01*
X22565Y16073D01*
X22556Y16064D01*
X22537Y16054D01*
X22518Y16054D01*
X22499Y16064D01*
X22489Y16073D01*
X22480Y16092D01*
X22470Y16130D01*
X22470Y16178D01*
X22480Y16216D01*
X22489Y16235D01*
X22499Y16245D01*
X22518Y16254D01*
X22755Y16187D02*
X22755Y16054D01*
X22670Y16187D02*
X22670Y16083D01*
X22679Y16064D01*
X22698Y16054D01*
X22727Y16054D01*
X22746Y16064D01*
X22755Y16073D01*
X22822Y16187D02*
X22898Y16187D01*
X22851Y16054D02*
X22851Y16225D01*
X22860Y16245D01*
X22879Y16254D01*
X22898Y16254D01*
X23647Y16054D02*
X23533Y16054D01*
X23590Y16054D02*
X23590Y16254D01*
X23571Y16225D01*
X23552Y16206D01*
X23533Y16197D01*
X23771Y16254D02*
X23790Y16254D01*
X23809Y16245D01*
X23818Y16235D01*
X23828Y16216D01*
X23837Y16178D01*
X23837Y16130D01*
X23828Y16092D01*
X23818Y16073D01*
X23809Y16064D01*
X23790Y16054D01*
X23771Y16054D01*
X23752Y16064D01*
X23742Y16073D01*
X23733Y16092D01*
X23723Y16130D01*
X23723Y16178D01*
X23733Y16216D01*
X23742Y16235D01*
X23752Y16245D01*
X23771Y16254D01*
X24008Y16187D02*
X24008Y16054D01*
X23923Y16187D02*
X23923Y16083D01*
X23932Y16064D01*
X23951Y16054D01*
X23980Y16054D01*
X23999Y16064D01*
X24008Y16073D01*
X24075Y16187D02*
X24151Y16187D01*
X24104Y16054D02*
X24104Y16225D01*
X24113Y16245D01*
X24132Y16254D01*
X24151Y16254D01*
X21888Y10651D02*
X21888Y10537D01*
X21888Y10594D02*
X21688Y10594D01*
X21717Y10575D01*
X21736Y10556D01*
X21745Y10537D01*
X21688Y10775D02*
X21688Y10794D01*
X21697Y10813D01*
X21707Y10822D01*
X21726Y10832D01*
X21764Y10841D01*
X21812Y10841D01*
X21850Y10832D01*
X21869Y10822D01*
X21878Y10813D01*
X21888Y10794D01*
X21888Y10775D01*
X21878Y10756D01*
X21869Y10746D01*
X21850Y10737D01*
X21812Y10727D01*
X21764Y10727D01*
X21726Y10737D01*
X21707Y10746D01*
X21697Y10756D01*
X21688Y10775D01*
X21755Y11012D02*
X21888Y11012D01*
X21755Y10927D02*
X21859Y10927D01*
X21878Y10936D01*
X21888Y10955D01*
X21888Y10984D01*
X21878Y11003D01*
X21869Y11012D01*
X21755Y11079D02*
X21755Y11155D01*
X21888Y11108D02*
X21717Y11108D01*
X21697Y11117D01*
X21688Y11136D01*
X21688Y11155D01*
X22458Y14247D02*
X22363Y14247D01*
X22363Y14447D01*
X22629Y14247D02*
X22515Y14247D01*
X22572Y14247D02*
X22572Y14447D01*
X22553Y14418D01*
X22534Y14399D01*
X22515Y14390D01*
X21748Y14133D02*
X21738Y14143D01*
X21729Y14162D01*
X21729Y14209D01*
X21738Y14228D01*
X21748Y14238D01*
X21767Y14247D01*
X21786Y14247D01*
X21815Y14238D01*
X21929Y14124D01*
X21929Y14247D01*
X21910Y14333D02*
X21919Y14342D01*
X21929Y14333D01*
X21919Y14323D01*
X21910Y14333D01*
X21929Y14333D01*
X21748Y14418D02*
X21738Y14428D01*
X21729Y14447D01*
X21729Y14494D01*
X21738Y14513D01*
X21748Y14523D01*
X21767Y14532D01*
X21786Y14532D01*
X21815Y14523D01*
X21929Y14409D01*
X21929Y14532D01*
X21796Y14703D02*
X21929Y14703D01*
X21796Y14618D02*
X21900Y14618D01*
X21919Y14627D01*
X21929Y14646D01*
X21929Y14675D01*
X21919Y14694D01*
X21910Y14703D01*
X21929Y14799D02*
X21729Y14799D01*
X21929Y14884D02*
X21824Y14884D01*
X21805Y14875D01*
X21796Y14856D01*
X21796Y14827D01*
X21805Y14808D01*
X21815Y14799D01*
X23751Y14240D02*
X23656Y14240D01*
X23656Y14440D01*
X23808Y14421D02*
X23818Y14431D01*
X23837Y14440D01*
X23884Y14440D01*
X23903Y14431D01*
X23913Y14421D01*
X23922Y14402D01*
X23922Y14383D01*
X23913Y14354D01*
X23799Y14240D01*
X23922Y14240D01*
X24268Y14203D02*
X24258Y14213D01*
X24249Y14232D01*
X24249Y14279D01*
X24258Y14298D01*
X24268Y14308D01*
X24287Y14317D01*
X24306Y14317D01*
X24335Y14308D01*
X24449Y14194D01*
X24449Y14317D01*
X24430Y14403D02*
X24439Y14412D01*
X24449Y14403D01*
X24439Y14393D01*
X24430Y14403D01*
X24449Y14403D01*
X24268Y14488D02*
X24258Y14498D01*
X24249Y14517D01*
X24249Y14564D01*
X24258Y14583D01*
X24268Y14593D01*
X24287Y14602D01*
X24306Y14602D01*
X24335Y14593D01*
X24449Y14479D01*
X24449Y14602D01*
X24316Y14773D02*
X24449Y14773D01*
X24316Y14688D02*
X24420Y14688D01*
X24439Y14697D01*
X24449Y14716D01*
X24449Y14745D01*
X24439Y14764D01*
X24430Y14773D01*
X24449Y14869D02*
X24249Y14869D01*
X24449Y14954D02*
X24344Y14954D01*
X24325Y14945D01*
X24316Y14926D01*
X24316Y14897D01*
X24325Y14878D01*
X24335Y14869D01*
G54D17*
X22509Y10429D02*
X22601Y10153D01*
X22693Y10429D01*
X22786Y10298D02*
X22878Y10298D01*
X22917Y10153D02*
X22786Y10153D01*
X22786Y10429D01*
X22917Y10429D01*
X23036Y10298D02*
X23128Y10298D01*
X23167Y10153D02*
X23036Y10153D01*
X23036Y10429D01*
X23167Y10429D01*
G54D16*
X24927Y10290D02*
X24927Y10128D01*
X24936Y10109D01*
X24946Y10100D01*
X24965Y10090D01*
X25003Y10090D01*
X25022Y10100D01*
X25031Y10109D01*
X25041Y10128D01*
X25041Y10290D01*
X25232Y10290D02*
X25137Y10290D01*
X25127Y10195D01*
X25137Y10204D01*
X25156Y10214D01*
X25203Y10214D01*
X25222Y10204D01*
X25232Y10195D01*
X25241Y10176D01*
X25241Y10128D01*
X25232Y10109D01*
X25222Y10100D01*
X25203Y10090D01*
X25156Y10090D01*
X25137Y10100D01*
X25127Y10109D01*
X34932Y12519D02*
X34932Y12357D01*
X34941Y12338D01*
X34951Y12329D01*
X34970Y12319D01*
X35008Y12319D01*
X35027Y12329D01*
X35036Y12338D01*
X35046Y12357D01*
X35046Y12519D01*
X35246Y12319D02*
X35132Y12319D01*
X35189Y12319D02*
X35189Y12519D01*
X35170Y12490D01*
X35151Y12471D01*
X35132Y12462D01*
X35322Y12500D02*
X35332Y12510D01*
X35351Y12519D01*
X35398Y12519D01*
X35417Y12510D01*
X35427Y12500D01*
X35436Y12481D01*
X35436Y12462D01*
X35427Y12433D01*
X35313Y12319D01*
X35436Y12319D01*
X34643Y11211D02*
X34738Y11211D01*
X34624Y11154D02*
X34691Y11354D01*
X34757Y11154D01*
X34824Y11154D02*
X34824Y11354D01*
X34938Y11154D01*
X34938Y11354D01*
X35005Y11354D02*
X35119Y11354D01*
X35062Y11154D02*
X35062Y11354D01*
X35186Y11259D02*
X35252Y11259D01*
X35281Y11154D02*
X35186Y11154D01*
X35186Y11354D01*
X35281Y11354D01*
X35367Y11154D02*
X35367Y11354D01*
X35481Y11154D01*
X35481Y11354D01*
X35577Y11154D02*
X35577Y11354D01*
X35691Y11154D01*
X35691Y11354D01*
X35777Y11211D02*
X35872Y11211D01*
X35758Y11154D02*
X35825Y11354D01*
X35891Y11154D01*
X28190Y10731D02*
X28190Y10569D01*
X28199Y10550D01*
X28209Y10541D01*
X28228Y10531D01*
X28266Y10531D01*
X28285Y10541D01*
X28294Y10550D01*
X28304Y10569D01*
X28304Y10731D01*
X28485Y10731D02*
X28447Y10731D01*
X28428Y10722D01*
X28419Y10712D01*
X28400Y10683D01*
X28390Y10645D01*
X28390Y10569D01*
X28400Y10550D01*
X28409Y10541D01*
X28428Y10531D01*
X28466Y10531D01*
X28485Y10541D01*
X28495Y10550D01*
X28504Y10569D01*
X28504Y10617D01*
X28495Y10636D01*
X28485Y10645D01*
X28466Y10655D01*
X28428Y10655D01*
X28409Y10645D01*
X28400Y10636D01*
X28390Y10617D01*
X27441Y10994D02*
X27470Y10984D01*
X27479Y10975D01*
X27489Y10956D01*
X27489Y10927D01*
X27479Y10908D01*
X27470Y10899D01*
X27451Y10889D01*
X27375Y10889D01*
X27375Y11089D01*
X27441Y11089D01*
X27460Y11080D01*
X27470Y11070D01*
X27479Y11051D01*
X27479Y11032D01*
X27470Y11013D01*
X27460Y11003D01*
X27441Y10994D01*
X27375Y10994D01*
X27641Y10994D02*
X27575Y10994D01*
X27575Y10889D02*
X27575Y11089D01*
X27670Y11089D01*
X27841Y11089D02*
X27746Y11089D01*
X27736Y10994D01*
X27746Y11003D01*
X27765Y11013D01*
X27812Y11013D01*
X27831Y11003D01*
X27841Y10994D01*
X27850Y10975D01*
X27850Y10927D01*
X27841Y10908D01*
X27831Y10899D01*
X27812Y10889D01*
X27765Y10889D01*
X27746Y10899D01*
X27736Y10908D01*
X27917Y11089D02*
X28040Y11089D01*
X27974Y11013D01*
X28002Y11013D01*
X28021Y11003D01*
X28031Y10994D01*
X28040Y10975D01*
X28040Y10927D01*
X28031Y10908D01*
X28021Y10899D01*
X28002Y10889D01*
X27945Y10889D01*
X27926Y10899D01*
X27917Y10908D01*
X28116Y11070D02*
X28126Y11080D01*
X28145Y11089D01*
X28192Y11089D01*
X28211Y11080D01*
X28221Y11070D01*
X28230Y11051D01*
X28230Y11032D01*
X28221Y11003D01*
X28107Y10889D01*
X28230Y10889D01*
X28316Y10965D02*
X28468Y10965D01*
X28668Y10889D02*
X28554Y10889D01*
X28611Y10889D02*
X28611Y11089D01*
X28592Y11060D01*
X28573Y11041D01*
X28554Y11032D01*
X28839Y11089D02*
X28801Y11089D01*
X28782Y11080D01*
X28773Y11070D01*
X28754Y11041D01*
X28744Y11003D01*
X28744Y10927D01*
X28754Y10908D01*
X28763Y10899D01*
X28782Y10889D01*
X28820Y10889D01*
X28839Y10899D01*
X28849Y10908D01*
X28858Y10927D01*
X28858Y10975D01*
X28849Y10994D01*
X28839Y11003D01*
X28820Y11013D01*
X28782Y11013D01*
X28763Y11003D01*
X28754Y10994D01*
X28744Y10975D01*
X28982Y11089D02*
X29001Y11089D01*
X29020Y11080D01*
X29029Y11070D01*
X29039Y11051D01*
X29048Y11013D01*
X29048Y10965D01*
X29039Y10927D01*
X29029Y10908D01*
X29020Y10899D01*
X29001Y10889D01*
X28982Y10889D01*
X28963Y10899D01*
X28953Y10908D01*
X28944Y10927D01*
X28934Y10965D01*
X28934Y11013D01*
X28944Y11051D01*
X28953Y11070D01*
X28963Y11080D01*
X28982Y11089D01*
G54D18*
X17968Y04875D02*
X18043Y04875D01*
X18080Y04893D01*
X18099Y04912D01*
X18136Y04968D01*
X18155Y05043D01*
X18155Y05193D01*
X18136Y05231D01*
X18118Y05250D01*
X18080Y05269D01*
X18005Y05269D01*
X17968Y05250D01*
X17949Y05231D01*
X17930Y05193D01*
X17930Y05100D01*
X17949Y05062D01*
X17968Y05043D01*
X18005Y05025D01*
X18080Y05025D01*
X18118Y05043D01*
X18136Y05062D01*
X18155Y05100D01*
X18286Y05269D02*
X18549Y04875D01*
X18549Y05269D02*
X18286Y04875D01*
X18905Y04875D02*
X18680Y04875D01*
X18793Y04875D02*
X18793Y05269D01*
X18755Y05212D01*
X18718Y05175D01*
X18680Y05156D01*
X19149Y05269D02*
X19186Y05269D01*
X19224Y05250D01*
X19243Y05231D01*
X19261Y05193D01*
X19280Y05118D01*
X19280Y05025D01*
X19261Y04950D01*
X19243Y04912D01*
X19224Y04893D01*
X19186Y04875D01*
X19149Y04875D01*
X19111Y04893D01*
X19093Y04912D01*
X19074Y04950D01*
X19055Y05025D01*
X19055Y05118D01*
X19074Y05193D01*
X19093Y05231D01*
X19111Y05250D01*
X19149Y05269D01*
X19524Y05269D02*
X19561Y05269D01*
X19599Y05250D01*
X19618Y05231D01*
X19636Y05193D01*
X19655Y05118D01*
X19655Y05025D01*
X19636Y04950D01*
X19618Y04912D01*
X19599Y04893D01*
X19561Y04875D01*
X19524Y04875D01*
X19486Y04893D01*
X19468Y04912D01*
X19449Y04950D01*
X19430Y05025D01*
X19430Y05118D01*
X19449Y05193D01*
X19468Y05231D01*
X19486Y05250D01*
X19524Y05269D01*
X22259Y08156D02*
X22334Y08156D01*
X22371Y08174D01*
X22390Y08193D01*
X22427Y08249D01*
X22446Y08324D01*
X22446Y08474D01*
X22427Y08512D01*
X22409Y08531D01*
X22371Y08550D01*
X22296Y08550D01*
X22259Y08531D01*
X22240Y08512D01*
X22221Y08474D01*
X22221Y08381D01*
X22240Y08343D01*
X22259Y08324D01*
X22296Y08306D01*
X22371Y08306D01*
X22409Y08324D01*
X22427Y08343D01*
X22446Y08381D01*
X22577Y08550D02*
X22840Y08156D01*
X22840Y08550D02*
X22577Y08156D01*
X23196Y08156D02*
X22971Y08156D01*
X23084Y08156D02*
X23084Y08550D01*
X23046Y08493D01*
X23009Y08456D01*
X22971Y08437D01*
X23440Y08550D02*
X23477Y08550D01*
X23515Y08531D01*
X23534Y08512D01*
X23552Y08474D01*
X23571Y08399D01*
X23571Y08306D01*
X23552Y08231D01*
X23534Y08193D01*
X23515Y08174D01*
X23477Y08156D01*
X23440Y08156D01*
X23402Y08174D01*
X23384Y08193D01*
X23365Y08231D01*
X23346Y08306D01*
X23346Y08399D01*
X23365Y08474D01*
X23384Y08512D01*
X23402Y08531D01*
X23440Y08550D01*
X23815Y08550D02*
X23852Y08550D01*
X23890Y08531D01*
X23909Y08512D01*
X23927Y08474D01*
X23946Y08399D01*
X23946Y08306D01*
X23927Y08231D01*
X23909Y08193D01*
X23890Y08174D01*
X23852Y08156D01*
X23815Y08156D01*
X23777Y08174D01*
X23759Y08193D01*
X23740Y08231D01*
X23721Y08306D01*
X23721Y08399D01*
X23740Y08474D01*
X23759Y08512D01*
X23777Y08531D01*
X23815Y08550D01*
X30368Y04875D02*
X30443Y04875D01*
X30480Y04893D01*
X30499Y04912D01*
X30536Y04968D01*
X30555Y05043D01*
X30555Y05193D01*
X30536Y05231D01*
X30518Y05250D01*
X30480Y05269D01*
X30405Y05269D01*
X30368Y05250D01*
X30349Y05231D01*
X30330Y05193D01*
X30330Y05100D01*
X30349Y05062D01*
X30368Y05043D01*
X30405Y05025D01*
X30480Y05025D01*
X30518Y05043D01*
X30536Y05062D01*
X30555Y05100D01*
X30686Y05269D02*
X30949Y04875D01*
X30949Y05269D02*
X30686Y04875D01*
X31305Y04875D02*
X31080Y04875D01*
X31193Y04875D02*
X31193Y05269D01*
X31155Y05212D01*
X31118Y05175D01*
X31080Y05156D01*
X31549Y05269D02*
X31586Y05269D01*
X31624Y05250D01*
X31643Y05231D01*
X31661Y05193D01*
X31680Y05118D01*
X31680Y05025D01*
X31661Y04950D01*
X31643Y04912D01*
X31624Y04893D01*
X31586Y04875D01*
X31549Y04875D01*
X31511Y04893D01*
X31493Y04912D01*
X31474Y04950D01*
X31455Y05025D01*
X31455Y05118D01*
X31474Y05193D01*
X31493Y05231D01*
X31511Y05250D01*
X31549Y05269D01*
X31924Y05269D02*
X31961Y05269D01*
X31999Y05250D01*
X32018Y05231D01*
X32036Y05193D01*
X32055Y05118D01*
X32055Y05025D01*
X32036Y04950D01*
X32018Y04912D01*
X31999Y04893D01*
X31961Y04875D01*
X31924Y04875D01*
X31886Y04893D01*
X31868Y04912D01*
X31849Y04950D01*
X31830Y05025D01*
X31830Y05118D01*
X31849Y05193D01*
X31868Y05231D01*
X31886Y05250D01*
X31924Y05269D01*
X28859Y08156D02*
X28934Y08156D01*
X28971Y08174D01*
X28990Y08193D01*
X29027Y08249D01*
X29046Y08324D01*
X29046Y08474D01*
X29027Y08512D01*
X29009Y08531D01*
X28971Y08550D01*
X28896Y08550D01*
X28859Y08531D01*
X28840Y08512D01*
X28821Y08474D01*
X28821Y08381D01*
X28840Y08343D01*
X28859Y08324D01*
X28896Y08306D01*
X28971Y08306D01*
X29009Y08324D01*
X29027Y08343D01*
X29046Y08381D01*
X29177Y08550D02*
X29440Y08156D01*
X29440Y08550D02*
X29177Y08156D01*
X29796Y08156D02*
X29571Y08156D01*
X29684Y08156D02*
X29684Y08550D01*
X29646Y08493D01*
X29609Y08456D01*
X29571Y08437D01*
X30040Y08550D02*
X30077Y08550D01*
X30115Y08531D01*
X30134Y08512D01*
X30152Y08474D01*
X30171Y08399D01*
X30171Y08306D01*
X30152Y08231D01*
X30134Y08193D01*
X30115Y08174D01*
X30077Y08156D01*
X30040Y08156D01*
X30002Y08174D01*
X29984Y08193D01*
X29965Y08231D01*
X29946Y08306D01*
X29946Y08399D01*
X29965Y08474D01*
X29984Y08512D01*
X30002Y08531D01*
X30040Y08550D01*
X30415Y08550D02*
X30452Y08550D01*
X30490Y08531D01*
X30509Y08512D01*
X30527Y08474D01*
X30546Y08399D01*
X30546Y08306D01*
X30527Y08231D01*
X30509Y08193D01*
X30490Y08174D01*
X30452Y08156D01*
X30415Y08156D01*
X30377Y08174D01*
X30359Y08193D01*
X30340Y08231D01*
X30321Y08306D01*
X30321Y08399D01*
X30340Y08474D01*
X30359Y08512D01*
X30377Y08531D01*
X30415Y08550D01*
X36568Y04875D02*
X36643Y04875D01*
X36680Y04893D01*
X36699Y04912D01*
X36736Y04968D01*
X36755Y05043D01*
X36755Y05193D01*
X36736Y05231D01*
X36718Y05250D01*
X36680Y05269D01*
X36605Y05269D01*
X36568Y05250D01*
X36549Y05231D01*
X36530Y05193D01*
X36530Y05100D01*
X36549Y05062D01*
X36568Y05043D01*
X36605Y05025D01*
X36680Y05025D01*
X36718Y05043D01*
X36736Y05062D01*
X36755Y05100D01*
X36886Y05269D02*
X37149Y04875D01*
X37149Y05269D02*
X36886Y04875D01*
X37505Y04875D02*
X37280Y04875D01*
X37393Y04875D02*
X37393Y05269D01*
X37355Y05212D01*
X37318Y05175D01*
X37280Y05156D01*
X37749Y05269D02*
X37786Y05269D01*
X37824Y05250D01*
X37843Y05231D01*
X37861Y05193D01*
X37880Y05118D01*
X37880Y05025D01*
X37861Y04950D01*
X37843Y04912D01*
X37824Y04893D01*
X37786Y04875D01*
X37749Y04875D01*
X37711Y04893D01*
X37693Y04912D01*
X37674Y04950D01*
X37655Y05025D01*
X37655Y05118D01*
X37674Y05193D01*
X37693Y05231D01*
X37711Y05250D01*
X37749Y05269D01*
X38124Y05269D02*
X38161Y05269D01*
X38199Y05250D01*
X38218Y05231D01*
X38236Y05193D01*
X38255Y05118D01*
X38255Y05025D01*
X38236Y04950D01*
X38218Y04912D01*
X38199Y04893D01*
X38161Y04875D01*
X38124Y04875D01*
X38086Y04893D01*
X38068Y04912D01*
X38049Y04950D01*
X38030Y05025D01*
X38030Y05118D01*
X38049Y05193D01*
X38068Y05231D01*
X38086Y05250D01*
X38124Y05269D01*
X32159Y08156D02*
X32234Y08156D01*
X32271Y08174D01*
X32290Y08193D01*
X32327Y08249D01*
X32346Y08324D01*
X32346Y08474D01*
X32327Y08512D01*
X32309Y08531D01*
X32271Y08550D01*
X32196Y08550D01*
X32159Y08531D01*
X32140Y08512D01*
X32121Y08474D01*
X32121Y08381D01*
X32140Y08343D01*
X32159Y08324D01*
X32196Y08306D01*
X32271Y08306D01*
X32309Y08324D01*
X32327Y08343D01*
X32346Y08381D01*
X32477Y08550D02*
X32740Y08156D01*
X32740Y08550D02*
X32477Y08156D01*
X33096Y08156D02*
X32871Y08156D01*
X32984Y08156D02*
X32984Y08550D01*
X32946Y08493D01*
X32909Y08456D01*
X32871Y08437D01*
X33340Y08550D02*
X33377Y08550D01*
X33415Y08531D01*
X33434Y08512D01*
X33452Y08474D01*
X33471Y08399D01*
X33471Y08306D01*
X33452Y08231D01*
X33434Y08193D01*
X33415Y08174D01*
X33377Y08156D01*
X33340Y08156D01*
X33302Y08174D01*
X33284Y08193D01*
X33265Y08231D01*
X33246Y08306D01*
X33246Y08399D01*
X33265Y08474D01*
X33284Y08512D01*
X33302Y08531D01*
X33340Y08550D01*
X33715Y08550D02*
X33752Y08550D01*
X33790Y08531D01*
X33809Y08512D01*
X33827Y08474D01*
X33846Y08399D01*
X33846Y08306D01*
X33827Y08231D01*
X33809Y08193D01*
X33790Y08174D01*
X33752Y08156D01*
X33715Y08156D01*
X33677Y08174D01*
X33659Y08193D01*
X33640Y08231D01*
X33621Y08306D01*
X33621Y08399D01*
X33640Y08474D01*
X33659Y08512D01*
X33677Y08531D01*
X33715Y08550D01*
X24168Y04875D02*
X24243Y04875D01*
X24280Y04893D01*
X24299Y04912D01*
X24336Y04968D01*
X24355Y05043D01*
X24355Y05193D01*
X24336Y05231D01*
X24318Y05250D01*
X24280Y05269D01*
X24205Y05269D01*
X24168Y05250D01*
X24149Y05231D01*
X24130Y05193D01*
X24130Y05100D01*
X24149Y05062D01*
X24168Y05043D01*
X24205Y05025D01*
X24280Y05025D01*
X24318Y05043D01*
X24336Y05062D01*
X24355Y05100D01*
X24486Y05269D02*
X24749Y04875D01*
X24749Y05269D02*
X24486Y04875D01*
X25105Y04875D02*
X24880Y04875D01*
X24993Y04875D02*
X24993Y05269D01*
X24955Y05212D01*
X24918Y05175D01*
X24880Y05156D01*
X25349Y05269D02*
X25386Y05269D01*
X25424Y05250D01*
X25443Y05231D01*
X25461Y05193D01*
X25480Y05118D01*
X25480Y05025D01*
X25461Y04950D01*
X25443Y04912D01*
X25424Y04893D01*
X25386Y04875D01*
X25349Y04875D01*
X25311Y04893D01*
X25293Y04912D01*
X25274Y04950D01*
X25255Y05025D01*
X25255Y05118D01*
X25274Y05193D01*
X25293Y05231D01*
X25311Y05250D01*
X25349Y05269D01*
X25724Y05269D02*
X25761Y05269D01*
X25799Y05250D01*
X25818Y05231D01*
X25836Y05193D01*
X25855Y05118D01*
X25855Y05025D01*
X25836Y04950D01*
X25818Y04912D01*
X25799Y04893D01*
X25761Y04875D01*
X25724Y04875D01*
X25686Y04893D01*
X25668Y04912D01*
X25649Y04950D01*
X25630Y05025D01*
X25630Y05118D01*
X25649Y05193D01*
X25668Y05231D01*
X25686Y05250D01*
X25724Y05269D01*
X25559Y08156D02*
X25634Y08156D01*
X25671Y08174D01*
X25690Y08193D01*
X25727Y08249D01*
X25746Y08324D01*
X25746Y08474D01*
X25727Y08512D01*
X25709Y08531D01*
X25671Y08550D01*
X25596Y08550D01*
X25559Y08531D01*
X25540Y08512D01*
X25521Y08474D01*
X25521Y08381D01*
X25540Y08343D01*
X25559Y08324D01*
X25596Y08306D01*
X25671Y08306D01*
X25709Y08324D01*
X25727Y08343D01*
X25746Y08381D01*
X25877Y08550D02*
X26140Y08156D01*
X26140Y08550D02*
X25877Y08156D01*
X26496Y08156D02*
X26271Y08156D01*
X26384Y08156D02*
X26384Y08550D01*
X26346Y08493D01*
X26309Y08456D01*
X26271Y08437D01*
X26740Y08550D02*
X26777Y08550D01*
X26815Y08531D01*
X26834Y08512D01*
X26852Y08474D01*
X26871Y08399D01*
X26871Y08306D01*
X26852Y08231D01*
X26834Y08193D01*
X26815Y08174D01*
X26777Y08156D01*
X26740Y08156D01*
X26702Y08174D01*
X26684Y08193D01*
X26665Y08231D01*
X26646Y08306D01*
X26646Y08399D01*
X26665Y08474D01*
X26684Y08512D01*
X26702Y08531D01*
X26740Y08550D01*
X27115Y08550D02*
X27152Y08550D01*
X27190Y08531D01*
X27209Y08512D01*
X27227Y08474D01*
X27246Y08399D01*
X27246Y08306D01*
X27227Y08231D01*
X27209Y08193D01*
X27190Y08174D01*
X27152Y08156D01*
X27115Y08156D01*
X27077Y08174D01*
X27059Y08193D01*
X27040Y08231D01*
X27021Y08306D01*
X27021Y08399D01*
X27040Y08474D01*
X27059Y08512D01*
X27077Y08531D01*
X27115Y08550D01*
X35254Y13674D02*
X35254Y13749D01*
X35236Y13786D01*
X35217Y13805D01*
X35161Y13842D01*
X35086Y13861D01*
X34936Y13861D01*
X34898Y13842D01*
X34879Y13824D01*
X34860Y13786D01*
X34860Y13711D01*
X34879Y13674D01*
X34898Y13655D01*
X34936Y13636D01*
X35029Y13636D01*
X35067Y13655D01*
X35086Y13674D01*
X35104Y13711D01*
X35104Y13786D01*
X35086Y13824D01*
X35067Y13842D01*
X35029Y13861D01*
X34860Y13992D02*
X35254Y14255D01*
X34860Y14255D02*
X35254Y13992D01*
X35254Y14611D02*
X35254Y14386D01*
X35254Y14499D02*
X34860Y14499D01*
X34917Y14461D01*
X34954Y14424D01*
X34973Y14386D01*
X34860Y14855D02*
X34860Y14892D01*
X34879Y14930D01*
X34898Y14949D01*
X34936Y14967D01*
X35011Y14986D01*
X35104Y14986D01*
X35179Y14967D01*
X35217Y14949D01*
X35236Y14930D01*
X35254Y14892D01*
X35254Y14855D01*
X35236Y14817D01*
X35217Y14799D01*
X35179Y14780D01*
X35104Y14761D01*
X35011Y14761D01*
X34936Y14780D01*
X34898Y14799D01*
X34879Y14817D01*
X34860Y14855D01*
X34860Y15230D02*
X34860Y15267D01*
X34879Y15305D01*
X34898Y15324D01*
X34936Y15342D01*
X35011Y15361D01*
X35104Y15361D01*
X35179Y15342D01*
X35217Y15324D01*
X35236Y15305D01*
X35254Y15267D01*
X35254Y15230D01*
X35236Y15192D01*
X35217Y15174D01*
X35179Y15155D01*
X35104Y15136D01*
X35011Y15136D01*
X34936Y15155D01*
X34898Y15174D01*
X34879Y15192D01*
X34860Y15230D01*
G54D16*
X23018Y12785D02*
X23018Y12623D01*
X23027Y12604D01*
X23037Y12595D01*
X23056Y12585D01*
X23094Y12585D01*
X23113Y12595D01*
X23122Y12604D01*
X23132Y12623D01*
X23132Y12785D01*
X23313Y12718D02*
X23313Y12585D01*
X23266Y12795D02*
X23218Y12652D01*
X23342Y12652D01*
X29721Y11517D02*
X29521Y11517D01*
X29721Y11631D01*
X29521Y11631D01*
X29721Y11841D02*
X29626Y11774D01*
X29721Y11727D02*
X29521Y11727D01*
X29521Y11803D01*
X29530Y11822D01*
X29540Y11831D01*
X29559Y11841D01*
X29588Y11841D01*
X29607Y11831D01*
X29616Y11822D01*
X29626Y11803D01*
X29626Y11727D01*
X29616Y11993D02*
X29616Y11927D01*
X29721Y11927D02*
X29521Y11927D01*
X29521Y12022D01*
X29540Y12088D02*
X29530Y12098D01*
X29521Y12117D01*
X29521Y12164D01*
X29530Y12183D01*
X29540Y12193D01*
X29559Y12202D01*
X29578Y12202D01*
X29607Y12193D01*
X29721Y12079D01*
X29721Y12202D01*
X29588Y12373D02*
X29721Y12373D01*
X29511Y12326D02*
X29654Y12278D01*
X29654Y12402D01*
X29721Y12573D02*
X29721Y12478D01*
X29521Y12478D01*
X29521Y12678D02*
X29521Y12697D01*
X29530Y12716D01*
X29540Y12725D01*
X29559Y12735D01*
X29597Y12744D01*
X29645Y12744D01*
X29683Y12735D01*
X29702Y12725D01*
X29711Y12716D01*
X29721Y12697D01*
X29721Y12678D01*
X29711Y12659D01*
X29702Y12649D01*
X29683Y12640D01*
X29645Y12630D01*
X29597Y12630D01*
X29559Y12640D01*
X29540Y12649D01*
X29530Y12659D01*
X29521Y12678D01*
X29721Y12934D02*
X29721Y12820D01*
X29721Y12877D02*
X29521Y12877D01*
X29550Y12858D01*
X29569Y12839D01*
X29578Y12820D01*
G54D11*
X19150Y-00786D02*
X19050Y-00644D01*
X18978Y-00786D02*
X18978Y-00486D01*
X19093Y-00486D01*
X19121Y-00501D01*
X19136Y-00515D01*
X19150Y-00544D01*
X19150Y-00586D01*
X19136Y-00615D01*
X19121Y-00629D01*
X19093Y-00644D01*
X18978Y-00644D01*
X19278Y-00786D02*
X19278Y-00486D01*
X19278Y-00629D02*
X19450Y-00629D01*
X19450Y-00786D02*
X19450Y-00486D01*
X19578Y-00701D02*
X19721Y-00701D01*
X19550Y-00786D02*
X19650Y-00486D01*
X19750Y-00786D01*
X19835Y-00515D02*
X19849Y-00501D01*
X19878Y-00486D01*
X19949Y-00486D01*
X19978Y-00501D01*
X19992Y-00515D01*
X20007Y-00544D01*
X20007Y-00572D01*
X19992Y-00615D01*
X19821Y-00786D01*
X20007Y-00786D01*
X20293Y-00786D02*
X20121Y-00786D01*
X20207Y-00786D02*
X20207Y-00486D01*
X20178Y-00529D01*
X20150Y-00558D01*
X20121Y-00572D01*
X20393Y-00486D02*
X20579Y-00486D01*
X20479Y-00601D01*
X20521Y-00601D01*
X20550Y-00615D01*
X20564Y-00629D01*
X20579Y-00658D01*
X20579Y-00729D01*
X20564Y-00758D01*
X20550Y-00772D01*
X20521Y-00786D01*
X20436Y-00786D01*
X20407Y-00772D01*
X20393Y-00758D01*
X20693Y-00515D02*
X20707Y-00501D01*
X20736Y-00486D01*
X20807Y-00486D01*
X20836Y-00501D01*
X20850Y-00515D01*
X20865Y-00544D01*
X20865Y-00572D01*
X20850Y-00615D01*
X20679Y-00786D01*
X20865Y-00786D01*
X31550Y-00786D02*
X31450Y-00644D01*
X31378Y-00786D02*
X31378Y-00486D01*
X31493Y-00486D01*
X31521Y-00501D01*
X31536Y-00515D01*
X31550Y-00544D01*
X31550Y-00586D01*
X31536Y-00615D01*
X31521Y-00629D01*
X31493Y-00644D01*
X31378Y-00644D01*
X31678Y-00786D02*
X31678Y-00486D01*
X31678Y-00629D02*
X31850Y-00629D01*
X31850Y-00786D02*
X31850Y-00486D01*
X31978Y-00701D02*
X32121Y-00701D01*
X31950Y-00786D02*
X32050Y-00486D01*
X32150Y-00786D01*
X32235Y-00515D02*
X32249Y-00501D01*
X32278Y-00486D01*
X32349Y-00486D01*
X32378Y-00501D01*
X32392Y-00515D01*
X32407Y-00544D01*
X32407Y-00572D01*
X32392Y-00615D01*
X32221Y-00786D01*
X32407Y-00786D01*
X32693Y-00786D02*
X32521Y-00786D01*
X32607Y-00786D02*
X32607Y-00486D01*
X32578Y-00529D01*
X32550Y-00558D01*
X32521Y-00572D01*
X32793Y-00486D02*
X32979Y-00486D01*
X32879Y-00601D01*
X32921Y-00601D01*
X32950Y-00615D01*
X32964Y-00629D01*
X32979Y-00658D01*
X32979Y-00729D01*
X32964Y-00758D01*
X32950Y-00772D01*
X32921Y-00786D01*
X32836Y-00786D01*
X32807Y-00772D01*
X32793Y-00758D01*
X33093Y-00515D02*
X33107Y-00501D01*
X33136Y-00486D01*
X33207Y-00486D01*
X33236Y-00501D01*
X33250Y-00515D01*
X33265Y-00544D01*
X33265Y-00572D01*
X33250Y-00615D01*
X33079Y-00786D01*
X33265Y-00786D01*
X37750Y-00786D02*
X37650Y-00644D01*
X37578Y-00786D02*
X37578Y-00486D01*
X37693Y-00486D01*
X37721Y-00501D01*
X37736Y-00515D01*
X37750Y-00544D01*
X37750Y-00586D01*
X37736Y-00615D01*
X37721Y-00629D01*
X37693Y-00644D01*
X37578Y-00644D01*
X37878Y-00786D02*
X37878Y-00486D01*
X37878Y-00629D02*
X38050Y-00629D01*
X38050Y-00786D02*
X38050Y-00486D01*
X38178Y-00701D02*
X38321Y-00701D01*
X38150Y-00786D02*
X38250Y-00486D01*
X38350Y-00786D01*
X38435Y-00515D02*
X38449Y-00501D01*
X38478Y-00486D01*
X38549Y-00486D01*
X38578Y-00501D01*
X38592Y-00515D01*
X38607Y-00544D01*
X38607Y-00572D01*
X38592Y-00615D01*
X38421Y-00786D01*
X38607Y-00786D01*
X38893Y-00786D02*
X38721Y-00786D01*
X38807Y-00786D02*
X38807Y-00486D01*
X38778Y-00529D01*
X38750Y-00558D01*
X38721Y-00572D01*
X38993Y-00486D02*
X39179Y-00486D01*
X39079Y-00601D01*
X39121Y-00601D01*
X39150Y-00615D01*
X39164Y-00629D01*
X39179Y-00658D01*
X39179Y-00729D01*
X39164Y-00758D01*
X39150Y-00772D01*
X39121Y-00786D01*
X39036Y-00786D01*
X39007Y-00772D01*
X38993Y-00758D01*
X39293Y-00515D02*
X39307Y-00501D01*
X39336Y-00486D01*
X39407Y-00486D01*
X39436Y-00501D01*
X39450Y-00515D01*
X39465Y-00544D01*
X39465Y-00572D01*
X39450Y-00615D01*
X39279Y-00786D01*
X39465Y-00786D01*
X25350Y-00786D02*
X25250Y-00644D01*
X25178Y-00786D02*
X25178Y-00486D01*
X25293Y-00486D01*
X25321Y-00501D01*
X25336Y-00515D01*
X25350Y-00544D01*
X25350Y-00586D01*
X25336Y-00615D01*
X25321Y-00629D01*
X25293Y-00644D01*
X25178Y-00644D01*
X25478Y-00786D02*
X25478Y-00486D01*
X25478Y-00629D02*
X25650Y-00629D01*
X25650Y-00786D02*
X25650Y-00486D01*
X25778Y-00701D02*
X25921Y-00701D01*
X25750Y-00786D02*
X25850Y-00486D01*
X25950Y-00786D01*
X26035Y-00515D02*
X26049Y-00501D01*
X26078Y-00486D01*
X26149Y-00486D01*
X26178Y-00501D01*
X26192Y-00515D01*
X26207Y-00544D01*
X26207Y-00572D01*
X26192Y-00615D01*
X26021Y-00786D01*
X26207Y-00786D01*
X26493Y-00786D02*
X26321Y-00786D01*
X26407Y-00786D02*
X26407Y-00486D01*
X26378Y-00529D01*
X26350Y-00558D01*
X26321Y-00572D01*
X26593Y-00486D02*
X26779Y-00486D01*
X26679Y-00601D01*
X26721Y-00601D01*
X26750Y-00615D01*
X26764Y-00629D01*
X26779Y-00658D01*
X26779Y-00729D01*
X26764Y-00758D01*
X26750Y-00772D01*
X26721Y-00786D01*
X26636Y-00786D01*
X26607Y-00772D01*
X26593Y-00758D01*
X26893Y-00515D02*
X26907Y-00501D01*
X26936Y-00486D01*
X27007Y-00486D01*
X27036Y-00501D01*
X27050Y-00515D01*
X27065Y-00544D01*
X27065Y-00572D01*
X27050Y-00615D01*
X26879Y-00786D01*
X27065Y-00786D01*
G54D16*
X17553Y02907D02*
X17553Y02745D01*
X17562Y02726D01*
X17572Y02717D01*
X17591Y02707D01*
X17629Y02707D01*
X17648Y02717D01*
X17657Y02726D01*
X17667Y02745D01*
X17667Y02907D01*
X17867Y02707D02*
X17753Y02707D01*
X17810Y02707D02*
X17810Y02907D01*
X17791Y02878D01*
X17772Y02859D01*
X17753Y02850D01*
X18038Y02907D02*
X18000Y02907D01*
X17981Y02898D01*
X17972Y02888D01*
X17953Y02859D01*
X17943Y02821D01*
X17943Y02745D01*
X17953Y02726D01*
X17962Y02717D01*
X17981Y02707D01*
X18019Y02707D01*
X18038Y02717D01*
X18048Y02726D01*
X18057Y02745D01*
X18057Y02793D01*
X18048Y02812D01*
X18038Y02821D01*
X18019Y02831D01*
X17981Y02831D01*
X17962Y02821D01*
X17953Y02812D01*
X17943Y02793D01*
X17622Y-00546D02*
X17622Y-00432D01*
X17822Y-00489D02*
X17622Y-00489D01*
X17803Y-00251D02*
X17812Y-00261D01*
X17822Y-00289D01*
X17822Y-00308D01*
X17812Y-00337D01*
X17793Y-00356D01*
X17774Y-00365D01*
X17736Y-00375D01*
X17708Y-00375D01*
X17670Y-00365D01*
X17651Y-00356D01*
X17631Y-00337D01*
X17622Y-00308D01*
X17622Y-00289D01*
X17631Y-00261D01*
X17641Y-00251D01*
X17822Y-00061D02*
X17822Y-00175D01*
X17822Y-00118D02*
X17622Y-00118D01*
X17651Y-00137D01*
X17670Y-00156D01*
X17679Y-00175D01*
X17622Y00063D02*
X17622Y00082D01*
X17631Y00101D01*
X17641Y00110D01*
X17660Y00120D01*
X17698Y00129D01*
X17746Y00129D01*
X17784Y00120D01*
X17803Y00110D01*
X17812Y00101D01*
X17822Y00082D01*
X17822Y00063D01*
X17812Y00044D01*
X17803Y00034D01*
X17784Y00025D01*
X17746Y00015D01*
X17698Y00015D01*
X17660Y00025D01*
X17641Y00034D01*
X17631Y00044D01*
X17622Y00063D01*
X17822Y00319D02*
X17822Y00205D01*
X17822Y00262D02*
X17622Y00262D01*
X17651Y00243D01*
X17670Y00224D01*
X17679Y00205D01*
X17622Y00490D02*
X17622Y00452D01*
X17631Y00433D01*
X17641Y00424D01*
X17670Y00405D01*
X17708Y00395D01*
X17784Y00395D01*
X17803Y00405D01*
X17812Y00414D01*
X17822Y00433D01*
X17822Y00471D01*
X17812Y00490D01*
X17803Y00500D01*
X17784Y00509D01*
X17736Y00509D01*
X17717Y00500D01*
X17708Y00490D01*
X17698Y00471D01*
X17698Y00433D01*
X17708Y00414D01*
X17717Y00405D01*
X17736Y00395D01*
X17746Y00595D02*
X17746Y00747D01*
X17622Y00824D02*
X17622Y00947D01*
X17698Y00881D01*
X17698Y00909D01*
X17708Y00928D01*
X17717Y00938D01*
X17736Y00947D01*
X17784Y00947D01*
X17803Y00938D01*
X17812Y00928D01*
X17822Y00909D01*
X17822Y00852D01*
X17812Y00833D01*
X17803Y00824D01*
X17803Y01033D02*
X17812Y01042D01*
X17822Y01033D01*
X17812Y01023D01*
X17803Y01033D01*
X17822Y01033D01*
X17622Y01166D02*
X17622Y01185D01*
X17631Y01204D01*
X17641Y01213D01*
X17660Y01223D01*
X17698Y01232D01*
X17746Y01232D01*
X17784Y01223D01*
X17803Y01213D01*
X17812Y01204D01*
X17822Y01185D01*
X17822Y01166D01*
X17812Y01147D01*
X17803Y01137D01*
X17784Y01128D01*
X17746Y01118D01*
X17698Y01118D01*
X17660Y01128D01*
X17641Y01137D01*
X17631Y01147D01*
X17622Y01166D01*
X21464Y05010D02*
X21626Y05010D01*
X21645Y05019D01*
X21654Y05029D01*
X21664Y05048D01*
X21664Y05086D01*
X21654Y05105D01*
X21645Y05114D01*
X21626Y05124D01*
X21464Y05124D01*
X21664Y05324D02*
X21664Y05210D01*
X21664Y05267D02*
X21464Y05267D01*
X21493Y05248D01*
X21512Y05229D01*
X21521Y05210D01*
X21464Y05505D02*
X21464Y05410D01*
X21559Y05400D01*
X21550Y05410D01*
X21540Y05429D01*
X21540Y05476D01*
X21550Y05495D01*
X21559Y05505D01*
X21578Y05514D01*
X21626Y05514D01*
X21645Y05505D01*
X21654Y05495D01*
X21664Y05476D01*
X21664Y05429D01*
X21654Y05410D01*
X21645Y05400D01*
X29953Y02907D02*
X29953Y02745D01*
X29962Y02726D01*
X29972Y02717D01*
X29991Y02707D01*
X30029Y02707D01*
X30048Y02717D01*
X30057Y02726D01*
X30067Y02745D01*
X30067Y02907D01*
X30153Y02888D02*
X30163Y02898D01*
X30182Y02907D01*
X30229Y02907D01*
X30248Y02898D01*
X30258Y02888D01*
X30267Y02869D01*
X30267Y02850D01*
X30258Y02821D01*
X30144Y02707D01*
X30267Y02707D01*
X30334Y02907D02*
X30457Y02907D01*
X30391Y02831D01*
X30419Y02831D01*
X30438Y02821D01*
X30448Y02812D01*
X30457Y02793D01*
X30457Y02745D01*
X30448Y02726D01*
X30438Y02717D01*
X30419Y02707D01*
X30362Y02707D01*
X30343Y02717D01*
X30334Y02726D01*
X30089Y-00519D02*
X30089Y-00405D01*
X30289Y-00462D02*
X30089Y-00462D01*
X30270Y-00224D02*
X30279Y-00234D01*
X30289Y-00262D01*
X30289Y-00281D01*
X30279Y-00310D01*
X30260Y-00329D01*
X30241Y-00338D01*
X30203Y-00348D01*
X30175Y-00348D01*
X30137Y-00338D01*
X30118Y-00329D01*
X30098Y-00310D01*
X30089Y-00281D01*
X30089Y-00262D01*
X30098Y-00234D01*
X30108Y-00224D01*
X30289Y-00034D02*
X30289Y-00148D01*
X30289Y-00091D02*
X30089Y-00091D01*
X30118Y-00110D01*
X30137Y-00129D01*
X30146Y-00148D01*
X30089Y00090D02*
X30089Y00109D01*
X30098Y00128D01*
X30108Y00137D01*
X30127Y00147D01*
X30165Y00156D01*
X30213Y00156D01*
X30251Y00147D01*
X30270Y00137D01*
X30279Y00128D01*
X30289Y00109D01*
X30289Y00090D01*
X30279Y00071D01*
X30270Y00061D01*
X30251Y00052D01*
X30213Y00042D01*
X30165Y00042D01*
X30127Y00052D01*
X30108Y00061D01*
X30098Y00071D01*
X30089Y00090D01*
X30289Y00346D02*
X30289Y00232D01*
X30289Y00289D02*
X30089Y00289D01*
X30118Y00270D01*
X30137Y00251D01*
X30146Y00232D01*
X30089Y00517D02*
X30089Y00479D01*
X30098Y00460D01*
X30108Y00451D01*
X30137Y00432D01*
X30175Y00422D01*
X30251Y00422D01*
X30270Y00432D01*
X30279Y00441D01*
X30289Y00460D01*
X30289Y00498D01*
X30279Y00517D01*
X30270Y00527D01*
X30251Y00536D01*
X30203Y00536D01*
X30184Y00527D01*
X30175Y00517D01*
X30165Y00498D01*
X30165Y00460D01*
X30175Y00441D01*
X30184Y00432D01*
X30203Y00422D01*
X30213Y00622D02*
X30213Y00774D01*
X30089Y00851D02*
X30089Y00974D01*
X30165Y00908D01*
X30165Y00936D01*
X30175Y00955D01*
X30184Y00965D01*
X30203Y00974D01*
X30251Y00974D01*
X30270Y00965D01*
X30279Y00955D01*
X30289Y00936D01*
X30289Y00879D01*
X30279Y00860D01*
X30270Y00851D01*
X30270Y01060D02*
X30279Y01069D01*
X30289Y01060D01*
X30279Y01050D01*
X30270Y01060D01*
X30289Y01060D01*
X30089Y01193D02*
X30089Y01212D01*
X30098Y01231D01*
X30108Y01240D01*
X30127Y01250D01*
X30165Y01259D01*
X30213Y01259D01*
X30251Y01250D01*
X30270Y01240D01*
X30279Y01231D01*
X30289Y01212D01*
X30289Y01193D01*
X30279Y01174D01*
X30270Y01164D01*
X30251Y01155D01*
X30213Y01145D01*
X30165Y01145D01*
X30127Y01155D01*
X30108Y01164D01*
X30098Y01174D01*
X30089Y01193D01*
X33864Y05010D02*
X34026Y05010D01*
X34045Y05019D01*
X34054Y05029D01*
X34064Y05048D01*
X34064Y05086D01*
X34054Y05105D01*
X34045Y05114D01*
X34026Y05124D01*
X33864Y05124D01*
X33883Y05210D02*
X33873Y05220D01*
X33864Y05239D01*
X33864Y05286D01*
X33873Y05305D01*
X33883Y05315D01*
X33902Y05324D01*
X33921Y05324D01*
X33950Y05315D01*
X34064Y05201D01*
X34064Y05324D01*
X33883Y05400D02*
X33873Y05410D01*
X33864Y05429D01*
X33864Y05476D01*
X33873Y05495D01*
X33883Y05505D01*
X33902Y05514D01*
X33921Y05514D01*
X33950Y05505D01*
X34064Y05391D01*
X34064Y05514D01*
X36153Y02907D02*
X36153Y02745D01*
X36162Y02726D01*
X36172Y02717D01*
X36191Y02707D01*
X36229Y02707D01*
X36248Y02717D01*
X36257Y02726D01*
X36267Y02745D01*
X36267Y02907D01*
X36344Y02907D02*
X36467Y02907D01*
X36401Y02831D01*
X36429Y02831D01*
X36448Y02821D01*
X36458Y02812D01*
X36467Y02793D01*
X36467Y02745D01*
X36458Y02726D01*
X36448Y02717D01*
X36429Y02707D01*
X36372Y02707D01*
X36353Y02717D01*
X36344Y02726D01*
X36591Y02907D02*
X36610Y02907D01*
X36629Y02898D01*
X36638Y02888D01*
X36648Y02869D01*
X36657Y02831D01*
X36657Y02783D01*
X36648Y02745D01*
X36638Y02726D01*
X36629Y02717D01*
X36610Y02707D01*
X36591Y02707D01*
X36572Y02717D01*
X36562Y02726D01*
X36553Y02745D01*
X36543Y02783D01*
X36543Y02831D01*
X36553Y02869D01*
X36562Y02888D01*
X36572Y02898D01*
X36591Y02907D01*
X36222Y-00546D02*
X36222Y-00432D01*
X36422Y-00489D02*
X36222Y-00489D01*
X36403Y-00251D02*
X36412Y-00261D01*
X36422Y-00289D01*
X36422Y-00308D01*
X36412Y-00337D01*
X36393Y-00356D01*
X36374Y-00365D01*
X36336Y-00375D01*
X36308Y-00375D01*
X36270Y-00365D01*
X36251Y-00356D01*
X36231Y-00337D01*
X36222Y-00308D01*
X36222Y-00289D01*
X36231Y-00261D01*
X36241Y-00251D01*
X36422Y-00061D02*
X36422Y-00175D01*
X36422Y-00118D02*
X36222Y-00118D01*
X36251Y-00137D01*
X36270Y-00156D01*
X36279Y-00175D01*
X36222Y00063D02*
X36222Y00082D01*
X36231Y00101D01*
X36241Y00110D01*
X36260Y00120D01*
X36298Y00129D01*
X36346Y00129D01*
X36384Y00120D01*
X36403Y00110D01*
X36412Y00101D01*
X36422Y00082D01*
X36422Y00063D01*
X36412Y00044D01*
X36403Y00034D01*
X36384Y00025D01*
X36346Y00015D01*
X36298Y00015D01*
X36260Y00025D01*
X36241Y00034D01*
X36231Y00044D01*
X36222Y00063D01*
X36422Y00319D02*
X36422Y00205D01*
X36422Y00262D02*
X36222Y00262D01*
X36251Y00243D01*
X36270Y00224D01*
X36279Y00205D01*
X36222Y00490D02*
X36222Y00452D01*
X36231Y00433D01*
X36241Y00424D01*
X36270Y00405D01*
X36308Y00395D01*
X36384Y00395D01*
X36403Y00405D01*
X36412Y00414D01*
X36422Y00433D01*
X36422Y00471D01*
X36412Y00490D01*
X36403Y00500D01*
X36384Y00509D01*
X36336Y00509D01*
X36317Y00500D01*
X36308Y00490D01*
X36298Y00471D01*
X36298Y00433D01*
X36308Y00414D01*
X36317Y00405D01*
X36336Y00395D01*
X36346Y00595D02*
X36346Y00747D01*
X36222Y00824D02*
X36222Y00947D01*
X36298Y00881D01*
X36298Y00909D01*
X36308Y00928D01*
X36317Y00938D01*
X36336Y00947D01*
X36384Y00947D01*
X36403Y00938D01*
X36412Y00928D01*
X36422Y00909D01*
X36422Y00852D01*
X36412Y00833D01*
X36403Y00824D01*
X36403Y01033D02*
X36412Y01042D01*
X36422Y01033D01*
X36412Y01023D01*
X36403Y01033D01*
X36422Y01033D01*
X36222Y01166D02*
X36222Y01185D01*
X36231Y01204D01*
X36241Y01213D01*
X36260Y01223D01*
X36298Y01232D01*
X36346Y01232D01*
X36384Y01223D01*
X36403Y01213D01*
X36412Y01204D01*
X36422Y01185D01*
X36422Y01166D01*
X36412Y01147D01*
X36403Y01137D01*
X36384Y01128D01*
X36346Y01118D01*
X36298Y01118D01*
X36260Y01128D01*
X36241Y01137D01*
X36231Y01147D01*
X36222Y01166D01*
X40064Y05010D02*
X40226Y05010D01*
X40245Y05019D01*
X40254Y05029D01*
X40264Y05048D01*
X40264Y05086D01*
X40254Y05105D01*
X40245Y05114D01*
X40226Y05124D01*
X40064Y05124D01*
X40083Y05210D02*
X40073Y05220D01*
X40064Y05239D01*
X40064Y05286D01*
X40073Y05305D01*
X40083Y05315D01*
X40102Y05324D01*
X40121Y05324D01*
X40150Y05315D01*
X40264Y05201D01*
X40264Y05324D01*
X40264Y05419D02*
X40264Y05457D01*
X40254Y05476D01*
X40245Y05486D01*
X40216Y05505D01*
X40178Y05514D01*
X40102Y05514D01*
X40083Y05505D01*
X40073Y05495D01*
X40064Y05476D01*
X40064Y05438D01*
X40073Y05419D01*
X40083Y05410D01*
X40102Y05400D01*
X40150Y05400D01*
X40169Y05410D01*
X40178Y05419D01*
X40188Y05438D01*
X40188Y05476D01*
X40178Y05495D01*
X40169Y05505D01*
X40150Y05514D01*
X23753Y02907D02*
X23753Y02745D01*
X23762Y02726D01*
X23772Y02717D01*
X23791Y02707D01*
X23829Y02707D01*
X23848Y02717D01*
X23857Y02726D01*
X23867Y02745D01*
X23867Y02907D01*
X23944Y02907D02*
X24067Y02907D01*
X24001Y02831D01*
X24029Y02831D01*
X24048Y02821D01*
X24058Y02812D01*
X24067Y02793D01*
X24067Y02745D01*
X24058Y02726D01*
X24048Y02717D01*
X24029Y02707D01*
X23972Y02707D01*
X23953Y02717D01*
X23944Y02726D01*
X24134Y02907D02*
X24267Y02907D01*
X24181Y02707D01*
X23822Y-00559D02*
X23822Y-00445D01*
X24022Y-00502D02*
X23822Y-00502D01*
X24003Y-00264D02*
X24012Y-00274D01*
X24022Y-00302D01*
X24022Y-00321D01*
X24012Y-00350D01*
X23993Y-00369D01*
X23974Y-00378D01*
X23936Y-00388D01*
X23908Y-00388D01*
X23870Y-00378D01*
X23851Y-00369D01*
X23831Y-00350D01*
X23822Y-00321D01*
X23822Y-00302D01*
X23831Y-00274D01*
X23841Y-00264D01*
X24022Y-00074D02*
X24022Y-00188D01*
X24022Y-00131D02*
X23822Y-00131D01*
X23851Y-00150D01*
X23870Y-00169D01*
X23879Y-00188D01*
X23822Y00050D02*
X23822Y00069D01*
X23831Y00088D01*
X23841Y00097D01*
X23860Y00107D01*
X23898Y00116D01*
X23946Y00116D01*
X23984Y00107D01*
X24003Y00097D01*
X24012Y00088D01*
X24022Y00069D01*
X24022Y00050D01*
X24012Y00031D01*
X24003Y00021D01*
X23984Y00012D01*
X23946Y00002D01*
X23898Y00002D01*
X23860Y00012D01*
X23841Y00021D01*
X23831Y00031D01*
X23822Y00050D01*
X24022Y00306D02*
X24022Y00192D01*
X24022Y00249D02*
X23822Y00249D01*
X23851Y00230D01*
X23870Y00211D01*
X23879Y00192D01*
X23822Y00477D02*
X23822Y00439D01*
X23831Y00420D01*
X23841Y00411D01*
X23870Y00392D01*
X23908Y00382D01*
X23984Y00382D01*
X24003Y00392D01*
X24012Y00401D01*
X24022Y00420D01*
X24022Y00458D01*
X24012Y00477D01*
X24003Y00487D01*
X23984Y00496D01*
X23936Y00496D01*
X23917Y00487D01*
X23908Y00477D01*
X23898Y00458D01*
X23898Y00420D01*
X23908Y00401D01*
X23917Y00392D01*
X23936Y00382D01*
X23946Y00582D02*
X23946Y00734D01*
X23822Y00811D02*
X23822Y00934D01*
X23898Y00868D01*
X23898Y00896D01*
X23908Y00915D01*
X23917Y00925D01*
X23936Y00934D01*
X23984Y00934D01*
X24003Y00925D01*
X24012Y00915D01*
X24022Y00896D01*
X24022Y00839D01*
X24012Y00820D01*
X24003Y00811D01*
X24003Y01020D02*
X24012Y01029D01*
X24022Y01020D01*
X24012Y01010D01*
X24003Y01020D01*
X24022Y01020D01*
X23822Y01153D02*
X23822Y01172D01*
X23831Y01191D01*
X23841Y01200D01*
X23860Y01210D01*
X23898Y01219D01*
X23946Y01219D01*
X23984Y01210D01*
X24003Y01200D01*
X24012Y01191D01*
X24022Y01172D01*
X24022Y01153D01*
X24012Y01134D01*
X24003Y01124D01*
X23984Y01115D01*
X23946Y01105D01*
X23898Y01105D01*
X23860Y01115D01*
X23841Y01124D01*
X23831Y01134D01*
X23822Y01153D01*
X27664Y05010D02*
X27826Y05010D01*
X27845Y05019D01*
X27854Y05029D01*
X27864Y05048D01*
X27864Y05086D01*
X27854Y05105D01*
X27845Y05114D01*
X27826Y05124D01*
X27664Y05124D01*
X27664Y05201D02*
X27664Y05324D01*
X27740Y05258D01*
X27740Y05286D01*
X27750Y05305D01*
X27759Y05315D01*
X27778Y05324D01*
X27826Y05324D01*
X27845Y05315D01*
X27854Y05305D01*
X27864Y05286D01*
X27864Y05229D01*
X27854Y05210D01*
X27845Y05201D01*
X27664Y05495D02*
X27664Y05457D01*
X27673Y05438D01*
X27683Y05429D01*
X27712Y05410D01*
X27750Y05400D01*
X27826Y05400D01*
X27845Y05410D01*
X27854Y05419D01*
X27864Y05438D01*
X27864Y05476D01*
X27854Y05495D01*
X27845Y05505D01*
X27826Y05514D01*
X27778Y05514D01*
X27759Y05505D01*
X27750Y05495D01*
X27740Y05476D01*
X27740Y05438D01*
X27750Y05419D01*
X27759Y05410D01*
X27778Y05400D01*
X30996Y15069D02*
X31158Y15069D01*
X31177Y15078D01*
X31186Y15088D01*
X31196Y15107D01*
X31196Y15145D01*
X31186Y15164D01*
X31177Y15173D01*
X31158Y15183D01*
X30996Y15183D01*
X31196Y15288D02*
X31196Y15326D01*
X31186Y15345D01*
X31177Y15355D01*
X31148Y15374D01*
X31110Y15383D01*
X31034Y15383D01*
X31015Y15374D01*
X31005Y15364D01*
X30996Y15345D01*
X30996Y15307D01*
X31005Y15288D01*
X31015Y15279D01*
X31034Y15269D01*
X31082Y15269D01*
X31101Y15279D01*
X31110Y15288D01*
X31120Y15307D01*
X31120Y15345D01*
X31110Y15364D01*
X31101Y15374D01*
X31082Y15383D01*
X31580Y13868D02*
X31590Y13897D01*
X31590Y13944D01*
X31580Y13963D01*
X31571Y13973D01*
X31552Y13982D01*
X31533Y13982D01*
X31514Y13973D01*
X31504Y13963D01*
X31495Y13944D01*
X31485Y13906D01*
X31476Y13887D01*
X31466Y13878D01*
X31447Y13868D01*
X31428Y13868D01*
X31409Y13878D01*
X31399Y13887D01*
X31390Y13906D01*
X31390Y13954D01*
X31399Y13982D01*
X31580Y14058D02*
X31590Y14087D01*
X31590Y14134D01*
X31580Y14153D01*
X31571Y14163D01*
X31552Y14172D01*
X31533Y14172D01*
X31514Y14163D01*
X31504Y14153D01*
X31495Y14134D01*
X31485Y14096D01*
X31476Y14077D01*
X31466Y14068D01*
X31447Y14058D01*
X31428Y14058D01*
X31409Y14068D01*
X31399Y14077D01*
X31390Y14096D01*
X31390Y14144D01*
X31399Y14172D01*
X31390Y14229D02*
X31390Y14343D01*
X31590Y14286D02*
X31390Y14286D01*
X31409Y14400D02*
X31399Y14410D01*
X31390Y14429D01*
X31390Y14476D01*
X31399Y14495D01*
X31409Y14505D01*
X31428Y14514D01*
X31447Y14514D01*
X31476Y14505D01*
X31590Y14391D01*
X31590Y14514D01*
X31390Y14695D02*
X31390Y14600D01*
X31485Y14590D01*
X31476Y14600D01*
X31466Y14619D01*
X31466Y14666D01*
X31476Y14685D01*
X31485Y14695D01*
X31504Y14704D01*
X31552Y14704D01*
X31571Y14695D01*
X31580Y14685D01*
X31590Y14666D01*
X31590Y14619D01*
X31580Y14600D01*
X31571Y14590D01*
X31390Y14761D02*
X31590Y14828D01*
X31390Y14894D01*
X31485Y15027D02*
X31485Y14961D01*
X31590Y14961D02*
X31390Y14961D01*
X31390Y15056D01*
X31390Y15170D02*
X31390Y15189D01*
X31399Y15208D01*
X31409Y15217D01*
X31428Y15227D01*
X31466Y15236D01*
X31514Y15236D01*
X31552Y15227D01*
X31571Y15217D01*
X31580Y15208D01*
X31590Y15189D01*
X31590Y15170D01*
X31580Y15151D01*
X31571Y15141D01*
X31552Y15132D01*
X31514Y15122D01*
X31466Y15122D01*
X31428Y15132D01*
X31409Y15141D01*
X31399Y15151D01*
X31390Y15170D01*
X31457Y15407D02*
X31590Y15407D01*
X31380Y15360D02*
X31523Y15312D01*
X31523Y15436D01*
X31390Y15550D02*
X31390Y15569D01*
X31399Y15588D01*
X31409Y15597D01*
X31428Y15607D01*
X31466Y15616D01*
X31514Y15616D01*
X31552Y15607D01*
X31571Y15597D01*
X31580Y15588D01*
X31590Y15569D01*
X31590Y15550D01*
X31580Y15531D01*
X31571Y15521D01*
X31552Y15512D01*
X31514Y15502D01*
X31466Y15502D01*
X31428Y15512D01*
X31409Y15521D01*
X31399Y15531D01*
X31390Y15550D01*
X31485Y15768D02*
X31495Y15797D01*
X31504Y15806D01*
X31523Y15816D01*
X31552Y15816D01*
X31571Y15806D01*
X31580Y15797D01*
X31590Y15778D01*
X31590Y15702D01*
X31390Y15702D01*
X31390Y15768D01*
X31399Y15787D01*
X31409Y15797D01*
X31428Y15806D01*
X31447Y15806D01*
X31466Y15797D01*
X31476Y15787D01*
X31485Y15768D01*
X31485Y15702D01*
X21039Y04228D02*
X21039Y04066D01*
X21048Y04047D01*
X21058Y04038D01*
X21077Y04028D01*
X21115Y04028D01*
X21134Y04038D01*
X21143Y04047D01*
X21153Y04066D01*
X21153Y04228D01*
X21353Y04028D02*
X21239Y04028D01*
X21296Y04028D02*
X21296Y04228D01*
X21277Y04199D01*
X21258Y04180D01*
X21239Y04171D01*
X21448Y04028D02*
X21486Y04028D01*
X21505Y04038D01*
X21515Y04047D01*
X21534Y04076D01*
X21543Y04114D01*
X21543Y04190D01*
X21534Y04209D01*
X21524Y04219D01*
X21505Y04228D01*
X21467Y04228D01*
X21448Y04219D01*
X21439Y04209D01*
X21429Y04190D01*
X21429Y04142D01*
X21439Y04123D01*
X21448Y04114D01*
X21467Y04104D01*
X21505Y04104D01*
X21524Y04114D01*
X21534Y04123D01*
X21543Y04142D01*
X33439Y04228D02*
X33439Y04066D01*
X33448Y04047D01*
X33458Y04038D01*
X33477Y04028D01*
X33515Y04028D01*
X33534Y04038D01*
X33543Y04047D01*
X33553Y04066D01*
X33553Y04228D01*
X33639Y04209D02*
X33649Y04219D01*
X33668Y04228D01*
X33715Y04228D01*
X33734Y04219D01*
X33744Y04209D01*
X33753Y04190D01*
X33753Y04171D01*
X33744Y04142D01*
X33630Y04028D01*
X33753Y04028D01*
X33924Y04228D02*
X33886Y04228D01*
X33867Y04219D01*
X33858Y04209D01*
X33839Y04180D01*
X33829Y04142D01*
X33829Y04066D01*
X33839Y04047D01*
X33848Y04038D01*
X33867Y04028D01*
X33905Y04028D01*
X33924Y04038D01*
X33934Y04047D01*
X33943Y04066D01*
X33943Y04114D01*
X33934Y04133D01*
X33924Y04142D01*
X33905Y04152D01*
X33867Y04152D01*
X33848Y04142D01*
X33839Y04133D01*
X33829Y04114D01*
X39639Y04228D02*
X39639Y04066D01*
X39648Y04047D01*
X39658Y04038D01*
X39677Y04028D01*
X39715Y04028D01*
X39734Y04038D01*
X39743Y04047D01*
X39753Y04066D01*
X39753Y04228D01*
X39830Y04228D02*
X39953Y04228D01*
X39887Y04152D01*
X39915Y04152D01*
X39934Y04142D01*
X39944Y04133D01*
X39953Y04114D01*
X39953Y04066D01*
X39944Y04047D01*
X39934Y04038D01*
X39915Y04028D01*
X39858Y04028D01*
X39839Y04038D01*
X39830Y04047D01*
X40020Y04228D02*
X40143Y04228D01*
X40077Y04152D01*
X40105Y04152D01*
X40124Y04142D01*
X40134Y04133D01*
X40143Y04114D01*
X40143Y04066D01*
X40134Y04047D01*
X40124Y04038D01*
X40105Y04028D01*
X40048Y04028D01*
X40029Y04038D01*
X40020Y04047D01*
X27239Y04228D02*
X27239Y04066D01*
X27248Y04047D01*
X27258Y04038D01*
X27277Y04028D01*
X27315Y04028D01*
X27334Y04038D01*
X27343Y04047D01*
X27353Y04066D01*
X27353Y04228D01*
X27534Y04161D02*
X27534Y04028D01*
X27487Y04238D02*
X27439Y04095D01*
X27563Y04095D01*
X27677Y04228D02*
X27696Y04228D01*
X27715Y04219D01*
X27724Y04209D01*
X27734Y04190D01*
X27743Y04152D01*
X27743Y04104D01*
X27734Y04066D01*
X27724Y04047D01*
X27715Y04038D01*
X27696Y04028D01*
X27677Y04028D01*
X27658Y04038D01*
X27648Y04047D01*
X27639Y04066D01*
X27629Y04104D01*
X27629Y04152D01*
X27639Y04190D01*
X27648Y04209D01*
X27658Y04219D01*
X27677Y04228D01*
X33222Y15538D02*
X33212Y15529D01*
X33184Y15519D01*
X33165Y15519D01*
X33136Y15529D01*
X33117Y15548D01*
X33108Y15567D01*
X33098Y15605D01*
X33098Y15633D01*
X33108Y15671D01*
X33117Y15690D01*
X33136Y15710D01*
X33165Y15719D01*
X33184Y15719D01*
X33212Y15710D01*
X33222Y15700D01*
X33393Y15719D02*
X33355Y15719D01*
X33336Y15710D01*
X33327Y15700D01*
X33308Y15671D01*
X33298Y15633D01*
X33298Y15557D01*
X33308Y15538D01*
X33317Y15529D01*
X33336Y15519D01*
X33374Y15519D01*
X33393Y15529D01*
X33403Y15538D01*
X33412Y15557D01*
X33412Y15605D01*
X33403Y15624D01*
X33393Y15633D01*
X33374Y15643D01*
X33336Y15643D01*
X33317Y15633D01*
X33308Y15624D01*
X33298Y15605D01*
X33479Y15719D02*
X33612Y15719D01*
X33526Y15519D01*
X33260Y15919D02*
X33146Y15919D01*
X33203Y15919D02*
X33203Y16119D01*
X33184Y16090D01*
X33165Y16071D01*
X33146Y16062D01*
X33431Y16052D02*
X33431Y15919D01*
X33346Y16052D02*
X33346Y15948D01*
X33355Y15929D01*
X33374Y15919D01*
X33403Y15919D01*
X33422Y15929D01*
X33431Y15938D01*
X33498Y16052D02*
X33574Y16052D01*
X33527Y15919D02*
X33527Y16090D01*
X33536Y16110D01*
X33555Y16119D01*
X33574Y16119D01*
M02*
