G04 (created by PCBNEW-RS274X (2010-03-14)-final) date Thu 13 Oct 2011 08:56:15 PM EDT*
G01*
G70*
G90*
%MOIN*%
G04 Gerber Fmt 3.4, Leading zero omitted, Abs format*
%FSLAX34Y34*%
G04 APERTURE LIST*
%ADD10C,0.001000*%
%ADD11R,0.010600X0.015700*%
%ADD12R,0.023600X0.019700*%
%ADD13R,0.019700X0.023600*%
%ADD14R,0.035400X0.023600*%
%ADD15R,0.023600X0.035400*%
%ADD16C,0.063000*%
%ADD17R,0.013000X0.100000*%
%ADD18R,0.016500X0.023600*%
%ADD19R,0.031500X0.027600*%
%ADD20R,0.032000X0.013000*%
%ADD21C,0.016000*%
%ADD22C,0.025000*%
%ADD23C,0.005000*%
%ADD24C,0.010000*%
%ADD25C,0.008000*%
%ADD26C,0.015000*%
G04 APERTURE END LIST*
G54D10*
G54D11*
X22252Y-01500D03*
X22448Y-01500D03*
X34652Y-01500D03*
X34848Y-01500D03*
X40852Y-01500D03*
X41048Y-01500D03*
X28452Y-01500D03*
X28648Y-01500D03*
G54D12*
X23000Y09297D03*
X23000Y08903D03*
X23500Y09297D03*
X23500Y08903D03*
X22500Y09297D03*
X22500Y08903D03*
X22000Y09297D03*
X22000Y08903D03*
X29600Y09297D03*
X29600Y08903D03*
X30100Y09297D03*
X30100Y08903D03*
X29100Y09297D03*
X29100Y08903D03*
X28600Y09297D03*
X28600Y08903D03*
X32900Y09297D03*
X32900Y08903D03*
X33400Y09297D03*
X33400Y08903D03*
X32400Y09297D03*
X32400Y08903D03*
X31900Y09297D03*
X31900Y08903D03*
X26300Y09297D03*
X26300Y08903D03*
X26800Y09297D03*
X26800Y08903D03*
X25800Y09297D03*
X25800Y08903D03*
X25300Y09297D03*
X25300Y08903D03*
X27500Y13803D03*
X27500Y14197D03*
X27500Y13497D03*
X27500Y13103D03*
X27000Y13803D03*
X27000Y14197D03*
X28100Y15003D03*
X28100Y15397D03*
X25500Y13297D03*
X25500Y12903D03*
X25700Y11703D03*
X25700Y12097D03*
G54D13*
X28503Y11600D03*
X28897Y11600D03*
X25103Y12500D03*
X25497Y12500D03*
X27897Y12100D03*
X27503Y12100D03*
G54D12*
X28200Y13703D03*
X28200Y14097D03*
X26500Y13803D03*
X26500Y14197D03*
X26500Y13497D03*
X26500Y13103D03*
G54D14*
X27000Y12905D03*
X27000Y13495D03*
G54D15*
X27105Y14900D03*
X27695Y14900D03*
G54D16*
X22300Y10700D03*
X23300Y10700D03*
G54D17*
X17875Y-01900D03*
X18125Y-01900D03*
X18375Y-01900D03*
X18625Y-01900D03*
X18875Y-01900D03*
X19125Y-01900D03*
X19375Y-01900D03*
X19625Y-01900D03*
X19875Y-01900D03*
X20125Y-01900D03*
X20375Y-01900D03*
X20625Y-01900D03*
X20875Y-01900D03*
X21125Y-01900D03*
X21375Y-01900D03*
X21625Y-01900D03*
X21875Y-01900D03*
X22125Y-01900D03*
X30275Y-01900D03*
X30525Y-01900D03*
X30775Y-01900D03*
X31025Y-01900D03*
X31275Y-01900D03*
X31525Y-01900D03*
X31775Y-01900D03*
X32025Y-01900D03*
X32275Y-01900D03*
X32525Y-01900D03*
X32775Y-01900D03*
X33025Y-01900D03*
X33275Y-01900D03*
X33525Y-01900D03*
X33775Y-01900D03*
X34025Y-01900D03*
X34275Y-01900D03*
X34525Y-01900D03*
X36475Y-01900D03*
X36725Y-01900D03*
X36975Y-01900D03*
X37225Y-01900D03*
X37475Y-01900D03*
X37725Y-01900D03*
X37975Y-01900D03*
X38225Y-01900D03*
X38475Y-01900D03*
X38725Y-01900D03*
X38975Y-01900D03*
X39225Y-01900D03*
X39475Y-01900D03*
X39725Y-01900D03*
X39975Y-01900D03*
X40225Y-01900D03*
X40475Y-01900D03*
X40725Y-01900D03*
X24075Y-01900D03*
X24325Y-01900D03*
X24575Y-01900D03*
X24825Y-01900D03*
X25075Y-01900D03*
X25325Y-01900D03*
X25575Y-01900D03*
X25825Y-01900D03*
X26075Y-01900D03*
X26325Y-01900D03*
X26575Y-01900D03*
X26825Y-01900D03*
X27075Y-01900D03*
X27325Y-01900D03*
X27575Y-01900D03*
X27825Y-01900D03*
X28075Y-01900D03*
X28325Y-01900D03*
G54D18*
X26336Y12284D03*
G54D19*
X26789Y12284D03*
G54D18*
X26848Y11496D03*
X26336Y11496D03*
G54D13*
X31103Y15200D03*
X31497Y15200D03*
X32497Y15800D03*
X32103Y15800D03*
X31497Y14800D03*
X31103Y14800D03*
G54D20*
X33500Y15400D03*
X33500Y15150D03*
X33500Y14900D03*
X33500Y14650D03*
X33500Y14400D03*
X33500Y14150D03*
X33500Y13900D03*
X33500Y13650D03*
X33500Y13400D03*
G54D13*
X26097Y15100D03*
X25703Y15100D03*
G54D21*
X28886Y14237D03*
X26704Y10232D03*
X28571Y13285D03*
X28631Y10376D03*
X28267Y12986D03*
X27918Y10219D03*
X29753Y11510D03*
X28882Y12974D03*
X30808Y15255D03*
X29799Y12695D03*
X32947Y14098D03*
X26682Y11714D03*
X29798Y13912D03*
X32969Y14311D03*
X28892Y12030D03*
X29774Y13645D03*
X28581Y12033D03*
X30142Y11150D03*
X29239Y11699D03*
X24748Y11152D03*
X26361Y12024D03*
X23504Y08685D03*
X26798Y08678D03*
X30098Y08697D03*
X33400Y08704D03*
X29242Y13447D03*
X29601Y12491D03*
X32142Y14080D03*
X28892Y15821D03*
X29272Y14970D03*
X28573Y15811D03*
X28569Y15187D03*
X29200Y15169D03*
X31230Y14556D03*
X20106Y00144D03*
X20303Y-00018D03*
X20495Y00138D03*
X20692Y-00014D03*
X20882Y00146D03*
X21083Y-00014D03*
X21431Y-00243D03*
X21291Y00018D03*
X21291Y00239D03*
X21786Y00397D03*
X21783Y00609D03*
X27983Y00609D03*
X21928Y00814D03*
X21785Y01007D03*
X21928Y01200D03*
X21783Y01397D03*
X21932Y01588D03*
X19059Y04076D03*
X20637Y03386D03*
X21933Y04016D03*
X21453Y04989D03*
G54D22*
X18858Y04355D03*
G54D21*
X19308Y04007D03*
X20296Y02623D03*
X18302Y03446D03*
X20097Y03067D03*
X17798Y03451D03*
X28571Y14226D03*
X26899Y09608D03*
X26306Y00144D03*
X26503Y-00018D03*
X26695Y00138D03*
X26892Y-00014D03*
X27082Y00146D03*
X27283Y-00014D03*
X27631Y-00243D03*
X27491Y00018D03*
X27491Y00239D03*
X27986Y00397D03*
X28128Y00814D03*
X27985Y01007D03*
X28128Y01200D03*
X27983Y01397D03*
X28132Y01588D03*
X25259Y04076D03*
X27653Y04989D03*
X28133Y04016D03*
X26837Y03386D03*
G54D22*
X25058Y04355D03*
G54D21*
X25508Y04007D03*
X26368Y04643D03*
X32568Y04643D03*
X24502Y03446D03*
X26496Y02623D03*
X23998Y03451D03*
X26297Y03067D03*
X22997Y08688D03*
X26299Y08685D03*
X29595Y08694D03*
X32900Y08700D03*
X28576Y13583D03*
X32506Y00144D03*
X32703Y-00018D03*
X32895Y00138D03*
X33092Y-00014D03*
X33282Y00146D03*
X33483Y-00014D03*
X33831Y-00243D03*
X33691Y00018D03*
X33691Y00239D03*
X34186Y00397D03*
X34183Y00609D03*
X34328Y00814D03*
X34185Y01007D03*
X34328Y01200D03*
X34183Y01397D03*
X34332Y01588D03*
X31459Y04076D03*
X33853Y04989D03*
X34333Y04016D03*
X33037Y03386D03*
G54D22*
X31258Y04355D03*
G54D21*
X31708Y04007D03*
X30702Y03446D03*
X32696Y02623D03*
X30198Y03451D03*
X32497Y03067D03*
X38706Y00144D03*
X38903Y-00018D03*
X39095Y00138D03*
X39292Y-00014D03*
X39482Y00146D03*
X39683Y-00014D03*
X40031Y-00243D03*
X39891Y00018D03*
X39891Y00239D03*
X40386Y00397D03*
X40383Y00609D03*
X40528Y00814D03*
X40385Y01007D03*
X40528Y01200D03*
X40383Y01397D03*
X40532Y01588D03*
X28145Y10841D03*
X22497Y08682D03*
X25802Y08688D03*
X29104Y08697D03*
X32403Y08700D03*
X22003Y08679D03*
X25308Y08685D03*
X28595Y08708D03*
X31900Y08697D03*
X28555Y10863D03*
X37659Y04076D03*
X40053Y04989D03*
X40533Y04016D03*
X39237Y03386D03*
G54D22*
X37458Y04355D03*
G54D21*
X37908Y04007D03*
X38768Y04643D03*
X20168Y04643D03*
X36902Y03446D03*
X38896Y02623D03*
X36398Y03451D03*
X38697Y03067D03*
X21276Y02380D03*
X21276Y01985D03*
X22391Y02194D03*
X22403Y02607D03*
X22391Y03008D03*
X19551Y03502D03*
X18707Y03465D03*
X21269Y03875D03*
X20648Y03166D03*
X20637Y03696D03*
X20172Y03696D03*
X22379Y03429D03*
X21987Y03594D03*
X22160Y05275D03*
X22387Y04651D03*
X18240Y01791D03*
X18243Y02191D03*
X18245Y02576D03*
X18545Y02845D03*
X18052Y03449D03*
X20276Y01575D03*
X19705Y00999D03*
G54D22*
X22367Y-01901D03*
X17599Y-01896D03*
G54D21*
X23103Y09610D03*
X23845Y09611D03*
X22358Y09614D03*
X25658Y09614D03*
X27145Y09611D03*
X26403Y09610D03*
G54D22*
X23799Y-01896D03*
X28567Y-01901D03*
G54D21*
X25905Y00999D03*
X26476Y01575D03*
X24252Y03449D03*
X24745Y02845D03*
X24445Y02576D03*
X24443Y02191D03*
X24440Y01791D03*
X28587Y04651D03*
X28360Y05275D03*
X28187Y03594D03*
X28579Y03429D03*
X26372Y03696D03*
X26837Y03696D03*
X26848Y03166D03*
X27469Y03875D03*
X24907Y03465D03*
X25751Y03502D03*
X28591Y03008D03*
X28603Y02607D03*
X28591Y02194D03*
X27476Y01985D03*
X27476Y02380D03*
X28958Y09614D03*
X30445Y09611D03*
X29703Y09610D03*
G54D22*
X29999Y-01896D03*
X34767Y-01901D03*
G54D21*
X32105Y00999D03*
X32676Y01575D03*
X30452Y03449D03*
X30945Y02845D03*
X30645Y02576D03*
X30643Y02191D03*
X30640Y01791D03*
X34787Y04651D03*
X34560Y05275D03*
X34387Y03594D03*
X34779Y03429D03*
X32572Y03696D03*
X33037Y03696D03*
X33048Y03166D03*
X33669Y03875D03*
X31107Y03465D03*
X31951Y03502D03*
X34791Y03008D03*
X34803Y02607D03*
X34791Y02194D03*
X33676Y01985D03*
X33676Y02380D03*
X32258Y09614D03*
X33745Y09611D03*
X33003Y09610D03*
G54D22*
X36199Y-01896D03*
X40967Y-01901D03*
G54D21*
X38305Y00999D03*
X38876Y01575D03*
X36652Y03449D03*
X37145Y02845D03*
X36845Y02576D03*
X36843Y02191D03*
X36840Y01791D03*
X40987Y04651D03*
X40760Y05275D03*
X40587Y03594D03*
X40979Y03429D03*
X38772Y03696D03*
X39237Y03696D03*
X39248Y03166D03*
X39869Y03875D03*
X37307Y03465D03*
X38151Y03502D03*
X40991Y03008D03*
X41003Y02607D03*
X40991Y02194D03*
X39876Y01985D03*
X39876Y02380D03*
X30736Y10922D03*
X26056Y12342D03*
X26056Y11714D03*
X26577Y11349D03*
X27948Y12339D03*
X27940Y13126D03*
X27918Y13804D03*
X28244Y14533D03*
X27635Y14605D03*
X26843Y14532D03*
X26061Y14858D03*
X26064Y14547D03*
X25743Y13294D03*
X25739Y13605D03*
X28239Y14867D03*
X30607Y13394D03*
X31001Y13390D03*
X30434Y14009D03*
X32197Y12601D03*
X32193Y12999D03*
X32422Y13194D03*
X33189Y12719D03*
X33395Y12908D03*
X32692Y11104D03*
X32698Y10687D03*
X31606Y10904D03*
X31428Y10704D03*
X28512Y11337D03*
G54D22*
X33836Y14906D03*
X33088Y13864D03*
X33509Y13157D03*
X23759Y12516D03*
X23754Y12815D03*
X22571Y12818D03*
X22573Y12516D03*
X23165Y13751D03*
X23162Y14438D03*
X23162Y15793D03*
X23162Y15508D03*
G54D21*
X26447Y10680D03*
X25153Y10919D03*
X26497Y13652D03*
X27500Y13655D03*
X27297Y13501D03*
X26703Y13496D03*
X26736Y13808D03*
X27255Y13803D03*
X30439Y12392D03*
X30897Y12444D03*
G54D22*
X33164Y15399D03*
G54D21*
X23918Y11906D03*
X23827Y11205D03*
X24778Y11554D03*
X31716Y14796D03*
X31242Y12098D03*
X25115Y15495D03*
X27011Y12643D03*
G54D22*
X22220Y11785D03*
X21788Y12282D03*
G54D21*
X24779Y12501D03*
X31694Y15030D03*
X22097Y09617D03*
X22596Y09609D03*
X23352Y09610D03*
X22845Y09607D03*
X17558Y-00879D03*
X19061Y00117D03*
X25261Y00117D03*
X22174Y-01268D03*
X28697Y09617D03*
X29196Y09609D03*
X29952Y09610D03*
X29445Y09607D03*
X29958Y-00879D03*
X31461Y00117D03*
X34574Y-01268D03*
X31997Y09617D03*
X32496Y09609D03*
X33252Y09610D03*
X32745Y09607D03*
X36158Y-00879D03*
X37661Y00117D03*
X40774Y-01268D03*
X25397Y09617D03*
X25896Y09609D03*
X26652Y09610D03*
X26145Y09607D03*
X23758Y-00879D03*
X28374Y-01268D03*
X27475Y12705D03*
X27926Y12823D03*
X27951Y14557D03*
X26533Y14532D03*
X26071Y14073D03*
X26063Y12818D03*
G54D22*
X24241Y15810D03*
X24534Y15810D03*
G54D21*
X26374Y11722D03*
X27157Y14536D03*
X27914Y14054D03*
X26527Y12681D03*
X25719Y12324D03*
X25735Y12972D03*
X30027Y14649D03*
X32562Y15492D03*
X29167Y11388D03*
X25758Y14839D03*
X28267Y15490D03*
X29210Y15775D03*
X27303Y12036D03*
X27618Y12338D03*
X25416Y13921D03*
X32370Y13490D03*
X30020Y15500D03*
G54D22*
X22062Y15805D03*
X21900Y15611D03*
G54D21*
X28271Y13291D03*
X22973Y13520D03*
X23368Y13516D03*
G54D22*
X23175Y11739D03*
G54D21*
X21714Y05251D03*
X19935Y03612D03*
X19939Y03911D03*
X17546Y03370D03*
X24099Y09594D03*
X27399Y09594D03*
X23746Y03370D03*
X26139Y03911D03*
X26135Y03612D03*
X27914Y05251D03*
X30699Y09594D03*
X29946Y03370D03*
X32339Y03911D03*
X32335Y03612D03*
X34114Y05251D03*
X33999Y09594D03*
X36146Y03370D03*
X38539Y03911D03*
X38535Y03612D03*
X40314Y05251D03*
G54D22*
X33149Y13414D03*
X33849Y13644D03*
X33670Y15640D03*
G54D23*
X29753Y11510D02*
X28882Y12974D01*
X30808Y15255D02*
X31103Y15200D01*
X32947Y14098D02*
X31147Y13142D01*
X31147Y13142D02*
X29799Y12695D01*
X26848Y11496D02*
X26682Y11714D01*
X29798Y13912D02*
X30371Y14161D01*
X30371Y14161D02*
X32709Y14309D01*
X32969Y14311D02*
X32709Y14309D01*
X28892Y12030D02*
X28700Y12955D01*
X28700Y12955D02*
X28745Y13101D01*
X28745Y13101D02*
X29147Y13582D01*
X29147Y13582D02*
X29331Y13675D01*
X29331Y13675D02*
X29774Y13645D01*
X28581Y12033D02*
X28712Y11871D01*
X29379Y11822D02*
X29504Y11630D01*
X29504Y11630D02*
X29602Y11418D01*
X29602Y11418D02*
X29775Y11314D01*
X29775Y11314D02*
X30142Y11150D01*
X29249Y11863D02*
X29379Y11822D01*
X28712Y11871D02*
X29249Y11863D01*
X29239Y11699D02*
X29323Y11521D01*
X29323Y11521D02*
X29323Y11287D01*
X29323Y11287D02*
X29251Y11197D01*
X29251Y11197D02*
X28418Y11107D01*
X28418Y11107D02*
X26081Y11139D01*
X26081Y11139D02*
X24748Y11152D01*
X26361Y12024D02*
X26789Y12284D01*
X23500Y08903D02*
X23504Y08685D01*
X26798Y08678D02*
X26800Y08903D01*
X30100Y08903D02*
X30098Y08697D01*
X33400Y08903D02*
X33400Y08704D01*
X29601Y12491D02*
X29620Y12737D01*
X29620Y12737D02*
X29714Y12838D01*
X29714Y12838D02*
X31109Y13236D01*
X31109Y13236D02*
X31962Y13746D01*
X32142Y14080D02*
X31962Y13746D01*
X28892Y15821D02*
X29180Y15932D01*
X29180Y15932D02*
X29879Y15945D01*
X29879Y15945D02*
X31795Y15703D01*
X31795Y15703D02*
X32340Y15298D01*
X32340Y15298D02*
X33008Y15001D01*
X33008Y15001D02*
X33282Y14924D01*
X33282Y14924D02*
X33500Y14900D01*
X33500Y14900D02*
X33637Y14884D01*
X32216Y15245D02*
X31741Y15609D01*
X30145Y15762D02*
X31741Y15609D01*
X29332Y15039D02*
X29272Y14970D01*
X29531Y15358D02*
X29332Y15039D01*
X29531Y15358D02*
X29756Y15668D01*
X29756Y15668D02*
X29885Y15750D01*
X29885Y15750D02*
X30006Y15773D01*
X30006Y15773D02*
X30145Y15762D01*
X33500Y14650D02*
X33285Y14699D01*
X33285Y14699D02*
X33160Y14797D01*
X33160Y14797D02*
X32876Y14923D01*
X32876Y14923D02*
X32220Y15241D01*
X32936Y14786D02*
X32160Y15136D01*
X32160Y15136D02*
X31683Y15505D01*
X31683Y15505D02*
X29982Y15660D01*
X29982Y15660D02*
X29928Y15646D01*
X29847Y15586D02*
X29747Y15467D01*
X29847Y15586D02*
X29928Y15646D01*
X29472Y14973D02*
X29747Y15467D01*
X29472Y14973D02*
X29395Y14857D01*
X29395Y14857D02*
X29283Y14798D01*
X29283Y14798D02*
X29139Y14852D01*
X29139Y14852D02*
X28775Y15409D01*
X28775Y15409D02*
X28628Y15553D01*
X28628Y15553D02*
X28573Y15811D01*
X33500Y14400D02*
X33314Y14475D01*
X33314Y14475D02*
X33235Y14589D01*
X33235Y14589D02*
X33148Y14678D01*
X33148Y14678D02*
X33046Y14738D01*
X33046Y14738D02*
X32936Y14786D01*
X28569Y15187D02*
X28987Y14746D01*
X28987Y14746D02*
X29240Y14581D01*
X29240Y14581D02*
X29416Y14590D01*
X29416Y14590D02*
X29938Y14912D01*
X29938Y14912D02*
X30717Y15425D01*
X30717Y15425D02*
X31639Y15403D01*
X31639Y15403D02*
X32106Y15050D01*
X32106Y15050D02*
X32570Y14839D01*
X32570Y14839D02*
X33099Y14576D01*
X33099Y14576D02*
X33190Y14471D01*
X33500Y14150D02*
X33326Y14214D01*
X33326Y14214D02*
X33229Y14342D01*
X33229Y14342D02*
X33190Y14471D01*
X29200Y15169D02*
X28860Y15466D01*
X28860Y15466D02*
X28724Y15771D01*
X28724Y15771D02*
X28742Y15872D01*
X28742Y15872D02*
X28796Y15969D01*
X28796Y15969D02*
X29112Y16045D01*
X29112Y16045D02*
X29894Y16054D01*
X29894Y16054D02*
X32103Y15800D01*
X32103Y15800D02*
X32408Y15379D01*
X32408Y15379D02*
X33034Y15171D01*
X33034Y15171D02*
X33500Y15150D01*
X31103Y14800D02*
X31230Y14556D01*
X31230Y14556D02*
X32974Y14493D01*
X32974Y14493D02*
X33095Y14424D01*
X33095Y14424D02*
X33130Y14320D01*
X33130Y14320D02*
X33263Y13961D01*
X33263Y13961D02*
X33500Y13900D01*
X18125Y-01900D02*
X18160Y-01327D01*
X18160Y-01327D02*
X18339Y-01085D01*
X18339Y-01085D02*
X18794Y-00722D01*
X18794Y-00722D02*
X20106Y00144D01*
X18375Y-01900D02*
X18412Y-01332D01*
X18412Y-01332D02*
X18489Y-01172D01*
X18489Y-01172D02*
X18731Y-00983D01*
X18731Y-00983D02*
X20303Y-00018D01*
X18625Y-01900D02*
X18654Y-01336D01*
X18654Y-01336D02*
X18946Y-01002D01*
X18946Y-01002D02*
X19677Y-00586D01*
X19677Y-00586D02*
X20372Y-00276D01*
X20372Y-00276D02*
X20494Y-00107D01*
X20494Y-00107D02*
X20495Y00138D01*
X18875Y-01900D02*
X18920Y-01332D01*
X18920Y-01332D02*
X18999Y-01167D01*
X18999Y-01167D02*
X19193Y-00997D01*
X19193Y-00997D02*
X20537Y-00339D01*
X20537Y-00339D02*
X20691Y-00102D01*
X20692Y-00014D02*
X20691Y-00102D01*
X19125Y-01900D02*
X19135Y-01336D01*
X19135Y-01336D02*
X19294Y-01084D01*
X19294Y-01084D02*
X20795Y-00334D01*
X20795Y-00334D02*
X20886Y-00194D01*
X20886Y-00194D02*
X20882Y00146D01*
X19375Y-01900D02*
X19396Y-01346D01*
X19396Y-01346D02*
X19512Y-01128D01*
X19512Y-01128D02*
X19846Y-00934D01*
X19846Y-00934D02*
X20960Y-00426D01*
X20960Y-00426D02*
X21084Y-00245D01*
X21084Y-00245D02*
X21083Y-00014D01*
X19625Y-01900D02*
X19653Y-01327D01*
X19653Y-01327D02*
X19812Y-01138D01*
X19812Y-01138D02*
X20437Y-00789D01*
X20437Y-00789D02*
X21143Y-00450D01*
X21143Y-00450D02*
X21431Y-00243D01*
X19875Y-01900D02*
X19914Y-01331D01*
X19914Y-01331D02*
X20151Y-01114D01*
X20151Y-01114D02*
X21492Y-00423D01*
X21492Y-00423D02*
X21583Y-00312D01*
X21583Y-00312D02*
X21595Y-00115D01*
X21466Y00019D02*
X21291Y00018D01*
X21595Y-00115D02*
X21466Y00019D01*
X21291Y00239D02*
X21581Y00128D01*
X21581Y00128D02*
X21704Y-00080D01*
X21704Y-00080D02*
X21697Y-00243D01*
X21697Y-00243D02*
X21681Y-00374D01*
X21681Y-00374D02*
X21562Y-00500D01*
X21562Y-00500D02*
X20212Y-01196D01*
X20212Y-01196D02*
X20132Y-01297D01*
X20132Y-01297D02*
X20125Y-01900D01*
X21786Y00397D02*
X21840Y00112D01*
X21840Y00112D02*
X21842Y-00131D01*
X21842Y-00131D02*
X21788Y-00379D01*
X21788Y-00379D02*
X21746Y-00481D01*
X21585Y-00610D02*
X21746Y-00481D01*
X21585Y-00610D02*
X21310Y-00743D01*
X21310Y-00743D02*
X20524Y-01176D01*
X20524Y-01176D02*
X20403Y-01259D01*
X20403Y-01259D02*
X20374Y-01356D01*
X20374Y-01356D02*
X20375Y-01900D01*
X20798Y-01160D02*
X20660Y-01278D01*
X20660Y-01278D02*
X20625Y-01900D01*
X21653Y-00719D02*
X20798Y-01160D01*
X21850Y-00527D02*
X21653Y-00719D01*
X21954Y00399D02*
X21947Y00044D01*
X21947Y00044D02*
X21940Y-00215D01*
X21940Y-00215D02*
X21850Y-00527D01*
X21935Y00544D02*
X21954Y00399D01*
X21783Y00609D02*
X21935Y00544D01*
X27983Y00609D02*
X28135Y00544D01*
X21928Y00814D02*
X22041Y00578D01*
X22041Y00578D02*
X22061Y00329D01*
X22061Y00329D02*
X22054Y-00040D01*
X22054Y-00040D02*
X22038Y-00246D01*
X22038Y-00246D02*
X21935Y-00593D01*
X21935Y-00593D02*
X21716Y-00801D01*
X21716Y-00801D02*
X21008Y-01181D01*
X21008Y-01181D02*
X20892Y-01341D01*
X20892Y-01341D02*
X20875Y-01900D01*
X21785Y01007D02*
X22015Y00963D01*
X22015Y00963D02*
X22130Y00797D01*
X22130Y00797D02*
X22143Y00605D01*
X22143Y00605D02*
X22166Y00358D01*
X22166Y00358D02*
X22160Y00023D01*
X22160Y00023D02*
X22143Y-00241D01*
X22143Y-00241D02*
X22033Y-00654D01*
X22033Y-00654D02*
X21772Y-00885D01*
X21772Y-00885D02*
X21321Y-01128D01*
X21321Y-01128D02*
X21173Y-01293D01*
X21173Y-01293D02*
X21125Y-01900D01*
X21928Y01200D02*
X22085Y01076D01*
X22222Y00880D02*
X22269Y00429D01*
X22269Y00429D02*
X22267Y00072D01*
X22267Y00072D02*
X22251Y-00229D01*
X22251Y-00229D02*
X22143Y-00691D01*
X22143Y-00691D02*
X21847Y-00960D01*
X21847Y-00960D02*
X21618Y-01084D01*
X21618Y-01084D02*
X21425Y-01279D01*
X21425Y-01279D02*
X21389Y-01355D01*
X21389Y-01355D02*
X21375Y-01900D01*
X22085Y01076D02*
X22222Y00880D01*
X21783Y01397D02*
X22105Y01317D01*
X22105Y01317D02*
X22318Y00971D01*
X22318Y00971D02*
X22373Y00434D01*
X22373Y00434D02*
X22366Y-00234D01*
X22366Y-00234D02*
X22311Y-00579D01*
X22311Y-00579D02*
X22202Y-00801D01*
X22202Y-00801D02*
X21865Y-01093D01*
X21865Y-01093D02*
X21704Y-01235D01*
X21704Y-01235D02*
X21644Y-01377D01*
X21644Y-01377D02*
X21625Y-01900D01*
X21932Y01588D02*
X22206Y01365D01*
X22206Y01365D02*
X22441Y00968D01*
X22441Y00968D02*
X22482Y00312D01*
X22482Y00312D02*
X22471Y-00235D01*
X22471Y-00235D02*
X22416Y-00612D01*
X22416Y-00612D02*
X22290Y-00855D01*
X22290Y-00855D02*
X21980Y-01231D01*
X21980Y-01231D02*
X21916Y-01374D01*
X21916Y-01374D02*
X21875Y-01900D01*
G54D24*
X21453Y04989D02*
X21933Y04016D01*
X20637Y03386D02*
X21449Y03678D01*
X21449Y03678D02*
X21933Y04016D01*
G54D23*
X20168Y04643D02*
X19308Y04007D01*
X20296Y02623D02*
X20275Y03094D01*
X20275Y03094D02*
X20222Y03175D01*
X20222Y03175D02*
X20144Y03225D01*
X20144Y03225D02*
X19976Y03232D01*
X19976Y03232D02*
X18595Y03256D01*
X18302Y03446D02*
X18595Y03256D01*
X20097Y03067D02*
X18376Y03168D01*
X18376Y03168D02*
X17952Y03245D01*
X17798Y03451D02*
X17952Y03245D01*
X24994Y-00722D02*
X26306Y00144D01*
X24539Y-01085D02*
X24994Y-00722D01*
X24360Y-01327D02*
X24539Y-01085D01*
X24325Y-01900D02*
X24360Y-01327D01*
X24931Y-00983D02*
X26503Y-00018D01*
X24689Y-01172D02*
X24931Y-00983D01*
X24612Y-01332D02*
X24689Y-01172D01*
X24575Y-01900D02*
X24612Y-01332D01*
X26694Y-00107D02*
X26695Y00138D01*
X26572Y-00276D02*
X26694Y-00107D01*
X25877Y-00586D02*
X26572Y-00276D01*
X25146Y-01002D02*
X25877Y-00586D01*
X24854Y-01336D02*
X25146Y-01002D01*
X24825Y-01900D02*
X24854Y-01336D01*
X26892Y-00014D02*
X26891Y-00102D01*
X26737Y-00339D02*
X26891Y-00102D01*
X25393Y-00997D02*
X26737Y-00339D01*
X25199Y-01167D02*
X25393Y-00997D01*
X25120Y-01332D02*
X25199Y-01167D01*
X25075Y-01900D02*
X25120Y-01332D01*
X27086Y-00194D02*
X27082Y00146D01*
X26995Y-00334D02*
X27086Y-00194D01*
X25494Y-01084D02*
X26995Y-00334D01*
X25335Y-01336D02*
X25494Y-01084D01*
X25325Y-01900D02*
X25335Y-01336D01*
X27284Y-00245D02*
X27283Y-00014D01*
X27160Y-00426D02*
X27284Y-00245D01*
X26046Y-00934D02*
X27160Y-00426D01*
X25712Y-01128D02*
X26046Y-00934D01*
X25596Y-01346D02*
X25712Y-01128D01*
X25575Y-01900D02*
X25596Y-01346D01*
X27343Y-00450D02*
X27631Y-00243D01*
X26637Y-00789D02*
X27343Y-00450D01*
X26012Y-01138D02*
X26637Y-00789D01*
X25853Y-01327D02*
X26012Y-01138D01*
X25825Y-01900D02*
X25853Y-01327D01*
X27795Y-00115D02*
X27666Y00019D01*
X27666Y00019D02*
X27491Y00018D01*
X27783Y-00312D02*
X27795Y-00115D01*
X27692Y-00423D02*
X27783Y-00312D01*
X26351Y-01114D02*
X27692Y-00423D01*
X26114Y-01331D02*
X26351Y-01114D01*
X26075Y-01900D02*
X26114Y-01331D01*
X26332Y-01297D02*
X26325Y-01900D01*
X26412Y-01196D02*
X26332Y-01297D01*
X27762Y-00500D02*
X26412Y-01196D01*
X27881Y-00374D02*
X27762Y-00500D01*
X27897Y-00243D02*
X27881Y-00374D01*
X27904Y-00080D02*
X27897Y-00243D01*
X27781Y00128D02*
X27904Y-00080D01*
X27491Y00239D02*
X27781Y00128D01*
X26574Y-01356D02*
X26575Y-01900D01*
X26603Y-01259D02*
X26574Y-01356D01*
X26724Y-01176D02*
X26603Y-01259D01*
X27510Y-00743D02*
X26724Y-01176D01*
X27785Y-00610D02*
X27510Y-00743D01*
X27785Y-00610D02*
X27946Y-00481D01*
X27988Y-00379D02*
X27946Y-00481D01*
X28042Y-00131D02*
X27988Y-00379D01*
X28040Y00112D02*
X28042Y-00131D01*
X27986Y00397D02*
X28040Y00112D01*
X28140Y-00215D02*
X28050Y-00527D01*
X28147Y00044D02*
X28140Y-00215D01*
X28154Y00399D02*
X28147Y00044D01*
X28135Y00544D02*
X28154Y00399D01*
X28050Y-00527D02*
X27853Y-00719D01*
X27853Y-00719D02*
X26998Y-01160D01*
X26860Y-01278D02*
X26825Y-01900D01*
X26998Y-01160D02*
X26860Y-01278D01*
X27092Y-01341D02*
X27075Y-01900D01*
X27208Y-01181D02*
X27092Y-01341D01*
X27916Y-00801D02*
X27208Y-01181D01*
X28135Y-00593D02*
X27916Y-00801D01*
X28238Y-00246D02*
X28135Y-00593D01*
X28254Y-00040D02*
X28238Y-00246D01*
X28261Y00329D02*
X28254Y-00040D01*
X28241Y00578D02*
X28261Y00329D01*
X28128Y00814D02*
X28241Y00578D01*
X27373Y-01293D02*
X27325Y-01900D01*
X27521Y-01128D02*
X27373Y-01293D01*
X27972Y-00885D02*
X27521Y-01128D01*
X28233Y-00654D02*
X27972Y-00885D01*
X28343Y-00241D02*
X28233Y-00654D01*
X28360Y00023D02*
X28343Y-00241D01*
X28366Y00358D02*
X28360Y00023D01*
X28343Y00605D02*
X28366Y00358D01*
X28330Y00797D02*
X28343Y00605D01*
X28215Y00963D02*
X28330Y00797D01*
X27985Y01007D02*
X28215Y00963D01*
X28285Y01076D02*
X28422Y00880D01*
X27589Y-01355D02*
X27575Y-01900D01*
X27625Y-01279D02*
X27589Y-01355D01*
X27818Y-01084D02*
X27625Y-01279D01*
X28047Y-00960D02*
X27818Y-01084D01*
X28343Y-00691D02*
X28047Y-00960D01*
X28451Y-00229D02*
X28343Y-00691D01*
X28467Y00072D02*
X28451Y-00229D01*
X28469Y00429D02*
X28467Y00072D01*
X28422Y00880D02*
X28469Y00429D01*
X28128Y01200D02*
X28285Y01076D01*
X27844Y-01377D02*
X27825Y-01900D01*
X27904Y-01235D02*
X27844Y-01377D01*
X28065Y-01093D02*
X27904Y-01235D01*
X28402Y-00801D02*
X28065Y-01093D01*
X28511Y-00579D02*
X28402Y-00801D01*
X28566Y-00234D02*
X28511Y-00579D01*
X28573Y00434D02*
X28566Y-00234D01*
X28518Y00971D02*
X28573Y00434D01*
X28305Y01317D02*
X28518Y00971D01*
X27983Y01397D02*
X28305Y01317D01*
X28116Y-01374D02*
X28075Y-01900D01*
X28180Y-01231D02*
X28116Y-01374D01*
X28490Y-00855D02*
X28180Y-01231D01*
X28616Y-00612D02*
X28490Y-00855D01*
X28671Y-00235D02*
X28616Y-00612D01*
X28682Y00312D02*
X28671Y-00235D01*
X28641Y00968D02*
X28682Y00312D01*
X28406Y01365D02*
X28641Y00968D01*
X28132Y01588D02*
X28406Y01365D01*
G54D24*
X27649Y03678D02*
X28133Y04016D01*
X26837Y03386D02*
X27649Y03678D01*
X27653Y04989D02*
X28133Y04016D01*
G54D23*
X26368Y04643D02*
X25508Y04007D01*
X32568Y04643D02*
X31708Y04007D01*
X24502Y03446D02*
X24795Y03256D01*
X26176Y03232D02*
X24795Y03256D01*
X26344Y03225D02*
X26176Y03232D01*
X26422Y03175D02*
X26344Y03225D01*
X26475Y03094D02*
X26422Y03175D01*
X26496Y02623D02*
X26475Y03094D01*
X23998Y03451D02*
X24152Y03245D01*
X24576Y03168D02*
X24152Y03245D01*
X26297Y03067D02*
X24576Y03168D01*
X23000Y08903D02*
X22997Y08688D01*
X26300Y08903D02*
X26299Y08685D01*
X29600Y08903D02*
X29595Y08694D01*
X32900Y08903D02*
X32900Y08700D01*
X31194Y-00722D02*
X32506Y00144D01*
X30739Y-01085D02*
X31194Y-00722D01*
X30560Y-01327D02*
X30739Y-01085D01*
X30525Y-01900D02*
X30560Y-01327D01*
X31131Y-00983D02*
X32703Y-00018D01*
X30889Y-01172D02*
X31131Y-00983D01*
X30812Y-01332D02*
X30889Y-01172D01*
X30775Y-01900D02*
X30812Y-01332D01*
X32894Y-00107D02*
X32895Y00138D01*
X32772Y-00276D02*
X32894Y-00107D01*
X32077Y-00586D02*
X32772Y-00276D01*
X31346Y-01002D02*
X32077Y-00586D01*
X31054Y-01336D02*
X31346Y-01002D01*
X31025Y-01900D02*
X31054Y-01336D01*
X33092Y-00014D02*
X33091Y-00102D01*
X32937Y-00339D02*
X33091Y-00102D01*
X31593Y-00997D02*
X32937Y-00339D01*
X31399Y-01167D02*
X31593Y-00997D01*
X31320Y-01332D02*
X31399Y-01167D01*
X31275Y-01900D02*
X31320Y-01332D01*
X33286Y-00194D02*
X33282Y00146D01*
X33195Y-00334D02*
X33286Y-00194D01*
X31694Y-01084D02*
X33195Y-00334D01*
X31535Y-01336D02*
X31694Y-01084D01*
X31525Y-01900D02*
X31535Y-01336D01*
X33484Y-00245D02*
X33483Y-00014D01*
X33360Y-00426D02*
X33484Y-00245D01*
X32246Y-00934D02*
X33360Y-00426D01*
X31912Y-01128D02*
X32246Y-00934D01*
X31796Y-01346D02*
X31912Y-01128D01*
X31775Y-01900D02*
X31796Y-01346D01*
X33543Y-00450D02*
X33831Y-00243D01*
X32837Y-00789D02*
X33543Y-00450D01*
X32212Y-01138D02*
X32837Y-00789D01*
X32053Y-01327D02*
X32212Y-01138D01*
X32025Y-01900D02*
X32053Y-01327D01*
X33995Y-00115D02*
X33866Y00019D01*
X33866Y00019D02*
X33691Y00018D01*
X33983Y-00312D02*
X33995Y-00115D01*
X33892Y-00423D02*
X33983Y-00312D01*
X32551Y-01114D02*
X33892Y-00423D01*
X32314Y-01331D02*
X32551Y-01114D01*
X32275Y-01900D02*
X32314Y-01331D01*
X32532Y-01297D02*
X32525Y-01900D01*
X32612Y-01196D02*
X32532Y-01297D01*
X33962Y-00500D02*
X32612Y-01196D01*
X34081Y-00374D02*
X33962Y-00500D01*
X34097Y-00243D02*
X34081Y-00374D01*
X34104Y-00080D02*
X34097Y-00243D01*
X33981Y00128D02*
X34104Y-00080D01*
X33691Y00239D02*
X33981Y00128D01*
X32774Y-01356D02*
X32775Y-01900D01*
X32803Y-01259D02*
X32774Y-01356D01*
X32924Y-01176D02*
X32803Y-01259D01*
X33710Y-00743D02*
X32924Y-01176D01*
X33985Y-00610D02*
X33710Y-00743D01*
X33985Y-00610D02*
X34146Y-00481D01*
X34188Y-00379D02*
X34146Y-00481D01*
X34242Y-00131D02*
X34188Y-00379D01*
X34240Y00112D02*
X34242Y-00131D01*
X34186Y00397D02*
X34240Y00112D01*
X34340Y-00215D02*
X34250Y-00527D01*
X34347Y00044D02*
X34340Y-00215D01*
X34354Y00399D02*
X34347Y00044D01*
X34335Y00544D02*
X34354Y00399D01*
X34183Y00609D02*
X34335Y00544D01*
X34250Y-00527D02*
X34053Y-00719D01*
X34053Y-00719D02*
X33198Y-01160D01*
X33060Y-01278D02*
X33025Y-01900D01*
X33198Y-01160D02*
X33060Y-01278D01*
X33292Y-01341D02*
X33275Y-01900D01*
X33408Y-01181D02*
X33292Y-01341D01*
X34116Y-00801D02*
X33408Y-01181D01*
X34335Y-00593D02*
X34116Y-00801D01*
X34438Y-00246D02*
X34335Y-00593D01*
X34454Y-00040D02*
X34438Y-00246D01*
X34461Y00329D02*
X34454Y-00040D01*
X34441Y00578D02*
X34461Y00329D01*
X34328Y00814D02*
X34441Y00578D01*
X33573Y-01293D02*
X33525Y-01900D01*
X33721Y-01128D02*
X33573Y-01293D01*
X34172Y-00885D02*
X33721Y-01128D01*
X34433Y-00654D02*
X34172Y-00885D01*
X34543Y-00241D02*
X34433Y-00654D01*
X34560Y00023D02*
X34543Y-00241D01*
X34566Y00358D02*
X34560Y00023D01*
X34543Y00605D02*
X34566Y00358D01*
X34530Y00797D02*
X34543Y00605D01*
X34415Y00963D02*
X34530Y00797D01*
X34185Y01007D02*
X34415Y00963D01*
X34485Y01076D02*
X34622Y00880D01*
X33789Y-01355D02*
X33775Y-01900D01*
X33825Y-01279D02*
X33789Y-01355D01*
X34018Y-01084D02*
X33825Y-01279D01*
X34247Y-00960D02*
X34018Y-01084D01*
X34543Y-00691D02*
X34247Y-00960D01*
X34651Y-00229D02*
X34543Y-00691D01*
X34667Y00072D02*
X34651Y-00229D01*
X34669Y00429D02*
X34667Y00072D01*
X34622Y00880D02*
X34669Y00429D01*
X34328Y01200D02*
X34485Y01076D01*
X34044Y-01377D02*
X34025Y-01900D01*
X34104Y-01235D02*
X34044Y-01377D01*
X34265Y-01093D02*
X34104Y-01235D01*
X34602Y-00801D02*
X34265Y-01093D01*
X34711Y-00579D02*
X34602Y-00801D01*
X34766Y-00234D02*
X34711Y-00579D01*
X34773Y00434D02*
X34766Y-00234D01*
X34718Y00971D02*
X34773Y00434D01*
X34505Y01317D02*
X34718Y00971D01*
X34183Y01397D02*
X34505Y01317D01*
X34316Y-01374D02*
X34275Y-01900D01*
X34380Y-01231D02*
X34316Y-01374D01*
X34690Y-00855D02*
X34380Y-01231D01*
X34816Y-00612D02*
X34690Y-00855D01*
X34871Y-00235D02*
X34816Y-00612D01*
X34882Y00312D02*
X34871Y-00235D01*
X34841Y00968D02*
X34882Y00312D01*
X34606Y01365D02*
X34841Y00968D01*
X34332Y01588D02*
X34606Y01365D01*
G54D24*
X33849Y03678D02*
X34333Y04016D01*
X33037Y03386D02*
X33849Y03678D01*
X33853Y04989D02*
X34333Y04016D01*
G54D23*
X30702Y03446D02*
X30995Y03256D01*
X32376Y03232D02*
X30995Y03256D01*
X32544Y03225D02*
X32376Y03232D01*
X32622Y03175D02*
X32544Y03225D01*
X32675Y03094D02*
X32622Y03175D01*
X32696Y02623D02*
X32675Y03094D01*
X30198Y03451D02*
X30352Y03245D01*
X30776Y03168D02*
X30352Y03245D01*
X32497Y03067D02*
X30776Y03168D01*
X37394Y-00722D02*
X38706Y00144D01*
X36939Y-01085D02*
X37394Y-00722D01*
X36760Y-01327D02*
X36939Y-01085D01*
X36725Y-01900D02*
X36760Y-01327D01*
X37331Y-00983D02*
X38903Y-00018D01*
X37089Y-01172D02*
X37331Y-00983D01*
X37012Y-01332D02*
X37089Y-01172D01*
X36975Y-01900D02*
X37012Y-01332D01*
X39094Y-00107D02*
X39095Y00138D01*
X38972Y-00276D02*
X39094Y-00107D01*
X38277Y-00586D02*
X38972Y-00276D01*
X37546Y-01002D02*
X38277Y-00586D01*
X37254Y-01336D02*
X37546Y-01002D01*
X37225Y-01900D02*
X37254Y-01336D01*
X39292Y-00014D02*
X39291Y-00102D01*
X39137Y-00339D02*
X39291Y-00102D01*
X37793Y-00997D02*
X39137Y-00339D01*
X37599Y-01167D02*
X37793Y-00997D01*
X37520Y-01332D02*
X37599Y-01167D01*
X37475Y-01900D02*
X37520Y-01332D01*
X39486Y-00194D02*
X39482Y00146D01*
X39395Y-00334D02*
X39486Y-00194D01*
X37894Y-01084D02*
X39395Y-00334D01*
X37735Y-01336D02*
X37894Y-01084D01*
X37725Y-01900D02*
X37735Y-01336D01*
X39684Y-00245D02*
X39683Y-00014D01*
X39560Y-00426D02*
X39684Y-00245D01*
X38446Y-00934D02*
X39560Y-00426D01*
X38112Y-01128D02*
X38446Y-00934D01*
X37996Y-01346D02*
X38112Y-01128D01*
X37975Y-01900D02*
X37996Y-01346D01*
X39743Y-00450D02*
X40031Y-00243D01*
X39037Y-00789D02*
X39743Y-00450D01*
X38412Y-01138D02*
X39037Y-00789D01*
X38253Y-01327D02*
X38412Y-01138D01*
X38225Y-01900D02*
X38253Y-01327D01*
X40195Y-00115D02*
X40066Y00019D01*
X40066Y00019D02*
X39891Y00018D01*
X40183Y-00312D02*
X40195Y-00115D01*
X40092Y-00423D02*
X40183Y-00312D01*
X38751Y-01114D02*
X40092Y-00423D01*
X38514Y-01331D02*
X38751Y-01114D01*
X38475Y-01900D02*
X38514Y-01331D01*
X38732Y-01297D02*
X38725Y-01900D01*
X38812Y-01196D02*
X38732Y-01297D01*
X40162Y-00500D02*
X38812Y-01196D01*
X40281Y-00374D02*
X40162Y-00500D01*
X40297Y-00243D02*
X40281Y-00374D01*
X40304Y-00080D02*
X40297Y-00243D01*
X40181Y00128D02*
X40304Y-00080D01*
X39891Y00239D02*
X40181Y00128D01*
X38974Y-01356D02*
X38975Y-01900D01*
X39003Y-01259D02*
X38974Y-01356D01*
X39124Y-01176D02*
X39003Y-01259D01*
X39910Y-00743D02*
X39124Y-01176D01*
X40185Y-00610D02*
X39910Y-00743D01*
X40185Y-00610D02*
X40346Y-00481D01*
X40388Y-00379D02*
X40346Y-00481D01*
X40442Y-00131D02*
X40388Y-00379D01*
X40440Y00112D02*
X40442Y-00131D01*
X40386Y00397D02*
X40440Y00112D01*
X40540Y-00215D02*
X40450Y-00527D01*
X40547Y00044D02*
X40540Y-00215D01*
X40554Y00399D02*
X40547Y00044D01*
X40535Y00544D02*
X40554Y00399D01*
X40383Y00609D02*
X40535Y00544D01*
X40450Y-00527D02*
X40253Y-00719D01*
X40253Y-00719D02*
X39398Y-01160D01*
X39260Y-01278D02*
X39225Y-01900D01*
X39398Y-01160D02*
X39260Y-01278D01*
X39492Y-01341D02*
X39475Y-01900D01*
X39608Y-01181D02*
X39492Y-01341D01*
X40316Y-00801D02*
X39608Y-01181D01*
X40535Y-00593D02*
X40316Y-00801D01*
X40638Y-00246D02*
X40535Y-00593D01*
X40654Y-00040D02*
X40638Y-00246D01*
X40661Y00329D02*
X40654Y-00040D01*
X40641Y00578D02*
X40661Y00329D01*
X40528Y00814D02*
X40641Y00578D01*
X39773Y-01293D02*
X39725Y-01900D01*
X39921Y-01128D02*
X39773Y-01293D01*
X40372Y-00885D02*
X39921Y-01128D01*
X40633Y-00654D02*
X40372Y-00885D01*
X40743Y-00241D02*
X40633Y-00654D01*
X40760Y00023D02*
X40743Y-00241D01*
X40766Y00358D02*
X40760Y00023D01*
X40743Y00605D02*
X40766Y00358D01*
X40730Y00797D02*
X40743Y00605D01*
X40615Y00963D02*
X40730Y00797D01*
X40385Y01007D02*
X40615Y00963D01*
X40685Y01076D02*
X40822Y00880D01*
X39989Y-01355D02*
X39975Y-01900D01*
X40025Y-01279D02*
X39989Y-01355D01*
X40218Y-01084D02*
X40025Y-01279D01*
X40447Y-00960D02*
X40218Y-01084D01*
X40743Y-00691D02*
X40447Y-00960D01*
X40851Y-00229D02*
X40743Y-00691D01*
X40867Y00072D02*
X40851Y-00229D01*
X40869Y00429D02*
X40867Y00072D01*
X40822Y00880D02*
X40869Y00429D01*
X40528Y01200D02*
X40685Y01076D01*
X40244Y-01377D02*
X40225Y-01900D01*
X40304Y-01235D02*
X40244Y-01377D01*
X40465Y-01093D02*
X40304Y-01235D01*
X40802Y-00801D02*
X40465Y-01093D01*
X40911Y-00579D02*
X40802Y-00801D01*
X40966Y-00234D02*
X40911Y-00579D01*
X40973Y00434D02*
X40966Y-00234D01*
X40918Y00971D02*
X40973Y00434D01*
X40705Y01317D02*
X40918Y00971D01*
X40383Y01397D02*
X40705Y01317D01*
X40516Y-01374D02*
X40475Y-01900D01*
X40580Y-01231D02*
X40516Y-01374D01*
X40890Y-00855D02*
X40580Y-01231D01*
X41016Y-00612D02*
X40890Y-00855D01*
X41071Y-00235D02*
X41016Y-00612D01*
X41082Y00312D02*
X41071Y-00235D01*
X41041Y00968D02*
X41082Y00312D01*
X40806Y01365D02*
X41041Y00968D01*
X40532Y01588D02*
X40806Y01365D01*
X22500Y08903D02*
X22497Y08682D01*
X25800Y08903D02*
X25802Y08688D01*
X29100Y08903D02*
X29104Y08697D01*
X32400Y08903D02*
X32403Y08700D01*
X28145Y10841D02*
X28202Y08844D01*
X28202Y08844D02*
X28337Y08538D01*
X28337Y08538D02*
X28652Y08403D01*
X28652Y08403D02*
X28910Y08511D01*
X28910Y08511D02*
X29104Y08697D01*
X22000Y08903D02*
X22003Y08679D01*
X25300Y08903D02*
X25308Y08685D01*
X28595Y08708D02*
X28600Y08903D01*
X31900Y08903D02*
X31900Y08697D01*
X28555Y10863D02*
X28345Y10306D01*
X28345Y10306D02*
X28353Y09185D01*
X28353Y09185D02*
X28434Y09023D01*
X28434Y09023D02*
X28600Y08903D01*
G54D24*
X40049Y03678D02*
X40533Y04016D01*
X39237Y03386D02*
X40049Y03678D01*
X40053Y04989D02*
X40533Y04016D01*
G54D23*
X38768Y04643D02*
X37908Y04007D01*
X36902Y03446D02*
X37195Y03256D01*
X38576Y03232D02*
X37195Y03256D01*
X38744Y03225D02*
X38576Y03232D01*
X38822Y03175D02*
X38744Y03225D01*
X38875Y03094D02*
X38822Y03175D01*
X38896Y02623D02*
X38875Y03094D01*
X36398Y03451D02*
X36552Y03245D01*
X36976Y03168D02*
X36552Y03245D01*
X38697Y03067D02*
X36976Y03168D01*
X22367Y-01901D02*
X22448Y-01500D01*
X17875Y-01900D02*
X17599Y-01896D01*
X24075Y-01900D02*
X23799Y-01896D01*
X28567Y-01901D02*
X28648Y-01500D01*
X30275Y-01900D02*
X29999Y-01896D01*
X34767Y-01901D02*
X34848Y-01500D01*
X36475Y-01900D02*
X36199Y-01896D01*
X40967Y-01901D02*
X41048Y-01500D01*
X26336Y12284D02*
X26056Y12342D01*
X25500Y13297D02*
X25743Y13294D01*
X26097Y15100D02*
X26061Y14858D01*
X28100Y15003D02*
X28239Y14867D01*
X27918Y13804D02*
X28200Y13703D01*
X27897Y12100D02*
X27948Y12339D01*
X28512Y11337D02*
X28503Y11600D01*
G54D24*
X33509Y13157D02*
X33500Y13400D01*
G54D23*
X27695Y14900D02*
X27635Y14605D01*
X26500Y13497D02*
X26497Y13652D01*
X26500Y13803D02*
X26497Y13652D01*
X27500Y13803D02*
X27500Y13655D01*
X27500Y13497D02*
X27500Y13655D01*
X27000Y13495D02*
X27297Y13501D01*
X27500Y13497D02*
X27297Y13501D01*
X26500Y13497D02*
X26703Y13496D01*
X27000Y13495D02*
X26703Y13496D01*
X26500Y13803D02*
X26736Y13808D01*
X27000Y13803D02*
X26736Y13808D01*
X26974Y13804D02*
X27255Y13803D01*
X27500Y13803D02*
X27255Y13803D01*
X27000Y13803D02*
X27000Y13495D01*
X33500Y15400D02*
X33175Y15399D01*
X31497Y14800D02*
X31716Y14796D01*
X25700Y11703D02*
X26056Y11714D01*
X24779Y12501D02*
X25103Y12500D01*
X31497Y15200D02*
X31694Y15030D01*
G54D25*
X22097Y09617D02*
X22000Y09297D01*
X22596Y09609D02*
X22500Y09297D01*
X23352Y09610D02*
X23500Y09297D01*
X22845Y09607D02*
X23000Y09297D01*
G54D23*
X17558Y-00879D02*
X17781Y-00653D01*
X17781Y-00653D02*
X19061Y00117D01*
X23981Y-00653D02*
X25261Y00117D01*
X23758Y-00879D02*
X23981Y-00653D01*
X22125Y-01900D02*
X22175Y-01388D01*
X22174Y-01268D02*
X22175Y-01388D01*
G54D24*
X22252Y-01500D02*
X22171Y-01461D01*
X22252Y-01500D02*
X22162Y-01544D01*
G54D23*
X22175Y-01388D02*
X22252Y-01500D01*
G54D25*
X28697Y09617D02*
X28600Y09297D01*
X29196Y09609D02*
X29100Y09297D01*
X29952Y09610D02*
X30100Y09297D01*
X29445Y09607D02*
X29600Y09297D01*
G54D23*
X30181Y-00653D02*
X31461Y00117D01*
X29958Y-00879D02*
X30181Y-00653D01*
X34575Y-01388D02*
X34652Y-01500D01*
G54D24*
X34652Y-01500D02*
X34562Y-01544D01*
X34652Y-01500D02*
X34571Y-01461D01*
G54D23*
X34574Y-01268D02*
X34575Y-01388D01*
X34525Y-01900D02*
X34575Y-01388D01*
G54D25*
X31997Y09617D02*
X31900Y09297D01*
X32496Y09609D02*
X32400Y09297D01*
X33252Y09610D02*
X33400Y09297D01*
X32745Y09607D02*
X32900Y09297D01*
G54D23*
X36381Y-00653D02*
X37661Y00117D01*
X36158Y-00879D02*
X36381Y-00653D01*
X40775Y-01388D02*
X40852Y-01500D01*
G54D24*
X40852Y-01500D02*
X40762Y-01544D01*
X40852Y-01500D02*
X40771Y-01461D01*
G54D23*
X40774Y-01268D02*
X40775Y-01388D01*
X40725Y-01900D02*
X40775Y-01388D01*
G54D25*
X25397Y09617D02*
X25300Y09297D01*
X25896Y09609D02*
X25800Y09297D01*
X26652Y09610D02*
X26800Y09297D01*
X26145Y09607D02*
X26300Y09297D01*
G54D23*
X28375Y-01388D02*
X28452Y-01500D01*
G54D24*
X28452Y-01500D02*
X28362Y-01544D01*
X28452Y-01500D02*
X28371Y-01461D01*
G54D23*
X28374Y-01268D02*
X28375Y-01388D01*
X28325Y-01900D02*
X28375Y-01388D01*
G54D24*
X26500Y13103D02*
X27000Y12905D01*
X26943Y12928D02*
X27500Y13103D01*
X26071Y14073D02*
X26262Y14073D01*
X26500Y14197D02*
X27000Y14197D01*
X27000Y14197D02*
X27500Y14197D01*
X26533Y14532D02*
X26500Y14197D01*
X27500Y13103D02*
X27475Y12705D01*
X27500Y13103D02*
X27744Y13113D01*
X26500Y13103D02*
X26063Y12818D01*
X26266Y13185D02*
X26500Y13103D01*
X26266Y13185D02*
X26262Y14073D01*
X26262Y14073D02*
X26500Y14197D01*
X27500Y14197D02*
X27732Y14195D01*
X27744Y13113D02*
X27732Y14195D01*
X27926Y12823D02*
X27772Y12983D01*
X27772Y12983D02*
X27744Y13113D01*
G54D26*
X24241Y15810D02*
X24534Y15810D01*
X24534Y15810D02*
X24736Y15133D01*
X24736Y15133D02*
X25475Y14234D01*
X25475Y14234D02*
X26071Y14073D01*
G54D24*
X27732Y14195D02*
X27951Y14557D01*
G54D23*
X26336Y11496D02*
X26374Y11722D01*
X25719Y12324D02*
X25700Y12097D01*
X25500Y12903D02*
X25735Y12972D01*
X28897Y11600D02*
X29167Y11388D01*
X25497Y12500D02*
X25719Y12324D01*
X25500Y12903D02*
X25497Y12500D01*
X25703Y15100D02*
X25758Y14839D01*
X28102Y15333D02*
X28267Y15490D01*
X27914Y14054D02*
X28200Y14097D01*
X27618Y12338D02*
X27503Y12100D01*
X27303Y12036D02*
X27503Y12100D01*
X27105Y14900D02*
X27157Y14536D01*
X32497Y15800D02*
X32562Y15492D01*
G54D24*
X22973Y13520D02*
X23368Y13516D01*
X23175Y11739D02*
X23368Y13516D01*
X19939Y03911D02*
X19935Y03612D01*
X19939Y03911D02*
X21264Y05149D01*
X21264Y05149D02*
X21513Y05242D01*
X21513Y05242D02*
X21714Y05251D01*
X19935Y03612D02*
X19547Y03693D01*
X19547Y03693D02*
X18406Y03743D01*
X18406Y03743D02*
X17770Y03667D01*
X17770Y03667D02*
X17592Y03572D01*
X17592Y03572D02*
X17546Y03370D01*
X23792Y03572D02*
X23746Y03370D01*
X23970Y03667D02*
X23792Y03572D01*
X24606Y03743D02*
X23970Y03667D01*
X25747Y03693D02*
X24606Y03743D01*
X26135Y03612D02*
X25747Y03693D01*
X27713Y05242D02*
X27914Y05251D01*
X27464Y05149D02*
X27713Y05242D01*
X26139Y03911D02*
X27464Y05149D01*
X26139Y03911D02*
X26135Y03612D01*
X29992Y03572D02*
X29946Y03370D01*
X30170Y03667D02*
X29992Y03572D01*
X30806Y03743D02*
X30170Y03667D01*
X31947Y03693D02*
X30806Y03743D01*
X32335Y03612D02*
X31947Y03693D01*
X33913Y05242D02*
X34114Y05251D01*
X33664Y05149D02*
X33913Y05242D01*
X32339Y03911D02*
X33664Y05149D01*
X32339Y03911D02*
X32335Y03612D01*
X36192Y03572D02*
X36146Y03370D01*
X36370Y03667D02*
X36192Y03572D01*
X37006Y03743D02*
X36370Y03667D01*
X38147Y03693D02*
X37006Y03743D01*
X38535Y03612D02*
X38147Y03693D01*
X40113Y05242D02*
X40314Y05251D01*
X39864Y05149D02*
X40113Y05242D01*
X38539Y03911D02*
X39864Y05149D01*
X38539Y03911D02*
X38535Y03612D01*
X33849Y13644D02*
X33500Y13650D01*
M02*
