G04 (created by PCBNEW-RS274X (2010-03-14)-final) date Thu 13 Oct 2011 08:56:15 PM EDT*
G01*
G70*
G90*
%MOIN*%
G04 Gerber Fmt 3.4, Leading zero omitted, Abs format*
%FSLAX34Y34*%
G04 APERTURE LIST*
%ADD10C,0.001000*%
%ADD11R,0.012600X0.017700*%
%ADD12R,0.017700X0.012600*%
%ADD13R,0.021700X0.025600*%
%ADD14R,0.025600X0.021700*%
%ADD15R,0.025600X0.037400*%
%ADD16R,0.037400X0.025600*%
%ADD17R,0.084700X0.051200*%
%ADD18C,0.065000*%
%ADD19R,0.037400X0.033500*%
%ADD20R,0.061100X0.072900*%
%ADD21C,0.018000*%
%ADD22R,0.015000X0.102000*%
%ADD23R,0.015000X0.034000*%
%ADD24R,0.034000X0.015000*%
%ADD25R,0.012200X0.033500*%
%ADD26R,0.120100X0.031500*%
%ADD27R,0.025600X0.011800*%
%ADD28R,0.011800X0.025600*%
%ADD29R,0.027600X0.011800*%
%ADD30R,0.011800X0.027600*%
%ADD31R,0.041400X0.041400*%
%ADD32R,0.017700X0.025600*%
%ADD33R,0.025600X0.017700*%
%ADD34R,0.057100X0.029600*%
%ADD35R,0.025600X0.044000*%
G04 APERTURE END LIST*
G54D10*
G54D11*
X17552Y-01500D03*
X17748Y-01500D03*
G54D12*
X17650Y-01248D03*
X17650Y-01052D03*
X22400Y-01002D03*
X22400Y-01198D03*
G54D11*
X29952Y-01500D03*
X30148Y-01500D03*
G54D12*
X30050Y-01248D03*
X30050Y-01052D03*
X34800Y-01002D03*
X34800Y-01198D03*
G54D11*
X36152Y-01500D03*
X36348Y-01500D03*
G54D12*
X36250Y-01248D03*
X36250Y-01052D03*
X41000Y-01002D03*
X41000Y-01198D03*
G54D11*
X23752Y-01500D03*
X23948Y-01500D03*
G54D12*
X23850Y-01248D03*
X23850Y-01052D03*
X28600Y-01002D03*
X28600Y-01198D03*
G54D13*
X18553Y03300D03*
X18947Y03300D03*
G54D14*
X22350Y05397D03*
X22350Y05003D03*
G54D13*
X17997Y01950D03*
X17603Y01950D03*
G54D14*
X22200Y04647D03*
X22200Y04253D03*
X22200Y03603D03*
X22200Y03997D03*
X20750Y05003D03*
X20750Y05397D03*
X20400Y03303D03*
X20400Y03697D03*
G54D13*
X19303Y03300D03*
X19697Y03300D03*
X22003Y02000D03*
X22397Y02000D03*
X22003Y02800D03*
X22397Y02800D03*
X22003Y03200D03*
X22397Y03200D03*
X22003Y02400D03*
X22397Y02400D03*
X30953Y03300D03*
X31347Y03300D03*
G54D14*
X34750Y05397D03*
X34750Y05003D03*
G54D13*
X30397Y01950D03*
X30003Y01950D03*
G54D14*
X34600Y04647D03*
X34600Y04253D03*
X34600Y03603D03*
X34600Y03997D03*
X33150Y05003D03*
X33150Y05397D03*
X32800Y03303D03*
X32800Y03697D03*
G54D13*
X31703Y03300D03*
X32097Y03300D03*
X34403Y02000D03*
X34797Y02000D03*
X34403Y02800D03*
X34797Y02800D03*
X34403Y03200D03*
X34797Y03200D03*
X34403Y02400D03*
X34797Y02400D03*
X37153Y03300D03*
X37547Y03300D03*
G54D14*
X40950Y05397D03*
X40950Y05003D03*
G54D13*
X36597Y01950D03*
X36203Y01950D03*
G54D14*
X40800Y04647D03*
X40800Y04253D03*
X40800Y03603D03*
X40800Y03997D03*
X39350Y05003D03*
X39350Y05397D03*
X39000Y03303D03*
X39000Y03697D03*
G54D13*
X37903Y03300D03*
X38297Y03300D03*
X40603Y02000D03*
X40997Y02000D03*
X40603Y02800D03*
X40997Y02800D03*
X40603Y03200D03*
X40997Y03200D03*
X40603Y02400D03*
X40997Y02400D03*
X24753Y03300D03*
X25147Y03300D03*
G54D14*
X28550Y05397D03*
X28550Y05003D03*
G54D13*
X24197Y01950D03*
X23803Y01950D03*
G54D14*
X28400Y04647D03*
X28400Y04253D03*
X28400Y03603D03*
X28400Y03997D03*
X26950Y05003D03*
X26950Y05397D03*
X26600Y03303D03*
X26600Y03697D03*
G54D13*
X25503Y03300D03*
X25897Y03300D03*
X28203Y02000D03*
X28597Y02000D03*
X28203Y02800D03*
X28597Y02800D03*
X28203Y03200D03*
X28597Y03200D03*
X28203Y02400D03*
X28597Y02400D03*
G54D14*
X24900Y10897D03*
X24900Y10503D03*
X26700Y10503D03*
X26700Y10897D03*
X29800Y14103D03*
X29800Y14497D03*
X24200Y12603D03*
X24200Y12997D03*
X24200Y11903D03*
X24200Y12297D03*
X22200Y13197D03*
X22200Y12803D03*
X22200Y12397D03*
X22200Y12003D03*
X21800Y12803D03*
X21800Y13197D03*
G54D13*
X23303Y11400D03*
X23697Y11400D03*
G54D14*
X30400Y13003D03*
X30400Y13397D03*
X31200Y13003D03*
X31200Y13397D03*
G54D13*
X32697Y12000D03*
X32303Y12000D03*
G54D14*
X31900Y11997D03*
X31900Y11603D03*
X32300Y11203D03*
X32300Y11597D03*
G54D13*
X32697Y10900D03*
X32303Y10900D03*
X31603Y10700D03*
X31997Y10700D03*
X33003Y12000D03*
X33397Y12000D03*
G54D14*
X33388Y12326D03*
X33388Y12720D03*
G54D13*
X32197Y13600D03*
X31803Y13600D03*
X32197Y13200D03*
X31803Y13200D03*
X32197Y12800D03*
X31803Y12800D03*
X32197Y12400D03*
X31803Y12400D03*
X29203Y10800D03*
X29597Y10800D03*
G54D14*
X30800Y13397D03*
X30800Y13003D03*
G54D13*
X30797Y10700D03*
X30403Y10700D03*
G54D14*
X29800Y15197D03*
X29800Y14803D03*
X29800Y15897D03*
X29800Y15503D03*
X32700Y13797D03*
X32700Y13403D03*
G54D15*
X22895Y15800D03*
X22305Y15800D03*
X23405Y15800D03*
X23995Y15800D03*
X22305Y11500D03*
X22895Y11500D03*
G54D16*
X21800Y11995D03*
X21800Y11405D03*
G54D17*
X22500Y13900D03*
X22500Y15100D03*
X23800Y13900D03*
X23800Y15100D03*
G54D18*
X22300Y10700D03*
X23300Y10700D03*
G54D19*
X25475Y10454D03*
X26125Y10454D03*
X26125Y10946D03*
X25475Y10946D03*
G54D20*
X33429Y11400D03*
X36972Y11400D03*
G54D21*
X29047Y11553D03*
X28732Y11553D03*
X28417Y11553D03*
X28102Y11553D03*
X27787Y11553D03*
X27472Y11553D03*
X27157Y11553D03*
X26842Y11553D03*
X26527Y11553D03*
X26212Y11553D03*
X25897Y11553D03*
X25582Y11553D03*
X25267Y11553D03*
X24953Y11553D03*
X29047Y11868D03*
X28732Y11868D03*
X28417Y11868D03*
X28102Y11868D03*
X27787Y11868D03*
X27472Y11868D03*
X27157Y11868D03*
X26842Y11868D03*
X26527Y11868D03*
X26212Y11868D03*
X25897Y11868D03*
X25582Y11868D03*
X25267Y11868D03*
X24953Y11868D03*
X29047Y12183D03*
X28732Y12183D03*
X28417Y12183D03*
X28102Y12183D03*
X27787Y12183D03*
X27472Y12183D03*
X27157Y12183D03*
X26842Y12183D03*
X26527Y12183D03*
X26212Y12183D03*
X25897Y12183D03*
X25582Y12183D03*
X25267Y12183D03*
X24953Y12183D03*
X29047Y12498D03*
X28732Y12498D03*
X28417Y12498D03*
X28102Y12498D03*
X27787Y12498D03*
X27472Y12498D03*
X27157Y12498D03*
X26842Y12498D03*
X26527Y12498D03*
X26212Y12498D03*
X25897Y12498D03*
X25582Y12498D03*
X25267Y12498D03*
X24953Y12498D03*
X29047Y12813D03*
X28732Y12813D03*
X28417Y12813D03*
X28102Y12813D03*
X25897Y12813D03*
X25582Y12813D03*
X25267Y12813D03*
X24953Y12813D03*
X29047Y13128D03*
X28732Y13128D03*
X28417Y13128D03*
X28102Y13128D03*
X25897Y13128D03*
X25582Y13128D03*
X25267Y13128D03*
X24953Y13128D03*
X29047Y13443D03*
X28732Y13443D03*
X28417Y13443D03*
X28102Y13443D03*
X25897Y13443D03*
X25582Y13443D03*
X25267Y13443D03*
X24953Y13443D03*
X29047Y13758D03*
X28732Y13758D03*
X28417Y13758D03*
X28102Y13758D03*
X25897Y13758D03*
X25582Y13758D03*
X25267Y13758D03*
X24953Y13758D03*
X29047Y14073D03*
X28732Y14073D03*
X28417Y14073D03*
X28102Y14073D03*
X25897Y14073D03*
X25582Y14073D03*
X25267Y14073D03*
X24953Y14073D03*
X29047Y14388D03*
X28732Y14388D03*
X28417Y14388D03*
X28102Y14388D03*
X25897Y14388D03*
X25582Y14388D03*
X25267Y14388D03*
X24953Y14388D03*
X29047Y14703D03*
X28732Y14703D03*
X28417Y14703D03*
X28102Y14703D03*
X27787Y14703D03*
X27472Y14703D03*
X27157Y14703D03*
X26842Y14703D03*
X26527Y14703D03*
X26212Y14703D03*
X25897Y14703D03*
X25582Y14703D03*
X25267Y14703D03*
X24953Y14703D03*
X29047Y15018D03*
X28732Y15018D03*
X28417Y15018D03*
X28102Y15018D03*
X27787Y15018D03*
X27472Y15018D03*
X27157Y15018D03*
X26842Y15018D03*
X26527Y15018D03*
X26212Y15018D03*
X25897Y15018D03*
X25582Y15018D03*
X25267Y15018D03*
X24953Y15018D03*
X29047Y15333D03*
X28732Y15333D03*
X28417Y15333D03*
X28102Y15333D03*
X27787Y15333D03*
X27472Y15333D03*
X27157Y15333D03*
X26842Y15333D03*
X26527Y15333D03*
X26212Y15333D03*
X25897Y15333D03*
X25582Y15333D03*
X25267Y15333D03*
X24953Y15333D03*
X29047Y15647D03*
X28732Y15647D03*
X28417Y15647D03*
X28102Y15647D03*
X27787Y15647D03*
X27472Y15647D03*
X27157Y15647D03*
X26842Y15647D03*
X26527Y15647D03*
X26212Y15647D03*
X25897Y15647D03*
X25582Y15647D03*
X25267Y15647D03*
X24953Y15647D03*
G54D22*
X17875Y-01900D03*
X18125Y-01900D03*
X18375Y-01900D03*
X18625Y-01900D03*
X18875Y-01900D03*
X19125Y-01900D03*
X19375Y-01900D03*
X19625Y-01900D03*
X19875Y-01900D03*
X20125Y-01900D03*
X20375Y-01900D03*
X20625Y-01900D03*
X20875Y-01900D03*
X21125Y-01900D03*
X21375Y-01900D03*
X21625Y-01900D03*
X21875Y-01900D03*
X22125Y-01900D03*
X30275Y-01900D03*
X30525Y-01900D03*
X30775Y-01900D03*
X31025Y-01900D03*
X31275Y-01900D03*
X31525Y-01900D03*
X31775Y-01900D03*
X32025Y-01900D03*
X32275Y-01900D03*
X32525Y-01900D03*
X32775Y-01900D03*
X33025Y-01900D03*
X33275Y-01900D03*
X33525Y-01900D03*
X33775Y-01900D03*
X34025Y-01900D03*
X34275Y-01900D03*
X34525Y-01900D03*
X36475Y-01900D03*
X36725Y-01900D03*
X36975Y-01900D03*
X37225Y-01900D03*
X37475Y-01900D03*
X37725Y-01900D03*
X37975Y-01900D03*
X38225Y-01900D03*
X38475Y-01900D03*
X38725Y-01900D03*
X38975Y-01900D03*
X39225Y-01900D03*
X39475Y-01900D03*
X39725Y-01900D03*
X39975Y-01900D03*
X40225Y-01900D03*
X40475Y-01900D03*
X40725Y-01900D03*
X24075Y-01900D03*
X24325Y-01900D03*
X24575Y-01900D03*
X24825Y-01900D03*
X25075Y-01900D03*
X25325Y-01900D03*
X25575Y-01900D03*
X25825Y-01900D03*
X26075Y-01900D03*
X26325Y-01900D03*
X26575Y-01900D03*
X26825Y-01900D03*
X27075Y-01900D03*
X27325Y-01900D03*
X27575Y-01900D03*
X27825Y-01900D03*
X28075Y-01900D03*
X28325Y-01900D03*
G54D23*
X19800Y03750D03*
X19550Y03750D03*
X19300Y03750D03*
X19050Y03750D03*
X18800Y03750D03*
X18550Y03750D03*
X18300Y03750D03*
X18050Y03750D03*
X17800Y03750D03*
X22100Y09900D03*
X22350Y09900D03*
X22600Y09900D03*
X22850Y09900D03*
X23100Y09900D03*
X23350Y09900D03*
X23600Y09900D03*
X23850Y09900D03*
X24100Y09900D03*
X32200Y03750D03*
X31950Y03750D03*
X31700Y03750D03*
X31450Y03750D03*
X31200Y03750D03*
X30950Y03750D03*
X30700Y03750D03*
X30450Y03750D03*
X30200Y03750D03*
X28700Y09900D03*
X28950Y09900D03*
X29200Y09900D03*
X29450Y09900D03*
X29700Y09900D03*
X29950Y09900D03*
X30200Y09900D03*
X30450Y09900D03*
X30700Y09900D03*
X38400Y03750D03*
X38150Y03750D03*
X37900Y03750D03*
X37650Y03750D03*
X37400Y03750D03*
X37150Y03750D03*
X36900Y03750D03*
X36650Y03750D03*
X36400Y03750D03*
X32000Y09900D03*
X32250Y09900D03*
X32500Y09900D03*
X32750Y09900D03*
X33000Y09900D03*
X33250Y09900D03*
X33500Y09900D03*
X33750Y09900D03*
X34000Y09900D03*
X26000Y03750D03*
X25750Y03750D03*
X25500Y03750D03*
X25250Y03750D03*
X25000Y03750D03*
X24750Y03750D03*
X24500Y03750D03*
X24250Y03750D03*
X24000Y03750D03*
X25400Y09900D03*
X25650Y09900D03*
X25900Y09900D03*
X26150Y09900D03*
X26400Y09900D03*
X26650Y09900D03*
X26900Y09900D03*
X27150Y09900D03*
X27400Y09900D03*
G54D24*
X33500Y13400D03*
X33500Y13650D03*
X33500Y13900D03*
X33500Y14150D03*
X33500Y14400D03*
X33500Y14650D03*
X33500Y14900D03*
X33500Y15150D03*
X33500Y15400D03*
G54D25*
X22776Y12075D03*
X22973Y12075D03*
X23170Y12075D03*
X23367Y12075D03*
X23564Y12075D03*
X23564Y13257D03*
X23367Y13257D03*
X23170Y13257D03*
X22973Y13257D03*
X22776Y13257D03*
G54D26*
X23170Y12666D03*
G54D27*
X29952Y11900D03*
X29952Y12097D03*
X29952Y12294D03*
X29952Y11703D03*
X29952Y11506D03*
X31448Y12294D03*
X31448Y12097D03*
X31448Y11900D03*
X31448Y11703D03*
X31448Y11506D03*
G54D28*
X30700Y12648D03*
X30897Y12648D03*
X31094Y12648D03*
X30503Y12648D03*
X30306Y12648D03*
X30700Y11152D03*
X30897Y11152D03*
X31094Y11152D03*
X30503Y11152D03*
X30306Y11152D03*
G54D29*
X21545Y00020D03*
X21545Y00217D03*
X21545Y00414D03*
X21545Y00611D03*
X21545Y00808D03*
X21545Y01005D03*
X21545Y01202D03*
X21545Y01398D03*
X21545Y01595D03*
X21545Y01792D03*
X21545Y01989D03*
X21545Y02186D03*
X21545Y02383D03*
X21545Y02580D03*
X18455Y02580D03*
X18455Y02383D03*
X18455Y02186D03*
X18455Y01989D03*
X18455Y01792D03*
X18455Y01595D03*
X18455Y01398D03*
X18455Y01202D03*
X18455Y01005D03*
X18455Y00808D03*
X18455Y00611D03*
X18455Y00414D03*
X18455Y00217D03*
X18455Y00020D03*
G54D30*
X18918Y-00245D03*
X19115Y-00245D03*
X19312Y-00245D03*
X19509Y-00245D03*
X19706Y-00245D03*
X19903Y-00245D03*
X20100Y-00245D03*
X20296Y-00245D03*
X20493Y-00245D03*
X20690Y-00245D03*
X20887Y-00245D03*
X21084Y-00245D03*
X21281Y-00245D03*
X21279Y02845D03*
X21082Y02845D03*
X20885Y02845D03*
X20689Y02845D03*
X20492Y02845D03*
X20295Y02845D03*
X20098Y02845D03*
X19901Y02845D03*
X19704Y02845D03*
X19507Y02845D03*
X19311Y02845D03*
X19114Y02845D03*
X18917Y02845D03*
X18720Y02845D03*
X18721Y-00245D03*
G54D31*
X20000Y01300D03*
G54D29*
X33945Y00020D03*
X33945Y00217D03*
X33945Y00414D03*
X33945Y00611D03*
X33945Y00808D03*
X33945Y01005D03*
X33945Y01202D03*
X33945Y01398D03*
X33945Y01595D03*
X33945Y01792D03*
X33945Y01989D03*
X33945Y02186D03*
X33945Y02383D03*
X33945Y02580D03*
X30855Y02580D03*
X30855Y02383D03*
X30855Y02186D03*
X30855Y01989D03*
X30855Y01792D03*
X30855Y01595D03*
X30855Y01398D03*
X30855Y01202D03*
X30855Y01005D03*
X30855Y00808D03*
X30855Y00611D03*
X30855Y00414D03*
X30855Y00217D03*
X30855Y00020D03*
G54D30*
X31318Y-00245D03*
X31515Y-00245D03*
X31712Y-00245D03*
X31909Y-00245D03*
X32106Y-00245D03*
X32303Y-00245D03*
X32500Y-00245D03*
X32696Y-00245D03*
X32893Y-00245D03*
X33090Y-00245D03*
X33287Y-00245D03*
X33484Y-00245D03*
X33681Y-00245D03*
X33679Y02845D03*
X33482Y02845D03*
X33285Y02845D03*
X33089Y02845D03*
X32892Y02845D03*
X32695Y02845D03*
X32498Y02845D03*
X32301Y02845D03*
X32104Y02845D03*
X31907Y02845D03*
X31711Y02845D03*
X31514Y02845D03*
X31317Y02845D03*
X31120Y02845D03*
X31121Y-00245D03*
G54D31*
X32400Y01300D03*
G54D29*
X40145Y00020D03*
X40145Y00217D03*
X40145Y00414D03*
X40145Y00611D03*
X40145Y00808D03*
X40145Y01005D03*
X40145Y01202D03*
X40145Y01398D03*
X40145Y01595D03*
X40145Y01792D03*
X40145Y01989D03*
X40145Y02186D03*
X40145Y02383D03*
X40145Y02580D03*
X37055Y02580D03*
X37055Y02383D03*
X37055Y02186D03*
X37055Y01989D03*
X37055Y01792D03*
X37055Y01595D03*
X37055Y01398D03*
X37055Y01202D03*
X37055Y01005D03*
X37055Y00808D03*
X37055Y00611D03*
X37055Y00414D03*
X37055Y00217D03*
X37055Y00020D03*
G54D30*
X37518Y-00245D03*
X37715Y-00245D03*
X37912Y-00245D03*
X38109Y-00245D03*
X38306Y-00245D03*
X38503Y-00245D03*
X38700Y-00245D03*
X38896Y-00245D03*
X39093Y-00245D03*
X39290Y-00245D03*
X39487Y-00245D03*
X39684Y-00245D03*
X39881Y-00245D03*
X39879Y02845D03*
X39682Y02845D03*
X39485Y02845D03*
X39289Y02845D03*
X39092Y02845D03*
X38895Y02845D03*
X38698Y02845D03*
X38501Y02845D03*
X38304Y02845D03*
X38107Y02845D03*
X37911Y02845D03*
X37714Y02845D03*
X37517Y02845D03*
X37320Y02845D03*
X37321Y-00245D03*
G54D31*
X38600Y01300D03*
G54D29*
X27745Y00020D03*
X27745Y00217D03*
X27745Y00414D03*
X27745Y00611D03*
X27745Y00808D03*
X27745Y01005D03*
X27745Y01202D03*
X27745Y01398D03*
X27745Y01595D03*
X27745Y01792D03*
X27745Y01989D03*
X27745Y02186D03*
X27745Y02383D03*
X27745Y02580D03*
X24655Y02580D03*
X24655Y02383D03*
X24655Y02186D03*
X24655Y01989D03*
X24655Y01792D03*
X24655Y01595D03*
X24655Y01398D03*
X24655Y01202D03*
X24655Y01005D03*
X24655Y00808D03*
X24655Y00611D03*
X24655Y00414D03*
X24655Y00217D03*
X24655Y00020D03*
G54D30*
X25118Y-00245D03*
X25315Y-00245D03*
X25512Y-00245D03*
X25709Y-00245D03*
X25906Y-00245D03*
X26103Y-00245D03*
X26300Y-00245D03*
X26496Y-00245D03*
X26693Y-00245D03*
X26890Y-00245D03*
X27087Y-00245D03*
X27284Y-00245D03*
X27481Y-00245D03*
X27479Y02845D03*
X27282Y02845D03*
X27085Y02845D03*
X26889Y02845D03*
X26692Y02845D03*
X26495Y02845D03*
X26298Y02845D03*
X26101Y02845D03*
X25904Y02845D03*
X25707Y02845D03*
X25511Y02845D03*
X25314Y02845D03*
X25117Y02845D03*
X24920Y02845D03*
X24921Y-00245D03*
G54D31*
X26200Y01300D03*
G54D32*
X17544Y02376D03*
X17800Y02376D03*
X18056Y02376D03*
X18056Y03124D03*
X17544Y03124D03*
G54D33*
X21974Y04994D03*
X21974Y05250D03*
X21974Y05506D03*
X21226Y05506D03*
X21226Y04994D03*
G54D32*
X29944Y02376D03*
X30200Y02376D03*
X30456Y02376D03*
X30456Y03124D03*
X29944Y03124D03*
G54D33*
X34374Y04994D03*
X34374Y05250D03*
X34374Y05506D03*
X33626Y05506D03*
X33626Y04994D03*
G54D32*
X36144Y02376D03*
X36400Y02376D03*
X36656Y02376D03*
X36656Y03124D03*
X36144Y03124D03*
G54D33*
X40574Y04994D03*
X40574Y05250D03*
X40574Y05506D03*
X39826Y05506D03*
X39826Y04994D03*
G54D32*
X23744Y02376D03*
X24000Y02376D03*
X24256Y02376D03*
X24256Y03124D03*
X23744Y03124D03*
G54D33*
X28174Y04994D03*
X28174Y05250D03*
X28174Y05506D03*
X27426Y05506D03*
X27426Y04994D03*
G54D34*
X30437Y15750D03*
X30437Y15250D03*
X30437Y14750D03*
X30437Y14250D03*
X32563Y14250D03*
X32563Y14750D03*
X32563Y15250D03*
X32563Y15750D03*
G54D35*
X20926Y03538D03*
X21300Y03538D03*
X21674Y03538D03*
X21674Y04562D03*
X21300Y04562D03*
X20926Y04562D03*
X33326Y03538D03*
X33700Y03538D03*
X34074Y03538D03*
X34074Y04562D03*
X33700Y04562D03*
X33326Y04562D03*
X39526Y03538D03*
X39900Y03538D03*
X40274Y03538D03*
X40274Y04562D03*
X39900Y04562D03*
X39526Y04562D03*
X27126Y03538D03*
X27500Y03538D03*
X27874Y03538D03*
X27874Y04562D03*
X27500Y04562D03*
X27126Y04562D03*
G54D13*
X33497Y15800D03*
X33103Y15800D03*
X24197Y10300D03*
X23803Y10300D03*
G54D16*
X24200Y11295D03*
X24200Y10705D03*
M02*
