M48
;DRILL file {PCBnew (2010-03-14)-final} date Thu 20 Jan 2011 12:09:29 PM EST
;FORMAT={2:4/ absolute / inch / keep zeros}
R,T
VER,1
FMAT,2
INCH,TZ
TCST,OFF
ICI,OFF
ATC,ON
T1C0.006
T2C0.010
T3C0.039
%
M47
G05
M72
T1
X017546Y003370
X017558Y-000879
X017798Y003451
X018052Y003449
X018240Y001791
X018243Y002191
X018245Y002576
X018302Y003446
X018545Y002845
X018707Y003465
X019059Y004076
X019061Y000117
X019308Y004007
X019551Y003502
X019705Y000999
X019935Y003612
X019939Y003911
X020097Y003067
X020106Y000144
X020168Y004643
X020172Y003696
X020276Y001575
X020296Y002623
X020303Y-000018
X020495Y000138
X020637Y003696
X020637Y003386
X020648Y003166
X020692Y-000014
X020882Y000146
X021083Y-000014
X021269Y003875
X021276Y002380
X021276Y001985
X021291Y000239
X021291Y000018
X021431Y-000243
X021453Y004989
X021714Y005251
X021783Y001397
X021783Y000609
X021785Y001007
X021786Y000397
X021928Y001200
X021928Y000814
X021932Y001588
X021933Y004016
X021987Y003594
X022102Y009607
X022160Y005275
X022174Y-001268
X022348Y009611
X022379Y003429
X022387Y004651
X022391Y003008
X022391Y002194
X022403Y002607
X022599Y009610
X022845Y009607
X022973Y013520
X023103Y009610
X023352Y009610
X023368Y013516
X023599Y009608
X023849Y009593
X024099Y009594
X024546Y003370
X024547Y-000884
X024779Y012501
X024798Y003451
X024813Y011422
X024823Y015788
X025052Y003449
X025156Y010910
X025240Y001791
X025243Y002191
X025245Y002576
X025302Y009607
X025302Y003446
X025545Y002845
X025548Y009611
X025707Y003465
X025739Y013902
X025739Y012954
X025740Y014560
X025741Y012345
X025744Y013591
X025747Y013294
X025799Y009610
X025858Y004355
X026045Y009607
X026057Y012022
X026061Y000117
X026062Y012344
X026063Y012818
X026064Y014538
X026071Y014073
X026072Y004067
X026303Y009610
X026308Y004007
X026368Y012026
X026375Y014858
X026375Y011716
X026424Y020046
X026499Y010654
X026500Y013644
X026533Y014532
X026551Y003502
X026552Y009610
X026623Y017647
X026679Y012024
X026682Y012345
X026705Y000999
X026728Y013501
X026735Y013803
X026810Y009596
X026844Y014536
X026935Y003612
X026939Y003911
X027005Y012345
X027049Y009593
X027097Y003067
X027106Y000144
X027163Y014535
X027168Y004643
X027172Y003696
X027190Y018670
X027258Y013492
X027261Y013803
X027276Y001575
X027296Y002623
X027299Y009594
X027303Y-000018
X027314Y012013
X027472Y014541
X027475Y012705
X027495Y000138
X027501Y013655
X027626Y012029
X027627Y011409
X027631Y012354
X027637Y003696
X027637Y003386
X027643Y003163
X027692Y-000014
X027795Y010679
X027882Y000146
X027922Y010221
X027926Y013765
X027926Y013132
X027926Y012823
X027928Y014074
X027933Y013445
X027951Y014557
X027955Y012329
X027956Y014862
X027987Y017620
X028017Y010429
X028083Y-000014
X028260Y015486
X028267Y012986
X028269Y003875
X028272Y014545
X028276Y002380
X028276Y001985
X028291Y000239
X028291Y000018
X028347Y010830
X028431Y-000243
X028453Y004989
X028502Y009607
X028571Y014226
X028571Y013285
X028574Y013912
X028574Y013589
X028575Y014550
X028575Y012037
X028575Y011374
X028714Y005251
X028748Y009611
X028776Y017806
X028783Y001397
X028783Y000609
X028785Y001007
X028786Y000397
X028793Y011269
X028798Y010483
X028893Y013902
X028927Y017617
X028928Y001200
X028928Y000814
X028932Y001588
X028933Y004016
X028987Y003594
X028999Y009610
X029013Y017155
X029160Y005275
X029169Y017869
X029174Y-001268
X029186Y011394
X029216Y015828
X029239Y011699
X029240Y014216
X029241Y013757
X029245Y009607
X029267Y014701
X029313Y013441
X029319Y017680
X029379Y003429
X029387Y004651
X029391Y003008
X029391Y002194
X029403Y002607
X029435Y017859
X029503Y009610
X029506Y011082
X029522Y013174
X029526Y012851
X029562Y014927
X029647Y011305
X029669Y017340
X029752Y009610
X029806Y015979
X029832Y016198
X030077Y015478
X030107Y012224
X030140Y012639
X030189Y014362
X030249Y009593
X030399Y012382
X030499Y009594
X030569Y010923
X030889Y012774
X031004Y011423
X031546Y003370
X031558Y-000879
X031596Y012439
X031702Y009607
X031798Y003451
X031948Y009611
X032052Y003449
X032199Y009610
X032240Y001791
X032243Y002191
X032245Y002576
X032302Y003446
X032444Y014757
X032445Y009607
X032545Y002845
X032650Y004239
X032703Y009610
X032707Y003465
X032952Y009610
X033048Y004059
X033061Y000117
X033192Y009604
X033308Y004007
X033449Y009593
X033551Y003502
X033699Y009594
X033705Y000999
X033935Y003612
X033939Y003911
X034097Y003067
X034106Y000144
X034107Y004765
X034172Y003696
X034276Y001575
X034296Y002623
X034303Y-000018
X034495Y000138
X034637Y003696
X034637Y003386
X034643Y003157
X034692Y-000014
X034882Y000146
X035083Y-000014
X035269Y003875
X035276Y002380
X035276Y001985
X035291Y000239
X035291Y000018
X035431Y-000243
X035453Y004989
X035714Y005251
X035783Y001397
X035783Y000609
X035785Y001007
X035786Y000397
X035928Y001200
X035928Y000814
X035932Y001588
X035933Y004016
X035987Y003594
X036160Y005275
X036174Y-001268
X036379Y003429
X036387Y004651
X036391Y003008
X036391Y002194
X036403Y002607
X038546Y003370
X038558Y-000879
X038798Y003451
X039052Y003449
X039240Y001791
X039243Y002191
X039245Y002576
X039302Y003446
X039545Y002845
X039650Y004239
X039707Y003465
X040056Y004094
X040061Y000117
X040308Y004007
X040551Y003502
X040705Y000999
X040935Y003612
X040939Y003911
X041097Y003067
X041106Y000144
X041168Y004643
X041172Y003696
X041276Y001575
X041296Y002623
X041303Y-000018
X041495Y000138
X041637Y003696
X041637Y003386
X041659Y003171
X041692Y-000014
X041882Y000146
X042083Y-000014
X042269Y003875
X042276Y002380
X042276Y001985
X042291Y000239
X042291Y000018
X042431Y-000243
X042453Y004989
X042714Y005251
X042783Y001397
X042783Y000609
X042785Y001007
X042786Y000397
X042928Y001200
X042928Y000814
X042932Y001588
X042933Y004016
X042987Y003594
X043160Y005275
X043174Y-001268
X043379Y003429
X043387Y004651
X043391Y003008
X043391Y002194
X043403Y002607
T2
X017599Y-001896
X018858Y004355
X021794Y015607
X021794Y015294
X021976Y012067
X022000Y008668
X022010Y015796
X022202Y011796
X022367Y-001901
X022500Y008668
X022543Y012834
X022557Y012527
X023000Y008675
X023145Y015803
X023145Y015803
X023147Y015495
X023154Y014447
X023159Y013895
X023175Y011739
X023500Y008676
X023830Y012858
X023830Y012519
X023934Y011907
X023960Y011399
X024241Y015810
X024534Y015810
X024599Y-001896
X024854Y024415
X025200Y008668
X025658Y020143
X025700Y008668
X026204Y008672
X026700Y008676
X027534Y018618
X028090Y020110
X028139Y018598
X028398Y008672
X028445Y020106
X028887Y008666
X029367Y-001901
X029429Y008675
X029748Y013441
X029800Y015454
X029904Y008668
X029938Y018692
X030200Y018876
X030672Y018231
X030760Y013396
X031190Y014748
X031190Y014261
X031419Y010896
X031494Y011476
X031599Y-001896
X031600Y008668
X031853Y012042
X032059Y010699
X032075Y013388
X032100Y008668
X032428Y015745
X032604Y008672
X032627Y024408
X033100Y008676
X033132Y013592
X033164Y012401
X033169Y013204
X033171Y012797
X033318Y011190
X033332Y010667
X033601Y015597
X033601Y013205
X033701Y018949
X033841Y012721
X033936Y021504
X034152Y013595
X034156Y015108
X034156Y014107
X034161Y014612
X034347Y012721
X034406Y014901
X034406Y014391
X034409Y013903
X036367Y-001901
X036397Y021519
X038599Y-001896
X043367Y-001901
T3
X022300Y010700
X022600Y019700
X022600Y018600
X023300Y010700
X023800Y024200
X023800Y023200
X023800Y022200
X023800Y021200
X023800Y020200
X023800Y019200
X023800Y018200
X025190Y022210
X026190Y022210
X027190Y022210
X028190Y022210
X029190Y022210
X030190Y022210
X031190Y022210
X031700Y020500
X031700Y019500
X032190Y022210
X032700Y020500
X032700Y019500
X033700Y020500
X033700Y019500
X034700Y020500
X034700Y019500
X035700Y020500
X035700Y019500
X036700Y020500
X036700Y019500
X037700Y020500
X037700Y019500
T0
M30
