G04 (created by PCBNEW-RS274X (2010-03-14)-final) date Thu 20 Jan 2011 12:09:16 PM EST*
G01*
G70*
G90*
%MOIN*%
G04 Gerber Fmt 3.4, Leading zero omitted, Abs format*
%FSLAX34Y34*%
G04 APERTURE LIST*
%ADD10C,0.001000*%
%ADD11C,0.005000*%
%ADD12C,0.015000*%
%ADD13C,0.006500*%
%ADD14C,0.008000*%
%ADD15C,0.003000*%
%ADD16C,0.004600*%
%ADD17C,0.003300*%
%ADD18C,0.006600*%
%ADD19C,0.003900*%
G04 APERTURE END LIST*
G54D10*
G54D11*
X19100Y03150D02*
X19050Y03100D01*
X18750Y03400D02*
X18750Y03200D01*
X22200Y04850D02*
X22150Y04900D01*
X22450Y05200D02*
X22250Y05200D01*
X17450Y02100D02*
X17500Y02150D01*
X17800Y01850D02*
X17800Y02050D01*
X22050Y04100D02*
X22000Y04150D01*
X22300Y04450D02*
X22100Y04450D01*
X22350Y04150D02*
X22400Y04100D01*
X22100Y03800D02*
X22300Y03800D01*
X20900Y05550D02*
X20950Y05500D01*
X20650Y05200D02*
X20850Y05200D01*
X20550Y03850D02*
X20600Y03800D01*
X20300Y03500D02*
X20500Y03500D01*
X19850Y03150D02*
X19800Y03100D01*
X19500Y03400D02*
X19500Y03200D01*
X22550Y01850D02*
X22500Y01800D01*
X22200Y02100D02*
X22200Y01900D01*
X22550Y02650D02*
X22500Y02600D01*
X22200Y02900D02*
X22200Y02700D01*
X22550Y03050D02*
X22500Y03000D01*
X22200Y03300D02*
X22200Y03100D01*
X22550Y02250D02*
X22500Y02200D01*
X22200Y02500D02*
X22200Y02300D01*
X33100Y03150D02*
X33050Y03100D01*
X32750Y03400D02*
X32750Y03200D01*
X36200Y04850D02*
X36150Y04900D01*
X36450Y05200D02*
X36250Y05200D01*
X31450Y02100D02*
X31500Y02150D01*
X31800Y01850D02*
X31800Y02050D01*
X36050Y04100D02*
X36000Y04150D01*
X36300Y04450D02*
X36100Y04450D01*
X36350Y04150D02*
X36400Y04100D01*
X36100Y03800D02*
X36300Y03800D01*
X34900Y05550D02*
X34950Y05500D01*
X34650Y05200D02*
X34850Y05200D01*
X34550Y03850D02*
X34600Y03800D01*
X34300Y03500D02*
X34500Y03500D01*
X33850Y03150D02*
X33800Y03100D01*
X33500Y03400D02*
X33500Y03200D01*
X36550Y01850D02*
X36500Y01800D01*
X36200Y02100D02*
X36200Y01900D01*
X36550Y02650D02*
X36500Y02600D01*
X36200Y02900D02*
X36200Y02700D01*
X36550Y03050D02*
X36500Y03000D01*
X36200Y03300D02*
X36200Y03100D01*
X36550Y02250D02*
X36500Y02200D01*
X36200Y02500D02*
X36200Y02300D01*
X40100Y03150D02*
X40050Y03100D01*
X39750Y03400D02*
X39750Y03200D01*
X43200Y04850D02*
X43150Y04900D01*
X43450Y05200D02*
X43250Y05200D01*
X38450Y02100D02*
X38500Y02150D01*
X38800Y01850D02*
X38800Y02050D01*
X43050Y04100D02*
X43000Y04150D01*
X43300Y04450D02*
X43100Y04450D01*
X43350Y04150D02*
X43400Y04100D01*
X43100Y03800D02*
X43300Y03800D01*
X41900Y05550D02*
X41950Y05500D01*
X41650Y05200D02*
X41850Y05200D01*
X41550Y03850D02*
X41600Y03800D01*
X41300Y03500D02*
X41500Y03500D01*
X40850Y03150D02*
X40800Y03100D01*
X40500Y03400D02*
X40500Y03200D01*
X43550Y01850D02*
X43500Y01800D01*
X43200Y02100D02*
X43200Y01900D01*
X43550Y02650D02*
X43500Y02600D01*
X43200Y02900D02*
X43200Y02700D01*
X43550Y03050D02*
X43500Y03000D01*
X43200Y03300D02*
X43200Y03100D01*
X43550Y02250D02*
X43500Y02200D01*
X43200Y02500D02*
X43200Y02300D01*
X26100Y03150D02*
X26050Y03100D01*
X25750Y03400D02*
X25750Y03200D01*
X29200Y04850D02*
X29150Y04900D01*
X29450Y05200D02*
X29250Y05200D01*
X24450Y02100D02*
X24500Y02150D01*
X24800Y01850D02*
X24800Y02050D01*
X29050Y04100D02*
X29000Y04150D01*
X29300Y04450D02*
X29100Y04450D01*
X29350Y04150D02*
X29400Y04100D01*
X29100Y03800D02*
X29300Y03800D01*
X27900Y05550D02*
X27950Y05500D01*
X27650Y05200D02*
X27850Y05200D01*
X27550Y03850D02*
X27600Y03800D01*
X27300Y03500D02*
X27500Y03500D01*
X26850Y03150D02*
X26800Y03100D01*
X26500Y03400D02*
X26500Y03200D01*
X29550Y01850D02*
X29500Y01800D01*
X29200Y02100D02*
X29200Y01900D01*
X29550Y02650D02*
X29500Y02600D01*
X29200Y02900D02*
X29200Y02700D01*
X29550Y03050D02*
X29500Y03000D01*
X29200Y03300D02*
X29200Y03100D01*
X29550Y02250D02*
X29500Y02200D01*
X29200Y02500D02*
X29200Y02300D01*
X24750Y10350D02*
X24700Y10400D01*
X25000Y10700D02*
X24800Y10700D01*
X26850Y11050D02*
X26900Y11000D01*
X26600Y10700D02*
X26800Y10700D01*
X29650Y14250D02*
X29700Y14300D01*
X30000Y14000D02*
X30000Y14200D01*
X24350Y13150D02*
X24400Y13100D01*
X24100Y12800D02*
X24300Y12800D01*
X24350Y12450D02*
X24400Y12400D01*
X24100Y12100D02*
X24300Y12100D01*
X22050Y12650D02*
X22000Y12700D01*
X22300Y13000D02*
X22100Y13000D01*
X22050Y11850D02*
X22000Y11900D01*
X22300Y12200D02*
X22100Y12200D01*
X21950Y13350D02*
X22000Y13300D01*
X21700Y13000D02*
X21900Y13000D01*
X23850Y11250D02*
X23800Y11200D01*
X23500Y11500D02*
X23500Y11300D01*
X31150Y13550D02*
X31200Y13500D01*
X30900Y13200D02*
X31100Y13200D01*
X31950Y13550D02*
X32000Y13500D01*
X31700Y13200D02*
X31900Y13200D01*
X32850Y12150D02*
X32900Y12200D01*
X33200Y11900D02*
X33200Y12100D01*
X32450Y11450D02*
X32400Y11500D01*
X32700Y11800D02*
X32500Y11800D01*
X33150Y11750D02*
X33200Y11700D01*
X32900Y11400D02*
X33100Y11400D01*
X32850Y11050D02*
X32900Y11100D01*
X33200Y10800D02*
X33200Y11000D01*
X32850Y10550D02*
X32800Y10500D01*
X32500Y10800D02*
X32500Y10600D01*
X34250Y11850D02*
X34200Y11800D01*
X33900Y12100D02*
X33900Y11900D01*
X34238Y12873D02*
X34288Y12823D01*
X33988Y12523D02*
X34188Y12523D01*
X32350Y13750D02*
X32400Y13800D01*
X32700Y13500D02*
X32700Y13700D01*
X32350Y13350D02*
X32400Y13400D01*
X32700Y13100D02*
X32700Y13300D01*
X32350Y12950D02*
X32400Y13000D01*
X32700Y12700D02*
X32700Y12900D01*
X32350Y12550D02*
X32400Y12600D01*
X32700Y12300D02*
X32700Y12500D01*
X30450Y11050D02*
X30400Y11000D01*
X30100Y11300D02*
X30100Y11100D01*
X31250Y12850D02*
X31200Y12900D01*
X31500Y13200D02*
X31300Y13200D01*
X30950Y10850D02*
X31000Y10900D01*
X31300Y10600D02*
X31300Y10800D01*
X29650Y15350D02*
X29700Y15400D01*
X30000Y15100D02*
X30000Y15300D01*
X29650Y15850D02*
X29700Y15900D01*
X30000Y15600D02*
X30000Y15800D01*
X29650Y14850D02*
X29700Y14900D01*
X30000Y14600D02*
X30000Y14800D01*
X29750Y11750D02*
X29800Y11800D01*
X30100Y11500D02*
X30100Y11700D01*
X29750Y12150D02*
X29800Y12200D01*
X30100Y11900D02*
X30100Y12100D01*
X23150Y23050D02*
X23200Y23000D01*
X22900Y22700D02*
X23100Y22700D01*
X25040Y23860D02*
X24990Y23910D01*
X25290Y24210D02*
X25090Y24210D01*
X26040Y23860D02*
X25990Y23910D01*
X26290Y24210D02*
X26090Y24210D01*
X27050Y23850D02*
X27000Y23900D01*
X27300Y24200D02*
X27100Y24200D01*
X28050Y23850D02*
X28000Y23900D01*
X28300Y24200D02*
X28100Y24200D01*
X32050Y23850D02*
X32000Y23900D01*
X32300Y24200D02*
X32100Y24200D01*
X31050Y23850D02*
X31000Y23900D01*
X31300Y24200D02*
X31100Y24200D01*
X30050Y23850D02*
X30000Y23900D01*
X30300Y24200D02*
X30100Y24200D01*
X29050Y23850D02*
X29000Y23900D01*
X29300Y24200D02*
X29100Y24200D01*
X23100Y15950D02*
X23100Y16000D01*
X23100Y16000D02*
X23050Y16050D01*
X23050Y16050D02*
X23000Y16050D01*
X23000Y15550D02*
X23050Y15550D01*
X23050Y15550D02*
X23100Y15600D01*
X23100Y15600D02*
X23100Y15650D01*
X22600Y15650D02*
X22600Y15950D01*
X23200Y15650D02*
X23200Y15600D01*
X23200Y15600D02*
X23250Y15550D01*
X23250Y15550D02*
X23300Y15550D01*
X23300Y16050D02*
X23250Y16050D01*
X23250Y16050D02*
X23200Y16000D01*
X23200Y16000D02*
X23200Y15950D01*
X23700Y15950D02*
X23700Y15650D01*
X22000Y11350D02*
X22000Y11300D01*
X22000Y11300D02*
X22050Y11250D01*
X22050Y11250D02*
X22100Y11250D01*
X22100Y11750D02*
X22050Y11750D01*
X22050Y11750D02*
X22000Y11700D01*
X22000Y11700D02*
X22000Y11650D01*
X22500Y11650D02*
X22500Y11350D01*
X21550Y12300D02*
X21500Y12300D01*
X21500Y12300D02*
X21450Y12250D01*
X21450Y12250D02*
X21450Y12200D01*
X21950Y12200D02*
X21950Y12250D01*
X21950Y12250D02*
X21900Y12300D01*
X21900Y12300D02*
X21850Y12300D01*
X21850Y11800D02*
X21550Y11800D01*
X25340Y22910D02*
X25390Y22910D01*
X25390Y22910D02*
X25440Y22960D01*
X25440Y22960D02*
X25440Y23010D01*
X24940Y23010D02*
X24940Y22960D01*
X24940Y22960D02*
X24990Y22910D01*
X24990Y22910D02*
X25040Y22910D01*
X25040Y23410D02*
X25340Y23410D01*
X26340Y22910D02*
X26390Y22910D01*
X26390Y22910D02*
X26440Y22960D01*
X26440Y22960D02*
X26440Y23010D01*
X25940Y23010D02*
X25940Y22960D01*
X25940Y22960D02*
X25990Y22910D01*
X25990Y22910D02*
X26040Y22910D01*
X26040Y23410D02*
X26340Y23410D01*
X27340Y22910D02*
X27390Y22910D01*
X27390Y22910D02*
X27440Y22960D01*
X27440Y22960D02*
X27440Y23010D01*
X26940Y23010D02*
X26940Y22960D01*
X26940Y22960D02*
X26990Y22910D01*
X26990Y22910D02*
X27040Y22910D01*
X27040Y23410D02*
X27340Y23410D01*
X28340Y22910D02*
X28390Y22910D01*
X28390Y22910D02*
X28440Y22960D01*
X28440Y22960D02*
X28440Y23010D01*
X27940Y23010D02*
X27940Y22960D01*
X27940Y22960D02*
X27990Y22910D01*
X27990Y22910D02*
X28040Y22910D01*
X28040Y23410D02*
X28340Y23410D01*
X32340Y22910D02*
X32390Y22910D01*
X32390Y22910D02*
X32440Y22960D01*
X32440Y22960D02*
X32440Y23010D01*
X31940Y23010D02*
X31940Y22960D01*
X31940Y22960D02*
X31990Y22910D01*
X31990Y22910D02*
X32040Y22910D01*
X32040Y23410D02*
X32340Y23410D01*
X31340Y22910D02*
X31390Y22910D01*
X31390Y22910D02*
X31440Y22960D01*
X31440Y22960D02*
X31440Y23010D01*
X30940Y23010D02*
X30940Y22960D01*
X30940Y22960D02*
X30990Y22910D01*
X30990Y22910D02*
X31040Y22910D01*
X31040Y23410D02*
X31340Y23410D01*
X30340Y22910D02*
X30390Y22910D01*
X30390Y22910D02*
X30440Y22960D01*
X30440Y22960D02*
X30440Y23010D01*
X29940Y23010D02*
X29940Y22960D01*
X29940Y22960D02*
X29990Y22910D01*
X29990Y22910D02*
X30040Y22910D01*
X30040Y23410D02*
X30340Y23410D01*
X29340Y22910D02*
X29390Y22910D01*
X29390Y22910D02*
X29440Y22960D01*
X29440Y22960D02*
X29440Y23010D01*
X28940Y23010D02*
X28940Y22960D01*
X28940Y22960D02*
X28990Y22910D01*
X28990Y22910D02*
X29040Y22910D01*
X29040Y23410D02*
X29340Y23410D01*
X22650Y15500D02*
X22950Y15500D01*
X22950Y15500D02*
X23050Y15400D01*
X23050Y15400D02*
X23050Y15300D01*
X21950Y15300D02*
X21950Y15400D01*
X21950Y15400D02*
X22050Y15500D01*
X22050Y15500D02*
X22350Y15500D01*
X21950Y13700D02*
X21950Y13600D01*
X21950Y13600D02*
X22050Y13500D01*
X22050Y13500D02*
X22950Y13500D01*
X22950Y13500D02*
X23050Y13600D01*
X23050Y13600D02*
X23050Y13700D01*
X22100Y14500D02*
X22900Y14500D01*
X23950Y15500D02*
X24250Y15500D01*
X24250Y15500D02*
X24350Y15400D01*
X24350Y15400D02*
X24350Y15300D01*
X23250Y15300D02*
X23250Y15400D01*
X23250Y15400D02*
X23350Y15500D01*
X23350Y15500D02*
X23650Y15500D01*
X23250Y13700D02*
X23250Y13600D01*
X23250Y13600D02*
X23350Y13500D01*
X23350Y13500D02*
X24250Y13500D01*
X24250Y13500D02*
X24350Y13600D01*
X24350Y13600D02*
X24350Y13700D01*
X23400Y14500D02*
X24200Y14500D01*
G54D12*
X34379Y10900D02*
X34629Y10650D01*
X34629Y10650D02*
X37129Y10650D01*
X37129Y10650D02*
X37379Y10900D01*
X34379Y11900D02*
X34629Y12150D01*
X34629Y12150D02*
X37129Y12150D01*
X37129Y12150D02*
X37379Y11900D01*
G54D13*
X29362Y11396D02*
X29204Y11238D01*
X29204Y11238D02*
X24638Y11238D01*
X24638Y11238D02*
X24638Y15962D01*
X24638Y15962D02*
X29362Y15962D01*
X29362Y15962D02*
X29362Y11396D01*
G54D12*
X17300Y03950D02*
X17300Y05750D01*
X17300Y05750D02*
X20300Y05750D01*
X20300Y05750D02*
X20300Y03950D01*
X24600Y09700D02*
X24600Y07900D01*
X24600Y07900D02*
X21600Y07900D01*
X21600Y07900D02*
X21600Y09700D01*
X31300Y03950D02*
X31300Y05750D01*
X31300Y05750D02*
X34300Y05750D01*
X34300Y05750D02*
X34300Y03950D01*
X31000Y09700D02*
X31000Y07900D01*
X31000Y07900D02*
X28000Y07900D01*
X28000Y07900D02*
X28000Y09700D01*
X38300Y03950D02*
X38300Y05750D01*
X38300Y05750D02*
X41300Y05750D01*
X41300Y05750D02*
X41300Y03950D01*
X34200Y09700D02*
X34200Y07900D01*
X34200Y07900D02*
X31200Y07900D01*
X31200Y07900D02*
X31200Y09700D01*
X24300Y03950D02*
X24300Y05750D01*
X24300Y05750D02*
X27300Y05750D01*
X27300Y05750D02*
X27300Y03950D01*
X27800Y09700D02*
X27800Y07900D01*
X27800Y07900D02*
X24800Y07900D01*
X24800Y07900D02*
X24800Y09700D01*
X33800Y15900D02*
X35600Y15900D01*
X35600Y15900D02*
X35600Y12900D01*
X35600Y12900D02*
X33800Y12900D01*
X21673Y-00176D02*
X21476Y-00373D01*
X21476Y-00176D02*
X21772Y-00472D01*
X21673Y02776D02*
X21476Y02973D01*
X18327Y02776D02*
X18524Y02973D01*
X18524Y-00373D02*
X18327Y-00176D01*
X35673Y-00176D02*
X35476Y-00373D01*
X35476Y-00176D02*
X35772Y-00472D01*
X35673Y02776D02*
X35476Y02973D01*
X32327Y02776D02*
X32524Y02973D01*
X32524Y-00373D02*
X32327Y-00176D01*
X42673Y-00176D02*
X42476Y-00373D01*
X42476Y-00176D02*
X42772Y-00472D01*
X42673Y02776D02*
X42476Y02973D01*
X39327Y02776D02*
X39524Y02973D01*
X39524Y-00373D02*
X39327Y-00176D01*
X28673Y-00176D02*
X28476Y-00373D01*
X28476Y-00176D02*
X28772Y-00472D01*
X28673Y02776D02*
X28476Y02973D01*
X25327Y02776D02*
X25524Y02973D01*
X25524Y-00373D02*
X25327Y-00176D01*
G54D14*
X32391Y13967D02*
X31209Y13967D01*
X32391Y16033D02*
X31209Y16033D01*
G54D11*
X21900Y04400D02*
X21900Y03700D01*
X21900Y03700D02*
X20700Y03700D01*
X20700Y03700D02*
X20700Y04400D01*
X20700Y04400D02*
X21900Y04400D01*
X35900Y04400D02*
X35900Y03700D01*
X35900Y03700D02*
X34700Y03700D01*
X34700Y03700D02*
X34700Y04400D01*
X34700Y04400D02*
X35900Y04400D01*
X42900Y04400D02*
X42900Y03700D01*
X42900Y03700D02*
X41700Y03700D01*
X41700Y03700D02*
X41700Y04400D01*
X41700Y04400D02*
X42900Y04400D01*
X28900Y04400D02*
X28900Y03700D01*
X28900Y03700D02*
X27700Y03700D01*
X27700Y03700D02*
X27700Y04400D01*
X27700Y04400D02*
X28900Y04400D01*
G54D15*
X17700Y01596D02*
X17691Y01588D01*
X17665Y01579D01*
X17648Y01579D01*
X17623Y01588D01*
X17605Y01605D01*
X17597Y01622D01*
X17588Y01656D01*
X17588Y01682D01*
X17597Y01716D01*
X17605Y01733D01*
X17623Y01751D01*
X17648Y01759D01*
X17665Y01759D01*
X17691Y01751D01*
X17700Y01742D01*
X17760Y01759D02*
X17871Y01759D01*
X17811Y01691D01*
X17837Y01691D01*
X17854Y01682D01*
X17863Y01673D01*
X17871Y01656D01*
X17871Y01613D01*
X17863Y01596D01*
X17854Y01588D01*
X17837Y01579D01*
X17785Y01579D01*
X17768Y01588D01*
X17760Y01596D01*
X18034Y01759D02*
X17948Y01759D01*
X17939Y01673D01*
X17948Y01682D01*
X17965Y01691D01*
X18008Y01691D01*
X18025Y01682D01*
X18034Y01673D01*
X18042Y01656D01*
X18042Y01613D01*
X18034Y01596D01*
X18025Y01588D01*
X18008Y01579D01*
X17965Y01579D01*
X17948Y01588D01*
X17939Y01596D01*
X22568Y04406D02*
X22576Y04397D01*
X22585Y04371D01*
X22585Y04354D01*
X22576Y04329D01*
X22559Y04311D01*
X22542Y04303D01*
X22508Y04294D01*
X22482Y04294D01*
X22448Y04303D01*
X22431Y04311D01*
X22413Y04329D01*
X22405Y04354D01*
X22405Y04371D01*
X22413Y04397D01*
X22422Y04406D01*
X22405Y04466D02*
X22405Y04577D01*
X22473Y04517D01*
X22473Y04543D01*
X22482Y04560D01*
X22491Y04569D01*
X22508Y04577D01*
X22551Y04577D01*
X22568Y04569D01*
X22576Y04560D01*
X22585Y04543D01*
X22585Y04491D01*
X22576Y04474D01*
X22568Y04466D01*
X22482Y04680D02*
X22473Y04662D01*
X22465Y04654D01*
X22448Y04645D01*
X22439Y04645D01*
X22422Y04654D01*
X22413Y04662D01*
X22405Y04680D01*
X22405Y04714D01*
X22413Y04731D01*
X22422Y04740D01*
X22439Y04748D01*
X22448Y04748D01*
X22465Y04740D01*
X22473Y04731D01*
X22482Y04714D01*
X22482Y04680D01*
X22491Y04662D01*
X22499Y04654D01*
X22516Y04645D01*
X22551Y04645D01*
X22568Y04654D01*
X22576Y04662D01*
X22585Y04680D01*
X22585Y04714D01*
X22576Y04731D01*
X22568Y04740D01*
X22551Y04748D01*
X22516Y04748D01*
X22499Y04740D01*
X22491Y04731D01*
X22482Y04714D01*
X22579Y03698D02*
X22587Y03689D01*
X22596Y03663D01*
X22596Y03646D01*
X22587Y03621D01*
X22570Y03603D01*
X22553Y03595D01*
X22519Y03586D01*
X22493Y03586D01*
X22459Y03595D01*
X22442Y03603D01*
X22424Y03621D01*
X22416Y03646D01*
X22416Y03663D01*
X22424Y03689D01*
X22433Y03698D01*
X22476Y03852D02*
X22596Y03852D01*
X22407Y03809D02*
X22536Y03766D01*
X22536Y03878D01*
X22433Y03937D02*
X22424Y03946D01*
X22416Y03963D01*
X22416Y04006D01*
X22424Y04023D01*
X22433Y04032D01*
X22450Y04040D01*
X22467Y04040D01*
X22493Y04032D01*
X22596Y03929D01*
X22596Y04040D01*
X20609Y04408D02*
X20523Y04348D01*
X20609Y04305D02*
X20429Y04305D01*
X20429Y04373D01*
X20437Y04391D01*
X20446Y04399D01*
X20463Y04408D01*
X20489Y04408D01*
X20506Y04399D01*
X20515Y04391D01*
X20523Y04373D01*
X20523Y04305D01*
X20489Y04562D02*
X20609Y04562D01*
X20420Y04519D02*
X20549Y04476D01*
X20549Y04588D01*
X20609Y04750D02*
X20609Y04647D01*
X20609Y04699D02*
X20429Y04699D01*
X20455Y04682D01*
X20472Y04664D01*
X20480Y04647D01*
X20207Y03391D02*
X20215Y03382D01*
X20224Y03356D01*
X20224Y03339D01*
X20215Y03314D01*
X20198Y03296D01*
X20181Y03288D01*
X20147Y03279D01*
X20121Y03279D01*
X20087Y03288D01*
X20070Y03296D01*
X20052Y03314D01*
X20044Y03339D01*
X20044Y03356D01*
X20052Y03382D01*
X20061Y03391D01*
X20104Y03545D02*
X20224Y03545D01*
X20035Y03502D02*
X20164Y03459D01*
X20164Y03571D01*
X20224Y03733D02*
X20224Y03630D01*
X20224Y03682D02*
X20044Y03682D01*
X20070Y03665D01*
X20087Y03647D01*
X20095Y03630D01*
X22077Y01698D02*
X22068Y01690D01*
X22042Y01681D01*
X22025Y01681D01*
X22000Y01690D01*
X21982Y01707D01*
X21974Y01724D01*
X21965Y01758D01*
X21965Y01784D01*
X21974Y01818D01*
X21982Y01835D01*
X22000Y01853D01*
X22025Y01861D01*
X22042Y01861D01*
X22068Y01853D01*
X22077Y01844D01*
X22137Y01861D02*
X22248Y01861D01*
X22188Y01793D01*
X22214Y01793D01*
X22231Y01784D01*
X22240Y01775D01*
X22248Y01758D01*
X22248Y01715D01*
X22240Y01698D01*
X22231Y01690D01*
X22214Y01681D01*
X22162Y01681D01*
X22145Y01690D01*
X22137Y01698D01*
X22333Y01681D02*
X22368Y01681D01*
X22385Y01690D01*
X22393Y01698D01*
X22411Y01724D01*
X22419Y01758D01*
X22419Y01827D01*
X22411Y01844D01*
X22402Y01853D01*
X22385Y01861D01*
X22351Y01861D01*
X22333Y01853D01*
X22325Y01844D01*
X22316Y01827D01*
X22316Y01784D01*
X22325Y01767D01*
X22333Y01758D01*
X22351Y01750D01*
X22385Y01750D01*
X22402Y01758D01*
X22411Y01767D01*
X22419Y01784D01*
X31700Y01596D02*
X31691Y01588D01*
X31665Y01579D01*
X31648Y01579D01*
X31623Y01588D01*
X31605Y01605D01*
X31597Y01622D01*
X31588Y01656D01*
X31588Y01682D01*
X31597Y01716D01*
X31605Y01733D01*
X31623Y01751D01*
X31648Y01759D01*
X31665Y01759D01*
X31691Y01751D01*
X31700Y01742D01*
X31854Y01699D02*
X31854Y01579D01*
X31811Y01768D02*
X31768Y01639D01*
X31880Y01639D01*
X31931Y01759D02*
X32042Y01759D01*
X31982Y01691D01*
X32008Y01691D01*
X32025Y01682D01*
X32034Y01673D01*
X32042Y01656D01*
X32042Y01613D01*
X32034Y01596D01*
X32025Y01588D01*
X32008Y01579D01*
X31956Y01579D01*
X31939Y01588D01*
X31931Y01596D01*
X36568Y04406D02*
X36576Y04397D01*
X36585Y04371D01*
X36585Y04354D01*
X36576Y04329D01*
X36559Y04311D01*
X36542Y04303D01*
X36508Y04294D01*
X36482Y04294D01*
X36448Y04303D01*
X36431Y04311D01*
X36413Y04329D01*
X36405Y04354D01*
X36405Y04371D01*
X36413Y04397D01*
X36422Y04406D01*
X36465Y04560D02*
X36585Y04560D01*
X36396Y04517D02*
X36525Y04474D01*
X36525Y04586D01*
X36405Y04731D02*
X36405Y04697D01*
X36413Y04680D01*
X36422Y04671D01*
X36448Y04654D01*
X36482Y04645D01*
X36551Y04645D01*
X36568Y04654D01*
X36576Y04662D01*
X36585Y04680D01*
X36585Y04714D01*
X36576Y04731D01*
X36568Y04740D01*
X36551Y04748D01*
X36508Y04748D01*
X36491Y04740D01*
X36482Y04731D01*
X36473Y04714D01*
X36473Y04680D01*
X36482Y04662D01*
X36491Y04654D01*
X36508Y04645D01*
X36579Y03698D02*
X36587Y03689D01*
X36596Y03663D01*
X36596Y03646D01*
X36587Y03621D01*
X36570Y03603D01*
X36553Y03595D01*
X36519Y03586D01*
X36493Y03586D01*
X36459Y03595D01*
X36442Y03603D01*
X36424Y03621D01*
X36416Y03646D01*
X36416Y03663D01*
X36424Y03689D01*
X36433Y03698D01*
X36416Y03861D02*
X36416Y03775D01*
X36502Y03766D01*
X36493Y03775D01*
X36484Y03792D01*
X36484Y03835D01*
X36493Y03852D01*
X36502Y03861D01*
X36519Y03869D01*
X36562Y03869D01*
X36579Y03861D01*
X36587Y03852D01*
X36596Y03835D01*
X36596Y03792D01*
X36587Y03775D01*
X36579Y03766D01*
X36416Y03980D02*
X36416Y03997D01*
X36424Y04014D01*
X36433Y04023D01*
X36450Y04032D01*
X36484Y04040D01*
X36527Y04040D01*
X36562Y04032D01*
X36579Y04023D01*
X36587Y04014D01*
X36596Y03997D01*
X36596Y03980D01*
X36587Y03963D01*
X36579Y03954D01*
X36562Y03946D01*
X36527Y03937D01*
X36484Y03937D01*
X36450Y03946D01*
X36433Y03954D01*
X36424Y03963D01*
X36416Y03980D01*
X34609Y04408D02*
X34523Y04348D01*
X34609Y04305D02*
X34429Y04305D01*
X34429Y04373D01*
X34437Y04391D01*
X34446Y04399D01*
X34463Y04408D01*
X34489Y04408D01*
X34506Y04399D01*
X34515Y04391D01*
X34523Y04373D01*
X34523Y04305D01*
X34429Y04571D02*
X34429Y04485D01*
X34515Y04476D01*
X34506Y04485D01*
X34497Y04502D01*
X34497Y04545D01*
X34506Y04562D01*
X34515Y04571D01*
X34532Y04579D01*
X34575Y04579D01*
X34592Y04571D01*
X34600Y04562D01*
X34609Y04545D01*
X34609Y04502D01*
X34600Y04485D01*
X34592Y04476D01*
X34429Y04639D02*
X34429Y04750D01*
X34497Y04690D01*
X34497Y04716D01*
X34506Y04733D01*
X34515Y04742D01*
X34532Y04750D01*
X34575Y04750D01*
X34592Y04742D01*
X34600Y04733D01*
X34609Y04716D01*
X34609Y04664D01*
X34600Y04647D01*
X34592Y04639D01*
X34207Y03391D02*
X34215Y03382D01*
X34224Y03356D01*
X34224Y03339D01*
X34215Y03314D01*
X34198Y03296D01*
X34181Y03288D01*
X34147Y03279D01*
X34121Y03279D01*
X34087Y03288D01*
X34070Y03296D01*
X34052Y03314D01*
X34044Y03339D01*
X34044Y03356D01*
X34052Y03382D01*
X34061Y03391D01*
X34104Y03545D02*
X34224Y03545D01*
X34035Y03502D02*
X34164Y03459D01*
X34164Y03571D01*
X34224Y03647D02*
X34224Y03682D01*
X34215Y03699D01*
X34207Y03707D01*
X34181Y03725D01*
X34147Y03733D01*
X34078Y03733D01*
X34061Y03725D01*
X34052Y03716D01*
X34044Y03699D01*
X34044Y03665D01*
X34052Y03647D01*
X34061Y03639D01*
X34078Y03630D01*
X34121Y03630D01*
X34138Y03639D01*
X34147Y03647D01*
X34155Y03665D01*
X34155Y03699D01*
X34147Y03716D01*
X34138Y03725D01*
X34121Y03733D01*
X36077Y01698D02*
X36068Y01690D01*
X36042Y01681D01*
X36025Y01681D01*
X36000Y01690D01*
X35982Y01707D01*
X35974Y01724D01*
X35965Y01758D01*
X35965Y01784D01*
X35974Y01818D01*
X35982Y01835D01*
X36000Y01853D01*
X36025Y01861D01*
X36042Y01861D01*
X36068Y01853D01*
X36077Y01844D01*
X36231Y01801D02*
X36231Y01681D01*
X36188Y01870D02*
X36145Y01741D01*
X36257Y01741D01*
X36308Y01861D02*
X36428Y01861D01*
X36351Y01681D01*
X38700Y01596D02*
X38691Y01588D01*
X38665Y01579D01*
X38648Y01579D01*
X38623Y01588D01*
X38605Y01605D01*
X38597Y01622D01*
X38588Y01656D01*
X38588Y01682D01*
X38597Y01716D01*
X38605Y01733D01*
X38623Y01751D01*
X38648Y01759D01*
X38665Y01759D01*
X38691Y01751D01*
X38700Y01742D01*
X38863Y01759D02*
X38777Y01759D01*
X38768Y01673D01*
X38777Y01682D01*
X38794Y01691D01*
X38837Y01691D01*
X38854Y01682D01*
X38863Y01673D01*
X38871Y01656D01*
X38871Y01613D01*
X38863Y01596D01*
X38854Y01588D01*
X38837Y01579D01*
X38794Y01579D01*
X38777Y01588D01*
X38768Y01596D01*
X39042Y01579D02*
X38939Y01579D01*
X38991Y01579D02*
X38991Y01759D01*
X38974Y01733D01*
X38956Y01716D01*
X38939Y01708D01*
X43568Y04406D02*
X43576Y04397D01*
X43585Y04371D01*
X43585Y04354D01*
X43576Y04329D01*
X43559Y04311D01*
X43542Y04303D01*
X43508Y04294D01*
X43482Y04294D01*
X43448Y04303D01*
X43431Y04311D01*
X43413Y04329D01*
X43405Y04354D01*
X43405Y04371D01*
X43413Y04397D01*
X43422Y04406D01*
X43405Y04569D02*
X43405Y04483D01*
X43491Y04474D01*
X43482Y04483D01*
X43473Y04500D01*
X43473Y04543D01*
X43482Y04560D01*
X43491Y04569D01*
X43508Y04577D01*
X43551Y04577D01*
X43568Y04569D01*
X43576Y04560D01*
X43585Y04543D01*
X43585Y04500D01*
X43576Y04483D01*
X43568Y04474D01*
X43465Y04731D02*
X43585Y04731D01*
X43396Y04688D02*
X43525Y04645D01*
X43525Y04757D01*
X43579Y03698D02*
X43587Y03689D01*
X43596Y03663D01*
X43596Y03646D01*
X43587Y03621D01*
X43570Y03603D01*
X43553Y03595D01*
X43519Y03586D01*
X43493Y03586D01*
X43459Y03595D01*
X43442Y03603D01*
X43424Y03621D01*
X43416Y03646D01*
X43416Y03663D01*
X43424Y03689D01*
X43433Y03698D01*
X43416Y03861D02*
X43416Y03775D01*
X43502Y03766D01*
X43493Y03775D01*
X43484Y03792D01*
X43484Y03835D01*
X43493Y03852D01*
X43502Y03861D01*
X43519Y03869D01*
X43562Y03869D01*
X43579Y03861D01*
X43587Y03852D01*
X43596Y03835D01*
X43596Y03792D01*
X43587Y03775D01*
X43579Y03766D01*
X43493Y03972D02*
X43484Y03954D01*
X43476Y03946D01*
X43459Y03937D01*
X43450Y03937D01*
X43433Y03946D01*
X43424Y03954D01*
X43416Y03972D01*
X43416Y04006D01*
X43424Y04023D01*
X43433Y04032D01*
X43450Y04040D01*
X43459Y04040D01*
X43476Y04032D01*
X43484Y04023D01*
X43493Y04006D01*
X43493Y03972D01*
X43502Y03954D01*
X43510Y03946D01*
X43527Y03937D01*
X43562Y03937D01*
X43579Y03946D01*
X43587Y03954D01*
X43596Y03972D01*
X43596Y04006D01*
X43587Y04023D01*
X43579Y04032D01*
X43562Y04040D01*
X43527Y04040D01*
X43510Y04032D01*
X43502Y04023D01*
X43493Y04006D01*
X41609Y04408D02*
X41523Y04348D01*
X41609Y04305D02*
X41429Y04305D01*
X41429Y04373D01*
X41437Y04391D01*
X41446Y04399D01*
X41463Y04408D01*
X41489Y04408D01*
X41506Y04399D01*
X41515Y04391D01*
X41523Y04373D01*
X41523Y04305D01*
X41429Y04562D02*
X41429Y04528D01*
X41437Y04511D01*
X41446Y04502D01*
X41472Y04485D01*
X41506Y04476D01*
X41575Y04476D01*
X41592Y04485D01*
X41600Y04493D01*
X41609Y04511D01*
X41609Y04545D01*
X41600Y04562D01*
X41592Y04571D01*
X41575Y04579D01*
X41532Y04579D01*
X41515Y04571D01*
X41506Y04562D01*
X41497Y04545D01*
X41497Y04511D01*
X41506Y04493D01*
X41515Y04485D01*
X41532Y04476D01*
X41429Y04742D02*
X41429Y04656D01*
X41515Y04647D01*
X41506Y04656D01*
X41497Y04673D01*
X41497Y04716D01*
X41506Y04733D01*
X41515Y04742D01*
X41532Y04750D01*
X41575Y04750D01*
X41592Y04742D01*
X41600Y04733D01*
X41609Y04716D01*
X41609Y04673D01*
X41600Y04656D01*
X41592Y04647D01*
X41207Y03391D02*
X41215Y03382D01*
X41224Y03356D01*
X41224Y03339D01*
X41215Y03314D01*
X41198Y03296D01*
X41181Y03288D01*
X41147Y03279D01*
X41121Y03279D01*
X41087Y03288D01*
X41070Y03296D01*
X41052Y03314D01*
X41044Y03339D01*
X41044Y03356D01*
X41052Y03382D01*
X41061Y03391D01*
X41044Y03554D02*
X41044Y03468D01*
X41130Y03459D01*
X41121Y03468D01*
X41112Y03485D01*
X41112Y03528D01*
X41121Y03545D01*
X41130Y03554D01*
X41147Y03562D01*
X41190Y03562D01*
X41207Y03554D01*
X41215Y03545D01*
X41224Y03528D01*
X41224Y03485D01*
X41215Y03468D01*
X41207Y03459D01*
X41044Y03622D02*
X41044Y03742D01*
X41224Y03665D01*
X43077Y01698D02*
X43068Y01690D01*
X43042Y01681D01*
X43025Y01681D01*
X43000Y01690D01*
X42982Y01707D01*
X42974Y01724D01*
X42965Y01758D01*
X42965Y01784D01*
X42974Y01818D01*
X42982Y01835D01*
X43000Y01853D01*
X43025Y01861D01*
X43042Y01861D01*
X43068Y01853D01*
X43077Y01844D01*
X43240Y01861D02*
X43154Y01861D01*
X43145Y01775D01*
X43154Y01784D01*
X43171Y01793D01*
X43214Y01793D01*
X43231Y01784D01*
X43240Y01775D01*
X43248Y01758D01*
X43248Y01715D01*
X43240Y01698D01*
X43231Y01690D01*
X43214Y01681D01*
X43171Y01681D01*
X43154Y01690D01*
X43145Y01698D01*
X43411Y01861D02*
X43325Y01861D01*
X43316Y01775D01*
X43325Y01784D01*
X43342Y01793D01*
X43385Y01793D01*
X43402Y01784D01*
X43411Y01775D01*
X43419Y01758D01*
X43419Y01715D01*
X43411Y01698D01*
X43402Y01690D01*
X43385Y01681D01*
X43342Y01681D01*
X43325Y01690D01*
X43316Y01698D01*
X24700Y01596D02*
X24691Y01588D01*
X24665Y01579D01*
X24648Y01579D01*
X24623Y01588D01*
X24605Y01605D01*
X24597Y01622D01*
X24588Y01656D01*
X24588Y01682D01*
X24597Y01716D01*
X24605Y01733D01*
X24623Y01751D01*
X24648Y01759D01*
X24665Y01759D01*
X24691Y01751D01*
X24700Y01742D01*
X24863Y01759D02*
X24777Y01759D01*
X24768Y01673D01*
X24777Y01682D01*
X24794Y01691D01*
X24837Y01691D01*
X24854Y01682D01*
X24863Y01673D01*
X24871Y01656D01*
X24871Y01613D01*
X24863Y01596D01*
X24854Y01588D01*
X24837Y01579D01*
X24794Y01579D01*
X24777Y01588D01*
X24768Y01596D01*
X24956Y01579D02*
X24991Y01579D01*
X25008Y01588D01*
X25016Y01596D01*
X25034Y01622D01*
X25042Y01656D01*
X25042Y01725D01*
X25034Y01742D01*
X25025Y01751D01*
X25008Y01759D01*
X24974Y01759D01*
X24956Y01751D01*
X24948Y01742D01*
X24939Y01725D01*
X24939Y01682D01*
X24948Y01665D01*
X24956Y01656D01*
X24974Y01648D01*
X25008Y01648D01*
X25025Y01656D01*
X25034Y01665D01*
X25042Y01682D01*
X29568Y04406D02*
X29576Y04397D01*
X29585Y04371D01*
X29585Y04354D01*
X29576Y04329D01*
X29559Y04311D01*
X29542Y04303D01*
X29508Y04294D01*
X29482Y04294D01*
X29448Y04303D01*
X29431Y04311D01*
X29413Y04329D01*
X29405Y04354D01*
X29405Y04371D01*
X29413Y04397D01*
X29422Y04406D01*
X29405Y04560D02*
X29405Y04526D01*
X29413Y04509D01*
X29422Y04500D01*
X29448Y04483D01*
X29482Y04474D01*
X29551Y04474D01*
X29568Y04483D01*
X29576Y04491D01*
X29585Y04509D01*
X29585Y04543D01*
X29576Y04560D01*
X29568Y04569D01*
X29551Y04577D01*
X29508Y04577D01*
X29491Y04569D01*
X29482Y04560D01*
X29473Y04543D01*
X29473Y04509D01*
X29482Y04491D01*
X29491Y04483D01*
X29508Y04474D01*
X29422Y04645D02*
X29413Y04654D01*
X29405Y04671D01*
X29405Y04714D01*
X29413Y04731D01*
X29422Y04740D01*
X29439Y04748D01*
X29456Y04748D01*
X29482Y04740D01*
X29585Y04637D01*
X29585Y04748D01*
X29579Y03698D02*
X29587Y03689D01*
X29596Y03663D01*
X29596Y03646D01*
X29587Y03621D01*
X29570Y03603D01*
X29553Y03595D01*
X29519Y03586D01*
X29493Y03586D01*
X29459Y03595D01*
X29442Y03603D01*
X29424Y03621D01*
X29416Y03646D01*
X29416Y03663D01*
X29424Y03689D01*
X29433Y03698D01*
X29416Y03852D02*
X29416Y03818D01*
X29424Y03801D01*
X29433Y03792D01*
X29459Y03775D01*
X29493Y03766D01*
X29562Y03766D01*
X29579Y03775D01*
X29587Y03783D01*
X29596Y03801D01*
X29596Y03835D01*
X29587Y03852D01*
X29579Y03861D01*
X29562Y03869D01*
X29519Y03869D01*
X29502Y03861D01*
X29493Y03852D01*
X29484Y03835D01*
X29484Y03801D01*
X29493Y03783D01*
X29502Y03775D01*
X29519Y03766D01*
X29416Y04023D02*
X29416Y03989D01*
X29424Y03972D01*
X29433Y03963D01*
X29459Y03946D01*
X29493Y03937D01*
X29562Y03937D01*
X29579Y03946D01*
X29587Y03954D01*
X29596Y03972D01*
X29596Y04006D01*
X29587Y04023D01*
X29579Y04032D01*
X29562Y04040D01*
X29519Y04040D01*
X29502Y04032D01*
X29493Y04023D01*
X29484Y04006D01*
X29484Y03972D01*
X29493Y03954D01*
X29502Y03946D01*
X29519Y03937D01*
X27609Y04408D02*
X27523Y04348D01*
X27609Y04305D02*
X27429Y04305D01*
X27429Y04373D01*
X27437Y04391D01*
X27446Y04399D01*
X27463Y04408D01*
X27489Y04408D01*
X27506Y04399D01*
X27515Y04391D01*
X27523Y04373D01*
X27523Y04305D01*
X27429Y04468D02*
X27429Y04588D01*
X27609Y04511D01*
X27429Y04639D02*
X27429Y04759D01*
X27609Y04682D01*
X27207Y03391D02*
X27215Y03382D01*
X27224Y03356D01*
X27224Y03339D01*
X27215Y03314D01*
X27198Y03296D01*
X27181Y03288D01*
X27147Y03279D01*
X27121Y03279D01*
X27087Y03288D01*
X27070Y03296D01*
X27052Y03314D01*
X27044Y03339D01*
X27044Y03356D01*
X27052Y03382D01*
X27061Y03391D01*
X27044Y03545D02*
X27044Y03511D01*
X27052Y03494D01*
X27061Y03485D01*
X27087Y03468D01*
X27121Y03459D01*
X27190Y03459D01*
X27207Y03468D01*
X27215Y03476D01*
X27224Y03494D01*
X27224Y03528D01*
X27215Y03545D01*
X27207Y03554D01*
X27190Y03562D01*
X27147Y03562D01*
X27130Y03554D01*
X27121Y03545D01*
X27112Y03528D01*
X27112Y03494D01*
X27121Y03476D01*
X27130Y03468D01*
X27147Y03459D01*
X27044Y03725D02*
X27044Y03639D01*
X27130Y03630D01*
X27121Y03639D01*
X27112Y03656D01*
X27112Y03699D01*
X27121Y03716D01*
X27130Y03725D01*
X27147Y03733D01*
X27190Y03733D01*
X27207Y03725D01*
X27215Y03716D01*
X27224Y03699D01*
X27224Y03656D01*
X27215Y03639D01*
X27207Y03630D01*
X29077Y01698D02*
X29068Y01690D01*
X29042Y01681D01*
X29025Y01681D01*
X29000Y01690D01*
X28982Y01707D01*
X28974Y01724D01*
X28965Y01758D01*
X28965Y01784D01*
X28974Y01818D01*
X28982Y01835D01*
X29000Y01853D01*
X29025Y01861D01*
X29042Y01861D01*
X29068Y01853D01*
X29077Y01844D01*
X29231Y01861D02*
X29197Y01861D01*
X29180Y01853D01*
X29171Y01844D01*
X29154Y01818D01*
X29145Y01784D01*
X29145Y01715D01*
X29154Y01698D01*
X29162Y01690D01*
X29180Y01681D01*
X29214Y01681D01*
X29231Y01690D01*
X29240Y01698D01*
X29248Y01715D01*
X29248Y01758D01*
X29240Y01775D01*
X29231Y01784D01*
X29214Y01793D01*
X29180Y01793D01*
X29162Y01784D01*
X29154Y01775D01*
X29145Y01758D01*
X29308Y01861D02*
X29419Y01861D01*
X29359Y01793D01*
X29385Y01793D01*
X29402Y01784D01*
X29411Y01775D01*
X29419Y01758D01*
X29419Y01715D01*
X29411Y01698D01*
X29402Y01690D01*
X29385Y01681D01*
X29333Y01681D01*
X29316Y01690D01*
X29308Y01698D01*
X24433Y10565D02*
X24433Y10685D01*
X24613Y10608D01*
X24493Y10753D02*
X24673Y10753D01*
X24501Y10753D02*
X24493Y10770D01*
X24493Y10804D01*
X24501Y10821D01*
X24510Y10830D01*
X24527Y10839D01*
X24579Y10839D01*
X24596Y10830D01*
X24604Y10821D01*
X24613Y10804D01*
X24613Y10770D01*
X24604Y10753D01*
X24493Y10890D02*
X24493Y10959D01*
X24613Y10916D02*
X24459Y10916D01*
X24441Y10924D01*
X24433Y10942D01*
X24433Y10959D01*
X26937Y10335D02*
X27057Y10335D01*
X26868Y10292D02*
X26997Y10249D01*
X26997Y10361D01*
X27040Y10429D02*
X27048Y10437D01*
X27057Y10429D01*
X27048Y10420D01*
X27040Y10429D01*
X27057Y10429D01*
X26877Y10498D02*
X26877Y10618D01*
X27057Y10541D01*
X26937Y10686D02*
X27117Y10686D01*
X26945Y10686D02*
X26937Y10703D01*
X26937Y10737D01*
X26945Y10754D01*
X26954Y10763D01*
X26971Y10772D01*
X27023Y10772D01*
X27040Y10763D01*
X27048Y10754D01*
X27057Y10737D01*
X27057Y10703D01*
X27048Y10686D01*
X26963Y10909D02*
X26963Y10849D01*
X27057Y10849D02*
X26877Y10849D01*
X26877Y10935D01*
X30577Y13877D02*
X30517Y13963D01*
X30474Y13877D02*
X30474Y14057D01*
X30542Y14057D01*
X30560Y14049D01*
X30568Y14040D01*
X30577Y14023D01*
X30577Y13997D01*
X30568Y13980D01*
X30560Y13971D01*
X30542Y13963D01*
X30474Y13963D01*
X30637Y14057D02*
X30748Y14057D01*
X30688Y13989D01*
X30714Y13989D01*
X30731Y13980D01*
X30740Y13971D01*
X30748Y13954D01*
X30748Y13911D01*
X30740Y13894D01*
X30731Y13886D01*
X30714Y13877D01*
X30662Y13877D01*
X30645Y13886D01*
X30637Y13894D01*
X30859Y14057D02*
X30876Y14057D01*
X30893Y14049D01*
X30902Y14040D01*
X30911Y14023D01*
X30919Y13989D01*
X30919Y13946D01*
X30911Y13911D01*
X30902Y13894D01*
X30893Y13886D01*
X30876Y13877D01*
X30859Y13877D01*
X30842Y13886D01*
X30833Y13894D01*
X30825Y13911D01*
X30816Y13946D01*
X30816Y13989D01*
X30825Y14023D01*
X30833Y14040D01*
X30842Y14049D01*
X30859Y14057D01*
X24519Y12670D02*
X24433Y12610D01*
X24519Y12567D02*
X24339Y12567D01*
X24339Y12635D01*
X24347Y12653D01*
X24356Y12661D01*
X24373Y12670D01*
X24399Y12670D01*
X24416Y12661D01*
X24425Y12653D01*
X24433Y12635D01*
X24433Y12567D01*
X24519Y12841D02*
X24519Y12738D01*
X24519Y12790D02*
X24339Y12790D01*
X24365Y12773D01*
X24382Y12755D01*
X24390Y12738D01*
X24339Y13004D02*
X24339Y12918D01*
X24425Y12909D01*
X24416Y12918D01*
X24407Y12935D01*
X24407Y12978D01*
X24416Y12995D01*
X24425Y13004D01*
X24442Y13012D01*
X24485Y13012D01*
X24502Y13004D01*
X24510Y12995D01*
X24519Y12978D01*
X24519Y12935D01*
X24510Y12918D01*
X24502Y12909D01*
X23989Y11900D02*
X23903Y11840D01*
X23989Y11797D02*
X23809Y11797D01*
X23809Y11865D01*
X23817Y11883D01*
X23826Y11891D01*
X23843Y11900D01*
X23869Y11900D01*
X23886Y11891D01*
X23895Y11883D01*
X23903Y11865D01*
X23903Y11797D01*
X23989Y12071D02*
X23989Y11968D01*
X23989Y12020D02*
X23809Y12020D01*
X23835Y12003D01*
X23852Y11985D01*
X23860Y11968D01*
X23809Y12225D02*
X23809Y12191D01*
X23817Y12174D01*
X23826Y12165D01*
X23852Y12148D01*
X23886Y12139D01*
X23955Y12139D01*
X23972Y12148D01*
X23980Y12156D01*
X23989Y12174D01*
X23989Y12208D01*
X23980Y12225D01*
X23972Y12234D01*
X23955Y12242D01*
X23912Y12242D01*
X23895Y12234D01*
X23886Y12225D01*
X23877Y12208D01*
X23877Y12174D01*
X23886Y12156D01*
X23895Y12148D01*
X23912Y12139D01*
X22599Y11926D02*
X22513Y11866D01*
X22599Y11823D02*
X22419Y11823D01*
X22419Y11891D01*
X22427Y11909D01*
X22436Y11917D01*
X22453Y11926D01*
X22479Y11926D01*
X22496Y11917D01*
X22505Y11909D01*
X22513Y11891D01*
X22513Y11823D01*
X22599Y12097D02*
X22599Y11994D01*
X22599Y12046D02*
X22419Y12046D01*
X22445Y12029D01*
X22462Y12011D01*
X22470Y11994D01*
X22419Y12157D02*
X22419Y12268D01*
X22487Y12208D01*
X22487Y12234D01*
X22496Y12251D01*
X22505Y12260D01*
X22522Y12268D01*
X22565Y12268D01*
X22582Y12260D01*
X22590Y12251D01*
X22599Y12234D01*
X22599Y12182D01*
X22590Y12165D01*
X22582Y12157D01*
X21604Y12810D02*
X21612Y12801D01*
X21621Y12775D01*
X21621Y12758D01*
X21612Y12733D01*
X21595Y12715D01*
X21578Y12707D01*
X21544Y12698D01*
X21518Y12698D01*
X21484Y12707D01*
X21467Y12715D01*
X21449Y12733D01*
X21441Y12758D01*
X21441Y12775D01*
X21449Y12801D01*
X21458Y12810D01*
X21621Y12981D02*
X21621Y12878D01*
X21621Y12930D02*
X21441Y12930D01*
X21467Y12913D01*
X21484Y12895D01*
X21492Y12878D01*
X21621Y13152D02*
X21621Y13049D01*
X21621Y13101D02*
X21441Y13101D01*
X21467Y13084D01*
X21484Y13066D01*
X21492Y13049D01*
X23481Y11082D02*
X23472Y11074D01*
X23446Y11065D01*
X23429Y11065D01*
X23404Y11074D01*
X23386Y11091D01*
X23378Y11108D01*
X23369Y11142D01*
X23369Y11168D01*
X23378Y11202D01*
X23386Y11219D01*
X23404Y11237D01*
X23429Y11245D01*
X23446Y11245D01*
X23472Y11237D01*
X23481Y11228D01*
X23541Y11245D02*
X23652Y11245D01*
X23592Y11177D01*
X23618Y11177D01*
X23635Y11168D01*
X23644Y11159D01*
X23652Y11142D01*
X23652Y11099D01*
X23644Y11082D01*
X23635Y11074D01*
X23618Y11065D01*
X23566Y11065D01*
X23549Y11074D01*
X23541Y11082D01*
X33367Y11608D02*
X33281Y11608D01*
X33281Y11788D01*
X33504Y11728D02*
X33504Y11608D01*
X33461Y11797D02*
X33418Y11668D01*
X33530Y11668D01*
X32761Y11119D02*
X32761Y11033D01*
X32581Y11033D01*
X32581Y11265D02*
X32581Y11179D01*
X32667Y11170D01*
X32658Y11179D01*
X32649Y11196D01*
X32649Y11239D01*
X32658Y11256D01*
X32667Y11265D01*
X32684Y11273D01*
X32727Y11273D01*
X32744Y11265D01*
X32752Y11256D01*
X32761Y11239D01*
X32761Y11196D01*
X32752Y11179D01*
X32744Y11170D01*
X33254Y10553D02*
X33245Y10545D01*
X33219Y10536D01*
X33202Y10536D01*
X33177Y10545D01*
X33159Y10562D01*
X33151Y10579D01*
X33142Y10613D01*
X33142Y10639D01*
X33151Y10673D01*
X33159Y10690D01*
X33177Y10708D01*
X33202Y10716D01*
X33219Y10716D01*
X33245Y10708D01*
X33254Y10699D01*
X33322Y10699D02*
X33331Y10708D01*
X33348Y10716D01*
X33391Y10716D01*
X33408Y10708D01*
X33417Y10699D01*
X33425Y10682D01*
X33425Y10665D01*
X33417Y10639D01*
X33314Y10536D01*
X33425Y10536D01*
X33528Y10639D02*
X33510Y10648D01*
X33502Y10656D01*
X33493Y10673D01*
X33493Y10682D01*
X33502Y10699D01*
X33510Y10708D01*
X33528Y10716D01*
X33562Y10716D01*
X33579Y10708D01*
X33588Y10699D01*
X33596Y10682D01*
X33596Y10673D01*
X33588Y10656D01*
X33579Y10648D01*
X33562Y10639D01*
X33528Y10639D01*
X33510Y10630D01*
X33502Y10622D01*
X33493Y10605D01*
X33493Y10570D01*
X33502Y10553D01*
X33510Y10545D01*
X33528Y10536D01*
X33562Y10536D01*
X33579Y10545D01*
X33588Y10553D01*
X33596Y10570D01*
X33596Y10605D01*
X33588Y10622D01*
X33579Y10630D01*
X33562Y10639D01*
X32440Y10377D02*
X32431Y10369D01*
X32405Y10360D01*
X32388Y10360D01*
X32363Y10369D01*
X32345Y10386D01*
X32337Y10403D01*
X32328Y10437D01*
X32328Y10463D01*
X32337Y10497D01*
X32345Y10514D01*
X32363Y10532D01*
X32388Y10540D01*
X32405Y10540D01*
X32431Y10532D01*
X32440Y10523D01*
X32500Y10540D02*
X32611Y10540D01*
X32551Y10472D01*
X32577Y10472D01*
X32594Y10463D01*
X32603Y10454D01*
X32611Y10437D01*
X32611Y10394D01*
X32603Y10377D01*
X32594Y10369D01*
X32577Y10360D01*
X32525Y10360D01*
X32508Y10369D01*
X32500Y10377D01*
X32679Y10523D02*
X32688Y10532D01*
X32705Y10540D01*
X32748Y10540D01*
X32765Y10532D01*
X32774Y10523D01*
X32782Y10506D01*
X32782Y10489D01*
X32774Y10463D01*
X32671Y10360D01*
X32782Y10360D01*
X34481Y12316D02*
X34489Y12307D01*
X34498Y12281D01*
X34498Y12264D01*
X34489Y12239D01*
X34472Y12221D01*
X34455Y12213D01*
X34421Y12204D01*
X34395Y12204D01*
X34361Y12213D01*
X34344Y12221D01*
X34326Y12239D01*
X34318Y12264D01*
X34318Y12281D01*
X34326Y12307D01*
X34335Y12316D01*
X34318Y12376D02*
X34318Y12487D01*
X34386Y12427D01*
X34386Y12453D01*
X34395Y12470D01*
X34404Y12479D01*
X34421Y12487D01*
X34464Y12487D01*
X34481Y12479D01*
X34489Y12470D01*
X34498Y12453D01*
X34498Y12401D01*
X34489Y12384D01*
X34481Y12376D01*
X34498Y12658D02*
X34498Y12555D01*
X34498Y12607D02*
X34318Y12607D01*
X34344Y12590D01*
X34361Y12572D01*
X34369Y12555D01*
X32658Y13829D02*
X32572Y13829D01*
X32572Y14009D01*
X32795Y14009D02*
X32761Y14009D01*
X32744Y14001D01*
X32735Y13992D01*
X32718Y13966D01*
X32709Y13932D01*
X32709Y13863D01*
X32718Y13846D01*
X32726Y13838D01*
X32744Y13829D01*
X32778Y13829D01*
X32795Y13838D01*
X32804Y13846D01*
X32812Y13863D01*
X32812Y13906D01*
X32804Y13923D01*
X32795Y13932D01*
X32778Y13941D01*
X32744Y13941D01*
X32726Y13932D01*
X32718Y13923D01*
X32709Y13906D01*
X33332Y13139D02*
X33323Y13131D01*
X33297Y13122D01*
X33280Y13122D01*
X33255Y13131D01*
X33237Y13148D01*
X33229Y13165D01*
X33220Y13199D01*
X33220Y13225D01*
X33229Y13259D01*
X33237Y13276D01*
X33255Y13294D01*
X33280Y13302D01*
X33297Y13302D01*
X33323Y13294D01*
X33332Y13285D01*
X33392Y13302D02*
X33503Y13302D01*
X33443Y13234D01*
X33469Y13234D01*
X33486Y13225D01*
X33495Y13216D01*
X33503Y13199D01*
X33503Y13156D01*
X33495Y13139D01*
X33486Y13131D01*
X33469Y13122D01*
X33417Y13122D01*
X33400Y13131D01*
X33392Y13139D01*
X33614Y13302D02*
X33631Y13302D01*
X33648Y13294D01*
X33657Y13285D01*
X33666Y13268D01*
X33674Y13234D01*
X33674Y13191D01*
X33666Y13156D01*
X33657Y13139D01*
X33648Y13131D01*
X33631Y13122D01*
X33614Y13122D01*
X33597Y13131D01*
X33588Y13139D01*
X33580Y13156D01*
X33571Y13191D01*
X33571Y13234D01*
X33580Y13268D01*
X33588Y13285D01*
X33597Y13294D01*
X33614Y13302D01*
X33325Y12746D02*
X33316Y12738D01*
X33290Y12729D01*
X33273Y12729D01*
X33248Y12738D01*
X33230Y12755D01*
X33222Y12772D01*
X33213Y12806D01*
X33213Y12832D01*
X33222Y12866D01*
X33230Y12883D01*
X33248Y12901D01*
X33273Y12909D01*
X33290Y12909D01*
X33316Y12901D01*
X33325Y12892D01*
X33393Y12892D02*
X33402Y12901D01*
X33419Y12909D01*
X33462Y12909D01*
X33479Y12901D01*
X33488Y12892D01*
X33496Y12875D01*
X33496Y12858D01*
X33488Y12832D01*
X33385Y12729D01*
X33496Y12729D01*
X33556Y12909D02*
X33676Y12909D01*
X33599Y12729D01*
X33297Y12360D02*
X33288Y12352D01*
X33262Y12343D01*
X33245Y12343D01*
X33220Y12352D01*
X33202Y12369D01*
X33194Y12386D01*
X33185Y12420D01*
X33185Y12446D01*
X33194Y12480D01*
X33202Y12497D01*
X33220Y12515D01*
X33245Y12523D01*
X33262Y12523D01*
X33288Y12515D01*
X33297Y12506D01*
X33365Y12506D02*
X33374Y12515D01*
X33391Y12523D01*
X33434Y12523D01*
X33451Y12515D01*
X33460Y12506D01*
X33468Y12489D01*
X33468Y12472D01*
X33460Y12446D01*
X33357Y12343D01*
X33468Y12343D01*
X33622Y12523D02*
X33588Y12523D01*
X33571Y12515D01*
X33562Y12506D01*
X33545Y12480D01*
X33536Y12446D01*
X33536Y12377D01*
X33545Y12360D01*
X33553Y12352D01*
X33571Y12343D01*
X33605Y12343D01*
X33622Y12352D01*
X33631Y12360D01*
X33639Y12377D01*
X33639Y12420D01*
X33631Y12437D01*
X33622Y12446D01*
X33605Y12455D01*
X33571Y12455D01*
X33553Y12446D01*
X33545Y12437D01*
X33536Y12420D01*
X29926Y11002D02*
X30037Y11002D01*
X29977Y10934D01*
X30003Y10934D01*
X30020Y10925D01*
X30029Y10916D01*
X30037Y10899D01*
X30037Y10856D01*
X30029Y10839D01*
X30020Y10831D01*
X30003Y10822D01*
X29951Y10822D01*
X29934Y10831D01*
X29926Y10839D01*
X30097Y11002D02*
X30208Y11002D01*
X30148Y10934D01*
X30174Y10934D01*
X30191Y10925D01*
X30200Y10916D01*
X30208Y10899D01*
X30208Y10856D01*
X30200Y10839D01*
X30191Y10831D01*
X30174Y10822D01*
X30122Y10822D01*
X30105Y10831D01*
X30097Y10839D01*
X31193Y10339D02*
X31184Y10331D01*
X31158Y10322D01*
X31141Y10322D01*
X31116Y10331D01*
X31098Y10348D01*
X31090Y10365D01*
X31081Y10399D01*
X31081Y10425D01*
X31090Y10459D01*
X31098Y10476D01*
X31116Y10494D01*
X31141Y10502D01*
X31158Y10502D01*
X31184Y10494D01*
X31193Y10485D01*
X31261Y10485D02*
X31270Y10494D01*
X31287Y10502D01*
X31330Y10502D01*
X31347Y10494D01*
X31356Y10485D01*
X31364Y10468D01*
X31364Y10451D01*
X31356Y10425D01*
X31253Y10322D01*
X31364Y10322D01*
X31424Y10502D02*
X31535Y10502D01*
X31475Y10434D01*
X31501Y10434D01*
X31518Y10425D01*
X31527Y10416D01*
X31535Y10399D01*
X31535Y10356D01*
X31527Y10339D01*
X31518Y10331D01*
X31501Y10322D01*
X31449Y10322D01*
X31432Y10331D01*
X31424Y10339D01*
X29885Y15909D02*
X29825Y15995D01*
X29782Y15909D02*
X29782Y16089D01*
X29850Y16089D01*
X29868Y16081D01*
X29876Y16072D01*
X29885Y16055D01*
X29885Y16029D01*
X29876Y16012D01*
X29868Y16003D01*
X29850Y15995D01*
X29782Y15995D01*
X29953Y16072D02*
X29962Y16081D01*
X29979Y16089D01*
X30022Y16089D01*
X30039Y16081D01*
X30048Y16072D01*
X30056Y16055D01*
X30056Y16038D01*
X30048Y16012D01*
X29945Y15909D01*
X30056Y15909D01*
X30141Y15909D02*
X30176Y15909D01*
X30193Y15918D01*
X30201Y15926D01*
X30219Y15952D01*
X30227Y15986D01*
X30227Y16055D01*
X30219Y16072D01*
X30210Y16081D01*
X30193Y16089D01*
X30159Y16089D01*
X30141Y16081D01*
X30133Y16072D01*
X30124Y16055D01*
X30124Y16012D01*
X30133Y15995D01*
X30141Y15986D01*
X30159Y15978D01*
X30193Y15978D01*
X30210Y15986D01*
X30219Y15995D01*
X30227Y16012D01*
X29925Y14347D02*
X29865Y14433D01*
X29822Y14347D02*
X29822Y14527D01*
X29890Y14527D01*
X29908Y14519D01*
X29916Y14510D01*
X29925Y14493D01*
X29925Y14467D01*
X29916Y14450D01*
X29908Y14441D01*
X29890Y14433D01*
X29822Y14433D01*
X29993Y14510D02*
X30002Y14519D01*
X30019Y14527D01*
X30062Y14527D01*
X30079Y14519D01*
X30088Y14510D01*
X30096Y14493D01*
X30096Y14476D01*
X30088Y14450D01*
X29985Y14347D01*
X30096Y14347D01*
X30156Y14527D02*
X30276Y14527D01*
X30199Y14347D01*
G54D11*
X25920Y16644D02*
X25920Y16944D01*
X25992Y16944D01*
X26035Y16929D01*
X26063Y16901D01*
X26078Y16872D01*
X26092Y16815D01*
X26092Y16772D01*
X26078Y16715D01*
X26063Y16686D01*
X26035Y16658D01*
X25992Y16644D01*
X25920Y16644D01*
X26335Y16658D02*
X26306Y16644D01*
X26249Y16644D01*
X26220Y16658D01*
X26206Y16686D01*
X26206Y16801D01*
X26220Y16829D01*
X26249Y16844D01*
X26306Y16844D01*
X26335Y16829D01*
X26349Y16801D01*
X26349Y16772D01*
X26206Y16744D01*
X26463Y16658D02*
X26492Y16644D01*
X26549Y16644D01*
X26577Y16658D01*
X26592Y16686D01*
X26592Y16701D01*
X26577Y16729D01*
X26549Y16744D01*
X26506Y16744D01*
X26477Y16758D01*
X26463Y16786D01*
X26463Y16801D01*
X26477Y16829D01*
X26506Y16844D01*
X26549Y16844D01*
X26577Y16829D01*
X26720Y16644D02*
X26720Y16844D01*
X26720Y16944D02*
X26706Y16929D01*
X26720Y16915D01*
X26735Y16929D01*
X26720Y16944D01*
X26720Y16915D01*
X26992Y16844D02*
X26992Y16601D01*
X26978Y16572D01*
X26963Y16558D01*
X26935Y16544D01*
X26892Y16544D01*
X26863Y16558D01*
X26992Y16658D02*
X26963Y16644D01*
X26906Y16644D01*
X26878Y16658D01*
X26863Y16672D01*
X26849Y16701D01*
X26849Y16786D01*
X26863Y16815D01*
X26878Y16829D01*
X26906Y16844D01*
X26963Y16844D01*
X26992Y16829D01*
X27134Y16844D02*
X27134Y16644D01*
X27134Y16815D02*
X27149Y16829D01*
X27177Y16844D01*
X27220Y16844D01*
X27249Y16829D01*
X27263Y16801D01*
X27263Y16644D01*
X27520Y16658D02*
X27491Y16644D01*
X27434Y16644D01*
X27405Y16658D01*
X27391Y16686D01*
X27391Y16801D01*
X27405Y16829D01*
X27434Y16844D01*
X27491Y16844D01*
X27520Y16829D01*
X27534Y16801D01*
X27534Y16772D01*
X27391Y16744D01*
X27791Y16644D02*
X27791Y16944D01*
X27791Y16658D02*
X27762Y16644D01*
X27705Y16644D01*
X27677Y16658D01*
X27662Y16672D01*
X27648Y16701D01*
X27648Y16786D01*
X27662Y16815D01*
X27677Y16829D01*
X27705Y16844D01*
X27762Y16844D01*
X27791Y16829D01*
X28162Y16644D02*
X28162Y16844D01*
X28162Y16944D02*
X28148Y16929D01*
X28162Y16915D01*
X28177Y16929D01*
X28162Y16944D01*
X28162Y16915D01*
X28305Y16844D02*
X28305Y16644D01*
X28305Y16815D02*
X28320Y16829D01*
X28348Y16844D01*
X28391Y16844D01*
X28420Y16829D01*
X28434Y16801D01*
X28434Y16644D01*
X28805Y16644D02*
X28805Y16944D01*
X28977Y16644D02*
X28848Y16815D01*
X28977Y16944D02*
X28805Y16772D01*
X29105Y16644D02*
X29105Y16844D01*
X29105Y16944D02*
X29091Y16929D01*
X29105Y16915D01*
X29120Y16929D01*
X29105Y16944D01*
X29105Y16915D01*
X29377Y16658D02*
X29348Y16644D01*
X29291Y16644D01*
X29263Y16658D01*
X29248Y16672D01*
X29234Y16701D01*
X29234Y16786D01*
X29248Y16815D01*
X29263Y16829D01*
X29291Y16844D01*
X29348Y16844D01*
X29377Y16829D01*
X29634Y16644D02*
X29634Y16801D01*
X29620Y16829D01*
X29591Y16844D01*
X29534Y16844D01*
X29505Y16829D01*
X29634Y16658D02*
X29605Y16644D01*
X29534Y16644D01*
X29505Y16658D01*
X29491Y16686D01*
X29491Y16715D01*
X29505Y16744D01*
X29534Y16758D01*
X29605Y16758D01*
X29634Y16772D01*
X29905Y16644D02*
X29905Y16944D01*
X29905Y16658D02*
X29876Y16644D01*
X29819Y16644D01*
X29791Y16658D01*
X29776Y16672D01*
X29762Y16701D01*
X29762Y16786D01*
X29776Y16815D01*
X29791Y16829D01*
X29819Y16844D01*
X29876Y16844D01*
X29905Y16829D01*
X30090Y16644D02*
X30062Y16658D01*
X30047Y16672D01*
X30033Y16701D01*
X30033Y16786D01*
X30047Y16815D01*
X30062Y16829D01*
X30090Y16844D01*
X30133Y16844D01*
X30162Y16829D01*
X30176Y16815D01*
X30190Y16786D01*
X30190Y16701D01*
X30176Y16672D01*
X30162Y16658D01*
X30133Y16644D01*
X30090Y16644D01*
X30447Y16658D02*
X30418Y16644D01*
X30361Y16644D01*
X30333Y16658D01*
X30318Y16672D01*
X30304Y16701D01*
X30304Y16786D01*
X30318Y16815D01*
X30333Y16829D01*
X30361Y16844D01*
X30418Y16844D01*
X30447Y16829D01*
X30704Y16644D02*
X30704Y16801D01*
X30690Y16829D01*
X30661Y16844D01*
X30604Y16844D01*
X30575Y16829D01*
X30704Y16658D02*
X30675Y16644D01*
X30604Y16644D01*
X30575Y16658D01*
X30561Y16686D01*
X30561Y16715D01*
X30575Y16744D01*
X30604Y16758D01*
X30675Y16758D01*
X30704Y16772D01*
X30846Y16644D02*
X30846Y16844D01*
X30846Y16815D02*
X30861Y16829D01*
X30889Y16844D01*
X30932Y16844D01*
X30961Y16829D01*
X30975Y16801D01*
X30975Y16644D01*
X30975Y16801D02*
X30989Y16829D01*
X31018Y16844D01*
X31061Y16844D01*
X31089Y16829D01*
X31104Y16801D01*
X31104Y16644D01*
X31289Y16644D02*
X31261Y16658D01*
X31246Y16686D01*
X31246Y16944D01*
G54D15*
X22575Y22336D02*
X22575Y22447D01*
X22643Y22387D01*
X22643Y22413D01*
X22652Y22430D01*
X22661Y22439D01*
X22678Y22447D01*
X22721Y22447D01*
X22738Y22439D01*
X22746Y22430D01*
X22755Y22413D01*
X22755Y22361D01*
X22746Y22344D01*
X22738Y22336D01*
X22575Y22507D02*
X22575Y22618D01*
X22643Y22558D01*
X22643Y22584D01*
X22652Y22601D01*
X22661Y22610D01*
X22678Y22618D01*
X22721Y22618D01*
X22738Y22610D01*
X22746Y22601D01*
X22755Y22584D01*
X22755Y22532D01*
X22746Y22515D01*
X22738Y22507D01*
X22635Y22695D02*
X22815Y22695D01*
X22643Y22695D02*
X22635Y22712D01*
X22635Y22746D01*
X22643Y22763D01*
X22652Y22772D01*
X22669Y22781D01*
X22721Y22781D01*
X22738Y22772D01*
X22746Y22763D01*
X22755Y22746D01*
X22755Y22712D01*
X22746Y22695D01*
X22635Y22832D02*
X22635Y22901D01*
X22755Y22858D02*
X22601Y22858D01*
X22583Y22866D01*
X22575Y22884D01*
X22575Y22901D01*
X24787Y24206D02*
X24787Y24120D01*
X24873Y24111D01*
X24864Y24120D01*
X24855Y24137D01*
X24855Y24180D01*
X24864Y24197D01*
X24873Y24206D01*
X24890Y24214D01*
X24933Y24214D01*
X24950Y24206D01*
X24958Y24197D01*
X24967Y24180D01*
X24967Y24137D01*
X24958Y24120D01*
X24950Y24111D01*
X24787Y24325D02*
X24787Y24342D01*
X24795Y24359D01*
X24804Y24368D01*
X24821Y24377D01*
X24855Y24385D01*
X24898Y24385D01*
X24933Y24377D01*
X24950Y24368D01*
X24958Y24359D01*
X24967Y24342D01*
X24967Y24325D01*
X24958Y24308D01*
X24950Y24299D01*
X24933Y24291D01*
X24898Y24282D01*
X24855Y24282D01*
X24821Y24291D01*
X24804Y24299D01*
X24795Y24308D01*
X24787Y24325D01*
X25787Y24206D02*
X25787Y24120D01*
X25873Y24111D01*
X25864Y24120D01*
X25855Y24137D01*
X25855Y24180D01*
X25864Y24197D01*
X25873Y24206D01*
X25890Y24214D01*
X25933Y24214D01*
X25950Y24206D01*
X25958Y24197D01*
X25967Y24180D01*
X25967Y24137D01*
X25958Y24120D01*
X25950Y24111D01*
X25787Y24325D02*
X25787Y24342D01*
X25795Y24359D01*
X25804Y24368D01*
X25821Y24377D01*
X25855Y24385D01*
X25898Y24385D01*
X25933Y24377D01*
X25950Y24368D01*
X25958Y24359D01*
X25967Y24342D01*
X25967Y24325D01*
X25958Y24308D01*
X25950Y24299D01*
X25933Y24291D01*
X25898Y24282D01*
X25855Y24282D01*
X25821Y24291D01*
X25804Y24299D01*
X25795Y24308D01*
X25787Y24325D01*
X26785Y24232D02*
X26785Y24146D01*
X26871Y24137D01*
X26862Y24146D01*
X26853Y24163D01*
X26853Y24206D01*
X26862Y24223D01*
X26871Y24232D01*
X26888Y24240D01*
X26931Y24240D01*
X26948Y24232D01*
X26956Y24223D01*
X26965Y24206D01*
X26965Y24163D01*
X26956Y24146D01*
X26948Y24137D01*
X26785Y24351D02*
X26785Y24368D01*
X26793Y24385D01*
X26802Y24394D01*
X26819Y24403D01*
X26853Y24411D01*
X26896Y24411D01*
X26931Y24403D01*
X26948Y24394D01*
X26956Y24385D01*
X26965Y24368D01*
X26965Y24351D01*
X26956Y24334D01*
X26948Y24325D01*
X26931Y24317D01*
X26896Y24308D01*
X26853Y24308D01*
X26819Y24317D01*
X26802Y24325D01*
X26793Y24334D01*
X26785Y24351D01*
X27785Y24220D02*
X27785Y24134D01*
X27871Y24125D01*
X27862Y24134D01*
X27853Y24151D01*
X27853Y24194D01*
X27862Y24211D01*
X27871Y24220D01*
X27888Y24228D01*
X27931Y24228D01*
X27948Y24220D01*
X27956Y24211D01*
X27965Y24194D01*
X27965Y24151D01*
X27956Y24134D01*
X27948Y24125D01*
X27785Y24339D02*
X27785Y24356D01*
X27793Y24373D01*
X27802Y24382D01*
X27819Y24391D01*
X27853Y24399D01*
X27896Y24399D01*
X27931Y24391D01*
X27948Y24382D01*
X27956Y24373D01*
X27965Y24356D01*
X27965Y24339D01*
X27956Y24322D01*
X27948Y24313D01*
X27931Y24305D01*
X27896Y24296D01*
X27853Y24296D01*
X27819Y24305D01*
X27802Y24313D01*
X27793Y24322D01*
X27785Y24339D01*
X31785Y24196D02*
X31785Y24110D01*
X31871Y24101D01*
X31862Y24110D01*
X31853Y24127D01*
X31853Y24170D01*
X31862Y24187D01*
X31871Y24196D01*
X31888Y24204D01*
X31931Y24204D01*
X31948Y24196D01*
X31956Y24187D01*
X31965Y24170D01*
X31965Y24127D01*
X31956Y24110D01*
X31948Y24101D01*
X31785Y24315D02*
X31785Y24332D01*
X31793Y24349D01*
X31802Y24358D01*
X31819Y24367D01*
X31853Y24375D01*
X31896Y24375D01*
X31931Y24367D01*
X31948Y24358D01*
X31956Y24349D01*
X31965Y24332D01*
X31965Y24315D01*
X31956Y24298D01*
X31948Y24289D01*
X31931Y24281D01*
X31896Y24272D01*
X31853Y24272D01*
X31819Y24281D01*
X31802Y24289D01*
X31793Y24298D01*
X31785Y24315D01*
X30797Y24208D02*
X30797Y24122D01*
X30883Y24113D01*
X30874Y24122D01*
X30865Y24139D01*
X30865Y24182D01*
X30874Y24199D01*
X30883Y24208D01*
X30900Y24216D01*
X30943Y24216D01*
X30960Y24208D01*
X30968Y24199D01*
X30977Y24182D01*
X30977Y24139D01*
X30968Y24122D01*
X30960Y24113D01*
X30797Y24327D02*
X30797Y24344D01*
X30805Y24361D01*
X30814Y24370D01*
X30831Y24379D01*
X30865Y24387D01*
X30908Y24387D01*
X30943Y24379D01*
X30960Y24370D01*
X30968Y24361D01*
X30977Y24344D01*
X30977Y24327D01*
X30968Y24310D01*
X30960Y24301D01*
X30943Y24293D01*
X30908Y24284D01*
X30865Y24284D01*
X30831Y24293D01*
X30814Y24301D01*
X30805Y24310D01*
X30797Y24327D01*
X29797Y24208D02*
X29797Y24122D01*
X29883Y24113D01*
X29874Y24122D01*
X29865Y24139D01*
X29865Y24182D01*
X29874Y24199D01*
X29883Y24208D01*
X29900Y24216D01*
X29943Y24216D01*
X29960Y24208D01*
X29968Y24199D01*
X29977Y24182D01*
X29977Y24139D01*
X29968Y24122D01*
X29960Y24113D01*
X29797Y24327D02*
X29797Y24344D01*
X29805Y24361D01*
X29814Y24370D01*
X29831Y24379D01*
X29865Y24387D01*
X29908Y24387D01*
X29943Y24379D01*
X29960Y24370D01*
X29968Y24361D01*
X29977Y24344D01*
X29977Y24327D01*
X29968Y24310D01*
X29960Y24301D01*
X29943Y24293D01*
X29908Y24284D01*
X29865Y24284D01*
X29831Y24293D01*
X29814Y24301D01*
X29805Y24310D01*
X29797Y24327D01*
X28797Y24208D02*
X28797Y24122D01*
X28883Y24113D01*
X28874Y24122D01*
X28865Y24139D01*
X28865Y24182D01*
X28874Y24199D01*
X28883Y24208D01*
X28900Y24216D01*
X28943Y24216D01*
X28960Y24208D01*
X28968Y24199D01*
X28977Y24182D01*
X28977Y24139D01*
X28968Y24122D01*
X28960Y24113D01*
X28797Y24327D02*
X28797Y24344D01*
X28805Y24361D01*
X28814Y24370D01*
X28831Y24379D01*
X28865Y24387D01*
X28908Y24387D01*
X28943Y24379D01*
X28960Y24370D01*
X28968Y24361D01*
X28977Y24344D01*
X28977Y24327D01*
X28968Y24310D01*
X28960Y24301D01*
X28943Y24293D01*
X28908Y24284D01*
X28865Y24284D01*
X28831Y24293D01*
X28814Y24301D01*
X28805Y24310D01*
X28797Y24327D01*
X22412Y16062D02*
X22309Y16062D01*
X22361Y16062D02*
X22361Y16242D01*
X22344Y16216D01*
X22326Y16199D01*
X22309Y16191D01*
X22523Y16242D02*
X22540Y16242D01*
X22557Y16234D01*
X22566Y16225D01*
X22575Y16208D01*
X22583Y16174D01*
X22583Y16131D01*
X22575Y16096D01*
X22566Y16079D01*
X22557Y16071D01*
X22540Y16062D01*
X22523Y16062D01*
X22506Y16071D01*
X22497Y16079D01*
X22489Y16096D01*
X22480Y16131D01*
X22480Y16174D01*
X22489Y16208D01*
X22497Y16225D01*
X22506Y16234D01*
X22523Y16242D01*
X22737Y16182D02*
X22737Y16062D01*
X22660Y16182D02*
X22660Y16088D01*
X22668Y16071D01*
X22686Y16062D01*
X22711Y16062D01*
X22728Y16071D01*
X22737Y16079D01*
X22797Y16182D02*
X22866Y16182D01*
X22823Y16062D02*
X22823Y16216D01*
X22831Y16234D01*
X22849Y16242D01*
X22866Y16242D01*
X23665Y16062D02*
X23562Y16062D01*
X23614Y16062D02*
X23614Y16242D01*
X23597Y16216D01*
X23579Y16199D01*
X23562Y16191D01*
X23776Y16242D02*
X23793Y16242D01*
X23810Y16234D01*
X23819Y16225D01*
X23828Y16208D01*
X23836Y16174D01*
X23836Y16131D01*
X23828Y16096D01*
X23819Y16079D01*
X23810Y16071D01*
X23793Y16062D01*
X23776Y16062D01*
X23759Y16071D01*
X23750Y16079D01*
X23742Y16096D01*
X23733Y16131D01*
X23733Y16174D01*
X23742Y16208D01*
X23750Y16225D01*
X23759Y16234D01*
X23776Y16242D01*
X23990Y16182D02*
X23990Y16062D01*
X23913Y16182D02*
X23913Y16088D01*
X23921Y16071D01*
X23939Y16062D01*
X23964Y16062D01*
X23981Y16071D01*
X23990Y16079D01*
X24050Y16182D02*
X24119Y16182D01*
X24076Y16062D02*
X24076Y16216D01*
X24084Y16234D01*
X24102Y16242D01*
X24119Y16242D01*
X21780Y10769D02*
X21780Y10666D01*
X21780Y10718D02*
X21600Y10718D01*
X21626Y10701D01*
X21643Y10683D01*
X21651Y10666D01*
X21600Y10880D02*
X21600Y10897D01*
X21608Y10914D01*
X21617Y10923D01*
X21634Y10932D01*
X21668Y10940D01*
X21711Y10940D01*
X21746Y10932D01*
X21763Y10923D01*
X21771Y10914D01*
X21780Y10897D01*
X21780Y10880D01*
X21771Y10863D01*
X21763Y10854D01*
X21746Y10846D01*
X21711Y10837D01*
X21668Y10837D01*
X21634Y10846D01*
X21617Y10854D01*
X21608Y10863D01*
X21600Y10880D01*
X21660Y11094D02*
X21780Y11094D01*
X21660Y11017D02*
X21754Y11017D01*
X21771Y11025D01*
X21780Y11043D01*
X21780Y11068D01*
X21771Y11085D01*
X21763Y11094D01*
X21660Y11154D02*
X21660Y11223D01*
X21780Y11180D02*
X21626Y11180D01*
X21608Y11188D01*
X21600Y11206D01*
X21600Y11223D01*
X22462Y14255D02*
X22376Y14255D01*
X22376Y14435D01*
X22616Y14255D02*
X22513Y14255D01*
X22565Y14255D02*
X22565Y14435D01*
X22548Y14409D01*
X22530Y14392D01*
X22513Y14384D01*
X21758Y14170D02*
X21749Y14179D01*
X21741Y14196D01*
X21741Y14239D01*
X21749Y14256D01*
X21758Y14265D01*
X21775Y14273D01*
X21792Y14273D01*
X21818Y14265D01*
X21921Y14162D01*
X21921Y14273D01*
X21904Y14350D02*
X21912Y14358D01*
X21921Y14350D01*
X21912Y14341D01*
X21904Y14350D01*
X21921Y14350D01*
X21758Y14427D02*
X21749Y14436D01*
X21741Y14453D01*
X21741Y14496D01*
X21749Y14513D01*
X21758Y14522D01*
X21775Y14530D01*
X21792Y14530D01*
X21818Y14522D01*
X21921Y14419D01*
X21921Y14530D01*
X21801Y14684D02*
X21921Y14684D01*
X21801Y14607D02*
X21895Y14607D01*
X21912Y14615D01*
X21921Y14633D01*
X21921Y14658D01*
X21912Y14675D01*
X21904Y14684D01*
X21921Y14770D02*
X21741Y14770D01*
X21921Y14847D02*
X21827Y14847D01*
X21809Y14838D01*
X21801Y14821D01*
X21801Y14796D01*
X21809Y14778D01*
X21818Y14770D01*
X23755Y14248D02*
X23669Y14248D01*
X23669Y14428D01*
X23806Y14411D02*
X23815Y14420D01*
X23832Y14428D01*
X23875Y14428D01*
X23892Y14420D01*
X23901Y14411D01*
X23909Y14394D01*
X23909Y14377D01*
X23901Y14351D01*
X23798Y14248D01*
X23909Y14248D01*
X24278Y14240D02*
X24269Y14249D01*
X24261Y14266D01*
X24261Y14309D01*
X24269Y14326D01*
X24278Y14335D01*
X24295Y14343D01*
X24312Y14343D01*
X24338Y14335D01*
X24441Y14232D01*
X24441Y14343D01*
X24424Y14420D02*
X24432Y14428D01*
X24441Y14420D01*
X24432Y14411D01*
X24424Y14420D01*
X24441Y14420D01*
X24278Y14497D02*
X24269Y14506D01*
X24261Y14523D01*
X24261Y14566D01*
X24269Y14583D01*
X24278Y14592D01*
X24295Y14600D01*
X24312Y14600D01*
X24338Y14592D01*
X24441Y14489D01*
X24441Y14600D01*
X24321Y14754D02*
X24441Y14754D01*
X24321Y14677D02*
X24415Y14677D01*
X24432Y14685D01*
X24441Y14703D01*
X24441Y14728D01*
X24432Y14745D01*
X24424Y14754D01*
X24441Y14840D02*
X24261Y14840D01*
X24441Y14917D02*
X24347Y14917D01*
X24329Y14908D01*
X24321Y14891D01*
X24321Y14866D01*
X24329Y14848D01*
X24338Y14840D01*
G54D16*
X23715Y10474D02*
X23807Y10198D01*
X23899Y10474D01*
X23992Y10343D02*
X24084Y10343D01*
X24123Y10198D02*
X23992Y10198D01*
X23992Y10474D01*
X24123Y10474D01*
X24242Y10343D02*
X24334Y10343D01*
X24373Y10198D02*
X24242Y10198D01*
X24242Y10474D01*
X24373Y10474D01*
G54D11*
X24578Y17195D02*
X24406Y17195D01*
X24492Y17195D02*
X24492Y17495D01*
X24463Y17452D01*
X24435Y17423D01*
X24406Y17409D01*
X24921Y17509D02*
X24664Y17123D01*
X25178Y17195D02*
X25006Y17195D01*
X25092Y17195D02*
X25092Y17495D01*
X25063Y17452D01*
X25035Y17423D01*
X25006Y17409D01*
X25349Y17366D02*
X25321Y17380D01*
X25306Y17395D01*
X25292Y17423D01*
X25292Y17437D01*
X25306Y17466D01*
X25321Y17480D01*
X25349Y17495D01*
X25406Y17495D01*
X25435Y17480D01*
X25449Y17466D01*
X25464Y17437D01*
X25464Y17423D01*
X25449Y17395D01*
X25435Y17380D01*
X25406Y17366D01*
X25349Y17366D01*
X25321Y17352D01*
X25306Y17337D01*
X25292Y17309D01*
X25292Y17252D01*
X25306Y17223D01*
X25321Y17209D01*
X25349Y17195D01*
X25406Y17195D01*
X25435Y17209D01*
X25449Y17223D01*
X25464Y17252D01*
X25464Y17309D01*
X25449Y17337D01*
X25435Y17352D01*
X25406Y17366D01*
X25807Y17509D02*
X25550Y17123D01*
X25892Y17466D02*
X25906Y17480D01*
X25935Y17495D01*
X26006Y17495D01*
X26035Y17480D01*
X26049Y17466D01*
X26064Y17437D01*
X26064Y17409D01*
X26049Y17366D01*
X25878Y17195D01*
X26064Y17195D01*
X26250Y17495D02*
X26278Y17495D01*
X26307Y17480D01*
X26321Y17466D01*
X26335Y17437D01*
X26350Y17380D01*
X26350Y17309D01*
X26335Y17252D01*
X26321Y17223D01*
X26307Y17209D01*
X26278Y17195D01*
X26250Y17195D01*
X26221Y17209D01*
X26207Y17223D01*
X26192Y17252D01*
X26178Y17309D01*
X26178Y17380D01*
X26192Y17437D01*
X26207Y17466D01*
X26221Y17480D01*
X26250Y17495D01*
X26636Y17195D02*
X26464Y17195D01*
X26550Y17195D02*
X26550Y17495D01*
X26521Y17452D01*
X26493Y17423D01*
X26464Y17409D01*
X26922Y17195D02*
X26750Y17195D01*
X26836Y17195D02*
X26836Y17495D01*
X26807Y17452D01*
X26779Y17423D01*
X26750Y17409D01*
X27237Y17495D02*
X27408Y17495D01*
X27322Y17195D02*
X27322Y17495D01*
X27508Y17195D02*
X27508Y17395D01*
X27508Y17495D02*
X27494Y17480D01*
X27508Y17466D01*
X27523Y17480D01*
X27508Y17495D01*
X27508Y17466D01*
X27651Y17195D02*
X27651Y17395D01*
X27651Y17366D02*
X27666Y17380D01*
X27694Y17395D01*
X27737Y17395D01*
X27766Y17380D01*
X27780Y17352D01*
X27780Y17195D01*
X27780Y17352D02*
X27794Y17380D01*
X27823Y17395D01*
X27866Y17395D01*
X27894Y17380D01*
X27909Y17352D01*
X27909Y17195D01*
X28280Y17195D02*
X28280Y17495D01*
X28280Y17352D02*
X28452Y17352D01*
X28452Y17195D02*
X28452Y17495D01*
X28723Y17195D02*
X28723Y17352D01*
X28709Y17380D01*
X28680Y17395D01*
X28623Y17395D01*
X28594Y17380D01*
X28723Y17209D02*
X28694Y17195D01*
X28623Y17195D01*
X28594Y17209D01*
X28580Y17237D01*
X28580Y17266D01*
X28594Y17295D01*
X28623Y17309D01*
X28694Y17309D01*
X28723Y17323D01*
X28865Y17395D02*
X28865Y17195D01*
X28865Y17366D02*
X28880Y17380D01*
X28908Y17395D01*
X28951Y17395D01*
X28980Y17380D01*
X28994Y17352D01*
X28994Y17195D01*
X29122Y17209D02*
X29151Y17195D01*
X29208Y17195D01*
X29236Y17209D01*
X29251Y17237D01*
X29251Y17252D01*
X29236Y17280D01*
X29208Y17295D01*
X29165Y17295D01*
X29136Y17309D01*
X29122Y17337D01*
X29122Y17352D01*
X29136Y17380D01*
X29165Y17395D01*
X29208Y17395D01*
X29236Y17380D01*
X29422Y17195D02*
X29394Y17209D01*
X29379Y17223D01*
X29365Y17252D01*
X29365Y17337D01*
X29379Y17366D01*
X29394Y17380D01*
X29422Y17395D01*
X29465Y17395D01*
X29494Y17380D01*
X29508Y17366D01*
X29522Y17337D01*
X29522Y17252D01*
X29508Y17223D01*
X29494Y17209D01*
X29465Y17195D01*
X29422Y17195D01*
X29650Y17395D02*
X29650Y17195D01*
X29650Y17366D02*
X29665Y17380D01*
X29693Y17395D01*
X29736Y17395D01*
X29765Y17380D01*
X29779Y17352D01*
X29779Y17195D01*
X29936Y17209D02*
X29936Y17195D01*
X29921Y17166D01*
X29907Y17152D01*
X30293Y17195D02*
X30293Y17495D01*
X30365Y17495D01*
X30408Y17480D01*
X30436Y17452D01*
X30451Y17423D01*
X30465Y17366D01*
X30465Y17323D01*
X30451Y17266D01*
X30436Y17237D01*
X30408Y17209D01*
X30365Y17195D01*
X30293Y17195D01*
X30722Y17395D02*
X30722Y17195D01*
X30593Y17395D02*
X30593Y17237D01*
X30608Y17209D01*
X30636Y17195D01*
X30679Y17195D01*
X30708Y17209D01*
X30722Y17223D01*
X30864Y17195D02*
X30864Y17495D01*
X30893Y17309D02*
X30979Y17195D01*
X30979Y17395D02*
X30864Y17280D01*
X31222Y17209D02*
X31193Y17195D01*
X31136Y17195D01*
X31107Y17209D01*
X31093Y17237D01*
X31093Y17352D01*
X31107Y17380D01*
X31136Y17395D01*
X31193Y17395D01*
X31222Y17380D01*
X31236Y17352D01*
X31236Y17323D01*
X31093Y17295D01*
X31379Y17209D02*
X31379Y17195D01*
X31364Y17166D01*
X31350Y17152D01*
X31736Y17195D02*
X31736Y17495D01*
X31808Y17495D01*
X31851Y17480D01*
X31879Y17452D01*
X31894Y17423D01*
X31908Y17366D01*
X31908Y17323D01*
X31894Y17266D01*
X31879Y17237D01*
X31851Y17209D01*
X31808Y17195D01*
X31736Y17195D01*
X32165Y17395D02*
X32165Y17195D01*
X32036Y17395D02*
X32036Y17237D01*
X32051Y17209D01*
X32079Y17195D01*
X32122Y17195D01*
X32151Y17209D01*
X32165Y17223D01*
X32307Y17195D02*
X32307Y17395D01*
X32307Y17337D02*
X32322Y17366D01*
X32336Y17380D01*
X32365Y17395D01*
X32393Y17395D01*
X32493Y17195D02*
X32493Y17495D01*
X32622Y17195D02*
X32622Y17352D01*
X32608Y17380D01*
X32579Y17395D01*
X32536Y17395D01*
X32508Y17380D01*
X32493Y17366D01*
X32893Y17195D02*
X32893Y17352D01*
X32879Y17380D01*
X32850Y17395D01*
X32793Y17395D01*
X32764Y17380D01*
X32893Y17209D02*
X32864Y17195D01*
X32793Y17195D01*
X32764Y17209D01*
X32750Y17237D01*
X32750Y17266D01*
X32764Y17295D01*
X32793Y17309D01*
X32864Y17309D01*
X32893Y17323D01*
X33035Y17195D02*
X33035Y17395D01*
X33035Y17366D02*
X33050Y17380D01*
X33078Y17395D01*
X33121Y17395D01*
X33150Y17380D01*
X33164Y17352D01*
X33164Y17195D01*
X33164Y17352D02*
X33178Y17380D01*
X33207Y17395D01*
X33250Y17395D01*
X33278Y17380D01*
X33293Y17352D01*
X33293Y17195D01*
X33664Y17195D02*
X33664Y17495D01*
X33836Y17195D01*
X33836Y17495D01*
X34150Y17223D02*
X34136Y17209D01*
X34093Y17195D01*
X34064Y17195D01*
X34021Y17209D01*
X33993Y17237D01*
X33978Y17266D01*
X33964Y17323D01*
X33964Y17366D01*
X33978Y17423D01*
X33993Y17452D01*
X34021Y17480D01*
X34064Y17495D01*
X34093Y17495D01*
X34136Y17480D01*
X34150Y17466D01*
G54D15*
X23000Y23393D02*
X23000Y23496D01*
X23180Y23445D02*
X23000Y23445D01*
X23086Y23556D02*
X23086Y23616D01*
X23180Y23642D02*
X23180Y23556D01*
X23000Y23556D01*
X23000Y23642D01*
X23171Y23710D02*
X23180Y23736D01*
X23180Y23779D01*
X23171Y23796D01*
X23163Y23805D01*
X23146Y23813D01*
X23128Y23813D01*
X23111Y23805D01*
X23103Y23796D01*
X23094Y23779D01*
X23086Y23745D01*
X23077Y23727D01*
X23068Y23719D01*
X23051Y23710D01*
X23034Y23710D01*
X23017Y23719D01*
X23008Y23727D01*
X23000Y23745D01*
X23000Y23787D01*
X23008Y23813D01*
X23000Y23864D02*
X23000Y23967D01*
X23180Y23916D02*
X23000Y23916D01*
X23163Y24130D02*
X23171Y24121D01*
X23180Y24095D01*
X23180Y24078D01*
X23171Y24053D01*
X23154Y24035D01*
X23137Y24027D01*
X23103Y24018D01*
X23077Y24018D01*
X23043Y24027D01*
X23026Y24035D01*
X23008Y24053D01*
X23000Y24078D01*
X23000Y24095D01*
X23008Y24121D01*
X23017Y24130D01*
X23000Y24241D02*
X23000Y24275D01*
X23008Y24293D01*
X23026Y24310D01*
X23060Y24318D01*
X23120Y24318D01*
X23154Y24310D01*
X23171Y24293D01*
X23180Y24275D01*
X23180Y24241D01*
X23171Y24224D01*
X23154Y24207D01*
X23120Y24198D01*
X23060Y24198D01*
X23026Y24207D01*
X23008Y24224D01*
X23000Y24241D01*
X23180Y24396D02*
X23000Y24396D01*
X23180Y24499D01*
X23000Y24499D01*
G54D17*
X34550Y19118D02*
X34550Y18958D01*
X34559Y18940D01*
X34569Y18930D01*
X34587Y18921D01*
X34625Y18921D01*
X34644Y18930D01*
X34653Y18940D01*
X34662Y18958D01*
X34662Y19118D01*
X34737Y19118D02*
X34868Y19118D01*
X34784Y18921D01*
X33575Y21006D02*
X33668Y21006D01*
X33556Y20950D02*
X33621Y21147D01*
X33687Y20950D01*
X33753Y20950D02*
X33753Y21147D01*
X33800Y21147D01*
X33828Y21137D01*
X33847Y21119D01*
X33856Y21100D01*
X33865Y21062D01*
X33865Y21034D01*
X33856Y20997D01*
X33847Y20978D01*
X33828Y20959D01*
X33800Y20950D01*
X33753Y20950D01*
X33941Y20959D02*
X33969Y20950D01*
X34016Y20950D01*
X34034Y20959D01*
X34044Y20969D01*
X34053Y20987D01*
X34053Y21006D01*
X34044Y21025D01*
X34034Y21034D01*
X34016Y21044D01*
X33978Y21053D01*
X33959Y21062D01*
X33950Y21072D01*
X33941Y21090D01*
X33941Y21109D01*
X33950Y21128D01*
X33959Y21137D01*
X33978Y21147D01*
X34025Y21147D01*
X34053Y21137D01*
X34138Y20950D02*
X34138Y21147D01*
X34213Y21147D01*
X34232Y21137D01*
X34241Y21128D01*
X34250Y21109D01*
X34250Y21081D01*
X34241Y21062D01*
X34232Y21053D01*
X34213Y21044D01*
X34138Y21044D01*
X34288Y20931D02*
X34438Y20931D01*
X34541Y21147D02*
X34541Y21006D01*
X34532Y20978D01*
X34513Y20959D01*
X34485Y20950D01*
X34466Y20950D01*
X34607Y21147D02*
X34719Y21147D01*
X34663Y20950D02*
X34663Y21147D01*
X34776Y21006D02*
X34869Y21006D01*
X34757Y20950D02*
X34822Y21147D01*
X34888Y20950D01*
X35057Y21137D02*
X35038Y21147D01*
X35010Y21147D01*
X34982Y21137D01*
X34963Y21119D01*
X34954Y21100D01*
X34945Y21062D01*
X34945Y21034D01*
X34954Y20997D01*
X34963Y20978D01*
X34982Y20959D01*
X35010Y20950D01*
X35029Y20950D01*
X35057Y20959D01*
X35066Y20969D01*
X35066Y21034D01*
X35029Y21034D01*
X35104Y20931D02*
X35254Y20931D01*
X35413Y20969D02*
X35404Y20959D01*
X35376Y20950D01*
X35357Y20950D01*
X35329Y20959D01*
X35310Y20978D01*
X35301Y20997D01*
X35292Y21034D01*
X35292Y21062D01*
X35301Y21100D01*
X35310Y21119D01*
X35329Y21137D01*
X35357Y21147D01*
X35376Y21147D01*
X35404Y21137D01*
X35413Y21128D01*
X35535Y21147D02*
X35573Y21147D01*
X35592Y21137D01*
X35610Y21119D01*
X35620Y21081D01*
X35620Y21015D01*
X35610Y20978D01*
X35592Y20959D01*
X35573Y20950D01*
X35535Y20950D01*
X35517Y20959D01*
X35498Y20978D01*
X35489Y21015D01*
X35489Y21081D01*
X35498Y21119D01*
X35517Y21137D01*
X35535Y21147D01*
X35704Y20950D02*
X35704Y21147D01*
X35816Y20950D01*
X35816Y21147D01*
G54D15*
X24910Y10291D02*
X24910Y10145D01*
X24918Y10128D01*
X24927Y10120D01*
X24944Y10111D01*
X24978Y10111D01*
X24996Y10120D01*
X25004Y10128D01*
X25013Y10145D01*
X25013Y10291D01*
X25185Y10291D02*
X25099Y10291D01*
X25090Y10205D01*
X25099Y10214D01*
X25116Y10223D01*
X25159Y10223D01*
X25176Y10214D01*
X25185Y10205D01*
X25193Y10188D01*
X25193Y10145D01*
X25185Y10128D01*
X25176Y10120D01*
X25159Y10111D01*
X25116Y10111D01*
X25099Y10120D01*
X25090Y10128D01*
G54D17*
X35632Y12519D02*
X35632Y12357D01*
X35641Y12338D01*
X35651Y12329D01*
X35670Y12319D01*
X35708Y12319D01*
X35727Y12329D01*
X35736Y12338D01*
X35746Y12357D01*
X35746Y12519D01*
X35946Y12319D02*
X35832Y12319D01*
X35889Y12319D02*
X35889Y12519D01*
X35870Y12490D01*
X35851Y12471D01*
X35832Y12462D01*
X36022Y12500D02*
X36032Y12510D01*
X36051Y12519D01*
X36098Y12519D01*
X36117Y12510D01*
X36127Y12500D01*
X36136Y12481D01*
X36136Y12462D01*
X36127Y12433D01*
X36013Y12319D01*
X36136Y12319D01*
X35265Y10876D02*
X35360Y10876D01*
X35246Y10819D02*
X35313Y11019D01*
X35379Y10819D01*
X35446Y10819D02*
X35446Y11019D01*
X35560Y10819D01*
X35560Y11019D01*
X35627Y11019D02*
X35741Y11019D01*
X35684Y10819D02*
X35684Y11019D01*
X35808Y10924D02*
X35874Y10924D01*
X35903Y10819D02*
X35808Y10819D01*
X35808Y11019D01*
X35903Y11019D01*
X35989Y10819D02*
X35989Y11019D01*
X36103Y10819D01*
X36103Y11019D01*
X36199Y10819D02*
X36199Y11019D01*
X36313Y10819D01*
X36313Y11019D01*
X36399Y10876D02*
X36494Y10876D01*
X36380Y10819D02*
X36447Y11019D01*
X36513Y10819D01*
X27814Y16284D02*
X27814Y16122D01*
X27823Y16103D01*
X27833Y16094D01*
X27852Y16084D01*
X27890Y16084D01*
X27909Y16094D01*
X27918Y16103D01*
X27928Y16122D01*
X27928Y16284D01*
X28109Y16284D02*
X28071Y16284D01*
X28052Y16275D01*
X28043Y16265D01*
X28024Y16236D01*
X28014Y16198D01*
X28014Y16122D01*
X28024Y16103D01*
X28033Y16094D01*
X28052Y16084D01*
X28090Y16084D01*
X28109Y16094D01*
X28119Y16103D01*
X28128Y16122D01*
X28128Y16170D01*
X28119Y16189D01*
X28109Y16198D01*
X28090Y16208D01*
X28052Y16208D01*
X28033Y16198D01*
X28024Y16189D01*
X28014Y16170D01*
X27450Y10994D02*
X27478Y10985D01*
X27487Y10975D01*
X27496Y10956D01*
X27496Y10928D01*
X27487Y10910D01*
X27478Y10900D01*
X27459Y10891D01*
X27384Y10891D01*
X27384Y11088D01*
X27450Y11088D01*
X27468Y11078D01*
X27478Y11069D01*
X27487Y11050D01*
X27487Y11031D01*
X27478Y11013D01*
X27468Y11003D01*
X27450Y10994D01*
X27384Y10994D01*
X27647Y10994D02*
X27581Y10994D01*
X27581Y10891D02*
X27581Y11088D01*
X27675Y11088D01*
X27844Y11088D02*
X27750Y11088D01*
X27741Y10994D01*
X27750Y11003D01*
X27769Y11013D01*
X27816Y11013D01*
X27834Y11003D01*
X27844Y10994D01*
X27853Y10975D01*
X27853Y10928D01*
X27844Y10910D01*
X27834Y10900D01*
X27816Y10891D01*
X27769Y10891D01*
X27750Y10900D01*
X27741Y10910D01*
X27919Y11088D02*
X28041Y11088D01*
X27975Y11013D01*
X28004Y11013D01*
X28022Y11003D01*
X28032Y10994D01*
X28041Y10975D01*
X28041Y10928D01*
X28032Y10910D01*
X28022Y10900D01*
X28004Y10891D01*
X27947Y10891D01*
X27929Y10900D01*
X27919Y10910D01*
X28117Y11069D02*
X28126Y11078D01*
X28145Y11088D01*
X28192Y11088D01*
X28210Y11078D01*
X28220Y11069D01*
X28229Y11050D01*
X28229Y11031D01*
X28220Y11003D01*
X28107Y10891D01*
X28229Y10891D01*
X28314Y10966D02*
X28464Y10966D01*
X28661Y10891D02*
X28549Y10891D01*
X28605Y10891D02*
X28605Y11088D01*
X28586Y11060D01*
X28567Y11041D01*
X28549Y11031D01*
X28830Y11088D02*
X28793Y11088D01*
X28774Y11078D01*
X28765Y11069D01*
X28746Y11041D01*
X28737Y11003D01*
X28737Y10928D01*
X28746Y10910D01*
X28755Y10900D01*
X28774Y10891D01*
X28812Y10891D01*
X28830Y10900D01*
X28840Y10910D01*
X28849Y10928D01*
X28849Y10975D01*
X28840Y10994D01*
X28830Y11003D01*
X28812Y11013D01*
X28774Y11013D01*
X28755Y11003D01*
X28746Y10994D01*
X28737Y10975D01*
X28971Y11088D02*
X28990Y11088D01*
X29009Y11078D01*
X29018Y11069D01*
X29028Y11050D01*
X29037Y11013D01*
X29037Y10966D01*
X29028Y10928D01*
X29018Y10910D01*
X29009Y10900D01*
X28990Y10891D01*
X28971Y10891D01*
X28953Y10900D01*
X28943Y10910D01*
X28934Y10928D01*
X28925Y10966D01*
X28925Y11013D01*
X28934Y11050D01*
X28943Y11069D01*
X28953Y11078D01*
X28971Y11088D01*
G54D18*
X17968Y04875D02*
X18043Y04875D01*
X18080Y04893D01*
X18099Y04912D01*
X18136Y04968D01*
X18155Y05043D01*
X18155Y05193D01*
X18136Y05231D01*
X18118Y05250D01*
X18080Y05269D01*
X18005Y05269D01*
X17968Y05250D01*
X17949Y05231D01*
X17930Y05193D01*
X17930Y05100D01*
X17949Y05062D01*
X17968Y05043D01*
X18005Y05025D01*
X18080Y05025D01*
X18118Y05043D01*
X18136Y05062D01*
X18155Y05100D01*
X18286Y05269D02*
X18549Y04875D01*
X18549Y05269D02*
X18286Y04875D01*
X18905Y04875D02*
X18680Y04875D01*
X18793Y04875D02*
X18793Y05269D01*
X18755Y05212D01*
X18718Y05175D01*
X18680Y05156D01*
X19149Y05269D02*
X19186Y05269D01*
X19224Y05250D01*
X19243Y05231D01*
X19261Y05193D01*
X19280Y05118D01*
X19280Y05025D01*
X19261Y04950D01*
X19243Y04912D01*
X19224Y04893D01*
X19186Y04875D01*
X19149Y04875D01*
X19111Y04893D01*
X19093Y04912D01*
X19074Y04950D01*
X19055Y05025D01*
X19055Y05118D01*
X19074Y05193D01*
X19093Y05231D01*
X19111Y05250D01*
X19149Y05269D01*
X19524Y05269D02*
X19561Y05269D01*
X19599Y05250D01*
X19618Y05231D01*
X19636Y05193D01*
X19655Y05118D01*
X19655Y05025D01*
X19636Y04950D01*
X19618Y04912D01*
X19599Y04893D01*
X19561Y04875D01*
X19524Y04875D01*
X19486Y04893D01*
X19468Y04912D01*
X19449Y04950D01*
X19430Y05025D01*
X19430Y05118D01*
X19449Y05193D01*
X19468Y05231D01*
X19486Y05250D01*
X19524Y05269D01*
X22259Y08156D02*
X22334Y08156D01*
X22371Y08174D01*
X22390Y08193D01*
X22427Y08249D01*
X22446Y08324D01*
X22446Y08474D01*
X22427Y08512D01*
X22409Y08531D01*
X22371Y08550D01*
X22296Y08550D01*
X22259Y08531D01*
X22240Y08512D01*
X22221Y08474D01*
X22221Y08381D01*
X22240Y08343D01*
X22259Y08324D01*
X22296Y08306D01*
X22371Y08306D01*
X22409Y08324D01*
X22427Y08343D01*
X22446Y08381D01*
X22577Y08550D02*
X22840Y08156D01*
X22840Y08550D02*
X22577Y08156D01*
X23196Y08156D02*
X22971Y08156D01*
X23084Y08156D02*
X23084Y08550D01*
X23046Y08493D01*
X23009Y08456D01*
X22971Y08437D01*
X23440Y08550D02*
X23477Y08550D01*
X23515Y08531D01*
X23534Y08512D01*
X23552Y08474D01*
X23571Y08399D01*
X23571Y08306D01*
X23552Y08231D01*
X23534Y08193D01*
X23515Y08174D01*
X23477Y08156D01*
X23440Y08156D01*
X23402Y08174D01*
X23384Y08193D01*
X23365Y08231D01*
X23346Y08306D01*
X23346Y08399D01*
X23365Y08474D01*
X23384Y08512D01*
X23402Y08531D01*
X23440Y08550D01*
X23815Y08550D02*
X23852Y08550D01*
X23890Y08531D01*
X23909Y08512D01*
X23927Y08474D01*
X23946Y08399D01*
X23946Y08306D01*
X23927Y08231D01*
X23909Y08193D01*
X23890Y08174D01*
X23852Y08156D01*
X23815Y08156D01*
X23777Y08174D01*
X23759Y08193D01*
X23740Y08231D01*
X23721Y08306D01*
X23721Y08399D01*
X23740Y08474D01*
X23759Y08512D01*
X23777Y08531D01*
X23815Y08550D01*
X31968Y04875D02*
X32043Y04875D01*
X32080Y04893D01*
X32099Y04912D01*
X32136Y04968D01*
X32155Y05043D01*
X32155Y05193D01*
X32136Y05231D01*
X32118Y05250D01*
X32080Y05269D01*
X32005Y05269D01*
X31968Y05250D01*
X31949Y05231D01*
X31930Y05193D01*
X31930Y05100D01*
X31949Y05062D01*
X31968Y05043D01*
X32005Y05025D01*
X32080Y05025D01*
X32118Y05043D01*
X32136Y05062D01*
X32155Y05100D01*
X32286Y05269D02*
X32549Y04875D01*
X32549Y05269D02*
X32286Y04875D01*
X32905Y04875D02*
X32680Y04875D01*
X32793Y04875D02*
X32793Y05269D01*
X32755Y05212D01*
X32718Y05175D01*
X32680Y05156D01*
X33149Y05269D02*
X33186Y05269D01*
X33224Y05250D01*
X33243Y05231D01*
X33261Y05193D01*
X33280Y05118D01*
X33280Y05025D01*
X33261Y04950D01*
X33243Y04912D01*
X33224Y04893D01*
X33186Y04875D01*
X33149Y04875D01*
X33111Y04893D01*
X33093Y04912D01*
X33074Y04950D01*
X33055Y05025D01*
X33055Y05118D01*
X33074Y05193D01*
X33093Y05231D01*
X33111Y05250D01*
X33149Y05269D01*
X33524Y05269D02*
X33561Y05269D01*
X33599Y05250D01*
X33618Y05231D01*
X33636Y05193D01*
X33655Y05118D01*
X33655Y05025D01*
X33636Y04950D01*
X33618Y04912D01*
X33599Y04893D01*
X33561Y04875D01*
X33524Y04875D01*
X33486Y04893D01*
X33468Y04912D01*
X33449Y04950D01*
X33430Y05025D01*
X33430Y05118D01*
X33449Y05193D01*
X33468Y05231D01*
X33486Y05250D01*
X33524Y05269D01*
X28659Y08156D02*
X28734Y08156D01*
X28771Y08174D01*
X28790Y08193D01*
X28827Y08249D01*
X28846Y08324D01*
X28846Y08474D01*
X28827Y08512D01*
X28809Y08531D01*
X28771Y08550D01*
X28696Y08550D01*
X28659Y08531D01*
X28640Y08512D01*
X28621Y08474D01*
X28621Y08381D01*
X28640Y08343D01*
X28659Y08324D01*
X28696Y08306D01*
X28771Y08306D01*
X28809Y08324D01*
X28827Y08343D01*
X28846Y08381D01*
X28977Y08550D02*
X29240Y08156D01*
X29240Y08550D02*
X28977Y08156D01*
X29596Y08156D02*
X29371Y08156D01*
X29484Y08156D02*
X29484Y08550D01*
X29446Y08493D01*
X29409Y08456D01*
X29371Y08437D01*
X29840Y08550D02*
X29877Y08550D01*
X29915Y08531D01*
X29934Y08512D01*
X29952Y08474D01*
X29971Y08399D01*
X29971Y08306D01*
X29952Y08231D01*
X29934Y08193D01*
X29915Y08174D01*
X29877Y08156D01*
X29840Y08156D01*
X29802Y08174D01*
X29784Y08193D01*
X29765Y08231D01*
X29746Y08306D01*
X29746Y08399D01*
X29765Y08474D01*
X29784Y08512D01*
X29802Y08531D01*
X29840Y08550D01*
X30215Y08550D02*
X30252Y08550D01*
X30290Y08531D01*
X30309Y08512D01*
X30327Y08474D01*
X30346Y08399D01*
X30346Y08306D01*
X30327Y08231D01*
X30309Y08193D01*
X30290Y08174D01*
X30252Y08156D01*
X30215Y08156D01*
X30177Y08174D01*
X30159Y08193D01*
X30140Y08231D01*
X30121Y08306D01*
X30121Y08399D01*
X30140Y08474D01*
X30159Y08512D01*
X30177Y08531D01*
X30215Y08550D01*
X38968Y04875D02*
X39043Y04875D01*
X39080Y04893D01*
X39099Y04912D01*
X39136Y04968D01*
X39155Y05043D01*
X39155Y05193D01*
X39136Y05231D01*
X39118Y05250D01*
X39080Y05269D01*
X39005Y05269D01*
X38968Y05250D01*
X38949Y05231D01*
X38930Y05193D01*
X38930Y05100D01*
X38949Y05062D01*
X38968Y05043D01*
X39005Y05025D01*
X39080Y05025D01*
X39118Y05043D01*
X39136Y05062D01*
X39155Y05100D01*
X39286Y05269D02*
X39549Y04875D01*
X39549Y05269D02*
X39286Y04875D01*
X39905Y04875D02*
X39680Y04875D01*
X39793Y04875D02*
X39793Y05269D01*
X39755Y05212D01*
X39718Y05175D01*
X39680Y05156D01*
X40149Y05269D02*
X40186Y05269D01*
X40224Y05250D01*
X40243Y05231D01*
X40261Y05193D01*
X40280Y05118D01*
X40280Y05025D01*
X40261Y04950D01*
X40243Y04912D01*
X40224Y04893D01*
X40186Y04875D01*
X40149Y04875D01*
X40111Y04893D01*
X40093Y04912D01*
X40074Y04950D01*
X40055Y05025D01*
X40055Y05118D01*
X40074Y05193D01*
X40093Y05231D01*
X40111Y05250D01*
X40149Y05269D01*
X40524Y05269D02*
X40561Y05269D01*
X40599Y05250D01*
X40618Y05231D01*
X40636Y05193D01*
X40655Y05118D01*
X40655Y05025D01*
X40636Y04950D01*
X40618Y04912D01*
X40599Y04893D01*
X40561Y04875D01*
X40524Y04875D01*
X40486Y04893D01*
X40468Y04912D01*
X40449Y04950D01*
X40430Y05025D01*
X40430Y05118D01*
X40449Y05193D01*
X40468Y05231D01*
X40486Y05250D01*
X40524Y05269D01*
X31859Y08156D02*
X31934Y08156D01*
X31971Y08174D01*
X31990Y08193D01*
X32027Y08249D01*
X32046Y08324D01*
X32046Y08474D01*
X32027Y08512D01*
X32009Y08531D01*
X31971Y08550D01*
X31896Y08550D01*
X31859Y08531D01*
X31840Y08512D01*
X31821Y08474D01*
X31821Y08381D01*
X31840Y08343D01*
X31859Y08324D01*
X31896Y08306D01*
X31971Y08306D01*
X32009Y08324D01*
X32027Y08343D01*
X32046Y08381D01*
X32177Y08550D02*
X32440Y08156D01*
X32440Y08550D02*
X32177Y08156D01*
X32796Y08156D02*
X32571Y08156D01*
X32684Y08156D02*
X32684Y08550D01*
X32646Y08493D01*
X32609Y08456D01*
X32571Y08437D01*
X33040Y08550D02*
X33077Y08550D01*
X33115Y08531D01*
X33134Y08512D01*
X33152Y08474D01*
X33171Y08399D01*
X33171Y08306D01*
X33152Y08231D01*
X33134Y08193D01*
X33115Y08174D01*
X33077Y08156D01*
X33040Y08156D01*
X33002Y08174D01*
X32984Y08193D01*
X32965Y08231D01*
X32946Y08306D01*
X32946Y08399D01*
X32965Y08474D01*
X32984Y08512D01*
X33002Y08531D01*
X33040Y08550D01*
X33415Y08550D02*
X33452Y08550D01*
X33490Y08531D01*
X33509Y08512D01*
X33527Y08474D01*
X33546Y08399D01*
X33546Y08306D01*
X33527Y08231D01*
X33509Y08193D01*
X33490Y08174D01*
X33452Y08156D01*
X33415Y08156D01*
X33377Y08174D01*
X33359Y08193D01*
X33340Y08231D01*
X33321Y08306D01*
X33321Y08399D01*
X33340Y08474D01*
X33359Y08512D01*
X33377Y08531D01*
X33415Y08550D01*
X24968Y04875D02*
X25043Y04875D01*
X25080Y04893D01*
X25099Y04912D01*
X25136Y04968D01*
X25155Y05043D01*
X25155Y05193D01*
X25136Y05231D01*
X25118Y05250D01*
X25080Y05269D01*
X25005Y05269D01*
X24968Y05250D01*
X24949Y05231D01*
X24930Y05193D01*
X24930Y05100D01*
X24949Y05062D01*
X24968Y05043D01*
X25005Y05025D01*
X25080Y05025D01*
X25118Y05043D01*
X25136Y05062D01*
X25155Y05100D01*
X25286Y05269D02*
X25549Y04875D01*
X25549Y05269D02*
X25286Y04875D01*
X25905Y04875D02*
X25680Y04875D01*
X25793Y04875D02*
X25793Y05269D01*
X25755Y05212D01*
X25718Y05175D01*
X25680Y05156D01*
X26149Y05269D02*
X26186Y05269D01*
X26224Y05250D01*
X26243Y05231D01*
X26261Y05193D01*
X26280Y05118D01*
X26280Y05025D01*
X26261Y04950D01*
X26243Y04912D01*
X26224Y04893D01*
X26186Y04875D01*
X26149Y04875D01*
X26111Y04893D01*
X26093Y04912D01*
X26074Y04950D01*
X26055Y05025D01*
X26055Y05118D01*
X26074Y05193D01*
X26093Y05231D01*
X26111Y05250D01*
X26149Y05269D01*
X26524Y05269D02*
X26561Y05269D01*
X26599Y05250D01*
X26618Y05231D01*
X26636Y05193D01*
X26655Y05118D01*
X26655Y05025D01*
X26636Y04950D01*
X26618Y04912D01*
X26599Y04893D01*
X26561Y04875D01*
X26524Y04875D01*
X26486Y04893D01*
X26468Y04912D01*
X26449Y04950D01*
X26430Y05025D01*
X26430Y05118D01*
X26449Y05193D01*
X26468Y05231D01*
X26486Y05250D01*
X26524Y05269D01*
X25459Y08156D02*
X25534Y08156D01*
X25571Y08174D01*
X25590Y08193D01*
X25627Y08249D01*
X25646Y08324D01*
X25646Y08474D01*
X25627Y08512D01*
X25609Y08531D01*
X25571Y08550D01*
X25496Y08550D01*
X25459Y08531D01*
X25440Y08512D01*
X25421Y08474D01*
X25421Y08381D01*
X25440Y08343D01*
X25459Y08324D01*
X25496Y08306D01*
X25571Y08306D01*
X25609Y08324D01*
X25627Y08343D01*
X25646Y08381D01*
X25777Y08550D02*
X26040Y08156D01*
X26040Y08550D02*
X25777Y08156D01*
X26396Y08156D02*
X26171Y08156D01*
X26284Y08156D02*
X26284Y08550D01*
X26246Y08493D01*
X26209Y08456D01*
X26171Y08437D01*
X26640Y08550D02*
X26677Y08550D01*
X26715Y08531D01*
X26734Y08512D01*
X26752Y08474D01*
X26771Y08399D01*
X26771Y08306D01*
X26752Y08231D01*
X26734Y08193D01*
X26715Y08174D01*
X26677Y08156D01*
X26640Y08156D01*
X26602Y08174D01*
X26584Y08193D01*
X26565Y08231D01*
X26546Y08306D01*
X26546Y08399D01*
X26565Y08474D01*
X26584Y08512D01*
X26602Y08531D01*
X26640Y08550D01*
X27015Y08550D02*
X27052Y08550D01*
X27090Y08531D01*
X27109Y08512D01*
X27127Y08474D01*
X27146Y08399D01*
X27146Y08306D01*
X27127Y08231D01*
X27109Y08193D01*
X27090Y08174D01*
X27052Y08156D01*
X27015Y08156D01*
X26977Y08174D01*
X26959Y08193D01*
X26940Y08231D01*
X26921Y08306D01*
X26921Y08399D01*
X26940Y08474D01*
X26959Y08512D01*
X26977Y08531D01*
X27015Y08550D01*
X35354Y13674D02*
X35354Y13749D01*
X35336Y13786D01*
X35317Y13805D01*
X35261Y13842D01*
X35186Y13861D01*
X35036Y13861D01*
X34998Y13842D01*
X34979Y13824D01*
X34960Y13786D01*
X34960Y13711D01*
X34979Y13674D01*
X34998Y13655D01*
X35036Y13636D01*
X35129Y13636D01*
X35167Y13655D01*
X35186Y13674D01*
X35204Y13711D01*
X35204Y13786D01*
X35186Y13824D01*
X35167Y13842D01*
X35129Y13861D01*
X34960Y13992D02*
X35354Y14255D01*
X34960Y14255D02*
X35354Y13992D01*
X35354Y14611D02*
X35354Y14386D01*
X35354Y14499D02*
X34960Y14499D01*
X35017Y14461D01*
X35054Y14424D01*
X35073Y14386D01*
X34960Y14855D02*
X34960Y14892D01*
X34979Y14930D01*
X34998Y14949D01*
X35036Y14967D01*
X35111Y14986D01*
X35204Y14986D01*
X35279Y14967D01*
X35317Y14949D01*
X35336Y14930D01*
X35354Y14892D01*
X35354Y14855D01*
X35336Y14817D01*
X35317Y14799D01*
X35279Y14780D01*
X35204Y14761D01*
X35111Y14761D01*
X35036Y14780D01*
X34998Y14799D01*
X34979Y14817D01*
X34960Y14855D01*
X34960Y15230D02*
X34960Y15267D01*
X34979Y15305D01*
X34998Y15324D01*
X35036Y15342D01*
X35111Y15361D01*
X35204Y15361D01*
X35279Y15342D01*
X35317Y15324D01*
X35336Y15305D01*
X35354Y15267D01*
X35354Y15230D01*
X35336Y15192D01*
X35317Y15174D01*
X35279Y15155D01*
X35204Y15136D01*
X35111Y15136D01*
X35036Y15155D01*
X34998Y15174D01*
X34979Y15192D01*
X34960Y15230D01*
G54D15*
X23033Y12773D02*
X23033Y12627D01*
X23041Y12610D01*
X23050Y12602D01*
X23067Y12593D01*
X23101Y12593D01*
X23119Y12602D01*
X23127Y12610D01*
X23136Y12627D01*
X23136Y12773D01*
X23299Y12713D02*
X23299Y12593D01*
X23256Y12782D02*
X23213Y12653D01*
X23325Y12653D01*
X29422Y10565D02*
X29422Y10745D01*
X29525Y10565D01*
X29525Y10745D01*
X29714Y10565D02*
X29654Y10651D01*
X29611Y10565D02*
X29611Y10745D01*
X29679Y10745D01*
X29697Y10737D01*
X29705Y10728D01*
X29714Y10711D01*
X29714Y10685D01*
X29705Y10668D01*
X29697Y10659D01*
X29679Y10651D01*
X29611Y10651D01*
X29851Y10659D02*
X29791Y10659D01*
X29791Y10565D02*
X29791Y10745D01*
X29877Y10745D01*
X29936Y10728D02*
X29945Y10737D01*
X29962Y10745D01*
X30005Y10745D01*
X30022Y10737D01*
X30031Y10728D01*
X30039Y10711D01*
X30039Y10694D01*
X30031Y10668D01*
X29928Y10565D01*
X30039Y10565D01*
X30193Y10685D02*
X30193Y10565D01*
X30150Y10754D02*
X30107Y10625D01*
X30219Y10625D01*
X30373Y10565D02*
X30287Y10565D01*
X30287Y10745D01*
X30467Y10745D02*
X30484Y10745D01*
X30501Y10737D01*
X30510Y10728D01*
X30519Y10711D01*
X30527Y10677D01*
X30527Y10634D01*
X30519Y10599D01*
X30510Y10582D01*
X30501Y10574D01*
X30484Y10565D01*
X30467Y10565D01*
X30450Y10574D01*
X30441Y10582D01*
X30433Y10599D01*
X30424Y10634D01*
X30424Y10677D01*
X30433Y10711D01*
X30441Y10728D01*
X30450Y10737D01*
X30467Y10745D01*
X30698Y10565D02*
X30595Y10565D01*
X30647Y10565D02*
X30647Y10745D01*
X30630Y10719D01*
X30612Y10702D01*
X30595Y10694D01*
G54D11*
X19150Y-00786D02*
X19050Y-00644D01*
X18978Y-00786D02*
X18978Y-00486D01*
X19093Y-00486D01*
X19121Y-00501D01*
X19136Y-00515D01*
X19150Y-00544D01*
X19150Y-00586D01*
X19136Y-00615D01*
X19121Y-00629D01*
X19093Y-00644D01*
X18978Y-00644D01*
X19278Y-00786D02*
X19278Y-00486D01*
X19278Y-00629D02*
X19450Y-00629D01*
X19450Y-00786D02*
X19450Y-00486D01*
X19578Y-00701D02*
X19721Y-00701D01*
X19550Y-00786D02*
X19650Y-00486D01*
X19750Y-00786D01*
X19835Y-00515D02*
X19849Y-00501D01*
X19878Y-00486D01*
X19949Y-00486D01*
X19978Y-00501D01*
X19992Y-00515D01*
X20007Y-00544D01*
X20007Y-00572D01*
X19992Y-00615D01*
X19821Y-00786D01*
X20007Y-00786D01*
X20293Y-00786D02*
X20121Y-00786D01*
X20207Y-00786D02*
X20207Y-00486D01*
X20178Y-00529D01*
X20150Y-00558D01*
X20121Y-00572D01*
X20393Y-00486D02*
X20579Y-00486D01*
X20479Y-00601D01*
X20521Y-00601D01*
X20550Y-00615D01*
X20564Y-00629D01*
X20579Y-00658D01*
X20579Y-00729D01*
X20564Y-00758D01*
X20550Y-00772D01*
X20521Y-00786D01*
X20436Y-00786D01*
X20407Y-00772D01*
X20393Y-00758D01*
X20693Y-00515D02*
X20707Y-00501D01*
X20736Y-00486D01*
X20807Y-00486D01*
X20836Y-00501D01*
X20850Y-00515D01*
X20865Y-00544D01*
X20865Y-00572D01*
X20850Y-00615D01*
X20679Y-00786D01*
X20865Y-00786D01*
X33150Y-00786D02*
X33050Y-00644D01*
X32978Y-00786D02*
X32978Y-00486D01*
X33093Y-00486D01*
X33121Y-00501D01*
X33136Y-00515D01*
X33150Y-00544D01*
X33150Y-00586D01*
X33136Y-00615D01*
X33121Y-00629D01*
X33093Y-00644D01*
X32978Y-00644D01*
X33278Y-00786D02*
X33278Y-00486D01*
X33278Y-00629D02*
X33450Y-00629D01*
X33450Y-00786D02*
X33450Y-00486D01*
X33578Y-00701D02*
X33721Y-00701D01*
X33550Y-00786D02*
X33650Y-00486D01*
X33750Y-00786D01*
X33835Y-00515D02*
X33849Y-00501D01*
X33878Y-00486D01*
X33949Y-00486D01*
X33978Y-00501D01*
X33992Y-00515D01*
X34007Y-00544D01*
X34007Y-00572D01*
X33992Y-00615D01*
X33821Y-00786D01*
X34007Y-00786D01*
X34293Y-00786D02*
X34121Y-00786D01*
X34207Y-00786D02*
X34207Y-00486D01*
X34178Y-00529D01*
X34150Y-00558D01*
X34121Y-00572D01*
X34393Y-00486D02*
X34579Y-00486D01*
X34479Y-00601D01*
X34521Y-00601D01*
X34550Y-00615D01*
X34564Y-00629D01*
X34579Y-00658D01*
X34579Y-00729D01*
X34564Y-00758D01*
X34550Y-00772D01*
X34521Y-00786D01*
X34436Y-00786D01*
X34407Y-00772D01*
X34393Y-00758D01*
X34693Y-00515D02*
X34707Y-00501D01*
X34736Y-00486D01*
X34807Y-00486D01*
X34836Y-00501D01*
X34850Y-00515D01*
X34865Y-00544D01*
X34865Y-00572D01*
X34850Y-00615D01*
X34679Y-00786D01*
X34865Y-00786D01*
X40150Y-00786D02*
X40050Y-00644D01*
X39978Y-00786D02*
X39978Y-00486D01*
X40093Y-00486D01*
X40121Y-00501D01*
X40136Y-00515D01*
X40150Y-00544D01*
X40150Y-00586D01*
X40136Y-00615D01*
X40121Y-00629D01*
X40093Y-00644D01*
X39978Y-00644D01*
X40278Y-00786D02*
X40278Y-00486D01*
X40278Y-00629D02*
X40450Y-00629D01*
X40450Y-00786D02*
X40450Y-00486D01*
X40578Y-00701D02*
X40721Y-00701D01*
X40550Y-00786D02*
X40650Y-00486D01*
X40750Y-00786D01*
X40835Y-00515D02*
X40849Y-00501D01*
X40878Y-00486D01*
X40949Y-00486D01*
X40978Y-00501D01*
X40992Y-00515D01*
X41007Y-00544D01*
X41007Y-00572D01*
X40992Y-00615D01*
X40821Y-00786D01*
X41007Y-00786D01*
X41293Y-00786D02*
X41121Y-00786D01*
X41207Y-00786D02*
X41207Y-00486D01*
X41178Y-00529D01*
X41150Y-00558D01*
X41121Y-00572D01*
X41393Y-00486D02*
X41579Y-00486D01*
X41479Y-00601D01*
X41521Y-00601D01*
X41550Y-00615D01*
X41564Y-00629D01*
X41579Y-00658D01*
X41579Y-00729D01*
X41564Y-00758D01*
X41550Y-00772D01*
X41521Y-00786D01*
X41436Y-00786D01*
X41407Y-00772D01*
X41393Y-00758D01*
X41693Y-00515D02*
X41707Y-00501D01*
X41736Y-00486D01*
X41807Y-00486D01*
X41836Y-00501D01*
X41850Y-00515D01*
X41865Y-00544D01*
X41865Y-00572D01*
X41850Y-00615D01*
X41679Y-00786D01*
X41865Y-00786D01*
X26150Y-00786D02*
X26050Y-00644D01*
X25978Y-00786D02*
X25978Y-00486D01*
X26093Y-00486D01*
X26121Y-00501D01*
X26136Y-00515D01*
X26150Y-00544D01*
X26150Y-00586D01*
X26136Y-00615D01*
X26121Y-00629D01*
X26093Y-00644D01*
X25978Y-00644D01*
X26278Y-00786D02*
X26278Y-00486D01*
X26278Y-00629D02*
X26450Y-00629D01*
X26450Y-00786D02*
X26450Y-00486D01*
X26578Y-00701D02*
X26721Y-00701D01*
X26550Y-00786D02*
X26650Y-00486D01*
X26750Y-00786D01*
X26835Y-00515D02*
X26849Y-00501D01*
X26878Y-00486D01*
X26949Y-00486D01*
X26978Y-00501D01*
X26992Y-00515D01*
X27007Y-00544D01*
X27007Y-00572D01*
X26992Y-00615D01*
X26821Y-00786D01*
X27007Y-00786D01*
X27293Y-00786D02*
X27121Y-00786D01*
X27207Y-00786D02*
X27207Y-00486D01*
X27178Y-00529D01*
X27150Y-00558D01*
X27121Y-00572D01*
X27393Y-00486D02*
X27579Y-00486D01*
X27479Y-00601D01*
X27521Y-00601D01*
X27550Y-00615D01*
X27564Y-00629D01*
X27579Y-00658D01*
X27579Y-00729D01*
X27564Y-00758D01*
X27550Y-00772D01*
X27521Y-00786D01*
X27436Y-00786D01*
X27407Y-00772D01*
X27393Y-00758D01*
X27693Y-00515D02*
X27707Y-00501D01*
X27736Y-00486D01*
X27807Y-00486D01*
X27836Y-00501D01*
X27850Y-00515D01*
X27865Y-00544D01*
X27865Y-00572D01*
X27850Y-00615D01*
X27679Y-00786D01*
X27865Y-00786D01*
G54D15*
X29790Y13490D02*
X29790Y13344D01*
X29798Y13327D01*
X29807Y13319D01*
X29824Y13310D01*
X29858Y13310D01*
X29876Y13319D01*
X29884Y13327D01*
X29893Y13344D01*
X29893Y13490D01*
X30073Y13310D02*
X29970Y13310D01*
X30022Y13310D02*
X30022Y13490D01*
X30005Y13464D01*
X29987Y13447D01*
X29970Y13439D01*
X30244Y13310D02*
X30141Y13310D01*
X30193Y13310D02*
X30193Y13490D01*
X30176Y13464D01*
X30158Y13447D01*
X30141Y13439D01*
X17578Y02895D02*
X17578Y02749D01*
X17586Y02732D01*
X17595Y02724D01*
X17612Y02715D01*
X17646Y02715D01*
X17664Y02724D01*
X17672Y02732D01*
X17681Y02749D01*
X17681Y02895D01*
X17861Y02715D02*
X17758Y02715D01*
X17810Y02715D02*
X17810Y02895D01*
X17793Y02869D01*
X17775Y02852D01*
X17758Y02844D01*
X18015Y02895D02*
X17981Y02895D01*
X17964Y02887D01*
X17955Y02878D01*
X17938Y02852D01*
X17929Y02818D01*
X17929Y02749D01*
X17938Y02732D01*
X17946Y02724D01*
X17964Y02715D01*
X17998Y02715D01*
X18015Y02724D01*
X18024Y02732D01*
X18032Y02749D01*
X18032Y02792D01*
X18024Y02809D01*
X18015Y02818D01*
X17998Y02827D01*
X17964Y02827D01*
X17946Y02818D01*
X17938Y02809D01*
X17929Y02792D01*
X17419Y-00430D02*
X17419Y-00327D01*
X17599Y-00378D02*
X17419Y-00378D01*
X17582Y-00164D02*
X17590Y-00173D01*
X17599Y-00199D01*
X17599Y-00216D01*
X17590Y-00241D01*
X17573Y-00259D01*
X17556Y-00267D01*
X17522Y-00276D01*
X17496Y-00276D01*
X17462Y-00267D01*
X17445Y-00259D01*
X17427Y-00241D01*
X17419Y-00216D01*
X17419Y-00199D01*
X17427Y-00173D01*
X17436Y-00164D01*
X17599Y00007D02*
X17599Y-00096D01*
X17599Y-00044D02*
X17419Y-00044D01*
X17445Y-00061D01*
X17462Y-00079D01*
X17470Y-00096D01*
X17419Y00118D02*
X17419Y00135D01*
X17427Y00152D01*
X17436Y00161D01*
X17453Y00170D01*
X17487Y00178D01*
X17530Y00178D01*
X17565Y00170D01*
X17582Y00161D01*
X17590Y00152D01*
X17599Y00135D01*
X17599Y00118D01*
X17590Y00101D01*
X17582Y00092D01*
X17565Y00084D01*
X17530Y00075D01*
X17487Y00075D01*
X17453Y00084D01*
X17436Y00092D01*
X17427Y00101D01*
X17419Y00118D01*
X17599Y00349D02*
X17599Y00246D01*
X17599Y00298D02*
X17419Y00298D01*
X17445Y00281D01*
X17462Y00263D01*
X17470Y00246D01*
X17419Y00503D02*
X17419Y00469D01*
X17427Y00452D01*
X17436Y00443D01*
X17462Y00426D01*
X17496Y00417D01*
X17565Y00417D01*
X17582Y00426D01*
X17590Y00434D01*
X17599Y00452D01*
X17599Y00486D01*
X17590Y00503D01*
X17582Y00512D01*
X17565Y00520D01*
X17522Y00520D01*
X17505Y00512D01*
X17496Y00503D01*
X17487Y00486D01*
X17487Y00452D01*
X17496Y00434D01*
X17505Y00426D01*
X17522Y00417D01*
X17530Y00597D02*
X17530Y00734D01*
X17419Y00803D02*
X17419Y00914D01*
X17487Y00854D01*
X17487Y00880D01*
X17496Y00897D01*
X17505Y00906D01*
X17522Y00914D01*
X17565Y00914D01*
X17582Y00906D01*
X17590Y00897D01*
X17599Y00880D01*
X17599Y00828D01*
X17590Y00811D01*
X17582Y00803D01*
X17582Y00991D02*
X17590Y00999D01*
X17599Y00991D01*
X17590Y00982D01*
X17582Y00991D01*
X17599Y00991D01*
X17419Y01111D02*
X17419Y01128D01*
X17427Y01145D01*
X17436Y01154D01*
X17453Y01163D01*
X17487Y01171D01*
X17530Y01171D01*
X17565Y01163D01*
X17582Y01154D01*
X17590Y01145D01*
X17599Y01128D01*
X17599Y01111D01*
X17590Y01094D01*
X17582Y01085D01*
X17565Y01077D01*
X17530Y01068D01*
X17487Y01068D01*
X17453Y01077D01*
X17436Y01085D01*
X17427Y01094D01*
X17419Y01111D01*
X21476Y05035D02*
X21622Y05035D01*
X21639Y05043D01*
X21647Y05052D01*
X21656Y05069D01*
X21656Y05103D01*
X21647Y05121D01*
X21639Y05129D01*
X21622Y05138D01*
X21476Y05138D01*
X21656Y05318D02*
X21656Y05215D01*
X21656Y05267D02*
X21476Y05267D01*
X21502Y05250D01*
X21519Y05232D01*
X21527Y05215D01*
X21476Y05481D02*
X21476Y05395D01*
X21562Y05386D01*
X21553Y05395D01*
X21544Y05412D01*
X21544Y05455D01*
X21553Y05472D01*
X21562Y05481D01*
X21579Y05489D01*
X21622Y05489D01*
X21639Y05481D01*
X21647Y05472D01*
X21656Y05455D01*
X21656Y05412D01*
X21647Y05395D01*
X21639Y05386D01*
X20754Y05665D02*
X20754Y05845D01*
X20814Y05717D01*
X20874Y05845D01*
X20874Y05665D01*
X20960Y05665D02*
X20960Y05845D01*
X21149Y05682D02*
X21140Y05674D01*
X21114Y05665D01*
X21097Y05665D01*
X21072Y05674D01*
X21054Y05691D01*
X21046Y05708D01*
X21037Y05742D01*
X21037Y05768D01*
X21046Y05802D01*
X21054Y05819D01*
X21072Y05837D01*
X21097Y05845D01*
X21114Y05845D01*
X21140Y05837D01*
X21149Y05828D01*
X21312Y05845D02*
X21226Y05845D01*
X21217Y05759D01*
X21226Y05768D01*
X21243Y05777D01*
X21286Y05777D01*
X21303Y05768D01*
X21312Y05759D01*
X21320Y05742D01*
X21320Y05699D01*
X21312Y05682D01*
X21303Y05674D01*
X21286Y05665D01*
X21243Y05665D01*
X21226Y05674D01*
X21217Y05682D01*
X21380Y05845D02*
X21491Y05845D01*
X21431Y05777D01*
X21457Y05777D01*
X21474Y05768D01*
X21483Y05759D01*
X21491Y05742D01*
X21491Y05699D01*
X21483Y05682D01*
X21474Y05674D01*
X21457Y05665D01*
X21405Y05665D01*
X21388Y05674D01*
X21380Y05682D01*
X21645Y05845D02*
X21611Y05845D01*
X21594Y05837D01*
X21585Y05828D01*
X21568Y05802D01*
X21559Y05768D01*
X21559Y05699D01*
X21568Y05682D01*
X21576Y05674D01*
X21594Y05665D01*
X21628Y05665D01*
X21645Y05674D01*
X21654Y05682D01*
X21662Y05699D01*
X21662Y05742D01*
X21654Y05759D01*
X21645Y05768D01*
X21628Y05777D01*
X21594Y05777D01*
X21576Y05768D01*
X21568Y05759D01*
X21559Y05742D01*
X21825Y05845D02*
X21739Y05845D01*
X21730Y05759D01*
X21739Y05768D01*
X21756Y05777D01*
X21799Y05777D01*
X21816Y05768D01*
X21825Y05759D01*
X21833Y05742D01*
X21833Y05699D01*
X21825Y05682D01*
X21816Y05674D01*
X21799Y05665D01*
X21756Y05665D01*
X21739Y05674D01*
X21730Y05682D01*
X21910Y05734D02*
X22047Y05734D01*
X22124Y05828D02*
X22133Y05837D01*
X22150Y05845D01*
X22193Y05845D01*
X22210Y05837D01*
X22219Y05828D01*
X22227Y05811D01*
X22227Y05794D01*
X22219Y05768D01*
X22116Y05665D01*
X22227Y05665D01*
X22304Y05682D02*
X22312Y05674D01*
X22304Y05665D01*
X22295Y05674D01*
X22304Y05682D01*
X22304Y05665D01*
X22373Y05845D02*
X22493Y05845D01*
X22416Y05665D01*
X31578Y02895D02*
X31578Y02749D01*
X31586Y02732D01*
X31595Y02724D01*
X31612Y02715D01*
X31646Y02715D01*
X31664Y02724D01*
X31672Y02732D01*
X31681Y02749D01*
X31681Y02895D01*
X31758Y02878D02*
X31767Y02887D01*
X31784Y02895D01*
X31827Y02895D01*
X31844Y02887D01*
X31853Y02878D01*
X31861Y02861D01*
X31861Y02844D01*
X31853Y02818D01*
X31750Y02715D01*
X31861Y02715D01*
X31921Y02895D02*
X32032Y02895D01*
X31972Y02827D01*
X31998Y02827D01*
X32015Y02818D01*
X32024Y02809D01*
X32032Y02792D01*
X32032Y02749D01*
X32024Y02732D01*
X32015Y02724D01*
X31998Y02715D01*
X31946Y02715D01*
X31929Y02724D01*
X31921Y02732D01*
X31449Y-00440D02*
X31449Y-00337D01*
X31629Y-00388D02*
X31449Y-00388D01*
X31612Y-00174D02*
X31620Y-00183D01*
X31629Y-00209D01*
X31629Y-00226D01*
X31620Y-00251D01*
X31603Y-00269D01*
X31586Y-00277D01*
X31552Y-00286D01*
X31526Y-00286D01*
X31492Y-00277D01*
X31475Y-00269D01*
X31457Y-00251D01*
X31449Y-00226D01*
X31449Y-00209D01*
X31457Y-00183D01*
X31466Y-00174D01*
X31629Y-00003D02*
X31629Y-00106D01*
X31629Y-00054D02*
X31449Y-00054D01*
X31475Y-00071D01*
X31492Y-00089D01*
X31500Y-00106D01*
X31449Y00108D02*
X31449Y00125D01*
X31457Y00142D01*
X31466Y00151D01*
X31483Y00160D01*
X31517Y00168D01*
X31560Y00168D01*
X31595Y00160D01*
X31612Y00151D01*
X31620Y00142D01*
X31629Y00125D01*
X31629Y00108D01*
X31620Y00091D01*
X31612Y00082D01*
X31595Y00074D01*
X31560Y00065D01*
X31517Y00065D01*
X31483Y00074D01*
X31466Y00082D01*
X31457Y00091D01*
X31449Y00108D01*
X31629Y00339D02*
X31629Y00236D01*
X31629Y00288D02*
X31449Y00288D01*
X31475Y00271D01*
X31492Y00253D01*
X31500Y00236D01*
X31449Y00493D02*
X31449Y00459D01*
X31457Y00442D01*
X31466Y00433D01*
X31492Y00416D01*
X31526Y00407D01*
X31595Y00407D01*
X31612Y00416D01*
X31620Y00424D01*
X31629Y00442D01*
X31629Y00476D01*
X31620Y00493D01*
X31612Y00502D01*
X31595Y00510D01*
X31552Y00510D01*
X31535Y00502D01*
X31526Y00493D01*
X31517Y00476D01*
X31517Y00442D01*
X31526Y00424D01*
X31535Y00416D01*
X31552Y00407D01*
X31560Y00587D02*
X31560Y00724D01*
X31449Y00793D02*
X31449Y00904D01*
X31517Y00844D01*
X31517Y00870D01*
X31526Y00887D01*
X31535Y00896D01*
X31552Y00904D01*
X31595Y00904D01*
X31612Y00896D01*
X31620Y00887D01*
X31629Y00870D01*
X31629Y00818D01*
X31620Y00801D01*
X31612Y00793D01*
X31612Y00981D02*
X31620Y00989D01*
X31629Y00981D01*
X31620Y00972D01*
X31612Y00981D01*
X31629Y00981D01*
X31449Y01101D02*
X31449Y01118D01*
X31457Y01135D01*
X31466Y01144D01*
X31483Y01153D01*
X31517Y01161D01*
X31560Y01161D01*
X31595Y01153D01*
X31612Y01144D01*
X31620Y01135D01*
X31629Y01118D01*
X31629Y01101D01*
X31620Y01084D01*
X31612Y01075D01*
X31595Y01067D01*
X31560Y01058D01*
X31517Y01058D01*
X31483Y01067D01*
X31466Y01075D01*
X31457Y01084D01*
X31449Y01101D01*
X35476Y05035D02*
X35622Y05035D01*
X35639Y05043D01*
X35647Y05052D01*
X35656Y05069D01*
X35656Y05103D01*
X35647Y05121D01*
X35639Y05129D01*
X35622Y05138D01*
X35476Y05138D01*
X35493Y05215D02*
X35484Y05224D01*
X35476Y05241D01*
X35476Y05284D01*
X35484Y05301D01*
X35493Y05310D01*
X35510Y05318D01*
X35527Y05318D01*
X35553Y05310D01*
X35656Y05207D01*
X35656Y05318D01*
X35493Y05386D02*
X35484Y05395D01*
X35476Y05412D01*
X35476Y05455D01*
X35484Y05472D01*
X35493Y05481D01*
X35510Y05489D01*
X35527Y05489D01*
X35553Y05481D01*
X35656Y05378D01*
X35656Y05489D01*
X34754Y05665D02*
X34754Y05845D01*
X34814Y05717D01*
X34874Y05845D01*
X34874Y05665D01*
X34960Y05665D02*
X34960Y05845D01*
X35149Y05682D02*
X35140Y05674D01*
X35114Y05665D01*
X35097Y05665D01*
X35072Y05674D01*
X35054Y05691D01*
X35046Y05708D01*
X35037Y05742D01*
X35037Y05768D01*
X35046Y05802D01*
X35054Y05819D01*
X35072Y05837D01*
X35097Y05845D01*
X35114Y05845D01*
X35140Y05837D01*
X35149Y05828D01*
X35312Y05845D02*
X35226Y05845D01*
X35217Y05759D01*
X35226Y05768D01*
X35243Y05777D01*
X35286Y05777D01*
X35303Y05768D01*
X35312Y05759D01*
X35320Y05742D01*
X35320Y05699D01*
X35312Y05682D01*
X35303Y05674D01*
X35286Y05665D01*
X35243Y05665D01*
X35226Y05674D01*
X35217Y05682D01*
X35380Y05845D02*
X35491Y05845D01*
X35431Y05777D01*
X35457Y05777D01*
X35474Y05768D01*
X35483Y05759D01*
X35491Y05742D01*
X35491Y05699D01*
X35483Y05682D01*
X35474Y05674D01*
X35457Y05665D01*
X35405Y05665D01*
X35388Y05674D01*
X35380Y05682D01*
X35645Y05845D02*
X35611Y05845D01*
X35594Y05837D01*
X35585Y05828D01*
X35568Y05802D01*
X35559Y05768D01*
X35559Y05699D01*
X35568Y05682D01*
X35576Y05674D01*
X35594Y05665D01*
X35628Y05665D01*
X35645Y05674D01*
X35654Y05682D01*
X35662Y05699D01*
X35662Y05742D01*
X35654Y05759D01*
X35645Y05768D01*
X35628Y05777D01*
X35594Y05777D01*
X35576Y05768D01*
X35568Y05759D01*
X35559Y05742D01*
X35825Y05845D02*
X35739Y05845D01*
X35730Y05759D01*
X35739Y05768D01*
X35756Y05777D01*
X35799Y05777D01*
X35816Y05768D01*
X35825Y05759D01*
X35833Y05742D01*
X35833Y05699D01*
X35825Y05682D01*
X35816Y05674D01*
X35799Y05665D01*
X35756Y05665D01*
X35739Y05674D01*
X35730Y05682D01*
X35910Y05734D02*
X36047Y05734D01*
X36124Y05828D02*
X36133Y05837D01*
X36150Y05845D01*
X36193Y05845D01*
X36210Y05837D01*
X36219Y05828D01*
X36227Y05811D01*
X36227Y05794D01*
X36219Y05768D01*
X36116Y05665D01*
X36227Y05665D01*
X36304Y05682D02*
X36312Y05674D01*
X36304Y05665D01*
X36295Y05674D01*
X36304Y05682D01*
X36304Y05665D01*
X36373Y05845D02*
X36493Y05845D01*
X36416Y05665D01*
X38578Y02895D02*
X38578Y02749D01*
X38586Y02732D01*
X38595Y02724D01*
X38612Y02715D01*
X38646Y02715D01*
X38664Y02724D01*
X38672Y02732D01*
X38681Y02749D01*
X38681Y02895D01*
X38750Y02895D02*
X38861Y02895D01*
X38801Y02827D01*
X38827Y02827D01*
X38844Y02818D01*
X38853Y02809D01*
X38861Y02792D01*
X38861Y02749D01*
X38853Y02732D01*
X38844Y02724D01*
X38827Y02715D01*
X38775Y02715D01*
X38758Y02724D01*
X38750Y02732D01*
X38972Y02895D02*
X38989Y02895D01*
X39006Y02887D01*
X39015Y02878D01*
X39024Y02861D01*
X39032Y02827D01*
X39032Y02784D01*
X39024Y02749D01*
X39015Y02732D01*
X39006Y02724D01*
X38989Y02715D01*
X38972Y02715D01*
X38955Y02724D01*
X38946Y02732D01*
X38938Y02749D01*
X38929Y02784D01*
X38929Y02827D01*
X38938Y02861D01*
X38946Y02878D01*
X38955Y02887D01*
X38972Y02895D01*
X38469Y-00400D02*
X38469Y-00297D01*
X38649Y-00348D02*
X38469Y-00348D01*
X38632Y-00134D02*
X38640Y-00143D01*
X38649Y-00169D01*
X38649Y-00186D01*
X38640Y-00211D01*
X38623Y-00229D01*
X38606Y-00237D01*
X38572Y-00246D01*
X38546Y-00246D01*
X38512Y-00237D01*
X38495Y-00229D01*
X38477Y-00211D01*
X38469Y-00186D01*
X38469Y-00169D01*
X38477Y-00143D01*
X38486Y-00134D01*
X38649Y00037D02*
X38649Y-00066D01*
X38649Y-00014D02*
X38469Y-00014D01*
X38495Y-00031D01*
X38512Y-00049D01*
X38520Y-00066D01*
X38469Y00148D02*
X38469Y00165D01*
X38477Y00182D01*
X38486Y00191D01*
X38503Y00200D01*
X38537Y00208D01*
X38580Y00208D01*
X38615Y00200D01*
X38632Y00191D01*
X38640Y00182D01*
X38649Y00165D01*
X38649Y00148D01*
X38640Y00131D01*
X38632Y00122D01*
X38615Y00114D01*
X38580Y00105D01*
X38537Y00105D01*
X38503Y00114D01*
X38486Y00122D01*
X38477Y00131D01*
X38469Y00148D01*
X38649Y00379D02*
X38649Y00276D01*
X38649Y00328D02*
X38469Y00328D01*
X38495Y00311D01*
X38512Y00293D01*
X38520Y00276D01*
X38469Y00533D02*
X38469Y00499D01*
X38477Y00482D01*
X38486Y00473D01*
X38512Y00456D01*
X38546Y00447D01*
X38615Y00447D01*
X38632Y00456D01*
X38640Y00464D01*
X38649Y00482D01*
X38649Y00516D01*
X38640Y00533D01*
X38632Y00542D01*
X38615Y00550D01*
X38572Y00550D01*
X38555Y00542D01*
X38546Y00533D01*
X38537Y00516D01*
X38537Y00482D01*
X38546Y00464D01*
X38555Y00456D01*
X38572Y00447D01*
X38580Y00627D02*
X38580Y00764D01*
X38469Y00833D02*
X38469Y00944D01*
X38537Y00884D01*
X38537Y00910D01*
X38546Y00927D01*
X38555Y00936D01*
X38572Y00944D01*
X38615Y00944D01*
X38632Y00936D01*
X38640Y00927D01*
X38649Y00910D01*
X38649Y00858D01*
X38640Y00841D01*
X38632Y00833D01*
X38632Y01021D02*
X38640Y01029D01*
X38649Y01021D01*
X38640Y01012D01*
X38632Y01021D01*
X38649Y01021D01*
X38469Y01141D02*
X38469Y01158D01*
X38477Y01175D01*
X38486Y01184D01*
X38503Y01193D01*
X38537Y01201D01*
X38580Y01201D01*
X38615Y01193D01*
X38632Y01184D01*
X38640Y01175D01*
X38649Y01158D01*
X38649Y01141D01*
X38640Y01124D01*
X38632Y01115D01*
X38615Y01107D01*
X38580Y01098D01*
X38537Y01098D01*
X38503Y01107D01*
X38486Y01115D01*
X38477Y01124D01*
X38469Y01141D01*
X42476Y05035D02*
X42622Y05035D01*
X42639Y05043D01*
X42647Y05052D01*
X42656Y05069D01*
X42656Y05103D01*
X42647Y05121D01*
X42639Y05129D01*
X42622Y05138D01*
X42476Y05138D01*
X42493Y05215D02*
X42484Y05224D01*
X42476Y05241D01*
X42476Y05284D01*
X42484Y05301D01*
X42493Y05310D01*
X42510Y05318D01*
X42527Y05318D01*
X42553Y05310D01*
X42656Y05207D01*
X42656Y05318D01*
X42656Y05403D02*
X42656Y05438D01*
X42647Y05455D01*
X42639Y05463D01*
X42613Y05481D01*
X42579Y05489D01*
X42510Y05489D01*
X42493Y05481D01*
X42484Y05472D01*
X42476Y05455D01*
X42476Y05421D01*
X42484Y05403D01*
X42493Y05395D01*
X42510Y05386D01*
X42553Y05386D01*
X42570Y05395D01*
X42579Y05403D01*
X42587Y05421D01*
X42587Y05455D01*
X42579Y05472D01*
X42570Y05481D01*
X42553Y05489D01*
X41744Y05685D02*
X41744Y05865D01*
X41804Y05737D01*
X41864Y05865D01*
X41864Y05685D01*
X41950Y05685D02*
X41950Y05865D01*
X42139Y05702D02*
X42130Y05694D01*
X42104Y05685D01*
X42087Y05685D01*
X42062Y05694D01*
X42044Y05711D01*
X42036Y05728D01*
X42027Y05762D01*
X42027Y05788D01*
X42036Y05822D01*
X42044Y05839D01*
X42062Y05857D01*
X42087Y05865D01*
X42104Y05865D01*
X42130Y05857D01*
X42139Y05848D01*
X42302Y05865D02*
X42216Y05865D01*
X42207Y05779D01*
X42216Y05788D01*
X42233Y05797D01*
X42276Y05797D01*
X42293Y05788D01*
X42302Y05779D01*
X42310Y05762D01*
X42310Y05719D01*
X42302Y05702D01*
X42293Y05694D01*
X42276Y05685D01*
X42233Y05685D01*
X42216Y05694D01*
X42207Y05702D01*
X42370Y05865D02*
X42481Y05865D01*
X42421Y05797D01*
X42447Y05797D01*
X42464Y05788D01*
X42473Y05779D01*
X42481Y05762D01*
X42481Y05719D01*
X42473Y05702D01*
X42464Y05694D01*
X42447Y05685D01*
X42395Y05685D01*
X42378Y05694D01*
X42370Y05702D01*
X42635Y05865D02*
X42601Y05865D01*
X42584Y05857D01*
X42575Y05848D01*
X42558Y05822D01*
X42549Y05788D01*
X42549Y05719D01*
X42558Y05702D01*
X42566Y05694D01*
X42584Y05685D01*
X42618Y05685D01*
X42635Y05694D01*
X42644Y05702D01*
X42652Y05719D01*
X42652Y05762D01*
X42644Y05779D01*
X42635Y05788D01*
X42618Y05797D01*
X42584Y05797D01*
X42566Y05788D01*
X42558Y05779D01*
X42549Y05762D01*
X42815Y05865D02*
X42729Y05865D01*
X42720Y05779D01*
X42729Y05788D01*
X42746Y05797D01*
X42789Y05797D01*
X42806Y05788D01*
X42815Y05779D01*
X42823Y05762D01*
X42823Y05719D01*
X42815Y05702D01*
X42806Y05694D01*
X42789Y05685D01*
X42746Y05685D01*
X42729Y05694D01*
X42720Y05702D01*
X42900Y05754D02*
X43037Y05754D01*
X43114Y05848D02*
X43123Y05857D01*
X43140Y05865D01*
X43183Y05865D01*
X43200Y05857D01*
X43209Y05848D01*
X43217Y05831D01*
X43217Y05814D01*
X43209Y05788D01*
X43106Y05685D01*
X43217Y05685D01*
X43294Y05702D02*
X43302Y05694D01*
X43294Y05685D01*
X43285Y05694D01*
X43294Y05702D01*
X43294Y05685D01*
X43363Y05865D02*
X43483Y05865D01*
X43406Y05685D01*
X24578Y02895D02*
X24578Y02749D01*
X24586Y02732D01*
X24595Y02724D01*
X24612Y02715D01*
X24646Y02715D01*
X24664Y02724D01*
X24672Y02732D01*
X24681Y02749D01*
X24681Y02895D01*
X24750Y02895D02*
X24861Y02895D01*
X24801Y02827D01*
X24827Y02827D01*
X24844Y02818D01*
X24853Y02809D01*
X24861Y02792D01*
X24861Y02749D01*
X24853Y02732D01*
X24844Y02724D01*
X24827Y02715D01*
X24775Y02715D01*
X24758Y02724D01*
X24750Y02732D01*
X24921Y02895D02*
X25041Y02895D01*
X24964Y02715D01*
X24379Y-00410D02*
X24379Y-00307D01*
X24559Y-00358D02*
X24379Y-00358D01*
X24542Y-00144D02*
X24550Y-00153D01*
X24559Y-00179D01*
X24559Y-00196D01*
X24550Y-00221D01*
X24533Y-00239D01*
X24516Y-00247D01*
X24482Y-00256D01*
X24456Y-00256D01*
X24422Y-00247D01*
X24405Y-00239D01*
X24387Y-00221D01*
X24379Y-00196D01*
X24379Y-00179D01*
X24387Y-00153D01*
X24396Y-00144D01*
X24559Y00027D02*
X24559Y-00076D01*
X24559Y-00024D02*
X24379Y-00024D01*
X24405Y-00041D01*
X24422Y-00059D01*
X24430Y-00076D01*
X24379Y00138D02*
X24379Y00155D01*
X24387Y00172D01*
X24396Y00181D01*
X24413Y00190D01*
X24447Y00198D01*
X24490Y00198D01*
X24525Y00190D01*
X24542Y00181D01*
X24550Y00172D01*
X24559Y00155D01*
X24559Y00138D01*
X24550Y00121D01*
X24542Y00112D01*
X24525Y00104D01*
X24490Y00095D01*
X24447Y00095D01*
X24413Y00104D01*
X24396Y00112D01*
X24387Y00121D01*
X24379Y00138D01*
X24559Y00369D02*
X24559Y00266D01*
X24559Y00318D02*
X24379Y00318D01*
X24405Y00301D01*
X24422Y00283D01*
X24430Y00266D01*
X24379Y00523D02*
X24379Y00489D01*
X24387Y00472D01*
X24396Y00463D01*
X24422Y00446D01*
X24456Y00437D01*
X24525Y00437D01*
X24542Y00446D01*
X24550Y00454D01*
X24559Y00472D01*
X24559Y00506D01*
X24550Y00523D01*
X24542Y00532D01*
X24525Y00540D01*
X24482Y00540D01*
X24465Y00532D01*
X24456Y00523D01*
X24447Y00506D01*
X24447Y00472D01*
X24456Y00454D01*
X24465Y00446D01*
X24482Y00437D01*
X24490Y00617D02*
X24490Y00754D01*
X24379Y00823D02*
X24379Y00934D01*
X24447Y00874D01*
X24447Y00900D01*
X24456Y00917D01*
X24465Y00926D01*
X24482Y00934D01*
X24525Y00934D01*
X24542Y00926D01*
X24550Y00917D01*
X24559Y00900D01*
X24559Y00848D01*
X24550Y00831D01*
X24542Y00823D01*
X24542Y01011D02*
X24550Y01019D01*
X24559Y01011D01*
X24550Y01002D01*
X24542Y01011D01*
X24559Y01011D01*
X24379Y01131D02*
X24379Y01148D01*
X24387Y01165D01*
X24396Y01174D01*
X24413Y01183D01*
X24447Y01191D01*
X24490Y01191D01*
X24525Y01183D01*
X24542Y01174D01*
X24550Y01165D01*
X24559Y01148D01*
X24559Y01131D01*
X24550Y01114D01*
X24542Y01105D01*
X24525Y01097D01*
X24490Y01088D01*
X24447Y01088D01*
X24413Y01097D01*
X24396Y01105D01*
X24387Y01114D01*
X24379Y01131D01*
X28476Y05035D02*
X28622Y05035D01*
X28639Y05043D01*
X28647Y05052D01*
X28656Y05069D01*
X28656Y05103D01*
X28647Y05121D01*
X28639Y05129D01*
X28622Y05138D01*
X28476Y05138D01*
X28476Y05207D02*
X28476Y05318D01*
X28544Y05258D01*
X28544Y05284D01*
X28553Y05301D01*
X28562Y05310D01*
X28579Y05318D01*
X28622Y05318D01*
X28639Y05310D01*
X28647Y05301D01*
X28656Y05284D01*
X28656Y05232D01*
X28647Y05215D01*
X28639Y05207D01*
X28476Y05472D02*
X28476Y05438D01*
X28484Y05421D01*
X28493Y05412D01*
X28519Y05395D01*
X28553Y05386D01*
X28622Y05386D01*
X28639Y05395D01*
X28647Y05403D01*
X28656Y05421D01*
X28656Y05455D01*
X28647Y05472D01*
X28639Y05481D01*
X28622Y05489D01*
X28579Y05489D01*
X28562Y05481D01*
X28553Y05472D01*
X28544Y05455D01*
X28544Y05421D01*
X28553Y05403D01*
X28562Y05395D01*
X28579Y05386D01*
X27754Y05665D02*
X27754Y05845D01*
X27814Y05717D01*
X27874Y05845D01*
X27874Y05665D01*
X27960Y05665D02*
X27960Y05845D01*
X28149Y05682D02*
X28140Y05674D01*
X28114Y05665D01*
X28097Y05665D01*
X28072Y05674D01*
X28054Y05691D01*
X28046Y05708D01*
X28037Y05742D01*
X28037Y05768D01*
X28046Y05802D01*
X28054Y05819D01*
X28072Y05837D01*
X28097Y05845D01*
X28114Y05845D01*
X28140Y05837D01*
X28149Y05828D01*
X28312Y05845D02*
X28226Y05845D01*
X28217Y05759D01*
X28226Y05768D01*
X28243Y05777D01*
X28286Y05777D01*
X28303Y05768D01*
X28312Y05759D01*
X28320Y05742D01*
X28320Y05699D01*
X28312Y05682D01*
X28303Y05674D01*
X28286Y05665D01*
X28243Y05665D01*
X28226Y05674D01*
X28217Y05682D01*
X28380Y05845D02*
X28491Y05845D01*
X28431Y05777D01*
X28457Y05777D01*
X28474Y05768D01*
X28483Y05759D01*
X28491Y05742D01*
X28491Y05699D01*
X28483Y05682D01*
X28474Y05674D01*
X28457Y05665D01*
X28405Y05665D01*
X28388Y05674D01*
X28380Y05682D01*
X28645Y05845D02*
X28611Y05845D01*
X28594Y05837D01*
X28585Y05828D01*
X28568Y05802D01*
X28559Y05768D01*
X28559Y05699D01*
X28568Y05682D01*
X28576Y05674D01*
X28594Y05665D01*
X28628Y05665D01*
X28645Y05674D01*
X28654Y05682D01*
X28662Y05699D01*
X28662Y05742D01*
X28654Y05759D01*
X28645Y05768D01*
X28628Y05777D01*
X28594Y05777D01*
X28576Y05768D01*
X28568Y05759D01*
X28559Y05742D01*
X28825Y05845D02*
X28739Y05845D01*
X28730Y05759D01*
X28739Y05768D01*
X28756Y05777D01*
X28799Y05777D01*
X28816Y05768D01*
X28825Y05759D01*
X28833Y05742D01*
X28833Y05699D01*
X28825Y05682D01*
X28816Y05674D01*
X28799Y05665D01*
X28756Y05665D01*
X28739Y05674D01*
X28730Y05682D01*
X28910Y05734D02*
X29047Y05734D01*
X29124Y05828D02*
X29133Y05837D01*
X29150Y05845D01*
X29193Y05845D01*
X29210Y05837D01*
X29219Y05828D01*
X29227Y05811D01*
X29227Y05794D01*
X29219Y05768D01*
X29116Y05665D01*
X29227Y05665D01*
X29304Y05682D02*
X29312Y05674D01*
X29304Y05665D01*
X29295Y05674D01*
X29304Y05682D01*
X29304Y05665D01*
X29373Y05845D02*
X29493Y05845D01*
X29416Y05665D01*
X31308Y15084D02*
X31454Y15084D01*
X31471Y15092D01*
X31479Y15101D01*
X31488Y15118D01*
X31488Y15152D01*
X31479Y15170D01*
X31471Y15178D01*
X31454Y15187D01*
X31308Y15187D01*
X31488Y15281D02*
X31488Y15316D01*
X31479Y15333D01*
X31471Y15341D01*
X31445Y15359D01*
X31411Y15367D01*
X31342Y15367D01*
X31325Y15359D01*
X31316Y15350D01*
X31308Y15333D01*
X31308Y15299D01*
X31316Y15281D01*
X31325Y15273D01*
X31342Y15264D01*
X31385Y15264D01*
X31402Y15273D01*
X31411Y15281D01*
X31419Y15299D01*
X31419Y15333D01*
X31411Y15350D01*
X31402Y15359D01*
X31385Y15367D01*
X31834Y13894D02*
X31843Y13920D01*
X31843Y13963D01*
X31834Y13980D01*
X31826Y13989D01*
X31809Y13997D01*
X31791Y13997D01*
X31774Y13989D01*
X31766Y13980D01*
X31757Y13963D01*
X31749Y13929D01*
X31740Y13911D01*
X31731Y13903D01*
X31714Y13894D01*
X31697Y13894D01*
X31680Y13903D01*
X31671Y13911D01*
X31663Y13929D01*
X31663Y13971D01*
X31671Y13997D01*
X31834Y14065D02*
X31843Y14091D01*
X31843Y14134D01*
X31834Y14151D01*
X31826Y14160D01*
X31809Y14168D01*
X31791Y14168D01*
X31774Y14160D01*
X31766Y14151D01*
X31757Y14134D01*
X31749Y14100D01*
X31740Y14082D01*
X31731Y14074D01*
X31714Y14065D01*
X31697Y14065D01*
X31680Y14074D01*
X31671Y14082D01*
X31663Y14100D01*
X31663Y14142D01*
X31671Y14168D01*
X31663Y14219D02*
X31663Y14322D01*
X31843Y14271D02*
X31663Y14271D01*
X31680Y14373D02*
X31671Y14382D01*
X31663Y14399D01*
X31663Y14442D01*
X31671Y14459D01*
X31680Y14468D01*
X31697Y14476D01*
X31714Y14476D01*
X31740Y14468D01*
X31843Y14365D01*
X31843Y14476D01*
X31663Y14639D02*
X31663Y14553D01*
X31749Y14544D01*
X31740Y14553D01*
X31731Y14570D01*
X31731Y14613D01*
X31740Y14630D01*
X31749Y14639D01*
X31766Y14647D01*
X31809Y14647D01*
X31826Y14639D01*
X31834Y14630D01*
X31843Y14613D01*
X31843Y14570D01*
X31834Y14553D01*
X31826Y14544D01*
X31663Y14698D02*
X31843Y14758D01*
X31663Y14818D01*
X31749Y14938D02*
X31749Y14878D01*
X31843Y14878D02*
X31663Y14878D01*
X31663Y14964D01*
X31663Y15066D02*
X31663Y15083D01*
X31671Y15100D01*
X31680Y15109D01*
X31697Y15118D01*
X31731Y15126D01*
X31774Y15126D01*
X31809Y15118D01*
X31826Y15109D01*
X31834Y15100D01*
X31843Y15083D01*
X31843Y15066D01*
X31834Y15049D01*
X31826Y15040D01*
X31809Y15032D01*
X31774Y15023D01*
X31731Y15023D01*
X31697Y15032D01*
X31680Y15040D01*
X31671Y15049D01*
X31663Y15066D01*
X31723Y15280D02*
X31843Y15280D01*
X31654Y15237D02*
X31783Y15194D01*
X31783Y15306D01*
X31663Y15408D02*
X31663Y15425D01*
X31671Y15442D01*
X31680Y15451D01*
X31697Y15460D01*
X31731Y15468D01*
X31774Y15468D01*
X31809Y15460D01*
X31826Y15451D01*
X31834Y15442D01*
X31843Y15425D01*
X31843Y15408D01*
X31834Y15391D01*
X31826Y15382D01*
X31809Y15374D01*
X31774Y15365D01*
X31731Y15365D01*
X31697Y15374D01*
X31680Y15382D01*
X31671Y15391D01*
X31663Y15408D01*
X31749Y15605D02*
X31757Y15631D01*
X31766Y15639D01*
X31783Y15648D01*
X31809Y15648D01*
X31826Y15639D01*
X31834Y15631D01*
X31843Y15613D01*
X31843Y15545D01*
X31663Y15545D01*
X31663Y15605D01*
X31671Y15622D01*
X31680Y15631D01*
X31697Y15639D01*
X31714Y15639D01*
X31731Y15631D01*
X31740Y15622D01*
X31749Y15605D01*
X31749Y15545D01*
X21064Y04228D02*
X21064Y04066D01*
X21072Y04047D01*
X21081Y04038D01*
X21098Y04028D01*
X21132Y04028D01*
X21150Y04038D01*
X21158Y04047D01*
X21167Y04066D01*
X21167Y04228D01*
X21347Y04028D02*
X21244Y04028D01*
X21296Y04028D02*
X21296Y04228D01*
X21279Y04199D01*
X21261Y04180D01*
X21244Y04171D01*
X21432Y04028D02*
X21467Y04028D01*
X21484Y04038D01*
X21492Y04047D01*
X21510Y04076D01*
X21518Y04114D01*
X21518Y04190D01*
X21510Y04209D01*
X21501Y04219D01*
X21484Y04228D01*
X21450Y04228D01*
X21432Y04219D01*
X21424Y04209D01*
X21415Y04190D01*
X21415Y04142D01*
X21424Y04123D01*
X21432Y04114D01*
X21450Y04104D01*
X21484Y04104D01*
X21501Y04114D01*
X21510Y04123D01*
X21518Y04142D01*
X35064Y04228D02*
X35064Y04066D01*
X35072Y04047D01*
X35081Y04038D01*
X35098Y04028D01*
X35132Y04028D01*
X35150Y04038D01*
X35158Y04047D01*
X35167Y04066D01*
X35167Y04228D01*
X35244Y04209D02*
X35253Y04219D01*
X35270Y04228D01*
X35313Y04228D01*
X35330Y04219D01*
X35339Y04209D01*
X35347Y04190D01*
X35347Y04171D01*
X35339Y04142D01*
X35236Y04028D01*
X35347Y04028D01*
X35501Y04228D02*
X35467Y04228D01*
X35450Y04219D01*
X35441Y04209D01*
X35424Y04180D01*
X35415Y04142D01*
X35415Y04066D01*
X35424Y04047D01*
X35432Y04038D01*
X35450Y04028D01*
X35484Y04028D01*
X35501Y04038D01*
X35510Y04047D01*
X35518Y04066D01*
X35518Y04114D01*
X35510Y04133D01*
X35501Y04142D01*
X35484Y04152D01*
X35450Y04152D01*
X35432Y04142D01*
X35424Y04133D01*
X35415Y04114D01*
X42064Y04228D02*
X42064Y04066D01*
X42072Y04047D01*
X42081Y04038D01*
X42098Y04028D01*
X42132Y04028D01*
X42150Y04038D01*
X42158Y04047D01*
X42167Y04066D01*
X42167Y04228D01*
X42236Y04228D02*
X42347Y04228D01*
X42287Y04152D01*
X42313Y04152D01*
X42330Y04142D01*
X42339Y04133D01*
X42347Y04114D01*
X42347Y04066D01*
X42339Y04047D01*
X42330Y04038D01*
X42313Y04028D01*
X42261Y04028D01*
X42244Y04038D01*
X42236Y04047D01*
X42407Y04228D02*
X42518Y04228D01*
X42458Y04152D01*
X42484Y04152D01*
X42501Y04142D01*
X42510Y04133D01*
X42518Y04114D01*
X42518Y04066D01*
X42510Y04047D01*
X42501Y04038D01*
X42484Y04028D01*
X42432Y04028D01*
X42415Y04038D01*
X42407Y04047D01*
X28064Y04228D02*
X28064Y04066D01*
X28072Y04047D01*
X28081Y04038D01*
X28098Y04028D01*
X28132Y04028D01*
X28150Y04038D01*
X28158Y04047D01*
X28167Y04066D01*
X28167Y04228D01*
X28330Y04161D02*
X28330Y04028D01*
X28287Y04238D02*
X28244Y04095D01*
X28356Y04095D01*
X28458Y04228D02*
X28475Y04228D01*
X28492Y04219D01*
X28501Y04209D01*
X28510Y04190D01*
X28518Y04152D01*
X28518Y04104D01*
X28510Y04066D01*
X28501Y04047D01*
X28492Y04038D01*
X28475Y04028D01*
X28458Y04028D01*
X28441Y04038D01*
X28432Y04047D01*
X28424Y04066D01*
X28415Y04104D01*
X28415Y04152D01*
X28424Y04190D01*
X28432Y04209D01*
X28441Y04219D01*
X28458Y04228D01*
G54D19*
X25050Y21912D02*
X25050Y22047D01*
X25286Y21980D02*
X25050Y21980D01*
X25286Y22126D02*
X25050Y22126D01*
X25050Y22216D01*
X25061Y22239D01*
X25072Y22250D01*
X25094Y22261D01*
X25128Y22261D01*
X25151Y22250D01*
X25162Y22239D01*
X25173Y22216D01*
X25173Y22126D01*
X25286Y22486D02*
X25286Y22351D01*
X25286Y22418D02*
X25050Y22418D01*
X25083Y22396D01*
X25106Y22373D01*
X25117Y22351D01*
X25806Y21353D02*
X25570Y21353D01*
X25570Y21443D01*
X25581Y21466D01*
X25592Y21477D01*
X25614Y21488D01*
X25648Y21488D01*
X25671Y21477D01*
X25682Y21466D01*
X25693Y21443D01*
X25693Y21353D01*
X25682Y21668D02*
X25682Y21589D01*
X25806Y21589D02*
X25570Y21589D01*
X25570Y21702D01*
X25570Y21836D02*
X25570Y21859D01*
X25581Y21881D01*
X25592Y21892D01*
X25614Y21904D01*
X25659Y21915D01*
X25716Y21915D01*
X25761Y21904D01*
X25783Y21892D01*
X25794Y21881D01*
X25806Y21859D01*
X25806Y21836D01*
X25794Y21814D01*
X25783Y21802D01*
X25761Y21791D01*
X25716Y21780D01*
X25659Y21780D01*
X25614Y21791D01*
X25592Y21802D01*
X25581Y21814D01*
X25570Y21836D01*
X25828Y21960D02*
X25828Y22140D01*
X25648Y22196D02*
X25806Y22196D01*
X25671Y22196D02*
X25659Y22207D01*
X25648Y22230D01*
X25648Y22264D01*
X25659Y22286D01*
X25682Y22297D01*
X25806Y22297D01*
X25806Y22545D02*
X25693Y22466D01*
X25806Y22410D02*
X25570Y22410D01*
X25570Y22500D01*
X25581Y22523D01*
X25592Y22534D01*
X25614Y22545D01*
X25648Y22545D01*
X25671Y22534D01*
X25682Y22523D01*
X25693Y22500D01*
X25693Y22410D01*
X25682Y22725D02*
X25682Y22646D01*
X25806Y22646D02*
X25570Y22646D01*
X25570Y22759D01*
X25716Y22848D02*
X25716Y23028D01*
X25783Y23275D02*
X25794Y23264D01*
X25806Y23230D01*
X25806Y23208D01*
X25794Y23174D01*
X25772Y23151D01*
X25749Y23140D01*
X25704Y23129D01*
X25671Y23129D01*
X25626Y23140D01*
X25603Y23151D01*
X25581Y23174D01*
X25570Y23208D01*
X25570Y23230D01*
X25581Y23264D01*
X25592Y23275D01*
X25682Y23376D02*
X25682Y23455D01*
X25806Y23489D02*
X25806Y23376D01*
X25570Y23376D01*
X25570Y23489D01*
X26050Y21912D02*
X26050Y22047D01*
X26286Y21980D02*
X26050Y21980D01*
X26286Y22126D02*
X26050Y22126D01*
X26050Y22216D01*
X26061Y22239D01*
X26072Y22250D01*
X26094Y22261D01*
X26128Y22261D01*
X26151Y22250D01*
X26162Y22239D01*
X26173Y22216D01*
X26173Y22126D01*
X26072Y22351D02*
X26061Y22362D01*
X26050Y22385D01*
X26050Y22441D01*
X26061Y22463D01*
X26072Y22475D01*
X26094Y22486D01*
X26117Y22486D01*
X26151Y22475D01*
X26286Y22340D01*
X26286Y22486D01*
X26782Y21308D02*
X26546Y21308D01*
X26546Y21398D01*
X26557Y21421D01*
X26568Y21432D01*
X26590Y21443D01*
X26624Y21443D01*
X26647Y21432D01*
X26658Y21421D01*
X26669Y21398D01*
X26669Y21308D01*
X26658Y21623D02*
X26658Y21544D01*
X26782Y21544D02*
X26546Y21544D01*
X26546Y21657D01*
X26782Y21870D02*
X26782Y21735D01*
X26782Y21802D02*
X26546Y21802D01*
X26579Y21780D01*
X26602Y21757D01*
X26613Y21735D01*
X26804Y21915D02*
X26804Y22095D01*
X26624Y22151D02*
X26782Y22151D01*
X26647Y22151D02*
X26635Y22162D01*
X26624Y22185D01*
X26624Y22219D01*
X26635Y22241D01*
X26658Y22252D01*
X26782Y22252D01*
X26782Y22500D02*
X26669Y22421D01*
X26782Y22365D02*
X26546Y22365D01*
X26546Y22455D01*
X26557Y22478D01*
X26568Y22489D01*
X26590Y22500D01*
X26624Y22500D01*
X26647Y22489D01*
X26658Y22478D01*
X26669Y22455D01*
X26669Y22365D01*
X26658Y22680D02*
X26658Y22601D01*
X26782Y22601D02*
X26546Y22601D01*
X26546Y22714D01*
X26692Y22803D02*
X26692Y22983D01*
X26759Y23230D02*
X26770Y23219D01*
X26782Y23185D01*
X26782Y23163D01*
X26770Y23129D01*
X26748Y23106D01*
X26725Y23095D01*
X26680Y23084D01*
X26647Y23084D01*
X26602Y23095D01*
X26579Y23106D01*
X26557Y23129D01*
X26546Y23163D01*
X26546Y23185D01*
X26557Y23219D01*
X26568Y23230D01*
X26770Y23320D02*
X26782Y23354D01*
X26782Y23410D01*
X26770Y23432D01*
X26759Y23444D01*
X26737Y23455D01*
X26714Y23455D01*
X26692Y23444D01*
X26680Y23432D01*
X26669Y23410D01*
X26658Y23365D01*
X26647Y23342D01*
X26635Y23331D01*
X26613Y23320D01*
X26590Y23320D01*
X26568Y23331D01*
X26557Y23342D01*
X26546Y23365D01*
X26546Y23421D01*
X26557Y23455D01*
X26782Y23556D02*
X26546Y23556D01*
X26782Y23691D01*
X26546Y23691D01*
X27050Y21912D02*
X27050Y22047D01*
X27286Y21980D02*
X27050Y21980D01*
X27286Y22126D02*
X27050Y22126D01*
X27050Y22216D01*
X27061Y22239D01*
X27072Y22250D01*
X27094Y22261D01*
X27128Y22261D01*
X27151Y22250D01*
X27162Y22239D01*
X27173Y22216D01*
X27173Y22126D01*
X27050Y22340D02*
X27050Y22486D01*
X27139Y22407D01*
X27139Y22441D01*
X27151Y22463D01*
X27162Y22475D01*
X27184Y22486D01*
X27241Y22486D01*
X27263Y22475D01*
X27274Y22463D01*
X27286Y22441D01*
X27286Y22373D01*
X27274Y22351D01*
X27263Y22340D01*
X27770Y21364D02*
X27534Y21364D01*
X27534Y21454D01*
X27545Y21477D01*
X27556Y21488D01*
X27578Y21499D01*
X27612Y21499D01*
X27635Y21488D01*
X27646Y21477D01*
X27657Y21454D01*
X27657Y21364D01*
X27646Y21679D02*
X27646Y21600D01*
X27770Y21600D02*
X27534Y21600D01*
X27534Y21713D01*
X27534Y21780D02*
X27534Y21926D01*
X27623Y21847D01*
X27623Y21881D01*
X27635Y21903D01*
X27646Y21915D01*
X27668Y21926D01*
X27725Y21926D01*
X27747Y21915D01*
X27758Y21903D01*
X27770Y21881D01*
X27770Y21813D01*
X27758Y21791D01*
X27747Y21780D01*
X27792Y21971D02*
X27792Y22151D01*
X27612Y22207D02*
X27770Y22207D01*
X27635Y22207D02*
X27623Y22218D01*
X27612Y22241D01*
X27612Y22275D01*
X27623Y22297D01*
X27646Y22308D01*
X27770Y22308D01*
X27770Y22556D02*
X27657Y22477D01*
X27770Y22421D02*
X27534Y22421D01*
X27534Y22511D01*
X27545Y22534D01*
X27556Y22545D01*
X27578Y22556D01*
X27612Y22556D01*
X27635Y22545D01*
X27646Y22534D01*
X27657Y22511D01*
X27657Y22421D01*
X27646Y22736D02*
X27646Y22657D01*
X27770Y22657D02*
X27534Y22657D01*
X27534Y22770D01*
X27680Y22859D02*
X27680Y23039D01*
X27770Y23151D02*
X27534Y23151D01*
X27770Y23398D02*
X27657Y23319D01*
X27770Y23263D02*
X27534Y23263D01*
X27534Y23353D01*
X27545Y23376D01*
X27556Y23387D01*
X27578Y23398D01*
X27612Y23398D01*
X27635Y23387D01*
X27646Y23376D01*
X27657Y23353D01*
X27657Y23263D01*
X27792Y23657D02*
X27781Y23634D01*
X27758Y23612D01*
X27725Y23578D01*
X27713Y23555D01*
X27713Y23533D01*
X27770Y23544D02*
X27758Y23522D01*
X27736Y23499D01*
X27691Y23488D01*
X27612Y23488D01*
X27567Y23499D01*
X27545Y23522D01*
X27534Y23544D01*
X27534Y23589D01*
X27545Y23612D01*
X27567Y23634D01*
X27612Y23645D01*
X27691Y23645D01*
X27736Y23634D01*
X27758Y23612D01*
X27770Y23589D01*
X27770Y23544D01*
X28050Y21912D02*
X28050Y22047D01*
X28286Y21980D02*
X28050Y21980D01*
X28286Y22126D02*
X28050Y22126D01*
X28050Y22216D01*
X28061Y22239D01*
X28072Y22250D01*
X28094Y22261D01*
X28128Y22261D01*
X28151Y22250D01*
X28162Y22239D01*
X28173Y22216D01*
X28173Y22126D01*
X28128Y22463D02*
X28286Y22463D01*
X28038Y22407D02*
X28207Y22351D01*
X28207Y22497D01*
X28782Y21477D02*
X28546Y21477D01*
X28546Y21567D01*
X28557Y21590D01*
X28568Y21601D01*
X28590Y21612D01*
X28624Y21612D01*
X28647Y21601D01*
X28658Y21590D01*
X28669Y21567D01*
X28669Y21477D01*
X28658Y21792D02*
X28658Y21713D01*
X28782Y21713D02*
X28546Y21713D01*
X28546Y21826D01*
X28624Y22016D02*
X28782Y22016D01*
X28534Y21960D02*
X28703Y21904D01*
X28703Y22050D01*
X32050Y21912D02*
X32050Y22047D01*
X32286Y21980D02*
X32050Y21980D01*
X32286Y22126D02*
X32050Y22126D01*
X32050Y22216D01*
X32061Y22239D01*
X32072Y22250D01*
X32094Y22261D01*
X32128Y22261D01*
X32151Y22250D01*
X32162Y22239D01*
X32173Y22216D01*
X32173Y22126D01*
X32151Y22396D02*
X32139Y22373D01*
X32128Y22362D01*
X32106Y22351D01*
X32094Y22351D01*
X32072Y22362D01*
X32061Y22373D01*
X32050Y22396D01*
X32050Y22441D01*
X32061Y22463D01*
X32072Y22475D01*
X32094Y22486D01*
X32106Y22486D01*
X32128Y22475D01*
X32139Y22463D01*
X32151Y22441D01*
X32151Y22396D01*
X32162Y22373D01*
X32173Y22362D01*
X32196Y22351D01*
X32241Y22351D01*
X32263Y22362D01*
X32274Y22373D01*
X32286Y22396D01*
X32286Y22441D01*
X32274Y22463D01*
X32263Y22475D01*
X32241Y22486D01*
X32196Y22486D01*
X32173Y22475D01*
X32162Y22463D01*
X32151Y22441D01*
X32770Y21325D02*
X32534Y21325D01*
X32534Y21381D01*
X32545Y21415D01*
X32567Y21438D01*
X32590Y21449D01*
X32635Y21460D01*
X32668Y21460D01*
X32713Y21449D01*
X32736Y21438D01*
X32758Y21415D01*
X32770Y21381D01*
X32770Y21325D01*
X32770Y21696D02*
X32657Y21617D01*
X32770Y21561D02*
X32534Y21561D01*
X32534Y21651D01*
X32545Y21674D01*
X32556Y21685D01*
X32578Y21696D01*
X32612Y21696D01*
X32635Y21685D01*
X32646Y21674D01*
X32657Y21651D01*
X32657Y21561D01*
X32534Y21842D02*
X32534Y21865D01*
X32545Y21887D01*
X32556Y21898D01*
X32578Y21910D01*
X32623Y21921D01*
X32680Y21921D01*
X32725Y21910D01*
X32747Y21898D01*
X32758Y21887D01*
X32770Y21865D01*
X32770Y21842D01*
X32758Y21820D01*
X32747Y21808D01*
X32725Y21797D01*
X32680Y21786D01*
X32623Y21786D01*
X32578Y21797D01*
X32556Y21808D01*
X32545Y21820D01*
X32534Y21842D01*
X32770Y22022D02*
X32534Y22022D01*
X32534Y22112D01*
X32545Y22135D01*
X32556Y22146D01*
X32578Y22157D01*
X32612Y22157D01*
X32635Y22146D01*
X32646Y22135D01*
X32657Y22112D01*
X32657Y22022D01*
X32770Y22393D02*
X32657Y22314D01*
X32770Y22258D02*
X32534Y22258D01*
X32534Y22348D01*
X32545Y22371D01*
X32556Y22382D01*
X32578Y22393D01*
X32612Y22393D01*
X32635Y22382D01*
X32646Y22371D01*
X32657Y22348D01*
X32657Y22258D01*
X32770Y22494D02*
X32534Y22494D01*
X31050Y21912D02*
X31050Y22047D01*
X31286Y21980D02*
X31050Y21980D01*
X31286Y22126D02*
X31050Y22126D01*
X31050Y22216D01*
X31061Y22239D01*
X31072Y22250D01*
X31094Y22261D01*
X31128Y22261D01*
X31151Y22250D01*
X31162Y22239D01*
X31173Y22216D01*
X31173Y22126D01*
X31050Y22340D02*
X31050Y22497D01*
X31286Y22396D01*
X31758Y21523D02*
X31645Y21444D01*
X31758Y21388D02*
X31522Y21388D01*
X31522Y21478D01*
X31533Y21501D01*
X31544Y21512D01*
X31566Y21523D01*
X31600Y21523D01*
X31623Y21512D01*
X31634Y21501D01*
X31645Y21478D01*
X31645Y21388D01*
X31634Y21703D02*
X31634Y21624D01*
X31758Y21624D02*
X31522Y21624D01*
X31522Y21737D01*
X31746Y21815D02*
X31758Y21849D01*
X31758Y21905D01*
X31746Y21927D01*
X31735Y21939D01*
X31713Y21950D01*
X31690Y21950D01*
X31668Y21939D01*
X31656Y21927D01*
X31645Y21905D01*
X31634Y21860D01*
X31623Y21837D01*
X31611Y21826D01*
X31589Y21815D01*
X31566Y21815D01*
X31544Y21826D01*
X31533Y21837D01*
X31522Y21860D01*
X31522Y21916D01*
X31533Y21950D01*
X31522Y22096D02*
X31522Y22119D01*
X31533Y22141D01*
X31544Y22152D01*
X31566Y22164D01*
X31611Y22175D01*
X31668Y22175D01*
X31713Y22164D01*
X31735Y22152D01*
X31746Y22141D01*
X31758Y22119D01*
X31758Y22096D01*
X31746Y22074D01*
X31735Y22062D01*
X31713Y22051D01*
X31668Y22040D01*
X31611Y22040D01*
X31566Y22051D01*
X31544Y22062D01*
X31533Y22074D01*
X31522Y22096D01*
X30050Y21912D02*
X30050Y22047D01*
X30286Y21980D02*
X30050Y21980D01*
X30286Y22126D02*
X30050Y22126D01*
X30050Y22216D01*
X30061Y22239D01*
X30072Y22250D01*
X30094Y22261D01*
X30128Y22261D01*
X30151Y22250D01*
X30162Y22239D01*
X30173Y22216D01*
X30173Y22126D01*
X30050Y22463D02*
X30050Y22418D01*
X30061Y22396D01*
X30072Y22385D01*
X30106Y22362D01*
X30151Y22351D01*
X30241Y22351D01*
X30263Y22362D01*
X30274Y22373D01*
X30286Y22396D01*
X30286Y22441D01*
X30274Y22463D01*
X30263Y22475D01*
X30241Y22486D01*
X30184Y22486D01*
X30162Y22475D01*
X30151Y22463D01*
X30139Y22441D01*
X30139Y22396D01*
X30151Y22373D01*
X30162Y22362D01*
X30184Y22351D01*
X30758Y21390D02*
X30645Y21311D01*
X30758Y21255D02*
X30522Y21255D01*
X30522Y21345D01*
X30533Y21368D01*
X30544Y21379D01*
X30566Y21390D01*
X30600Y21390D01*
X30623Y21379D01*
X30634Y21368D01*
X30645Y21345D01*
X30645Y21255D01*
X30746Y21480D02*
X30758Y21514D01*
X30758Y21570D01*
X30746Y21592D01*
X30735Y21604D01*
X30713Y21615D01*
X30690Y21615D01*
X30668Y21604D01*
X30656Y21592D01*
X30645Y21570D01*
X30634Y21525D01*
X30623Y21502D01*
X30611Y21491D01*
X30589Y21480D01*
X30566Y21480D01*
X30544Y21491D01*
X30533Y21502D01*
X30522Y21525D01*
X30522Y21581D01*
X30533Y21615D01*
X30735Y21851D02*
X30746Y21840D01*
X30758Y21806D01*
X30758Y21784D01*
X30746Y21750D01*
X30724Y21727D01*
X30701Y21716D01*
X30656Y21705D01*
X30623Y21705D01*
X30578Y21716D01*
X30555Y21727D01*
X30533Y21750D01*
X30522Y21784D01*
X30522Y21806D01*
X30533Y21840D01*
X30544Y21851D01*
X30758Y22065D02*
X30758Y21952D01*
X30522Y21952D01*
X30758Y22143D02*
X30522Y22143D01*
X30758Y22278D02*
X30623Y22177D01*
X30522Y22278D02*
X30656Y22143D01*
X30522Y22424D02*
X30522Y22447D01*
X30533Y22469D01*
X30544Y22480D01*
X30566Y22492D01*
X30611Y22503D01*
X30668Y22503D01*
X30713Y22492D01*
X30735Y22480D01*
X30746Y22469D01*
X30758Y22447D01*
X30758Y22424D01*
X30746Y22402D01*
X30735Y22390D01*
X30713Y22379D01*
X30668Y22368D01*
X30611Y22368D01*
X30566Y22379D01*
X30544Y22390D01*
X30533Y22402D01*
X30522Y22424D01*
X29050Y21912D02*
X29050Y22047D01*
X29286Y21980D02*
X29050Y21980D01*
X29286Y22126D02*
X29050Y22126D01*
X29050Y22216D01*
X29061Y22239D01*
X29072Y22250D01*
X29094Y22261D01*
X29128Y22261D01*
X29151Y22250D01*
X29162Y22239D01*
X29173Y22216D01*
X29173Y22126D01*
X29050Y22475D02*
X29050Y22362D01*
X29162Y22351D01*
X29151Y22362D01*
X29139Y22385D01*
X29139Y22441D01*
X29151Y22463D01*
X29162Y22475D01*
X29184Y22486D01*
X29241Y22486D01*
X29263Y22475D01*
X29274Y22463D01*
X29286Y22441D01*
X29286Y22385D01*
X29274Y22362D01*
X29263Y22351D01*
X29818Y21357D02*
X29582Y21357D01*
X29582Y21447D01*
X29593Y21470D01*
X29604Y21481D01*
X29626Y21492D01*
X29660Y21492D01*
X29683Y21481D01*
X29694Y21470D01*
X29705Y21447D01*
X29705Y21357D01*
X29694Y21672D02*
X29694Y21593D01*
X29818Y21593D02*
X29582Y21593D01*
X29582Y21706D01*
X29683Y21829D02*
X29671Y21806D01*
X29660Y21795D01*
X29638Y21784D01*
X29626Y21784D01*
X29604Y21795D01*
X29593Y21806D01*
X29582Y21829D01*
X29582Y21874D01*
X29593Y21896D01*
X29604Y21908D01*
X29626Y21919D01*
X29638Y21919D01*
X29660Y21908D01*
X29671Y21896D01*
X29683Y21874D01*
X29683Y21829D01*
X29694Y21806D01*
X29705Y21795D01*
X29728Y21784D01*
X29773Y21784D01*
X29795Y21795D01*
X29806Y21806D01*
X29818Y21829D01*
X29818Y21874D01*
X29806Y21896D01*
X29795Y21908D01*
X29773Y21919D01*
X29728Y21919D01*
X29705Y21908D01*
X29694Y21896D01*
X29683Y21874D01*
X29840Y21964D02*
X29840Y22144D01*
X29806Y22189D02*
X29818Y22223D01*
X29818Y22279D01*
X29806Y22301D01*
X29795Y22313D01*
X29773Y22324D01*
X29750Y22324D01*
X29728Y22313D01*
X29716Y22301D01*
X29705Y22279D01*
X29694Y22234D01*
X29683Y22211D01*
X29671Y22200D01*
X29649Y22189D01*
X29626Y22189D01*
X29604Y22200D01*
X29593Y22211D01*
X29582Y22234D01*
X29582Y22290D01*
X29593Y22324D01*
X29582Y22391D02*
X29582Y22526D01*
X29818Y22459D02*
X29582Y22459D01*
X29694Y22605D02*
X29694Y22684D01*
X29818Y22718D02*
X29818Y22605D01*
X29582Y22605D01*
X29582Y22718D01*
X29818Y22819D02*
X29582Y22819D01*
X29582Y22909D01*
X29593Y22932D01*
X29604Y22943D01*
X29626Y22954D01*
X29660Y22954D01*
X29683Y22943D01*
X29694Y22932D01*
X29705Y22909D01*
X29705Y22819D01*
G54D15*
X26206Y19007D02*
X26206Y18861D01*
X26214Y18844D01*
X26223Y18836D01*
X26240Y18827D01*
X26274Y18827D01*
X26292Y18836D01*
X26300Y18844D01*
X26309Y18861D01*
X26309Y19007D01*
X26489Y18827D02*
X26386Y18827D01*
X26438Y18827D02*
X26438Y19007D01*
X26421Y18981D01*
X26403Y18964D01*
X26386Y18956D01*
X26600Y19007D02*
X26617Y19007D01*
X26634Y18999D01*
X26643Y18990D01*
X26652Y18973D01*
X26660Y18939D01*
X26660Y18896D01*
X26652Y18861D01*
X26643Y18844D01*
X26634Y18836D01*
X26617Y18827D01*
X26600Y18827D01*
X26583Y18836D01*
X26574Y18844D01*
X26566Y18861D01*
X26557Y18896D01*
X26557Y18939D01*
X26566Y18973D01*
X26574Y18990D01*
X26583Y18999D01*
X26600Y19007D01*
X25778Y19507D02*
X25898Y19507D01*
X25821Y19327D01*
X26043Y19447D02*
X26043Y19327D01*
X26000Y19516D02*
X25957Y19387D01*
X26069Y19387D01*
X26223Y19327D02*
X26137Y19327D01*
X26137Y19507D01*
X26386Y19344D02*
X26377Y19336D01*
X26351Y19327D01*
X26334Y19327D01*
X26309Y19336D01*
X26291Y19353D01*
X26283Y19370D01*
X26274Y19404D01*
X26274Y19430D01*
X26283Y19464D01*
X26291Y19481D01*
X26309Y19499D01*
X26334Y19507D01*
X26351Y19507D01*
X26377Y19499D01*
X26386Y19490D01*
X26446Y19507D02*
X26566Y19327D01*
X26566Y19507D02*
X26446Y19327D01*
X26720Y19507D02*
X26634Y19507D01*
X26625Y19421D01*
X26634Y19430D01*
X26651Y19439D01*
X26694Y19439D01*
X26711Y19430D01*
X26720Y19421D01*
X26728Y19404D01*
X26728Y19361D01*
X26720Y19344D01*
X26711Y19336D01*
X26694Y19327D01*
X26651Y19327D01*
X26634Y19336D01*
X26625Y19344D01*
X26882Y19447D02*
X26882Y19327D01*
X26839Y19516D02*
X26796Y19387D01*
X26908Y19387D01*
X27070Y19327D02*
X26967Y19327D01*
X27019Y19327D02*
X27019Y19507D01*
X27002Y19481D01*
X26984Y19464D01*
X26967Y19456D01*
X29035Y20007D02*
X29035Y19861D01*
X29043Y19844D01*
X29052Y19836D01*
X29069Y19827D01*
X29103Y19827D01*
X29121Y19836D01*
X29129Y19844D01*
X29138Y19861D01*
X29138Y20007D01*
X29215Y19990D02*
X29224Y19999D01*
X29241Y20007D01*
X29284Y20007D01*
X29301Y19999D01*
X29310Y19990D01*
X29318Y19973D01*
X29318Y19956D01*
X29310Y19930D01*
X29207Y19827D01*
X29318Y19827D01*
X28618Y19555D02*
X28738Y19555D01*
X28661Y19375D01*
X28883Y19495D02*
X28883Y19375D01*
X28840Y19564D02*
X28797Y19435D01*
X28909Y19435D01*
X29063Y19375D02*
X28977Y19375D01*
X28977Y19555D01*
X29226Y19392D02*
X29217Y19384D01*
X29191Y19375D01*
X29174Y19375D01*
X29149Y19384D01*
X29131Y19401D01*
X29123Y19418D01*
X29114Y19452D01*
X29114Y19478D01*
X29123Y19512D01*
X29131Y19529D01*
X29149Y19547D01*
X29174Y19555D01*
X29191Y19555D01*
X29217Y19547D01*
X29226Y19538D01*
X29286Y19555D02*
X29406Y19375D01*
X29406Y19555D02*
X29286Y19375D01*
X29560Y19555D02*
X29474Y19555D01*
X29465Y19469D01*
X29474Y19478D01*
X29491Y19487D01*
X29534Y19487D01*
X29551Y19478D01*
X29560Y19469D01*
X29568Y19452D01*
X29568Y19409D01*
X29560Y19392D01*
X29551Y19384D01*
X29534Y19375D01*
X29491Y19375D01*
X29474Y19384D01*
X29465Y19392D01*
X29722Y19495D02*
X29722Y19375D01*
X29679Y19564D02*
X29636Y19435D01*
X29748Y19435D01*
X29910Y19375D02*
X29807Y19375D01*
X29859Y19375D02*
X29859Y19555D01*
X29842Y19529D01*
X29824Y19512D01*
X29807Y19504D01*
G54D19*
X22992Y19516D02*
X22992Y19539D01*
X23003Y19561D01*
X23014Y19572D01*
X23036Y19584D01*
X23081Y19595D01*
X23138Y19595D01*
X23183Y19584D01*
X23205Y19572D01*
X23216Y19561D01*
X23228Y19539D01*
X23228Y19516D01*
X23216Y19494D01*
X23205Y19482D01*
X23183Y19471D01*
X23138Y19460D01*
X23081Y19460D01*
X23036Y19471D01*
X23014Y19482D01*
X23003Y19494D01*
X22992Y19516D01*
X23093Y19730D02*
X23081Y19707D01*
X23070Y19696D01*
X23048Y19685D01*
X23036Y19685D01*
X23014Y19696D01*
X23003Y19707D01*
X22992Y19730D01*
X22992Y19775D01*
X23003Y19797D01*
X23014Y19809D01*
X23036Y19820D01*
X23048Y19820D01*
X23070Y19809D01*
X23081Y19797D01*
X23093Y19775D01*
X23093Y19730D01*
X23104Y19707D01*
X23115Y19696D01*
X23138Y19685D01*
X23183Y19685D01*
X23205Y19696D01*
X23216Y19707D01*
X23228Y19730D01*
X23228Y19775D01*
X23216Y19797D01*
X23205Y19809D01*
X23183Y19820D01*
X23138Y19820D01*
X23115Y19809D01*
X23104Y19797D01*
X23093Y19775D01*
X23014Y18360D02*
X23003Y18371D01*
X22992Y18394D01*
X22992Y18450D01*
X23003Y18472D01*
X23014Y18484D01*
X23036Y18495D01*
X23059Y18495D01*
X23093Y18484D01*
X23228Y18349D01*
X23228Y18495D01*
X23093Y18630D02*
X23081Y18607D01*
X23070Y18596D01*
X23048Y18585D01*
X23036Y18585D01*
X23014Y18596D01*
X23003Y18607D01*
X22992Y18630D01*
X22992Y18675D01*
X23003Y18697D01*
X23014Y18709D01*
X23036Y18720D01*
X23048Y18720D01*
X23070Y18709D01*
X23081Y18697D01*
X23093Y18675D01*
X23093Y18630D01*
X23104Y18607D01*
X23115Y18596D01*
X23138Y18585D01*
X23183Y18585D01*
X23205Y18596D01*
X23216Y18607D01*
X23228Y18630D01*
X23228Y18675D01*
X23216Y18697D01*
X23205Y18709D01*
X23183Y18720D01*
X23138Y18720D01*
X23115Y18709D01*
X23104Y18697D01*
X23093Y18675D01*
M02*
