G04 (created by PCBNEW-RS274X (2010-03-14)-final) date Thu 20 Jan 2011 12:09:16 PM EST*
G01*
G70*
G90*
%MOIN*%
G04 Gerber Fmt 3.4, Leading zero omitted, Abs format*
%FSLAX34Y34*%
G04 APERTURE LIST*
%ADD10C,0.001000*%
%ADD11R,0.012600X0.017700*%
%ADD12R,0.017700X0.012600*%
%ADD13R,0.021700X0.025600*%
%ADD14R,0.025600X0.021700*%
%ADD15R,0.025600X0.037400*%
%ADD16R,0.037400X0.025600*%
%ADD17R,0.084700X0.051200*%
%ADD18C,0.065000*%
%ADD19R,0.037400X0.033500*%
%ADD20R,0.061100X0.072900*%
%ADD21C,0.018000*%
%ADD22R,0.015000X0.102000*%
%ADD23R,0.015000X0.034000*%
%ADD24R,0.034000X0.015000*%
%ADD25R,0.012200X0.033500*%
%ADD26R,0.120100X0.031500*%
%ADD27R,0.025600X0.011800*%
%ADD28R,0.011800X0.025600*%
%ADD29R,0.027600X0.011800*%
%ADD30R,0.011800X0.027600*%
%ADD31R,0.041400X0.041400*%
%ADD32R,0.018500X0.025600*%
%ADD33R,0.033500X0.029600*%
%ADD34R,0.017700X0.025600*%
%ADD35R,0.025600X0.017700*%
%ADD36R,0.057100X0.029600*%
%ADD37R,0.025600X0.044000*%
%ADD38R,0.015800X0.053200*%
G04 APERTURE END LIST*
G54D10*
G54D11*
X17552Y-01500D03*
X17748Y-01500D03*
G54D12*
X17650Y-01248D03*
X17650Y-01052D03*
X22400Y-01002D03*
X22400Y-01198D03*
G54D11*
X31552Y-01500D03*
X31748Y-01500D03*
G54D12*
X31650Y-01248D03*
X31650Y-01052D03*
X36400Y-01002D03*
X36400Y-01198D03*
G54D11*
X38552Y-01500D03*
X38748Y-01500D03*
G54D12*
X38650Y-01248D03*
X38650Y-01052D03*
X43400Y-01002D03*
X43400Y-01198D03*
G54D11*
X24552Y-01500D03*
X24748Y-01500D03*
G54D12*
X24650Y-01248D03*
X24650Y-01052D03*
X29400Y-01002D03*
X29400Y-01198D03*
G54D13*
X18553Y03300D03*
X18947Y03300D03*
G54D14*
X22350Y05397D03*
X22350Y05003D03*
G54D13*
X17997Y01950D03*
X17603Y01950D03*
G54D14*
X22200Y04647D03*
X22200Y04253D03*
X22200Y03603D03*
X22200Y03997D03*
X20750Y05003D03*
X20750Y05397D03*
X20400Y03303D03*
X20400Y03697D03*
G54D13*
X19303Y03300D03*
X19697Y03300D03*
X22003Y02000D03*
X22397Y02000D03*
X22003Y02800D03*
X22397Y02800D03*
X22003Y03200D03*
X22397Y03200D03*
X22003Y02400D03*
X22397Y02400D03*
X32553Y03300D03*
X32947Y03300D03*
G54D14*
X36350Y05397D03*
X36350Y05003D03*
G54D13*
X31997Y01950D03*
X31603Y01950D03*
G54D14*
X36200Y04647D03*
X36200Y04253D03*
X36200Y03603D03*
X36200Y03997D03*
X34750Y05003D03*
X34750Y05397D03*
X34400Y03303D03*
X34400Y03697D03*
G54D13*
X33303Y03300D03*
X33697Y03300D03*
X36003Y02000D03*
X36397Y02000D03*
X36003Y02800D03*
X36397Y02800D03*
X36003Y03200D03*
X36397Y03200D03*
X36003Y02400D03*
X36397Y02400D03*
X39553Y03300D03*
X39947Y03300D03*
G54D14*
X43350Y05397D03*
X43350Y05003D03*
G54D13*
X38997Y01950D03*
X38603Y01950D03*
G54D14*
X43200Y04647D03*
X43200Y04253D03*
X43200Y03603D03*
X43200Y03997D03*
X41750Y05003D03*
X41750Y05397D03*
X41400Y03303D03*
X41400Y03697D03*
G54D13*
X40303Y03300D03*
X40697Y03300D03*
X43003Y02000D03*
X43397Y02000D03*
X43003Y02800D03*
X43397Y02800D03*
X43003Y03200D03*
X43397Y03200D03*
X43003Y02400D03*
X43397Y02400D03*
X25553Y03300D03*
X25947Y03300D03*
G54D14*
X29350Y05397D03*
X29350Y05003D03*
G54D13*
X24997Y01950D03*
X24603Y01950D03*
G54D14*
X29200Y04647D03*
X29200Y04253D03*
X29200Y03603D03*
X29200Y03997D03*
X27750Y05003D03*
X27750Y05397D03*
X27400Y03303D03*
X27400Y03697D03*
G54D13*
X26303Y03300D03*
X26697Y03300D03*
X29003Y02000D03*
X29397Y02000D03*
X29003Y02800D03*
X29397Y02800D03*
X29003Y03200D03*
X29397Y03200D03*
X29003Y02400D03*
X29397Y02400D03*
G54D14*
X24900Y10897D03*
X24900Y10503D03*
X26700Y10503D03*
X26700Y10897D03*
G54D13*
X30197Y14100D03*
X29803Y14100D03*
G54D14*
X24200Y12603D03*
X24200Y12997D03*
X24200Y11903D03*
X24200Y12297D03*
X22200Y13197D03*
X22200Y12803D03*
X22200Y12397D03*
X22200Y12003D03*
X21800Y12803D03*
X21800Y13197D03*
G54D13*
X23303Y11400D03*
X23697Y11400D03*
G54D14*
X31000Y13003D03*
X31000Y13397D03*
X31800Y13003D03*
X31800Y13397D03*
G54D13*
X33397Y12000D03*
X33003Y12000D03*
G54D14*
X32600Y11997D03*
X32600Y11603D03*
X33000Y11203D03*
X33000Y11597D03*
G54D13*
X33397Y10900D03*
X33003Y10900D03*
X32303Y10700D03*
X32697Y10700D03*
X33703Y12000D03*
X34097Y12000D03*
G54D14*
X34088Y12326D03*
X34088Y12720D03*
G54D13*
X32897Y13600D03*
X32503Y13600D03*
X32897Y13200D03*
X32503Y13200D03*
X32897Y12800D03*
X32503Y12800D03*
X32897Y12400D03*
X32503Y12400D03*
X29903Y11200D03*
X30297Y11200D03*
G54D14*
X31400Y13397D03*
X31400Y13003D03*
G54D13*
X31497Y10700D03*
X31103Y10700D03*
X30197Y15200D03*
X29803Y15200D03*
X30197Y15700D03*
X29803Y15700D03*
X30197Y14700D03*
X29803Y14700D03*
X30297Y11600D03*
X29903Y11600D03*
X30297Y12000D03*
X29903Y12000D03*
G54D14*
X23000Y22503D03*
X23000Y22897D03*
X25190Y24407D03*
X25190Y24013D03*
X26190Y24407D03*
X26190Y24013D03*
X27200Y24397D03*
X27200Y24003D03*
X28200Y24397D03*
X28200Y24003D03*
X32200Y24397D03*
X32200Y24003D03*
X31200Y24397D03*
X31200Y24003D03*
X30200Y24397D03*
X30200Y24003D03*
X29200Y24397D03*
X29200Y24003D03*
G54D15*
X22895Y15800D03*
X22305Y15800D03*
X23405Y15800D03*
X23995Y15800D03*
X22205Y11500D03*
X22795Y11500D03*
G54D16*
X21700Y12095D03*
X21700Y11505D03*
X25190Y23115D03*
X25190Y23705D03*
X26190Y23115D03*
X26190Y23705D03*
X27190Y23115D03*
X27190Y23705D03*
X28190Y23115D03*
X28190Y23705D03*
X32190Y23115D03*
X32190Y23705D03*
X31190Y23115D03*
X31190Y23705D03*
X30190Y23115D03*
X30190Y23705D03*
X29190Y23115D03*
X29190Y23705D03*
G54D17*
X22500Y13900D03*
X22500Y15100D03*
X23800Y13900D03*
X23800Y15100D03*
G54D18*
X22300Y10700D03*
X23300Y10700D03*
X23800Y24200D03*
X23800Y23200D03*
X23800Y22200D03*
X23800Y21200D03*
X23800Y20200D03*
X23800Y19200D03*
X23800Y18200D03*
X37700Y20500D03*
X37700Y19500D03*
X36700Y20500D03*
X36700Y19500D03*
X35700Y20500D03*
X35700Y19500D03*
X34700Y20500D03*
X34700Y19500D03*
X33700Y20500D03*
X33700Y19500D03*
X32700Y20500D03*
X32700Y19500D03*
X31700Y20500D03*
X31700Y19500D03*
G54D19*
X25475Y10454D03*
X26125Y10454D03*
X26125Y10946D03*
X25475Y10946D03*
G54D20*
X34129Y11400D03*
X37672Y11400D03*
G54D21*
X29047Y11553D03*
X28732Y11553D03*
X28417Y11553D03*
X28102Y11553D03*
X27787Y11553D03*
X27472Y11553D03*
X27157Y11553D03*
X26842Y11553D03*
X26527Y11553D03*
X26212Y11553D03*
X25897Y11553D03*
X25582Y11553D03*
X25267Y11553D03*
X24953Y11553D03*
X29047Y11868D03*
X28732Y11868D03*
X28417Y11868D03*
X28102Y11868D03*
X27787Y11868D03*
X27472Y11868D03*
X27157Y11868D03*
X26842Y11868D03*
X26527Y11868D03*
X26212Y11868D03*
X25897Y11868D03*
X25582Y11868D03*
X25267Y11868D03*
X24953Y11868D03*
X29047Y12183D03*
X28732Y12183D03*
X28417Y12183D03*
X28102Y12183D03*
X27787Y12183D03*
X27472Y12183D03*
X27157Y12183D03*
X26842Y12183D03*
X26527Y12183D03*
X26212Y12183D03*
X25897Y12183D03*
X25582Y12183D03*
X25267Y12183D03*
X24953Y12183D03*
X29047Y12498D03*
X28732Y12498D03*
X28417Y12498D03*
X28102Y12498D03*
X27787Y12498D03*
X27472Y12498D03*
X27157Y12498D03*
X26842Y12498D03*
X26527Y12498D03*
X26212Y12498D03*
X25897Y12498D03*
X25582Y12498D03*
X25267Y12498D03*
X24953Y12498D03*
X29047Y12813D03*
X28732Y12813D03*
X28417Y12813D03*
X28102Y12813D03*
X25897Y12813D03*
X25582Y12813D03*
X25267Y12813D03*
X24953Y12813D03*
X29047Y13128D03*
X28732Y13128D03*
X28417Y13128D03*
X28102Y13128D03*
X25897Y13128D03*
X25582Y13128D03*
X25267Y13128D03*
X24953Y13128D03*
X29047Y13443D03*
X28732Y13443D03*
X28417Y13443D03*
X28102Y13443D03*
X25897Y13443D03*
X25582Y13443D03*
X25267Y13443D03*
X24953Y13443D03*
X29047Y13758D03*
X28732Y13758D03*
X28417Y13758D03*
X28102Y13758D03*
X25897Y13758D03*
X25582Y13758D03*
X25267Y13758D03*
X24953Y13758D03*
X29047Y14073D03*
X28732Y14073D03*
X28417Y14073D03*
X28102Y14073D03*
X25897Y14073D03*
X25582Y14073D03*
X25267Y14073D03*
X24953Y14073D03*
X29047Y14388D03*
X28732Y14388D03*
X28417Y14388D03*
X28102Y14388D03*
X25897Y14388D03*
X25582Y14388D03*
X25267Y14388D03*
X24953Y14388D03*
X29047Y14703D03*
X28732Y14703D03*
X28417Y14703D03*
X28102Y14703D03*
X27787Y14703D03*
X27472Y14703D03*
X27157Y14703D03*
X26842Y14703D03*
X26527Y14703D03*
X26212Y14703D03*
X25897Y14703D03*
X25582Y14703D03*
X25267Y14703D03*
X24953Y14703D03*
X29047Y15018D03*
X28732Y15018D03*
X28417Y15018D03*
X28102Y15018D03*
X27787Y15018D03*
X27472Y15018D03*
X27157Y15018D03*
X26842Y15018D03*
X26527Y15018D03*
X26212Y15018D03*
X25897Y15018D03*
X25582Y15018D03*
X25267Y15018D03*
X24953Y15018D03*
X29047Y15333D03*
X28732Y15333D03*
X28417Y15333D03*
X28102Y15333D03*
X27787Y15333D03*
X27472Y15333D03*
X27157Y15333D03*
X26842Y15333D03*
X26527Y15333D03*
X26212Y15333D03*
X25897Y15333D03*
X25582Y15333D03*
X25267Y15333D03*
X24953Y15333D03*
X29047Y15647D03*
X28732Y15647D03*
X28417Y15647D03*
X28102Y15647D03*
X27787Y15647D03*
X27472Y15647D03*
X27157Y15647D03*
X26842Y15647D03*
X26527Y15647D03*
X26212Y15647D03*
X25897Y15647D03*
X25582Y15647D03*
X25267Y15647D03*
X24953Y15647D03*
G54D22*
X17875Y-01900D03*
X18125Y-01900D03*
X18375Y-01900D03*
X18625Y-01900D03*
X18875Y-01900D03*
X19125Y-01900D03*
X19375Y-01900D03*
X19625Y-01900D03*
X19875Y-01900D03*
X20125Y-01900D03*
X20375Y-01900D03*
X20625Y-01900D03*
X20875Y-01900D03*
X21125Y-01900D03*
X21375Y-01900D03*
X21625Y-01900D03*
X21875Y-01900D03*
X22125Y-01900D03*
X31875Y-01900D03*
X32125Y-01900D03*
X32375Y-01900D03*
X32625Y-01900D03*
X32875Y-01900D03*
X33125Y-01900D03*
X33375Y-01900D03*
X33625Y-01900D03*
X33875Y-01900D03*
X34125Y-01900D03*
X34375Y-01900D03*
X34625Y-01900D03*
X34875Y-01900D03*
X35125Y-01900D03*
X35375Y-01900D03*
X35625Y-01900D03*
X35875Y-01900D03*
X36125Y-01900D03*
X38875Y-01900D03*
X39125Y-01900D03*
X39375Y-01900D03*
X39625Y-01900D03*
X39875Y-01900D03*
X40125Y-01900D03*
X40375Y-01900D03*
X40625Y-01900D03*
X40875Y-01900D03*
X41125Y-01900D03*
X41375Y-01900D03*
X41625Y-01900D03*
X41875Y-01900D03*
X42125Y-01900D03*
X42375Y-01900D03*
X42625Y-01900D03*
X42875Y-01900D03*
X43125Y-01900D03*
X24875Y-01900D03*
X25125Y-01900D03*
X25375Y-01900D03*
X25625Y-01900D03*
X25875Y-01900D03*
X26125Y-01900D03*
X26375Y-01900D03*
X26625Y-01900D03*
X26875Y-01900D03*
X27125Y-01900D03*
X27375Y-01900D03*
X27625Y-01900D03*
X27875Y-01900D03*
X28125Y-01900D03*
X28375Y-01900D03*
X28625Y-01900D03*
X28875Y-01900D03*
X29125Y-01900D03*
G54D23*
X19800Y03750D03*
X19550Y03750D03*
X19300Y03750D03*
X19050Y03750D03*
X18800Y03750D03*
X18550Y03750D03*
X18300Y03750D03*
X18050Y03750D03*
X17800Y03750D03*
X22100Y09900D03*
X22350Y09900D03*
X22600Y09900D03*
X22850Y09900D03*
X23100Y09900D03*
X23350Y09900D03*
X23600Y09900D03*
X23850Y09900D03*
X24100Y09900D03*
X33800Y03750D03*
X33550Y03750D03*
X33300Y03750D03*
X33050Y03750D03*
X32800Y03750D03*
X32550Y03750D03*
X32300Y03750D03*
X32050Y03750D03*
X31800Y03750D03*
X28500Y09900D03*
X28750Y09900D03*
X29000Y09900D03*
X29250Y09900D03*
X29500Y09900D03*
X29750Y09900D03*
X30000Y09900D03*
X30250Y09900D03*
X30500Y09900D03*
X40800Y03750D03*
X40550Y03750D03*
X40300Y03750D03*
X40050Y03750D03*
X39800Y03750D03*
X39550Y03750D03*
X39300Y03750D03*
X39050Y03750D03*
X38800Y03750D03*
X31700Y09900D03*
X31950Y09900D03*
X32200Y09900D03*
X32450Y09900D03*
X32700Y09900D03*
X32950Y09900D03*
X33200Y09900D03*
X33450Y09900D03*
X33700Y09900D03*
X26800Y03750D03*
X26550Y03750D03*
X26300Y03750D03*
X26050Y03750D03*
X25800Y03750D03*
X25550Y03750D03*
X25300Y03750D03*
X25050Y03750D03*
X24800Y03750D03*
X25300Y09900D03*
X25550Y09900D03*
X25800Y09900D03*
X26050Y09900D03*
X26300Y09900D03*
X26550Y09900D03*
X26800Y09900D03*
X27050Y09900D03*
X27300Y09900D03*
G54D24*
X33600Y13400D03*
X33600Y13650D03*
X33600Y13900D03*
X33600Y14150D03*
X33600Y14400D03*
X33600Y14650D03*
X33600Y14900D03*
X33600Y15150D03*
X33600Y15400D03*
G54D25*
X22776Y12075D03*
X22973Y12075D03*
X23170Y12075D03*
X23367Y12075D03*
X23564Y12075D03*
X23564Y13257D03*
X23367Y13257D03*
X23170Y13257D03*
X22973Y13257D03*
X22776Y13257D03*
G54D26*
X23170Y12666D03*
G54D27*
X30652Y11900D03*
X30652Y12097D03*
X30652Y12294D03*
X30652Y11703D03*
X30652Y11506D03*
X32148Y12294D03*
X32148Y12097D03*
X32148Y11900D03*
X32148Y11703D03*
X32148Y11506D03*
G54D28*
X31400Y12648D03*
X31597Y12648D03*
X31794Y12648D03*
X31203Y12648D03*
X31006Y12648D03*
X31400Y11152D03*
X31597Y11152D03*
X31794Y11152D03*
X31203Y11152D03*
X31006Y11152D03*
G54D29*
X21545Y00020D03*
X21545Y00217D03*
X21545Y00414D03*
X21545Y00611D03*
X21545Y00808D03*
X21545Y01005D03*
X21545Y01202D03*
X21545Y01398D03*
X21545Y01595D03*
X21545Y01792D03*
X21545Y01989D03*
X21545Y02186D03*
X21545Y02383D03*
X21545Y02580D03*
X18455Y02580D03*
X18455Y02383D03*
X18455Y02186D03*
X18455Y01989D03*
X18455Y01792D03*
X18455Y01595D03*
X18455Y01398D03*
X18455Y01202D03*
X18455Y01005D03*
X18455Y00808D03*
X18455Y00611D03*
X18455Y00414D03*
X18455Y00217D03*
X18455Y00020D03*
G54D30*
X18918Y-00245D03*
X19115Y-00245D03*
X19312Y-00245D03*
X19509Y-00245D03*
X19706Y-00245D03*
X19903Y-00245D03*
X20100Y-00245D03*
X20296Y-00245D03*
X20493Y-00245D03*
X20690Y-00245D03*
X20887Y-00245D03*
X21084Y-00245D03*
X21281Y-00245D03*
X21279Y02845D03*
X21082Y02845D03*
X20885Y02845D03*
X20689Y02845D03*
X20492Y02845D03*
X20295Y02845D03*
X20098Y02845D03*
X19901Y02845D03*
X19704Y02845D03*
X19507Y02845D03*
X19311Y02845D03*
X19114Y02845D03*
X18917Y02845D03*
X18720Y02845D03*
X18721Y-00245D03*
G54D31*
X20000Y01300D03*
G54D29*
X35545Y00020D03*
X35545Y00217D03*
X35545Y00414D03*
X35545Y00611D03*
X35545Y00808D03*
X35545Y01005D03*
X35545Y01202D03*
X35545Y01398D03*
X35545Y01595D03*
X35545Y01792D03*
X35545Y01989D03*
X35545Y02186D03*
X35545Y02383D03*
X35545Y02580D03*
X32455Y02580D03*
X32455Y02383D03*
X32455Y02186D03*
X32455Y01989D03*
X32455Y01792D03*
X32455Y01595D03*
X32455Y01398D03*
X32455Y01202D03*
X32455Y01005D03*
X32455Y00808D03*
X32455Y00611D03*
X32455Y00414D03*
X32455Y00217D03*
X32455Y00020D03*
G54D30*
X32918Y-00245D03*
X33115Y-00245D03*
X33312Y-00245D03*
X33509Y-00245D03*
X33706Y-00245D03*
X33903Y-00245D03*
X34100Y-00245D03*
X34296Y-00245D03*
X34493Y-00245D03*
X34690Y-00245D03*
X34887Y-00245D03*
X35084Y-00245D03*
X35281Y-00245D03*
X35279Y02845D03*
X35082Y02845D03*
X34885Y02845D03*
X34689Y02845D03*
X34492Y02845D03*
X34295Y02845D03*
X34098Y02845D03*
X33901Y02845D03*
X33704Y02845D03*
X33507Y02845D03*
X33311Y02845D03*
X33114Y02845D03*
X32917Y02845D03*
X32720Y02845D03*
X32721Y-00245D03*
G54D31*
X34000Y01300D03*
G54D29*
X42545Y00020D03*
X42545Y00217D03*
X42545Y00414D03*
X42545Y00611D03*
X42545Y00808D03*
X42545Y01005D03*
X42545Y01202D03*
X42545Y01398D03*
X42545Y01595D03*
X42545Y01792D03*
X42545Y01989D03*
X42545Y02186D03*
X42545Y02383D03*
X42545Y02580D03*
X39455Y02580D03*
X39455Y02383D03*
X39455Y02186D03*
X39455Y01989D03*
X39455Y01792D03*
X39455Y01595D03*
X39455Y01398D03*
X39455Y01202D03*
X39455Y01005D03*
X39455Y00808D03*
X39455Y00611D03*
X39455Y00414D03*
X39455Y00217D03*
X39455Y00020D03*
G54D30*
X39918Y-00245D03*
X40115Y-00245D03*
X40312Y-00245D03*
X40509Y-00245D03*
X40706Y-00245D03*
X40903Y-00245D03*
X41100Y-00245D03*
X41296Y-00245D03*
X41493Y-00245D03*
X41690Y-00245D03*
X41887Y-00245D03*
X42084Y-00245D03*
X42281Y-00245D03*
X42279Y02845D03*
X42082Y02845D03*
X41885Y02845D03*
X41689Y02845D03*
X41492Y02845D03*
X41295Y02845D03*
X41098Y02845D03*
X40901Y02845D03*
X40704Y02845D03*
X40507Y02845D03*
X40311Y02845D03*
X40114Y02845D03*
X39917Y02845D03*
X39720Y02845D03*
X39721Y-00245D03*
G54D31*
X41000Y01300D03*
G54D29*
X28545Y00020D03*
X28545Y00217D03*
X28545Y00414D03*
X28545Y00611D03*
X28545Y00808D03*
X28545Y01005D03*
X28545Y01202D03*
X28545Y01398D03*
X28545Y01595D03*
X28545Y01792D03*
X28545Y01989D03*
X28545Y02186D03*
X28545Y02383D03*
X28545Y02580D03*
X25455Y02580D03*
X25455Y02383D03*
X25455Y02186D03*
X25455Y01989D03*
X25455Y01792D03*
X25455Y01595D03*
X25455Y01398D03*
X25455Y01202D03*
X25455Y01005D03*
X25455Y00808D03*
X25455Y00611D03*
X25455Y00414D03*
X25455Y00217D03*
X25455Y00020D03*
G54D30*
X25918Y-00245D03*
X26115Y-00245D03*
X26312Y-00245D03*
X26509Y-00245D03*
X26706Y-00245D03*
X26903Y-00245D03*
X27100Y-00245D03*
X27296Y-00245D03*
X27493Y-00245D03*
X27690Y-00245D03*
X27887Y-00245D03*
X28084Y-00245D03*
X28281Y-00245D03*
X28279Y02845D03*
X28082Y02845D03*
X27885Y02845D03*
X27689Y02845D03*
X27492Y02845D03*
X27295Y02845D03*
X27098Y02845D03*
X26901Y02845D03*
X26704Y02845D03*
X26507Y02845D03*
X26311Y02845D03*
X26114Y02845D03*
X25917Y02845D03*
X25720Y02845D03*
X25721Y-00245D03*
G54D31*
X27000Y01300D03*
G54D32*
X29736Y12916D03*
G54D33*
X30189Y12916D03*
G54D32*
X30248Y13704D03*
X29736Y13704D03*
G54D34*
X17544Y02376D03*
X17800Y02376D03*
X18056Y02376D03*
X18056Y03124D03*
X17544Y03124D03*
G54D35*
X21974Y04994D03*
X21974Y05250D03*
X21974Y05506D03*
X21226Y05506D03*
X21226Y04994D03*
G54D34*
X31544Y02376D03*
X31800Y02376D03*
X32056Y02376D03*
X32056Y03124D03*
X31544Y03124D03*
G54D35*
X35974Y04994D03*
X35974Y05250D03*
X35974Y05506D03*
X35226Y05506D03*
X35226Y04994D03*
G54D34*
X38544Y02376D03*
X38800Y02376D03*
X39056Y02376D03*
X39056Y03124D03*
X38544Y03124D03*
G54D35*
X42974Y04994D03*
X42974Y05250D03*
X42974Y05506D03*
X42226Y05506D03*
X42226Y04994D03*
G54D34*
X24544Y02376D03*
X24800Y02376D03*
X25056Y02376D03*
X25056Y03124D03*
X24544Y03124D03*
G54D35*
X28974Y04994D03*
X28974Y05250D03*
X28974Y05506D03*
X28226Y05506D03*
X28226Y04994D03*
G54D36*
X30737Y15750D03*
X30737Y15250D03*
X30737Y14750D03*
X30737Y14250D03*
X32863Y14250D03*
X32863Y14750D03*
X32863Y15250D03*
X32863Y15750D03*
G54D37*
X20926Y03538D03*
X21300Y03538D03*
X21674Y03538D03*
X21674Y04562D03*
X21300Y04562D03*
X20926Y04562D03*
X34926Y03538D03*
X35300Y03538D03*
X35674Y03538D03*
X35674Y04562D03*
X35300Y04562D03*
X34926Y04562D03*
X41926Y03538D03*
X42300Y03538D03*
X42674Y03538D03*
X42674Y04562D03*
X42300Y04562D03*
X41926Y04562D03*
X27926Y03538D03*
X28300Y03538D03*
X28674Y03538D03*
X28674Y04562D03*
X28300Y04562D03*
X27926Y04562D03*
G54D18*
X25190Y22210D03*
X26190Y22210D03*
X27190Y22210D03*
X28190Y22210D03*
X32190Y22210D03*
X31190Y22210D03*
X30190Y22210D03*
X29190Y22210D03*
G54D38*
X27452Y20569D03*
X27196Y20569D03*
X26940Y20569D03*
X26684Y20569D03*
X26428Y20569D03*
X26172Y20569D03*
X25916Y20569D03*
X25660Y20569D03*
X25404Y20569D03*
X25148Y20569D03*
X25148Y18231D03*
X25404Y18231D03*
X25660Y18231D03*
X25916Y18231D03*
X26172Y18231D03*
X26428Y18231D03*
X26684Y18231D03*
X26940Y18231D03*
X27196Y18231D03*
X27452Y18231D03*
X28148Y18231D03*
X28404Y18231D03*
X28660Y18231D03*
X28916Y18231D03*
X29172Y18231D03*
X29428Y18231D03*
X29684Y18231D03*
X29940Y18231D03*
X30196Y18231D03*
X30452Y18231D03*
X30452Y20569D03*
X30196Y20569D03*
X29940Y20569D03*
X29684Y20569D03*
X29428Y20569D03*
X29172Y20569D03*
X28916Y20569D03*
X28660Y20569D03*
X28404Y20569D03*
X28148Y20569D03*
G54D18*
X22600Y19700D03*
X22600Y18600D03*
M02*
