G04 (created by PCBNEW-RS274X (2010-03-14)-final) date Thu 20 Jan 2011 01:01:31 PM EST*
G01*
G70*
G90*
%MOIN*%
G04 Gerber Fmt 3.4, Leading zero omitted, Abs format*
%FSLAX34Y34*%
G04 APERTURE LIST*
%ADD10C,0.001000*%
%ADD11C,0.025000*%
G04 APERTURE END LIST*
G54D10*
G54D11*
X17200Y05900D02*
X20800Y05900D01*
X21300Y24900D02*
X37900Y24900D01*
X37900Y24900D02*
X38300Y24600D01*
X38300Y10220D02*
X38300Y24600D01*
X38300Y10220D02*
X39900Y08460D01*
X43700Y05900D02*
X39900Y05900D01*
X43700Y05900D02*
X43700Y-02500D01*
X43700Y-02500D02*
X38228Y-02500D01*
X17200Y05900D02*
X17212Y-02500D01*
X17212Y-02500D02*
X22700Y-02500D01*
X22700Y07300D02*
X22700Y-02500D01*
X24197Y07300D02*
X24200Y-02500D01*
X24197Y07300D02*
X22700Y07300D01*
X29670Y-02500D02*
X24200Y-02500D01*
X29724Y07300D02*
X29670Y-02500D01*
X31200Y-02500D02*
X31200Y07300D01*
X29724Y07300D02*
X31200Y07300D01*
X36700Y-02500D02*
X31200Y-02500D01*
X36704Y07311D02*
X36700Y-02500D01*
X38228Y-02500D02*
X38182Y07300D01*
X38182Y07300D02*
X36704Y07311D01*
X39900Y08460D02*
X39900Y05900D01*
X20800Y05900D02*
X21300Y06400D01*
X21300Y06400D02*
X21300Y24900D01*
M02*
