G04 (Genere par PCBNEW (20080311-r876)) le 26/3/2008-04:50:32*
G01*
G70*
G90*
%MOIN*%
G04 Gerber Fmt 3.4, Leading zero omitted, Abs format*
%FSLAX34Y34*%
G04 APERTURE LIST*
%ADD10C,0.015000*%
%ADD11R,0.023600X0.019700*%
%ADD12R,0.035400X0.023600*%
%ADD13R,0.027600X0.037400*%
%ADD14R,0.037400X0.027600*%
%ADD15C,0.063000*%
%ADD16C,0.059100*%
%ADD17C,0.055100*%
%ADD18C,0.114200*%
%ADD19C,0.090600*%
%ADD20C,0.126000*%
%ADD21C,0.066900*%
%ADD22R,0.043300X0.009800*%
%ADD23C,0.098400*%
%ADD24C,0.025000*%
%ADD25C,0.023600*%
%ADD26C,0.015700*%
%ADD27C,0.019700*%
%ADD28C,0.004900*%
%ADD29C,0.007900*%
%ADD30C,0.017000*%
%ADD31C,0.011800*%
%ADD32C,0.005900*%
%ADD33C,0.039400*%
%ADD34C,0.003900*%
%ADD35C,0.004700*%
%ADD36C,0.015700*%
%ADD37C,0.002500*%
%ADD38R,0.019700X0.023600*%
%ADD39R,0.023600X0.035400*%
%ADD40R,0.015700X0.011800*%
%ADD41R,0.046100X0.055100*%
%ADD42R,0.063000X0.035400*%
%ADD43R,0.049200X0.082700*%
%ADD44R,0.035400X0.031500*%
%ADD45R,0.149600X0.066900*%
%ADD46R,0.096500X0.065000*%
%ADD47R,0.017700X0.027600*%
%ADD48R,0.016500X0.023600*%
%ADD49R,0.031500X0.027600*%
%ADD50R,0.033500X0.023600*%
%ADD51R,0.055100X0.019700*%
%ADD52R,0.027600X0.055100*%
%ADD53R,0.078700X0.019700*%
%ADD54R,0.023600X0.033500*%
%ADD55R,0.023600X0.042000*%
%ADD56R,0.042000X0.023600*%
%ADD57R,0.027600X0.012800*%
%ADD58R,0.027600X0.009800*%
%ADD59R,0.009800X0.027600*%
%ADD60R,0.039400X0.013800*%
%ADD61R,0.013800X0.039400*%
%ADD62R,0.047200X0.055100*%
%ADD63R,0.055100X0.027600*%
%ADD64R,0.019700X0.019700*%
%ADD65R,0.013800X0.051200*%
%ADD66C,0.005000*%
%ADD67C,0.001500*%
%ADD68C,0.001000*%
%ADD69C,0.001200*%
%ADD70C,0.000800*%
%ADD71C,0.003100*%
%ADD72C,0.012000*%
G04 APERTURE END LIST*
G54D10*
X48819Y-32756D02*
X48583Y-32992D01*
X48819Y-32756D02*
X48740Y-32756D01*
X07433Y-09850D02*
X07433Y-21350D01*
X07433Y-21350D02*
X19433Y-21350D01*
X19433Y-21350D02*
X19433Y-09850D01*
X19433Y-09850D02*
X07433Y-09850D01*
X12933Y-08350D02*
X12433Y-07850D01*
X12433Y-07850D02*
X12433Y-05350D01*
X12433Y-05350D02*
X08933Y-05350D01*
X08933Y-05350D02*
X08933Y-07850D01*
X08933Y-07850D02*
X08433Y-08350D01*
X10433Y-08350D02*
X06933Y-08350D01*
X06933Y-08350D02*
X06433Y-08850D01*
X06433Y-08850D02*
X06433Y-21350D01*
X06433Y-21350D02*
X06933Y-21850D01*
X06933Y-21850D02*
X19933Y-21850D01*
X19933Y-21850D02*
X20433Y-21350D01*
X20433Y-21350D02*
X20433Y-08850D01*
X20433Y-08850D02*
X19933Y-08350D01*
X19933Y-08350D02*
X10433Y-08350D01*
X09646Y-07047D02*
X11220Y-07047D01*
X11122Y-07047D02*
X11122Y-05866D01*
X11220Y-05866D02*
X09646Y-05866D01*
X09744Y-05866D02*
X09744Y-07047D01*
G54D67*
X11909Y-05866D02*
X11909Y-07047D01*
X12402Y-07047D02*
X12402Y-08228D01*
X12402Y-08228D02*
X09252Y-08228D01*
G54D68*
X03169Y-17401D02*
X03159Y-17495D01*
X03159Y-17495D02*
X03129Y-17585D01*
X03129Y-17585D02*
X03082Y-17667D01*
X03082Y-17667D02*
X03019Y-17737D01*
X03019Y-17737D02*
X02942Y-17793D01*
X02942Y-17793D02*
X02855Y-17831D01*
X02855Y-17831D02*
X02763Y-17851D01*
X02763Y-17851D02*
X02669Y-17851D01*
X02669Y-17851D02*
X02577Y-17831D01*
X02577Y-17831D02*
X02490Y-17793D01*
X02490Y-17793D02*
X02413Y-17737D01*
X02413Y-17737D02*
X02350Y-17667D01*
X02350Y-17667D02*
X02303Y-17585D01*
X02303Y-17585D02*
X02273Y-17495D01*
X02273Y-17495D02*
X02263Y-17401D01*
X02263Y-17401D02*
X02273Y-17307D01*
X02273Y-17307D02*
X02303Y-17217D01*
X02303Y-17217D02*
X02350Y-17135D01*
X02350Y-17135D02*
X02413Y-17065D01*
X02413Y-17065D02*
X02490Y-17009D01*
X02490Y-17009D02*
X02577Y-16971D01*
X02577Y-16971D02*
X02669Y-16951D01*
X02669Y-16951D02*
X02763Y-16951D01*
X02763Y-16951D02*
X02855Y-16971D01*
X02855Y-16971D02*
X02942Y-17009D01*
X02942Y-17009D02*
X03019Y-17065D01*
X03019Y-17065D02*
X03082Y-17135D01*
X03082Y-17135D02*
X03129Y-17217D01*
X03129Y-17217D02*
X03159Y-17307D01*
X03159Y-17307D02*
X03169Y-17401D01*
X03169Y-12677D02*
X03159Y-12771D01*
X03159Y-12771D02*
X03129Y-12861D01*
X03129Y-12861D02*
X03082Y-12943D01*
X03082Y-12943D02*
X03019Y-13013D01*
X03019Y-13013D02*
X02942Y-13069D01*
X02942Y-13069D02*
X02855Y-13107D01*
X02855Y-13107D02*
X02763Y-13127D01*
X02763Y-13127D02*
X02669Y-13127D01*
X02669Y-13127D02*
X02577Y-13107D01*
X02577Y-13107D02*
X02490Y-13069D01*
X02490Y-13069D02*
X02413Y-13013D01*
X02413Y-13013D02*
X02350Y-12943D01*
X02350Y-12943D02*
X02303Y-12861D01*
X02303Y-12861D02*
X02273Y-12771D01*
X02273Y-12771D02*
X02263Y-12677D01*
X02263Y-12677D02*
X02273Y-12583D01*
X02273Y-12583D02*
X02303Y-12493D01*
X02303Y-12493D02*
X02350Y-12411D01*
X02350Y-12411D02*
X02413Y-12341D01*
X02413Y-12341D02*
X02490Y-12285D01*
X02490Y-12285D02*
X02577Y-12247D01*
X02577Y-12247D02*
X02669Y-12227D01*
X02669Y-12227D02*
X02763Y-12227D01*
X02763Y-12227D02*
X02855Y-12247D01*
X02855Y-12247D02*
X02942Y-12285D01*
X02942Y-12285D02*
X03019Y-12341D01*
X03019Y-12341D02*
X03082Y-12411D01*
X03082Y-12411D02*
X03129Y-12493D01*
X03129Y-12493D02*
X03159Y-12583D01*
X03159Y-12583D02*
X03169Y-12677D01*
X02066Y-01575D02*
X02055Y-01677D01*
X02055Y-01677D02*
X02023Y-01775D01*
X02023Y-01775D02*
X01972Y-01864D01*
X01972Y-01864D02*
X01903Y-01940D01*
X01903Y-01940D02*
X01820Y-02001D01*
X01820Y-02001D02*
X01726Y-02042D01*
X01726Y-02042D02*
X01625Y-02064D01*
X01625Y-02064D02*
X01523Y-02064D01*
X01523Y-02064D02*
X01422Y-02042D01*
X01422Y-02042D02*
X01328Y-02001D01*
X01328Y-02001D02*
X01245Y-01940D01*
X01245Y-01940D02*
X01176Y-01864D01*
X01176Y-01864D02*
X01125Y-01775D01*
X01125Y-01775D02*
X01093Y-01677D01*
X01093Y-01677D02*
X01082Y-01575D01*
X01082Y-01575D02*
X01093Y-01473D01*
X01093Y-01473D02*
X01125Y-01375D01*
X01125Y-01375D02*
X01176Y-01286D01*
X01176Y-01286D02*
X01245Y-01210D01*
X01245Y-01210D02*
X01328Y-01149D01*
X01328Y-01149D02*
X01422Y-01108D01*
X01422Y-01108D02*
X01523Y-01086D01*
X01523Y-01086D02*
X01625Y-01086D01*
X01625Y-01086D02*
X01726Y-01108D01*
X01726Y-01108D02*
X01820Y-01149D01*
X01820Y-01149D02*
X01903Y-01210D01*
X01903Y-01210D02*
X01972Y-01286D01*
X01972Y-01286D02*
X02023Y-01375D01*
X02023Y-01375D02*
X02055Y-01473D01*
X02055Y-01473D02*
X02066Y-01575D01*
X48523Y-01575D02*
X48512Y-01677D01*
X48512Y-01677D02*
X48480Y-01775D01*
X48480Y-01775D02*
X48429Y-01864D01*
X48429Y-01864D02*
X48360Y-01940D01*
X48360Y-01940D02*
X48277Y-02001D01*
X48277Y-02001D02*
X48183Y-02042D01*
X48183Y-02042D02*
X48082Y-02064D01*
X48082Y-02064D02*
X47980Y-02064D01*
X47980Y-02064D02*
X47879Y-02042D01*
X47879Y-02042D02*
X47785Y-02001D01*
X47785Y-02001D02*
X47702Y-01940D01*
X47702Y-01940D02*
X47633Y-01864D01*
X47633Y-01864D02*
X47582Y-01775D01*
X47582Y-01775D02*
X47550Y-01677D01*
X47550Y-01677D02*
X47539Y-01575D01*
X47539Y-01575D02*
X47550Y-01473D01*
X47550Y-01473D02*
X47582Y-01375D01*
X47582Y-01375D02*
X47633Y-01286D01*
X47633Y-01286D02*
X47702Y-01210D01*
X47702Y-01210D02*
X47785Y-01149D01*
X47785Y-01149D02*
X47879Y-01108D01*
X47879Y-01108D02*
X47980Y-01086D01*
X47980Y-01086D02*
X48082Y-01086D01*
X48082Y-01086D02*
X48183Y-01108D01*
X48183Y-01108D02*
X48277Y-01149D01*
X48277Y-01149D02*
X48360Y-01210D01*
X48360Y-01210D02*
X48429Y-01286D01*
X48429Y-01286D02*
X48480Y-01375D01*
X48480Y-01375D02*
X48512Y-01473D01*
X48512Y-01473D02*
X48523Y-01575D01*
X48523Y-31496D02*
X48512Y-31598D01*
X48512Y-31598D02*
X48480Y-31696D01*
X48480Y-31696D02*
X48429Y-31785D01*
X48429Y-31785D02*
X48360Y-31861D01*
X48360Y-31861D02*
X48277Y-31922D01*
X48277Y-31922D02*
X48183Y-31963D01*
X48183Y-31963D02*
X48082Y-31985D01*
X48082Y-31985D02*
X47980Y-31985D01*
X47980Y-31985D02*
X47879Y-31963D01*
X47879Y-31963D02*
X47785Y-31922D01*
X47785Y-31922D02*
X47702Y-31861D01*
X47702Y-31861D02*
X47633Y-31785D01*
X47633Y-31785D02*
X47582Y-31696D01*
X47582Y-31696D02*
X47550Y-31598D01*
X47550Y-31598D02*
X47539Y-31496D01*
X47539Y-31496D02*
X47550Y-31394D01*
X47550Y-31394D02*
X47582Y-31296D01*
X47582Y-31296D02*
X47633Y-31207D01*
X47633Y-31207D02*
X47702Y-31131D01*
X47702Y-31131D02*
X47785Y-31070D01*
X47785Y-31070D02*
X47879Y-31029D01*
X47879Y-31029D02*
X47980Y-31007D01*
X47980Y-31007D02*
X48082Y-31007D01*
X48082Y-31007D02*
X48183Y-31029D01*
X48183Y-31029D02*
X48277Y-31070D01*
X48277Y-31070D02*
X48360Y-31131D01*
X48360Y-31131D02*
X48429Y-31207D01*
X48429Y-31207D02*
X48480Y-31296D01*
X48480Y-31296D02*
X48512Y-31394D01*
X48512Y-31394D02*
X48523Y-31496D01*
X02066Y-31496D02*
X02055Y-31598D01*
X02055Y-31598D02*
X02023Y-31696D01*
X02023Y-31696D02*
X01972Y-31785D01*
X01972Y-31785D02*
X01903Y-31861D01*
X01903Y-31861D02*
X01820Y-31922D01*
X01820Y-31922D02*
X01726Y-31963D01*
X01726Y-31963D02*
X01625Y-31985D01*
X01625Y-31985D02*
X01523Y-31985D01*
X01523Y-31985D02*
X01422Y-31963D01*
X01422Y-31963D02*
X01328Y-31922D01*
X01328Y-31922D02*
X01245Y-31861D01*
X01245Y-31861D02*
X01176Y-31785D01*
X01176Y-31785D02*
X01125Y-31696D01*
X01125Y-31696D02*
X01093Y-31598D01*
X01093Y-31598D02*
X01082Y-31496D01*
X01082Y-31496D02*
X01093Y-31394D01*
X01093Y-31394D02*
X01125Y-31296D01*
X01125Y-31296D02*
X01176Y-31207D01*
X01176Y-31207D02*
X01245Y-31131D01*
X01245Y-31131D02*
X01328Y-31070D01*
X01328Y-31070D02*
X01422Y-31029D01*
X01422Y-31029D02*
X01523Y-31007D01*
X01523Y-31007D02*
X01625Y-31007D01*
X01625Y-31007D02*
X01726Y-31029D01*
X01726Y-31029D02*
X01820Y-31070D01*
X01820Y-31070D02*
X01903Y-31131D01*
X01903Y-31131D02*
X01972Y-31207D01*
X01972Y-31207D02*
X02023Y-31296D01*
X02023Y-31296D02*
X02055Y-31394D01*
X02055Y-31394D02*
X02066Y-31496D01*
X29626Y-01575D02*
X29615Y-01677D01*
X29615Y-01677D02*
X29583Y-01775D01*
X29583Y-01775D02*
X29532Y-01864D01*
X29532Y-01864D02*
X29463Y-01940D01*
X29463Y-01940D02*
X29380Y-02001D01*
X29380Y-02001D02*
X29286Y-02042D01*
X29286Y-02042D02*
X29185Y-02064D01*
X29185Y-02064D02*
X29083Y-02064D01*
X29083Y-02064D02*
X28982Y-02042D01*
X28982Y-02042D02*
X28888Y-02001D01*
X28888Y-02001D02*
X28805Y-01940D01*
X28805Y-01940D02*
X28736Y-01864D01*
X28736Y-01864D02*
X28685Y-01775D01*
X28685Y-01775D02*
X28653Y-01677D01*
X28653Y-01677D02*
X28642Y-01575D01*
X28642Y-01575D02*
X28653Y-01473D01*
X28653Y-01473D02*
X28685Y-01375D01*
X28685Y-01375D02*
X28736Y-01286D01*
X28736Y-01286D02*
X28805Y-01210D01*
X28805Y-01210D02*
X28888Y-01149D01*
X28888Y-01149D02*
X28982Y-01108D01*
X28982Y-01108D02*
X29083Y-01086D01*
X29083Y-01086D02*
X29185Y-01086D01*
X29185Y-01086D02*
X29286Y-01108D01*
X29286Y-01108D02*
X29380Y-01149D01*
X29380Y-01149D02*
X29463Y-01210D01*
X29463Y-01210D02*
X29532Y-01286D01*
X29532Y-01286D02*
X29583Y-01375D01*
X29583Y-01375D02*
X29615Y-01473D01*
X29615Y-01473D02*
X29626Y-01575D01*
X28051Y-31496D02*
X28040Y-31598D01*
X28040Y-31598D02*
X28008Y-31696D01*
X28008Y-31696D02*
X27957Y-31785D01*
X27957Y-31785D02*
X27888Y-31861D01*
X27888Y-31861D02*
X27805Y-31922D01*
X27805Y-31922D02*
X27711Y-31963D01*
X27711Y-31963D02*
X27610Y-31985D01*
X27610Y-31985D02*
X27508Y-31985D01*
X27508Y-31985D02*
X27407Y-31963D01*
X27407Y-31963D02*
X27313Y-31922D01*
X27313Y-31922D02*
X27230Y-31861D01*
X27230Y-31861D02*
X27161Y-31785D01*
X27161Y-31785D02*
X27110Y-31696D01*
X27110Y-31696D02*
X27078Y-31598D01*
X27078Y-31598D02*
X27067Y-31496D01*
X27067Y-31496D02*
X27078Y-31394D01*
X27078Y-31394D02*
X27110Y-31296D01*
X27110Y-31296D02*
X27161Y-31207D01*
X27161Y-31207D02*
X27230Y-31131D01*
X27230Y-31131D02*
X27313Y-31070D01*
X27313Y-31070D02*
X27407Y-31029D01*
X27407Y-31029D02*
X27508Y-31007D01*
X27508Y-31007D02*
X27610Y-31007D01*
X27610Y-31007D02*
X27711Y-31029D01*
X27711Y-31029D02*
X27805Y-31070D01*
X27805Y-31070D02*
X27888Y-31131D01*
X27888Y-31131D02*
X27957Y-31207D01*
X27957Y-31207D02*
X28008Y-31296D01*
X28008Y-31296D02*
X28040Y-31394D01*
X28040Y-31394D02*
X28051Y-31496D01*
G54D69*
X27293Y-19924D02*
X27301Y-19930D01*
X27301Y-19930D02*
X27338Y-19930D01*
X27338Y-19930D02*
X27346Y-19924D01*
X27346Y-19924D02*
X27346Y-19877D01*
X27346Y-19877D02*
X27338Y-19870D01*
X27338Y-19870D02*
X27301Y-19870D01*
X27301Y-19870D02*
X27293Y-19877D01*
X27260Y-19930D02*
X27268Y-19924D01*
X27268Y-19924D02*
X27268Y-19904D01*
X27268Y-19904D02*
X27260Y-19897D01*
X27260Y-19897D02*
X27223Y-19897D01*
X27223Y-19897D02*
X27215Y-19890D01*
X27215Y-19890D02*
X27215Y-19877D01*
X27215Y-19877D02*
X27223Y-19870D01*
X27223Y-19870D02*
X27260Y-19870D01*
X27260Y-19870D02*
X27268Y-19877D01*
X27268Y-19877D02*
X27268Y-19890D01*
X27268Y-19890D02*
X27260Y-19897D01*
X27223Y-19897D02*
X27215Y-19904D01*
X27215Y-19904D02*
X27215Y-19924D01*
X27215Y-19924D02*
X27223Y-19930D01*
X27223Y-19930D02*
X27260Y-19930D01*
X27190Y-19870D02*
X27137Y-19870D01*
X27137Y-19870D02*
X27190Y-19930D01*
X17132Y-07116D02*
X17138Y-07108D01*
X17138Y-07108D02*
X17138Y-07071D01*
X17138Y-07071D02*
X17132Y-07063D01*
X17132Y-07063D02*
X17085Y-07063D01*
X17085Y-07063D02*
X17078Y-07071D01*
X17078Y-07071D02*
X17078Y-07108D01*
X17078Y-07108D02*
X17085Y-07116D01*
X17085Y-07194D02*
X17078Y-07186D01*
X17078Y-07186D02*
X17078Y-07149D01*
X17078Y-07149D02*
X17085Y-07141D01*
X17085Y-07141D02*
X17132Y-07141D01*
X17132Y-07141D02*
X17138Y-07149D01*
X17138Y-07149D02*
X17138Y-07186D01*
X17138Y-07186D02*
X17132Y-07194D01*
X17132Y-07194D02*
X17112Y-07194D01*
X17112Y-07194D02*
X17105Y-07186D01*
X17105Y-07186D02*
X17105Y-07149D01*
X17105Y-07149D02*
X17112Y-07141D01*
X17138Y-07272D02*
X17138Y-07219D01*
X17138Y-07219D02*
X17118Y-07219D01*
X17118Y-07219D02*
X17112Y-07227D01*
X17112Y-07227D02*
X17112Y-07264D01*
X17112Y-07264D02*
X17105Y-07272D01*
X17105Y-07272D02*
X17085Y-07272D01*
X17085Y-07272D02*
X17078Y-07264D01*
X17078Y-07264D02*
X17078Y-07227D01*
X17078Y-07227D02*
X17085Y-07219D01*
X15560Y-09137D02*
X15568Y-09143D01*
X15568Y-09143D02*
X15605Y-09143D01*
X15605Y-09143D02*
X15613Y-09137D01*
X15613Y-09137D02*
X15613Y-09090D01*
X15613Y-09090D02*
X15605Y-09083D01*
X15605Y-09083D02*
X15568Y-09083D01*
X15568Y-09083D02*
X15560Y-09090D01*
X15482Y-09090D02*
X15490Y-09083D01*
X15490Y-09083D02*
X15527Y-09083D01*
X15527Y-09083D02*
X15535Y-09090D01*
X15535Y-09090D02*
X15535Y-09137D01*
X15535Y-09137D02*
X15527Y-09143D01*
X15527Y-09143D02*
X15490Y-09143D01*
X15490Y-09143D02*
X15482Y-09137D01*
X15482Y-09137D02*
X15482Y-09117D01*
X15482Y-09117D02*
X15490Y-09110D01*
X15490Y-09110D02*
X15527Y-09110D01*
X15527Y-09110D02*
X15535Y-09117D01*
X15457Y-09143D02*
X15404Y-09083D01*
X15457Y-09137D02*
X15457Y-09090D01*
X15457Y-09090D02*
X15449Y-09083D01*
X15449Y-09083D02*
X15412Y-09083D01*
X15412Y-09083D02*
X15404Y-09090D01*
X15404Y-09090D02*
X15404Y-09137D01*
X15404Y-09137D02*
X15412Y-09143D01*
X15412Y-09143D02*
X15449Y-09143D01*
X15449Y-09143D02*
X15457Y-09137D01*
X14537Y-09137D02*
X14545Y-09143D01*
X14545Y-09143D02*
X14582Y-09143D01*
X14582Y-09143D02*
X14590Y-09137D01*
X14590Y-09137D02*
X14590Y-09090D01*
X14590Y-09090D02*
X14582Y-09083D01*
X14582Y-09083D02*
X14545Y-09083D01*
X14545Y-09083D02*
X14537Y-09090D01*
X14474Y-09143D02*
X14474Y-09083D01*
X14474Y-09083D02*
X14512Y-09130D01*
X14512Y-09130D02*
X14459Y-09130D01*
X14434Y-09143D02*
X14381Y-09083D01*
X14434Y-09137D02*
X14434Y-09090D01*
X14434Y-09090D02*
X14426Y-09083D01*
X14426Y-09083D02*
X14389Y-09083D01*
X14389Y-09083D02*
X14381Y-09090D01*
X14381Y-09090D02*
X14381Y-09137D01*
X14381Y-09137D02*
X14389Y-09143D01*
X14389Y-09143D02*
X14426Y-09143D01*
X14426Y-09143D02*
X14434Y-09137D01*
X13939Y-07116D02*
X13945Y-07108D01*
X13945Y-07108D02*
X13945Y-07071D01*
X13945Y-07071D02*
X13939Y-07063D01*
X13939Y-07063D02*
X13892Y-07063D01*
X13892Y-07063D02*
X13885Y-07071D01*
X13885Y-07071D02*
X13885Y-07108D01*
X13885Y-07108D02*
X13892Y-07116D01*
X13932Y-07141D02*
X13939Y-07141D01*
X13939Y-07141D02*
X13945Y-07149D01*
X13945Y-07149D02*
X13945Y-07186D01*
X13945Y-07186D02*
X13939Y-07194D01*
X13939Y-07194D02*
X13919Y-07194D01*
X13919Y-07194D02*
X13905Y-07179D01*
X13905Y-07179D02*
X13905Y-07141D01*
X13905Y-07141D02*
X13885Y-07141D01*
X13885Y-07141D02*
X13885Y-07194D01*
X13932Y-07219D02*
X13939Y-07219D01*
X13939Y-07219D02*
X13945Y-07227D01*
X13945Y-07227D02*
X13945Y-07264D01*
X13945Y-07264D02*
X13939Y-07272D01*
X13939Y-07272D02*
X13919Y-07272D01*
X13919Y-07272D02*
X13905Y-07257D01*
X13905Y-07257D02*
X13905Y-07219D01*
X13905Y-07219D02*
X13885Y-07219D01*
X13885Y-07219D02*
X13885Y-07272D01*
X21466Y-18313D02*
X21474Y-18319D01*
X21474Y-18319D02*
X21511Y-18319D01*
X21511Y-18319D02*
X21519Y-18313D01*
X21519Y-18313D02*
X21519Y-18266D01*
X21519Y-18266D02*
X21511Y-18259D01*
X21511Y-18259D02*
X21474Y-18259D01*
X21474Y-18259D02*
X21466Y-18266D01*
X21403Y-18319D02*
X21403Y-18259D01*
X21403Y-18259D02*
X21441Y-18306D01*
X21441Y-18306D02*
X21388Y-18306D01*
X21310Y-18266D02*
X21318Y-18259D01*
X21318Y-18259D02*
X21355Y-18259D01*
X21355Y-18259D02*
X21363Y-18266D01*
X21363Y-18266D02*
X21363Y-18313D01*
X21363Y-18313D02*
X21355Y-18319D01*
X21355Y-18319D02*
X21318Y-18319D01*
X21318Y-18319D02*
X21310Y-18313D01*
X21310Y-18313D02*
X21310Y-18293D01*
X21310Y-18293D02*
X21318Y-18286D01*
X21318Y-18286D02*
X21355Y-18286D01*
X21355Y-18286D02*
X21363Y-18293D01*
X20475Y-17510D02*
X20481Y-17502D01*
X20481Y-17502D02*
X20481Y-17465D01*
X20481Y-17465D02*
X20475Y-17457D01*
X20475Y-17457D02*
X20428Y-17457D01*
X20428Y-17457D02*
X20421Y-17465D01*
X20421Y-17465D02*
X20421Y-17502D01*
X20421Y-17502D02*
X20428Y-17510D01*
X20481Y-17573D02*
X20421Y-17573D01*
X20421Y-17573D02*
X20468Y-17535D01*
X20468Y-17535D02*
X20468Y-17588D01*
X20421Y-17613D02*
X20421Y-17666D01*
X20421Y-17666D02*
X20481Y-17613D01*
X13116Y-17431D02*
X13122Y-17423D01*
X13122Y-17423D02*
X13122Y-17386D01*
X13122Y-17386D02*
X13116Y-17378D01*
X13116Y-17378D02*
X13069Y-17378D01*
X13069Y-17378D02*
X13062Y-17386D01*
X13062Y-17386D02*
X13062Y-17423D01*
X13062Y-17423D02*
X13069Y-17431D01*
X13122Y-17494D02*
X13062Y-17494D01*
X13062Y-17494D02*
X13109Y-17456D01*
X13109Y-17456D02*
X13109Y-17509D01*
X13122Y-17542D02*
X13116Y-17534D01*
X13116Y-17534D02*
X13096Y-17534D01*
X13096Y-17534D02*
X13089Y-17542D01*
X13089Y-17542D02*
X13089Y-17579D01*
X13089Y-17579D02*
X13082Y-17587D01*
X13082Y-17587D02*
X13069Y-17587D01*
X13069Y-17587D02*
X13062Y-17579D01*
X13062Y-17579D02*
X13062Y-17542D01*
X13062Y-17542D02*
X13069Y-17534D01*
X13069Y-17534D02*
X13082Y-17534D01*
X13082Y-17534D02*
X13089Y-17542D01*
X13089Y-17579D02*
X13096Y-17587D01*
X13096Y-17587D02*
X13116Y-17587D01*
X13116Y-17587D02*
X13122Y-17579D01*
X13122Y-17579D02*
X13122Y-17542D01*
X10757Y-14927D02*
X10765Y-14933D01*
X10765Y-14933D02*
X10802Y-14933D01*
X10802Y-14933D02*
X10810Y-14927D01*
X10810Y-14927D02*
X10810Y-14880D01*
X10810Y-14880D02*
X10802Y-14873D01*
X10802Y-14873D02*
X10765Y-14873D01*
X10765Y-14873D02*
X10757Y-14880D01*
X10694Y-14933D02*
X10694Y-14873D01*
X10694Y-14873D02*
X10732Y-14920D01*
X10732Y-14920D02*
X10679Y-14920D01*
X10646Y-14933D02*
X10609Y-14933D01*
X10609Y-14933D02*
X10601Y-14927D01*
X10601Y-14927D02*
X10601Y-14880D01*
X10601Y-14880D02*
X10609Y-14873D01*
X10609Y-14873D02*
X10646Y-14873D01*
X10646Y-14873D02*
X10654Y-14880D01*
X10654Y-14880D02*
X10654Y-14900D01*
X10654Y-14900D02*
X10646Y-14907D01*
X10646Y-14907D02*
X10609Y-14907D01*
X10609Y-14907D02*
X10601Y-14900D01*
X18076Y-11290D02*
X18082Y-11282D01*
X18082Y-11282D02*
X18082Y-11245D01*
X18082Y-11245D02*
X18076Y-11237D01*
X18076Y-11237D02*
X18029Y-11237D01*
X18029Y-11237D02*
X18022Y-11245D01*
X18022Y-11245D02*
X18022Y-11282D01*
X18022Y-11282D02*
X18029Y-11290D01*
X18069Y-11315D02*
X18076Y-11315D01*
X18076Y-11315D02*
X18082Y-11323D01*
X18082Y-11323D02*
X18082Y-11360D01*
X18082Y-11360D02*
X18076Y-11368D01*
X18076Y-11368D02*
X18056Y-11368D01*
X18056Y-11368D02*
X18042Y-11353D01*
X18042Y-11353D02*
X18042Y-11315D01*
X18042Y-11315D02*
X18022Y-11315D01*
X18022Y-11315D02*
X18022Y-11368D01*
X18082Y-11408D02*
X18082Y-11438D01*
X18082Y-11423D02*
X18022Y-11423D01*
X18029Y-11423D02*
X18042Y-11408D01*
X15718Y-14570D02*
X15726Y-14576D01*
X15726Y-14576D02*
X15763Y-14576D01*
X15763Y-14576D02*
X15771Y-14570D01*
X15771Y-14570D02*
X15771Y-14523D01*
X15771Y-14523D02*
X15763Y-14516D01*
X15763Y-14516D02*
X15726Y-14516D01*
X15726Y-14516D02*
X15718Y-14523D01*
X15693Y-14563D02*
X15693Y-14570D01*
X15693Y-14570D02*
X15685Y-14576D01*
X15685Y-14576D02*
X15648Y-14576D01*
X15648Y-14576D02*
X15640Y-14570D01*
X15640Y-14570D02*
X15640Y-14550D01*
X15640Y-14550D02*
X15655Y-14536D01*
X15655Y-14536D02*
X15693Y-14536D01*
X15693Y-14536D02*
X15693Y-14516D01*
X15693Y-14516D02*
X15640Y-14516D01*
X15562Y-14576D02*
X15615Y-14576D01*
X15615Y-14576D02*
X15615Y-14556D01*
X15615Y-14556D02*
X15607Y-14550D01*
X15607Y-14550D02*
X15570Y-14550D01*
X15570Y-14550D02*
X15562Y-14543D01*
X15562Y-14543D02*
X15562Y-14523D01*
X15562Y-14523D02*
X15570Y-14516D01*
X15570Y-14516D02*
X15607Y-14516D01*
X15607Y-14516D02*
X15615Y-14523D01*
X15718Y-14297D02*
X15726Y-14303D01*
X15726Y-14303D02*
X15763Y-14303D01*
X15763Y-14303D02*
X15771Y-14297D01*
X15771Y-14297D02*
X15771Y-14250D01*
X15771Y-14250D02*
X15763Y-14243D01*
X15763Y-14243D02*
X15726Y-14243D01*
X15726Y-14243D02*
X15718Y-14250D01*
X15693Y-14290D02*
X15693Y-14297D01*
X15693Y-14297D02*
X15685Y-14303D01*
X15685Y-14303D02*
X15648Y-14303D01*
X15648Y-14303D02*
X15640Y-14297D01*
X15640Y-14297D02*
X15640Y-14277D01*
X15640Y-14277D02*
X15655Y-14263D01*
X15655Y-14263D02*
X15693Y-14263D01*
X15693Y-14263D02*
X15693Y-14243D01*
X15693Y-14243D02*
X15640Y-14243D01*
X15577Y-14303D02*
X15577Y-14243D01*
X15577Y-14243D02*
X15615Y-14290D01*
X15615Y-14290D02*
X15562Y-14290D01*
X19655Y-13116D02*
X19663Y-13122D01*
X19663Y-13122D02*
X19700Y-13122D01*
X19700Y-13122D02*
X19708Y-13116D01*
X19708Y-13116D02*
X19708Y-13069D01*
X19708Y-13069D02*
X19700Y-13062D01*
X19700Y-13062D02*
X19663Y-13062D01*
X19663Y-13062D02*
X19655Y-13069D01*
X19630Y-13062D02*
X19577Y-13062D01*
X19577Y-13062D02*
X19577Y-13069D01*
X19577Y-13069D02*
X19607Y-13089D01*
X19607Y-13089D02*
X19585Y-13089D01*
X19585Y-13089D02*
X19577Y-13096D01*
X19577Y-13096D02*
X19577Y-13116D01*
X19577Y-13116D02*
X19585Y-13122D01*
X19585Y-13122D02*
X19622Y-13122D01*
X19622Y-13122D02*
X19630Y-13116D01*
X19552Y-13062D02*
X19499Y-13062D01*
X19499Y-13062D02*
X19499Y-13069D01*
X19499Y-13069D02*
X19529Y-13089D01*
X19529Y-13089D02*
X19507Y-13089D01*
X19507Y-13089D02*
X19499Y-13096D01*
X19499Y-13096D02*
X19499Y-13116D01*
X19499Y-13116D02*
X19507Y-13122D01*
X19507Y-13122D02*
X19544Y-13122D01*
X19544Y-13122D02*
X19552Y-13116D01*
X18710Y-11814D02*
X18718Y-11820D01*
X18718Y-11820D02*
X18755Y-11820D01*
X18755Y-11820D02*
X18763Y-11814D01*
X18763Y-11814D02*
X18763Y-11767D01*
X18763Y-11767D02*
X18755Y-11760D01*
X18755Y-11760D02*
X18718Y-11760D01*
X18718Y-11760D02*
X18710Y-11767D01*
X18685Y-11760D02*
X18632Y-11760D01*
X18632Y-11760D02*
X18632Y-11767D01*
X18632Y-11767D02*
X18662Y-11787D01*
X18662Y-11787D02*
X18640Y-11787D01*
X18640Y-11787D02*
X18632Y-11794D01*
X18632Y-11794D02*
X18632Y-11814D01*
X18632Y-11814D02*
X18640Y-11820D01*
X18640Y-11820D02*
X18677Y-11820D01*
X18677Y-11820D02*
X18685Y-11814D01*
X18569Y-11820D02*
X18569Y-11760D01*
X18569Y-11760D02*
X18607Y-11807D01*
X18607Y-11807D02*
X18554Y-11807D01*
X12880Y-13022D02*
X12886Y-13014D01*
X12886Y-13014D02*
X12886Y-12977D01*
X12886Y-12977D02*
X12880Y-12969D01*
X12880Y-12969D02*
X12833Y-12969D01*
X12833Y-12969D02*
X12826Y-12977D01*
X12826Y-12977D02*
X12826Y-13014D01*
X12826Y-13014D02*
X12833Y-13022D01*
X12826Y-13047D02*
X12826Y-13100D01*
X12826Y-13100D02*
X12833Y-13100D01*
X12833Y-13100D02*
X12853Y-13070D01*
X12853Y-13070D02*
X12853Y-13092D01*
X12853Y-13092D02*
X12860Y-13100D01*
X12860Y-13100D02*
X12880Y-13100D01*
X12880Y-13100D02*
X12886Y-13092D01*
X12886Y-13092D02*
X12886Y-13055D01*
X12886Y-13055D02*
X12880Y-13047D01*
X12873Y-13125D02*
X12880Y-13125D01*
X12880Y-13125D02*
X12886Y-13133D01*
X12886Y-13133D02*
X12886Y-13170D01*
X12886Y-13170D02*
X12880Y-13178D01*
X12880Y-13178D02*
X12860Y-13178D01*
X12860Y-13178D02*
X12846Y-13163D01*
X12846Y-13163D02*
X12846Y-13125D01*
X12846Y-13125D02*
X12826Y-13125D01*
X12826Y-13125D02*
X12826Y-13178D01*
X16860Y-14097D02*
X16868Y-14103D01*
X16868Y-14103D02*
X16905Y-14103D01*
X16905Y-14103D02*
X16913Y-14097D01*
X16913Y-14097D02*
X16913Y-14050D01*
X16913Y-14050D02*
X16905Y-14043D01*
X16905Y-14043D02*
X16868Y-14043D01*
X16868Y-14043D02*
X16860Y-14050D01*
X16835Y-14043D02*
X16782Y-14043D01*
X16782Y-14043D02*
X16782Y-14050D01*
X16782Y-14050D02*
X16812Y-14070D01*
X16812Y-14070D02*
X16790Y-14070D01*
X16790Y-14070D02*
X16782Y-14077D01*
X16782Y-14077D02*
X16782Y-14097D01*
X16782Y-14097D02*
X16790Y-14103D01*
X16790Y-14103D02*
X16827Y-14103D01*
X16827Y-14103D02*
X16835Y-14097D01*
X16757Y-14043D02*
X16704Y-14043D01*
X16704Y-14043D02*
X16757Y-14103D01*
X15872Y-15857D02*
X15878Y-15849D01*
X15878Y-15849D02*
X15878Y-15812D01*
X15878Y-15812D02*
X15872Y-15804D01*
X15872Y-15804D02*
X15825Y-15804D01*
X15825Y-15804D02*
X15818Y-15812D01*
X15818Y-15812D02*
X15818Y-15849D01*
X15818Y-15849D02*
X15825Y-15857D01*
X15818Y-15882D02*
X15818Y-15935D01*
X15818Y-15935D02*
X15825Y-15935D01*
X15825Y-15935D02*
X15845Y-15905D01*
X15845Y-15905D02*
X15845Y-15927D01*
X15845Y-15927D02*
X15852Y-15935D01*
X15852Y-15935D02*
X15872Y-15935D01*
X15872Y-15935D02*
X15878Y-15927D01*
X15878Y-15927D02*
X15878Y-15890D01*
X15878Y-15890D02*
X15872Y-15882D01*
X15878Y-15968D02*
X15872Y-15960D01*
X15872Y-15960D02*
X15852Y-15960D01*
X15852Y-15960D02*
X15845Y-15968D01*
X15845Y-15968D02*
X15845Y-16005D01*
X15845Y-16005D02*
X15838Y-16013D01*
X15838Y-16013D02*
X15825Y-16013D01*
X15825Y-16013D02*
X15818Y-16005D01*
X15818Y-16005D02*
X15818Y-15968D01*
X15818Y-15968D02*
X15825Y-15960D01*
X15825Y-15960D02*
X15838Y-15960D01*
X15838Y-15960D02*
X15845Y-15968D01*
X15845Y-16005D02*
X15852Y-16013D01*
X15852Y-16013D02*
X15872Y-16013D01*
X15872Y-16013D02*
X15878Y-16005D01*
X15878Y-16005D02*
X15878Y-15968D01*
X15042Y-14360D02*
X15048Y-14352D01*
X15048Y-14352D02*
X15048Y-14315D01*
X15048Y-14315D02*
X15042Y-14307D01*
X15042Y-14307D02*
X14995Y-14307D01*
X14995Y-14307D02*
X14988Y-14315D01*
X14988Y-14315D02*
X14988Y-14352D01*
X14988Y-14352D02*
X14995Y-14360D01*
X14988Y-14385D02*
X14988Y-14438D01*
X14988Y-14438D02*
X14995Y-14438D01*
X14995Y-14438D02*
X15015Y-14408D01*
X15015Y-14408D02*
X15015Y-14430D01*
X15015Y-14430D02*
X15022Y-14438D01*
X15022Y-14438D02*
X15042Y-14438D01*
X15042Y-14438D02*
X15048Y-14430D01*
X15048Y-14430D02*
X15048Y-14393D01*
X15048Y-14393D02*
X15042Y-14385D01*
X15048Y-14471D02*
X15048Y-14508D01*
X15048Y-14508D02*
X15042Y-14516D01*
X15042Y-14516D02*
X14995Y-14516D01*
X14995Y-14516D02*
X14988Y-14508D01*
X14988Y-14508D02*
X14988Y-14471D01*
X14988Y-14471D02*
X14995Y-14463D01*
X14995Y-14463D02*
X15015Y-14463D01*
X15015Y-14463D02*
X15022Y-14471D01*
X15022Y-14471D02*
X15022Y-14508D01*
X15022Y-14508D02*
X15015Y-14516D01*
X16581Y-15191D02*
X16589Y-15197D01*
X16589Y-15197D02*
X16626Y-15197D01*
X16626Y-15197D02*
X16634Y-15191D01*
X16634Y-15191D02*
X16634Y-15144D01*
X16634Y-15144D02*
X16626Y-15137D01*
X16626Y-15137D02*
X16589Y-15137D01*
X16589Y-15137D02*
X16581Y-15144D01*
X16541Y-15197D02*
X16511Y-15197D01*
X16526Y-15197D02*
X16526Y-15137D01*
X16526Y-15144D02*
X16541Y-15157D01*
X16463Y-15197D02*
X16433Y-15197D01*
X16448Y-15197D02*
X16448Y-15137D01*
X16448Y-15144D02*
X16463Y-15157D01*
X12136Y-16381D02*
X12144Y-16387D01*
X12144Y-16387D02*
X12181Y-16387D01*
X12181Y-16387D02*
X12189Y-16381D01*
X12189Y-16381D02*
X12189Y-16334D01*
X12189Y-16334D02*
X12181Y-16327D01*
X12181Y-16327D02*
X12144Y-16327D01*
X12144Y-16327D02*
X12136Y-16334D01*
X12111Y-16327D02*
X12058Y-16327D01*
X12058Y-16327D02*
X12111Y-16387D01*
X19222Y-18034D02*
X19230Y-18040D01*
X19230Y-18040D02*
X19267Y-18040D01*
X19267Y-18040D02*
X19275Y-18034D01*
X19275Y-18034D02*
X19275Y-17987D01*
X19275Y-17987D02*
X19267Y-17980D01*
X19267Y-17980D02*
X19230Y-17980D01*
X19230Y-17980D02*
X19222Y-17987D01*
X19197Y-18027D02*
X19197Y-18034D01*
X19197Y-18034D02*
X19189Y-18040D01*
X19189Y-18040D02*
X19152Y-18040D01*
X19152Y-18040D02*
X19144Y-18034D01*
X19144Y-18034D02*
X19144Y-18014D01*
X19144Y-18014D02*
X19159Y-18000D01*
X19159Y-18000D02*
X19197Y-18000D01*
X19197Y-18000D02*
X19197Y-17980D01*
X19197Y-17980D02*
X19144Y-17980D01*
X10081Y-09596D02*
X10087Y-09588D01*
X10087Y-09588D02*
X10087Y-09551D01*
X10087Y-09551D02*
X10081Y-09543D01*
X10081Y-09543D02*
X10034Y-09543D01*
X10034Y-09543D02*
X10027Y-09551D01*
X10027Y-09551D02*
X10027Y-09588D01*
X10027Y-09588D02*
X10034Y-09596D01*
X10087Y-09629D02*
X10081Y-09621D01*
X10081Y-09621D02*
X10061Y-09621D01*
X10061Y-09621D02*
X10054Y-09629D01*
X10054Y-09629D02*
X10054Y-09666D01*
X10054Y-09666D02*
X10047Y-09674D01*
X10047Y-09674D02*
X10034Y-09674D01*
X10034Y-09674D02*
X10027Y-09666D01*
X10027Y-09666D02*
X10027Y-09629D01*
X10027Y-09629D02*
X10034Y-09621D01*
X10034Y-09621D02*
X10047Y-09621D01*
X10047Y-09621D02*
X10054Y-09629D01*
X10054Y-09666D02*
X10061Y-09674D01*
X10061Y-09674D02*
X10081Y-09674D01*
X10081Y-09674D02*
X10087Y-09666D01*
X10087Y-09666D02*
X10087Y-09629D01*
X08152Y-06683D02*
X08158Y-06675D01*
X08158Y-06675D02*
X08158Y-06638D01*
X08158Y-06638D02*
X08152Y-06630D01*
X08152Y-06630D02*
X08105Y-06630D01*
X08105Y-06630D02*
X08098Y-06638D01*
X08098Y-06638D02*
X08098Y-06675D01*
X08098Y-06675D02*
X08105Y-06683D01*
X08098Y-06708D02*
X08098Y-06761D01*
X08098Y-06761D02*
X08158Y-06708D01*
X08098Y-06786D02*
X08098Y-06839D01*
X08098Y-06839D02*
X08105Y-06839D01*
X08105Y-06839D02*
X08125Y-06809D01*
X08125Y-06809D02*
X08125Y-06831D01*
X08125Y-06831D02*
X08132Y-06839D01*
X08132Y-06839D02*
X08152Y-06839D01*
X08152Y-06839D02*
X08158Y-06831D01*
X08158Y-06831D02*
X08158Y-06794D01*
X08158Y-06794D02*
X08152Y-06786D01*
X12880Y-11920D02*
X12886Y-11912D01*
X12886Y-11912D02*
X12886Y-11875D01*
X12886Y-11875D02*
X12880Y-11867D01*
X12880Y-11867D02*
X12833Y-11867D01*
X12833Y-11867D02*
X12826Y-11875D01*
X12826Y-11875D02*
X12826Y-11912D01*
X12826Y-11912D02*
X12833Y-11920D01*
X12833Y-11998D02*
X12826Y-11990D01*
X12826Y-11990D02*
X12826Y-11953D01*
X12826Y-11953D02*
X12833Y-11945D01*
X12833Y-11945D02*
X12880Y-11945D01*
X12880Y-11945D02*
X12886Y-11953D01*
X12886Y-11953D02*
X12886Y-11990D01*
X12886Y-11990D02*
X12880Y-11998D01*
X12880Y-11998D02*
X12860Y-11998D01*
X12860Y-11998D02*
X12853Y-11990D01*
X12853Y-11990D02*
X12853Y-11953D01*
X12853Y-11953D02*
X12860Y-11945D01*
X12873Y-12023D02*
X12880Y-12023D01*
X12880Y-12023D02*
X12886Y-12031D01*
X12886Y-12031D02*
X12886Y-12068D01*
X12886Y-12068D02*
X12880Y-12076D01*
X12880Y-12076D02*
X12860Y-12076D01*
X12860Y-12076D02*
X12846Y-12061D01*
X12846Y-12061D02*
X12846Y-12023D01*
X12846Y-12023D02*
X12826Y-12023D01*
X12826Y-12023D02*
X12826Y-12076D01*
X16974Y-20030D02*
X16980Y-20022D01*
X16980Y-20022D02*
X16980Y-19985D01*
X16980Y-19985D02*
X16974Y-19977D01*
X16974Y-19977D02*
X16927Y-19977D01*
X16927Y-19977D02*
X16920Y-19985D01*
X16920Y-19985D02*
X16920Y-20022D01*
X16920Y-20022D02*
X16927Y-20030D01*
X16920Y-20055D02*
X16920Y-20108D01*
X16920Y-20108D02*
X16980Y-20055D01*
X16980Y-20186D02*
X16980Y-20133D01*
X16980Y-20133D02*
X16960Y-20133D01*
X16960Y-20133D02*
X16954Y-20141D01*
X16954Y-20141D02*
X16954Y-20178D01*
X16954Y-20178D02*
X16947Y-20186D01*
X16947Y-20186D02*
X16927Y-20186D01*
X16927Y-20186D02*
X16920Y-20178D01*
X16920Y-20178D02*
X16920Y-20141D01*
X16920Y-20141D02*
X16927Y-20133D01*
X15714Y-19794D02*
X15720Y-19786D01*
X15720Y-19786D02*
X15720Y-19749D01*
X15720Y-19749D02*
X15714Y-19741D01*
X15714Y-19741D02*
X15667Y-19741D01*
X15667Y-19741D02*
X15660Y-19749D01*
X15660Y-19749D02*
X15660Y-19786D01*
X15660Y-19786D02*
X15667Y-19794D01*
X15660Y-19819D02*
X15660Y-19872D01*
X15660Y-19872D02*
X15720Y-19819D01*
X15720Y-19912D02*
X15720Y-19942D01*
X15720Y-19927D02*
X15660Y-19927D01*
X15667Y-19927D02*
X15680Y-19912D01*
X17719Y-18376D02*
X17725Y-18368D01*
X17725Y-18368D02*
X17725Y-18331D01*
X17725Y-18331D02*
X17719Y-18323D01*
X17719Y-18323D02*
X17672Y-18323D01*
X17672Y-18323D02*
X17665Y-18331D01*
X17665Y-18331D02*
X17665Y-18368D01*
X17665Y-18368D02*
X17672Y-18376D01*
X17712Y-18401D02*
X17719Y-18401D01*
X17719Y-18401D02*
X17725Y-18409D01*
X17725Y-18409D02*
X17725Y-18446D01*
X17725Y-18446D02*
X17719Y-18454D01*
X17719Y-18454D02*
X17699Y-18454D01*
X17699Y-18454D02*
X17685Y-18439D01*
X17685Y-18439D02*
X17685Y-18401D01*
X17685Y-18401D02*
X17665Y-18401D01*
X17665Y-18401D02*
X17665Y-18454D01*
X17725Y-18479D02*
X17665Y-18532D01*
X17719Y-18479D02*
X17672Y-18479D01*
X17672Y-18479D02*
X17665Y-18487D01*
X17665Y-18487D02*
X17665Y-18524D01*
X17665Y-18524D02*
X17672Y-18532D01*
X17672Y-18532D02*
X17719Y-18532D01*
X17719Y-18532D02*
X17725Y-18524D01*
X17725Y-18524D02*
X17725Y-18487D01*
X17725Y-18487D02*
X17719Y-18479D01*
X21577Y-12667D02*
X21583Y-12659D01*
X21583Y-12659D02*
X21583Y-12622D01*
X21583Y-12622D02*
X21577Y-12614D01*
X21577Y-12614D02*
X21530Y-12614D01*
X21530Y-12614D02*
X21523Y-12622D01*
X21523Y-12622D02*
X21523Y-12659D01*
X21523Y-12659D02*
X21530Y-12667D01*
X21523Y-12692D02*
X21523Y-12745D01*
X21523Y-12745D02*
X21530Y-12745D01*
X21530Y-12745D02*
X21550Y-12715D01*
X21550Y-12715D02*
X21550Y-12737D01*
X21550Y-12737D02*
X21557Y-12745D01*
X21557Y-12745D02*
X21577Y-12745D01*
X21577Y-12745D02*
X21583Y-12737D01*
X21583Y-12737D02*
X21583Y-12700D01*
X21583Y-12700D02*
X21577Y-12692D01*
G54D70*
X14687Y-06165D02*
X14695Y-06171D01*
X14695Y-06171D02*
X14732Y-06171D01*
X14732Y-06171D02*
X14739Y-06165D01*
X14739Y-06165D02*
X14739Y-06119D01*
X14739Y-06119D02*
X14732Y-06112D01*
X14732Y-06112D02*
X14695Y-06112D01*
X14695Y-06112D02*
X14687Y-06119D01*
X14629Y-06171D02*
X14629Y-06112D01*
X14629Y-06112D02*
X14666Y-06158D01*
X14666Y-06158D02*
X14614Y-06158D01*
X14541Y-06171D02*
X14593Y-06171D01*
X14593Y-06171D02*
X14593Y-06152D01*
X14593Y-06152D02*
X14586Y-06145D01*
X14586Y-06145D02*
X14549Y-06145D01*
X14549Y-06145D02*
X14541Y-06139D01*
X14541Y-06139D02*
X14541Y-06119D01*
X14541Y-06119D02*
X14549Y-06112D01*
X14549Y-06112D02*
X14586Y-06112D01*
X14586Y-06112D02*
X14593Y-06119D01*
X15298Y-07281D02*
X15304Y-07273D01*
X15304Y-07273D02*
X15304Y-07236D01*
X15304Y-07236D02*
X15298Y-07229D01*
X15298Y-07229D02*
X15252Y-07229D01*
X15252Y-07229D02*
X15245Y-07236D01*
X15245Y-07236D02*
X15245Y-07273D01*
X15245Y-07273D02*
X15252Y-07281D01*
X15252Y-07354D02*
X15245Y-07346D01*
X15245Y-07346D02*
X15245Y-07309D01*
X15245Y-07309D02*
X15252Y-07302D01*
X15252Y-07302D02*
X15298Y-07302D01*
X15298Y-07302D02*
X15304Y-07309D01*
X15304Y-07309D02*
X15304Y-07346D01*
X15304Y-07346D02*
X15298Y-07354D01*
X15298Y-07354D02*
X15278Y-07354D01*
X15278Y-07354D02*
X15272Y-07346D01*
X15272Y-07346D02*
X15272Y-07309D01*
X15272Y-07309D02*
X15278Y-07302D01*
X15245Y-07375D02*
X15245Y-07427D01*
X15245Y-07427D02*
X15252Y-07427D01*
X15252Y-07427D02*
X15272Y-07397D01*
X15272Y-07397D02*
X15272Y-07419D01*
X15272Y-07419D02*
X15278Y-07427D01*
X15278Y-07427D02*
X15298Y-07427D01*
X15298Y-07427D02*
X15304Y-07419D01*
X15304Y-07419D02*
X15304Y-07382D01*
X15304Y-07382D02*
X15298Y-07375D01*
G54D71*
X08834Y-06028D02*
X09010Y-06028D01*
X09010Y-06028D02*
X09031Y-06053D01*
X09031Y-06053D02*
X09031Y-06176D01*
X09031Y-06176D02*
X09010Y-06201D01*
X09010Y-06201D02*
X08834Y-06201D01*
X08834Y-06277D02*
X08834Y-06450D01*
X08834Y-06450D02*
X08856Y-06450D01*
X08856Y-06450D02*
X08922Y-06351D01*
X08922Y-06351D02*
X08922Y-06425D01*
X08922Y-06425D02*
X08944Y-06450D01*
X08944Y-06450D02*
X09010Y-06450D01*
X09010Y-06450D02*
X09031Y-06425D01*
X09031Y-06425D02*
X09031Y-06302D01*
X09031Y-06302D02*
X09010Y-06277D01*
X09031Y-06649D02*
X08834Y-06649D01*
X08834Y-06649D02*
X08988Y-06526D01*
X08988Y-06526D02*
X08988Y-06699D01*
G54D72*
X10859Y-07534D02*
X10859Y-08134D01*
X10859Y-08134D02*
X10259Y-08134D01*
X09548Y-08068D02*
X09623Y-08134D01*
X09623Y-08134D02*
X09998Y-08134D01*
X09998Y-08134D02*
X10073Y-08068D01*
X10073Y-08068D02*
X10073Y-07601D01*
X10073Y-07601D02*
X09998Y-07534D01*
X09998Y-07534D02*
X09623Y-07534D01*
X09623Y-07534D02*
X09548Y-07601D01*
X09212Y-08134D02*
X09212Y-07534D01*
X09287Y-07534D02*
X08837Y-07534D01*
X08837Y-07534D02*
X08762Y-07601D01*
X08762Y-07601D02*
X08762Y-08068D01*
X08762Y-08068D02*
X08837Y-08134D01*
X08837Y-08134D02*
X09287Y-08134D01*
G54D70*
X16125Y-19921D02*
X16131Y-19913D01*
X16131Y-19913D02*
X16131Y-19876D01*
X16131Y-19876D02*
X16125Y-19869D01*
X16125Y-19869D02*
X16079Y-19869D01*
X16079Y-19869D02*
X16072Y-19876D01*
X16072Y-19876D02*
X16072Y-19913D01*
X16072Y-19913D02*
X16079Y-19921D01*
X16131Y-19994D02*
X16131Y-19942D01*
X16131Y-19942D02*
X16112Y-19942D01*
X16112Y-19942D02*
X16105Y-19949D01*
X16105Y-19949D02*
X16105Y-19986D01*
X16105Y-19986D02*
X16099Y-19994D01*
X16099Y-19994D02*
X16079Y-19994D01*
X16079Y-19994D02*
X16072Y-19986D01*
X16072Y-19986D02*
X16072Y-19949D01*
X16072Y-19949D02*
X16079Y-19942D01*
X16131Y-20030D02*
X16131Y-20059D01*
X16131Y-20044D02*
X16072Y-20044D01*
X16079Y-20044D02*
X16092Y-20030D01*
X16131Y-20125D02*
X16072Y-20125D01*
X16072Y-20125D02*
X16118Y-20088D01*
X16118Y-20088D02*
X16118Y-20140D01*
M02*
