G04 (Genere par PCBNEW (20080506 SVN-R1059)) le 23/5/2008-17:18:48*
G01*
G70*
G90*
%MOIN*%
G04 Gerber Fmt 3.4, Leading zero omitted, Abs format*
%FSLAX34Y34*%
G04 APERTURE LIST*
%ADD10R,0.025700X0.029600*%
%ADD11R,0.023600X0.019700*%
%ADD12R,0.035400X0.023600*%
%ADD13R,0.027600X0.037400*%
%ADD14R,0.037400X0.027600*%
%ADD15C,0.063000*%
%ADD16C,0.059100*%
%ADD17C,0.055100*%
%ADD18C,0.114200*%
%ADD19C,0.090600*%
%ADD20C,0.126000*%
%ADD21C,0.066900*%
%ADD22R,0.043300X0.009800*%
%ADD23C,0.098400*%
%ADD24C,0.025000*%
%ADD25C,0.023600*%
%ADD26C,0.015700*%
%ADD27C,0.019700*%
%ADD28C,0.004900*%
%ADD29C,0.007900*%
%ADD30C,0.017000*%
%ADD31C,0.011800*%
%ADD32C,0.005900*%
%ADD33C,0.039400*%
%ADD34C,0.003900*%
%ADD35C,0.004700*%
%ADD36C,0.015700*%
%ADD37C,0.002500*%
%ADD38R,0.019700X0.023600*%
%ADD39R,0.023600X0.035400*%
%ADD40R,0.015700X0.011800*%
%ADD41R,0.046100X0.055100*%
%ADD42R,0.063000X0.035400*%
%ADD43R,0.049200X0.082700*%
%ADD44R,0.035400X0.031500*%
%ADD45R,0.149600X0.066900*%
%ADD46R,0.096500X0.065000*%
%ADD47R,0.017700X0.027600*%
%ADD48R,0.016500X0.023600*%
%ADD49R,0.031500X0.027600*%
%ADD50R,0.033500X0.023600*%
%ADD51R,0.055100X0.019700*%
%ADD52R,0.027600X0.055100*%
%ADD53R,0.078700X0.019700*%
%ADD54R,0.023600X0.033500*%
%ADD55R,0.023600X0.042000*%
%ADD56R,0.042000X0.023600*%
%ADD57R,0.027600X0.012800*%
%ADD58R,0.027600X0.009800*%
%ADD59R,0.009800X0.027600*%
%ADD60R,0.039400X0.013800*%
%ADD61R,0.013800X0.039400*%
%ADD62R,0.047200X0.055100*%
%ADD63R,0.055100X0.027600*%
%ADD64R,0.019700X0.019700*%
%ADD65R,0.013800X0.051200*%
%ADD66C,0.005000*%
%ADD67C,0.001500*%
%ADD68C,0.001200*%
%ADD69C,0.000800*%
%ADD70C,0.002000*%
%ADD71C,0.003100*%
%ADD72C,0.003400*%
%ADD73C,0.012000*%
%ADD74C,0.015000*%
%ADD75C,0.001600*%
%ADD76C,0.002800*%
%ADD77C,0.002400*%
%ADD78R,0.043600X0.039700*%
%ADD79R,0.055400X0.043600*%
%ADD80R,0.047600X0.057400*%
%ADD81R,0.057400X0.047600*%
%ADD82C,0.083000*%
%ADD83C,0.079100*%
%ADD84C,0.075100*%
%ADD85C,0.134200*%
%ADD86C,0.110600*%
%ADD87C,0.146000*%
%ADD88C,0.086900*%
%ADD89R,0.063300X0.029800*%
%ADD90C,0.118400*%
%ADD91R,0.043600X0.055400*%
%ADD92R,0.035700X0.031800*%
%ADD93R,0.066100X0.075100*%
%ADD94R,0.083000X0.055400*%
%ADD95R,0.069200X0.102700*%
%ADD96R,0.055400X0.051500*%
%ADD97R,0.169600X0.086900*%
%ADD98C,0.035700*%
%ADD99R,0.116500X0.085000*%
%ADD100R,0.037700X0.047600*%
%ADD101R,0.036500X0.043600*%
%ADD102R,0.051500X0.047600*%
%ADD103R,0.053500X0.043600*%
%ADD104R,0.075100X0.039700*%
%ADD105R,0.047600X0.075100*%
%ADD106R,0.098700X0.039700*%
%ADD107R,0.043600X0.053500*%
%ADD108R,0.043600X0.062000*%
%ADD109R,0.062000X0.043600*%
%ADD110R,0.047600X0.032800*%
%ADD111R,0.047600X0.029800*%
%ADD112R,0.029800X0.047600*%
%ADD113R,0.059400X0.033800*%
%ADD114R,0.033800X0.059400*%
%ADD115R,0.067200X0.075100*%
%ADD116R,0.075100X0.047600*%
%ADD117R,0.039700X0.039700*%
%ADD118R,0.033800X0.071200*%
%ADD119C,0.024000*%
%ADD120C,0.010000*%
%ADD121C,0.020000*%
%ADD122C,0.008000*%
%ADD123R,0.029600X0.025700*%
%ADD124R,0.041400X0.029600*%
%ADD125R,0.033600X0.043400*%
%ADD126R,0.043400X0.033600*%
%ADD127C,0.069000*%
%ADD128C,0.065100*%
%ADD129C,0.061100*%
%ADD130C,0.120200*%
%ADD131C,0.096600*%
%ADD132C,0.132000*%
%ADD133C,0.072900*%
%ADD134C,0.104400*%
G04 APERTURE END LIST*
G54D10*
X27047Y-20000D03*
X27441Y-20000D03*
G54D123*
X17008Y-06968D03*
X17008Y-07362D03*
G54D10*
X15314Y-09213D03*
X15708Y-09213D03*
X14291Y-09213D03*
X14685Y-09213D03*
G54D123*
X14015Y-07362D03*
X14015Y-06968D03*
G54D10*
X21614Y-18189D03*
X21220Y-18189D03*
G54D123*
X20551Y-17756D03*
X20551Y-17362D03*
X12992Y-17283D03*
X12992Y-17677D03*
G54D10*
X10905Y-14803D03*
X10511Y-14803D03*
G54D123*
X17952Y-11142D03*
X17952Y-11536D03*
G54D10*
X15472Y-14646D03*
X15866Y-14646D03*
X15866Y-14173D03*
X15472Y-14173D03*
X19803Y-12992D03*
X19409Y-12992D03*
X18464Y-11890D03*
X18858Y-11890D03*
G54D123*
X12756Y-12874D03*
X12756Y-13268D03*
G54D10*
X16614Y-14173D03*
X17008Y-14173D03*
G54D123*
X15748Y-15709D03*
X15748Y-16103D03*
X15118Y-14606D03*
X15118Y-14212D03*
G54D10*
X16729Y-15067D03*
X16335Y-15067D03*
X11929Y-16457D03*
X12323Y-16457D03*
X19015Y-18110D03*
X19409Y-18110D03*
G54D123*
X10157Y-09803D03*
X10157Y-09409D03*
X08228Y-06929D03*
X08228Y-06535D03*
X12756Y-11772D03*
X12756Y-12166D03*
X16850Y-19882D03*
X16850Y-20276D03*
X15590Y-19646D03*
X15590Y-20040D03*
G54D124*
X17795Y-18130D03*
X17795Y-18720D03*
X21653Y-12382D03*
X21653Y-12972D03*
G54D125*
X14980Y-06142D03*
X14310Y-06142D03*
G54D126*
X15275Y-07658D03*
X15275Y-06988D03*
G54D127*
X25098Y-31917D03*
X24098Y-31917D03*
X23098Y-31917D03*
X22098Y-31917D03*
X21098Y-31917D03*
X20098Y-31917D03*
X25098Y-30917D03*
X24098Y-30917D03*
X23098Y-30917D03*
X22098Y-30917D03*
X21098Y-30917D03*
X05799Y-10610D03*
X05799Y-09610D03*
X05799Y-08610D03*
X05799Y-07610D03*
X05799Y-06610D03*
X05799Y-05610D03*
X06799Y-10610D03*
X06799Y-09610D03*
X06799Y-08610D03*
X06799Y-07610D03*
X06799Y-06610D03*
X29807Y-17214D03*
X29807Y-16387D03*
X06614Y-20394D03*
X06614Y-19567D03*
X20078Y-18898D03*
X19251Y-18898D03*
X21574Y-21732D03*
X21574Y-20905D03*
X10314Y-04725D03*
X10314Y-03898D03*
X16141Y-02362D03*
X17141Y-02362D03*
X29763Y-15276D03*
X29763Y-14276D03*
X02126Y-23465D03*
X01126Y-23465D03*
X08346Y-03859D03*
X08346Y-04859D03*
G54D128*
X46907Y-05314D03*
X47907Y-05314D03*
X46907Y-06314D03*
X47907Y-06314D03*
X46907Y-07314D03*
X47907Y-07314D03*
X46907Y-08314D03*
X47907Y-08314D03*
X46907Y-09314D03*
X47907Y-09314D03*
X46907Y-10314D03*
X47907Y-10314D03*
X46907Y-11314D03*
X47907Y-11314D03*
X46907Y-12314D03*
X47907Y-12314D03*
X46901Y-20831D03*
X47901Y-20831D03*
X46901Y-21831D03*
X47901Y-21831D03*
X46901Y-22831D03*
X47901Y-22831D03*
X46901Y-23831D03*
X47901Y-23831D03*
X46901Y-24831D03*
X47901Y-24831D03*
X46901Y-25831D03*
X47901Y-25831D03*
X46901Y-26831D03*
X47901Y-26831D03*
X46901Y-27831D03*
X47901Y-27831D03*
G54D129*
X27807Y-13414D03*
X26807Y-13414D03*
X25807Y-13414D03*
X25807Y-17414D03*
X26807Y-17414D03*
X27807Y-17414D03*
G54D127*
X07815Y-02335D03*
X08815Y-02335D03*
X09815Y-02335D03*
X10815Y-02335D03*
X11815Y-02335D03*
X12815Y-02335D03*
X13815Y-02335D03*
X06370Y-22784D03*
X06370Y-21784D03*
X07370Y-22784D03*
X07370Y-21784D03*
X08370Y-22784D03*
X08370Y-21784D03*
X09370Y-22784D03*
X09370Y-21784D03*
X10370Y-22784D03*
X10370Y-21784D03*
X11370Y-22784D03*
X11370Y-21784D03*
X12370Y-22784D03*
X12370Y-21784D03*
X23149Y-23992D03*
X23149Y-22992D03*
X23149Y-20992D03*
X23149Y-19992D03*
X23149Y-18992D03*
X23149Y-17992D03*
X23149Y-16992D03*
X23149Y-21992D03*
X03447Y-10606D03*
X03447Y-09606D03*
X03447Y-07606D03*
X03447Y-06606D03*
X03447Y-05606D03*
X03447Y-04606D03*
X03447Y-03606D03*
X03447Y-08606D03*
G54D130*
X13936Y-25906D03*
X19212Y-25906D03*
G54D128*
X15145Y-24839D03*
X16129Y-24839D03*
X16916Y-24839D03*
X17901Y-24839D03*
G54D131*
X02716Y-17401D03*
X02716Y-12677D03*
G54D128*
X04622Y-15236D03*
X04622Y-14447D03*
X03622Y-14842D03*
X03622Y-14053D03*
X03622Y-15631D03*
X04622Y-16025D03*
G54D132*
X01943Y-26102D03*
G54D133*
X04669Y-25543D03*
X05760Y-25543D03*
X06850Y-25543D03*
X07941Y-25543D03*
X09032Y-25543D03*
X05215Y-26661D03*
X06305Y-26661D03*
X07396Y-26661D03*
X08486Y-26661D03*
G54D132*
X11782Y-26102D03*
G36*
X11762Y-06929D02*
X11270Y-06929D01*
X11270Y-06771D01*
X11762Y-06771D01*
G37*
G36*
X11762Y-06732D02*
X11270Y-06732D01*
X11270Y-06574D01*
X11762Y-06574D01*
G37*
G36*
X11762Y-06535D02*
X11270Y-06535D01*
X11270Y-06377D01*
X11762Y-06377D01*
G37*
G36*
X11762Y-06338D02*
X11270Y-06338D01*
X11270Y-06180D01*
X11762Y-06180D01*
G37*
G36*
X11762Y-06142D02*
X11270Y-06142D01*
X11270Y-05984D01*
X11762Y-05984D01*
G37*
G36*
X09596Y-06142D02*
X09104Y-06142D01*
X09104Y-05984D01*
X09596Y-05984D01*
G37*
G36*
X09596Y-06338D02*
X09104Y-06338D01*
X09104Y-06180D01*
X09596Y-06180D01*
G37*
G36*
X09596Y-06535D02*
X09104Y-06535D01*
X09104Y-06377D01*
X09596Y-06377D01*
G37*
G36*
X09596Y-06732D02*
X09104Y-06732D01*
X09104Y-06574D01*
X09596Y-06574D01*
G37*
G36*
X09596Y-06929D02*
X09104Y-06929D01*
X09104Y-06771D01*
X09596Y-06771D01*
G37*
G54D126*
X16102Y-19665D03*
X16102Y-20335D03*
G54D132*
X26377Y-05985D03*
X21877Y-05985D03*
G54D133*
X27180Y-07186D03*
X21076Y-07186D03*
G54D128*
X26737Y-04387D03*
X21517Y-04387D03*
X25737Y-04387D03*
X22517Y-04387D03*
X25877Y-08485D03*
X25377Y-09485D03*
X24877Y-08485D03*
X24377Y-09485D03*
X23877Y-08485D03*
X23377Y-09485D03*
X22877Y-08485D03*
X22377Y-09485D03*
G54D134*
X01574Y-01575D03*
X48031Y-01575D03*
X48031Y-31496D03*
X01574Y-31496D03*
X29134Y-01575D03*
X27559Y-31496D03*
G54D127*
X00866Y-19134D03*
X00866Y-20134D03*
X03858Y-19134D03*
X04858Y-19134D03*
X46980Y-16365D03*
X47980Y-16365D03*
M02*
