G04 (Genere par PCBNEW (20080311-r876)) le 26/3/2008-04:50:19*
G01*
G70*
G90*
%MOIN*%
G04 Gerber Fmt 3.4, Leading zero omitted, Abs format*
%FSLAX34Y34*%
G04 APERTURE LIST*
%ADD10R,0.019700X0.023600*%
%ADD11R,0.023600X0.019700*%
%ADD12R,0.035400X0.023600*%
%ADD13R,0.027600X0.037400*%
%ADD14R,0.037400X0.027600*%
%ADD15C,0.063000*%
%ADD16C,0.059100*%
%ADD17C,0.055100*%
%ADD18C,0.114200*%
%ADD19C,0.090600*%
%ADD20C,0.126000*%
%ADD21C,0.066900*%
%ADD22R,0.043300X0.009800*%
%ADD23C,0.098400*%
%ADD24C,0.025000*%
%ADD25C,0.023600*%
%ADD26C,0.015700*%
%ADD27C,0.019700*%
%ADD28C,0.004900*%
%ADD29C,0.007900*%
%ADD30C,0.017000*%
%ADD31C,0.011800*%
%ADD32C,0.005900*%
%ADD33C,0.039400*%
%ADD34C,0.003900*%
%ADD35C,0.004700*%
G04 APERTURE END LIST*
G54D10*
X27047Y-20000D03*
X27441Y-20000D03*
G54D11*
X17008Y-06968D03*
X17008Y-07362D03*
G54D10*
X15314Y-09213D03*
X15708Y-09213D03*
X14291Y-09213D03*
X14685Y-09213D03*
G54D11*
X14015Y-07362D03*
X14015Y-06968D03*
G54D10*
X21614Y-18189D03*
X21220Y-18189D03*
G54D11*
X20551Y-17756D03*
X20551Y-17362D03*
X12992Y-17283D03*
X12992Y-17677D03*
G54D10*
X10905Y-14803D03*
X10511Y-14803D03*
G54D11*
X17952Y-11142D03*
X17952Y-11536D03*
G54D10*
X15472Y-14646D03*
X15866Y-14646D03*
X15866Y-14173D03*
X15472Y-14173D03*
X19803Y-12992D03*
X19409Y-12992D03*
X18464Y-11890D03*
X18858Y-11890D03*
G54D11*
X12756Y-12874D03*
X12756Y-13268D03*
G54D10*
X16614Y-14173D03*
X17008Y-14173D03*
G54D11*
X15748Y-15709D03*
X15748Y-16103D03*
X15118Y-14606D03*
X15118Y-14212D03*
G54D10*
X16729Y-15067D03*
X16335Y-15067D03*
X11929Y-16457D03*
X12323Y-16457D03*
X19015Y-18110D03*
X19409Y-18110D03*
G54D11*
X10157Y-09803D03*
X10157Y-09409D03*
X08228Y-06929D03*
X08228Y-06535D03*
X12756Y-11772D03*
X12756Y-12166D03*
X16850Y-19882D03*
X16850Y-20276D03*
X15590Y-19646D03*
X15590Y-20040D03*
G54D12*
X17795Y-18130D03*
X17795Y-18720D03*
X21653Y-12382D03*
X21653Y-12972D03*
G54D13*
X14980Y-06142D03*
X14310Y-06142D03*
G54D14*
X15275Y-07658D03*
X15275Y-06988D03*
G54D15*
X25098Y-31917D03*
X24098Y-31917D03*
X23098Y-31917D03*
X22098Y-31917D03*
X21098Y-31917D03*
X20098Y-31917D03*
X25098Y-30917D03*
X24098Y-30917D03*
X23098Y-30917D03*
X22098Y-30917D03*
X21098Y-30917D03*
X05799Y-10610D03*
X05799Y-09610D03*
X05799Y-08610D03*
X05799Y-07610D03*
X05799Y-06610D03*
X05799Y-05610D03*
X06799Y-10610D03*
X06799Y-09610D03*
X06799Y-08610D03*
X06799Y-07610D03*
X06799Y-06610D03*
X29807Y-17214D03*
X29807Y-16387D03*
X06614Y-20394D03*
X06614Y-19567D03*
X20078Y-18898D03*
X19251Y-18898D03*
X21574Y-21732D03*
X21574Y-20905D03*
X10314Y-04725D03*
X10314Y-03898D03*
X16141Y-02362D03*
X17141Y-02362D03*
X29763Y-15276D03*
X29763Y-14276D03*
X02126Y-23465D03*
X01126Y-23465D03*
X08346Y-03859D03*
X08346Y-04859D03*
G54D16*
X46907Y-05314D03*
X47907Y-05314D03*
X46907Y-06314D03*
X47907Y-06314D03*
X46907Y-07314D03*
X47907Y-07314D03*
X46907Y-08314D03*
X47907Y-08314D03*
X46907Y-09314D03*
X47907Y-09314D03*
X46907Y-10314D03*
X47907Y-10314D03*
X46907Y-11314D03*
X47907Y-11314D03*
X46907Y-12314D03*
X47907Y-12314D03*
X46901Y-20831D03*
X47901Y-20831D03*
X46901Y-21831D03*
X47901Y-21831D03*
X46901Y-22831D03*
X47901Y-22831D03*
X46901Y-23831D03*
X47901Y-23831D03*
X46901Y-24831D03*
X47901Y-24831D03*
X46901Y-25831D03*
X47901Y-25831D03*
X46901Y-26831D03*
X47901Y-26831D03*
X46901Y-27831D03*
X47901Y-27831D03*
G54D17*
X27807Y-13414D03*
X26807Y-13414D03*
X25807Y-13414D03*
X25807Y-17414D03*
X26807Y-17414D03*
X27807Y-17414D03*
G54D15*
X07815Y-02335D03*
X08815Y-02335D03*
X09815Y-02335D03*
X10815Y-02335D03*
X11815Y-02335D03*
X12815Y-02335D03*
X13815Y-02335D03*
X06370Y-22784D03*
X06370Y-21784D03*
X07370Y-22784D03*
X07370Y-21784D03*
X08370Y-22784D03*
X08370Y-21784D03*
X09370Y-22784D03*
X09370Y-21784D03*
X10370Y-22784D03*
X10370Y-21784D03*
X11370Y-22784D03*
X11370Y-21784D03*
X12370Y-22784D03*
X12370Y-21784D03*
X23149Y-23992D03*
X23149Y-22992D03*
X23149Y-20992D03*
X23149Y-19992D03*
X23149Y-18992D03*
X23149Y-17992D03*
X23149Y-16992D03*
X23149Y-21992D03*
X03464Y-10606D03*
X03464Y-09606D03*
X03464Y-07606D03*
X03464Y-06606D03*
X03464Y-05606D03*
X03464Y-04606D03*
X03464Y-03606D03*
X03464Y-08606D03*
G54D18*
X13936Y-25906D03*
X19212Y-25906D03*
G54D16*
X15145Y-24839D03*
X16129Y-24839D03*
X16916Y-24839D03*
X17901Y-24839D03*
G54D19*
X02716Y-17401D03*
X02716Y-12677D03*
G54D16*
X04622Y-15236D03*
X04622Y-14447D03*
X03622Y-14842D03*
X03622Y-14053D03*
X03622Y-15631D03*
X04622Y-16025D03*
G54D20*
X01943Y-26102D03*
G54D21*
X04669Y-25543D03*
X05760Y-25543D03*
X06850Y-25543D03*
X07941Y-25543D03*
X09032Y-25543D03*
X05215Y-26661D03*
X06305Y-26661D03*
X07396Y-26661D03*
X08486Y-26661D03*
G54D20*
X11782Y-26102D03*
G54D22*
X11516Y-06850D03*
X11516Y-06653D03*
X11516Y-06456D03*
X11516Y-06259D03*
X11516Y-06063D03*
X09350Y-06063D03*
X09350Y-06259D03*
X09350Y-06456D03*
X09350Y-06653D03*
X09350Y-06850D03*
G54D14*
X16102Y-19665D03*
X16102Y-20335D03*
G54D20*
X26377Y-05985D03*
X21877Y-05985D03*
G54D21*
X27180Y-07186D03*
X21076Y-07186D03*
G54D16*
X26737Y-04387D03*
X21517Y-04387D03*
X25737Y-04387D03*
X22517Y-04387D03*
X25877Y-08485D03*
X25377Y-09485D03*
X24877Y-08485D03*
X24377Y-09485D03*
X23877Y-08485D03*
X23377Y-09485D03*
X22877Y-08485D03*
X22377Y-09485D03*
G54D23*
X01574Y-01575D03*
X48031Y-01575D03*
X48031Y-31496D03*
X01574Y-31496D03*
X29134Y-01575D03*
X27559Y-31496D03*
G54D15*
X00866Y-19134D03*
X00866Y-20134D03*
X03858Y-19134D03*
X04858Y-19134D03*
G54D24*
X37322Y-06912D03*
X39330Y-07856D03*
X39291Y-05455D03*
X37046Y-02856D03*
X39251Y-01399D03*
X39251Y-03801D03*
X44015Y-00590D03*
X39330Y-09449D03*
X39330Y-11771D03*
X37440Y-10866D03*
X44015Y-31575D03*
X44015Y-30590D03*
X44015Y-29567D03*
X44015Y-28583D03*
X44015Y-27559D03*
X44015Y-26575D03*
X44015Y-25551D03*
X44015Y-24567D03*
X44015Y-23583D03*
X44015Y-22559D03*
X44015Y-21575D03*
X44015Y-20590D03*
X44015Y-19645D03*
X44015Y-18583D03*
X44015Y-17559D03*
X44015Y-16575D03*
X44015Y-15590D03*
X44015Y-14567D03*
X44015Y-13583D03*
X44015Y-12677D03*
X44015Y-11535D03*
X44015Y-10551D03*
X44015Y-09567D03*
X44015Y-08583D03*
X44015Y-07520D03*
X44015Y-06575D03*
X44015Y-05590D03*
X44015Y-04606D03*
X44015Y-03583D03*
X44015Y-02598D03*
X44015Y-01614D03*
X37322Y-14882D03*
X39369Y-15827D03*
X39369Y-13425D03*
X37401Y-30866D03*
X39330Y-29409D03*
X39330Y-31811D03*
X37243Y-26890D03*
X39369Y-25394D03*
X39330Y-27834D03*
X37283Y-22874D03*
X39330Y-21417D03*
X39330Y-23819D03*
X37283Y-18858D03*
X39369Y-17401D03*
X39330Y-19842D03*
G54D25*
X32992Y-16457D03*
X32992Y-17402D03*
X33149Y-18425D03*
X33149Y-02441D03*
X33149Y-10394D03*
X44015Y-32441D03*
X32519Y-25906D03*
X32126Y-26614D03*
G54D24*
X37952Y-05472D03*
X33582Y-06968D03*
X39330Y-06636D03*
X36653Y-05219D03*
X36377Y-06518D03*
X40511Y-05494D03*
X42165Y-06636D03*
X40511Y-07699D03*
X36220Y-02620D03*
X36613Y-03604D03*
X36693Y-01181D03*
X40511Y-01478D03*
X40550Y-03761D03*
X39330Y-02620D03*
X42243Y-02620D03*
X39330Y-10590D03*
X40511Y-09527D03*
X40550Y-11653D03*
X36613Y-11653D03*
X37007Y-09567D03*
X39330Y-14606D03*
X40511Y-13543D03*
X40511Y-15708D03*
X42243Y-14606D03*
X36613Y-15827D03*
X36377Y-14449D03*
X37007Y-13543D03*
X39369Y-18583D03*
X40511Y-17598D03*
X40511Y-19645D03*
X42204Y-18622D03*
X36259Y-22480D03*
X30472Y-29606D03*
X30826Y-05315D03*
X31574Y-07598D03*
X31456Y-02756D03*
X33897Y-16417D03*
X36731Y-17205D03*
X37008Y-21575D03*
X36889Y-20039D03*
X36889Y-24016D03*
X36928Y-27992D03*
X37008Y-25512D03*
X37008Y-29528D03*
X36928Y-31968D03*
X40511Y-29606D03*
X40511Y-31653D03*
X42322Y-30590D03*
X39369Y-30630D03*
X36180Y-26535D03*
X40511Y-27638D03*
X40511Y-25551D03*
X42322Y-26614D03*
X42283Y-22598D03*
X40511Y-21575D03*
X40511Y-23661D03*
X39330Y-22598D03*
X31889Y-10512D03*
X31810Y-18425D03*
X31141Y-23622D03*
X30787Y-31181D03*
X31968Y-21811D03*
X32007Y-05787D03*
G54D25*
X30000Y-18819D03*
X29134Y-18819D03*
X26771Y-20000D03*
X25197Y-19921D03*
X36220Y-10551D03*
X36456Y-30551D03*
X39291Y-26614D03*
X36220Y-18504D03*
X42204Y-10630D03*
X36614Y-07717D03*
X29291Y-30551D03*
X29763Y-22126D03*
X31968Y-13858D03*
X31338Y-15669D03*
X33543Y-18189D03*
X33700Y-23701D03*
X32992Y-25906D03*
X31417Y-26850D03*
X30157Y-26299D03*
X30157Y-25906D03*
X31889Y-26142D03*
X29212Y-17953D03*
X28897Y-17953D03*
X26929Y-19134D03*
X25275Y-19449D03*
G54D24*
X41023Y-10630D03*
X41102Y-14567D03*
X41102Y-18661D03*
X33936Y-17401D03*
G54D25*
X29370Y-21496D03*
X31889Y-31181D03*
X31574Y-22913D03*
X41260Y-02598D03*
X41181Y-06614D03*
X41102Y-22598D03*
X37401Y-20945D03*
X37637Y-25039D03*
X37401Y-16929D03*
X37401Y-12992D03*
X37401Y-08976D03*
X37401Y-04961D03*
X37401Y-00945D03*
X41102Y-26614D03*
X41023Y-30630D03*
X37716Y-29055D03*
X31210Y-14931D03*
X31213Y-06936D03*
X33543Y-25906D03*
X29370Y-26142D03*
X31811Y-25197D03*
X26693Y-20551D03*
X27008Y-20551D03*
X27008Y-20866D03*
X26693Y-20866D03*
G54D24*
X38031Y-01417D03*
X34409Y-04606D03*
X30275Y-27283D03*
X30472Y-30000D03*
G54D25*
X31338Y-25748D03*
X30708Y-24567D03*
G54D24*
X38031Y-13425D03*
X33542Y-15000D03*
X35747Y-11929D03*
X37991Y-09449D03*
X37991Y-21457D03*
X33582Y-22992D03*
X35668Y-19960D03*
X38031Y-17441D03*
X37952Y-29409D03*
X33582Y-30984D03*
X34330Y-28386D03*
X37991Y-25433D03*
G54D25*
X27716Y-20000D03*
X10334Y-13740D03*
X19133Y-06221D03*
X18031Y-06299D03*
X13543Y-22284D03*
X17874Y-20866D03*
X15826Y-21339D03*
X13858Y-20709D03*
X14094Y-20394D03*
X14724Y-21024D03*
X15117Y-22441D03*
X16692Y-23780D03*
X17637Y-09292D03*
X18661Y-08583D03*
X18661Y-07952D03*
X18661Y-09055D03*
X19369Y-07166D03*
X19763Y-10315D03*
X19763Y-09528D03*
X15669Y-05748D03*
X16614Y-05670D03*
X14409Y-04016D03*
X13779Y-03701D03*
X13464Y-06851D03*
X13464Y-07559D03*
X11653Y-07284D03*
X12283Y-05984D03*
X08897Y-05670D03*
X08661Y-06535D03*
X11732Y-17953D03*
X10393Y-17481D03*
X10472Y-19134D03*
X12283Y-20945D03*
X02519Y-21575D03*
X02913Y-21575D03*
X02204Y-21575D03*
X05196Y-21417D03*
X05511Y-21417D03*
X04881Y-21417D03*
X21653Y-22913D03*
X09449Y-19291D03*
X14094Y-23465D03*
X04095Y-23543D03*
X09370Y-12205D03*
X07795Y-12913D03*
X18031Y-10394D03*
X24173Y-27165D03*
X21023Y-25591D03*
X23700Y-14961D03*
X23700Y-14095D03*
X12992Y-17953D03*
X15275Y-19449D03*
X24409Y-26142D03*
X24882Y-22126D03*
X24803Y-25197D03*
X24960Y-29606D03*
X26299Y-27087D03*
X24173Y-28661D03*
X12441Y-12913D03*
X02284Y-19921D03*
X24173Y-12598D03*
X12677Y-03622D03*
X18031Y-06929D03*
X18031Y-07402D03*
X19055Y-07717D03*
G54D26*
X16299Y-10709D03*
G54D25*
X09842Y-06457D03*
X17441Y-05709D03*
X19685Y-05315D03*
X17086Y-19921D03*
X07795Y-14409D03*
X07401Y-15512D03*
X08897Y-06535D03*
X11102Y-07087D03*
X10157Y-08976D03*
G54D26*
X15118Y-13858D03*
X14803Y-14173D03*
X14488Y-14173D03*
X14488Y-14803D03*
X16063Y-14803D03*
X14803Y-15433D03*
X14803Y-15118D03*
X15433Y-15433D03*
X16063Y-15433D03*
X16378Y-15433D03*
X16378Y-14488D03*
X16063Y-13858D03*
X16220Y-12284D03*
X19527Y-15433D03*
X19527Y-16063D03*
X17637Y-16693D03*
X20393Y-16535D03*
X21023Y-16535D03*
X20315Y-15118D03*
X20315Y-15748D03*
X17637Y-12284D03*
X14488Y-15748D03*
G54D25*
X14882Y-17795D03*
X15275Y-04016D03*
X13937Y-05906D03*
X14960Y-05748D03*
X12677Y-08189D03*
X17008Y-06693D03*
X15275Y-06693D03*
X14015Y-06693D03*
X15275Y-09528D03*
X14567Y-09528D03*
G54D26*
X15118Y-14803D03*
G54D25*
X18110Y-18110D03*
X20551Y-17087D03*
X20945Y-18189D03*
G54D26*
X21023Y-13701D03*
X22283Y-12992D03*
G54D25*
X20078Y-12992D03*
G54D26*
X21653Y-12756D03*
G54D25*
X16063Y-19370D03*
X12756Y-11496D03*
X13464Y-10945D03*
X12126Y-09606D03*
X17952Y-11732D03*
G54D26*
X14173Y-13543D03*
G54D25*
X10236Y-14882D03*
X11653Y-16772D03*
G54D26*
X16378Y-14173D03*
X15669Y-11024D03*
G54D25*
X10826Y-13740D03*
X09685Y-14803D03*
X11260Y-13858D03*
X10157Y-10079D03*
X15275Y-20158D03*
X17086Y-20315D03*
X23228Y-15039D03*
X23228Y-14095D03*
X22126Y-24331D03*
X24409Y-25748D03*
X25590Y-26378D03*
X23937Y-27953D03*
X07244Y-04961D03*
X23149Y-12913D03*
X20157Y-11654D03*
G54D26*
X14803Y-14488D03*
X15118Y-15433D03*
X15748Y-15433D03*
X15118Y-13543D03*
X18504Y-13701D03*
X16693Y-14803D03*
X16378Y-15748D03*
X16378Y-14803D03*
X16693Y-13858D03*
X19527Y-15118D03*
X20315Y-15433D03*
X19527Y-15748D03*
X19291Y-16614D03*
X18504Y-16535D03*
X20393Y-16221D03*
X16063Y-12913D03*
X16693Y-13228D03*
X16693Y-13543D03*
X13858Y-16693D03*
X14409Y-17087D03*
X13228Y-16693D03*
G54D25*
X07637Y-11732D03*
G54D26*
X14488Y-16063D03*
G54D25*
X12283Y-04409D03*
X09134Y-11654D03*
X07716Y-15118D03*
X09055Y-15118D03*
X07086Y-16535D03*
X07480Y-17165D03*
X09449Y-16850D03*
X11260Y-17008D03*
X11181Y-18898D03*
G54D26*
X12756Y-12441D03*
G54D25*
X19685Y-18110D03*
X21653Y-18425D03*
X20551Y-18110D03*
G54D26*
X21653Y-12126D03*
G54D25*
X15748Y-20394D03*
G54D26*
X14173Y-14173D03*
X12756Y-13465D03*
G54D25*
X13464Y-10000D03*
X12126Y-08819D03*
X19291Y-11890D03*
X19134Y-12992D03*
X11181Y-14882D03*
X11181Y-20630D03*
X08189Y-20472D03*
X07086Y-13858D03*
X12362Y-16063D03*
G54D26*
X15905Y-11024D03*
G54D25*
X11653Y-05354D03*
X11968Y-05669D03*
X03149Y-21024D03*
X01731Y-22047D03*
X06850Y-03701D03*
X08504Y-11969D03*
X09606Y-13386D03*
G54D26*
X13858Y-14803D03*
G54D25*
X11260Y-15669D03*
X05118Y-05354D03*
X09134Y-13071D03*
X06929Y-11890D03*
X14094Y-18425D03*
G54D26*
X11574Y-14803D03*
X16299Y-08976D03*
X15433Y-12598D03*
G54D25*
X13621Y-06221D03*
G54D26*
X15748Y-09528D03*
G54D25*
X17559Y-04252D03*
X15669Y-04016D03*
X15354Y-04961D03*
X19370Y-06693D03*
X17008Y-07638D03*
X15275Y-07953D03*
X14330Y-07323D03*
X12126Y-08110D03*
X14015Y-09213D03*
X12834Y-05276D03*
X19606Y-11417D03*
X19685Y-05748D03*
X12441Y-04961D03*
X14567Y-04961D03*
X19291Y-10866D03*
X18110Y-10079D03*
X20078Y-08425D03*
X21023Y-08425D03*
X14173Y-04882D03*
X14252Y-05748D03*
G54D26*
X15039Y-08819D03*
X15511Y-10551D03*
G54D25*
X05670Y-22362D03*
X04489Y-22598D03*
X02126Y-22362D03*
X02993Y-22441D03*
X07716Y-20472D03*
G54D26*
X13858Y-15748D03*
X16693Y-11969D03*
G54D25*
X08740Y-13701D03*
G54D26*
X16693Y-12913D03*
G54D25*
X07323Y-12126D03*
X09842Y-19843D03*
X08425Y-20158D03*
X24015Y-29291D03*
X24173Y-25354D03*
G54D26*
X14488Y-15118D03*
X15433Y-15118D03*
X16063Y-15118D03*
X14803Y-13858D03*
X15748Y-13858D03*
X16378Y-13858D03*
X16063Y-14173D03*
X17323Y-14173D03*
G54D25*
X17874Y-18976D03*
G54D26*
X15433Y-16063D03*
X21968Y-12126D03*
G54D25*
X18189Y-11181D03*
X09527Y-05748D03*
X11181Y-05984D03*
X07952Y-17008D03*
X11181Y-04252D03*
X10393Y-20394D03*
G54D26*
X13543Y-16378D03*
G54D25*
X09763Y-15906D03*
X11811Y-15827D03*
X10315Y-15669D03*
X02598Y-08740D03*
X12283Y-07480D03*
G54D26*
X16141Y-10866D03*
G54D25*
X08582Y-13386D03*
X23937Y-26535D03*
G54D26*
X14803Y-13543D03*
X15433Y-12913D03*
X13543Y-13543D03*
X21496Y-14882D03*
G54D25*
X05512Y-20394D03*
X03859Y-21732D03*
X03386Y-20709D03*
X03308Y-21969D03*
X08267Y-07244D03*
X15433Y-22677D03*
X14488Y-24173D03*
G54D26*
X15275Y-19843D03*
G54D25*
X20945Y-20000D03*
X20945Y-20236D03*
X09685Y-12913D03*
X09606Y-10945D03*
X07952Y-20158D03*
X19606Y-22992D03*
X09842Y-06850D03*
X46141Y-04331D03*
X46141Y-03858D03*
X46141Y-13386D03*
X46141Y-12913D03*
X46378Y-12441D03*
X46141Y-20315D03*
X46141Y-19843D03*
X46141Y-29370D03*
X46220Y-28898D03*
X46299Y-28346D03*
X10315Y-07323D03*
X24094Y-29764D03*
X23071Y-28583D03*
X08267Y-10315D03*
X08582Y-10315D03*
X08897Y-10315D03*
X09212Y-10315D03*
X09527Y-10315D03*
X05275Y-04016D03*
G54D26*
X13858Y-16378D03*
X13858Y-17008D03*
X13858Y-16063D03*
X14173Y-16378D03*
X15748Y-13228D03*
X13071Y-13386D03*
X14488Y-13543D03*
G54D25*
X21889Y-26221D03*
X24803Y-28110D03*
X23858Y-22284D03*
G54D26*
X13071Y-13071D03*
G54D25*
X24882Y-23622D03*
G54D26*
X15433Y-13228D03*
G54D25*
X24488Y-23307D03*
G54D26*
X14173Y-13228D03*
G54D25*
X24882Y-23071D03*
G54D26*
X16063Y-13228D03*
X12834Y-15433D03*
X13071Y-15276D03*
X13543Y-15118D03*
X14488Y-10236D03*
X13071Y-12756D03*
X16456Y-10315D03*
X13858Y-12913D03*
G54D25*
X16929Y-06142D03*
X18740Y-05906D03*
G54D26*
X16614Y-10158D03*
X14173Y-12913D03*
X14488Y-12913D03*
X13700Y-11890D03*
X16299Y-09291D03*
X15118Y-12598D03*
X20315Y-14803D03*
X17323Y-12913D03*
X22441Y-14331D03*
X17637Y-12913D03*
X20708Y-14646D03*
X14488Y-10866D03*
X13543Y-13228D03*
X14724Y-10866D03*
X13858Y-13228D03*
X14488Y-13228D03*
X16063Y-09528D03*
X14803Y-12913D03*
X16299Y-09528D03*
X14488Y-10472D03*
X14803Y-13228D03*
X16141Y-09134D03*
X15118Y-12913D03*
X15748Y-12913D03*
X18819Y-14646D03*
X17008Y-13228D03*
X17323Y-13228D03*
X19134Y-14961D03*
X16378Y-13228D03*
X18504Y-14961D03*
X17008Y-13543D03*
X18819Y-14961D03*
X17323Y-13543D03*
G54D25*
X22913Y-24646D03*
G54D26*
X14173Y-13858D03*
G54D25*
X22283Y-23780D03*
G54D26*
X14488Y-13858D03*
X17008Y-13858D03*
X18060Y-13719D03*
X13858Y-14173D03*
X13071Y-14331D03*
X10787Y-12441D03*
X13543Y-14488D03*
X13858Y-14488D03*
X10315Y-12284D03*
X14173Y-14488D03*
X15826Y-18110D03*
X14173Y-14803D03*
G54D25*
X08740Y-17874D03*
G54D26*
X21023Y-14961D03*
X17008Y-14488D03*
X18819Y-15276D03*
X17008Y-14803D03*
X14173Y-15433D03*
G54D25*
X14409Y-19134D03*
X14094Y-19134D03*
G54D26*
X14173Y-15118D03*
X16693Y-15433D03*
X19685Y-13543D03*
X17008Y-15118D03*
X20393Y-13701D03*
X18031Y-15512D03*
X17716Y-15276D03*
X14173Y-15748D03*
X13543Y-17402D03*
G54D25*
X11968Y-14409D03*
G54D26*
X14488Y-15433D03*
X17008Y-15433D03*
X20000Y-13701D03*
X20708Y-13701D03*
X17323Y-15433D03*
X21023Y-15906D03*
X14803Y-15748D03*
X15118Y-15748D03*
X20708Y-15591D03*
X15776Y-17047D03*
X19921Y-15748D03*
X15433Y-15748D03*
X18504Y-15591D03*
X16063Y-15748D03*
X19134Y-16221D03*
X21023Y-14016D03*
X17008Y-15748D03*
X19685Y-14173D03*
X17323Y-15748D03*
X14803Y-16063D03*
X14803Y-17402D03*
X17985Y-16687D03*
X15433Y-16378D03*
X18504Y-16221D03*
X16063Y-16063D03*
X17323Y-16063D03*
X21023Y-14331D03*
X17637Y-16063D03*
X20000Y-14331D03*
X20860Y-16695D03*
X21230Y-17165D03*
X15280Y-16755D03*
X16299Y-17874D03*
X18819Y-16772D03*
X18819Y-15591D03*
X16378Y-16693D03*
X19763Y-15276D03*
X16693Y-16693D03*
X18800Y-17025D03*
G54D24*
X30826Y-04645D03*
X29920Y-23110D03*
X30983Y-12598D03*
X29920Y-23622D03*
X29920Y-24094D03*
X30905Y-20630D03*
X30983Y-28504D03*
X29920Y-24606D03*
G54D25*
X10787Y-15906D03*
X08858Y-06181D03*
X08267Y-18583D03*
X05197Y-11969D03*
X07716Y-19213D03*
X09055Y-18661D03*
G54D26*
X11811Y-19291D03*
G54D25*
X12992Y-23701D03*
X12362Y-17008D03*
X11968Y-17008D03*
X12755Y-06063D03*
X12755Y-06457D03*
G54D27*
X04882Y-21417D02*
X05513Y-21417D01*
G54D28*
X16732Y-15079D02*
X16732Y-15039D01*
G54D29*
X38385Y-06912D02*
X37322Y-06912D01*
X37322Y-06912D02*
X37322Y-06912D01*
X38386Y-06912D02*
X38385Y-06912D01*
X39330Y-07856D02*
X38386Y-06912D01*
X38385Y-06361D02*
X38385Y-06912D01*
X39291Y-05455D02*
X38385Y-06361D01*
X37046Y-02874D02*
X37046Y-02856D01*
X37991Y-02874D02*
X37046Y-02874D01*
X39251Y-01614D02*
X37991Y-02874D01*
X39251Y-01399D02*
X39251Y-01614D01*
X37991Y-02874D02*
X38918Y-03801D01*
X39251Y-03801D02*
X38918Y-03801D01*
X38424Y-10827D02*
X38424Y-10354D01*
X38424Y-10354D02*
X38424Y-10355D01*
X39330Y-09449D02*
X38424Y-10355D01*
X39330Y-11771D02*
X38424Y-10865D01*
X38424Y-10865D02*
X38424Y-10827D01*
X37479Y-10827D02*
X38424Y-10827D01*
X37440Y-10866D02*
X37479Y-10827D01*
X38424Y-14882D02*
X38385Y-14882D01*
X38385Y-14882D02*
X37322Y-14882D01*
X39369Y-15827D02*
X38424Y-14882D01*
X38424Y-14843D02*
X38385Y-14882D01*
X38424Y-14370D02*
X38424Y-14843D01*
X39369Y-13425D02*
X38424Y-14370D01*
X37873Y-30866D02*
X37401Y-30866D01*
X39330Y-29409D02*
X37873Y-30866D01*
X38818Y-31811D02*
X37873Y-30866D01*
X39330Y-31811D02*
X38818Y-31811D01*
X37873Y-26890D02*
X37243Y-26890D01*
X39369Y-25394D02*
X37873Y-26890D01*
X37913Y-26890D02*
X37873Y-26890D01*
X38857Y-27834D02*
X37913Y-26890D01*
X39330Y-27834D02*
X38857Y-27834D01*
X37873Y-22874D02*
X37283Y-22874D01*
X39330Y-21417D02*
X37873Y-22874D01*
X37912Y-22874D02*
X37873Y-22874D01*
X38857Y-23819D02*
X37912Y-22874D01*
X39330Y-23819D02*
X38857Y-23819D01*
X37912Y-18858D02*
X37873Y-18858D01*
X37873Y-18858D02*
X37283Y-18858D01*
X39369Y-17401D02*
X37912Y-18858D01*
X38857Y-19842D02*
X37873Y-18858D01*
X39330Y-19842D02*
X38857Y-19842D01*
X37519Y-05905D02*
X37952Y-05472D01*
X34645Y-05905D02*
X37519Y-05905D01*
X33582Y-06968D02*
X34645Y-05905D01*
G54D30*
X27047Y-20000D02*
X26771Y-20000D01*
X25276Y-20000D02*
X26771Y-20000D01*
X25197Y-19921D02*
X25276Y-20000D01*
G54D29*
X37401Y-00945D02*
X39606Y-00945D01*
X39606Y-00945D02*
X40000Y-01339D01*
X40000Y-01339D02*
X40000Y-04252D01*
X40000Y-04252D02*
X39291Y-04961D01*
X39291Y-04961D02*
X37401Y-04961D01*
X40000Y-04252D02*
X40000Y-05433D01*
X40000Y-05433D02*
X41181Y-06614D01*
X41181Y-06614D02*
X40788Y-06614D01*
X40788Y-06614D02*
X39842Y-07560D01*
X39842Y-07560D02*
X39842Y-08268D01*
X39842Y-08268D02*
X39134Y-08976D01*
X39134Y-08976D02*
X37401Y-08976D01*
X39842Y-08268D02*
X39842Y-09449D01*
X39842Y-09449D02*
X41023Y-10630D01*
X41023Y-10630D02*
X40945Y-10630D01*
X40945Y-10630D02*
X39921Y-11654D01*
X39921Y-11654D02*
X39921Y-12284D01*
X39921Y-12284D02*
X39213Y-12992D01*
X39213Y-12992D02*
X37401Y-12992D01*
X39921Y-12284D02*
X39921Y-13386D01*
X39921Y-13386D02*
X41102Y-14567D01*
X39921Y-13386D02*
X39921Y-16300D01*
X39921Y-16300D02*
X39292Y-16929D01*
X39292Y-16929D02*
X37401Y-16929D01*
X39921Y-16300D02*
X39921Y-17402D01*
X39921Y-17402D02*
X39921Y-17480D01*
X39921Y-17480D02*
X41102Y-18661D01*
X39921Y-17480D02*
X39921Y-20866D01*
X39921Y-20866D02*
X39921Y-21417D01*
X39921Y-21417D02*
X41102Y-22598D01*
X39921Y-20866D02*
X37480Y-20866D01*
X37480Y-20866D02*
X37401Y-20945D01*
X39921Y-21417D02*
X39921Y-23937D01*
X39921Y-23937D02*
X39882Y-23976D01*
X39882Y-23976D02*
X38819Y-25039D01*
X38819Y-25039D02*
X37637Y-25039D01*
X39882Y-23976D02*
X39882Y-25394D01*
X39882Y-25394D02*
X41102Y-26614D01*
X39882Y-25394D02*
X39882Y-28228D01*
X39882Y-28228D02*
X39055Y-29055D01*
X39055Y-29055D02*
X37716Y-29055D01*
X39882Y-28228D02*
X39882Y-29489D01*
X39882Y-29489D02*
X41023Y-30630D01*
X31213Y-06936D02*
X32040Y-06936D01*
X32040Y-06936D02*
X33858Y-05118D01*
X33858Y-05118D02*
X35905Y-05118D01*
X35905Y-05118D02*
X36299Y-04724D01*
X36299Y-04724D02*
X37164Y-04724D01*
X37164Y-04724D02*
X37401Y-04961D01*
X31210Y-14931D02*
X31919Y-14931D01*
X31919Y-14931D02*
X33858Y-12992D01*
X33858Y-12992D02*
X37401Y-12992D01*
X31574Y-22913D02*
X32284Y-22913D01*
X32284Y-22913D02*
X34252Y-20945D01*
X34252Y-20945D02*
X37401Y-20945D01*
X31889Y-31181D02*
X31890Y-31181D01*
X31890Y-31181D02*
X34016Y-29055D01*
X34016Y-29055D02*
X37716Y-29055D01*
X33936Y-17401D02*
X35591Y-17401D01*
X35591Y-17401D02*
X36063Y-16929D01*
X36063Y-16929D02*
X37401Y-16929D01*
X29684Y-24331D02*
X31338Y-24331D01*
X31338Y-24331D02*
X31574Y-24095D01*
X29370Y-24016D02*
X29370Y-24017D01*
X29370Y-24017D02*
X29684Y-24331D01*
X31574Y-24095D02*
X31574Y-22913D01*
X29370Y-21496D02*
X29370Y-24016D01*
X33385Y-25906D02*
X31574Y-24095D01*
X33543Y-25906D02*
X33385Y-25906D01*
X29370Y-26142D02*
X29370Y-24016D01*
G54D31*
X31574Y-24960D02*
X31574Y-24095D01*
X31811Y-25197D02*
X31574Y-24960D01*
G54D27*
X27008Y-20551D02*
X28425Y-20551D01*
X28425Y-20551D02*
X29370Y-21496D01*
G54D29*
X37952Y-01417D02*
X38031Y-01417D01*
X36298Y-03071D02*
X37952Y-01417D01*
X35944Y-03071D02*
X36298Y-03071D01*
X34409Y-04606D02*
X35944Y-03071D01*
X30235Y-30000D02*
X30472Y-30000D01*
X30117Y-29882D02*
X30235Y-30000D01*
X30117Y-27441D02*
X30117Y-29882D01*
X30275Y-27283D02*
X30117Y-27441D01*
X31338Y-25197D02*
X30708Y-24567D01*
X31338Y-25197D02*
X31338Y-25748D01*
X37480Y-13976D02*
X38031Y-13425D01*
X34566Y-13976D02*
X37480Y-13976D01*
X33542Y-15000D02*
X34566Y-13976D01*
X35747Y-11929D02*
X37991Y-09685D01*
X37991Y-09685D02*
X37991Y-09449D01*
X37598Y-21850D02*
X37991Y-21457D01*
X34724Y-21850D02*
X37598Y-21850D01*
X33582Y-22992D02*
X34724Y-21850D01*
X35668Y-19960D02*
X38031Y-17597D01*
X38031Y-17597D02*
X38031Y-17441D01*
X37361Y-30000D02*
X37952Y-29409D01*
X34566Y-30000D02*
X37361Y-30000D01*
X33582Y-30984D02*
X34566Y-30000D01*
X34684Y-28386D02*
X34330Y-28386D01*
X34684Y-28386D02*
X37637Y-25433D01*
X37637Y-25433D02*
X37991Y-25433D01*
G54D30*
X29763Y-15276D02*
X29685Y-15276D01*
X28504Y-19212D02*
X27716Y-20000D01*
X28504Y-18189D02*
X28504Y-19212D01*
X29685Y-15276D02*
X28504Y-16457D01*
X28504Y-16457D02*
X28504Y-18189D01*
X27716Y-20000D02*
X27441Y-20000D01*
X29807Y-17214D02*
X30188Y-17214D01*
X30472Y-16930D02*
X30188Y-17214D01*
X30472Y-14410D02*
X30472Y-16930D01*
X30338Y-14276D02*
X29763Y-14276D01*
X30338Y-14276D02*
X30472Y-14410D01*
G54D27*
X16692Y-23780D02*
X17751Y-24839D01*
X17751Y-24839D02*
X17901Y-24839D01*
G54D29*
X14389Y-03996D02*
X14409Y-04016D01*
G54D32*
X08661Y-06535D02*
X08228Y-06535D01*
X02519Y-21575D02*
X02913Y-21575D01*
X02519Y-21575D02*
X02205Y-21575D01*
X02205Y-21575D02*
X02204Y-21575D01*
X05196Y-21417D02*
X05511Y-21417D01*
X05196Y-21417D02*
X04881Y-21417D01*
G54D27*
X07370Y-21784D02*
X06370Y-22784D01*
G54D30*
X23700Y-14961D02*
X23700Y-14095D01*
G54D31*
X12992Y-17677D02*
X12992Y-17953D01*
X15275Y-19449D02*
X15393Y-19449D01*
X15393Y-19449D02*
X15590Y-19646D01*
G54D32*
X26299Y-27795D02*
X26299Y-27087D01*
X24960Y-29134D02*
X26299Y-27795D01*
X24960Y-29606D02*
X24960Y-29134D01*
X24960Y-29606D02*
X24960Y-30001D01*
X24567Y-31386D02*
X25098Y-31917D01*
X24567Y-30394D02*
X24567Y-31386D01*
X24960Y-30001D02*
X24567Y-30394D01*
X21098Y-30917D02*
X21098Y-31019D01*
X21465Y-31386D02*
X24567Y-31386D01*
X21098Y-31019D02*
X21465Y-31386D01*
G54D27*
X21535Y-20866D02*
X21574Y-20905D01*
G54D32*
X09350Y-06456D02*
X09762Y-06456D01*
X09762Y-06456D02*
X09842Y-06457D01*
G54D29*
X17047Y-19882D02*
X16850Y-19882D01*
X17086Y-19921D02*
X17047Y-19882D01*
G54D31*
X15590Y-19646D02*
X16083Y-19646D01*
X16083Y-19646D02*
X16102Y-19665D01*
G54D29*
X10157Y-09409D02*
X10157Y-08976D01*
G54D28*
X15787Y-15709D02*
X16063Y-15433D01*
X15787Y-15709D02*
X15748Y-15709D01*
X17637Y-12008D02*
X17637Y-12284D01*
G54D29*
X14980Y-06142D02*
X14980Y-05768D01*
X14980Y-05768D02*
X14960Y-05748D01*
X17008Y-06968D02*
X17008Y-06693D01*
X15275Y-06988D02*
X15275Y-06693D01*
X14015Y-06693D02*
X14015Y-06968D01*
X15314Y-09213D02*
X15314Y-09410D01*
X15275Y-09449D02*
X15275Y-09528D01*
X15314Y-09410D02*
X15275Y-09449D01*
X14685Y-09213D02*
X14685Y-09410D01*
X14685Y-09410D02*
X14567Y-09528D01*
G54D28*
X16063Y-14803D02*
X16023Y-14803D01*
X16023Y-14803D02*
X15866Y-14646D01*
X15472Y-14173D02*
X15472Y-13976D01*
X15354Y-13858D02*
X15118Y-13858D01*
X15472Y-13976D02*
X15354Y-13858D01*
X15118Y-14606D02*
X15118Y-14803D01*
X17795Y-18130D02*
X18090Y-18130D01*
X18090Y-18130D02*
X18110Y-18110D01*
X19015Y-18110D02*
X19015Y-18662D01*
X19015Y-18662D02*
X19251Y-18898D01*
X20551Y-17362D02*
X20551Y-17166D01*
X20551Y-17166D02*
X20551Y-17087D01*
X20945Y-18189D02*
X21220Y-18189D01*
G54D27*
X23149Y-16992D02*
X23244Y-16992D01*
X23700Y-16536D02*
X23700Y-14961D01*
X23244Y-16992D02*
X23700Y-16536D01*
G54D28*
X21653Y-12972D02*
X21653Y-12756D01*
G54D29*
X20078Y-12992D02*
X19803Y-12992D01*
G54D31*
X16850Y-19882D02*
X16732Y-19882D01*
X16515Y-19665D02*
X16102Y-19665D01*
X16732Y-19882D02*
X16515Y-19665D01*
X16102Y-19665D02*
X16102Y-19409D01*
X16102Y-19409D02*
X16063Y-19370D01*
G54D28*
X12756Y-12874D02*
X12480Y-12874D01*
X12480Y-12874D02*
X12441Y-12913D01*
X12756Y-11772D02*
X12756Y-11496D01*
G54D29*
X17952Y-11732D02*
X18267Y-11890D01*
X18267Y-11890D02*
X18464Y-11890D01*
X10511Y-14803D02*
X10315Y-14803D01*
X10315Y-14803D02*
X10236Y-14882D01*
X11929Y-16457D02*
X11929Y-16496D01*
X11929Y-16496D02*
X11653Y-16772D01*
G54D28*
X16614Y-14173D02*
X16378Y-14173D01*
G54D29*
X17637Y-12008D02*
X17676Y-12008D01*
X17676Y-12008D02*
X17952Y-11732D01*
X17952Y-11536D02*
X17952Y-11732D01*
X16729Y-15067D02*
X16729Y-15082D01*
X16729Y-15082D02*
X16378Y-15433D01*
G54D32*
X15275Y-20158D02*
X15472Y-20158D01*
X15472Y-20158D02*
X15590Y-20040D01*
X16889Y-20315D02*
X16850Y-20276D01*
X17086Y-20315D02*
X16889Y-20315D01*
X22098Y-28768D02*
X22098Y-30917D01*
X23937Y-27953D02*
X22913Y-27953D01*
X22913Y-27953D02*
X22098Y-28768D01*
X10157Y-09803D02*
X10157Y-10079D01*
G54D29*
X07244Y-04961D02*
X08346Y-03859D01*
G54D27*
X23228Y-14095D02*
X23228Y-15039D01*
X23228Y-14095D02*
X23228Y-13465D01*
X23228Y-13465D02*
X23228Y-12992D01*
X23228Y-12992D02*
X23149Y-12913D01*
X26807Y-13414D02*
X26807Y-13185D01*
X26807Y-13185D02*
X26378Y-12756D01*
X26378Y-12756D02*
X24881Y-12756D01*
X24881Y-12756D02*
X24172Y-13465D01*
X24172Y-13465D02*
X23228Y-13465D01*
G54D31*
X16850Y-20276D02*
X16161Y-20276D01*
X16161Y-20276D02*
X16102Y-20335D01*
X15590Y-20040D02*
X15807Y-20040D01*
X15807Y-20040D02*
X16102Y-20335D01*
G54D28*
X12756Y-12441D02*
X12756Y-12166D01*
X16338Y-14843D02*
X16378Y-14803D01*
X19409Y-18110D02*
X19685Y-18110D01*
X20551Y-17756D02*
X20551Y-18110D01*
X21614Y-18386D02*
X21653Y-18425D01*
X21614Y-18386D02*
X21614Y-18189D01*
X21653Y-12382D02*
X21653Y-12126D01*
G54D31*
X16102Y-20335D02*
X15807Y-20335D01*
X15807Y-20335D02*
X15748Y-20394D01*
G54D28*
X12756Y-13268D02*
X12756Y-13465D01*
G54D29*
X19291Y-11890D02*
X18858Y-11890D01*
X19409Y-12992D02*
X19134Y-12992D01*
X10905Y-14803D02*
X11102Y-14803D01*
X11102Y-14803D02*
X11181Y-14882D01*
X12323Y-16457D02*
X12323Y-16102D01*
X12323Y-16102D02*
X12362Y-16063D01*
X12992Y-17283D02*
X12992Y-16929D01*
X12992Y-16929D02*
X13228Y-16693D01*
X16335Y-15067D02*
X16335Y-14846D01*
X16335Y-14846D02*
X16378Y-14803D01*
G54D32*
X01731Y-21577D02*
X01731Y-22047D01*
X01731Y-21577D02*
X02284Y-21024D01*
X02284Y-21024D02*
X03149Y-21024D01*
G54D28*
X13858Y-14803D02*
X12126Y-14803D01*
X11338Y-15591D02*
X12126Y-14803D01*
X11260Y-15669D02*
X11338Y-15591D01*
G54D29*
X09606Y-13386D02*
X11181Y-13386D01*
G54D28*
X11496Y-14409D02*
X11496Y-14173D01*
X11890Y-14803D02*
X11496Y-14409D01*
X11890Y-14803D02*
X12126Y-14803D01*
G54D29*
X11496Y-13701D02*
X11496Y-14094D01*
X11181Y-13386D02*
X11496Y-13701D01*
X11496Y-14094D02*
X11496Y-14173D01*
X11181Y-15590D02*
X11260Y-15669D01*
G54D32*
X06929Y-12284D02*
X06929Y-11890D01*
X07322Y-12677D02*
X06929Y-12284D01*
X07874Y-12677D02*
X07322Y-12677D01*
X08267Y-13071D02*
X07874Y-12677D01*
X09134Y-13071D02*
X08267Y-13071D01*
G54D28*
X16535Y-08976D02*
X16299Y-08976D01*
X16535Y-08976D02*
X17480Y-09922D01*
X17480Y-09922D02*
X17480Y-10394D01*
X15433Y-12441D02*
X17480Y-10394D01*
X15433Y-12598D02*
X15433Y-12441D01*
G54D29*
X13543Y-06221D02*
X13621Y-06221D01*
G54D28*
X15708Y-09488D02*
X15748Y-09528D01*
X15708Y-09488D02*
X15708Y-09213D01*
G54D29*
X17008Y-07362D02*
X17008Y-07638D01*
X15275Y-07658D02*
X15275Y-07953D01*
X14015Y-07362D02*
X14291Y-07362D01*
X14291Y-07362D02*
X14330Y-07323D01*
X14291Y-09213D02*
X14015Y-09213D01*
X24464Y-08898D02*
X24877Y-08485D01*
X24173Y-08898D02*
X24464Y-08898D01*
X23858Y-09213D02*
X24173Y-08898D01*
X23858Y-09764D02*
X23858Y-09213D01*
X23622Y-10000D02*
X23858Y-09764D01*
X22204Y-10000D02*
X23622Y-10000D01*
X21338Y-10866D02*
X22204Y-10000D01*
X19291Y-10866D02*
X21338Y-10866D01*
X25377Y-09485D02*
X25377Y-09505D01*
X18110Y-10080D02*
X18110Y-10079D01*
X19211Y-11181D02*
X18110Y-10080D01*
X21338Y-11181D02*
X19211Y-11181D01*
X22283Y-10236D02*
X21338Y-11181D01*
X24646Y-10236D02*
X22283Y-10236D01*
X25377Y-09505D02*
X24646Y-10236D01*
X23377Y-09485D02*
X23185Y-09485D01*
X20630Y-08977D02*
X20078Y-08425D01*
X22677Y-08977D02*
X20630Y-08977D01*
X23185Y-09485D02*
X22677Y-08977D01*
X21083Y-08485D02*
X22877Y-08485D01*
X21023Y-08425D02*
X21083Y-08485D01*
X14252Y-06084D02*
X14310Y-06142D01*
X14252Y-05748D02*
X14252Y-06084D01*
G54D28*
X15039Y-10079D02*
X15039Y-08819D01*
X15511Y-10551D02*
X15039Y-10079D01*
G54D30*
X05670Y-22362D02*
X05434Y-22598D01*
X05434Y-22598D02*
X04489Y-22598D01*
X02914Y-22520D02*
X02126Y-22520D01*
X02126Y-22520D02*
X02126Y-22362D01*
X02993Y-22441D02*
X02914Y-22520D01*
X02126Y-23465D02*
X02126Y-22520D01*
X02126Y-23465D02*
X03622Y-23465D01*
X03622Y-23465D02*
X04489Y-22598D01*
G54D27*
X02993Y-22441D02*
X05591Y-22441D01*
X02126Y-23465D02*
X02126Y-23149D01*
X21260Y-22046D02*
X21574Y-21732D01*
G54D33*
X01929Y-22559D02*
X01576Y-22559D01*
X01576Y-22559D02*
X01221Y-22204D01*
X01221Y-22204D02*
X01221Y-21378D01*
X01221Y-21378D02*
X01693Y-20906D01*
X01693Y-20906D02*
X01693Y-19568D01*
X01693Y-19568D02*
X01889Y-19372D01*
X01929Y-22559D02*
X02126Y-22362D01*
X01889Y-18504D02*
X01889Y-19372D01*
X02126Y-23465D02*
X02126Y-22362D01*
X02126Y-23465D02*
X02127Y-23465D01*
X21574Y-21732D02*
X20315Y-22991D01*
X03228Y-24567D02*
X02126Y-23465D01*
X03228Y-24803D02*
X03228Y-24567D01*
X03228Y-24803D02*
X03228Y-25984D01*
X03228Y-25984D02*
X05118Y-27874D01*
X05118Y-27874D02*
X18818Y-27874D01*
X18818Y-27874D02*
X20315Y-26377D01*
X20315Y-22991D02*
X20315Y-26377D01*
X01889Y-18504D02*
X03070Y-18504D01*
X06299Y-20394D02*
X06614Y-20394D01*
X05669Y-19764D02*
X06299Y-20394D01*
X05669Y-18189D02*
X05669Y-19764D01*
X05433Y-17953D02*
X05669Y-18189D01*
X03621Y-17953D02*
X05433Y-17953D01*
X03070Y-18504D02*
X03621Y-17953D01*
G54D27*
X05670Y-22362D02*
X05670Y-21810D01*
X05984Y-21024D02*
X06614Y-20394D01*
X05984Y-21339D02*
X05984Y-21024D01*
X05826Y-21497D02*
X05984Y-21339D01*
X05826Y-21654D02*
X05826Y-21497D01*
X05670Y-21810D02*
X05826Y-21654D01*
G54D33*
X03464Y-10606D02*
X02937Y-10606D01*
X01653Y-18268D02*
X01889Y-18504D01*
X01653Y-11890D02*
X01653Y-18268D01*
X02937Y-10606D02*
X01653Y-11890D01*
G54D34*
X07323Y-12126D02*
X07323Y-12126D01*
G54D32*
X09527Y-20158D02*
X09842Y-19843D01*
X08425Y-20158D02*
X09527Y-20158D01*
X24252Y-29291D02*
X24015Y-29291D01*
X25197Y-28346D02*
X24252Y-29291D01*
X25197Y-27402D02*
X25197Y-28346D01*
X24173Y-26378D02*
X25197Y-27402D01*
X24173Y-25354D02*
X24173Y-26378D01*
G54D28*
X17205Y-14173D02*
X17323Y-14173D01*
X15748Y-16103D02*
X15473Y-16103D01*
X17795Y-18897D02*
X17874Y-18976D01*
X17795Y-18897D02*
X17795Y-18720D01*
X15473Y-16103D02*
X15433Y-16063D01*
X15866Y-14173D02*
X16063Y-14173D01*
X15472Y-14646D02*
X15472Y-15079D01*
X15472Y-15079D02*
X15433Y-15118D01*
X15118Y-14212D02*
X15118Y-14173D01*
X15118Y-14173D02*
X14803Y-13858D01*
X17008Y-14173D02*
X17323Y-14173D01*
G54D29*
X17952Y-11142D02*
X18150Y-11142D01*
X18150Y-11142D02*
X18189Y-11181D01*
X11181Y-05906D02*
X11181Y-06063D01*
G54D32*
X11516Y-06063D02*
X11181Y-06063D01*
X11181Y-06063D02*
X11181Y-05984D01*
G54D29*
X11181Y-05984D02*
X11181Y-05827D01*
X11181Y-05827D02*
X11102Y-05748D01*
X11102Y-05748D02*
X09527Y-05748D01*
G54D28*
X08582Y-16378D02*
X07952Y-17008D01*
X08582Y-14803D02*
X08582Y-16378D01*
X09370Y-14015D02*
X08582Y-14803D01*
X09370Y-12835D02*
X09370Y-14015D01*
X08976Y-12441D02*
X09370Y-12835D01*
X08976Y-12126D02*
X08976Y-12441D01*
X09370Y-11732D02*
X08976Y-12126D01*
X09370Y-11417D02*
X09370Y-11732D01*
X09291Y-11338D02*
X09370Y-11417D01*
X09291Y-10945D02*
X09291Y-11338D01*
X09842Y-10394D02*
X09291Y-10945D01*
X09842Y-10236D02*
X09842Y-10394D01*
X07952Y-08346D02*
X09842Y-10236D01*
X07952Y-05906D02*
X07952Y-08346D01*
X08582Y-05276D02*
X07952Y-05906D01*
X08582Y-05276D02*
X10787Y-05276D01*
X10787Y-05276D02*
X11102Y-04961D01*
X11102Y-04331D02*
X11102Y-04961D01*
X11181Y-04252D02*
X11102Y-04331D01*
X11516Y-06259D02*
X12007Y-06259D01*
X12007Y-06259D02*
X12519Y-06771D01*
X12519Y-06771D02*
X12519Y-07165D01*
X12519Y-07165D02*
X12283Y-07401D01*
X12283Y-07401D02*
X12283Y-07480D01*
X16141Y-10866D02*
X16114Y-10835D01*
G54D29*
X23149Y-21992D02*
X23149Y-22047D01*
X23937Y-22835D02*
X23937Y-26535D01*
X23149Y-22047D02*
X23937Y-22835D01*
G54D32*
X05276Y-20394D02*
X05512Y-20394D01*
X03859Y-21732D02*
X05276Y-20394D01*
X03544Y-20867D02*
X03386Y-20709D01*
X03544Y-21733D02*
X03544Y-20867D01*
X03308Y-21969D02*
X03544Y-21733D01*
G54D28*
X14488Y-23622D02*
X15433Y-22677D01*
X14488Y-24173D02*
X14488Y-23622D01*
G54D35*
X15145Y-24753D02*
X15145Y-24839D01*
G54D27*
X15145Y-24839D02*
X15145Y-24303D01*
X15145Y-24303D02*
X16456Y-22992D01*
X16456Y-21496D02*
X16456Y-21259D01*
X16456Y-22992D02*
X16456Y-21496D01*
X16063Y-20866D02*
X16456Y-21259D01*
X16063Y-20866D02*
X15276Y-20866D01*
X15276Y-20866D02*
X14882Y-20472D01*
X14882Y-20472D02*
X14882Y-20000D01*
X14882Y-20000D02*
X15039Y-19843D01*
X15039Y-19843D02*
X15275Y-19843D01*
X16456Y-21259D02*
X19686Y-21259D01*
X19686Y-21259D02*
X20709Y-20236D01*
X20709Y-20236D02*
X20945Y-20000D01*
X20945Y-20236D02*
X20709Y-20236D01*
G54D32*
X09685Y-12913D02*
X09606Y-12834D01*
X09606Y-12834D02*
X09606Y-10945D01*
X09350Y-06850D02*
X09842Y-06850D01*
G54D35*
X45984Y-06391D02*
X46907Y-07314D01*
X45984Y-04488D02*
X45984Y-06391D01*
X46141Y-04331D02*
X45984Y-04488D01*
X46907Y-08314D02*
X46739Y-08314D01*
X45826Y-04173D02*
X45826Y-04568D01*
X46141Y-03858D02*
X45826Y-04173D01*
X45826Y-04568D02*
X45826Y-07401D01*
X45826Y-07401D02*
X46739Y-08314D01*
G54D28*
X46141Y-13386D02*
X45905Y-13150D01*
X45905Y-13150D02*
X45905Y-10316D01*
X45905Y-10316D02*
X46907Y-09314D01*
X46907Y-10314D02*
X46694Y-10314D01*
X46141Y-10867D02*
X46141Y-12913D01*
X46694Y-10314D02*
X46141Y-10867D01*
X46378Y-11810D02*
X46378Y-12441D01*
X46378Y-11810D02*
X46874Y-11314D01*
X46874Y-11314D02*
X46907Y-11314D01*
G54D35*
X45905Y-21835D02*
X46901Y-22831D01*
X45905Y-20551D02*
X45905Y-21835D01*
X46141Y-20315D02*
X45905Y-20551D01*
X45748Y-22678D02*
X46901Y-23831D01*
X45748Y-20236D02*
X45748Y-22678D01*
X46141Y-19843D02*
X45748Y-20236D01*
X45826Y-25906D02*
X46901Y-24831D01*
X45826Y-29055D02*
X45826Y-25906D01*
X46141Y-29370D02*
X45826Y-29055D01*
X45984Y-26748D02*
X46901Y-25831D01*
X45984Y-28662D02*
X45984Y-26748D01*
X46220Y-28898D02*
X45984Y-28662D01*
X46868Y-26831D02*
X46901Y-26831D01*
X46299Y-27400D02*
X46868Y-26831D01*
X46299Y-27400D02*
X46299Y-28346D01*
G54D32*
X09350Y-06063D02*
X10393Y-06063D01*
X10315Y-07322D02*
X10315Y-07323D01*
X10393Y-07244D02*
X10315Y-07322D01*
X10393Y-06063D02*
X10393Y-07244D01*
X24098Y-29768D02*
X24098Y-30917D01*
X24094Y-29764D02*
X24098Y-29768D01*
X23098Y-28610D02*
X23098Y-30917D01*
X23071Y-28583D02*
X23098Y-28610D01*
G54D28*
X06268Y-10079D02*
X05799Y-09610D01*
X08031Y-10079D02*
X07874Y-10079D01*
X08267Y-10315D02*
X08031Y-10079D01*
X07874Y-10079D02*
X06268Y-10079D01*
X05799Y-08610D02*
X05854Y-08610D01*
X07401Y-09134D02*
X07244Y-09134D01*
X08582Y-10315D02*
X07401Y-09134D01*
X06378Y-09134D02*
X07244Y-09134D01*
X05854Y-08610D02*
X06378Y-09134D01*
X05799Y-07610D02*
X05799Y-07689D01*
X08897Y-10315D02*
X07480Y-08898D01*
X07480Y-08425D02*
X07480Y-08898D01*
X07165Y-08110D02*
X07480Y-08425D01*
X06220Y-08110D02*
X07165Y-08110D01*
X05799Y-07689D02*
X06220Y-08110D01*
X05799Y-06610D02*
X05901Y-06610D01*
X09212Y-10315D02*
X07637Y-08740D01*
X05901Y-06610D02*
X06378Y-07087D01*
X06378Y-07087D02*
X07008Y-07087D01*
X07008Y-07087D02*
X07637Y-07716D01*
X07637Y-07716D02*
X07637Y-08740D01*
X09527Y-10315D02*
X07795Y-08583D01*
X06476Y-05610D02*
X05799Y-05610D01*
X07795Y-06929D02*
X06476Y-05610D01*
X07795Y-08583D02*
X07795Y-06929D01*
G54D32*
X05275Y-04016D02*
X07008Y-04016D01*
X07008Y-04016D02*
X07874Y-03150D01*
X07874Y-03150D02*
X10393Y-03150D01*
X10393Y-03150D02*
X10815Y-02728D01*
X10815Y-02728D02*
X10815Y-02335D01*
G54D28*
X11370Y-21784D02*
X11973Y-21181D01*
X14015Y-17166D02*
X13779Y-17402D01*
X14015Y-16220D02*
X14015Y-17166D01*
X13858Y-16063D02*
X14015Y-16220D01*
X13779Y-17402D02*
X13779Y-17953D01*
X13464Y-18268D02*
X13779Y-17953D01*
X13464Y-18268D02*
X13464Y-20631D01*
X13464Y-20631D02*
X12914Y-21181D01*
X12914Y-21181D02*
X11973Y-21181D01*
X12370Y-21784D02*
X12547Y-21784D01*
X14173Y-16378D02*
X14173Y-17166D01*
X14173Y-16378D02*
X14173Y-16378D01*
X13622Y-20709D02*
X13622Y-18740D01*
X12547Y-21784D02*
X13622Y-20709D01*
X13622Y-18740D02*
X13622Y-18268D01*
X13622Y-18268D02*
X13937Y-17953D01*
X13937Y-17953D02*
X13937Y-17402D01*
X13937Y-17402D02*
X14173Y-17166D01*
X16850Y-13071D02*
X17165Y-12756D01*
X20630Y-12756D02*
X21338Y-13464D01*
X21338Y-13464D02*
X21338Y-16771D01*
X21338Y-16771D02*
X22598Y-18031D01*
X22598Y-18031D02*
X22598Y-23441D01*
X22598Y-23441D02*
X23149Y-23992D01*
X17165Y-12756D02*
X20630Y-12756D01*
X15905Y-13386D02*
X16141Y-13386D01*
X15748Y-13229D02*
X15905Y-13386D01*
X15748Y-13228D02*
X15748Y-13229D01*
X16141Y-13386D02*
X16456Y-13386D01*
X16456Y-13386D02*
X16535Y-13307D01*
X16535Y-13150D02*
X16535Y-13307D01*
X16535Y-13150D02*
X16614Y-13071D01*
X16614Y-13071D02*
X16850Y-13071D01*
X13071Y-13622D02*
X13071Y-13386D01*
X13307Y-13858D02*
X13071Y-13622D01*
X13858Y-13858D02*
X13307Y-13858D01*
X14015Y-13701D02*
X13858Y-13858D01*
X14330Y-13701D02*
X14015Y-13701D01*
X14488Y-13543D02*
X14330Y-13701D01*
X14488Y-13543D02*
X14567Y-13543D01*
X15590Y-13386D02*
X15748Y-13228D01*
X14724Y-13386D02*
X15590Y-13386D01*
X14567Y-13543D02*
X14724Y-13386D01*
G54D32*
X23149Y-22992D02*
X23149Y-23071D01*
X23149Y-23071D02*
X23700Y-23622D01*
X23700Y-23622D02*
X23700Y-24409D01*
X23700Y-24409D02*
X23700Y-24410D01*
X23700Y-24410D02*
X21889Y-26221D01*
X23700Y-24409D02*
X23700Y-27007D01*
X23700Y-27007D02*
X24803Y-28110D01*
G54D29*
X24882Y-23622D02*
X24881Y-23622D01*
X24094Y-22835D02*
X24094Y-21937D01*
X24094Y-21937D02*
X23149Y-20992D01*
X24094Y-22835D02*
X24094Y-23465D01*
X24094Y-23465D02*
X24251Y-23622D01*
X24251Y-23622D02*
X24882Y-23622D01*
X23149Y-19992D02*
X23149Y-19999D01*
X23149Y-19999D02*
X23779Y-20629D01*
X23779Y-20629D02*
X23779Y-21102D01*
X23779Y-21102D02*
X24252Y-21575D01*
X24252Y-21575D02*
X24252Y-23071D01*
X24252Y-23071D02*
X24488Y-23307D01*
X24882Y-23071D02*
X24881Y-23071D01*
X24881Y-23071D02*
X24488Y-22678D01*
X24488Y-22678D02*
X24488Y-21418D01*
X24488Y-21418D02*
X24015Y-20945D01*
X24015Y-20945D02*
X24015Y-18504D01*
X24015Y-18504D02*
X23503Y-17992D01*
X23503Y-17992D02*
X23149Y-17992D01*
G54D28*
X14488Y-10237D02*
X14488Y-10236D01*
X13071Y-11654D02*
X14488Y-10237D01*
X13071Y-12756D02*
X13071Y-11654D01*
X15984Y-10315D02*
X16456Y-10315D01*
X13858Y-12441D02*
X15984Y-10315D01*
X13858Y-12441D02*
X13858Y-12913D01*
X16929Y-06142D02*
X17479Y-06142D01*
X17479Y-06142D02*
X17715Y-05906D01*
X17715Y-05906D02*
X18740Y-05906D01*
X16614Y-10158D02*
X16614Y-10393D01*
X16614Y-10393D02*
X16456Y-10551D01*
X15905Y-10551D02*
X16456Y-10551D01*
X14173Y-12283D02*
X15905Y-10551D01*
X14173Y-12283D02*
X14173Y-12913D01*
X13700Y-12992D02*
X13700Y-12126D01*
X13779Y-13071D02*
X13700Y-12992D01*
X14330Y-13071D02*
X13779Y-13071D01*
X14488Y-12913D02*
X14330Y-13071D01*
X13700Y-12126D02*
X13700Y-11890D01*
X16456Y-09291D02*
X16299Y-09291D01*
X17165Y-10000D02*
X16456Y-09291D01*
X17165Y-10394D02*
X17165Y-10000D01*
X15118Y-12441D02*
X17165Y-10394D01*
X15118Y-12598D02*
X15118Y-12441D01*
X14409Y-10866D02*
X14488Y-10866D01*
X13543Y-11732D02*
X14409Y-10866D01*
X13543Y-13228D02*
X13543Y-11732D01*
X14567Y-10709D02*
X14724Y-10866D01*
X14409Y-10709D02*
X14567Y-10709D01*
X13386Y-11732D02*
X14409Y-10709D01*
X13386Y-13308D02*
X13386Y-11732D01*
X13464Y-13386D02*
X13386Y-13308D01*
X13700Y-13386D02*
X13464Y-13386D01*
X13858Y-13228D02*
X13700Y-13386D01*
X14645Y-13071D02*
X14488Y-13228D01*
X14645Y-12599D02*
X14645Y-13071D01*
X16850Y-10394D02*
X14645Y-12599D01*
X16850Y-10158D02*
X16850Y-10394D01*
X16613Y-09921D02*
X16850Y-10158D01*
X16456Y-09921D02*
X16613Y-09921D01*
X16063Y-09528D02*
X16456Y-09921D01*
X14803Y-12598D02*
X14803Y-12913D01*
X14803Y-12598D02*
X17008Y-10393D01*
X17008Y-10393D02*
X17008Y-10001D01*
X17008Y-10001D02*
X16535Y-09528D01*
X16535Y-09528D02*
X16299Y-09528D01*
X13228Y-11732D02*
X14488Y-10472D01*
X13228Y-13543D02*
X13228Y-11732D01*
X13386Y-13701D02*
X13228Y-13543D01*
X13701Y-13701D02*
X13386Y-13701D01*
X14016Y-13386D02*
X14016Y-13386D01*
X14016Y-13386D02*
X13701Y-13701D01*
X14016Y-13386D02*
X14567Y-13386D01*
X14567Y-13386D02*
X14725Y-13228D01*
X14725Y-13228D02*
X14803Y-13228D01*
X16535Y-09134D02*
X16141Y-09134D01*
X17323Y-09921D02*
X16535Y-09134D01*
X17323Y-10394D02*
X17323Y-09921D01*
X15275Y-12442D02*
X17323Y-10394D01*
X15275Y-12756D02*
X15275Y-12442D01*
X15118Y-12913D02*
X15275Y-12756D01*
X11968Y-08583D02*
X12126Y-08583D01*
X11653Y-08268D02*
X11968Y-08583D01*
X11653Y-07717D02*
X11653Y-08268D01*
X11889Y-07481D02*
X11653Y-07717D01*
X11889Y-06771D02*
X11889Y-07481D01*
X11771Y-06653D02*
X11889Y-06771D01*
X11771Y-06653D02*
X11516Y-06653D01*
X15748Y-12913D02*
X15748Y-12284D01*
X15748Y-12284D02*
X17637Y-10395D01*
X17637Y-09921D02*
X17637Y-10395D01*
X16299Y-08583D02*
X17637Y-09921D01*
X12126Y-08583D02*
X16299Y-08583D01*
X11516Y-06456D02*
X11810Y-06456D01*
X16063Y-12126D02*
X17795Y-10394D01*
X16063Y-12520D02*
X16063Y-12126D01*
X16378Y-12835D02*
X16063Y-12520D01*
X16378Y-13228D02*
X16378Y-12835D01*
X16298Y-08425D02*
X17795Y-09922D01*
X11952Y-08425D02*
X16298Y-08425D01*
X11811Y-08284D02*
X11952Y-08425D01*
X11811Y-07717D02*
X11811Y-08284D01*
X12047Y-07481D02*
X11811Y-07717D01*
X12047Y-06693D02*
X12047Y-07481D01*
X11810Y-06456D02*
X12047Y-06693D01*
X17795Y-09922D02*
X17795Y-10394D01*
X16457Y-13543D02*
X16614Y-13386D01*
X15354Y-13543D02*
X16457Y-13543D01*
X15196Y-13701D02*
X15354Y-13543D01*
X14645Y-13701D02*
X15196Y-13701D01*
X14488Y-13858D02*
X14645Y-13701D01*
X16614Y-13386D02*
X16771Y-13386D01*
X16771Y-13386D02*
X18189Y-13386D01*
X18189Y-13386D02*
X18347Y-13228D01*
X18347Y-13228D02*
X20945Y-13228D01*
X20945Y-13228D02*
X21181Y-13464D01*
X21181Y-13464D02*
X21181Y-16772D01*
X21181Y-16772D02*
X22441Y-18032D01*
X22441Y-18032D02*
X22441Y-23622D01*
X22441Y-23622D02*
X22283Y-23780D01*
X18060Y-13719D02*
X17008Y-13858D01*
X13229Y-14173D02*
X13858Y-14173D01*
X13071Y-14331D02*
X13229Y-14173D01*
X12834Y-14488D02*
X10787Y-12441D01*
X13543Y-14488D02*
X12834Y-14488D01*
X10866Y-12677D02*
X10708Y-12677D01*
X12835Y-14646D02*
X10866Y-12677D01*
X13700Y-14646D02*
X12835Y-14646D01*
X13858Y-14488D02*
X13700Y-14646D01*
X10315Y-12284D02*
X10708Y-12677D01*
X14015Y-14961D02*
X12283Y-14961D01*
X14173Y-14803D02*
X14015Y-14961D01*
X09370Y-17874D02*
X08740Y-17874D01*
X12283Y-14961D02*
X09370Y-17874D01*
X14645Y-18898D02*
X14409Y-19134D01*
X14645Y-16929D02*
X14645Y-18898D01*
X14173Y-15433D02*
X14173Y-15434D01*
X14173Y-15434D02*
X14330Y-15591D01*
X14330Y-15591D02*
X14330Y-16614D01*
X14330Y-16614D02*
X14645Y-16929D01*
X17244Y-15039D02*
X18346Y-13937D01*
X17244Y-15118D02*
X17244Y-15039D01*
X17086Y-15276D02*
X17244Y-15118D01*
X16850Y-15276D02*
X17086Y-15276D01*
X16693Y-15433D02*
X16850Y-15276D01*
X18346Y-13937D02*
X18346Y-13622D01*
X18346Y-13622D02*
X18425Y-13543D01*
X18425Y-13543D02*
X19685Y-13543D01*
X18346Y-13953D02*
X18346Y-13937D01*
X18182Y-13944D02*
X18189Y-13937D01*
X17008Y-15118D02*
X18189Y-13937D01*
X18189Y-13937D02*
X18182Y-13944D01*
X18189Y-13937D02*
X18189Y-13852D01*
X18426Y-13369D02*
X20078Y-13369D01*
X18236Y-13559D02*
X18426Y-13369D01*
X18236Y-13805D02*
X18236Y-13559D01*
X18189Y-13852D02*
X18236Y-13805D01*
X20078Y-13386D02*
X20078Y-13369D01*
X20393Y-13701D02*
X20078Y-13386D01*
X13700Y-15669D02*
X13700Y-15906D01*
X13778Y-15591D02*
X13700Y-15669D01*
X14015Y-15591D02*
X13778Y-15591D01*
X14172Y-15748D02*
X14015Y-15591D01*
X14173Y-15748D02*
X14172Y-15748D01*
X13543Y-17402D02*
X13700Y-17245D01*
X13700Y-16535D02*
X13700Y-17245D01*
X13700Y-15906D02*
X13700Y-16535D01*
X11417Y-06949D02*
X11516Y-06850D01*
X11417Y-10158D02*
X11417Y-06949D01*
X10078Y-11497D02*
X11417Y-10158D01*
X10078Y-11575D02*
X10078Y-11497D01*
X11968Y-14409D02*
X11968Y-13937D01*
X11968Y-13937D02*
X10866Y-12835D01*
X10866Y-12835D02*
X10551Y-12835D01*
X10551Y-12835D02*
X10078Y-12362D01*
X10078Y-12362D02*
X10078Y-11575D01*
X18739Y-13701D02*
X18740Y-13701D01*
X17401Y-15039D02*
X18739Y-13701D01*
X17401Y-15118D02*
X17401Y-15039D01*
X17243Y-15276D02*
X17401Y-15118D01*
X17086Y-15433D02*
X17243Y-15276D01*
X17008Y-15433D02*
X17086Y-15433D01*
X18740Y-13701D02*
X20000Y-13701D01*
X20551Y-13858D02*
X20708Y-13701D01*
X18740Y-13858D02*
X20551Y-13858D01*
X17559Y-15039D02*
X18740Y-13858D01*
X17559Y-15197D02*
X17559Y-15039D01*
X17323Y-15433D02*
X17559Y-15197D01*
X20708Y-16221D02*
X21023Y-15906D01*
X20708Y-16615D02*
X20708Y-16221D01*
X19685Y-17638D02*
X20708Y-16615D01*
X15748Y-17638D02*
X19685Y-17638D01*
X15039Y-16929D02*
X15748Y-17638D01*
X15039Y-15984D02*
X15039Y-16929D01*
X14803Y-15748D02*
X15039Y-15984D01*
X15826Y-17480D02*
X19291Y-17480D01*
X15511Y-17165D02*
X15826Y-17480D01*
X15511Y-16771D02*
X15511Y-17165D01*
X15275Y-16535D02*
X15511Y-16771D01*
X15275Y-15905D02*
X15275Y-16535D01*
X15118Y-15748D02*
X15275Y-15905D01*
X20708Y-15591D02*
X20000Y-16299D01*
X20000Y-16299D02*
X20000Y-16771D01*
X19291Y-17480D02*
X20000Y-16771D01*
X15776Y-17047D02*
X15776Y-17039D01*
X16055Y-17326D02*
X15776Y-17047D01*
X16055Y-17326D02*
X19210Y-17326D01*
X19210Y-17326D02*
X19842Y-16694D01*
X19842Y-15827D02*
X19842Y-16694D01*
X19921Y-15748D02*
X19842Y-15827D01*
X18976Y-16063D02*
X19134Y-16221D01*
X18425Y-16063D02*
X18976Y-16063D01*
X18110Y-16378D02*
X18425Y-16063D01*
X17165Y-16378D02*
X18110Y-16378D01*
X16063Y-15748D02*
X16220Y-15905D01*
X16220Y-15905D02*
X16692Y-15905D01*
X16692Y-15905D02*
X17165Y-16378D01*
X17165Y-15591D02*
X17165Y-15590D01*
X17637Y-15591D02*
X17165Y-15591D01*
X17874Y-15354D02*
X17637Y-15591D01*
X17874Y-14882D02*
X17874Y-15354D01*
X18740Y-14016D02*
X21023Y-14016D01*
X17874Y-14882D02*
X18740Y-14016D01*
X17007Y-15748D02*
X17165Y-15590D01*
X17165Y-15590D02*
X17164Y-15591D01*
X17008Y-15748D02*
X17007Y-15748D01*
X18188Y-14725D02*
X18189Y-15606D01*
X18188Y-14725D02*
X18740Y-14173D01*
X18740Y-14173D02*
X19685Y-14173D01*
X18031Y-15748D02*
X18189Y-15606D01*
X17323Y-15748D02*
X18031Y-15748D01*
X14803Y-16063D02*
X14803Y-17402D01*
X17163Y-16849D02*
X17848Y-16851D01*
X17979Y-16733D02*
X17985Y-16687D01*
X17861Y-16851D02*
X17979Y-16733D01*
X17848Y-16851D02*
X17861Y-16851D01*
X15433Y-16378D02*
X16692Y-16378D01*
X16692Y-16378D02*
X17163Y-16849D01*
X18425Y-16221D02*
X18504Y-16221D01*
X18111Y-16535D02*
X18425Y-16221D01*
X17086Y-16535D02*
X18111Y-16535D01*
X16614Y-16063D02*
X17086Y-16535D01*
X16063Y-16063D02*
X16614Y-16063D01*
X18110Y-16221D02*
X18661Y-15670D01*
X17480Y-16221D02*
X18110Y-16221D01*
X17323Y-16064D02*
X17480Y-16221D01*
X17323Y-16063D02*
X17323Y-16064D01*
X18661Y-14567D02*
X18661Y-15670D01*
X18661Y-14567D02*
X18740Y-14488D01*
X18740Y-14488D02*
X20157Y-14488D01*
X20157Y-14488D02*
X20866Y-14488D01*
X20866Y-14488D02*
X21023Y-14331D01*
X18291Y-15724D02*
X18291Y-15646D01*
X17952Y-16063D02*
X18291Y-15724D01*
X17637Y-16063D02*
X17952Y-16063D01*
X18291Y-14779D02*
X18291Y-15646D01*
X18291Y-14779D02*
X18739Y-14331D01*
X18739Y-14331D02*
X20000Y-14331D01*
X20860Y-16795D02*
X20860Y-16695D01*
X21230Y-17165D02*
X20860Y-16795D01*
X16880Y-17195D02*
X16378Y-16693D01*
X17200Y-17195D02*
X16880Y-17195D01*
X17200Y-17195D02*
X19100Y-17195D01*
X19100Y-17195D02*
X19683Y-16612D01*
X19683Y-15356D02*
X19683Y-16612D01*
X19763Y-15276D02*
X19683Y-15356D01*
X17025Y-17025D02*
X16693Y-16693D01*
X17340Y-17025D02*
X17025Y-17025D01*
X17340Y-17025D02*
X18800Y-17025D01*
G54D29*
X30472Y-05039D02*
X30826Y-04645D01*
X30472Y-05039D02*
X30472Y-11928D01*
X30472Y-11928D02*
X30472Y-11928D01*
X30472Y-11928D02*
X30472Y-12914D01*
X30472Y-12914D02*
X30708Y-13150D01*
X30708Y-13150D02*
X30708Y-18936D01*
X30393Y-19251D02*
X30708Y-18936D01*
X30393Y-21692D02*
X30393Y-21693D01*
X30393Y-21693D02*
X30393Y-19251D01*
X30393Y-22637D02*
X30393Y-21693D01*
X29920Y-23110D02*
X30393Y-22637D01*
X30945Y-12541D02*
X30983Y-12598D01*
X30945Y-12541D02*
X30945Y-19014D01*
X30590Y-19369D02*
X30945Y-19014D01*
X30590Y-22007D02*
X30590Y-22008D01*
X30590Y-22008D02*
X30590Y-19369D01*
X30590Y-22952D02*
X30590Y-22008D01*
X29920Y-23622D02*
X30590Y-22952D01*
X30905Y-23109D02*
X30905Y-22165D01*
X29920Y-24094D02*
X30905Y-23109D01*
X30905Y-22165D02*
X30905Y-20630D01*
X30983Y-28504D02*
X30787Y-28308D01*
X30787Y-28308D02*
X30787Y-28308D01*
X30787Y-28308D02*
X30787Y-28308D01*
X30787Y-28308D02*
X30787Y-25473D01*
X30787Y-25473D02*
X29920Y-24606D01*
G54D32*
X09350Y-06259D02*
X08936Y-06259D01*
X08936Y-06259D02*
X08858Y-06181D01*
X08267Y-18583D02*
X07952Y-18267D01*
X06771Y-17086D02*
X07952Y-18267D01*
X06771Y-13464D02*
X06771Y-17086D01*
X05197Y-11969D02*
X05276Y-11969D01*
X05276Y-11969D02*
X06771Y-13464D01*
G54D28*
X11811Y-19291D02*
X11574Y-19528D01*
X11574Y-19528D02*
X11574Y-20708D01*
X10866Y-21416D02*
X11574Y-20708D01*
X10866Y-21416D02*
X10866Y-21969D01*
X10866Y-21969D02*
X10551Y-22284D01*
X10551Y-22284D02*
X10157Y-22284D01*
X10157Y-22284D02*
X09921Y-22520D01*
X09921Y-22520D02*
X09921Y-23622D01*
X09921Y-23622D02*
X08504Y-25039D01*
X08504Y-25039D02*
X08504Y-25827D01*
X08504Y-25827D02*
X07670Y-26661D01*
X07670Y-26661D02*
X07396Y-26661D01*
X06967Y-27323D02*
X06305Y-26661D01*
X08740Y-27323D02*
X06967Y-27323D01*
X11339Y-24724D02*
X08740Y-27323D01*
X11969Y-24724D02*
X11339Y-24724D01*
X12992Y-23701D02*
X11969Y-24724D01*
X06898Y-25543D02*
X06850Y-25543D01*
X08819Y-23622D02*
X06898Y-25543D01*
X08819Y-22677D02*
X08819Y-23622D01*
X09212Y-22284D02*
X08819Y-22677D01*
X09212Y-22284D02*
X09606Y-22284D01*
X09606Y-22284D02*
X09842Y-22048D01*
X09842Y-21575D02*
X09842Y-22048D01*
X10157Y-21260D02*
X09842Y-21575D01*
X10315Y-21260D02*
X10157Y-21260D01*
X10945Y-20630D02*
X10315Y-21260D01*
X10945Y-19842D02*
X10945Y-20630D01*
X10945Y-19842D02*
X12362Y-18425D01*
X12362Y-17008D02*
X12362Y-18425D01*
X05760Y-25185D02*
X05760Y-25543D01*
X07874Y-23071D02*
X05760Y-25185D01*
X07874Y-22441D02*
X07874Y-23071D01*
X08031Y-22284D02*
X07874Y-22441D01*
X08661Y-22284D02*
X08031Y-22284D01*
X08897Y-22048D02*
X08661Y-22284D01*
X08897Y-21496D02*
X08897Y-22048D01*
X09291Y-21102D02*
X08897Y-21496D01*
X10236Y-21102D02*
X09291Y-21102D01*
X10787Y-20551D02*
X10236Y-21102D01*
X10787Y-19843D02*
X10787Y-20551D01*
X10787Y-19843D02*
X11968Y-18662D01*
X11968Y-17008D02*
X11968Y-18662D01*
G54D29*
X21022Y-04882D02*
X21517Y-04387D01*
X16771Y-04882D02*
X21022Y-04882D01*
X16298Y-05355D02*
X16771Y-04882D01*
X13779Y-05355D02*
X16298Y-05355D01*
X13228Y-05906D02*
X13779Y-05355D01*
X12912Y-05906D02*
X13228Y-05906D01*
X12755Y-06063D02*
X12756Y-06062D01*
X12756Y-06062D02*
X12912Y-05906D01*
X25084Y-05040D02*
X25737Y-04387D01*
X16849Y-05040D02*
X25084Y-05040D01*
X16377Y-05512D02*
X16849Y-05040D01*
X13858Y-05512D02*
X16377Y-05512D01*
X12913Y-06457D02*
X13858Y-05512D01*
X12755Y-06457D02*
X12913Y-06457D01*
X07941Y-25543D02*
X07941Y-25602D01*
X05268Y-26142D02*
X05275Y-26149D01*
X05275Y-26149D02*
X04669Y-25543D01*
X07401Y-26142D02*
X05268Y-26142D01*
X07941Y-25602D02*
X07401Y-26142D01*
X05215Y-26661D02*
X05215Y-26202D01*
X05275Y-26142D02*
X05275Y-26149D01*
X05215Y-26202D02*
X05275Y-26142D01*
M02*
