G04 (Genere par PCBNEW (20080506 SVN-R1059)) le 23/5/2008-17:18:45*
G01*
G70*
G90*
%MOIN*%
G04 Gerber Fmt 3.4, Leading zero omitted, Abs format*
%FSLAX34Y34*%
G04 APERTURE LIST*
%ADD10C,0.007900*%
%ADD11R,0.023600X0.019700*%
%ADD12R,0.035400X0.023600*%
%ADD13R,0.027600X0.037400*%
%ADD14R,0.037400X0.027600*%
%ADD15C,0.063000*%
%ADD16C,0.059100*%
%ADD17C,0.055100*%
%ADD18C,0.114200*%
%ADD19C,0.090600*%
%ADD20C,0.126000*%
%ADD21C,0.066900*%
%ADD22R,0.043300X0.009800*%
%ADD23C,0.098400*%
%ADD24C,0.025000*%
%ADD25C,0.023600*%
%ADD26C,0.015700*%
%ADD27C,0.019700*%
%ADD28C,0.004900*%
%ADD29C,0.007900*%
%ADD30C,0.017000*%
%ADD31C,0.011800*%
%ADD32C,0.005900*%
%ADD33C,0.039400*%
%ADD34C,0.003900*%
%ADD35C,0.004700*%
%ADD36C,0.015700*%
%ADD37C,0.002500*%
%ADD38R,0.019700X0.023600*%
%ADD39R,0.023600X0.035400*%
%ADD40R,0.015700X0.011800*%
%ADD41R,0.046100X0.055100*%
%ADD42R,0.063000X0.035400*%
%ADD43R,0.049200X0.082700*%
%ADD44R,0.035400X0.031500*%
%ADD45R,0.149600X0.066900*%
%ADD46R,0.096500X0.065000*%
%ADD47R,0.017700X0.027600*%
%ADD48R,0.016500X0.023600*%
%ADD49R,0.031500X0.027600*%
%ADD50R,0.033500X0.023600*%
%ADD51R,0.055100X0.019700*%
%ADD52R,0.027600X0.055100*%
%ADD53R,0.078700X0.019700*%
%ADD54R,0.023600X0.033500*%
%ADD55R,0.023600X0.042000*%
%ADD56R,0.042000X0.023600*%
%ADD57R,0.027600X0.012800*%
%ADD58R,0.027600X0.009800*%
%ADD59R,0.009800X0.027600*%
%ADD60R,0.039400X0.013800*%
%ADD61R,0.013800X0.039400*%
%ADD62R,0.047200X0.055100*%
%ADD63R,0.055100X0.027600*%
%ADD64R,0.019700X0.019700*%
%ADD65R,0.013800X0.051200*%
%ADD66C,0.005000*%
%ADD67C,0.001500*%
%ADD68C,0.001200*%
%ADD69C,0.000800*%
%ADD70C,0.002000*%
%ADD71C,0.003100*%
%ADD72C,0.003400*%
%ADD73C,0.012000*%
%ADD74C,0.015000*%
%ADD75C,0.001600*%
%ADD76C,0.002800*%
%ADD77C,0.002400*%
%ADD78R,0.043600X0.039700*%
%ADD79R,0.055400X0.043600*%
%ADD80R,0.047600X0.057400*%
%ADD81R,0.057400X0.047600*%
%ADD82C,0.083000*%
%ADD83C,0.079100*%
%ADD84C,0.075100*%
%ADD85C,0.134200*%
%ADD86C,0.110600*%
%ADD87C,0.146000*%
%ADD88C,0.086900*%
%ADD89R,0.063300X0.029800*%
%ADD90C,0.118400*%
%ADD91R,0.043600X0.055400*%
%ADD92R,0.035700X0.031800*%
%ADD93R,0.066100X0.075100*%
%ADD94R,0.083000X0.055400*%
%ADD95R,0.069200X0.102700*%
%ADD96R,0.055400X0.051500*%
%ADD97R,0.169600X0.086900*%
%ADD98C,0.035700*%
%ADD99R,0.116500X0.085000*%
%ADD100R,0.037700X0.047600*%
%ADD101R,0.036500X0.043600*%
%ADD102R,0.051500X0.047600*%
%ADD103R,0.053500X0.043600*%
%ADD104R,0.075100X0.039700*%
%ADD105R,0.047600X0.075100*%
%ADD106R,0.098700X0.039700*%
%ADD107R,0.043600X0.053500*%
%ADD108R,0.043600X0.062000*%
%ADD109R,0.062000X0.043600*%
%ADD110R,0.047600X0.032800*%
%ADD111R,0.047600X0.029800*%
%ADD112R,0.029800X0.047600*%
%ADD113R,0.059400X0.033800*%
%ADD114R,0.033800X0.059400*%
%ADD115R,0.067200X0.075100*%
%ADD116R,0.075100X0.047600*%
%ADD117R,0.039700X0.039700*%
%ADD118R,0.033800X0.071200*%
%ADD119C,0.024000*%
%ADD120C,0.010000*%
%ADD121C,0.020000*%
%ADD122C,0.008000*%
G04 APERTURE END LIST*
G54D10*
X50545Y-08421D02*
X50643Y-08421D01*
X50643Y-08421D02*
X50643Y-09208D01*
X50545Y-09208D02*
X50741Y-09208D01*
X51301Y-08684D02*
X51891Y-08684D01*
X51891Y-08684D02*
X51990Y-08771D01*
X51990Y-08771D02*
X51990Y-09208D01*
X51990Y-09208D02*
X51399Y-09208D01*
X51399Y-09208D02*
X51301Y-09121D01*
X51301Y-09121D02*
X51301Y-09034D01*
X51301Y-09034D02*
X51399Y-08946D01*
X51399Y-08946D02*
X51990Y-08946D01*
X52254Y-08684D02*
X52254Y-09034D01*
X52254Y-09034D02*
X52451Y-09208D01*
X52451Y-09208D02*
X52746Y-09208D01*
X52746Y-09208D02*
X52943Y-09034D01*
X52943Y-08684D02*
X52943Y-09382D01*
X52943Y-09382D02*
X52844Y-09470D01*
X52844Y-09470D02*
X52352Y-09470D01*
X52352Y-09470D02*
X52254Y-09382D01*
X53207Y-08946D02*
X53896Y-08946D01*
X53896Y-08946D02*
X53896Y-08771D01*
X53896Y-08771D02*
X53797Y-08684D01*
X53797Y-08684D02*
X53305Y-08684D01*
X53305Y-08684D02*
X53207Y-08771D01*
X53207Y-08771D02*
X53207Y-09121D01*
X53207Y-09121D02*
X53305Y-09208D01*
X53305Y-09208D02*
X53797Y-09208D01*
X53797Y-09208D02*
X53896Y-09121D01*
X54160Y-09208D02*
X54160Y-08684D01*
X54160Y-08859D02*
X54357Y-08684D01*
X54357Y-08684D02*
X54652Y-08684D01*
X54652Y-08684D02*
X54849Y-08859D01*
X56755Y-08509D02*
X56656Y-08421D01*
X56656Y-08421D02*
X56164Y-08421D01*
X56164Y-08421D02*
X56066Y-08509D01*
X56066Y-08509D02*
X56066Y-09121D01*
X56066Y-09121D02*
X56164Y-09208D01*
X56164Y-09208D02*
X56656Y-09208D01*
X56656Y-09208D02*
X56755Y-09121D01*
X56755Y-09121D02*
X56755Y-08859D01*
X56755Y-08859D02*
X56656Y-08771D01*
X56656Y-08771D02*
X56164Y-08771D01*
X56164Y-08771D02*
X56066Y-08859D01*
G54D38*
X27047Y-20000D03*
X27441Y-20000D03*
G54D11*
X17008Y-06968D03*
X17008Y-07362D03*
G54D38*
X15314Y-09213D03*
X15708Y-09213D03*
X14291Y-09213D03*
X14685Y-09213D03*
G54D11*
X14015Y-07362D03*
X14015Y-06968D03*
G54D38*
X21614Y-18189D03*
X21220Y-18189D03*
G54D11*
X20551Y-17756D03*
X20551Y-17362D03*
X12992Y-17283D03*
X12992Y-17677D03*
G54D38*
X10905Y-14803D03*
X10511Y-14803D03*
G54D11*
X17952Y-11142D03*
X17952Y-11536D03*
G54D38*
X15472Y-14646D03*
X15866Y-14646D03*
X15866Y-14173D03*
X15472Y-14173D03*
X19803Y-12992D03*
X19409Y-12992D03*
X18464Y-11890D03*
X18858Y-11890D03*
G54D11*
X12756Y-12874D03*
X12756Y-13268D03*
G54D38*
X16614Y-14173D03*
X17008Y-14173D03*
G54D11*
X15748Y-15709D03*
X15748Y-16103D03*
X15118Y-14606D03*
X15118Y-14212D03*
G54D38*
X16729Y-15067D03*
X16335Y-15067D03*
X11929Y-16457D03*
X12323Y-16457D03*
X19015Y-18110D03*
X19409Y-18110D03*
G54D11*
X10157Y-09803D03*
X10157Y-09409D03*
X08228Y-06929D03*
X08228Y-06535D03*
X12756Y-11772D03*
X12756Y-12166D03*
X16850Y-19882D03*
X16850Y-20276D03*
X15590Y-19646D03*
X15590Y-20040D03*
G54D12*
X17795Y-18130D03*
X17795Y-18720D03*
X21653Y-12382D03*
X21653Y-12972D03*
G54D13*
X14980Y-06142D03*
X14310Y-06142D03*
G54D14*
X15275Y-07658D03*
X15275Y-06988D03*
G54D15*
X25098Y-31917D03*
X24098Y-31917D03*
X23098Y-31917D03*
X22098Y-31917D03*
X21098Y-31917D03*
X20098Y-31917D03*
X25098Y-30917D03*
X24098Y-30917D03*
X23098Y-30917D03*
X22098Y-30917D03*
X21098Y-30917D03*
X05799Y-10610D03*
X05799Y-09610D03*
X05799Y-08610D03*
X05799Y-07610D03*
X05799Y-06610D03*
X05799Y-05610D03*
X06799Y-10610D03*
X06799Y-09610D03*
X06799Y-08610D03*
X06799Y-07610D03*
X06799Y-06610D03*
X29807Y-17214D03*
X29807Y-16387D03*
X06614Y-20394D03*
X06614Y-19567D03*
X20078Y-18898D03*
X19251Y-18898D03*
X21574Y-21732D03*
X21574Y-20905D03*
X10314Y-04725D03*
X10314Y-03898D03*
X16141Y-02362D03*
X17141Y-02362D03*
X29763Y-15276D03*
X29763Y-14276D03*
X02126Y-23465D03*
X01126Y-23465D03*
X08346Y-03859D03*
X08346Y-04859D03*
G54D16*
X46907Y-05314D03*
X47907Y-05314D03*
X46907Y-06314D03*
X47907Y-06314D03*
X46907Y-07314D03*
X47907Y-07314D03*
X46907Y-08314D03*
X47907Y-08314D03*
X46907Y-09314D03*
X47907Y-09314D03*
X46907Y-10314D03*
X47907Y-10314D03*
X46907Y-11314D03*
X47907Y-11314D03*
X46907Y-12314D03*
X47907Y-12314D03*
X46901Y-20831D03*
X47901Y-20831D03*
X46901Y-21831D03*
X47901Y-21831D03*
X46901Y-22831D03*
X47901Y-22831D03*
X46901Y-23831D03*
X47901Y-23831D03*
X46901Y-24831D03*
X47901Y-24831D03*
X46901Y-25831D03*
X47901Y-25831D03*
X46901Y-26831D03*
X47901Y-26831D03*
X46901Y-27831D03*
X47901Y-27831D03*
G54D17*
X27807Y-13414D03*
X26807Y-13414D03*
X25807Y-13414D03*
X25807Y-17414D03*
X26807Y-17414D03*
X27807Y-17414D03*
G54D15*
X07815Y-02335D03*
X08815Y-02335D03*
X09815Y-02335D03*
X10815Y-02335D03*
X11815Y-02335D03*
X12815Y-02335D03*
X13815Y-02335D03*
X06370Y-22784D03*
X06370Y-21784D03*
X07370Y-22784D03*
X07370Y-21784D03*
X08370Y-22784D03*
X08370Y-21784D03*
X09370Y-22784D03*
X09370Y-21784D03*
X10370Y-22784D03*
X10370Y-21784D03*
X11370Y-22784D03*
X11370Y-21784D03*
X12370Y-22784D03*
X12370Y-21784D03*
X23149Y-23992D03*
X23149Y-22992D03*
X23149Y-20992D03*
X23149Y-19992D03*
X23149Y-18992D03*
X23149Y-17992D03*
X23149Y-16992D03*
X23149Y-21992D03*
X03447Y-10606D03*
X03447Y-09606D03*
X03447Y-07606D03*
X03447Y-06606D03*
X03447Y-05606D03*
X03447Y-04606D03*
X03447Y-03606D03*
X03447Y-08606D03*
G54D18*
X13936Y-25906D03*
X19212Y-25906D03*
G54D16*
X15145Y-24839D03*
X16129Y-24839D03*
X16916Y-24839D03*
X17901Y-24839D03*
G54D19*
X02716Y-17401D03*
X02716Y-12677D03*
G54D16*
X04622Y-15236D03*
X04622Y-14447D03*
X03622Y-14842D03*
X03622Y-14053D03*
X03622Y-15631D03*
X04622Y-16025D03*
G54D20*
X01943Y-26102D03*
G54D21*
X04669Y-25543D03*
X05760Y-25543D03*
X06850Y-25543D03*
X07941Y-25543D03*
X09032Y-25543D03*
X05215Y-26661D03*
X06305Y-26661D03*
X07396Y-26661D03*
X08486Y-26661D03*
G54D20*
X11782Y-26102D03*
G36*
X11732Y-06899D02*
X11300Y-06899D01*
X11300Y-06801D01*
X11732Y-06801D01*
G37*
G36*
X11732Y-06702D02*
X11300Y-06702D01*
X11300Y-06604D01*
X11732Y-06604D01*
G37*
G36*
X11732Y-06505D02*
X11300Y-06505D01*
X11300Y-06407D01*
X11732Y-06407D01*
G37*
G36*
X11732Y-06308D02*
X11300Y-06308D01*
X11300Y-06210D01*
X11732Y-06210D01*
G37*
G36*
X11732Y-06112D02*
X11300Y-06112D01*
X11300Y-06014D01*
X11732Y-06014D01*
G37*
G36*
X09566Y-06112D02*
X09134Y-06112D01*
X09134Y-06014D01*
X09566Y-06014D01*
G37*
G36*
X09566Y-06308D02*
X09134Y-06308D01*
X09134Y-06210D01*
X09566Y-06210D01*
G37*
G36*
X09566Y-06505D02*
X09134Y-06505D01*
X09134Y-06407D01*
X09566Y-06407D01*
G37*
G36*
X09566Y-06702D02*
X09134Y-06702D01*
X09134Y-06604D01*
X09566Y-06604D01*
G37*
G36*
X09566Y-06899D02*
X09134Y-06899D01*
X09134Y-06801D01*
X09566Y-06801D01*
G37*
G54D14*
X16102Y-19665D03*
X16102Y-20335D03*
G54D20*
X26377Y-05985D03*
X21877Y-05985D03*
G54D21*
X27180Y-07186D03*
X21076Y-07186D03*
G54D16*
X26737Y-04387D03*
X21517Y-04387D03*
X25737Y-04387D03*
X22517Y-04387D03*
X25877Y-08485D03*
X25377Y-09485D03*
X24877Y-08485D03*
X24377Y-09485D03*
X23877Y-08485D03*
X23377Y-09485D03*
X22877Y-08485D03*
X22377Y-09485D03*
G54D23*
X01574Y-01575D03*
X48031Y-01575D03*
X48031Y-31496D03*
X01574Y-31496D03*
X29134Y-01575D03*
X27559Y-31496D03*
G54D15*
X00866Y-19134D03*
X00866Y-20134D03*
X03858Y-19134D03*
X04858Y-19134D03*
X46980Y-16365D03*
X47980Y-16365D03*
G54D24*
X37952Y-05471D03*
X33581Y-06967D03*
X38028Y-01416D03*
X34408Y-04606D03*
X38028Y-13424D03*
X33542Y-15000D03*
X35746Y-11928D03*
X37990Y-09449D03*
X37990Y-21457D03*
X33581Y-22990D03*
X35668Y-19960D03*
X38028Y-17441D03*
X37952Y-29407D03*
X33581Y-30984D03*
X34328Y-28386D03*
X37990Y-25433D03*
G54D25*
X12281Y-04409D03*
X11653Y-05353D03*
X11968Y-05669D03*
X03149Y-21023D03*
X01729Y-22045D03*
X09133Y-13070D03*
X06927Y-11890D03*
X14094Y-18424D03*
G54D26*
X11572Y-14802D03*
X16298Y-08975D03*
X15433Y-12597D03*
G54D25*
X20078Y-08424D03*
X21023Y-08424D03*
G54D26*
X15037Y-08819D03*
X15509Y-10551D03*
G54D25*
X09842Y-19842D03*
X08425Y-20158D03*
X24015Y-29289D03*
X24172Y-25353D03*
X10391Y-20394D03*
G54D26*
X13543Y-16378D03*
G54D25*
X03386Y-20707D03*
X03306Y-21968D03*
X08267Y-07243D03*
X15433Y-22677D03*
X14488Y-24171D03*
G54D26*
X15273Y-19842D03*
G54D25*
X20944Y-20000D03*
X20944Y-20236D03*
X46374Y-12441D03*
X46138Y-20315D03*
X46138Y-29369D03*
X23070Y-28583D03*
X08897Y-10315D03*
X05273Y-04015D03*
G54D26*
X13858Y-16378D03*
X13858Y-17007D03*
X13858Y-16063D03*
X14172Y-16378D03*
G54D25*
X21889Y-26221D03*
X24803Y-28108D03*
X23858Y-22284D03*
G54D26*
X13070Y-13070D03*
X13070Y-15276D03*
X13543Y-15118D03*
X14488Y-10236D03*
X13070Y-12755D03*
X16614Y-10158D03*
X14172Y-12912D03*
X14488Y-12912D03*
X13699Y-11890D03*
X16298Y-09291D03*
X15117Y-12597D03*
X20315Y-14802D03*
X17323Y-12912D03*
X22441Y-14331D03*
X17636Y-12912D03*
X20707Y-14646D03*
X16141Y-09133D03*
X15117Y-12912D03*
X15748Y-12912D03*
X18817Y-14646D03*
X17007Y-13228D03*
X17323Y-13228D03*
X19133Y-14960D03*
X16378Y-13228D03*
X18817Y-14960D03*
X17323Y-13542D03*
G54D25*
X14094Y-19133D03*
G54D26*
X14172Y-15118D03*
X17007Y-15118D03*
X20391Y-13701D03*
G54D25*
X11968Y-14409D03*
G54D26*
X14488Y-15433D03*
X20707Y-13701D03*
X17323Y-15433D03*
X21023Y-15905D03*
X14803Y-15747D03*
X15117Y-15747D03*
X20707Y-15591D03*
X15433Y-15747D03*
X18504Y-15591D03*
X21023Y-14015D03*
X17007Y-15747D03*
X19685Y-14173D03*
X17323Y-15747D03*
X14803Y-16063D03*
X14803Y-17401D03*
X17323Y-16063D03*
X21023Y-14331D03*
X17636Y-16063D03*
X19999Y-14331D03*
X20860Y-16694D03*
X21230Y-17165D03*
X15269Y-16763D03*
X16298Y-17874D03*
X16378Y-16692D03*
X19762Y-15276D03*
X16691Y-16692D03*
X18798Y-17024D03*
G54D24*
X30826Y-04644D03*
X29919Y-23108D03*
X30982Y-12597D03*
X29919Y-23622D03*
X29919Y-24094D03*
X30905Y-20630D03*
X30982Y-28504D03*
X29919Y-24606D03*
G54D25*
X08267Y-18582D03*
X05197Y-11967D03*
X07716Y-19213D03*
X09053Y-18661D03*
G54D26*
X11809Y-19291D03*
G54D25*
X12990Y-23699D03*
X12754Y-06063D03*
G54D24*
X40511Y-23661D03*
G54D26*
X16062Y-14802D03*
X14803Y-15118D03*
X15433Y-15433D03*
X16378Y-14488D03*
X16062Y-13857D03*
X16218Y-12283D03*
X15117Y-14802D03*
X14803Y-13542D03*
X15433Y-12912D03*
X13543Y-13542D03*
X21496Y-14882D03*
G54D25*
X08267Y-10315D03*
X08581Y-10315D03*
X09210Y-10315D03*
X09526Y-10315D03*
G54D26*
X14172Y-13228D03*
X18504Y-14960D03*
X17007Y-13542D03*
X17007Y-13857D03*
X18059Y-13718D03*
X13858Y-14488D03*
X10315Y-12283D03*
X14172Y-14488D03*
X15826Y-18110D03*
X21023Y-14960D03*
X17007Y-14488D03*
X16691Y-15433D03*
X19685Y-13542D03*
X18031Y-15511D03*
X17716Y-15276D03*
X17007Y-15433D03*
X19999Y-13701D03*
G54D24*
X37322Y-06911D03*
X39330Y-07856D03*
X39291Y-05454D03*
X37045Y-02856D03*
X39248Y-01399D03*
X39248Y-03800D03*
X44012Y-00589D03*
X39330Y-09449D03*
X39330Y-11770D03*
X37440Y-10865D03*
X44012Y-31575D03*
X44012Y-30589D03*
X44012Y-29567D03*
X44012Y-28583D03*
X44012Y-27559D03*
X44012Y-26575D03*
X44012Y-25551D03*
X44012Y-24567D03*
X44012Y-23583D03*
X44012Y-22559D03*
X44012Y-21575D03*
X44012Y-20589D03*
X44012Y-19644D03*
X44012Y-18582D03*
X44012Y-17559D03*
X44012Y-16574D03*
X44012Y-15589D03*
X44012Y-14566D03*
X44012Y-13582D03*
X44012Y-12677D03*
X44012Y-11534D03*
X44012Y-10551D03*
X44012Y-09566D03*
X44012Y-08582D03*
X44012Y-07519D03*
X44012Y-06574D03*
X44012Y-05589D03*
X44012Y-04606D03*
X44012Y-03582D03*
X44012Y-02597D03*
X44012Y-01614D03*
X37322Y-14882D03*
X39369Y-15827D03*
X39369Y-13424D03*
X37399Y-30866D03*
X39330Y-29407D03*
X39330Y-31811D03*
X37243Y-26888D03*
X39369Y-25394D03*
X39330Y-27834D03*
X37281Y-22872D03*
X39330Y-21416D03*
X39330Y-23817D03*
X37281Y-18857D03*
X39369Y-17401D03*
X39330Y-19842D03*
G54D25*
X32990Y-16456D03*
X32990Y-17401D03*
X33149Y-18424D03*
X33149Y-02441D03*
X33149Y-10393D03*
X44012Y-32441D03*
X32518Y-25905D03*
X32125Y-26614D03*
G54D24*
X39330Y-06635D03*
X36653Y-05219D03*
X36377Y-06517D03*
X40511Y-05494D03*
X42165Y-06635D03*
X40511Y-07698D03*
X36218Y-02620D03*
X36611Y-03603D03*
X36691Y-01180D03*
X40511Y-01477D03*
X40550Y-03760D03*
X39330Y-02620D03*
X42243Y-02620D03*
X39330Y-10589D03*
X40511Y-09526D03*
X40550Y-11652D03*
X36611Y-11652D03*
X37007Y-09566D03*
X39330Y-14606D03*
X40511Y-13542D03*
X40511Y-15707D03*
X42243Y-14606D03*
X36611Y-15827D03*
X36377Y-14449D03*
X37007Y-13542D03*
X39369Y-18582D03*
X40511Y-17597D03*
X40511Y-19644D03*
X42204Y-18622D03*
X36259Y-22479D03*
X30471Y-29606D03*
X30826Y-05315D03*
X31572Y-07597D03*
X31454Y-02755D03*
X33897Y-16416D03*
X36729Y-17205D03*
X37007Y-21575D03*
X36889Y-20038D03*
X36889Y-24015D03*
X36927Y-27990D03*
X37007Y-25512D03*
X37007Y-29526D03*
X36927Y-31968D03*
X40511Y-29606D03*
X40511Y-31652D03*
X42319Y-30589D03*
X39369Y-30630D03*
X36180Y-26534D03*
X40511Y-27638D03*
X40496Y-25436D03*
X42319Y-26614D03*
X42281Y-22597D03*
X40511Y-21575D03*
X39330Y-22597D03*
X31889Y-10511D03*
X31809Y-18424D03*
X31141Y-23622D03*
X30787Y-31180D03*
X31968Y-21811D03*
X32007Y-05787D03*
G54D25*
X29999Y-18819D03*
X29133Y-18819D03*
X26771Y-20000D03*
X25197Y-19920D03*
X36218Y-10551D03*
X36454Y-30551D03*
X39291Y-26614D03*
X36218Y-18504D03*
X42204Y-10629D03*
X36614Y-07717D03*
X29290Y-30551D03*
X29762Y-22125D03*
X31968Y-13857D03*
X31336Y-15669D03*
X33543Y-18188D03*
X33699Y-23699D03*
X32990Y-25905D03*
X31416Y-26850D03*
X30155Y-26298D03*
X30155Y-25905D03*
X31889Y-26141D03*
X29210Y-17952D03*
X28897Y-17952D03*
X26927Y-19133D03*
X25273Y-19449D03*
G54D24*
X41023Y-10629D03*
X41100Y-14566D03*
X41100Y-18661D03*
X33935Y-17401D03*
G54D25*
X29370Y-21496D03*
X31889Y-31180D03*
X31572Y-22913D03*
X41181Y-06614D03*
X41100Y-22597D03*
X37399Y-20943D03*
X37637Y-25039D03*
X37399Y-16928D03*
X37399Y-12992D03*
X37399Y-08975D03*
X37399Y-04960D03*
X37399Y-00945D03*
X41100Y-26614D03*
X41023Y-30630D03*
X37716Y-29053D03*
X31210Y-14930D03*
X31213Y-06936D03*
X33543Y-25905D03*
X29370Y-26141D03*
X31809Y-25196D03*
X26691Y-20551D03*
X27007Y-20551D03*
X27007Y-20866D03*
X26691Y-20866D03*
G54D119*
X41394Y-02614D03*
G54D24*
X30273Y-27281D03*
X30471Y-29998D03*
G54D25*
X31336Y-25748D03*
X30707Y-24567D03*
X27716Y-20000D03*
X10334Y-13739D03*
X19133Y-06220D03*
X18031Y-06298D03*
X13543Y-22284D03*
X17872Y-20866D03*
X15826Y-21339D03*
X13858Y-20707D03*
X14094Y-20394D03*
X14724Y-21023D03*
X15117Y-22441D03*
X16691Y-23779D03*
X17636Y-09291D03*
X18661Y-08582D03*
X18661Y-07952D03*
X18661Y-09055D03*
X19369Y-07165D03*
X19762Y-10315D03*
X19762Y-09528D03*
X15669Y-05747D03*
X16614Y-05669D03*
X14408Y-04015D03*
X13779Y-03701D03*
X13463Y-06850D03*
X13463Y-07559D03*
X11653Y-07283D03*
X12281Y-05983D03*
X08897Y-05669D03*
X08661Y-06534D03*
X11732Y-17952D03*
X10391Y-17481D03*
X10471Y-19133D03*
X12281Y-20943D03*
X02518Y-21575D03*
X02913Y-21575D03*
X02204Y-21575D03*
X05196Y-21416D03*
X05509Y-21416D03*
X04880Y-21416D03*
X21653Y-22913D03*
X09449Y-19291D03*
X14094Y-23465D03*
X04095Y-23542D03*
X09370Y-12205D03*
X07795Y-12912D03*
X18031Y-10393D03*
X24172Y-27163D03*
X21023Y-25589D03*
X23699Y-14960D03*
X23699Y-14095D03*
X12990Y-17952D03*
X15273Y-19449D03*
X24408Y-26141D03*
X24880Y-22125D03*
X24803Y-25196D03*
X24960Y-29606D03*
X26298Y-27087D03*
X24172Y-28661D03*
X12441Y-12912D03*
X02284Y-19920D03*
X24172Y-12597D03*
X12677Y-03622D03*
X18031Y-06928D03*
X18031Y-07401D03*
X19053Y-07717D03*
G54D26*
X16298Y-10709D03*
G54D25*
X09842Y-06456D03*
X17441Y-05709D03*
X19685Y-05315D03*
X17086Y-19920D03*
X07795Y-14409D03*
X07399Y-15511D03*
X08897Y-06534D03*
X11100Y-07087D03*
X10155Y-08975D03*
G54D26*
X15117Y-13857D03*
X14803Y-14173D03*
X14488Y-14173D03*
X14488Y-14802D03*
X14803Y-15433D03*
X16062Y-15433D03*
X16378Y-15433D03*
X19526Y-15433D03*
X19526Y-16063D03*
X17636Y-16692D03*
X20391Y-16534D03*
X21023Y-16534D03*
X20315Y-15118D03*
X20315Y-15747D03*
X17636Y-12283D03*
X14488Y-15747D03*
G54D25*
X14880Y-17795D03*
X15273Y-04015D03*
X13935Y-05905D03*
X14960Y-05747D03*
X12677Y-08188D03*
X17007Y-06692D03*
X15273Y-06692D03*
X14015Y-06692D03*
X15273Y-09528D03*
X14567Y-09528D03*
X18108Y-18110D03*
X20551Y-17087D03*
X20944Y-18188D03*
G54D26*
X21023Y-13701D03*
X22281Y-12992D03*
G54D25*
X20078Y-12992D03*
G54D26*
X21653Y-12755D03*
G54D25*
X16062Y-19369D03*
X12754Y-11496D03*
X13463Y-10945D03*
X12125Y-09606D03*
X17952Y-11732D03*
G54D26*
X14172Y-13542D03*
G54D25*
X10235Y-14882D03*
X11653Y-16772D03*
G54D26*
X16378Y-14173D03*
X15669Y-11023D03*
G54D25*
X20719Y-10423D03*
X10826Y-13739D03*
X09685Y-14802D03*
X11260Y-13857D03*
X10155Y-10078D03*
X15273Y-20158D03*
X17086Y-20315D03*
X23226Y-15038D03*
X23226Y-14095D03*
X22125Y-24331D03*
X24408Y-25748D03*
X25589Y-26378D03*
X23935Y-27952D03*
X07243Y-04960D03*
X23149Y-12912D03*
X20155Y-11654D03*
G54D26*
X14803Y-14488D03*
X15117Y-15433D03*
X15748Y-15433D03*
X15117Y-13542D03*
X18504Y-13701D03*
X16691Y-14802D03*
X16378Y-15747D03*
X16378Y-14802D03*
X16691Y-13857D03*
X19526Y-15118D03*
X20315Y-15433D03*
X19526Y-15747D03*
X19290Y-16614D03*
X18504Y-16534D03*
X20391Y-16220D03*
X16062Y-12912D03*
X16691Y-13228D03*
X16691Y-13542D03*
X13858Y-16692D03*
X14408Y-17087D03*
X13226Y-16692D03*
G54D25*
X07636Y-11732D03*
G54D26*
X14488Y-16063D03*
G54D25*
X09133Y-11654D03*
X07716Y-15118D03*
X09053Y-15118D03*
X07086Y-16534D03*
X07480Y-17165D03*
X09449Y-16850D03*
X11260Y-17007D03*
X11180Y-18897D03*
G54D26*
X12754Y-12441D03*
G54D25*
X19685Y-18110D03*
X21653Y-18424D03*
X20551Y-18110D03*
G54D26*
X21653Y-12125D03*
G54D25*
X15748Y-20394D03*
G54D26*
X14172Y-14173D03*
X12754Y-13464D03*
G54D25*
X13463Y-10000D03*
X12125Y-08819D03*
X19290Y-11890D03*
X19133Y-12992D03*
X11180Y-14882D03*
X11180Y-20630D03*
X08188Y-20471D03*
X07086Y-13857D03*
X12361Y-16063D03*
G54D26*
X15905Y-11023D03*
G54D25*
X06850Y-03701D03*
X08504Y-11967D03*
X09606Y-13386D03*
G54D26*
X13858Y-14802D03*
G54D25*
X11260Y-15669D03*
X05117Y-05353D03*
X13619Y-06220D03*
G54D26*
X15748Y-09528D03*
G54D25*
X17559Y-04251D03*
X15669Y-04015D03*
X15353Y-04960D03*
X19370Y-06692D03*
X17007Y-07637D03*
X15273Y-07952D03*
X14328Y-07323D03*
X12125Y-08110D03*
X14015Y-09213D03*
X12834Y-05276D03*
X19606Y-11416D03*
X19685Y-05747D03*
X12441Y-04960D03*
X14567Y-04960D03*
X19290Y-10865D03*
X18108Y-10078D03*
X14172Y-04882D03*
X14252Y-05747D03*
X05669Y-22361D03*
X04488Y-22597D03*
X02125Y-22361D03*
X02993Y-22441D03*
X07716Y-20471D03*
G54D26*
X13858Y-15747D03*
X16691Y-11967D03*
G54D25*
X08740Y-13701D03*
G54D26*
X16691Y-12912D03*
G54D25*
X07323Y-12125D03*
G54D26*
X14488Y-15118D03*
X15433Y-15118D03*
X16062Y-15118D03*
X14803Y-13857D03*
X15748Y-13857D03*
X16378Y-13857D03*
X16062Y-14173D03*
X17323Y-14173D03*
G54D25*
X17872Y-18975D03*
G54D26*
X15433Y-16063D03*
X21968Y-12125D03*
G54D25*
X18188Y-11180D03*
G54D119*
X07636Y-24098D03*
G54D25*
X09526Y-05747D03*
X11180Y-05983D03*
X07952Y-17007D03*
X11180Y-04251D03*
X09762Y-15905D03*
X11809Y-15827D03*
X10315Y-15669D03*
X02598Y-08739D03*
X12281Y-07479D03*
G54D26*
X16141Y-10865D03*
G54D25*
X08581Y-13386D03*
X23935Y-26534D03*
X05512Y-20394D03*
X03859Y-21732D03*
X09685Y-12912D03*
X09606Y-10945D03*
X07952Y-20158D03*
X19606Y-22990D03*
X09842Y-06850D03*
X46138Y-04331D03*
X46138Y-03857D03*
X46138Y-13386D03*
X46138Y-12912D03*
X46138Y-19842D03*
X46220Y-28897D03*
X46298Y-28344D03*
X10315Y-07323D03*
X24094Y-29762D03*
G54D26*
X15748Y-13228D03*
X13070Y-13386D03*
X14488Y-13542D03*
G54D25*
X24880Y-23622D03*
G54D26*
X15433Y-13228D03*
G54D25*
X24488Y-23306D03*
X24880Y-23070D03*
G54D26*
X16062Y-13228D03*
X12834Y-15433D03*
X16454Y-10315D03*
X13858Y-12912D03*
G54D25*
X16927Y-06140D03*
X18740Y-05905D03*
G54D26*
X14488Y-10865D03*
X13543Y-13228D03*
X14724Y-10865D03*
X13858Y-13228D03*
X14488Y-13228D03*
X16062Y-09528D03*
X14803Y-12912D03*
X16298Y-09528D03*
X14488Y-10471D03*
X14803Y-13228D03*
G54D25*
X22913Y-24644D03*
G54D26*
X14172Y-13857D03*
G54D25*
X22281Y-23779D03*
G54D26*
X14488Y-13857D03*
X13858Y-14173D03*
X13070Y-14331D03*
X10787Y-12441D03*
X13543Y-14488D03*
X14172Y-14802D03*
G54D25*
X08740Y-17874D03*
G54D26*
X18817Y-15276D03*
X17007Y-14802D03*
X14172Y-15433D03*
G54D25*
X14408Y-19133D03*
G54D26*
X14172Y-15747D03*
X13543Y-17401D03*
X15776Y-17047D03*
X19921Y-15747D03*
X16062Y-15747D03*
X19133Y-16220D03*
X17985Y-16686D03*
X15433Y-16378D03*
X18504Y-16220D03*
X16062Y-16063D03*
X18817Y-16772D03*
X18817Y-15591D03*
G54D25*
X10787Y-15905D03*
X08858Y-06180D03*
X12361Y-17007D03*
X11968Y-17007D03*
X12754Y-06456D03*
G54D28*
X16732Y-15078D02*
X16732Y-15038D01*
G54D10*
X37518Y-05905D02*
X37952Y-05471D01*
X34644Y-05905D02*
X37518Y-05905D01*
X33581Y-06967D02*
X34644Y-05905D01*
X37952Y-01416D02*
X38028Y-01416D01*
X36298Y-03070D02*
X37952Y-01416D01*
X35944Y-03070D02*
X36298Y-03070D01*
X34408Y-04606D02*
X35944Y-03070D01*
X37480Y-13975D02*
X38028Y-13424D01*
X34564Y-13975D02*
X37480Y-13975D01*
X33542Y-15000D02*
X34564Y-13975D01*
X35746Y-11928D02*
X37990Y-09684D01*
X37990Y-09684D02*
X37990Y-09449D01*
X37594Y-21850D02*
X37990Y-21457D01*
X34724Y-21850D02*
X37594Y-21850D01*
X33581Y-22990D02*
X34724Y-21850D01*
X35668Y-19960D02*
X38028Y-17597D01*
X38028Y-17597D02*
X38028Y-17441D01*
X37361Y-29998D02*
X37952Y-29407D01*
X34564Y-29998D02*
X37361Y-29998D01*
X33581Y-30984D02*
X34564Y-29998D01*
X34682Y-28386D02*
X34328Y-28386D01*
X34682Y-28386D02*
X37637Y-25433D01*
X37637Y-25433D02*
X37990Y-25433D01*
G54D27*
X21534Y-20866D02*
X21572Y-20905D01*
G54D32*
X01729Y-21576D02*
X01729Y-22045D01*
X01729Y-21576D02*
X02284Y-21023D01*
X02284Y-21023D02*
X03149Y-21023D01*
X06927Y-12283D02*
X06927Y-11890D01*
X07322Y-12677D02*
X06927Y-12283D01*
X07872Y-12677D02*
X07322Y-12677D01*
X08267Y-13070D02*
X07872Y-12677D01*
X09133Y-13070D02*
X08267Y-13070D01*
G54D28*
X16534Y-08975D02*
X16298Y-08975D01*
X16534Y-08975D02*
X17480Y-09922D01*
X17480Y-09922D02*
X17480Y-10393D01*
X15433Y-12441D02*
X17480Y-10393D01*
X15433Y-12597D02*
X15433Y-12441D01*
G54D10*
X23375Y-09484D02*
X23185Y-09484D01*
X20630Y-08977D02*
X20078Y-08424D01*
X22677Y-08977D02*
X20630Y-08977D01*
X23185Y-09484D02*
X22677Y-08977D01*
X21081Y-08485D02*
X22876Y-08485D01*
X21023Y-08424D02*
X21081Y-08485D01*
G54D28*
X15037Y-10078D02*
X15037Y-08819D01*
X15509Y-10551D02*
X15037Y-10078D01*
G54D32*
X09526Y-20158D02*
X09842Y-19842D01*
X08425Y-20158D02*
X09526Y-20158D01*
X24252Y-29289D02*
X24015Y-29289D01*
X25197Y-28344D02*
X24252Y-29289D01*
X25197Y-27402D02*
X25197Y-28344D01*
X24172Y-26378D02*
X25197Y-27402D01*
X24172Y-25353D02*
X24172Y-26378D01*
X03543Y-20867D02*
X03386Y-20707D01*
X03543Y-21732D02*
X03543Y-20867D01*
X03306Y-21968D02*
X03543Y-21732D01*
G54D28*
X14488Y-23622D02*
X15433Y-22677D01*
X14488Y-24171D02*
X14488Y-23622D01*
G54D35*
X15143Y-24753D02*
X15143Y-24838D01*
G54D27*
X15143Y-24838D02*
X15143Y-24301D01*
X15143Y-24301D02*
X16454Y-22990D01*
X16454Y-21496D02*
X16454Y-21259D01*
X16454Y-22990D02*
X16454Y-21496D01*
X16062Y-20866D02*
X16454Y-21259D01*
X16062Y-20866D02*
X15276Y-20866D01*
X15276Y-20866D02*
X14880Y-20471D01*
X14880Y-20471D02*
X14880Y-20000D01*
X14880Y-20000D02*
X15037Y-19842D01*
X15037Y-19842D02*
X15273Y-19842D01*
X16454Y-21259D02*
X19686Y-21259D01*
X19686Y-21259D02*
X20707Y-20236D01*
X20707Y-20236D02*
X20944Y-20000D01*
X20944Y-20236D02*
X20707Y-20236D01*
G54D28*
X46374Y-11810D02*
X46374Y-12441D01*
X46374Y-11810D02*
X46870Y-11313D01*
X46870Y-11313D02*
X46907Y-11313D01*
G54D35*
X45902Y-21835D02*
X46900Y-22830D01*
X45902Y-20551D02*
X45902Y-21835D01*
X46138Y-20315D02*
X45902Y-20551D01*
X45826Y-25905D02*
X46900Y-24831D01*
X45826Y-29053D02*
X45826Y-25905D01*
X46138Y-29369D02*
X45826Y-29053D01*
G54D32*
X23097Y-28610D02*
X23097Y-30917D01*
X23070Y-28583D02*
X23097Y-28610D01*
G54D28*
X05798Y-07609D02*
X05799Y-07689D01*
X08897Y-10315D02*
X07480Y-08897D01*
X07480Y-08424D02*
X07480Y-08897D01*
X07163Y-08110D02*
X07480Y-08424D01*
X06218Y-08110D02*
X07163Y-08110D01*
X05798Y-07609D02*
X06218Y-08110D01*
G54D32*
X05273Y-04015D02*
X07007Y-04015D01*
X07007Y-04015D02*
X07872Y-03150D01*
X07872Y-03150D02*
X10391Y-03150D01*
X10391Y-03150D02*
X10814Y-02727D01*
X10814Y-02727D02*
X10814Y-02334D01*
G54D28*
X11370Y-21782D02*
X11973Y-21180D01*
X14015Y-17165D02*
X13779Y-17401D01*
X14015Y-16220D02*
X14015Y-17165D01*
X13858Y-16063D02*
X14015Y-16220D01*
X13779Y-17401D02*
X13779Y-17952D01*
X13463Y-18268D02*
X13779Y-17952D01*
X13463Y-18268D02*
X13463Y-20631D01*
X13463Y-20631D02*
X12914Y-21180D01*
X12914Y-21180D02*
X11973Y-21180D01*
X12369Y-21782D02*
X12547Y-21782D01*
X14172Y-16378D02*
X14172Y-17165D01*
X13622Y-20707D02*
X13622Y-18739D01*
X12547Y-21782D02*
X13622Y-20707D01*
X13622Y-18739D02*
X13622Y-18268D01*
X13622Y-18268D02*
X13935Y-17952D01*
X13935Y-17952D02*
X13935Y-17401D01*
X13935Y-17401D02*
X14172Y-17165D01*
G54D32*
X23149Y-22990D02*
X23149Y-23070D01*
X23149Y-23070D02*
X23699Y-23622D01*
X23699Y-23622D02*
X23699Y-24407D01*
X23699Y-24407D02*
X23699Y-24410D01*
X23699Y-24410D02*
X21889Y-26221D01*
X23699Y-24407D02*
X23699Y-27007D01*
X23699Y-27007D02*
X24803Y-28108D01*
G54D28*
X13070Y-11654D02*
X14488Y-10236D01*
X13070Y-12755D02*
X13070Y-11654D01*
X16614Y-10158D02*
X16614Y-10393D01*
X16614Y-10393D02*
X16454Y-10551D01*
X15905Y-10551D02*
X16454Y-10551D01*
X14172Y-12283D02*
X15905Y-10551D01*
X14172Y-12283D02*
X14172Y-12912D01*
X13699Y-12992D02*
X13699Y-12125D01*
X13779Y-13070D02*
X13699Y-12992D01*
X14328Y-13070D02*
X13779Y-13070D01*
X14488Y-12912D02*
X14328Y-13070D01*
X13699Y-12125D02*
X13699Y-11890D01*
X16454Y-09291D02*
X16298Y-09291D01*
X17163Y-10000D02*
X16454Y-09291D01*
X17163Y-10393D02*
X17163Y-10000D01*
X15117Y-12441D02*
X17163Y-10393D01*
X15117Y-12597D02*
X15117Y-12441D01*
X16534Y-09133D02*
X16141Y-09133D01*
X17323Y-09920D02*
X16534Y-09133D01*
X17323Y-10393D02*
X17323Y-09920D01*
X15273Y-12441D02*
X17323Y-10393D01*
X15273Y-12755D02*
X15273Y-12441D01*
X15117Y-12912D02*
X15273Y-12755D01*
X11968Y-08582D02*
X12125Y-08582D01*
X11653Y-08268D02*
X11968Y-08582D01*
X11653Y-07717D02*
X11653Y-08268D01*
X11889Y-07481D02*
X11653Y-07717D01*
X11889Y-06770D02*
X11889Y-07481D01*
X11771Y-06652D02*
X11889Y-06770D01*
X11771Y-06652D02*
X11515Y-06652D01*
X15748Y-12912D02*
X15748Y-12283D01*
X15748Y-12283D02*
X17636Y-10395D01*
X17636Y-09920D02*
X17636Y-10395D01*
X16298Y-08582D02*
X17636Y-09920D01*
X12125Y-08582D02*
X16298Y-08582D01*
X11515Y-06454D02*
X11809Y-06456D01*
X16062Y-12125D02*
X17795Y-10393D01*
X16062Y-12519D02*
X16062Y-12125D01*
X16378Y-12834D02*
X16062Y-12519D01*
X16378Y-13228D02*
X16378Y-12834D01*
X16298Y-08424D02*
X17795Y-09922D01*
X11950Y-08424D02*
X16298Y-08424D01*
X11809Y-08283D02*
X11950Y-08424D01*
X11809Y-07717D02*
X11809Y-08283D01*
X12045Y-07481D02*
X11809Y-07717D01*
X12045Y-06692D02*
X12045Y-07481D01*
X11809Y-06456D02*
X12045Y-06692D01*
X17795Y-09922D02*
X17795Y-10393D01*
X18181Y-13943D02*
X18188Y-13937D01*
X17007Y-15118D02*
X18188Y-13937D01*
X18188Y-13937D02*
X18181Y-13943D01*
X18188Y-13937D02*
X18188Y-13851D01*
X18425Y-13369D02*
X20078Y-13369D01*
X18234Y-13558D02*
X18425Y-13369D01*
X18234Y-13805D02*
X18234Y-13558D01*
X18188Y-13851D02*
X18234Y-13805D01*
X20078Y-13386D02*
X20078Y-13369D01*
X20391Y-13701D02*
X20078Y-13386D01*
X11416Y-06949D02*
X11515Y-06848D01*
X11416Y-10158D02*
X11416Y-06949D01*
X10078Y-11496D02*
X11416Y-10158D01*
X10078Y-11574D02*
X10078Y-11496D01*
X11968Y-14409D02*
X11968Y-13937D01*
X11968Y-13937D02*
X10864Y-12834D01*
X10864Y-12834D02*
X10551Y-12834D01*
X10551Y-12834D02*
X10078Y-12361D01*
X10078Y-12361D02*
X10078Y-11574D01*
X20551Y-13857D02*
X20707Y-13701D01*
X18740Y-13857D02*
X20551Y-13857D01*
X17559Y-15038D02*
X18740Y-13857D01*
X17559Y-15196D02*
X17559Y-15038D01*
X17323Y-15433D02*
X17559Y-15196D01*
X20707Y-16220D02*
X21023Y-15905D01*
X20707Y-16614D02*
X20707Y-16220D01*
X19685Y-17637D02*
X20707Y-16614D01*
X15748Y-17637D02*
X19685Y-17637D01*
X15037Y-16928D02*
X15748Y-17637D01*
X15037Y-15983D02*
X15037Y-16928D01*
X14803Y-15747D02*
X15037Y-15983D01*
X15826Y-17479D02*
X19290Y-17479D01*
X15509Y-17165D02*
X15826Y-17479D01*
X15512Y-16770D02*
X15509Y-17165D01*
X15273Y-16534D02*
X15512Y-16770D01*
X15273Y-15905D02*
X15273Y-16534D01*
X15117Y-15747D02*
X15273Y-15905D01*
X20707Y-15591D02*
X19999Y-16298D01*
X19999Y-16298D02*
X19999Y-16770D01*
X19290Y-17479D02*
X19999Y-16770D01*
X17163Y-15591D02*
X17163Y-15589D01*
X17636Y-15591D02*
X17163Y-15591D01*
X17872Y-15353D02*
X17636Y-15591D01*
X17872Y-14882D02*
X17872Y-15353D01*
X18740Y-14015D02*
X21023Y-14015D01*
X17872Y-14882D02*
X18740Y-14015D01*
X17007Y-15747D02*
X17163Y-15589D01*
X17163Y-15589D02*
X17163Y-15591D01*
X18188Y-14724D02*
X18188Y-15606D01*
X18188Y-14724D02*
X18740Y-14173D01*
X18740Y-14173D02*
X19685Y-14173D01*
X18031Y-15747D02*
X18188Y-15606D01*
X17323Y-15747D02*
X18031Y-15747D01*
X14803Y-16063D02*
X14803Y-17401D01*
X18108Y-16220D02*
X18661Y-15669D01*
X17480Y-16220D02*
X18108Y-16220D01*
X17323Y-16063D02*
X17480Y-16220D01*
X18661Y-14566D02*
X18661Y-15669D01*
X18661Y-14566D02*
X18740Y-14488D01*
X18740Y-14488D02*
X20155Y-14488D01*
X20155Y-14488D02*
X20864Y-14488D01*
X20864Y-14488D02*
X21023Y-14331D01*
X18291Y-15724D02*
X18291Y-15646D01*
X17952Y-16063D02*
X18291Y-15724D01*
X17636Y-16063D02*
X17952Y-16063D01*
X18291Y-14779D02*
X18291Y-15646D01*
X18291Y-14779D02*
X18737Y-14331D01*
X18737Y-14331D02*
X19999Y-14331D01*
X20860Y-16795D02*
X20860Y-16694D01*
X21230Y-17165D02*
X20860Y-16795D01*
X16880Y-17195D02*
X16378Y-16692D01*
X17200Y-17195D02*
X16880Y-17195D01*
X17200Y-17195D02*
X19099Y-17195D01*
X19099Y-17195D02*
X19682Y-16612D01*
X19682Y-15356D02*
X19682Y-16612D01*
X19762Y-15276D02*
X19682Y-15356D01*
X17025Y-17024D02*
X16691Y-16692D01*
X17338Y-17024D02*
X17025Y-17024D01*
X17338Y-17024D02*
X18798Y-17024D01*
G54D10*
X30471Y-05038D02*
X30826Y-04644D01*
X30471Y-12914D02*
X30471Y-05038D01*
X30471Y-12914D02*
X30707Y-13150D01*
X30707Y-13150D02*
X30707Y-18935D01*
X30391Y-19251D02*
X30707Y-18935D01*
X30391Y-21690D02*
X30391Y-21693D01*
X30391Y-21693D02*
X30391Y-19251D01*
X30391Y-22635D02*
X30391Y-21693D01*
X29919Y-23108D02*
X30391Y-22635D01*
X30944Y-12540D02*
X30982Y-12597D01*
X30944Y-12540D02*
X30944Y-19013D01*
X30589Y-19369D02*
X30944Y-19013D01*
X30589Y-22007D02*
X30589Y-19369D01*
X30589Y-22952D02*
X30589Y-22007D01*
X29919Y-23622D02*
X30589Y-22952D01*
X30905Y-23108D02*
X30905Y-22163D01*
X29919Y-24094D02*
X30905Y-23108D01*
X30905Y-22163D02*
X30905Y-20630D01*
X30982Y-28504D02*
X30787Y-28306D01*
X30787Y-28306D02*
X30787Y-25471D01*
X30787Y-25471D02*
X29919Y-24606D01*
G54D32*
X08267Y-18582D02*
X07952Y-18266D01*
X06771Y-17085D02*
X07952Y-18266D01*
X06771Y-13464D02*
X06771Y-17085D01*
X05197Y-11967D02*
X05276Y-11967D01*
X05276Y-11967D02*
X06771Y-13464D01*
G54D28*
X11809Y-19291D02*
X11572Y-19528D01*
X11572Y-19528D02*
X11572Y-20707D01*
X10864Y-21416D02*
X11572Y-20707D01*
X10864Y-21416D02*
X10864Y-21968D01*
X10864Y-21968D02*
X10551Y-22284D01*
X10551Y-22284D02*
X10155Y-22284D01*
X10155Y-22284D02*
X09921Y-22520D01*
X09921Y-22520D02*
X09921Y-23622D01*
X09921Y-23622D02*
X08504Y-25039D01*
X08504Y-25039D02*
X08504Y-25825D01*
X08504Y-25825D02*
X07670Y-26660D01*
X07670Y-26660D02*
X07396Y-26660D01*
X06965Y-27323D02*
X06305Y-26660D01*
X08740Y-27323D02*
X06965Y-27323D01*
X11339Y-24724D02*
X08740Y-27323D01*
X11969Y-24724D02*
X11339Y-24724D01*
X12990Y-23699D02*
X11969Y-24724D01*
G54D10*
X21020Y-04882D02*
X21515Y-04387D01*
X16771Y-04882D02*
X21020Y-04882D01*
X16298Y-05355D02*
X16771Y-04882D01*
X13779Y-05355D02*
X16298Y-05355D01*
X13226Y-05905D02*
X13779Y-05355D01*
X12910Y-05905D02*
X13226Y-05905D01*
X12754Y-06063D02*
X12754Y-06061D01*
X12754Y-06061D02*
X12910Y-05905D01*
G54D28*
X16062Y-14802D02*
X16023Y-14802D01*
X16023Y-14802D02*
X15864Y-14646D01*
X15117Y-14606D02*
X15117Y-14802D01*
X06268Y-10078D02*
X05799Y-09608D01*
X08031Y-10078D02*
X07872Y-10078D01*
X08267Y-10315D02*
X08031Y-10078D01*
X07872Y-10078D02*
X06268Y-10078D01*
X05799Y-08609D02*
X05852Y-08609D01*
X07399Y-09133D02*
X07243Y-09133D01*
X08581Y-10315D02*
X07399Y-09133D01*
X06378Y-09133D02*
X07243Y-09133D01*
X05799Y-08609D02*
X06378Y-09133D01*
X05798Y-06610D02*
X05901Y-06610D01*
X09210Y-10315D02*
X07636Y-08739D01*
X05798Y-06610D02*
X06378Y-07087D01*
X06378Y-07087D02*
X07007Y-07087D01*
X07007Y-07087D02*
X07636Y-07715D01*
X07636Y-07715D02*
X07636Y-08739D01*
X09526Y-10315D02*
X07795Y-08582D01*
X06476Y-05610D02*
X05798Y-05610D01*
X07795Y-06928D02*
X06476Y-05610D01*
X07795Y-08582D02*
X07795Y-06928D01*
X18059Y-13718D02*
X17007Y-13857D01*
X10864Y-12677D02*
X10707Y-12677D01*
X12834Y-14646D02*
X10864Y-12677D01*
X13699Y-14646D02*
X12834Y-14646D01*
X13858Y-14488D02*
X13699Y-14646D01*
X10315Y-12283D02*
X10707Y-12677D01*
X17243Y-15038D02*
X18345Y-13937D01*
X17243Y-15118D02*
X17243Y-15038D01*
X17086Y-15276D02*
X17243Y-15118D01*
X16850Y-15276D02*
X17086Y-15276D01*
X16691Y-15433D02*
X16850Y-15276D01*
X18345Y-13937D02*
X18345Y-13622D01*
X18345Y-13622D02*
X18425Y-13542D01*
X18425Y-13542D02*
X19685Y-13542D01*
X18345Y-13952D02*
X18345Y-13937D01*
X18737Y-13701D02*
X18740Y-13701D01*
X17399Y-15038D02*
X18737Y-13701D01*
X17399Y-15118D02*
X17399Y-15038D01*
X17243Y-15276D02*
X17399Y-15118D01*
X17086Y-15433D02*
X17243Y-15276D01*
X17007Y-15433D02*
X17086Y-15433D01*
X18740Y-13701D02*
X19999Y-13701D01*
G54D66*
X08226Y-06928D02*
X08267Y-07243D01*
G54D10*
X38385Y-06911D02*
X37322Y-06911D01*
X38386Y-06911D02*
X38385Y-06911D01*
X39330Y-07856D02*
X38386Y-06911D01*
X38385Y-06361D02*
X38385Y-06911D01*
X39291Y-05454D02*
X38385Y-06361D01*
X37045Y-02874D02*
X37045Y-02856D01*
X37990Y-02874D02*
X37045Y-02874D01*
X39248Y-01614D02*
X37990Y-02874D01*
X39248Y-01399D02*
X39248Y-01614D01*
X37990Y-02874D02*
X38918Y-03800D01*
X39248Y-03800D02*
X38918Y-03800D01*
X38424Y-10827D02*
X38424Y-10353D01*
X38424Y-10353D02*
X38424Y-10355D01*
X39330Y-09449D02*
X38424Y-10355D01*
X39330Y-11770D02*
X38424Y-10865D01*
X38424Y-10865D02*
X38424Y-10827D01*
X37479Y-10827D02*
X38424Y-10827D01*
X37440Y-10865D02*
X37479Y-10827D01*
X38424Y-14882D02*
X38385Y-14882D01*
X38385Y-14882D02*
X37322Y-14882D01*
X39369Y-15827D02*
X38424Y-14882D01*
X38424Y-14842D02*
X38385Y-14882D01*
X38424Y-14369D02*
X38424Y-14842D01*
X39369Y-13424D02*
X38424Y-14369D01*
X37873Y-30866D02*
X37399Y-30866D01*
X39330Y-29407D02*
X37873Y-30866D01*
X38818Y-31811D02*
X37873Y-30866D01*
X39330Y-31811D02*
X38818Y-31811D01*
X37873Y-26888D02*
X37243Y-26888D01*
X39369Y-25394D02*
X37873Y-26888D01*
X37913Y-26888D02*
X37873Y-26888D01*
X38857Y-27834D02*
X37913Y-26888D01*
X39330Y-27834D02*
X38857Y-27834D01*
X37873Y-22872D02*
X37281Y-22872D01*
X39330Y-21416D02*
X37873Y-22872D01*
X37912Y-22872D02*
X37873Y-22872D01*
X38857Y-23817D02*
X37912Y-22872D01*
X39330Y-23817D02*
X38857Y-23817D01*
X37912Y-18857D02*
X37873Y-18857D01*
X37873Y-18857D02*
X37281Y-18857D01*
X39369Y-17401D02*
X37912Y-18857D01*
X38857Y-19842D02*
X37873Y-18857D01*
X39330Y-19842D02*
X38857Y-19842D01*
G54D30*
X27045Y-20000D02*
X26771Y-20000D01*
X25276Y-20000D02*
X26771Y-20000D01*
X25197Y-19920D02*
X25276Y-20000D01*
G54D10*
X37399Y-00945D02*
X39606Y-00945D01*
X39606Y-00945D02*
X40000Y-01338D01*
X40000Y-01338D02*
X40002Y-02782D01*
X40000Y-04251D02*
X39291Y-04960D01*
X39291Y-04960D02*
X37399Y-04960D01*
X40000Y-04251D02*
X40000Y-05433D01*
X40000Y-05433D02*
X41181Y-06614D01*
X41181Y-06614D02*
X40787Y-06614D01*
X40787Y-06614D02*
X39842Y-07559D01*
X39842Y-07559D02*
X39842Y-08268D01*
X39842Y-08268D02*
X39133Y-08975D01*
X39133Y-08975D02*
X37399Y-08975D01*
X39842Y-08268D02*
X39842Y-09449D01*
X39842Y-09449D02*
X41023Y-10629D01*
X41023Y-10629D02*
X40945Y-10629D01*
X40945Y-10629D02*
X39919Y-11654D01*
X39919Y-11654D02*
X39919Y-12283D01*
X39919Y-12283D02*
X39210Y-12992D01*
X39210Y-12992D02*
X37399Y-12992D01*
X39919Y-12283D02*
X39919Y-13386D01*
X39919Y-13386D02*
X41100Y-14566D01*
X39919Y-13386D02*
X39919Y-16300D01*
X39919Y-16300D02*
X39292Y-16928D01*
X39292Y-16928D02*
X37399Y-16928D01*
X39919Y-16300D02*
X39919Y-17401D01*
X39919Y-17401D02*
X39919Y-17479D01*
X39919Y-17479D02*
X41100Y-18661D01*
X39919Y-17479D02*
X39919Y-20866D01*
X39919Y-20866D02*
X39919Y-21416D01*
X39919Y-21416D02*
X41100Y-22597D01*
X39919Y-20866D02*
X37480Y-20866D01*
X37480Y-20866D02*
X37399Y-20943D01*
X39919Y-21416D02*
X39919Y-23935D01*
X39919Y-23935D02*
X39880Y-23976D01*
X39880Y-23976D02*
X38819Y-25039D01*
X38819Y-25039D02*
X37637Y-25039D01*
X39880Y-23976D02*
X39880Y-25394D01*
X39880Y-25394D02*
X41100Y-26614D01*
X39880Y-25394D02*
X39880Y-28226D01*
X39880Y-28226D02*
X39055Y-29053D01*
X39055Y-29053D02*
X37716Y-29053D01*
X39880Y-28226D02*
X39880Y-29488D01*
X39880Y-29488D02*
X41023Y-30630D01*
X31213Y-06936D02*
X32040Y-06936D01*
X32040Y-06936D02*
X33858Y-05118D01*
X33858Y-05118D02*
X35905Y-05118D01*
X35905Y-05118D02*
X36298Y-04724D01*
X36298Y-04724D02*
X37163Y-04724D01*
X37163Y-04724D02*
X37399Y-04960D01*
X31210Y-14930D02*
X31919Y-14930D01*
X31919Y-14930D02*
X33858Y-12992D01*
X33858Y-12992D02*
X37399Y-12992D01*
X31572Y-22913D02*
X32284Y-22913D01*
X32284Y-22913D02*
X34252Y-20943D01*
X34252Y-20943D02*
X37399Y-20943D01*
X31889Y-31180D02*
X34015Y-29053D01*
X34015Y-29053D02*
X37716Y-29053D01*
X33935Y-17401D02*
X35589Y-17401D01*
X35589Y-17401D02*
X36062Y-16928D01*
X36062Y-16928D02*
X37399Y-16928D01*
X29682Y-24331D02*
X31336Y-24331D01*
X31336Y-24331D02*
X31572Y-24095D01*
X29370Y-24015D02*
X29682Y-24331D01*
X31572Y-24095D02*
X31572Y-22913D01*
X29370Y-21496D02*
X29370Y-24015D01*
X33383Y-25905D02*
X31572Y-24095D01*
X33543Y-25905D02*
X33383Y-25905D01*
X29370Y-26141D02*
X29370Y-24015D01*
G54D31*
X31572Y-24960D02*
X31572Y-24095D01*
X31809Y-25196D02*
X31572Y-24960D01*
G54D27*
X27007Y-20551D02*
X28425Y-20551D01*
X28425Y-20551D02*
X29370Y-21496D01*
G54D10*
X40002Y-02782D02*
X40000Y-04251D01*
G54D120*
X40002Y-02782D02*
X41394Y-02614D01*
G54D10*
X30235Y-29998D02*
X30471Y-29998D01*
X30117Y-29880D02*
X30235Y-29998D01*
X30117Y-27441D02*
X30117Y-29880D01*
X30273Y-27281D02*
X30117Y-27441D01*
X31336Y-25196D02*
X30707Y-24567D01*
X31336Y-25196D02*
X31336Y-25748D01*
G54D30*
X29762Y-15276D02*
X29685Y-15276D01*
X28504Y-19211D02*
X27716Y-20000D01*
X28504Y-18188D02*
X28504Y-19211D01*
X29685Y-15276D02*
X28504Y-16456D01*
X28504Y-16456D02*
X28504Y-18188D01*
X27716Y-20000D02*
X27441Y-20000D01*
X29807Y-17214D02*
X30188Y-17214D01*
X30471Y-16930D02*
X30188Y-17214D01*
X30471Y-14409D02*
X30471Y-16930D01*
X30338Y-14276D02*
X29762Y-14276D01*
X30338Y-14276D02*
X30471Y-14409D01*
G54D27*
X04880Y-21416D02*
X05513Y-21416D01*
X16691Y-23779D02*
X17750Y-24838D01*
X17750Y-24838D02*
X17899Y-24838D01*
G54D10*
X14389Y-03996D02*
X14408Y-04015D01*
G54D32*
X08661Y-06534D02*
X08226Y-06534D01*
X02518Y-21575D02*
X02913Y-21575D01*
X02518Y-21575D02*
X02205Y-21575D01*
X02205Y-21575D02*
X02204Y-21575D01*
X05196Y-21416D02*
X05509Y-21416D01*
X05196Y-21416D02*
X04880Y-21416D01*
G54D27*
X07369Y-21782D02*
X06370Y-22784D01*
G54D30*
X23699Y-14960D02*
X23699Y-14095D01*
G54D31*
X12990Y-17677D02*
X12990Y-17952D01*
X15273Y-19449D02*
X15391Y-19449D01*
X15391Y-19449D02*
X15589Y-19646D01*
G54D32*
X26298Y-27795D02*
X26298Y-27087D01*
X24960Y-29133D02*
X26298Y-27795D01*
X24960Y-29606D02*
X24960Y-29133D01*
X24960Y-29606D02*
X24960Y-30001D01*
X24567Y-31385D02*
X25098Y-31915D01*
X24567Y-30394D02*
X24567Y-31385D01*
X24960Y-30001D02*
X24567Y-30394D01*
X21096Y-30917D02*
X21096Y-31019D01*
X21465Y-31385D02*
X24567Y-31385D01*
X21096Y-31019D02*
X21465Y-31385D01*
X09347Y-06456D02*
X09762Y-06456D01*
X09762Y-06456D02*
X09842Y-06456D01*
G54D10*
X17045Y-19882D02*
X16850Y-19882D01*
X17086Y-19920D02*
X17045Y-19882D01*
G54D31*
X15589Y-19646D02*
X16081Y-19646D01*
X16081Y-19646D02*
X16100Y-19665D01*
G54D10*
X10155Y-09409D02*
X10155Y-08975D01*
G54D28*
X15787Y-15709D02*
X16062Y-15433D01*
X15787Y-15709D02*
X15748Y-15709D01*
X17636Y-12007D02*
X17636Y-12283D01*
G54D10*
X14980Y-06140D02*
X14980Y-05768D01*
X14980Y-05768D02*
X14960Y-05747D01*
X17007Y-06967D02*
X17007Y-06692D01*
X15273Y-06988D02*
X15273Y-06692D01*
X14015Y-06692D02*
X14015Y-06967D01*
X15314Y-09213D02*
X15314Y-09409D01*
X15273Y-09449D02*
X15273Y-09528D01*
X15314Y-09409D02*
X15273Y-09449D01*
X14685Y-09213D02*
X14685Y-09409D01*
X14685Y-09409D02*
X14567Y-09528D01*
G54D28*
X15471Y-14173D02*
X15471Y-13975D01*
X15353Y-13857D02*
X15117Y-13857D01*
X15471Y-13975D02*
X15353Y-13857D01*
X17795Y-18129D02*
X18089Y-18129D01*
X18089Y-18129D02*
X18108Y-18110D01*
X19015Y-18110D02*
X19015Y-18662D01*
X19015Y-18662D02*
X19251Y-18897D01*
X20551Y-17361D02*
X20551Y-17165D01*
X20551Y-17165D02*
X20551Y-17087D01*
X20944Y-18188D02*
X21218Y-18188D01*
G54D27*
X23149Y-16991D02*
X23242Y-16991D01*
X23699Y-16536D02*
X23699Y-14960D01*
X23242Y-16991D02*
X23699Y-16536D01*
G54D28*
X21653Y-12971D02*
X21653Y-12755D01*
G54D10*
X20078Y-12992D02*
X19803Y-12992D01*
G54D31*
X16850Y-19882D02*
X16732Y-19882D01*
X16515Y-19665D02*
X16100Y-19665D01*
X16732Y-19882D02*
X16515Y-19665D01*
X16100Y-19665D02*
X16100Y-19409D01*
X16100Y-19409D02*
X16062Y-19369D01*
G54D28*
X12754Y-12874D02*
X12480Y-12874D01*
X12480Y-12874D02*
X12441Y-12912D01*
X12754Y-11772D02*
X12754Y-11496D01*
G54D10*
X17952Y-11732D02*
X18267Y-11890D01*
X18267Y-11890D02*
X18463Y-11890D01*
X10509Y-14802D02*
X10315Y-14802D01*
X10315Y-14802D02*
X10235Y-14882D01*
X11927Y-16456D02*
X11927Y-16496D01*
X11927Y-16496D02*
X11653Y-16772D01*
G54D28*
X16614Y-14173D02*
X16378Y-14173D01*
G54D10*
X17636Y-12007D02*
X17674Y-12007D01*
X17674Y-12007D02*
X17952Y-11732D01*
X17952Y-11536D02*
X17952Y-11732D01*
X16729Y-15067D02*
X16729Y-15082D01*
X16729Y-15082D02*
X16378Y-15433D01*
G54D32*
X15273Y-20158D02*
X15471Y-20158D01*
X15471Y-20158D02*
X15589Y-20040D01*
X16889Y-20315D02*
X16850Y-20276D01*
X17086Y-20315D02*
X16889Y-20315D01*
X22098Y-28767D02*
X22098Y-30917D01*
X23935Y-27952D02*
X22913Y-27952D01*
X22913Y-27952D02*
X22098Y-28767D01*
X10155Y-09802D02*
X10155Y-10078D01*
G54D10*
X07243Y-04960D02*
X08345Y-03859D01*
G54D27*
X23226Y-14095D02*
X23226Y-15038D01*
X23226Y-14095D02*
X23226Y-13464D01*
X23226Y-13464D02*
X23226Y-12992D01*
X23226Y-12992D02*
X23149Y-12912D01*
X26805Y-13413D02*
X26805Y-13184D01*
X26805Y-13184D02*
X26378Y-12755D01*
X26378Y-12755D02*
X24880Y-12755D01*
X24880Y-12755D02*
X24172Y-13464D01*
X24172Y-13464D02*
X23226Y-13464D01*
G54D31*
X16850Y-20276D02*
X16161Y-20276D01*
X16161Y-20276D02*
X16100Y-20334D01*
X15589Y-20040D02*
X15806Y-20040D01*
X15806Y-20040D02*
X16100Y-20334D01*
G54D28*
X12754Y-12441D02*
X12754Y-12165D01*
X16336Y-14842D02*
X16378Y-14802D01*
X19408Y-18110D02*
X19685Y-18110D01*
X20551Y-17755D02*
X20551Y-18110D01*
X21614Y-18386D02*
X21653Y-18424D01*
X21614Y-18386D02*
X21614Y-18188D01*
X21653Y-12382D02*
X21653Y-12125D01*
G54D31*
X16100Y-20334D02*
X15806Y-20334D01*
X15806Y-20334D02*
X15748Y-20394D01*
G54D28*
X12754Y-13268D02*
X12754Y-13464D01*
G54D10*
X19290Y-11890D02*
X18858Y-11890D01*
X19408Y-12992D02*
X19133Y-12992D01*
X10905Y-14802D02*
X11100Y-14802D01*
X11100Y-14802D02*
X11180Y-14882D01*
X12323Y-16456D02*
X12323Y-16100D01*
X12323Y-16100D02*
X12361Y-16063D01*
X12990Y-17283D02*
X12990Y-16928D01*
X12990Y-16928D02*
X13226Y-16692D01*
X16335Y-15067D02*
X16335Y-14846D01*
X16335Y-14846D02*
X16378Y-14802D01*
G54D28*
X13858Y-14802D02*
X12125Y-14802D01*
X11336Y-15591D02*
X12125Y-14802D01*
X11260Y-15669D02*
X11336Y-15591D01*
G54D10*
X09606Y-13386D02*
X11180Y-13386D01*
G54D28*
X11496Y-14409D02*
X11496Y-14173D01*
X11889Y-14802D02*
X11496Y-14409D01*
X11889Y-14802D02*
X12125Y-14802D01*
G54D10*
X11496Y-13701D02*
X11496Y-14093D01*
X11180Y-13386D02*
X11496Y-13701D01*
X11496Y-14093D02*
X11496Y-14173D01*
X13543Y-06220D02*
X13619Y-06220D01*
G54D28*
X15707Y-09488D02*
X15748Y-09528D01*
X15707Y-09488D02*
X15707Y-09213D01*
G54D10*
X17007Y-07361D02*
X17007Y-07637D01*
X15273Y-07658D02*
X15273Y-07952D01*
X14015Y-07361D02*
X14290Y-07361D01*
X14290Y-07361D02*
X14328Y-07323D01*
X14290Y-09213D02*
X14015Y-09213D01*
X24464Y-08897D02*
X24877Y-08485D01*
X24172Y-08897D02*
X24464Y-08897D01*
X23858Y-09213D02*
X24172Y-08897D01*
X23858Y-09764D02*
X23858Y-09213D01*
X23622Y-10000D02*
X23858Y-09764D01*
X22204Y-10000D02*
X23622Y-10000D01*
X21336Y-10865D02*
X22204Y-10000D01*
X19290Y-10865D02*
X21336Y-10865D01*
X25376Y-09484D02*
X25376Y-09505D01*
X18108Y-10080D02*
X18108Y-10078D01*
X19210Y-11180D02*
X18108Y-10080D01*
X21336Y-11180D02*
X19210Y-11180D01*
X22281Y-10236D02*
X21336Y-11180D01*
X24644Y-10236D02*
X22281Y-10236D01*
X25376Y-09505D02*
X24644Y-10236D01*
X14252Y-06084D02*
X14309Y-06140D01*
X14252Y-05747D02*
X14252Y-06084D01*
G54D30*
X05669Y-22361D02*
X05433Y-22597D01*
X05433Y-22597D02*
X04488Y-22597D01*
X02914Y-22520D02*
X02125Y-22520D01*
X02125Y-22520D02*
X02125Y-22361D01*
X02993Y-22441D02*
X02914Y-22520D01*
X02125Y-23465D02*
X02125Y-22520D01*
X02125Y-23465D02*
X03622Y-23465D01*
X03622Y-23465D02*
X04488Y-22597D01*
G54D27*
X02993Y-22441D02*
X05589Y-22441D01*
X02125Y-23465D02*
X02125Y-23149D01*
X21260Y-22045D02*
X21572Y-21732D01*
G54D33*
X01927Y-22559D02*
X01576Y-22559D01*
X01576Y-22559D02*
X01221Y-22204D01*
X01221Y-22204D02*
X01221Y-21378D01*
X01221Y-21378D02*
X01691Y-20905D01*
X01691Y-20905D02*
X01691Y-19568D01*
X01691Y-19568D02*
X01889Y-19371D01*
X01927Y-22559D02*
X02125Y-22361D01*
X01889Y-18504D02*
X01889Y-19371D01*
X02125Y-23465D02*
X02125Y-22361D01*
X21572Y-21732D02*
X20315Y-22990D01*
X03226Y-24567D02*
X02125Y-23465D01*
X03226Y-24803D02*
X03226Y-24567D01*
X03226Y-24803D02*
X03226Y-25984D01*
X03226Y-25984D02*
X05117Y-27872D01*
X05117Y-27872D02*
X18817Y-27872D01*
X18817Y-27872D02*
X20315Y-26377D01*
X20315Y-22990D02*
X20315Y-26377D01*
X01889Y-18504D02*
X03070Y-18504D01*
X06298Y-20394D02*
X06614Y-20394D01*
X05669Y-19764D02*
X06298Y-20394D01*
X05669Y-18188D02*
X05669Y-19764D01*
X05433Y-17952D02*
X05669Y-18188D01*
X03619Y-17952D02*
X05433Y-17952D01*
X03070Y-18504D02*
X03619Y-17952D01*
G54D27*
X05669Y-22361D02*
X05669Y-21808D01*
X05982Y-21023D02*
X06614Y-20394D01*
X05982Y-21339D02*
X05982Y-21023D01*
X05826Y-21496D02*
X05982Y-21339D01*
X05826Y-21652D02*
X05826Y-21496D01*
X05669Y-21808D02*
X05826Y-21652D01*
G54D33*
X03447Y-10606D02*
X02937Y-10606D01*
X01653Y-18268D02*
X01889Y-18504D01*
X01653Y-11890D02*
X01653Y-18268D01*
X02937Y-10606D02*
X01653Y-11890D01*
G54D28*
X17205Y-14173D02*
X17323Y-14173D01*
X15748Y-16103D02*
X15471Y-16103D01*
X17795Y-18897D02*
X17872Y-18975D01*
X17795Y-18897D02*
X17795Y-18720D01*
X15471Y-16103D02*
X15433Y-16063D01*
X15864Y-14173D02*
X16062Y-14173D01*
X15471Y-14646D02*
X15471Y-15078D01*
X15471Y-15078D02*
X15433Y-15118D01*
X15117Y-14211D02*
X15117Y-14173D01*
X15117Y-14173D02*
X14803Y-13857D01*
X17007Y-14173D02*
X17323Y-14173D01*
G54D10*
X17952Y-11140D02*
X18150Y-11140D01*
X18150Y-11140D02*
X18188Y-11180D01*
X11180Y-05905D02*
X11180Y-06063D01*
G54D32*
X11515Y-06061D02*
X11180Y-06063D01*
X11180Y-06063D02*
X11180Y-05983D01*
G54D10*
X11180Y-05983D02*
X11180Y-05827D01*
X11180Y-05827D02*
X11100Y-05747D01*
X11100Y-05747D02*
X09526Y-05747D01*
G54D28*
X08581Y-16378D02*
X07952Y-17007D01*
X08581Y-14802D02*
X08581Y-16378D01*
X09370Y-14015D02*
X08581Y-14802D01*
X09370Y-12834D02*
X09370Y-14015D01*
X08976Y-12441D02*
X09370Y-12834D01*
X08976Y-12125D02*
X08976Y-12441D01*
X09370Y-11732D02*
X08976Y-12125D01*
X09370Y-11416D02*
X09370Y-11732D01*
X09290Y-11338D02*
X09370Y-11416D01*
X09290Y-10945D02*
X09290Y-11338D01*
X09842Y-10393D02*
X09290Y-10945D01*
X09842Y-10236D02*
X09842Y-10393D01*
X07952Y-08346D02*
X09842Y-10236D01*
X07952Y-05905D02*
X07952Y-08346D01*
X08581Y-05276D02*
X07952Y-05905D01*
X08581Y-05276D02*
X10787Y-05276D01*
X10787Y-05276D02*
X11100Y-04960D01*
X11100Y-04331D02*
X11100Y-04960D01*
X11180Y-04251D02*
X11100Y-04331D01*
X11515Y-06258D02*
X12007Y-06258D01*
X12007Y-06258D02*
X12518Y-06770D01*
X12518Y-06770D02*
X12518Y-07165D01*
X12518Y-07165D02*
X12281Y-07401D01*
X12281Y-07401D02*
X12281Y-07479D01*
X16141Y-10865D02*
X16114Y-10835D01*
G54D10*
X23149Y-21991D02*
X23149Y-22045D01*
X23935Y-22834D02*
X23935Y-26534D01*
X23149Y-22045D02*
X23935Y-22834D01*
G54D32*
X05276Y-20394D02*
X05512Y-20394D01*
X03859Y-21732D02*
X05276Y-20394D01*
X09685Y-12912D02*
X09606Y-12834D01*
X09606Y-12834D02*
X09606Y-10945D01*
X09350Y-06850D02*
X09842Y-06850D01*
G54D35*
X45984Y-06391D02*
X46907Y-07313D01*
X45984Y-04488D02*
X45984Y-06391D01*
X46138Y-04331D02*
X45984Y-04488D01*
X46907Y-08314D02*
X46739Y-08314D01*
X45826Y-04173D02*
X45826Y-04568D01*
X46138Y-03857D02*
X45826Y-04173D01*
X45826Y-04568D02*
X45826Y-07401D01*
X45826Y-07401D02*
X46739Y-08314D01*
G54D28*
X46138Y-13386D02*
X45902Y-13150D01*
X45902Y-13150D02*
X45902Y-10316D01*
X45902Y-10316D02*
X46907Y-09314D01*
X46907Y-10313D02*
X46694Y-10313D01*
X46138Y-10867D02*
X46138Y-12912D01*
X46694Y-10313D02*
X46138Y-10867D01*
G54D35*
X45748Y-22677D02*
X46900Y-23831D01*
X45748Y-20236D02*
X45748Y-22677D01*
X46138Y-19842D02*
X45748Y-20236D01*
X45984Y-26747D02*
X46900Y-25829D01*
X45984Y-28661D02*
X45984Y-26747D01*
X46220Y-28897D02*
X45984Y-28661D01*
X46868Y-26831D02*
X46900Y-26831D01*
X46298Y-27399D02*
X46868Y-26831D01*
X46298Y-27399D02*
X46298Y-28344D01*
G54D32*
X09347Y-06063D02*
X10391Y-06063D01*
X10315Y-07321D02*
X10315Y-07323D01*
X10391Y-07243D02*
X10315Y-07321D01*
X10391Y-06063D02*
X10391Y-07243D01*
X24098Y-29766D02*
X24098Y-30917D01*
X24094Y-29762D02*
X24098Y-29766D01*
G54D28*
X16850Y-13070D02*
X17163Y-12755D01*
X20630Y-12755D02*
X21336Y-13464D01*
X21336Y-13464D02*
X21336Y-16770D01*
X21336Y-16770D02*
X22598Y-18030D01*
X22598Y-18030D02*
X22598Y-23440D01*
X22598Y-23440D02*
X23149Y-23992D01*
X17163Y-12755D02*
X20630Y-12755D01*
X15905Y-13386D02*
X16141Y-13386D01*
X15748Y-13228D02*
X15905Y-13386D01*
X16141Y-13386D02*
X16454Y-13386D01*
X16454Y-13386D02*
X16534Y-13306D01*
X16534Y-13150D02*
X16534Y-13306D01*
X16534Y-13150D02*
X16614Y-13070D01*
X16614Y-13070D02*
X16850Y-13070D01*
X13070Y-13622D02*
X13070Y-13386D01*
X13306Y-13857D02*
X13070Y-13622D01*
X13858Y-13857D02*
X13306Y-13857D01*
X14015Y-13701D02*
X13858Y-13857D01*
X14328Y-13701D02*
X14015Y-13701D01*
X14488Y-13542D02*
X14328Y-13701D01*
X14488Y-13542D02*
X14567Y-13542D01*
X15589Y-13386D02*
X15748Y-13228D01*
X14724Y-13386D02*
X15589Y-13386D01*
X14567Y-13542D02*
X14724Y-13386D01*
G54D10*
X24094Y-22834D02*
X24094Y-21937D01*
X24094Y-21937D02*
X23149Y-20992D01*
X24094Y-22834D02*
X24094Y-23465D01*
X24094Y-23465D02*
X24251Y-23622D01*
X24251Y-23622D02*
X24880Y-23622D01*
X23149Y-19991D02*
X23149Y-19998D01*
X23149Y-19998D02*
X23779Y-20627D01*
X23779Y-20627D02*
X23779Y-21102D01*
X23779Y-21102D02*
X24252Y-21575D01*
X24252Y-21575D02*
X24252Y-23070D01*
X24252Y-23070D02*
X24488Y-23306D01*
X24880Y-23070D02*
X24488Y-22677D01*
X24488Y-22677D02*
X24488Y-21416D01*
X24488Y-21416D02*
X24015Y-20943D01*
X24015Y-20943D02*
X24015Y-18504D01*
X24015Y-18504D02*
X23501Y-17992D01*
X23501Y-17992D02*
X23149Y-17992D01*
G54D28*
X15982Y-10315D02*
X16454Y-10315D01*
X13858Y-12441D02*
X15982Y-10315D01*
X13858Y-12441D02*
X13858Y-12912D01*
X16927Y-06140D02*
X17479Y-06140D01*
X17479Y-06140D02*
X17715Y-05905D01*
X17715Y-05905D02*
X18740Y-05905D01*
X14408Y-10865D02*
X14488Y-10865D01*
X13543Y-11732D02*
X14408Y-10865D01*
X13543Y-13228D02*
X13543Y-11732D01*
X14567Y-10709D02*
X14724Y-10865D01*
X14408Y-10709D02*
X14567Y-10709D01*
X13386Y-11732D02*
X14408Y-10709D01*
X13386Y-13308D02*
X13386Y-11732D01*
X13463Y-13386D02*
X13386Y-13308D01*
X13699Y-13386D02*
X13463Y-13386D01*
X13858Y-13228D02*
X13699Y-13386D01*
X14644Y-13070D02*
X14488Y-13228D01*
X14644Y-12599D02*
X14644Y-13070D01*
X16850Y-10393D02*
X14644Y-12599D01*
X16850Y-10158D02*
X16850Y-10393D01*
X16611Y-09920D02*
X16850Y-10158D01*
X16454Y-09920D02*
X16611Y-09920D01*
X16062Y-09528D02*
X16454Y-09920D01*
X14803Y-12597D02*
X14803Y-12912D01*
X14803Y-12597D02*
X17007Y-10393D01*
X17007Y-10393D02*
X17007Y-10000D01*
X17007Y-10000D02*
X16534Y-09528D01*
X16534Y-09528D02*
X16298Y-09528D01*
X13226Y-11732D02*
X14488Y-10471D01*
X13226Y-13542D02*
X13226Y-11732D01*
X13386Y-13701D02*
X13226Y-13542D01*
X13699Y-13701D02*
X13386Y-13701D01*
X14015Y-13386D02*
X13699Y-13701D01*
X14015Y-13386D02*
X14567Y-13386D01*
X14567Y-13386D02*
X14724Y-13228D01*
X14724Y-13228D02*
X14803Y-13228D01*
X16457Y-13542D02*
X16614Y-13386D01*
X15353Y-13542D02*
X16457Y-13542D01*
X15196Y-13701D02*
X15353Y-13542D01*
X14644Y-13701D02*
X15196Y-13701D01*
X14488Y-13857D02*
X14644Y-13701D01*
X16614Y-13386D02*
X16771Y-13386D01*
X16771Y-13386D02*
X18188Y-13386D01*
X18188Y-13386D02*
X18347Y-13228D01*
X18347Y-13228D02*
X20944Y-13228D01*
X21179Y-13462D02*
X20944Y-13228D01*
X21179Y-13462D02*
X21179Y-16770D01*
X21179Y-16770D02*
X22441Y-18032D01*
X22441Y-18032D02*
X22441Y-23622D01*
X22441Y-23622D02*
X22281Y-23779D01*
X13229Y-14173D02*
X13858Y-14173D01*
X13070Y-14331D02*
X13229Y-14173D01*
X12834Y-14488D02*
X10787Y-12441D01*
X13543Y-14488D02*
X12834Y-14488D01*
X14015Y-14960D02*
X12281Y-14960D01*
X14172Y-14802D02*
X14015Y-14960D01*
X09370Y-17874D02*
X08740Y-17874D01*
X12281Y-14960D02*
X09370Y-17874D01*
X14644Y-18897D02*
X14408Y-19133D01*
X14644Y-16928D02*
X14644Y-18897D01*
X14172Y-15433D02*
X14328Y-15591D01*
X14328Y-15591D02*
X14328Y-16614D01*
X14328Y-16614D02*
X14644Y-16928D01*
X13699Y-15669D02*
X13699Y-15905D01*
X13778Y-15591D02*
X13699Y-15669D01*
X14015Y-15591D02*
X13778Y-15591D01*
X14172Y-15747D02*
X14015Y-15591D01*
X13543Y-17401D02*
X13699Y-17245D01*
X13699Y-16534D02*
X13699Y-17245D01*
X13699Y-15905D02*
X13699Y-16534D01*
X15776Y-17047D02*
X15776Y-17039D01*
X16054Y-17325D02*
X15776Y-17047D01*
X16054Y-17325D02*
X19210Y-17325D01*
X19210Y-17325D02*
X19842Y-16694D01*
X19842Y-15827D02*
X19842Y-16694D01*
X19921Y-15747D02*
X19842Y-15827D01*
X18976Y-16063D02*
X19133Y-16220D01*
X18425Y-16063D02*
X18976Y-16063D01*
X18108Y-16378D02*
X18425Y-16063D01*
X17163Y-16378D02*
X18108Y-16378D01*
X16062Y-15747D02*
X16218Y-15905D01*
X16218Y-15905D02*
X16691Y-15905D01*
X16691Y-15905D02*
X17163Y-16378D01*
X17163Y-16848D02*
X17848Y-16850D01*
X17979Y-16732D02*
X17985Y-16686D01*
X17861Y-16850D02*
X17979Y-16732D01*
X17848Y-16850D02*
X17861Y-16850D01*
X15433Y-16378D02*
X16691Y-16378D01*
X16691Y-16378D02*
X17163Y-16848D01*
X18425Y-16220D02*
X18504Y-16220D01*
X18111Y-16534D02*
X18425Y-16220D01*
X17086Y-16534D02*
X18111Y-16534D01*
X16614Y-16063D02*
X17086Y-16534D01*
X16062Y-16063D02*
X16614Y-16063D01*
G54D32*
X09347Y-06258D02*
X08935Y-06258D01*
X08935Y-06258D02*
X08858Y-06180D01*
G54D28*
X06896Y-25543D02*
X06850Y-25543D01*
X08817Y-23622D02*
X06896Y-25543D01*
X08817Y-22677D02*
X08817Y-23622D01*
X09210Y-22284D02*
X08817Y-22677D01*
X09210Y-22284D02*
X09606Y-22284D01*
X09606Y-22284D02*
X09842Y-22048D01*
X09842Y-21575D02*
X09842Y-22048D01*
X10155Y-21260D02*
X09842Y-21575D01*
X10315Y-21260D02*
X10155Y-21260D01*
X10944Y-20630D02*
X10315Y-21260D01*
X10944Y-19842D02*
X10944Y-20630D01*
X10944Y-19842D02*
X12361Y-18424D01*
X12361Y-17007D02*
X12361Y-18424D01*
X05760Y-25185D02*
X05760Y-25543D01*
X07872Y-23070D02*
X05760Y-25185D01*
X07872Y-22441D02*
X07872Y-23070D01*
X08031Y-22284D02*
X07872Y-22441D01*
X08661Y-22284D02*
X08031Y-22284D01*
X08897Y-22048D02*
X08661Y-22284D01*
X08897Y-21496D02*
X08897Y-22048D01*
X09290Y-21102D02*
X08897Y-21496D01*
X10235Y-21102D02*
X09290Y-21102D01*
X10787Y-20551D02*
X10235Y-21102D01*
X10787Y-19842D02*
X10787Y-20551D01*
X10787Y-19842D02*
X11968Y-18662D01*
X11968Y-17007D02*
X11968Y-18662D01*
G54D10*
X25082Y-05040D02*
X25737Y-04387D01*
X16847Y-05040D02*
X25082Y-05040D01*
X16377Y-05511D02*
X16847Y-05040D01*
X13858Y-05511D02*
X16377Y-05511D01*
X12913Y-06456D02*
X13858Y-05511D01*
X12754Y-06456D02*
X12913Y-06456D01*
X07941Y-25543D02*
X07941Y-25600D01*
X05268Y-26141D02*
X05273Y-26149D01*
X05273Y-26149D02*
X04667Y-25543D01*
X07399Y-26141D02*
X05268Y-26141D01*
X07941Y-25600D02*
X07399Y-26141D01*
X05215Y-26660D02*
X05215Y-26202D01*
X05273Y-26141D02*
X05273Y-26149D01*
X05215Y-26202D02*
X05273Y-26141D01*
M02*
