G04 (Genere par PCBNEW (20080311-r876)) le 26/3/2008-04:50:31*
G01*
G70*
G90*
%MOIN*%
G04 Gerber Fmt 3.4, Leading zero omitted, Abs format*
%FSLAX34Y34*%
G04 APERTURE LIST*
%ADD10R,0.019700X0.023600*%
%ADD11R,0.023600X0.019700*%
%ADD12R,0.035400X0.023600*%
%ADD13R,0.027600X0.037400*%
%ADD14R,0.037400X0.027600*%
%ADD15C,0.063000*%
%ADD16C,0.059100*%
%ADD17C,0.055100*%
%ADD18C,0.114200*%
%ADD19C,0.090600*%
%ADD20C,0.126000*%
%ADD21C,0.066900*%
%ADD22R,0.043300X0.009800*%
%ADD23C,0.098400*%
%ADD24C,0.025000*%
%ADD25C,0.023600*%
%ADD26C,0.015700*%
%ADD27C,0.019700*%
%ADD28C,0.004900*%
%ADD29C,0.007900*%
%ADD30C,0.017000*%
%ADD31C,0.011800*%
%ADD32C,0.005900*%
%ADD33C,0.039400*%
%ADD34C,0.003900*%
%ADD35C,0.004700*%
%ADD36C,0.015700*%
%ADD37C,0.002500*%
%ADD38R,0.019700X0.023600*%
%ADD39R,0.023600X0.035400*%
%ADD40R,0.015700X0.011800*%
%ADD41R,0.046100X0.055100*%
%ADD42R,0.063000X0.035400*%
%ADD43R,0.049200X0.082700*%
%ADD44R,0.035400X0.031500*%
%ADD45R,0.149600X0.066900*%
%ADD46R,0.096500X0.065000*%
%ADD47R,0.017700X0.027600*%
%ADD48R,0.016500X0.023600*%
%ADD49R,0.031500X0.027600*%
%ADD50R,0.033500X0.023600*%
%ADD51R,0.055100X0.019700*%
%ADD52R,0.027600X0.055100*%
%ADD53R,0.078700X0.019700*%
%ADD54R,0.023600X0.033500*%
%ADD55R,0.023600X0.042000*%
%ADD56R,0.042000X0.023600*%
%ADD57R,0.027600X0.012800*%
%ADD58R,0.027600X0.009800*%
%ADD59R,0.009800X0.027600*%
%ADD60R,0.039400X0.013800*%
%ADD61R,0.013800X0.039400*%
%ADD62R,0.047200X0.055100*%
%ADD63R,0.055100X0.027600*%
%ADD64R,0.019700X0.019700*%
%ADD65R,0.013800X0.051200*%
%ADD66C,0.005000*%
G04 APERTURE END LIST*
G54D10*
X27047Y-20000D03*
X27441Y-20000D03*
G54D11*
X17008Y-06968D03*
X17008Y-07362D03*
G54D10*
X15314Y-09213D03*
X15708Y-09213D03*
X14291Y-09213D03*
X14685Y-09213D03*
G54D11*
X14015Y-07362D03*
X14015Y-06968D03*
G54D10*
X21614Y-18189D03*
X21220Y-18189D03*
G54D11*
X20551Y-17756D03*
X20551Y-17362D03*
X12992Y-17283D03*
X12992Y-17677D03*
G54D10*
X10905Y-14803D03*
X10511Y-14803D03*
G54D11*
X17952Y-11142D03*
X17952Y-11536D03*
G54D10*
X15472Y-14646D03*
X15866Y-14646D03*
X15866Y-14173D03*
X15472Y-14173D03*
X19803Y-12992D03*
X19409Y-12992D03*
X18464Y-11890D03*
X18858Y-11890D03*
G54D11*
X12756Y-12874D03*
X12756Y-13268D03*
G54D10*
X16614Y-14173D03*
X17008Y-14173D03*
G54D11*
X15748Y-15709D03*
X15748Y-16103D03*
X15118Y-14606D03*
X15118Y-14212D03*
G54D10*
X16729Y-15067D03*
X16335Y-15067D03*
X11929Y-16457D03*
X12323Y-16457D03*
X19015Y-18110D03*
X19409Y-18110D03*
G54D11*
X10157Y-09803D03*
X10157Y-09409D03*
X08228Y-06929D03*
X08228Y-06535D03*
X12756Y-11772D03*
X12756Y-12166D03*
X16850Y-19882D03*
X16850Y-20276D03*
X15590Y-19646D03*
X15590Y-20040D03*
G54D12*
X17795Y-18130D03*
X17795Y-18720D03*
X21653Y-12382D03*
X21653Y-12972D03*
G54D13*
X14980Y-06142D03*
X14310Y-06142D03*
G54D14*
X15275Y-07658D03*
X15275Y-06988D03*
G54D22*
X11516Y-06850D03*
X11516Y-06653D03*
X11516Y-06456D03*
X11516Y-06259D03*
X11516Y-06063D03*
X09350Y-06063D03*
X09350Y-06259D03*
X09350Y-06456D03*
X09350Y-06653D03*
X09350Y-06850D03*
G54D14*
X16102Y-19665D03*
X16102Y-20335D03*
G54D23*
X01574Y-01575D03*
X48031Y-01575D03*
X48031Y-31496D03*
X01574Y-31496D03*
X29134Y-01575D03*
X27559Y-31496D03*
M02*
