M48
;DRILL file {PCBnew (2010-03-14)-final} date Thu 13 Oct 2011 08:56:30 PM EDT
;FORMAT={2:4/ absolute / inch / keep zeros}
R,T
VER,1
FMAT,2
INCH,TZ
TCST,OFF
ICI,OFF
ATC,ON
T1C0.006
T2C0.010
T3C0.039
%
M47
G05
M72
T1
X017546Y003370
X017558Y-000879
X017798Y003451
X018052Y003449
X018240Y001791
X018243Y002191
X018245Y002576
X018302Y003446
X018545Y002845
X018707Y003465
X019059Y004076
X019061Y000117
X019308Y004007
X019551Y003502
X019705Y000999
X019935Y003612
X019939Y003911
X020097Y003067
X020106Y000144
X020168Y004643
X020172Y003696
X020276Y001575
X020296Y002623
X020303Y-000018
X020495Y000138
X020637Y003696
X020637Y003386
X020648Y003166
X020692Y-000014
X020882Y000146
X021083Y-000014
X021269Y003875
X021276Y002380
X021276Y001985
X021291Y000239
X021291Y000018
X021431Y-000243
X021453Y004989
X021714Y005251
X021783Y001397
X021783Y000609
X021785Y001007
X021786Y000397
X021928Y001200
X021928Y000814
X021932Y001588
X021933Y004016
X021987Y003594
X022003Y008679
X022097Y009617
X022160Y005275
X022174Y-001268
X022358Y009614
X022379Y003429
X022387Y004651
X022391Y003008
X022391Y002194
X022403Y002607
X022497Y008682
X022596Y009609
X022845Y009607
X022973Y013520
X022997Y008688
X023103Y009610
X023352Y009610
X023368Y013516
X023504Y008685
X023746Y003370
X023758Y-000879
X023827Y011205
X023845Y009611
X023918Y011906
X023998Y003451
X024099Y009594
X024252Y003449
X024440Y001791
X024443Y002191
X024445Y002576
X024502Y003446
X024745Y002845
X024748Y011152
X024778Y011554
X024779Y012501
X024907Y003465
X025115Y015495
X025153Y010919
X025259Y004076
X025261Y000117
X025308Y008685
X025397Y009617
X025416Y013921
X025508Y004007
X025658Y009614
X025719Y012324
X025735Y012972
X025739Y013605
X025743Y013294
X025751Y003502
X025758Y014839
X025802Y008688
X025896Y009609
X025905Y000999
X026056Y012342
X026056Y011714
X026061Y014858
X026063Y012818
X026064Y014547
X026071Y014073
X026135Y003612
X026139Y003911
X026145Y009607
X026297Y003067
X026299Y008685
X026306Y000144
X026361Y012024
X026368Y004643
X026372Y003696
X026374Y011722
X026403Y009610
X026447Y010680
X026476Y001575
X026496Y002623
X026497Y013652
X026503Y-000018
X026527Y012681
X026533Y014532
X026577Y011349
X026652Y009610
X026682Y011714
X026695Y000138
X026703Y013496
X026704Y010232
X026736Y013808
X026798Y008678
X026837Y003696
X026837Y003386
X026843Y014532
X026848Y003166
X026892Y-000014
X026899Y009608
X027011Y012643
X027082Y000146
X027145Y009611
X027157Y014536
X027255Y013803
X027283Y-000014
X027297Y013501
X027303Y012036
X027399Y009594
X027469Y003875
X027475Y012705
X027476Y002380
X027476Y001985
X027491Y000239
X027491Y000018
X027500Y013655
X027618Y012338
X027631Y-000243
X027635Y014605
X027653Y004989
X027914Y014054
X027914Y005251
X027918Y013804
X027918Y010219
X027926Y012823
X027940Y013126
X027948Y012339
X027951Y014557
X027983Y001397
X027983Y000609
X027985Y001007
X027986Y000397
X028128Y001200
X028128Y000814
X028132Y001588
X028133Y004016
X028145Y010841
X028187Y003594
X028239Y014867
X028244Y014533
X028267Y015490
X028267Y012986
X028271Y013291
X028360Y005275
X028374Y-001268
X028512Y011337
X028555Y010863
X028569Y015187
X028571Y014226
X028571Y013285
X028573Y015811
X028576Y013583
X028579Y003429
X028581Y012033
X028587Y004651
X028591Y003008
X028591Y002194
X028595Y008708
X028603Y002607
X028631Y010376
X028697Y009617
X028882Y012974
X028886Y014237
X028892Y015821
X028892Y012030
X028958Y009614
X029104Y008697
X029167Y011388
X029196Y009609
X029200Y015169
X029210Y015775
X029239Y011699
X029242Y013447
X029272Y014970
X029445Y009607
X029595Y008694
X029601Y012491
X029703Y009610
X029753Y011510
X029774Y013645
X029798Y013912
X029799Y012695
X029946Y003370
X029952Y009610
X029958Y-000879
X030020Y015500
X030027Y014649
X030098Y008697
X030142Y011150
X030198Y003451
X030434Y014009
X030439Y012392
X030445Y009611
X030452Y003449
X030607Y013394
X030640Y001791
X030643Y002191
X030645Y002576
X030699Y009594
X030702Y003446
X030736Y010922
X030808Y015255
X030897Y012444
X030945Y002845
X031001Y013390
X031107Y003465
X031230Y014556
X031242Y012098
X031428Y010704
X031459Y004076
X031461Y000117
X031606Y010904
X031694Y015030
X031708Y004007
X031716Y014796
X031900Y008697
X031951Y003502
X031997Y009617
X032105Y000999
X032142Y014080
X032193Y012999
X032197Y012601
X032258Y009614
X032335Y003612
X032339Y003911
X032370Y013490
X032403Y008700
X032422Y013194
X032496Y009609
X032497Y003067
X032506Y000144
X032562Y015492
X032568Y004643
X032572Y003696
X032676Y001575
X032692Y011104
X032696Y002623
X032698Y010687
X032703Y-000018
X032745Y009607
X032895Y000138
X032900Y008700
X032947Y014098
X032969Y014311
X033003Y009610
X033037Y003696
X033037Y003386
X033048Y003166
X033092Y-000014
X033189Y012719
X033252Y009610
X033282Y000146
X033395Y012908
X033400Y008704
X033483Y-000014
X033669Y003875
X033676Y002380
X033676Y001985
X033691Y000239
X033691Y000018
X033745Y009611
X033831Y-000243
X033853Y004989
X033999Y009594
X034114Y005251
X034183Y001397
X034183Y000609
X034185Y001007
X034186Y000397
X034328Y001200
X034328Y000814
X034332Y001588
X034333Y004016
X034387Y003594
X034560Y005275
X034574Y-001268
X034779Y003429
X034787Y004651
X034791Y003008
X034791Y002194
X034803Y002607
X036146Y003370
X036158Y-000879
X036398Y003451
X036652Y003449
X036840Y001791
X036843Y002191
X036845Y002576
X036902Y003446
X037145Y002845
X037307Y003465
X037659Y004076
X037661Y000117
X037908Y004007
X038151Y003502
X038305Y000999
X038535Y003612
X038539Y003911
X038697Y003067
X038706Y000144
X038768Y004643
X038772Y003696
X038876Y001575
X038896Y002623
X038903Y-000018
X039095Y000138
X039237Y003696
X039237Y003386
X039248Y003166
X039292Y-000014
X039482Y000146
X039683Y-000014
X039869Y003875
X039876Y002380
X039876Y001985
X039891Y000239
X039891Y000018
X040031Y-000243
X040053Y004989
X040314Y005251
X040383Y001397
X040383Y000609
X040385Y001007
X040386Y000397
X040528Y001200
X040528Y000814
X040532Y001588
X040533Y004016
X040587Y003594
X040760Y005275
X040774Y-001268
X040979Y003429
X040987Y004651
X040991Y003008
X040991Y002194
X041003Y002607
T2
X017599Y-001896
X018858Y004355
X021788Y012282
X021900Y015611
X022062Y015805
X022220Y011785
X022367Y-001901
X022571Y012818
X022573Y012516
X023162Y015793
X023162Y015508
X023162Y014438
X023165Y013751
X023175Y011739
X023754Y012815
X023759Y012516
X023799Y-001896
X024241Y015810
X024534Y015810
X025058Y004355
X028567Y-001901
X029999Y-001896
X031258Y004355
X033088Y013864
X033149Y013414
X033164Y015399
X033509Y013157
X033670Y015640
X033836Y014906
X033849Y013644
X034767Y-001901
X036199Y-001896
X037458Y004355
X040967Y-001901
T3
X022300Y010700
X023300Y010700
T0
M30
