G04 (created by PCBNEW-RS274X (2010-03-14)-final) date Thu 07 Oct 2010 02:34:07 PM EDT*
G01*
G70*
G90*
%MOIN*%
G04 Gerber Fmt 3.4, Leading zero omitted, Abs format*
%FSLAX34Y34*%
G04 APERTURE LIST*
%ADD10C,0.001000*%
%ADD11R,0.023600X0.019700*%
%ADD12R,0.019700X0.023600*%
%ADD13R,0.035400X0.023600*%
%ADD14R,0.009800X0.047200*%
%ADD15R,0.009800X0.025600*%
%ADD16R,0.025600X0.009800*%
%ADD17R,0.023600X0.033500*%
%ADD18R,0.042000X0.023600*%
%ADD19R,0.016500X0.023600*%
%ADD20R,0.031500X0.027600*%
%ADD21R,0.009800X0.023600*%
%ADD22R,0.023600X0.009800*%
%ADD23R,0.023600X0.035400*%
%ADD24R,0.059100X0.070900*%
%ADD25R,0.055100X0.027600*%
%ADD26R,0.023600X0.015700*%
%ADD27C,0.150000*%
G04 APERTURE END LIST*
G54D10*
G54D11*
X27900Y13197D03*
X27900Y12803D03*
X28300Y13197D03*
X28300Y12803D03*
X29100Y12803D03*
X29100Y13197D03*
X25900Y14497D03*
X25900Y14103D03*
X23100Y14347D03*
X23100Y13953D03*
X15700Y13903D03*
X15700Y14297D03*
X14800Y15497D03*
X14800Y15103D03*
X23300Y23197D03*
X23300Y22803D03*
X21200Y22303D03*
X21200Y22697D03*
X23000Y22297D03*
X23000Y21903D03*
X24600Y21903D03*
X24600Y22297D03*
G54D12*
X-24903Y16600D03*
X-25297Y16600D03*
X-25803Y13800D03*
X-26197Y13800D03*
X-28597Y05800D03*
X-28203Y05800D03*
X-05603Y13800D03*
X-05997Y13800D03*
G54D11*
X-06900Y15003D03*
X-06900Y15397D03*
G54D12*
X-05997Y15600D03*
X-05603Y15600D03*
X06797Y13800D03*
X06403Y13800D03*
X06403Y13400D03*
X06797Y13400D03*
X07697Y12800D03*
X07303Y12800D03*
X07903Y16200D03*
X08297Y16200D03*
X06403Y14200D03*
X06797Y14200D03*
X06797Y14600D03*
X06403Y14600D03*
X-02903Y13900D03*
X-03297Y13900D03*
X-02903Y14500D03*
X-03297Y14500D03*
G54D11*
X-06900Y14003D03*
X-06900Y14397D03*
X01000Y14903D03*
X01000Y15297D03*
G54D12*
X01903Y14500D03*
X02297Y14500D03*
G54D11*
X01600Y14903D03*
X01600Y15297D03*
G54D12*
X01803Y13600D03*
X02197Y13600D03*
G54D11*
X01300Y12403D03*
X01300Y12797D03*
X00100Y12403D03*
X00100Y12797D03*
G54D12*
X00297Y14200D03*
X-00097Y14200D03*
X00297Y13600D03*
X-00097Y13600D03*
X01903Y14100D03*
X02297Y14100D03*
G54D11*
X01300Y13897D03*
X01300Y13503D03*
X00700Y13897D03*
X00700Y13503D03*
G54D13*
X22100Y22205D03*
X22100Y22795D03*
X00700Y12895D03*
X00700Y12305D03*
G54D14*
X22092Y23310D03*
X21896Y23310D03*
X21700Y23310D03*
X21504Y23310D03*
X21308Y23310D03*
X21308Y24689D03*
X21504Y24689D03*
X21700Y24689D03*
X21896Y24689D03*
X22092Y24689D03*
G54D15*
X29986Y13648D03*
X29789Y13648D03*
X29592Y13648D03*
X29395Y13648D03*
X29198Y13648D03*
X29002Y13648D03*
X28805Y13648D03*
X28608Y13648D03*
X28411Y13648D03*
X28214Y13648D03*
X28214Y15952D03*
X28411Y15952D03*
X28608Y15952D03*
X28805Y15952D03*
X29002Y15952D03*
X29198Y15952D03*
X29395Y15952D03*
X29592Y15952D03*
X29789Y15952D03*
X29986Y15952D03*
G54D16*
X27948Y13914D03*
X27948Y14111D03*
X27948Y14308D03*
X27948Y14505D03*
X27948Y14702D03*
X27948Y14898D03*
X27948Y15095D03*
X27948Y15292D03*
X27948Y15489D03*
X27948Y15686D03*
X30252Y15686D03*
X30252Y15489D03*
X30252Y15292D03*
X30252Y15095D03*
X30252Y14898D03*
X30252Y14702D03*
X30252Y14505D03*
X30252Y14308D03*
X30252Y14111D03*
X30252Y13914D03*
G54D15*
X24586Y23648D03*
X24389Y23648D03*
X24192Y23648D03*
X23995Y23648D03*
X23798Y23648D03*
X23602Y23648D03*
X23405Y23648D03*
X23208Y23648D03*
X23011Y23648D03*
X22814Y23648D03*
X22814Y25952D03*
X23011Y25952D03*
X23208Y25952D03*
X23405Y25952D03*
X23602Y25952D03*
X23798Y25952D03*
X23995Y25952D03*
X24192Y25952D03*
X24389Y25952D03*
X24586Y25952D03*
G54D16*
X22548Y23914D03*
X22548Y24111D03*
X22548Y24308D03*
X22548Y24505D03*
X22548Y24702D03*
X22548Y24898D03*
X22548Y25095D03*
X22548Y25292D03*
X22548Y25489D03*
X22548Y25686D03*
X24852Y25686D03*
X24852Y25489D03*
X24852Y25292D03*
X24852Y25095D03*
X24852Y24898D03*
X24852Y24702D03*
X24852Y24505D03*
X24852Y24308D03*
X24852Y24111D03*
X24852Y23914D03*
G54D17*
X21400Y25387D03*
X21026Y26213D03*
X21774Y26213D03*
G54D18*
X27412Y14874D03*
X27412Y14500D03*
X27412Y14126D03*
X26388Y14126D03*
X26388Y14500D03*
X26388Y14874D03*
G54D12*
X27297Y15400D03*
X26903Y15400D03*
G54D11*
X28700Y13197D03*
X28700Y12803D03*
G54D12*
X28597Y16300D03*
X28203Y16300D03*
X26903Y15800D03*
X27297Y15800D03*
G54D19*
X24236Y14304D03*
G54D20*
X24689Y14304D03*
G54D19*
X24748Y13516D03*
X24236Y13516D03*
G54D11*
X24700Y13097D03*
X24700Y12703D03*
G54D21*
X25700Y15352D03*
X25897Y15352D03*
X26094Y15352D03*
X25503Y15352D03*
X25306Y15352D03*
X26094Y16848D03*
X25897Y16848D03*
X25700Y16848D03*
X25503Y16848D03*
X25306Y16848D03*
G54D22*
X26448Y16100D03*
X26448Y16297D03*
X26448Y16494D03*
X26448Y15903D03*
X26448Y15706D03*
X24952Y16100D03*
X24952Y16297D03*
X24952Y16494D03*
X24952Y15903D03*
X24952Y15706D03*
G54D11*
X26000Y17647D03*
X26000Y17253D03*
G54D12*
X25697Y17250D03*
X25303Y17250D03*
X24903Y17600D03*
X25297Y17600D03*
X24303Y17200D03*
X24697Y17200D03*
X24203Y16800D03*
X24597Y16800D03*
G54D11*
X26000Y17903D03*
X26000Y18297D03*
G54D12*
X26303Y18300D03*
X26697Y18300D03*
X27297Y16200D03*
X26903Y16200D03*
G54D11*
X25100Y14603D03*
X25100Y14997D03*
X24700Y14903D03*
X24700Y15297D03*
X22050Y14347D03*
X22050Y13953D03*
X22600Y14347D03*
X22600Y13953D03*
G54D23*
X22305Y15050D03*
X22895Y15050D03*
X22905Y16700D03*
X23495Y16700D03*
G54D12*
X20803Y16300D03*
X21197Y16300D03*
X21703Y16700D03*
X22097Y16700D03*
G54D11*
X24500Y16397D03*
X24500Y16003D03*
G54D12*
X26797Y17250D03*
X26403Y17250D03*
G54D24*
X25522Y18750D03*
X21979Y18750D03*
G54D12*
X20703Y12400D03*
X21097Y12400D03*
X21997Y12700D03*
X21603Y12700D03*
X20403Y14700D03*
X20797Y14700D03*
G54D11*
X24400Y26703D03*
X24400Y27097D03*
G54D12*
X22503Y27100D03*
X22897Y27100D03*
G54D11*
X21600Y22697D03*
X21600Y22303D03*
X22500Y23197D03*
X22500Y22803D03*
X22900Y23197D03*
X22900Y22803D03*
X23700Y22803D03*
X23700Y23197D03*
G54D12*
X22403Y26400D03*
X22797Y26400D03*
G54D11*
X20900Y24197D03*
X20900Y23803D03*
G54D12*
X-26404Y15570D03*
X-26798Y15570D03*
X-26404Y14570D03*
X-26798Y14570D03*
X-26404Y15070D03*
X-26798Y15070D03*
G54D13*
X-25801Y15365D03*
X-25801Y14775D03*
X-24500Y14895D03*
X-24500Y14305D03*
G54D12*
X-24597Y13000D03*
X-24203Y13000D03*
X-26903Y16600D03*
X-27297Y16600D03*
X-23403Y18400D03*
X-23797Y18400D03*
X-25397Y05800D03*
X-25003Y05800D03*
G54D11*
X00400Y14903D03*
X00400Y15297D03*
G54D12*
X00197Y14670D03*
X-00197Y14670D03*
G54D11*
X00700Y16197D03*
X00700Y15803D03*
G54D13*
X01300Y15805D03*
X01300Y16395D03*
G54D12*
X03103Y08800D03*
X03497Y08800D03*
X-00797Y06800D03*
X-00403Y06800D03*
X02403Y06700D03*
X02797Y06700D03*
X21703Y25200D03*
X22097Y25200D03*
X-31997Y13300D03*
X-31603Y13300D03*
G54D25*
X25237Y12150D03*
X25237Y12650D03*
X25237Y13150D03*
X25237Y13650D03*
X27363Y13650D03*
X27363Y13150D03*
X27363Y12650D03*
X27363Y12150D03*
G54D26*
X23974Y27156D03*
X23974Y26900D03*
X23974Y26644D03*
X23226Y26644D03*
X23226Y27156D03*
X24174Y22356D03*
X24174Y22100D03*
X24174Y21844D03*
X23426Y21844D03*
X23426Y22356D03*
G54D12*
X06797Y13000D03*
X06403Y13000D03*
G54D11*
X-32300Y07003D03*
X-32300Y07397D03*
X-32300Y18903D03*
X-32300Y19297D03*
X-32300Y06697D03*
X-32300Y06303D03*
X-32300Y18597D03*
X-32300Y18203D03*
G54D12*
X-24897Y13900D03*
X-24503Y13900D03*
G54D11*
X-28000Y15797D03*
X-28000Y15403D03*
G54D12*
X-28097Y14600D03*
X-27703Y14600D03*
G54D11*
X09100Y05003D03*
X09100Y05397D03*
G54D27*
X-20500Y28800D03*
X-40800Y28800D03*
X-40800Y-00800D03*
X-22800Y-00800D03*
X-16400Y30400D03*
X16400Y30400D03*
X16400Y-03200D03*
X-16400Y-03200D03*
M02*
