G04 (created by PCBNEW-RS274X (2010-03-14)-final) date Thu 07 Oct 2010 02:34:07 PM EDT*
G01*
G70*
G90*
%MOIN*%
G04 Gerber Fmt 3.4, Leading zero omitted, Abs format*
%FSLAX34Y34*%
G04 APERTURE LIST*
%ADD10C,0.001000*%
%ADD11R,0.023600X0.019700*%
%ADD12R,0.019700X0.023600*%
%ADD13R,0.023600X0.035400*%
%ADD14R,0.035400X0.023600*%
%ADD15R,0.027600X0.037400*%
%ADD16R,0.059100X0.070900*%
%ADD17R,0.023600X0.009800*%
%ADD18R,0.009800X0.023600*%
%ADD19C,0.016000*%
%ADD20C,0.015700*%
%ADD21R,0.009800X0.047200*%
%ADD22R,0.055100X0.055100*%
%ADD23R,0.009800X0.025600*%
%ADD24R,0.025600X0.009800*%
%ADD25R,0.023600X0.015700*%
%ADD26R,0.019700X0.055100*%
%ADD27R,0.023600X0.042000*%
%ADD28R,0.042000X0.023600*%
%ADD29R,0.013800X0.039400*%
%ADD30R,0.039400X0.013800*%
%ADD31R,0.051200X0.013800*%
%ADD32R,0.013800X0.051200*%
%ADD33R,0.050000X0.015000*%
%ADD34R,0.030000X0.014500*%
%ADD35R,0.010200X0.031500*%
%ADD36R,0.118100X0.029500*%
%ADD37R,0.082700X0.049200*%
%ADD38R,0.016500X0.023600*%
%ADD39R,0.031500X0.027600*%
%ADD40R,0.023600X0.016500*%
%ADD41R,0.027600X0.031500*%
%ADD42R,0.078700X0.118100*%
%ADD43R,0.118100X0.078700*%
%ADD44R,0.047200X0.009800*%
%ADD45R,0.055100X0.027600*%
%ADD46R,0.031500X0.035400*%
%ADD47R,0.015700X0.023600*%
%ADD48R,0.035400X0.031500*%
%ADD49C,0.150000*%
%ADD50R,0.023600X0.033500*%
G04 APERTURE END LIST*
G54D10*
G54D11*
X27150Y12003D03*
X27150Y12397D03*
X27550Y12397D03*
X27550Y12003D03*
X27950Y12397D03*
X27950Y12003D03*
X28500Y16897D03*
X28500Y16503D03*
G54D12*
X27997Y13300D03*
X27603Y13300D03*
G54D11*
X27700Y16503D03*
X27700Y16897D03*
X27300Y16603D03*
X27300Y16997D03*
X28100Y16503D03*
X28100Y16897D03*
G54D12*
X26503Y14350D03*
X26897Y14350D03*
G54D11*
X25250Y15197D03*
X25250Y14803D03*
G54D12*
X26897Y13900D03*
X26503Y13900D03*
G54D11*
X13200Y06097D03*
X13200Y05703D03*
G54D12*
X26747Y12350D03*
X26353Y12350D03*
G54D11*
X13200Y09503D03*
X13200Y09897D03*
G54D12*
X10703Y14700D03*
X11097Y14700D03*
X10703Y15600D03*
X11097Y15600D03*
X10703Y16500D03*
X11097Y16500D03*
X10703Y17500D03*
X11097Y17500D03*
G54D11*
X01100Y01103D03*
X01100Y01497D03*
X00600Y01103D03*
X00600Y01497D03*
X23000Y22303D03*
X23000Y22697D03*
G54D12*
X21603Y22700D03*
X21997Y22700D03*
G54D11*
X00100Y01103D03*
X00100Y01497D03*
X-00400Y01103D03*
X-00400Y01497D03*
X21200Y27097D03*
X21200Y26703D03*
X20900Y25203D03*
X20900Y25597D03*
G54D12*
X22403Y23200D03*
X22797Y23200D03*
G54D11*
X23800Y26797D03*
X23800Y26403D03*
X23000Y26403D03*
X23000Y26797D03*
X22600Y26403D03*
X22600Y26797D03*
X23400Y26403D03*
X23400Y26797D03*
X21600Y26703D03*
X21600Y27097D03*
X05600Y00903D03*
X05600Y01297D03*
G54D12*
X06303Y00400D03*
X06697Y00400D03*
X-37898Y21170D03*
X-37504Y21170D03*
X-37898Y20570D03*
X-37504Y20570D03*
X-34303Y20300D03*
X-34697Y20300D03*
X-33903Y20700D03*
X-34297Y20700D03*
G54D11*
X-34700Y20703D03*
X-34700Y21097D03*
G54D12*
X-33803Y21700D03*
X-34197Y21700D03*
G54D11*
X-35001Y21967D03*
X-35001Y21573D03*
X-34601Y21573D03*
X-34601Y21967D03*
X-37101Y19673D03*
X-37101Y20067D03*
G54D12*
X-35404Y21870D03*
X-35798Y21870D03*
X-37898Y13070D03*
X-37504Y13070D03*
X-37898Y12470D03*
X-37504Y12470D03*
X-34303Y12200D03*
X-34697Y12200D03*
X-33903Y12600D03*
X-34297Y12600D03*
G54D11*
X-34700Y12603D03*
X-34700Y12997D03*
G54D12*
X-33803Y13600D03*
X-34197Y13600D03*
G54D11*
X-35001Y13867D03*
X-35001Y13473D03*
X-34601Y13473D03*
X-34601Y13867D03*
X-37101Y11573D03*
X-37101Y11967D03*
G54D12*
X-35404Y13770D03*
X-35798Y13770D03*
X-37898Y15770D03*
X-37504Y15770D03*
X-37898Y15170D03*
X-37504Y15170D03*
X-34303Y14900D03*
X-34697Y14900D03*
X-33903Y15300D03*
X-34297Y15300D03*
G54D11*
X-34700Y15303D03*
X-34700Y15697D03*
G54D12*
X-33803Y16300D03*
X-34197Y16300D03*
G54D11*
X-35001Y16567D03*
X-35001Y16173D03*
X-34601Y16173D03*
X-34601Y16567D03*
X-37101Y14273D03*
X-37101Y14667D03*
G54D12*
X-35404Y16470D03*
X-35798Y16470D03*
X-37898Y04970D03*
X-37504Y04970D03*
X-37898Y04370D03*
X-37504Y04370D03*
X-34303Y04100D03*
X-34697Y04100D03*
X-33903Y04500D03*
X-34297Y04500D03*
G54D11*
X-34700Y04503D03*
X-34700Y04897D03*
G54D12*
X-33803Y05500D03*
X-34197Y05500D03*
G54D11*
X-35001Y05767D03*
X-35001Y05373D03*
X-34601Y05373D03*
X-34601Y05767D03*
X-37101Y03473D03*
X-37101Y03867D03*
G54D12*
X-35404Y05670D03*
X-35798Y05670D03*
X-37898Y02270D03*
X-37504Y02270D03*
X-37898Y01670D03*
X-37504Y01670D03*
X-34303Y01400D03*
X-34697Y01400D03*
X-33903Y01800D03*
X-34297Y01800D03*
G54D11*
X-34700Y01803D03*
X-34700Y02197D03*
G54D12*
X-33803Y02800D03*
X-34197Y02800D03*
G54D11*
X-35001Y03067D03*
X-35001Y02673D03*
X-34601Y02673D03*
X-34601Y03067D03*
X-37101Y00773D03*
X-37101Y01167D03*
G54D12*
X-35404Y02970D03*
X-35798Y02970D03*
X-37898Y07670D03*
X-37504Y07670D03*
X-37898Y07070D03*
X-37504Y07070D03*
X-34303Y06800D03*
X-34697Y06800D03*
X-33903Y07200D03*
X-34297Y07200D03*
G54D11*
X-34700Y07203D03*
X-34700Y07597D03*
G54D12*
X-33803Y08200D03*
X-34197Y08200D03*
G54D11*
X-35001Y08467D03*
X-35001Y08073D03*
X-34601Y08073D03*
X-34601Y08467D03*
X-37101Y06173D03*
X-37101Y06567D03*
G54D12*
X-35404Y08370D03*
X-35798Y08370D03*
X-37898Y10370D03*
X-37504Y10370D03*
X-37898Y09770D03*
X-37504Y09770D03*
X-34303Y09500D03*
X-34697Y09500D03*
X-33903Y09900D03*
X-34297Y09900D03*
G54D11*
X-34700Y09903D03*
X-34700Y10297D03*
G54D12*
X-33803Y10900D03*
X-34197Y10900D03*
G54D11*
X-35001Y11167D03*
X-35001Y10773D03*
X-34601Y10773D03*
X-34601Y11167D03*
X-37101Y08873D03*
X-37101Y09267D03*
G54D12*
X-35404Y11070D03*
X-35798Y11070D03*
X-37898Y18470D03*
X-37504Y18470D03*
X-37898Y17870D03*
X-37504Y17870D03*
X-34303Y17600D03*
X-34697Y17600D03*
X-33903Y18000D03*
X-34297Y18000D03*
G54D11*
X-34700Y18003D03*
X-34700Y18397D03*
G54D12*
X-33803Y19000D03*
X-34197Y19000D03*
G54D11*
X-35001Y19267D03*
X-35001Y18873D03*
X-34601Y18873D03*
X-34601Y19267D03*
X-37101Y16973D03*
X-37101Y17367D03*
G54D12*
X-35404Y19170D03*
X-35798Y19170D03*
X-28904Y17270D03*
X-29298Y17270D03*
X-29298Y15670D03*
X-28904Y15670D03*
G54D11*
X-22000Y11697D03*
X-22000Y11303D03*
G54D12*
X-24598Y08470D03*
X-24204Y08470D03*
X-24998Y08070D03*
X-24604Y08070D03*
G54D11*
X-22500Y11697D03*
X-22500Y11303D03*
X-23300Y11697D03*
X-23300Y11303D03*
G54D12*
X-23104Y08870D03*
X-23498Y08870D03*
X-24203Y06400D03*
X-24597Y06400D03*
G54D11*
X-25401Y01573D03*
X-25401Y01967D03*
X-27200Y17903D03*
X-27200Y18297D03*
G54D12*
X-22404Y10070D03*
X-22798Y10070D03*
G54D11*
X-25200Y10103D03*
X-25200Y10497D03*
X-28401Y01573D03*
X-28401Y01967D03*
X-29401Y01573D03*
X-29401Y01967D03*
X-31401Y-01927D03*
X-31401Y-01533D03*
X-30401Y-01927D03*
X-30401Y-01533D03*
X-24401Y-01927D03*
X-24401Y-01533D03*
G54D12*
X-25103Y11100D03*
X-25497Y11100D03*
G54D11*
X-28200Y11903D03*
X-28200Y12297D03*
G54D12*
X-30803Y11700D03*
X-31197Y11700D03*
X-30803Y11300D03*
X-31197Y11300D03*
X-32297Y16100D03*
X-31903Y16100D03*
G54D11*
X-31100Y16397D03*
X-31100Y16003D03*
X-31500Y16003D03*
X-31500Y16397D03*
X-31500Y15297D03*
X-31500Y14903D03*
X-33200Y12403D03*
X-33200Y12797D03*
X-26000Y11903D03*
X-26000Y12297D03*
X-26400Y11903D03*
X-26400Y12297D03*
X-25600Y11903D03*
X-25600Y12297D03*
X-30900Y14503D03*
X-30900Y14897D03*
G54D12*
X-30203Y13700D03*
X-30597Y13700D03*
X-31903Y11000D03*
X-32297Y11000D03*
X-32297Y10600D03*
X-31903Y10600D03*
G54D11*
X-30500Y15597D03*
X-30500Y15203D03*
X-30100Y19097D03*
X-30100Y18703D03*
X-31000Y15203D03*
X-31000Y15597D03*
X-30700Y18703D03*
X-30700Y19097D03*
X-07700Y11697D03*
X-07700Y11303D03*
G54D12*
X-13003Y28400D03*
X-13397Y28400D03*
G54D11*
X-11193Y00514D03*
X-11193Y00908D03*
G54D12*
X-10596Y-00389D03*
X-10990Y-00389D03*
G54D11*
X-07293Y01108D03*
X-07293Y00714D03*
X-10693Y00514D03*
X-10693Y00908D03*
G54D12*
X-10596Y00011D03*
X-10990Y00011D03*
X-07803Y07500D03*
X-08197Y07500D03*
X-07290Y00111D03*
X-06896Y00111D03*
X-07290Y-00389D03*
X-06896Y-00389D03*
X02003Y18300D03*
X02397Y18300D03*
X-03003Y15900D03*
X-03397Y15900D03*
G54D11*
X-06200Y13197D03*
X-06200Y12803D03*
X-06600Y13197D03*
X-06600Y12803D03*
X-07000Y13197D03*
X-07000Y12803D03*
G54D12*
X-04497Y14200D03*
X-04103Y14200D03*
X-07403Y13800D03*
X-07797Y13800D03*
G54D11*
X-05800Y13197D03*
X-05800Y12803D03*
G54D12*
X-07403Y14200D03*
X-07797Y14200D03*
G54D11*
X-05400Y13197D03*
X-05400Y12803D03*
G54D12*
X-07403Y14900D03*
X-07797Y14900D03*
X-07403Y15300D03*
X-07797Y15300D03*
G54D11*
X-06900Y16303D03*
X-06900Y16697D03*
G54D12*
X-07603Y12200D03*
X-07997Y12200D03*
X-07503Y17300D03*
X-07897Y17300D03*
X-07403Y15700D03*
X-07797Y15700D03*
X-06803Y12200D03*
X-07197Y12200D03*
G54D11*
X-07900Y16497D03*
X-07900Y16103D03*
X-06100Y16303D03*
X-06100Y16697D03*
X-06500Y16303D03*
X-06500Y16697D03*
X-05300Y16303D03*
X-05300Y16697D03*
X-05700Y16303D03*
X-05700Y16697D03*
G54D12*
X-03003Y17900D03*
X-03397Y17900D03*
X-03397Y16300D03*
X-03003Y16300D03*
G54D11*
X-01100Y20897D03*
X-01100Y20503D03*
X-00100Y20897D03*
X-00100Y20503D03*
X00900Y20897D03*
X00900Y20503D03*
X03900Y20797D03*
X03900Y20403D03*
G54D12*
X02103Y10100D03*
X02497Y10100D03*
X03397Y10100D03*
X03003Y10100D03*
G54D13*
X20405Y04600D03*
X20995Y04600D03*
X12095Y14700D03*
X11505Y14700D03*
X12095Y15600D03*
X11505Y15600D03*
X12095Y16500D03*
X11505Y16500D03*
X12095Y17500D03*
X11505Y17500D03*
G54D14*
X07500Y00805D03*
X07500Y01395D03*
G54D13*
X21995Y23400D03*
X21405Y23400D03*
G54D14*
X22100Y27195D03*
X22100Y26605D03*
G54D13*
X-33705Y21200D03*
X-34295Y21200D03*
X-33705Y13100D03*
X-34295Y13100D03*
X-33705Y15800D03*
X-34295Y15800D03*
X-33705Y05000D03*
X-34295Y05000D03*
X-33705Y02300D03*
X-34295Y02300D03*
X-33705Y07700D03*
X-34295Y07700D03*
X-33705Y10400D03*
X-34295Y10400D03*
X-33705Y18500D03*
X-34295Y18500D03*
G54D14*
X-24401Y02865D03*
X-24401Y02275D03*
X-25401Y02865D03*
X-25401Y02275D03*
X-26401Y02865D03*
X-26401Y02275D03*
X-28401Y02865D03*
X-28401Y02275D03*
X-29401Y02865D03*
X-29401Y02275D03*
X-30401Y-00635D03*
X-30401Y-01225D03*
X-25401Y-00635D03*
X-25401Y-01225D03*
X-33200Y13205D03*
X-33200Y13795D03*
G54D13*
X-30595Y16100D03*
X-30005Y16100D03*
X-30695Y18300D03*
X-30105Y18300D03*
X-31805Y10100D03*
X-32395Y10100D03*
X-05695Y03500D03*
X-05105Y03500D03*
X-09295Y05500D03*
X-08705Y05500D03*
X-09295Y07500D03*
X-08705Y07500D03*
G54D14*
X-07600Y13295D03*
X-07600Y12705D03*
X-07400Y16105D03*
X-07400Y16695D03*
G54D15*
X-35236Y19770D03*
X-34566Y19770D03*
X-35866Y19770D03*
X-36536Y19770D03*
X-35236Y11670D03*
X-34566Y11670D03*
X-35866Y11670D03*
X-36536Y11670D03*
X-35236Y14370D03*
X-34566Y14370D03*
X-35866Y14370D03*
X-36536Y14370D03*
X-35236Y03570D03*
X-34566Y03570D03*
X-35866Y03570D03*
X-36536Y03570D03*
X-35236Y00870D03*
X-34566Y00870D03*
X-35866Y00870D03*
X-36536Y00870D03*
X-35236Y06270D03*
X-34566Y06270D03*
X-35866Y06270D03*
X-36536Y06270D03*
X-35236Y08970D03*
X-34566Y08970D03*
X-35866Y08970D03*
X-36536Y08970D03*
X-35236Y17070D03*
X-34566Y17070D03*
X-35866Y17070D03*
X-36536Y17070D03*
G54D16*
X-23271Y07200D03*
X-19728Y07200D03*
G54D17*
X-32648Y13294D03*
X-32648Y13097D03*
X-32648Y12900D03*
X-32648Y12703D03*
X-32648Y12506D03*
G54D18*
X-32294Y12152D03*
X-32097Y12152D03*
X-31900Y12152D03*
X-31703Y12152D03*
X-31506Y12152D03*
X-31506Y13648D03*
X-31703Y13648D03*
X-31900Y13648D03*
X-32097Y13648D03*
X-32294Y13648D03*
G54D17*
X-31152Y12506D03*
X-31152Y12703D03*
X-31152Y12900D03*
X-31152Y13097D03*
X-31152Y13294D03*
G54D19*
X20503Y12553D03*
X20503Y12868D03*
X20503Y13183D03*
X20503Y13498D03*
X20503Y13813D03*
X20503Y14128D03*
X20503Y14443D03*
X20503Y14758D03*
X20503Y15073D03*
X20503Y15388D03*
X20503Y15703D03*
X20503Y16018D03*
X20503Y16333D03*
X20503Y16647D03*
X20818Y12553D03*
X20818Y12868D03*
X20818Y13183D03*
X20818Y13498D03*
X20818Y13813D03*
X20818Y14128D03*
X20818Y14443D03*
X20818Y14758D03*
X20818Y15073D03*
X20818Y15388D03*
X20818Y15703D03*
X20818Y16018D03*
X20818Y16333D03*
X20818Y16647D03*
X21133Y12553D03*
X21133Y12868D03*
X21133Y13183D03*
X21133Y13498D03*
X21133Y13813D03*
X21133Y14128D03*
X21133Y14443D03*
X21133Y14758D03*
X21133Y15073D03*
X21133Y15388D03*
X21133Y15703D03*
X21133Y16018D03*
X21133Y16333D03*
X21133Y16647D03*
X21448Y12553D03*
X21448Y12868D03*
X21448Y13183D03*
X21448Y13498D03*
X21448Y13813D03*
X21448Y14128D03*
X21448Y14443D03*
X21448Y14758D03*
X21448Y15073D03*
X21448Y15388D03*
X21448Y15703D03*
X21448Y16018D03*
X21448Y16333D03*
X21448Y16647D03*
X21763Y12553D03*
X21763Y12868D03*
X21763Y13183D03*
X21763Y13498D03*
X21763Y15703D03*
X21763Y16018D03*
X21763Y16333D03*
X21763Y16647D03*
X22078Y12553D03*
X22078Y12868D03*
X22078Y13183D03*
X22078Y13498D03*
X22078Y15703D03*
X22078Y16018D03*
X22078Y16333D03*
X22078Y16647D03*
X22393Y12553D03*
X22393Y12868D03*
X22393Y13183D03*
X22393Y13498D03*
X22393Y15703D03*
X22393Y16018D03*
X22393Y16333D03*
X22393Y16647D03*
X22708Y12553D03*
X22708Y12868D03*
X22708Y13183D03*
X22708Y13498D03*
X22708Y15703D03*
X22708Y16018D03*
X22708Y16333D03*
X22708Y16647D03*
X23023Y12553D03*
X23023Y12868D03*
X23023Y13183D03*
X23023Y13498D03*
X23023Y15703D03*
X23023Y16018D03*
X23023Y16333D03*
X23023Y16647D03*
X23338Y12553D03*
X23338Y12868D03*
X23338Y13183D03*
X23338Y13498D03*
X23338Y15703D03*
X23338Y16018D03*
X23338Y16333D03*
X23338Y16647D03*
X23653Y12553D03*
X23653Y12868D03*
X23653Y13183D03*
X23653Y13498D03*
X23653Y13813D03*
X23653Y14128D03*
X23653Y14443D03*
X23653Y14758D03*
X23653Y15073D03*
X23653Y15388D03*
X23653Y15703D03*
X23653Y16018D03*
X23653Y16333D03*
X23653Y16647D03*
X23968Y12553D03*
X23968Y12868D03*
X23968Y13183D03*
X23968Y13498D03*
X23968Y13813D03*
X23968Y14128D03*
X23968Y14443D03*
X23968Y14758D03*
X23968Y15073D03*
X23968Y15388D03*
X23968Y15703D03*
X23968Y16018D03*
X23968Y16333D03*
X23968Y16647D03*
X24283Y12553D03*
X24283Y12868D03*
X24283Y13183D03*
X24283Y13498D03*
X24283Y13813D03*
X24283Y14128D03*
X24283Y14443D03*
X24283Y14758D03*
X24283Y15073D03*
X24283Y15388D03*
X24283Y15703D03*
X24283Y16018D03*
X24283Y16333D03*
X24283Y16647D03*
X24597Y12553D03*
X24597Y12868D03*
X24597Y13183D03*
X24597Y13498D03*
X24597Y13813D03*
X24597Y14128D03*
X24597Y14443D03*
X24597Y14758D03*
X24597Y15073D03*
X24597Y15388D03*
X24597Y15703D03*
X24597Y16018D03*
X24597Y16333D03*
X24597Y16647D03*
G54D20*
X-01993Y11207D03*
X-01993Y11522D03*
X-01993Y11837D03*
X-01993Y12152D03*
X-01993Y12467D03*
X-01993Y12782D03*
X-01993Y13097D03*
X-01993Y13412D03*
X-01993Y13727D03*
X-01993Y14042D03*
X-01993Y14357D03*
X-01993Y14672D03*
X-01993Y14987D03*
X-01993Y15302D03*
X-01993Y15617D03*
X-01993Y15932D03*
X-01993Y16247D03*
X-01993Y16562D03*
X-01993Y16877D03*
X-01993Y17192D03*
X-01678Y11207D03*
X-01678Y11522D03*
X-01678Y11837D03*
X-01678Y12152D03*
X-01678Y12467D03*
X-01678Y12782D03*
X-01678Y13097D03*
X-01678Y13412D03*
X-01678Y13727D03*
X-01678Y14042D03*
X-01678Y14357D03*
X-01678Y14672D03*
X-01678Y14987D03*
X-01678Y15302D03*
X-01678Y15617D03*
X-01678Y15932D03*
X-01678Y16247D03*
X-01678Y16562D03*
X-01678Y16877D03*
X-01678Y17192D03*
X-01363Y11207D03*
X-01363Y11522D03*
X-01363Y16877D03*
X-01363Y17192D03*
X-01048Y11207D03*
X-01048Y11522D03*
X-01048Y16877D03*
X-01048Y17192D03*
X-00733Y11207D03*
X-00733Y11522D03*
X-00733Y16877D03*
X-00733Y17192D03*
X-00418Y11207D03*
X-00418Y11522D03*
X-00418Y16877D03*
X-00418Y17192D03*
X-00103Y11207D03*
X-00103Y11522D03*
X-00103Y13097D03*
X-00103Y13412D03*
X-00103Y13727D03*
X-00103Y14042D03*
X-00103Y14357D03*
X-00103Y14672D03*
X-00103Y14987D03*
X-00103Y15302D03*
X-00103Y16877D03*
X-00103Y17192D03*
X00212Y11207D03*
X00212Y11522D03*
X00212Y13097D03*
X00212Y13412D03*
X00212Y13727D03*
X00212Y14042D03*
X00212Y14357D03*
X00212Y14672D03*
X00212Y14987D03*
X00212Y15302D03*
X00212Y16877D03*
X00212Y17192D03*
X00527Y11207D03*
X00527Y11522D03*
X00527Y13097D03*
X00527Y13412D03*
X00527Y13727D03*
X00527Y14042D03*
X00527Y14357D03*
X00527Y14672D03*
X00527Y14987D03*
X00527Y15302D03*
X00527Y16877D03*
X00527Y17192D03*
X00842Y11207D03*
X00842Y11522D03*
X00842Y13097D03*
X00842Y13412D03*
X00842Y13727D03*
X00842Y14042D03*
X00842Y14357D03*
X00842Y14672D03*
X00842Y14987D03*
X00842Y15302D03*
X00842Y16877D03*
X00842Y17192D03*
X01157Y11207D03*
X01157Y11522D03*
X01157Y13097D03*
X01157Y13412D03*
X01157Y13727D03*
X01157Y14042D03*
X01157Y14357D03*
X01157Y14672D03*
X01157Y14987D03*
X01157Y15302D03*
X01157Y16877D03*
X01157Y17192D03*
X01472Y11207D03*
X01472Y11522D03*
X01472Y13097D03*
X01472Y13412D03*
X01472Y13727D03*
X01472Y14042D03*
X01472Y14357D03*
X01472Y14672D03*
X01472Y14987D03*
X01472Y15302D03*
X01472Y16877D03*
X01472Y17192D03*
X01787Y11207D03*
X01787Y11522D03*
X01787Y13097D03*
X01787Y13412D03*
X01787Y13727D03*
X01787Y14042D03*
X01787Y14357D03*
X01787Y14672D03*
X01787Y14987D03*
X01787Y15302D03*
X01787Y16877D03*
X01787Y17192D03*
X02102Y11207D03*
X02102Y11522D03*
X02102Y13097D03*
X02102Y13412D03*
X02102Y13727D03*
X02102Y14042D03*
X02102Y14357D03*
X02102Y14672D03*
X02102Y14987D03*
X02102Y15302D03*
X02102Y16877D03*
X02102Y17192D03*
X02417Y11207D03*
X02417Y11522D03*
X02417Y16877D03*
X02417Y17192D03*
X02732Y11207D03*
X02732Y11522D03*
X02732Y16877D03*
X02732Y17192D03*
X03047Y11207D03*
X03047Y11522D03*
X03047Y16877D03*
X03047Y17192D03*
X03362Y11207D03*
X03362Y11522D03*
X03362Y16877D03*
X03362Y17192D03*
X03677Y11207D03*
X03677Y11522D03*
X03677Y16877D03*
X03677Y17192D03*
X03992Y11207D03*
X03992Y11522D03*
X03992Y11837D03*
X03992Y12152D03*
X03992Y12467D03*
X03992Y12782D03*
X03992Y13097D03*
X03992Y13412D03*
X03992Y13727D03*
X03992Y14042D03*
X03992Y14357D03*
X03992Y14672D03*
X03992Y14987D03*
X03992Y15302D03*
X03992Y15617D03*
X03992Y15932D03*
X03992Y16247D03*
X03992Y16562D03*
X03992Y16877D03*
X03992Y17192D03*
X03677Y11837D03*
X03677Y12152D03*
X03677Y12467D03*
X03677Y12782D03*
X03677Y13097D03*
X03677Y13412D03*
X03677Y13727D03*
X03677Y14042D03*
X03677Y14357D03*
X03677Y14672D03*
X03677Y14987D03*
X03677Y15302D03*
X03677Y15617D03*
X03677Y15932D03*
X03677Y16247D03*
X03677Y16562D03*
G54D21*
X22092Y26089D03*
X21896Y26089D03*
X21700Y26089D03*
X21504Y26089D03*
X21308Y26089D03*
X21308Y24710D03*
X21504Y24710D03*
X21700Y24710D03*
X21896Y24710D03*
X22092Y24710D03*
G54D17*
X-06845Y15389D03*
X-06845Y15192D03*
X-06845Y14995D03*
X-06845Y14798D03*
X-06845Y14602D03*
X-06845Y14405D03*
X-06845Y14208D03*
X-06845Y14011D03*
X-04955Y14011D03*
X-04955Y14208D03*
X-04955Y14405D03*
X-04955Y14602D03*
X-04955Y14798D03*
X-04955Y14995D03*
X-04955Y15192D03*
X-04955Y15389D03*
G54D18*
X-06589Y13755D03*
X-06392Y13755D03*
X-06195Y13755D03*
X-05998Y13755D03*
X-05802Y13755D03*
X-05605Y13755D03*
X-05408Y13755D03*
X-05211Y13755D03*
X-05211Y15645D03*
X-05408Y15645D03*
X-05605Y15645D03*
X-05802Y15645D03*
X-05998Y15645D03*
X-06195Y15645D03*
X-06392Y15645D03*
X-06589Y15645D03*
G54D22*
X-06254Y15054D03*
X-06254Y14346D03*
X-05546Y14346D03*
X-05546Y15054D03*
G54D23*
X29386Y16052D03*
X29189Y16052D03*
X28992Y16052D03*
X28795Y16052D03*
X28598Y16052D03*
X28402Y16052D03*
X28205Y16052D03*
X28008Y16052D03*
X27811Y16052D03*
X27614Y16052D03*
X27614Y13748D03*
X27811Y13748D03*
X28008Y13748D03*
X28205Y13748D03*
X28402Y13748D03*
X28598Y13748D03*
X28795Y13748D03*
X28992Y13748D03*
X29189Y13748D03*
X29386Y13748D03*
G54D24*
X27348Y15786D03*
X27348Y15589D03*
X27348Y15392D03*
X27348Y15195D03*
X27348Y14998D03*
X27348Y14802D03*
X27348Y14605D03*
X27348Y14408D03*
X27348Y14211D03*
X27348Y14014D03*
X29652Y14014D03*
X29652Y14211D03*
X29652Y14408D03*
X29652Y14605D03*
X29652Y14802D03*
X29652Y14998D03*
X29652Y15195D03*
X29652Y15392D03*
X29652Y15589D03*
X29652Y15786D03*
G54D23*
X24586Y25952D03*
X24389Y25952D03*
X24192Y25952D03*
X23995Y25952D03*
X23798Y25952D03*
X23602Y25952D03*
X23405Y25952D03*
X23208Y25952D03*
X23011Y25952D03*
X22814Y25952D03*
X22814Y23648D03*
X23011Y23648D03*
X23208Y23648D03*
X23405Y23648D03*
X23602Y23648D03*
X23798Y23648D03*
X23995Y23648D03*
X24192Y23648D03*
X24389Y23648D03*
X24586Y23648D03*
G54D24*
X22548Y25686D03*
X22548Y25489D03*
X22548Y25292D03*
X22548Y25095D03*
X22548Y24898D03*
X22548Y24702D03*
X22548Y24505D03*
X22548Y24308D03*
X22548Y24111D03*
X22548Y23914D03*
X24852Y23914D03*
X24852Y24111D03*
X24852Y24308D03*
X24852Y24505D03*
X24852Y24702D03*
X24852Y24898D03*
X24852Y25095D03*
X24852Y25292D03*
X24852Y25489D03*
X24852Y25686D03*
G54D25*
X-30626Y10344D03*
X-30626Y10600D03*
X-30626Y10856D03*
X-31374Y10856D03*
X-31374Y10344D03*
G54D26*
X02150Y04263D03*
X01650Y04263D03*
X01150Y04263D03*
X00650Y04263D03*
X00150Y04263D03*
X-00350Y04263D03*
X-00850Y04263D03*
X-01350Y04263D03*
X-01350Y02137D03*
X-00850Y02137D03*
X-00350Y02137D03*
X00150Y02137D03*
X00650Y02137D03*
X01150Y02137D03*
X01650Y02137D03*
X02150Y02137D03*
X03150Y02137D03*
X03650Y02137D03*
X04150Y02137D03*
X04650Y02137D03*
X05150Y02137D03*
X05650Y02137D03*
X06150Y02137D03*
X06650Y02137D03*
X06650Y04263D03*
X06150Y04263D03*
X05650Y04263D03*
X05150Y04263D03*
X04650Y04263D03*
X04150Y04263D03*
X03650Y04263D03*
X03150Y04263D03*
G54D27*
X-30026Y17712D03*
X-30400Y17700D03*
X-30774Y17712D03*
X-30774Y16688D03*
X-30026Y16688D03*
G54D28*
X26812Y14826D03*
X26812Y15200D03*
X26812Y15574D03*
X25788Y15574D03*
X25788Y15200D03*
X25788Y14826D03*
X-04588Y17426D03*
X-04588Y17800D03*
X-04588Y18174D03*
X-05612Y18174D03*
X-05612Y17800D03*
X-05612Y17426D03*
G54D29*
X-32300Y05808D03*
X-32044Y05808D03*
X-31788Y05808D03*
X-31532Y05808D03*
X-31532Y07993D03*
X-31788Y07993D03*
X-32044Y07993D03*
X-32300Y07993D03*
X-32556Y07993D03*
X-32812Y07993D03*
X-33068Y07993D03*
X-32556Y05808D03*
X-32812Y05808D03*
X-33068Y05808D03*
X-32301Y19863D03*
X-32557Y19863D03*
X-32813Y19863D03*
X-33069Y19863D03*
X-33069Y17678D03*
X-32813Y17678D03*
X-32557Y17678D03*
X-32301Y17678D03*
X-32045Y17678D03*
X-31789Y17678D03*
X-31533Y17678D03*
X-32045Y19863D03*
X-31789Y19863D03*
X-31533Y19863D03*
G54D30*
X-10103Y00221D03*
X-10103Y-00035D03*
X-10103Y-00291D03*
X-10103Y-00547D03*
X-10103Y-00803D03*
X-07899Y-00803D03*
X-07899Y-00547D03*
X-07899Y-00291D03*
X-07899Y-00035D03*
X-07899Y00221D03*
X-07899Y00477D03*
X-07899Y00733D03*
X-07899Y00989D03*
X-10103Y00477D03*
X-10103Y00733D03*
X-10103Y00989D03*
G54D31*
X16469Y15148D03*
X16469Y15404D03*
X16469Y15660D03*
X16469Y15916D03*
X16469Y16172D03*
X16469Y16428D03*
X16469Y16684D03*
X16469Y16940D03*
X16469Y17196D03*
X16469Y17452D03*
X14131Y17452D03*
X14131Y17196D03*
X14131Y16940D03*
X14131Y16684D03*
X14131Y16428D03*
X14131Y16172D03*
X14131Y15916D03*
X14131Y15660D03*
X14131Y15404D03*
X14131Y15148D03*
G54D32*
X-25048Y07369D03*
X-25304Y07369D03*
X-25560Y07369D03*
X-25816Y07369D03*
X-26072Y07369D03*
X-26328Y07369D03*
X-26584Y07369D03*
X-26840Y07369D03*
X-27096Y07369D03*
X-27352Y07369D03*
X-27352Y05031D03*
X-27096Y05031D03*
X-26840Y05031D03*
X-26584Y05031D03*
X-26328Y05031D03*
X-26072Y05031D03*
X-25816Y05031D03*
X-25560Y05031D03*
X-25304Y05031D03*
X-25048Y05031D03*
X-28249Y07439D03*
X-28505Y07439D03*
X-28761Y07439D03*
X-29017Y07439D03*
X-29273Y07439D03*
X-29529Y07439D03*
X-29785Y07439D03*
X-30041Y07439D03*
X-30297Y07439D03*
X-30553Y07439D03*
X-30553Y05101D03*
X-30297Y05101D03*
X-30041Y05101D03*
X-29785Y05101D03*
X-29529Y05101D03*
X-29273Y05101D03*
X-29017Y05101D03*
X-28761Y05101D03*
X-28505Y05101D03*
X-28249Y05101D03*
G54D33*
X-36951Y21254D03*
X-36951Y20998D03*
X-36951Y20742D03*
X-36951Y20486D03*
X-35251Y20486D03*
X-35251Y20742D03*
X-35251Y20998D03*
X-35251Y21254D03*
X-36951Y13154D03*
X-36951Y12898D03*
X-36951Y12642D03*
X-36951Y12386D03*
X-35251Y12386D03*
X-35251Y12642D03*
X-35251Y12898D03*
X-35251Y13154D03*
X-36951Y15854D03*
X-36951Y15598D03*
X-36951Y15342D03*
X-36951Y15086D03*
X-35251Y15086D03*
X-35251Y15342D03*
X-35251Y15598D03*
X-35251Y15854D03*
X-36951Y05054D03*
X-36951Y04798D03*
X-36951Y04542D03*
X-36951Y04286D03*
X-35251Y04286D03*
X-35251Y04542D03*
X-35251Y04798D03*
X-35251Y05054D03*
X-36951Y02354D03*
X-36951Y02098D03*
X-36951Y01842D03*
X-36951Y01586D03*
X-35251Y01586D03*
X-35251Y01842D03*
X-35251Y02098D03*
X-35251Y02354D03*
X-36951Y07754D03*
X-36951Y07498D03*
X-36951Y07242D03*
X-36951Y06986D03*
X-35251Y06986D03*
X-35251Y07242D03*
X-35251Y07498D03*
X-35251Y07754D03*
X-36951Y10454D03*
X-36951Y10198D03*
X-36951Y09942D03*
X-36951Y09686D03*
X-35251Y09686D03*
X-35251Y09942D03*
X-35251Y10198D03*
X-35251Y10454D03*
X-36951Y18554D03*
X-36951Y18298D03*
X-36951Y18042D03*
X-36951Y17786D03*
X-35251Y17786D03*
X-35251Y18042D03*
X-35251Y18298D03*
X-35251Y18554D03*
G54D20*
X07860Y13240D03*
X07545Y13240D03*
X07230Y13240D03*
X05970Y13240D03*
X05655Y13240D03*
X05340Y13240D03*
X07860Y13555D03*
X07545Y13555D03*
X07230Y13555D03*
X05970Y13555D03*
X05655Y13555D03*
X05340Y13555D03*
X07860Y13870D03*
X07545Y13870D03*
X07230Y13870D03*
X05970Y13870D03*
X05655Y13870D03*
X05340Y13870D03*
X07860Y14185D03*
X07545Y14185D03*
X07230Y14185D03*
X05970Y14185D03*
X05655Y14185D03*
X05340Y14185D03*
X07860Y14500D03*
X07545Y14500D03*
X07230Y14500D03*
X05970Y14500D03*
X05655Y14500D03*
X05340Y14500D03*
X07860Y14815D03*
X07545Y14815D03*
X07230Y14815D03*
X05970Y14815D03*
X05655Y14815D03*
X05340Y14815D03*
X07860Y15130D03*
X07545Y15130D03*
X07230Y15130D03*
X05970Y15130D03*
X05655Y15130D03*
X05340Y15130D03*
X07860Y15445D03*
X07545Y15445D03*
X07230Y15445D03*
X05970Y15445D03*
X05655Y15445D03*
X05340Y15445D03*
X07860Y15760D03*
X07545Y15760D03*
X07230Y15760D03*
X05970Y15760D03*
X05655Y15760D03*
X05340Y15760D03*
G54D11*
X27100Y13197D03*
X27100Y12803D03*
X25500Y12803D03*
X25500Y13197D03*
G54D34*
X30650Y12675D03*
X30650Y12925D03*
X30650Y13175D03*
X30650Y13425D03*
X30650Y13675D03*
X30650Y13925D03*
X30650Y14175D03*
X30650Y14425D03*
X30650Y14675D03*
X30650Y14925D03*
X30650Y15175D03*
X30650Y15425D03*
X30650Y15675D03*
X30650Y15925D03*
X30650Y16175D03*
X30650Y16425D03*
X30650Y16675D03*
X30650Y16925D03*
X30150Y12675D03*
X30150Y12925D03*
X30150Y13175D03*
X30150Y13425D03*
X30150Y13675D03*
X30150Y13925D03*
X30150Y14175D03*
X30150Y14425D03*
X30150Y14675D03*
X30150Y14925D03*
X30150Y15175D03*
X30150Y15425D03*
X30150Y15675D03*
X30150Y15925D03*
X30150Y16175D03*
X30150Y16425D03*
X30150Y16675D03*
X30150Y16925D03*
G54D12*
X25897Y13600D03*
X25503Y13600D03*
X25503Y14000D03*
X25897Y14000D03*
G54D11*
X29550Y12053D03*
X29550Y12447D03*
G54D12*
X19697Y16500D03*
X19303Y16500D03*
X19303Y14900D03*
X19697Y14900D03*
G54D31*
X14131Y14352D03*
X14131Y14096D03*
X14131Y13840D03*
X14131Y13584D03*
X14131Y13328D03*
X14131Y13072D03*
X14131Y12816D03*
X14131Y12560D03*
X14131Y12304D03*
X14131Y12048D03*
X16469Y12048D03*
X16469Y12304D03*
X16469Y12560D03*
X16469Y12816D03*
X16469Y13072D03*
X16469Y13328D03*
X16469Y13584D03*
X16469Y13840D03*
X16469Y14096D03*
X16469Y14352D03*
G54D11*
X13200Y08303D03*
X13200Y08697D03*
G54D12*
X15497Y11400D03*
X15103Y11400D03*
G54D35*
X21106Y05209D03*
X21303Y05209D03*
X21500Y05209D03*
X21697Y05209D03*
X21894Y05209D03*
X21894Y06391D03*
X21697Y06391D03*
X21500Y06391D03*
X21303Y06391D03*
X21106Y06391D03*
G54D36*
X21500Y05800D03*
G54D37*
X20700Y07000D03*
X20700Y08200D03*
X22300Y07000D03*
X22300Y08200D03*
G54D13*
X21195Y08900D03*
X20605Y08900D03*
X21805Y08900D03*
X22395Y08900D03*
G54D12*
X22403Y05200D03*
X22797Y05200D03*
X22797Y05600D03*
X22403Y05600D03*
X20103Y05600D03*
X20497Y05600D03*
X20497Y06000D03*
X20103Y06000D03*
X20497Y05200D03*
X20103Y05200D03*
G54D13*
X22595Y04600D03*
X22005Y04600D03*
G54D11*
X21500Y04797D03*
X21500Y04403D03*
G54D12*
X26703Y16200D03*
X27097Y16200D03*
G54D11*
X26360Y16597D03*
X26360Y16203D03*
G54D12*
X27297Y17300D03*
X26903Y17300D03*
G54D11*
X26900Y16997D03*
X26900Y16603D03*
G54D12*
X25997Y16150D03*
X25603Y16150D03*
X23797Y11900D03*
X23403Y11900D03*
G54D11*
X19800Y12897D03*
X19800Y12503D03*
G54D12*
X24303Y11900D03*
X24697Y11900D03*
X25703Y12300D03*
X26097Y12300D03*
X25703Y11900D03*
X26097Y11900D03*
G54D11*
X25250Y12397D03*
X25250Y12003D03*
G54D12*
X21803Y11900D03*
X22197Y11900D03*
X22997Y11900D03*
X22603Y11900D03*
G54D11*
X13200Y06703D03*
X13200Y07097D03*
X24600Y22697D03*
X24600Y22303D03*
G54D34*
X25850Y22675D03*
X25850Y22925D03*
X25850Y23175D03*
X25850Y23425D03*
X25850Y23675D03*
X25850Y23925D03*
X25850Y24175D03*
X25850Y24425D03*
X25850Y24675D03*
X25850Y24925D03*
X25850Y25175D03*
X25850Y25425D03*
X25850Y25675D03*
X25850Y25925D03*
X25850Y26175D03*
X25850Y26425D03*
X25850Y26675D03*
X25850Y26925D03*
X25350Y22675D03*
X25350Y22925D03*
X25350Y23175D03*
X25350Y23425D03*
X25350Y23675D03*
X25350Y23925D03*
X25350Y24175D03*
X25350Y24425D03*
X25350Y24675D03*
X25350Y24925D03*
X25350Y25175D03*
X25350Y25425D03*
X25350Y25675D03*
X25350Y25925D03*
X25350Y26175D03*
X25350Y26425D03*
X25350Y26675D03*
X25350Y26925D03*
G54D11*
X21200Y22303D03*
X21200Y22697D03*
G54D12*
X01703Y01400D03*
X02097Y01400D03*
X03597Y01400D03*
X03203Y01400D03*
G54D19*
X-28247Y13053D03*
X-28247Y13368D03*
X-28247Y13683D03*
X-28247Y13998D03*
X-28247Y14313D03*
X-28247Y14628D03*
X-28247Y14943D03*
X-28247Y15258D03*
X-28247Y15573D03*
X-28247Y15888D03*
X-28247Y16203D03*
X-28247Y16518D03*
X-28247Y16833D03*
X-28247Y17147D03*
X-27932Y13053D03*
X-27932Y13368D03*
X-27932Y13683D03*
X-27932Y13998D03*
X-27932Y14313D03*
X-27932Y14628D03*
X-27932Y14943D03*
X-27932Y15258D03*
X-27932Y15573D03*
X-27932Y15888D03*
X-27932Y16203D03*
X-27932Y16518D03*
X-27932Y16833D03*
X-27932Y17147D03*
X-27617Y13053D03*
X-27617Y13368D03*
X-27617Y13683D03*
X-27617Y13998D03*
X-27617Y14313D03*
X-27617Y14628D03*
X-27617Y14943D03*
X-27617Y15258D03*
X-27617Y15573D03*
X-27617Y15888D03*
X-27617Y16203D03*
X-27617Y16518D03*
X-27617Y16833D03*
X-27617Y17147D03*
X-27302Y13053D03*
X-27302Y13368D03*
X-27302Y13683D03*
X-27302Y13998D03*
X-27302Y14313D03*
X-27302Y14628D03*
X-27302Y14943D03*
X-27302Y15258D03*
X-27302Y15573D03*
X-27302Y15888D03*
X-27302Y16203D03*
X-27302Y16518D03*
X-27302Y16833D03*
X-27302Y17147D03*
X-26987Y13053D03*
X-26987Y13368D03*
X-26987Y13683D03*
X-26987Y13998D03*
X-26987Y16203D03*
X-26987Y16518D03*
X-26987Y16833D03*
X-26987Y17147D03*
X-26672Y13053D03*
X-26672Y13368D03*
X-26672Y13683D03*
X-26672Y13998D03*
X-26672Y16203D03*
X-26672Y16518D03*
X-26672Y16833D03*
X-26672Y17147D03*
X-26357Y13053D03*
X-26357Y13368D03*
X-26357Y13683D03*
X-26357Y13998D03*
X-26357Y16203D03*
X-26357Y16518D03*
X-26357Y16833D03*
X-26357Y17147D03*
X-26042Y13053D03*
X-26042Y13368D03*
X-26042Y13683D03*
X-26042Y13998D03*
X-26042Y16203D03*
X-26042Y16518D03*
X-26042Y16833D03*
X-26042Y17147D03*
X-25727Y13053D03*
X-25727Y13368D03*
X-25727Y13683D03*
X-25727Y13998D03*
X-25727Y16203D03*
X-25727Y16518D03*
X-25727Y16833D03*
X-25727Y17147D03*
X-25412Y13053D03*
X-25412Y13368D03*
X-25412Y13683D03*
X-25412Y13998D03*
X-25412Y16203D03*
X-25412Y16518D03*
X-25412Y16833D03*
X-25412Y17147D03*
X-25097Y13053D03*
X-25097Y13368D03*
X-25097Y13683D03*
X-25097Y13998D03*
X-25097Y14313D03*
X-25097Y14628D03*
X-25097Y14943D03*
X-25097Y15258D03*
X-25097Y15573D03*
X-25097Y15888D03*
X-25097Y16203D03*
X-25097Y16518D03*
X-25097Y16833D03*
X-25097Y17147D03*
X-24782Y13053D03*
X-24782Y13368D03*
X-24782Y13683D03*
X-24782Y13998D03*
X-24782Y14313D03*
X-24782Y14628D03*
X-24782Y14943D03*
X-24782Y15258D03*
X-24782Y15573D03*
X-24782Y15888D03*
X-24782Y16203D03*
X-24782Y16518D03*
X-24782Y16833D03*
X-24782Y17147D03*
X-24467Y13053D03*
X-24467Y13368D03*
X-24467Y13683D03*
X-24467Y13998D03*
X-24467Y14313D03*
X-24467Y14628D03*
X-24467Y14943D03*
X-24467Y15258D03*
X-24467Y15573D03*
X-24467Y15888D03*
X-24467Y16203D03*
X-24467Y16518D03*
X-24467Y16833D03*
X-24467Y17147D03*
X-24153Y13053D03*
X-24153Y13368D03*
X-24153Y13683D03*
X-24153Y13998D03*
X-24153Y14313D03*
X-24153Y14628D03*
X-24153Y14943D03*
X-24153Y15258D03*
X-24153Y15573D03*
X-24153Y15888D03*
X-24153Y16203D03*
X-24153Y16518D03*
X-24153Y16833D03*
X-24153Y17147D03*
G54D32*
X-24248Y20669D03*
X-24504Y20669D03*
X-24760Y20669D03*
X-25016Y20669D03*
X-25272Y20669D03*
X-25528Y20669D03*
X-25784Y20669D03*
X-26040Y20669D03*
X-26296Y20669D03*
X-26552Y20669D03*
X-26552Y18331D03*
X-26296Y18331D03*
X-26040Y18331D03*
X-25784Y18331D03*
X-25528Y18331D03*
X-25272Y18331D03*
X-25016Y18331D03*
X-24760Y18331D03*
X-24504Y18331D03*
X-24248Y18331D03*
G54D38*
X-28264Y18116D03*
G54D39*
X-27811Y18116D03*
G54D38*
X-27752Y18904D03*
X-28264Y18904D03*
G54D12*
X-27803Y19400D03*
X-28197Y19400D03*
G54D11*
X-22800Y13203D03*
X-22800Y13597D03*
X-23200Y13597D03*
X-23200Y13203D03*
G54D35*
X-31957Y27111D03*
X-32154Y27111D03*
X-32351Y27111D03*
X-32548Y27111D03*
X-32745Y27111D03*
X-32745Y25929D03*
X-32548Y25929D03*
X-32351Y25929D03*
X-32154Y25929D03*
X-31957Y25929D03*
G54D36*
X-32351Y26520D03*
G54D37*
X-31651Y25120D03*
X-31651Y23920D03*
X-33051Y25120D03*
X-33051Y23920D03*
G54D13*
X-32146Y23220D03*
X-31556Y23220D03*
X-32556Y23220D03*
X-33146Y23220D03*
G54D11*
X-33451Y26717D03*
X-33451Y26323D03*
X-33451Y27417D03*
X-33451Y27023D03*
X-31251Y26123D03*
X-31251Y26517D03*
X-31251Y26823D03*
X-31251Y27217D03*
X-30851Y26517D03*
X-30851Y26123D03*
G54D14*
X-32800Y28195D03*
X-32800Y27605D03*
G54D11*
X-32300Y27603D03*
X-32300Y27997D03*
G54D18*
X-24000Y10948D03*
X-23803Y10948D03*
X-23606Y10948D03*
X-24197Y10948D03*
X-24394Y10948D03*
X-23606Y09452D03*
X-23803Y09452D03*
X-24000Y09452D03*
X-24197Y09452D03*
X-24394Y09452D03*
G54D17*
X-23252Y10200D03*
X-23252Y10003D03*
X-23252Y09806D03*
X-23252Y10397D03*
X-23252Y10594D03*
X-24748Y10200D03*
X-24748Y10003D03*
X-24748Y09806D03*
X-24748Y10397D03*
X-24748Y10594D03*
G54D11*
X-22801Y10473D03*
X-22801Y10867D03*
G54D12*
X-22798Y09670D03*
X-22404Y09670D03*
G54D11*
X-23801Y08073D03*
X-23801Y08467D03*
G54D12*
X-23804Y08870D03*
X-24198Y08870D03*
X-24998Y08870D03*
X-24604Y08870D03*
G54D11*
X-23800Y07797D03*
X-23800Y07403D03*
G54D12*
X-24104Y07370D03*
X-24498Y07370D03*
G54D11*
X-22900Y11697D03*
X-22900Y11303D03*
X-24400Y11697D03*
X-24400Y11303D03*
X-24401Y01573D03*
X-24401Y01967D03*
X-26401Y01573D03*
X-26401Y01967D03*
G54D14*
X-27401Y02865D03*
X-27401Y02275D03*
G54D11*
X-27401Y01573D03*
X-27401Y01967D03*
G54D14*
X-30401Y02865D03*
X-30401Y02275D03*
G54D11*
X-30401Y01573D03*
X-30401Y01967D03*
G54D14*
X-31401Y02865D03*
X-31401Y02275D03*
G54D11*
X-31401Y01573D03*
X-31401Y01967D03*
G54D12*
X-28603Y10100D03*
X-28997Y10100D03*
X-28603Y11000D03*
X-28997Y11000D03*
G54D11*
X-27800Y11903D03*
X-27800Y12297D03*
G54D12*
X-30303Y13100D03*
X-30697Y13100D03*
G54D11*
X-27300Y11903D03*
X-27300Y12297D03*
G54D14*
X-31401Y-00635D03*
X-31401Y-01225D03*
G54D11*
X-29401Y-01927D03*
X-29401Y-01533D03*
G54D14*
X-29401Y-00635D03*
X-29401Y-01225D03*
G54D11*
X-28401Y-01927D03*
X-28401Y-01533D03*
G54D14*
X-28401Y-00635D03*
X-28401Y-01225D03*
G54D11*
X-27401Y-01927D03*
X-27401Y-01533D03*
G54D14*
X-27401Y-00635D03*
X-27401Y-01225D03*
G54D11*
X-26401Y-01927D03*
X-26401Y-01533D03*
G54D14*
X-26401Y-00635D03*
X-26401Y-01225D03*
G54D11*
X-25401Y-01927D03*
X-25401Y-01533D03*
G54D14*
X-24401Y-00635D03*
X-24401Y-01225D03*
G54D32*
X03848Y06731D03*
X04104Y06731D03*
X04360Y06731D03*
X04616Y06731D03*
X04872Y06731D03*
X05128Y06731D03*
X05384Y06731D03*
X05640Y06731D03*
X05896Y06731D03*
X06152Y06731D03*
X06152Y09069D03*
X05896Y09069D03*
X05640Y09069D03*
X05384Y09069D03*
X05128Y09069D03*
X04872Y09069D03*
X04616Y09069D03*
X04360Y09069D03*
X04104Y09069D03*
X03848Y09069D03*
G54D40*
X-06316Y11236D03*
G54D41*
X-06316Y11689D03*
G54D40*
X-07104Y11748D03*
X-07104Y11236D03*
G54D12*
X08103Y08800D03*
X08497Y08800D03*
X08497Y07400D03*
X08103Y07400D03*
X08497Y11400D03*
X08103Y11400D03*
G54D35*
X09609Y22784D03*
X09412Y22784D03*
X09215Y22784D03*
X09018Y22784D03*
X08821Y22784D03*
X08821Y21602D03*
X09018Y21602D03*
X09215Y21602D03*
X09412Y21602D03*
X09609Y21602D03*
G54D36*
X09215Y22193D03*
G54D37*
X10015Y20893D03*
X10015Y19693D03*
X08415Y20893D03*
X08415Y19693D03*
G54D13*
X09520Y18993D03*
X10110Y18993D03*
X08910Y18993D03*
X08320Y18993D03*
G54D12*
X08212Y22593D03*
X07818Y22593D03*
X07818Y22093D03*
X08212Y22093D03*
X10612Y22193D03*
X10218Y22193D03*
X10218Y22693D03*
X10612Y22693D03*
X10218Y21793D03*
X10612Y21793D03*
G54D13*
X08220Y23293D03*
X08810Y23293D03*
G54D12*
X09218Y23293D03*
X09612Y23293D03*
G54D13*
X-05695Y10500D03*
X-05105Y10500D03*
G54D12*
X-04203Y10500D03*
X-04597Y10500D03*
G54D13*
X-05695Y09500D03*
X-05105Y09500D03*
G54D12*
X-04203Y09500D03*
X-04597Y09500D03*
G54D13*
X-05695Y08500D03*
X-05105Y08500D03*
G54D12*
X-04203Y08500D03*
X-04597Y08500D03*
G54D13*
X-05695Y07500D03*
X-05105Y07500D03*
G54D12*
X-04203Y07500D03*
X-04597Y07500D03*
G54D32*
X-00448Y09069D03*
X-00704Y09069D03*
X-00960Y09069D03*
X-01216Y09069D03*
X-01472Y09069D03*
X-01728Y09069D03*
X-01984Y09069D03*
X-02240Y09069D03*
X-02496Y09069D03*
X-02752Y09069D03*
X-02752Y06731D03*
X-02496Y06731D03*
X-02240Y06731D03*
X-01984Y06731D03*
X-01728Y06731D03*
X-01472Y06731D03*
X-01216Y06731D03*
X-00960Y06731D03*
X-00704Y06731D03*
X-00448Y06731D03*
G54D13*
X-05695Y06500D03*
X-05105Y06500D03*
G54D12*
X-04203Y06500D03*
X-04597Y06500D03*
G54D13*
X-05695Y05500D03*
X-05105Y05500D03*
G54D12*
X-04203Y05500D03*
X-04597Y05500D03*
G54D13*
X-05695Y04500D03*
X-05105Y04500D03*
G54D12*
X-04203Y04500D03*
X-04597Y04500D03*
X-04203Y03500D03*
X-04597Y03500D03*
G54D11*
X08200Y10403D03*
X08200Y10797D03*
G54D12*
X07103Y08800D03*
X07497Y08800D03*
G54D11*
X08200Y10097D03*
X08200Y09703D03*
G54D12*
X-07803Y03500D03*
X-08197Y03500D03*
G54D13*
X-09295Y03500D03*
X-08705Y03500D03*
G54D12*
X-07803Y04500D03*
X-08197Y04500D03*
G54D13*
X-09295Y04500D03*
X-08705Y04500D03*
G54D12*
X-07803Y05500D03*
X-08197Y05500D03*
X-07803Y06500D03*
X-08197Y06500D03*
G54D13*
X-09295Y06500D03*
X-08705Y06500D03*
G54D32*
X02852Y09069D03*
X02596Y09069D03*
X02340Y09069D03*
X02084Y09069D03*
X01828Y09069D03*
X01572Y09069D03*
X01316Y09069D03*
X01060Y09069D03*
X00804Y09069D03*
X00548Y09069D03*
X00548Y06731D03*
X00804Y06731D03*
X01060Y06731D03*
X01316Y06731D03*
X01572Y06731D03*
X01828Y06731D03*
X02084Y06731D03*
X02340Y06731D03*
X02596Y06731D03*
X02852Y06731D03*
G54D12*
X-07803Y08500D03*
X-08197Y08500D03*
G54D13*
X-09295Y08500D03*
X-08705Y08500D03*
G54D12*
X-07803Y09500D03*
X-08197Y09500D03*
G54D13*
X-09295Y09500D03*
X-08705Y09500D03*
G54D12*
X-07803Y10500D03*
X-08197Y10500D03*
G54D13*
X-09295Y10500D03*
X-08705Y10500D03*
G54D11*
X-24800Y11303D03*
X-24800Y11697D03*
G54D12*
X-28603Y10600D03*
X-28997Y10600D03*
X09103Y15100D03*
X09497Y15100D03*
X09103Y15500D03*
X09497Y15500D03*
X09103Y14200D03*
X09497Y14200D03*
X09103Y14600D03*
X09497Y14600D03*
X21703Y24000D03*
X22097Y24000D03*
X-30397Y21500D03*
X-30003Y21500D03*
G54D11*
X-27400Y23903D03*
X-27400Y24297D03*
G54D12*
X-27497Y21900D03*
X-27103Y21900D03*
X-27497Y21500D03*
X-27103Y21500D03*
G54D11*
X-27500Y20603D03*
X-27500Y20997D03*
X-27900Y20997D03*
X-27900Y20603D03*
X-29300Y20503D03*
X-29300Y20897D03*
X-21200Y24497D03*
X-21200Y24103D03*
X-21200Y26403D03*
X-21200Y26797D03*
G54D12*
X-29497Y14400D03*
X-29103Y14400D03*
X-29497Y14000D03*
X-29103Y14000D03*
X-29497Y13600D03*
X-29103Y13600D03*
X-03497Y09800D03*
X-03103Y09800D03*
X-04503Y21600D03*
X-04897Y21600D03*
G54D11*
X-05300Y18603D03*
X-05300Y18997D03*
X-05800Y18603D03*
X-05800Y18997D03*
X-06800Y18997D03*
X-06800Y18603D03*
X-06300Y18603D03*
X-06300Y18997D03*
X-04200Y11403D03*
X-04200Y11797D03*
X-05500Y22197D03*
X-05500Y21803D03*
X-06600Y21803D03*
X-06600Y22197D03*
G54D13*
X-29805Y20900D03*
X-30395Y20900D03*
X-03105Y09300D03*
X-03695Y09300D03*
G54D42*
X-27619Y28100D03*
X-29981Y28100D03*
X-27619Y25800D03*
X-29981Y25800D03*
G54D43*
X-08600Y21381D03*
X-08600Y19019D03*
X-03100Y21481D03*
X-03100Y19119D03*
G54D44*
X-28110Y21308D03*
X-28110Y21504D03*
X-28110Y21700D03*
X-28110Y21896D03*
X-28110Y22092D03*
X-29489Y22092D03*
X-29489Y21896D03*
X-29489Y21700D03*
X-29489Y21504D03*
X-29489Y21308D03*
G54D21*
X-03792Y10410D03*
X-03596Y10410D03*
X-03400Y10410D03*
X-03204Y10410D03*
X-03008Y10410D03*
X-03008Y11789D03*
X-03204Y11789D03*
X-03400Y11789D03*
X-03596Y11789D03*
X-03792Y11789D03*
G54D45*
X-30163Y24350D03*
X-30163Y23850D03*
X-30163Y23350D03*
X-30163Y22850D03*
X-28037Y22850D03*
X-28037Y23350D03*
X-28037Y23850D03*
X-28037Y24350D03*
X-07063Y21150D03*
X-07063Y20650D03*
X-07063Y20150D03*
X-07063Y19650D03*
X-04937Y19650D03*
X-04937Y20150D03*
X-04937Y20650D03*
X-04937Y21150D03*
G54D43*
X-34900Y25219D03*
X-34900Y27581D03*
G54D42*
X10596Y24793D03*
X08234Y24793D03*
G54D12*
X-28603Y19700D03*
X-28997Y19700D03*
G54D11*
X-05800Y11797D03*
X-05800Y11403D03*
G54D25*
X25926Y13256D03*
X25926Y13000D03*
X25926Y12744D03*
X26674Y12744D03*
X26674Y13256D03*
X28426Y12556D03*
X28426Y12300D03*
X28426Y12044D03*
X29174Y12044D03*
X29174Y12556D03*
G54D46*
X19254Y16025D03*
X19254Y15375D03*
X19746Y15375D03*
X19746Y16025D03*
G54D25*
X24174Y22244D03*
X24174Y22500D03*
X24174Y22756D03*
X23426Y22756D03*
X23426Y22244D03*
X06126Y01356D03*
X06126Y01100D03*
X06126Y00844D03*
X06874Y00844D03*
X06874Y01356D03*
G54D47*
X-28856Y20126D03*
X-28600Y20126D03*
X-28344Y20126D03*
X-28344Y20874D03*
X-28856Y20874D03*
G54D46*
X-29446Y16825D03*
X-29446Y16175D03*
X-28954Y16175D03*
X-28954Y16825D03*
G54D45*
X-28063Y10550D03*
X-28063Y10050D03*
X-28063Y09550D03*
X-28063Y09050D03*
X-25937Y09050D03*
X-25937Y09550D03*
X-25937Y10050D03*
X-25937Y10550D03*
G54D47*
X-31944Y15674D03*
X-32200Y15674D03*
X-32456Y15674D03*
X-32456Y14926D03*
X-31944Y14926D03*
X-30456Y14126D03*
X-30200Y14126D03*
X-29944Y14126D03*
X-29944Y14874D03*
X-30456Y14874D03*
G54D25*
X-05374Y11856D03*
X-05374Y11600D03*
X-05374Y11344D03*
X-04626Y11344D03*
X-04626Y11856D03*
G54D46*
X-02954Y16775D03*
X-02954Y17425D03*
X-03446Y17425D03*
X-03446Y16775D03*
G54D45*
X05437Y11150D03*
X05437Y10650D03*
X05437Y10150D03*
X05437Y09650D03*
X07563Y09650D03*
X07563Y10150D03*
X07563Y10650D03*
X07563Y11150D03*
G54D48*
X-03525Y13954D03*
X-02875Y13954D03*
X-02875Y14446D03*
X-03525Y14446D03*
G54D49*
X-20500Y28800D03*
X-40800Y28800D03*
X-40800Y-00800D03*
X-22800Y-00800D03*
X-16400Y30400D03*
X16400Y30400D03*
X16400Y-03200D03*
X-16400Y-03200D03*
G54D12*
X-21297Y21200D03*
X-20903Y21200D03*
G54D50*
X-20400Y20013D03*
X-20774Y19187D03*
X-20026Y19187D03*
X-23400Y20013D03*
X-23774Y19187D03*
X-23026Y19187D03*
X-21900Y20013D03*
X-22274Y19187D03*
X-21526Y19187D03*
M02*
