M48
;DRILL file {PCBnew (2010-03-14)-final} date Thu 07 Oct 2010 02:35:04 PM EDT
;FORMAT={2:4/ absolute / inch / keep zeros}
R,T
VER,1
FMAT,2
INCH,TZ
TCST,OFF
ICI,OFF
ATC,ON
T1C0.006
T2C0.010
T3C0.035
T4C0.039
T5C0.047
T6C0.063
T7C0.067
T8C0.091
T9C0.112
T10C0.126
%
M47
G05
M72
T1
X-029682Y013602
X-029679Y014009
X-029676Y014402
X-029367Y015879
X-029205Y012803
X-028923Y017065
X-028908Y015876
X-028847Y012750
X-028687Y013990
X-028680Y014380
X-028670Y013634
X-028580Y013045
X-028439Y012295
X-028410Y017303
X-028200Y011687
X-028161Y018359
X-028099Y014794
X-028091Y013213
X-028088Y013852
X-028088Y013523
X-028081Y016044
X-028071Y012873
X-027838Y012558
X-027781Y015415
X-027776Y015105
X-027771Y016049
X-027766Y013226
X-027763Y013531
X-027477Y011033
X-027464Y016362
X-027464Y013527
X-027462Y016049
X-027462Y014476
X-027457Y014151
X-027452Y015091
X-027450Y015421
X-027128Y014628
X-027102Y007919
X-026993Y012848
X-026991Y014180
X-026973Y016015
X-026844Y007919
X-026831Y013522
X-026827Y016350
X-026819Y013209
X-026674Y012856
X-026582Y007923
X-026578Y012009
X-026537Y011231
X-026518Y016364
X-026513Y014161
X-026328Y007923
X-026198Y014161
X-026193Y016369
X-026151Y012026
X-026081Y008177
X-025908Y014166
X-025889Y013210
X-025812Y007928
X-025738Y012013
X-025732Y016004
X-025571Y016367
X-025564Y014161
X-025564Y013846
X-025557Y007925
X-025553Y012864
X-025311Y007939
X-025280Y015572
X-025261Y018785
X-025259Y016054
X-025256Y016352
X-025256Y014148
X-025256Y012854
X-025096Y011409
X-025014Y017956
X-024987Y010148
X-024983Y010437
X-024954Y014795
X-024944Y015110
X-024940Y016351
X-024935Y016049
X-024935Y014465
X-024930Y014147
X-024765Y012832
X-024747Y017794
X-024745Y010997
X-024745Y010734
X-024412Y011856
X-024320Y013856
X-024004Y017290
X-023932Y013051
X-023882Y017772
X-023844Y010694
X-023807Y009669
X-023636Y010631
X-023565Y009262
X-023484Y010003
X-023252Y010740
X-023047Y010417
X-023047Y010188
X-022993Y010867
X-008002Y015304
X-007215Y013890
X-007212Y015620
X-007206Y014205
X-007124Y014480
X-007106Y014731
X-007016Y013418
X-006902Y015594
X-006868Y016079
X-006624Y-000385
X-006609Y000109
X-006603Y013398
X-006484Y016085
X-006256Y014718
X-006195Y013398
X-006113Y016085
X-006001Y013532
X-005913Y014340
X-005896Y015049
X-005827Y016081
X-005800Y013401
X-005601Y015860
X-005541Y014712
X-005405Y013401
X-005299Y016105
X-004716Y014401
X-004619Y014799
X-004611Y013884
X-004246Y013783
X-004100Y013994
X-003521Y014701
X-003175Y014200
X-002610Y013942
X-002553Y014414
X-002213Y014993
X-002201Y015306
X-002200Y014670
X-002196Y012142
X-002178Y016242
X-002138Y011074
X-001848Y013568
X-001844Y017039
X-001842Y017345
X-001835Y012310
X-001517Y016563
X-001500Y016248
X-001491Y015622
X-001491Y015306
X-001491Y014037
X-001483Y013108
X-001475Y015866
X-001045Y016668
X-000261Y017021
X-000107Y016678
X000057Y011695
X000063Y011366
X001000Y017377
X001001Y011364
X001156Y010948
X001157Y016692
X002271Y017040
X002417Y010979
X002561Y011358
X002571Y016737
X002734Y011707
X002883Y017042
X002885Y016721
X003047Y011720
X003199Y016726
X003202Y017029
X003361Y011715
X003479Y013727
X003483Y014043
X003503Y016723
X003513Y017052
X003827Y012623
X003828Y011685
X003829Y015136
X003834Y017355
X003837Y017025
X004158Y011105
X004170Y017364
X004179Y015323
X004189Y014046
X004193Y013727
X004205Y011838
X004214Y016877
X005061Y015553
X005145Y015766
X005151Y015133
X005152Y014500
X005481Y014669
X005494Y013393
X005505Y015586
X005511Y015902
X005797Y014675
X005812Y014351
X005814Y015603
X006151Y013241
X006154Y014509
X006155Y013556
X006157Y014820
X006159Y013871
X006175Y014193
X007026Y014500
X007031Y014827
X007033Y013555
X007041Y013229
X007046Y014185
X007054Y013867
X007085Y012162
X007172Y012632
X007358Y012189
X007384Y014641
X007391Y014970
X007704Y014961
X007705Y013068
X007858Y015954
X008049Y015132
X008934Y021280
X009506Y021266
X016868Y013328
X016883Y013577
X016893Y013843
X017325Y015324
X019285Y015115
X019721Y016293
X019796Y013155
X019996Y012264
X020314Y012869
X020326Y012510
X020447Y012304
X020652Y016499
X020663Y015854
X020669Y015228
X020673Y015535
X020849Y026438
X020967Y015543
X020968Y013330
X020969Y012704
X020973Y013645
X020981Y014928
X020985Y015237
X021036Y022951
X021126Y024698
X021282Y015864
X021282Y014297
X021285Y013029
X021286Y015551
X021287Y012720
X021290Y013643
X021292Y013961
X021296Y014926
X021305Y006728
X021394Y026703
X021397Y027097
X021442Y012358
X021444Y016819
X021502Y025628
X021506Y023755
X021600Y014599
X021606Y013031
X021673Y014048
X021691Y012352
X021704Y024268
X021707Y006732
X021756Y013682
X021760Y015524
X021820Y027140
X021904Y015861
X021920Y013330
X021920Y012389
X022050Y014522
X022053Y015056
X022076Y013677
X022088Y024349
X022098Y026411
X022229Y016500
X022229Y015857
X022241Y013027
X022312Y013953
X022318Y014690
X022388Y012341
X022403Y026186
X022533Y013349
X022534Y013028
X022557Y015870
X022789Y022565
X022808Y024900
X022818Y025612
X022820Y024513
X022820Y024028
X022822Y024300
X022856Y013639
X022862Y025299
X022864Y013327
X022870Y015852
X022886Y015336
X022896Y014787
X023032Y015527
X023043Y012241
X023055Y027238
X023252Y022574
X023402Y012130
X023450Y014761
X023467Y015071
X023475Y023903
X023485Y025638
X023488Y013349
X023492Y015543
X023521Y013635
X023643Y023380
X023649Y026232
X023791Y013977
X023807Y014597
X023810Y015541
X023812Y013653
X023820Y015864
X024038Y017208
X024047Y011904
X024112Y012382
X024113Y012716
X024114Y016494
X024118Y013034
X024431Y012715
X024442Y014901
X024442Y013339
X024731Y012408
X024824Y014585
X024949Y016675
X024949Y015529
X024955Y026914
X025077Y022696
X025178Y016099
X025234Y014339
X025256Y013993
X025269Y015613
X025437Y016160
X025532Y012443
X025532Y011966
X025609Y014634
X025715Y014265
X025717Y012773
X025865Y016657
X025998Y015959
X026088Y022686
X026091Y016566
X026094Y012106
X026156Y026172
X026157Y015127
X026163Y026668
X026163Y026413
X026165Y025931
X026165Y025679
X026165Y025419
X026165Y025178
X026165Y024929
X026165Y024682
X026165Y023679
X026165Y023180
X026168Y024430
X026168Y024172
X026168Y023926
X026168Y023430
X026168Y022934
X026168Y016325
X026171Y026936
X026205Y013689
X026234Y013928
X026255Y013061
X026320Y013514
X026394Y016746
X026591Y013687
X026651Y013580
X026651Y013010
X026666Y015902
X026683Y017021
X026699Y016648
X026752Y014630
X026891Y013663
X026934Y012016
X027047Y014435
X027071Y015200
X027354Y012397
X027361Y013489
X027496Y016930
X027643Y015399
X027686Y015775
X027710Y014355
X028107Y012803
X028157Y012315
X028177Y014510
X028182Y014720
X028219Y015491
X028228Y015213
X028272Y014091
X028301Y016897
X028795Y015675
X028795Y014019
X028845Y016464
X028896Y012803
X029128Y012326
X029378Y012494
X029790Y012056
X029884Y012673
X029895Y016942
X030401Y012678
X030418Y016931
X030935Y012684
X030941Y016937
X030947Y016676
X030947Y016430
X030947Y016184
X030947Y015930
X030947Y015672
X030947Y015425
X030947Y015175
X030947Y014941
X030947Y014687
X030947Y014425
X030947Y014179
X030947Y013925
X030947Y013679
X030947Y013425
X030947Y013170
X030947Y012916
T2
X-037030Y020290
X-037030Y017590
X-037030Y014890
X-037030Y012190
X-037030Y009490
X-037030Y006790
X-037030Y004090
X-037030Y001390
X-036822Y019727
X-036822Y017027
X-036822Y014327
X-036822Y011627
X-036822Y008927
X-036822Y006227
X-036822Y003527
X-036822Y000827
X-035807Y021589
X-035807Y018889
X-035807Y016189
X-035807Y013489
X-035807Y010789
X-035807Y008089
X-035807Y005389
X-035807Y002689
X-035719Y025237
X-035699Y020487
X-035699Y017787
X-035699Y015087
X-035699Y012387
X-035699Y009687
X-035699Y006987
X-035699Y004287
X-035699Y001587
X-035343Y016145
X-035315Y021544
X-035315Y018844
X-035315Y013444
X-035315Y010744
X-035315Y008044
X-035315Y005344
X-035315Y002644
X-034894Y024505
X-034398Y013546
X-034393Y008138
X-034389Y018940
X-034378Y002743
X-034257Y019761
X-034257Y017061
X-034257Y014361
X-034257Y011661
X-034257Y008961
X-034257Y006261
X-034257Y003561
X-034257Y000861
X-034052Y025220
X-033447Y027627
X-033206Y013406
X-033142Y028200
X-032964Y026364
X-032956Y026675
X-032927Y012507
X-032885Y013804
X-032825Y017310
X-032818Y019496
X-032681Y007107
X-032631Y018671
X-032518Y027600
X-032516Y010953
X-032354Y023664
X-032354Y023221
X-032348Y010374
X-032345Y025488
X-032308Y020308
X-032308Y017304
X-032306Y018001
X-032303Y028212
X-032302Y013294
X-032302Y007686
X-032302Y006111
X-032298Y008402
X-032294Y019549
X-032294Y005433
X-032287Y016329
X-032056Y025577
X-032023Y006700
X-031997Y018904
X-031927Y-001922
X-031805Y009795
X-031789Y006220
X-031787Y008409
X-031746Y026679
X-031746Y026364
X-031603Y013025
X-031493Y015506
X-031373Y010160
X-031295Y016003
X-031254Y027452
X-030987Y016686
X-030895Y014252
X-030772Y015578
X-030697Y018551
X-030693Y012799
X-030612Y011717
X-030603Y022853
X-030555Y013922
X-030549Y007877
X-030494Y012442
X-030403Y019097
X-030397Y010863
X-030379Y021236
X-030335Y010368
X-030275Y006992
X-030204Y013911
X-030180Y011200
X-030053Y020515
X-030043Y013061
X-029492Y012193
X-029418Y018334
X-029300Y020282
X-029198Y019706
X-029102Y018212
X-028989Y011271
X-028774Y018092
X-028636Y009715
X-028603Y019905
X-028585Y005568
X-028511Y022093
X-028252Y007019
X-028229Y019159
X-028225Y005527
X-028143Y008797
X-027702Y021909
X-027630Y024316
X-027573Y008441
X-027402Y023678
X-027356Y006964
X-027243Y020994
X-027208Y018520
X-026543Y020237
X-026397Y015328
X-026397Y014810
X-026087Y014776
X-025903Y010930
X-025511Y014786
X-025362Y005461
X-025004Y008476
X-024996Y009097
X-024996Y007830
X-024989Y005471
X-024688Y007367
X-024504Y007124
X-024395Y001200
X-024159Y006626
X-024089Y018328
X-023773Y019486
X-023411Y018715
X-023308Y011908
X-023105Y009167
X-023027Y019510
X-022897Y011894
X-022565Y013204
X-022499Y011918
X-022405Y009438
X-022402Y010309
X-022272Y019495
X-021517Y019515
X-021318Y020755
X-020032Y018838
X-012784Y028419
X-011221Y-000385
X-011184Y000284
X-008348Y-000550
X-008044Y013809
X-008028Y015710
X-007986Y016884
X-007965Y013307
X-007809Y010845
X-007800Y003178
X-007550Y000742
X-007549Y001089
X-007409Y011270
X-007266Y012751
X-007165Y016094
X-007124Y016697
X-007063Y019411
X-007023Y018591
X-006682Y018298
X-006608Y012205
X-006415Y012699
X-006316Y012018
X-006270Y018284
X-006031Y021803
X-005806Y011999
X-005799Y011209
X-005391Y012619
X-005287Y017800
X-005078Y018605
X-004985Y016707
X-004916Y021387
X-004306Y021604
X-004271Y017797
X-004217Y003188
X-004203Y008035
X-004197Y010839
X-003938Y018091
X-003896Y010963
X-003756Y012260
X-003652Y015856
X-003570Y009575
X-003562Y010958
X-003417Y016497
X-003099Y009575
X-002988Y017692
X-002757Y009633
X-001351Y003843
X-001119Y002137
X-000795Y007187
X-000619Y020503
X-000452Y007214
X-000347Y004752
X-000311Y013565
X-000309Y014207
X-000272Y014870
X-000212Y009078
X000047Y013250
X000052Y015469
X000083Y008849
X000151Y005130
X000208Y020148
X000304Y009064
X000371Y013881
X000376Y014525
X000382Y012348
X000571Y019842
X000681Y015488
X000681Y014205
X000681Y013245
X000691Y014835
X000806Y008627
X000961Y016341
X000991Y013886
X001005Y014505
X001014Y009782
X001044Y012362
X001091Y010181
X001301Y014830
X001305Y015483
X001306Y013250
X001310Y014191
X001429Y009938
X001630Y013886
X001635Y014525
X001651Y003857
X001680Y001698
X001888Y009780
X001935Y013254
X001940Y015498
X002018Y007589
X002120Y001693
X002269Y014810
X002284Y013874
X002312Y009578
X002593Y008647
X002605Y007202
X002611Y018300
X002662Y004263
X002996Y007415
X003057Y006725
X003065Y009071
X003178Y001711
X003580Y009064
X003646Y003885
X003652Y001688
X003838Y007474
X003897Y020136
X004096Y009566
X004379Y009960
X004650Y004720
X004864Y007211
X005049Y010158
X005053Y009662
X005128Y008626
X005822Y010650
X005876Y000860
X006328Y006737
X006400Y004263
X006795Y000645
X006917Y002148
X007554Y010919
X007792Y008805
X007819Y021839
X007879Y007433
X007907Y011506
X007954Y023281
X008026Y010255
X008241Y009433
X008520Y016201
X008614Y022330
X008614Y022035
X008844Y014570
X008847Y014173
X008852Y015055
X008853Y015466
X009027Y023293
X009210Y019472
X009221Y021146
X009498Y015797
X009814Y014600
X009829Y022330
X009838Y022040
X009877Y023299
X010158Y023885
X010610Y025776
X010617Y022938
X010708Y014368
X013192Y006450
X013198Y007687
X013204Y005445
X014122Y011808
X014543Y015103
X014557Y015458
X014558Y013336
X015098Y011173
X015700Y013632
X016055Y014350
X016467Y017672
X016992Y015163
X020100Y006251
X020189Y014558
X020405Y004334
X020851Y006062
X020860Y005544
X020865Y005805
X020970Y022315
X021247Y004694
X021500Y007185
X021504Y004213
X021506Y008529
X021507Y008870
X021751Y004704
X022095Y006072
X022095Y005549
X022105Y005796
X022374Y023522
X022399Y027257
X022458Y022614
X022593Y004329
X022752Y022203
X022758Y021901
X022791Y005855
X022853Y014350
X023527Y027112
X023797Y022291
X024288Y026544
X024860Y021912
X027510Y017296
T3
X-038900Y026950
X-038900Y024450
X-037900Y024450
X-036900Y026950
X-036900Y024450
X-016850Y028400
X-016850Y026400
X-014350Y028400
X-014350Y027400
X-014350Y026400
T4
X-041001Y013170
X-041001Y012170
X-041001Y011170
X-041001Y010170
X-041001Y009170
X-041001Y008170
X-041001Y007170
X-041001Y006170
X-040400Y025700
X-040400Y024700
X-040001Y013170
X-040001Y012170
X-040001Y011170
X-040001Y010170
X-040001Y009170
X-040001Y008170
X-040001Y007170
X-040001Y006170
X-038900Y023400
X-038401Y021370
X-038401Y020270
X-038401Y018670
X-038401Y017570
X-038401Y015970
X-038401Y014870
X-038401Y013270
X-038401Y012170
X-038401Y010570
X-038401Y009470
X-038401Y007870
X-038401Y006770
X-038401Y005170
X-038401Y004070
X-038401Y002470
X-038401Y001370
X-037900Y023400
X-035300Y023200
X-034300Y023200
X-031401Y003570
X-031401Y000070
X-031400Y022500
X-031400Y021500
X-030401Y003570
X-030401Y000070
X-029401Y003570
X-029401Y000070
X-028401Y003570
X-028401Y000070
X-027401Y003570
X-027401Y000070
X-026401Y003570
X-026401Y000070
X-026400Y021800
X-025401Y003570
X-025401Y000070
X-025400Y021800
X-024401Y003570
X-024401Y000070
X-024400Y021800
X-023400Y021800
X-023400Y020800
X-022400Y021800
X-022000Y018500
X-022000Y017500
X-022000Y016500
X-022000Y015500
X-022000Y014500
X-022000Y013500
X-022000Y012500
X-021900Y020800
X-021400Y021800
X-021000Y018500
X-021000Y017500
X-021000Y016500
X-021000Y015500
X-021000Y014500
X-021000Y013500
X-021000Y012500
X-020400Y021800
X-020400Y020800
X-014649Y017109
X-014649Y016109
X-014649Y012889
X-014649Y011889
X-012193Y022963
X-012193Y021979
X-011406Y022963
X-011406Y021979
X-010551Y016249
X-010551Y015249
X-010551Y014249
X-010551Y013249
X-010000Y010500
X-010000Y009500
X-010000Y008500
X-010000Y007500
X-010000Y006500
X-010000Y005500
X-010000Y004500
X-010000Y003500
X-009551Y015749
X-009551Y014749
X-009551Y013749
X-009551Y012749
X-006400Y010500
X-006400Y009500
X-006400Y008500
X-006400Y007500
X-006400Y006500
X-006400Y005500
X-006400Y004500
X-006400Y003500
X-004300Y012700
X-003400Y012700
X-001300Y-000500
X-001100Y021600
X-000300Y-000500
X-000100Y021600
X000700Y-000500
X000900Y021600
X001400Y005300
X001700Y-000500
X001900Y021600
X002400Y005300
X002700Y-000500
X002900Y021600
X003200Y018500
X003400Y005300
X003700Y-000500
X003900Y021600
X004400Y005300
X004700Y-000500
X004900Y021600
X005400Y005300
X005700Y-000500
X005900Y021600
X006400Y005300
X007100Y018200
X007400Y005300
X008100Y018200
X008400Y026500
X008400Y005700
X008400Y004700
X008400Y001700
X008400Y000700
X008400Y-000300
X009200Y013400
X009200Y012400
X009200Y011400
X009200Y010400
X009200Y009400
X009200Y008400
X009200Y007400
X009300Y018200
X009400Y026500
X010200Y013400
X010200Y012400
X010200Y011400
X010200Y010400
X010200Y009400
X010200Y008400
X010200Y007400
X010300Y018200
X011400Y005700
X011400Y-000300
X012300Y013500
X012300Y012500
X012300Y011500
X012300Y010500
X012300Y009500
X012300Y008500
X012300Y007500
X012800Y017700
X012800Y016800
X012800Y015900
X012800Y015000
X014500Y010600
X014500Y009600
X014500Y008600
X014500Y007600
X014500Y006600
X014500Y005600
X014500Y004600
X015500Y010600
X015500Y009600
X015500Y008600
X015500Y007600
X015500Y006600
X015500Y005600
X015500Y004600
X019525Y026450
X019525Y025450
X019525Y024450
X019525Y023450
X020275Y025950
X020275Y024950
X020275Y023950
X020275Y022950
X023600Y009200
X023600Y008300
X023600Y007300
X023600Y006400
X023600Y005500
X023600Y004500
X027200Y018000
X028100Y018000
X029000Y018000
X029900Y018000
T5
X-013859Y005947
X-013859Y004857
X-013859Y003766
X-013859Y002676
X-012741Y006493
X-012741Y005402
X-012741Y004312
X-012741Y003221
X-012741Y002130
T6
X-025993Y027355
X-025993Y023851
X-024359Y027749
X-023572Y026804
X-023572Y024639
X-022607Y023851
X-007793Y027355
X-007793Y023851
X-006159Y027749
X-005372Y026804
X-005372Y024639
X-004407Y023851
T7
X-011850Y017552
X-011850Y011448
T8
X-013260Y024841
X-013260Y019959
T9
X-040800Y028800
X-040800Y-000800
X-022800Y-000800
X-020500Y028800
X-016400Y030400
X-016400Y-003200
X016400Y030400
X016400Y-003200
T10
X-013300Y009219
X-013300Y-000620
X-013051Y016749
X-013051Y012249
T0
M30
