M48
;DRILL file {PCBnew (20090216-final)} date Tue 02 Mar 2010 01:10:40 PM EST
;FORMAT={2:4/ absolute / inch / keep zeros}
R,T
VER,1
FMAT,2
INCH,TZ
TCST,OFF
ICI,OFF
ATC,ON
T1C0.006
T2C0.010
T3C0.020
T4C0.032
T5C0.032
T6C0.039
T7C0.047
T8C0.051
T9C0.071
T10C0.073
T11C0.091
T12C0.106
T13C0.112
T14C0.126
%
M47
G05
M72
T1
X-034109Y043177
X-034105Y042431
X-034103Y042927
X-034099Y042675
X-034097Y042175
X-034096Y041932
X-034091Y041679
X-034087Y041425
X-034079Y040926
X-034077Y041175
X-034072Y040675
X-034069Y040175
X-034065Y040425
X-034058Y039424
X-034050Y039925
X-034050Y039675
X-033754Y043653
X-033750Y038954
X-032447Y045971
X-032447Y044831
X-032447Y043691
X-032447Y043121
X-032447Y042551
X-032447Y041981
X-032447Y041411
X-032447Y040841
X-032447Y040271
X-032447Y039701
X-032447Y039131
X-032447Y038561
X-032447Y037991
X-032447Y037464
X-032440Y044238
X-032427Y045388
X-030425Y040854
X-030425Y040284
X-030423Y037435
X-030413Y038007
X-030410Y039714
X-030386Y045987
X-030352Y036885
X-030351Y045424
X-030351Y043702
X-030342Y044820
X-030339Y044275
X-030339Y043148
X-030319Y041456
X-030309Y042591
X-030309Y042021
X-030309Y039171
X-030309Y038599
X-030043Y040808
X-029502Y043548
X-029492Y040498
X-029492Y039909
X-028840Y042386
X-028463Y039002
X-028265Y045325
X-028253Y038987
X-028114Y039918
X-028107Y040497
X-028038Y041188
X-027803Y041274
X-027797Y040093
X-027760Y041049
X-027755Y045035
X-027749Y044698
X-027603Y037393
X-027594Y038359
X-027553Y041899
X-027540Y044610
X-027538Y041680
X-027515Y044334
X-027401Y045369
X-027371Y043431
X-027331Y037902
X-027326Y038497
X-027012Y044180
X-026731Y044266
X-026686Y039463
X-026684Y039782
X-026683Y042645
X-026677Y040722
X-026677Y038522
X-026470Y043578
X-026452Y044902
X-026426Y036906
X-026394Y043375
X-026364Y041052
X-026138Y045268
X-026087Y044691
X-026085Y044297
X-026067Y038529
X-026047Y038859
X-026044Y041045
X-026043Y040736
X-026036Y040109
X-026026Y039786
X-026026Y037803
X-026019Y039459
X-025989Y043803
X-025954Y037163
X-025935Y044499
X-025910Y042959
X-025793Y043882
X-025743Y037147
X-025734Y038525
X-025728Y041032
X-025724Y038212
X-025721Y039136
X-025617Y043766
X-025608Y042967
X-025602Y044785
X-025532Y037148
X-025409Y041040
X-025406Y038849
X-025400Y040680
X-025399Y040150
X-025355Y044779
X-025239Y043991
X-025199Y039608
X-025197Y037411
X-025195Y039993
X-025103Y045686
X-025103Y039155
X-025090Y044503
X-025090Y041032
X-025088Y038839
X-024986Y037419
X-024943Y037882
X-024914Y045896
X-024804Y040688
X-024797Y039987
X-024797Y039602
X-024790Y038830
X-024777Y038503
X-024620Y037630
X-024579Y040400
X-024576Y044693
X-024562Y037406
X-024471Y038513
X-024468Y041668
X-024467Y041045
X-024459Y039166
X-024446Y042955
X-024428Y042513
X-024317Y037804
X-024288Y037468
X-024196Y043202
X-024167Y041052
X-024167Y040094
X-024164Y041356
X-024163Y039154
X-024162Y039778
X-024160Y040739
X-024153Y039472
X-024148Y038838
X-023937Y045250
X-023848Y039775
X-023846Y039473
X-023843Y038849
X-023840Y040427
X-023840Y040103
X-023832Y041675
X-023830Y041043
X-023825Y040728
X-023684Y042428
X-023639Y043210
X-023629Y042988
X-023533Y038221
X-023525Y039467
X-023520Y041667
X-023520Y041361
X-023518Y040405
X-023518Y038515
X-023516Y040093
X-023510Y040733
X-023505Y037471
X-023320Y042743
X-023215Y040098
X-023211Y040721
X-023210Y038510
X-023028Y044077
X-023008Y043020
X-022903Y037902
X-022803Y042166
X-022788Y043887
X-022776Y038633
X-022757Y038951
X-022748Y041202
X-022747Y039692
X-022729Y039365
X-022608Y040280
X-022578Y039961
X-022490Y041833
X-022287Y038884
X-022142Y038214
X-021794Y039955
X-021384Y039950
T2
X-033996Y031865
X-033996Y024365
X-033996Y016865
X-033996Y009365
X-033394Y037207
X-033393Y031600
X-033393Y024100
X-033393Y016600
X-033393Y009100
X-033193Y045464
X-032907Y033400
X-032907Y025900
X-032907Y018400
X-032907Y010900
X-032646Y036921
X-032294Y024343
X-032250Y033120
X-032250Y025620
X-032250Y018120
X-032250Y010620
X-032246Y009344
X-032237Y016867
X-032231Y031904
X-030831Y031015
X-030831Y023515
X-030831Y016015
X-030831Y008515
X-030599Y031337
X-030599Y023837
X-030599Y016337
X-030599Y008837
X-030497Y033157
X-030497Y025657
X-030497Y018157
X-030497Y010657
X-030153Y045818
X-030099Y031362
X-030099Y023862
X-030099Y016362
X-030099Y008862
X-030097Y032650
X-030097Y025150
X-030097Y017650
X-030097Y010150
X-030069Y032200
X-030069Y024700
X-030069Y017200
X-030069Y009700
X-029942Y037696
X-029859Y037302
X-029698Y038134
X-029641Y045339
X-029564Y044058
X-029424Y045595
X-028979Y037494
X-028977Y037996
X-028956Y038644
X-028866Y038357
X-028844Y044705
X-028822Y044092
X-028802Y042995
X-028758Y037271
X-028093Y037387
X-027895Y043794
X-027864Y042204
X-027855Y038356
X-027652Y042973
X-023695Y045878
X-023608Y045506
X-020592Y008509
X-020501Y023366
X-020500Y030925
X-020486Y015944
X-020147Y033163
X-020117Y032427
X-019437Y025682
X-019437Y018173
X-019427Y010667
X-019427Y009931
X-019426Y017432
X-019420Y024923
X-018624Y024625
X-018299Y034301
X-017627Y024605
X-017462Y022192
X-017199Y039099
X-017172Y038675
X-017018Y040387
X-016998Y043315
X-016987Y042142
X-016980Y041356
X-016953Y038880
X-016722Y039076
X-016718Y042414
X-016678Y039716
X-016629Y024613
X-016551Y041808
X-016539Y038245
X-016519Y036454
X-016447Y042725
X-016427Y040958
X-016419Y038646
X-016362Y037309
X-016226Y038289
X-016207Y036352
X-016178Y022174
X-016135Y039663
X-016115Y037110
X-016090Y039024
X-016034Y038524
X-015876Y036357
X-015874Y037301
X-015871Y040731
X-015829Y041324
X-015816Y038301
X-015814Y034707
X-015809Y040437
X-015807Y038726
X-015743Y039339
X-015628Y024613
X-015443Y014108
X-015046Y042699
X-014970Y037823
X-014961Y038601
X-014937Y039954
X-014931Y039113
X-014917Y036017
X-014909Y033980
X-014856Y041484
X-014849Y041957
X-014840Y038320
X-014656Y043704
X-014634Y042167
X-014632Y038797
X-014533Y041606
X-014481Y037340
X-014304Y038358
X-014292Y042827
X-014267Y037614
X-014212Y035396
X-014088Y040958
X-014029Y037430
X-013984Y042764
X-013983Y040196
X-013929Y025376
X-013836Y043089
X-013656Y036286
X-013497Y041216
X-013380Y036905
X-013319Y043727
X-012789Y042604
X-012783Y042997
X-012572Y034991
X-012157Y042153
X-011142Y032696
X-010669Y032685
X-009794Y035078
X-009266Y042837
X-009200Y042355
X-009159Y038926
X-009124Y038138
X-009118Y039981
X-009114Y038588
X-009061Y041827
X-009029Y042611
X-008994Y039659
X-008978Y042151
X-008946Y039197
X-008868Y040362
X-008835Y045746
X-008537Y037684
X-008475Y034652
X-008472Y043695
X-008439Y044036
X-008115Y040776
X-008049Y038428
X-008012Y041367
X-007970Y041730
X-007946Y042370
X-007787Y041123
X-007523Y038343
X-007294Y034652
X-006611Y039906
X-006593Y040225
X-006588Y043156
X-006588Y042831
X-006298Y035360
X-005758Y020902
X-005754Y019904
X-005747Y021897
X-005703Y045463
X-005702Y043467
X-005002Y020705
X-005002Y019923
X-004914Y022150
X-004908Y019301
X-004225Y021899
X-003704Y029901
X-003488Y029515
X-003128Y029224
X-003050Y028825
X-002809Y029036
X-002529Y029398
X-002254Y029735
X-001877Y030075
X-001871Y047900
X-001525Y041209
X-001300Y041858
X-000650Y043158
X-000494Y042128
X-000291Y040004
X-000291Y039503
X-000264Y042597
X000086Y041905
X000416Y041753
X001221Y043319
X001510Y040699
X001812Y043430
X002303Y040704
X002691Y042800
X002781Y043965
X003141Y042293
X003253Y042695
X003257Y043716
X003548Y021343
X003548Y020329
X003580Y043313
X004109Y042045
X004474Y043241
X004830Y042306
X005545Y022238
T3
X-019298Y028707
X-019288Y027933
X-019284Y027933
X-019124Y029626
X-018506Y032623
X-018078Y026471
X-017812Y032489
X-017581Y028422
X-015068Y028445
X-014664Y029597
X-014639Y033206
X-014484Y024505
X-014479Y023311
X-013703Y022373
X-013618Y024805
X-013580Y039198
X-013557Y035866
X-013531Y033949
X-013426Y026209
X-011132Y029058
X-010273Y027950
X-009907Y025846
X-009496Y024701
X-009447Y027014
X-008298Y024715
X-007995Y025931
X-007597Y024701
X-006703Y024274
X-006264Y027000
X-001179Y025439
X-001179Y025439
X-001171Y022348
X-000226Y025439
X-000167Y037006
X-000028Y034603
X000403Y031028
X000595Y036071
X000702Y033478
X000840Y044475
X000900Y031028
X000995Y037500
X001467Y034603
X002395Y037503
X002403Y021925
X002984Y022821
X003586Y044598
X006634Y037955
X007037Y050312
X007037Y039312
X007037Y028312
X007037Y017312
X007576Y050165
X007576Y039165
X007576Y028165
X007576Y017165
X019244Y015130
X019257Y045372
X019257Y034372
X019257Y023372
X019257Y012372
X019262Y037130
X019262Y026130
X019271Y048131
X019274Y049237
X019285Y038236
X019285Y027230
X019287Y016236
X020962Y044230
X020962Y033230
X020962Y022230
X020962Y011230
X020996Y045199
X020996Y034199
X020996Y023199
X020996Y012199
X022216Y050367
X022216Y039367
X022216Y028367
X022216Y017367
X023976Y051328
X023976Y040328
X023976Y029328
X023976Y018328
X024644Y037574
X024703Y015552
X024727Y026551
X024739Y048562
X025150Y045947
X025150Y034947
X025150Y023947
X025150Y012947
X025977Y051296
X025977Y040296
X025977Y029296
X025977Y018296
X026650Y045745
X026650Y034745
X026650Y023745
X026650Y012745
X027050Y045261
X027050Y034261
X027050Y023261
X027050Y012261
X027544Y044209
X027544Y033209
X027544Y022209
X027544Y011209
X027550Y043149
X027550Y032149
X027550Y021149
X027550Y010149
X028056Y042088
X028056Y031088
X028056Y020088
X028056Y009088
X028342Y045956
X028342Y034956
X028342Y023956
X028342Y012956
X028550Y043136
X028550Y032136
X028550Y021136
X028550Y010136
X029009Y045063
X029009Y034063
X029009Y023063
X029009Y012063
X029400Y043056
X029400Y032056
X029400Y021056
X029400Y010056
X029768Y042150
X029768Y031150
X029768Y020150
X029768Y009150
X029984Y049828
X029984Y027749
X029991Y051066
X030003Y029143
X030004Y038788
X030005Y016840
X030009Y018082
X030033Y040110
X030428Y046103
X030428Y035103
X030428Y024103
X030428Y013103
X030856Y042521
X030856Y031521
X030856Y020521
X030856Y009521
X031222Y043470
X031222Y032470
X031222Y021470
X031222Y010470
X032495Y043820
X032495Y032820
X032495Y021820
X032495Y010820
X033086Y048795
X033086Y037795
X033086Y026795
X033086Y015795
X033586Y044875
X033586Y033875
X033586Y022875
X033586Y011875
X033653Y042100
X033653Y031100
X033653Y020100
X033653Y009100
X033900Y045833
X033900Y034833
X033900Y023833
X033900Y012833
X033978Y043778
X033978Y032778
X033978Y021778
X033978Y010778
X034374Y042311
X034392Y031306
X034392Y020306
X034392Y009306
X034794Y032524
X034804Y021486
X034812Y043485
X034821Y010510
X036277Y045652
X036277Y034652
X036277Y023652
X036277Y012652
X036316Y043908
X036316Y032908
X036316Y021908
X036316Y010908
X036484Y042388
X036484Y031388
X036484Y020388
X036484Y009388
X036490Y043177
X036490Y032177
X036490Y021177
X036490Y010177
X036999Y045781
X036999Y034781
X036999Y023781
X036999Y012781
X037134Y045127
X037134Y034127
X037134Y023127
X037134Y012127
X037742Y050404
X037742Y039404
X037742Y028404
X037742Y017404
X037799Y045640
X037799Y034640
X037799Y023640
X037799Y012640
X038650Y044100
X038650Y033100
X038650Y022100
X038650Y011100
X038713Y050095
X038713Y039095
X038713Y028095
X038713Y017095
X038737Y043103
X038737Y032103
X038737Y021103
X038737Y010103
X039020Y047227
X039020Y036227
X039020Y025227
X039020Y014227
X039271Y046148
X039271Y035148
X039271Y024148
X039271Y013148
X039588Y043110
X039588Y032110
X039588Y021110
X039588Y010110
X039614Y022610
X039628Y011589
X039641Y044609
X039665Y033613
X039898Y042576
X039898Y031576
X039898Y020576
X039898Y009576
X040342Y046122
X040342Y035122
X040342Y024122
X040342Y013122
X041164Y045825
X041164Y034825
X041164Y023825
X041164Y012825
X041201Y045139
X041201Y034139
X041201Y023139
X041201Y012139
X041306Y046332
X041306Y035332
X041306Y024332
X041306Y013332
X041429Y050021
X041429Y039021
X041429Y028021
X041429Y017021
X041632Y042458
X041632Y031458
X041632Y020458
X041632Y009458
X042181Y048899
X042181Y037899
X042181Y026899
X042181Y015899
X042295Y043783
X042295Y032783
X042295Y021783
X042295Y010783
X042312Y042436
X042312Y031436
X042312Y020436
X042312Y009436
X043014Y046695
X043014Y035695
X043014Y024695
X043014Y013695
X043665Y009802
X043666Y042812
X043685Y020809
X043691Y031806
X043798Y045688
X043798Y034688
X043798Y023688
X043798Y012688
X044199Y044024
X044199Y033024
X044199Y022024
X044199Y011024
X044978Y049667
X044978Y038667
X044978Y027667
X044978Y016667
X046351Y044981
X046351Y033981
X046351Y022981
X046351Y011981
X046926Y048676
X046926Y037676
X046926Y026676
X046926Y015676
X049682Y045512
X049686Y012495
X049697Y034505
X049701Y040052
X049726Y037572
X049748Y026593
X049752Y023514
X049773Y015631
X049777Y029045
X049790Y018062
X049793Y051049
X049807Y048778
X050003Y046030
X050003Y035030
X050003Y024030
X050073Y013037
X057801Y044391
X057801Y033391
X057801Y022391
X057801Y011391
X058402Y049980
X058402Y038980
X058402Y027980
X058402Y016980
X058410Y048821
X058410Y037821
X058410Y026821
X058410Y015821
X058740Y047777
X058740Y036777
X058740Y025777
X058740Y014777
X058757Y046636
X058757Y035636
X058757Y024636
X058757Y013636
X059903Y047197
X059903Y036197
X059903Y025197
X059903Y014197
X060017Y033799
X060017Y011808
X060038Y044798
X060052Y022807
T4
X-008900Y033399
X-008900Y029399
X-007900Y033399
X-007900Y029399
X-006900Y033399
X-006900Y029399
T5
X-008050Y007398
X-008050Y005898
X-007550Y006648
X-007550Y005148
X-007050Y007398
X-007050Y005898
X-006550Y006648
X-006550Y005148
X-006050Y007398
X-006050Y005898
X-005550Y006648
X-005550Y005148
X-005050Y007398
X-005050Y005898
X-004550Y006648
X-004550Y005148
X-004050Y007398
X-004050Y005898
X-003550Y006648
X-003550Y005148
X-003050Y007398
X-003050Y005898
X-002550Y006648
X-002550Y005148
X-002050Y007398
X-002050Y005898
X-001550Y006648
X-001550Y005148
X-001050Y007398
X-001050Y005898
X-000550Y006648
X-000550Y005148
X-000050Y007398
X-000050Y005898
X000450Y006648
X000450Y005148
X000950Y007398
X000950Y005898
X001450Y006648
X001450Y005148
X001950Y007398
X001950Y005898
X002450Y006648
X002450Y005148
X002950Y007398
X002950Y005898
X003450Y006648
X003450Y005148
X003950Y007398
X003950Y005898
X004450Y006648
X004450Y005148
X004950Y007398
X004950Y005898
X005450Y006648
X005450Y005148
X005950Y007398
X005950Y005898
X006450Y006648
X006450Y005148
X006950Y007398
X006950Y005898
X007450Y006648
X007450Y005148
X007950Y007398
X007950Y005898
X008450Y006648
X008450Y005148
T6
X-034901Y031701
X-034901Y024201
X-034901Y016701
X-034901Y009201
X-034900Y033201
X-034900Y025701
X-034900Y018201
X-034900Y010701
X-034000Y038200
X-033901Y031000
X-033901Y023500
X-033901Y016000
X-033901Y008500
X-033899Y033600
X-033899Y026100
X-033899Y018600
X-033899Y011100
X-033500Y044800
X-033200Y037700
X-029800Y033600
X-029800Y026100
X-029800Y018600
X-029800Y011100
X-028900Y045700
X-028400Y032800
X-028400Y031900
X-028400Y031000
X-028400Y025300
X-028400Y024400
X-028400Y023500
X-028400Y017800
X-028400Y016900
X-028400Y016000
X-028400Y010300
X-028400Y009400
X-028400Y008500
X-028399Y033700
X-028399Y026200
X-028399Y018700
X-028399Y011200
X-027700Y045701
X-022600Y043200
X-022228Y033829
X-022228Y032845
X-022228Y032058
X-022228Y031073
X-022228Y026329
X-022228Y025345
X-022228Y024558
X-022228Y023573
X-022228Y018829
X-022228Y017845
X-022228Y017058
X-022228Y016073
X-022228Y011329
X-022228Y010345
X-022228Y009558
X-022228Y008573
X-018628Y023993
X-018076Y007019
X-017629Y023992
X-017001Y045800
X-017001Y044800
X-016777Y007019
X-016701Y035300
X-016701Y034300
X-016628Y023993
X-016500Y028900
X-016400Y012500
X-016300Y047600
X-016001Y045800
X-016001Y044800
X-015628Y023991
X-015400Y012500
X-015300Y047600
X-015001Y045800
X-015001Y044800
X-014001Y045800
X-014001Y044800
X-013600Y028500
X-013001Y045800
X-013001Y044800
X-012600Y028500
X-012001Y045800
X-012001Y044800
X-011800Y026601
X-011800Y025601
X-011800Y024600
X-011800Y023601
X-011600Y028500
X-011400Y043599
X-011400Y042599
X-011400Y041599
X-011400Y040599
X-011400Y039599
X-011400Y038599
X-011400Y037599
X-011001Y045800
X-011001Y044800
X-010004Y037607
X-010004Y036607
X-010004Y035606
X-010003Y038607
X-009999Y039602
X-009995Y043597
X-009994Y042598
X-009994Y041598
X-009994Y040597
X-006600Y021100
X-006600Y020100
X-006600Y014701
X-006600Y013701
X-006600Y012701
X-006600Y011701
X-006600Y010701
X-006600Y009701
X-005600Y013701
X-005600Y012701
X-005600Y011701
X-005600Y010701
X-005600Y009701
X-005401Y018200
X-005401Y017200
X-005300Y022600
X-004600Y021300
X-004600Y020300
X-004400Y045900
X-004400Y044900
X-004400Y043900
X-004400Y042900
X-004400Y041900
X-004400Y040899
X-004400Y039900
X-004400Y038900
X-004372Y034499
X-004372Y033499
X-004372Y032502
X-004372Y031501
X-004372Y030501
X-004370Y037499
X-004370Y036498
X-004370Y035499
X-002001Y018700
X-002001Y017700
X-002001Y016700
X-002001Y015700
X-002001Y014700
X-002001Y013700
X-002001Y012700
X-002001Y011700
X-002001Y010700
X-002001Y009700
X-001100Y034701
X-001100Y033701
X-001100Y032500
X-001100Y031500
X-001100Y021200
X-001100Y020200
X-001001Y018700
X-001001Y017700
X-001001Y016700
X-001001Y015700
X-001001Y014700
X-001001Y013700
X-001001Y012700
X-001001Y011700
X-001001Y010700
X-001001Y009700
X-000900Y038700
X-000900Y037700
X000199Y038699
X000199Y037699
X001099Y021200
X001099Y020200
X001579Y046792
X001579Y046005
X002500Y034100
X002500Y033100
X002500Y032000
X002500Y031000
X002563Y046792
X002563Y046005
X003100Y018701
X003100Y017701
X003100Y016701
X003100Y015701
X003100Y014701
X003100Y013701
X003100Y012701
X003100Y011701
X003100Y010701
X003100Y009701
X003200Y036200
X003500Y034100
X004100Y022901
X004100Y018701
X004100Y017701
X004100Y016701
X004100Y015701
X004100Y014701
X004100Y013701
X004100Y012701
X004100Y011701
X004100Y010701
X004100Y009701
X004200Y036200
X005100Y022901
X005501Y032200
X005501Y031200
X006500Y016501
X006500Y015099
X009400Y049100
X009400Y048100
X009400Y045100
X009400Y044100
X009400Y043100
X009400Y038100
X009400Y037100
X009400Y034100
X009400Y033100
X009400Y032100
X009400Y027100
X009400Y026100
X009400Y023100
X009400Y022100
X009400Y021100
X009400Y016100
X009400Y015100
X009400Y012100
X009400Y011100
X009400Y010100
X012400Y049100
X012400Y043100
X012400Y038100
X012400Y032100
X012400Y027100
X012400Y021100
X012400Y016100
X012400Y010100
X014600Y049099
X014600Y048099
X014600Y045099
X014600Y044099
X014600Y043099
X014600Y038099
X014600Y037099
X014600Y034099
X014600Y033099
X014600Y032099
X014600Y027099
X014600Y026099
X014600Y023099
X014600Y022099
X014600Y021099
X014600Y016099
X014600Y015099
X014600Y012099
X014600Y011099
X014600Y010099
X017600Y049099
X017600Y043099
X017600Y038099
X017600Y032099
X017600Y027099
X017600Y021099
X017600Y016099
X017600Y010099
X017601Y042201
X017601Y031201
X017601Y020201
X017601Y009201
X018900Y042201
X018900Y031201
X018900Y020201
X018900Y009201
X020300Y042201
X020300Y031201
X020300Y020201
X020300Y009201
X021701Y042201
X021701Y031201
X021701Y020201
X021701Y009201
X023500Y050101
X023500Y039101
X023500Y028101
X023500Y017101
X024500Y050101
X024500Y039101
X024500Y028101
X024500Y017101
X024700Y044801
X024700Y043800
X024700Y033801
X024700Y032800
X024700Y022801
X024700Y021800
X024700Y011801
X024700Y010800
X025500Y050101
X025500Y039101
X025500Y028101
X025500Y017101
X026000Y044801
X026000Y033801
X026000Y022801
X026000Y011801
X026001Y043801
X026001Y042800
X026001Y032801
X026001Y031800
X026001Y021801
X026001Y020800
X026001Y010801
X026001Y009800
X026500Y050101
X026500Y039101
X026500Y028101
X026500Y017101
X027500Y050101
X027500Y039101
X027500Y028101
X027500Y017101
X028500Y050101
X028500Y039101
X028500Y028101
X028500Y017101
X030300Y044600
X030300Y033600
X030300Y022600
X030300Y011600
X031200Y049200
X031200Y038200
X031200Y027200
X031200Y016200
X036199Y046600
X036199Y035600
X036199Y024600
X036199Y013600
X039201Y048200
X039201Y037200
X039201Y026200
X039201Y015200
X039900Y050801
X039900Y039801
X039900Y028801
X039900Y017801
X041000Y048199
X041000Y037199
X041000Y026199
X041000Y015199
X043999Y046600
X043999Y035600
X043999Y024600
X043999Y013600
X046200Y044301
X046200Y043100
X046200Y033301
X046200Y032100
X046200Y022301
X046200Y021100
X046200Y011301
X046200Y010100
X047600Y043100
X047600Y032100
X047600Y021100
X047600Y010100
X048600Y043100
X048600Y032100
X048600Y021100
X048600Y010100
X048701Y049200
X048701Y038200
X048701Y027200
X048701Y016200
X051600Y050800
X051600Y049800
X051600Y048800
X051600Y047800
X051600Y046099
X051600Y045099
X051600Y044099
X051600Y043099
X051600Y039800
X051600Y038800
X051600Y037800
X051600Y036800
X051600Y035099
X051600Y034099
X051600Y033099
X051600Y032099
X051600Y028800
X051600Y027800
X051600Y026800
X051600Y025800
X051600Y024099
X051600Y023099
X051600Y022099
X051600Y021099
X051600Y017800
X051600Y016800
X051600Y015800
X051600Y014800
X051600Y013099
X051600Y012099
X051600Y011099
X051600Y010099
X055600Y050800
X055600Y049800
X055600Y048800
X055600Y047800
X055600Y046099
X055600Y045099
X055600Y044099
X055600Y043099
X055600Y039800
X055600Y038800
X055600Y037800
X055600Y036800
X055600Y035099
X055600Y034099
X055600Y033099
X055600Y032099
X055600Y028800
X055600Y027800
X055600Y026800
X055600Y025800
X055600Y024099
X055600Y023099
X055600Y022099
X055600Y021099
X055600Y017800
X055600Y016800
X055600Y015800
X055600Y014800
X055600Y013099
X055600Y012099
X055600Y011099
X055600Y010099
X055900Y007600
X056900Y048101
X056900Y046301
X056900Y037101
X056900Y035301
X056900Y026101
X056900Y024301
X056900Y015101
X056900Y013301
X057000Y007600
X058100Y007600
X059200Y007600
X061199Y047200
X061199Y046200
X061199Y044700
X061199Y043700
X061199Y036200
X061199Y035200
X061199Y033700
X061199Y032700
X061199Y025200
X061199Y024200
X061199Y022700
X061199Y021700
X061199Y014200
X061199Y013200
X061199Y011700
X061199Y010700
T7
X-010369Y047341
X-009823Y048459
X-009278Y047341
X-008733Y048459
X-008187Y047341
X-007642Y048459
X-007097Y047341
X-006552Y048459
X-006006Y047341
X063700Y034200
X063700Y033200
X063700Y032200
X063700Y031200
X063700Y030200
X063700Y029200
X063700Y028200
X063700Y027200
T8
X-015202Y007177
T9
X-016580Y004224
T10
X-012851Y011350
X-012851Y009850
X-011984Y016350
X-011001Y011350
X-011001Y009850
X-010016Y016350
X-009150Y011350
X-009150Y009850
T11
X-023295Y035038
X-023295Y029762
X-023295Y027538
X-023295Y022262
X-023295Y020038
X-023295Y014762
X-023295Y012538
X-023295Y007262
X-000441Y047859
X004441Y047859
T12
X-011200Y005898
X011600Y005898
T13
X-024500Y005000
X-016000Y050500
X006300Y026900
X018000Y005000
X062000Y050500
X062000Y005000
T14
X-013119Y047900
X-003280Y047900
T0
M30
