G04 This is an RS-274x file exported by *
G04 gerbv version 2.4.0 *
G04 More information is available about gerbv at *
G04 http://gerbv.gpleda.org/ *
G04 --End of header info--*
%MOIN*%
%FSLAX23Y23*%
%IPPOS*%
G04 --Define apertures--*
%ADD10C,0.0060*%
%ADD11R,0.0236X0.0197*%
%ADD12R,0.0197X0.0236*%
%ADD13R,0.0354X0.0236*%
%ADD14R,0.0098X0.0472*%
%ADD15R,0.0098X0.0256*%
%ADD16R,0.0256X0.0098*%
%ADD17R,0.0236X0.0335*%
%ADD18R,0.0420X0.0236*%
%ADD19R,0.0165X0.0236*%
%ADD20R,0.0315X0.0276*%
%ADD21R,0.0098X0.0236*%
%ADD22R,0.0236X0.0098*%
%ADD23R,0.0236X0.0354*%
%ADD24R,0.0591X0.0709*%
%ADD25R,0.0551X0.0276*%
%ADD26R,0.0236X0.0157*%
%ADD27C,0.1500*%
G04 --Start main section--*
G54D11*
G01X02790Y01320D03*
G01X02790Y01280D03*
G01X02830Y01320D03*
G01X02830Y01280D03*
G01X02910Y01280D03*
G01X02910Y01320D03*
G01X02590Y01450D03*
G01X02590Y01410D03*
G01X02310Y01435D03*
G01X02310Y01395D03*
G01X01570Y01390D03*
G01X01570Y01430D03*
G01X01480Y01550D03*
G01X01480Y01510D03*
G01X02330Y02320D03*
G01X02330Y02280D03*
G01X02120Y02230D03*
G01X02120Y02270D03*
G01X02300Y02230D03*
G01X02300Y02190D03*
G01X02460Y02190D03*
G01X02460Y02230D03*
G54D12*
G01X-2490Y01660D03*
G01X-2530Y01660D03*
G01X-2580Y01380D03*
G01X-2620Y01380D03*
G01X-2860Y00580D03*
G01X-2820Y00580D03*
G01X-0560Y01380D03*
G01X-0600Y01380D03*
G54D11*
G01X-0690Y01500D03*
G01X-0690Y01540D03*
G54D12*
G01X-0600Y01560D03*
G01X-0560Y01560D03*
G01X00680Y01380D03*
G01X00640Y01380D03*
G01X00640Y01340D03*
G01X00680Y01340D03*
G01X00770Y01280D03*
G01X00730Y01280D03*
G01X00790Y01620D03*
G01X00830Y01620D03*
G01X00640Y01420D03*
G01X00680Y01420D03*
G01X00680Y01460D03*
G01X00640Y01460D03*
G01X-0290Y01390D03*
G01X-0330Y01390D03*
G01X-0290Y01450D03*
G01X-0330Y01450D03*
G54D11*
G01X-0690Y01400D03*
G01X-0690Y01440D03*
G01X00100Y01490D03*
G01X00100Y01530D03*
G54D12*
G01X00190Y01450D03*
G01X00230Y01450D03*
G54D11*
G01X00160Y01490D03*
G01X00160Y01530D03*
G54D12*
G01X00180Y01360D03*
G01X00220Y01360D03*
G54D11*
G01X00130Y01240D03*
G01X00130Y01280D03*
G01X00010Y01240D03*
G01X00010Y01280D03*
G54D12*
G01X00030Y01420D03*
G01X-0010Y01420D03*
G01X00030Y01360D03*
G01X-0010Y01360D03*
G01X00190Y01410D03*
G01X00230Y01410D03*
G54D11*
G01X00130Y01390D03*
G01X00130Y01350D03*
G01X00070Y01390D03*
G01X00070Y01350D03*
G54D13*
G01X02210Y02221D03*
G01X02210Y02280D03*
G01X00070Y01290D03*
G01X00070Y01231D03*
G54D14*
G01X02209Y02331D03*
G01X02190Y02331D03*
G01X02170Y02331D03*
G01X02150Y02331D03*
G01X02131Y02331D03*
G01X02131Y02469D03*
G01X02150Y02469D03*
G01X02170Y02469D03*
G01X02190Y02469D03*
G01X02209Y02469D03*
G54D15*
G01X02999Y01365D03*
G01X02979Y01365D03*
G01X02959Y01365D03*
G01X02940Y01365D03*
G01X02920Y01365D03*
G01X02900Y01365D03*
G01X02881Y01365D03*
G01X02861Y01365D03*
G01X02841Y01365D03*
G01X02821Y01365D03*
G01X02821Y01595D03*
G01X02841Y01595D03*
G01X02861Y01595D03*
G01X02881Y01595D03*
G01X02900Y01595D03*
G01X02920Y01595D03*
G01X02940Y01595D03*
G01X02959Y01595D03*
G01X02979Y01595D03*
G01X02999Y01595D03*
G54D16*
G01X02795Y01391D03*
G01X02795Y01411D03*
G01X02795Y01431D03*
G01X02795Y01451D03*
G01X02795Y01470D03*
G01X02795Y01490D03*
G01X02795Y01510D03*
G01X02795Y01529D03*
G01X02795Y01549D03*
G01X02795Y01569D03*
G01X03025Y01569D03*
G01X03025Y01549D03*
G01X03025Y01529D03*
G01X03025Y01510D03*
G01X03025Y01490D03*
G01X03025Y01470D03*
G01X03025Y01451D03*
G01X03025Y01431D03*
G01X03025Y01411D03*
G01X03025Y01391D03*
G54D15*
G01X02459Y02365D03*
G01X02439Y02365D03*
G01X02419Y02365D03*
G01X02400Y02365D03*
G01X02380Y02365D03*
G01X02360Y02365D03*
G01X02341Y02365D03*
G01X02321Y02365D03*
G01X02301Y02365D03*
G01X02281Y02365D03*
G01X02281Y02595D03*
G01X02301Y02595D03*
G01X02321Y02595D03*
G01X02341Y02595D03*
G01X02360Y02595D03*
G01X02380Y02595D03*
G01X02400Y02595D03*
G01X02419Y02595D03*
G01X02439Y02595D03*
G01X02459Y02595D03*
G54D16*
G01X02255Y02391D03*
G01X02255Y02411D03*
G01X02255Y02431D03*
G01X02255Y02451D03*
G01X02255Y02470D03*
G01X02255Y02490D03*
G01X02255Y02510D03*
G01X02255Y02529D03*
G01X02255Y02549D03*
G01X02255Y02569D03*
G01X02485Y02569D03*
G01X02485Y02549D03*
G01X02485Y02529D03*
G01X02485Y02510D03*
G01X02485Y02490D03*
G01X02485Y02470D03*
G01X02485Y02451D03*
G01X02485Y02431D03*
G01X02485Y02411D03*
G01X02485Y02391D03*
G54D17*
G01X02140Y02539D03*
G01X02103Y02621D03*
G01X02177Y02621D03*
G54D18*
G01X02741Y01487D03*
G01X02741Y01450D03*
G01X02741Y01413D03*
G01X02639Y01413D03*
G01X02639Y01450D03*
G01X02639Y01487D03*
G54D12*
G01X02730Y01540D03*
G01X02690Y01540D03*
G54D11*
G01X02870Y01320D03*
G01X02870Y01280D03*
G54D12*
G01X02860Y01630D03*
G01X02820Y01630D03*
G01X02690Y01580D03*
G01X02730Y01580D03*
G54D19*
G01X02424Y01430D03*
G54D20*
G01X02469Y01430D03*
G54D19*
G01X02475Y01352D03*
G01X02424Y01352D03*
G54D11*
G01X02470Y01310D03*
G01X02470Y01270D03*
G54D21*
G01X02570Y01535D03*
G01X02590Y01535D03*
G01X02609Y01535D03*
G01X02550Y01535D03*
G01X02531Y01535D03*
G01X02609Y01685D03*
G01X02590Y01685D03*
G01X02570Y01685D03*
G01X02550Y01685D03*
G01X02531Y01685D03*
G54D22*
G01X02645Y01610D03*
G01X02645Y01630D03*
G01X02645Y01649D03*
G01X02645Y01590D03*
G01X02645Y01571D03*
G01X02495Y01610D03*
G01X02495Y01630D03*
G01X02495Y01649D03*
G01X02495Y01590D03*
G01X02495Y01571D03*
G54D11*
G01X02600Y01765D03*
G01X02600Y01725D03*
G54D12*
G01X02570Y01725D03*
G01X02530Y01725D03*
G01X02490Y01760D03*
G01X02530Y01760D03*
G01X02430Y01720D03*
G01X02470Y01720D03*
G01X02420Y01680D03*
G01X02460Y01680D03*
G54D11*
G01X02600Y01790D03*
G01X02600Y01830D03*
G54D12*
G01X02630Y01830D03*
G01X02670Y01830D03*
G01X02730Y01620D03*
G01X02690Y01620D03*
G54D11*
G01X02510Y01460D03*
G01X02510Y01500D03*
G01X02470Y01490D03*
G01X02470Y01530D03*
G01X02205Y01435D03*
G01X02205Y01395D03*
G01X02260Y01435D03*
G01X02260Y01395D03*
G54D23*
G01X02231Y01505D03*
G01X02290Y01505D03*
G01X02291Y01670D03*
G01X02350Y01670D03*
G54D12*
G01X02080Y01630D03*
G01X02120Y01630D03*
G01X02170Y01670D03*
G01X02210Y01670D03*
G54D11*
G01X02450Y01640D03*
G01X02450Y01600D03*
G54D12*
G01X02680Y01725D03*
G01X02640Y01725D03*
G54D24*
G01X02552Y01875D03*
G01X02198Y01875D03*
G54D12*
G01X02070Y01240D03*
G01X02110Y01240D03*
G01X02200Y01270D03*
G01X02160Y01270D03*
G01X02040Y01470D03*
G01X02080Y01470D03*
G54D11*
G01X02440Y02670D03*
G01X02440Y02710D03*
G54D12*
G01X02250Y02710D03*
G01X02290Y02710D03*
G54D11*
G01X02160Y02270D03*
G01X02160Y02230D03*
G01X02250Y02320D03*
G01X02250Y02280D03*
G01X02290Y02320D03*
G01X02290Y02280D03*
G01X02370Y02280D03*
G01X02370Y02320D03*
G54D12*
G01X02240Y02640D03*
G01X02280Y02640D03*
G54D11*
G01X02090Y02420D03*
G01X02090Y02380D03*
G54D12*
G01X-2640Y01557D03*
G01X-2680Y01557D03*
G01X-2640Y01457D03*
G01X-2680Y01457D03*
G01X-2640Y01507D03*
G01X-2680Y01507D03*
G54D13*
G01X-2580Y01537D03*
G01X-2580Y01478D03*
G01X-2450Y01490D03*
G01X-2450Y01431D03*
G54D12*
G01X-2460Y01300D03*
G01X-2420Y01300D03*
G01X-2690Y01660D03*
G01X-2730Y01660D03*
G01X-2340Y01840D03*
G01X-2380Y01840D03*
G01X-2540Y00580D03*
G01X-2500Y00580D03*
G54D11*
G01X00040Y01490D03*
G01X00040Y01530D03*
G54D12*
G01X00020Y01467D03*
G01X-0020Y01467D03*
G54D11*
G01X00070Y01620D03*
G01X00070Y01580D03*
G54D13*
G01X00130Y01581D03*
G01X00130Y01640D03*
G54D12*
G01X00310Y00880D03*
G01X00350Y00880D03*
G01X-0080Y00680D03*
G01X-0040Y00680D03*
G01X00240Y00670D03*
G01X00280Y00670D03*
G01X02170Y02520D03*
G01X02210Y02520D03*
G01X-3200Y01330D03*
G01X-3160Y01330D03*
G54D25*
G01X02524Y01215D03*
G01X02524Y01265D03*
G01X02524Y01315D03*
G01X02524Y01365D03*
G01X02736Y01365D03*
G01X02736Y01315D03*
G01X02736Y01265D03*
G01X02736Y01215D03*
G54D26*
G01X02397Y02716D03*
G01X02397Y02690D03*
G01X02397Y02664D03*
G01X02323Y02664D03*
G01X02323Y02716D03*
G01X02417Y02236D03*
G01X02417Y02210D03*
G01X02417Y02184D03*
G01X02343Y02184D03*
G01X02343Y02236D03*
G54D12*
G01X00680Y01300D03*
G01X00640Y01300D03*
G54D11*
G01X-3230Y00700D03*
G01X-3230Y00740D03*
G01X-3230Y01890D03*
G01X-3230Y01930D03*
G01X-3230Y00670D03*
G01X-3230Y00630D03*
G01X-3230Y01860D03*
G01X-3230Y01820D03*
G54D12*
G01X-2490Y01390D03*
G01X-2450Y01390D03*
G54D11*
G01X-2800Y01580D03*
G01X-2800Y01540D03*
G54D12*
G01X-2810Y01460D03*
G01X-2770Y01460D03*
G54D11*
G01X00910Y00500D03*
G01X00910Y00540D03*
M02*
