G04 (created by PCBNEW-RS274X (2010-03-14)-final) date Tue 01 Feb 2011 02:56:58 PM EST*
G01*
G70*
G90*
%MOIN*%
G04 Gerber Fmt 3.4, Leading zero omitted, Abs format*
%FSLAX34Y34*%
G04 APERTURE LIST*
%ADD10C,0.001000*%
%ADD11R,0.023600X0.019700*%
%ADD12R,0.019700X0.023600*%
%ADD13R,0.035400X0.023600*%
%ADD14R,0.023600X0.035400*%
%ADD15C,0.063000*%
%ADD16C,0.149600*%
%ADD17C,0.137800*%
%ADD18C,0.150000*%
%ADD19R,0.031500X0.035400*%
%ADD20C,0.070900*%
%ADD21C,0.129900*%
%ADD22C,0.060000*%
%ADD23C,0.055000*%
%ADD24R,0.354300X0.236200*%
%ADD25C,0.094500*%
%ADD26C,0.140000*%
%ADD27C,0.066900*%
%ADD28C,0.086600*%
%ADD29C,0.059100*%
%ADD30C,0.025000*%
%ADD31C,0.018000*%
%ADD32C,0.005000*%
%ADD33C,0.010000*%
%ADD34C,0.008000*%
%ADD35C,0.040000*%
%ADD36C,0.015000*%
G04 APERTURE END LIST*
G54D10*
G54D11*
X00500Y-15303D03*
X00500Y-15697D03*
X02100Y-13197D03*
X02100Y-12803D03*
G54D12*
X12103Y02000D03*
X12497Y02000D03*
X10497Y00100D03*
X10103Y00100D03*
G54D11*
X06900Y-09197D03*
X06900Y-08803D03*
G54D12*
X06347Y-09600D03*
X05953Y-09600D03*
X07003Y-07800D03*
X07397Y-07800D03*
G54D11*
X01600Y-09797D03*
X01600Y-09403D03*
X01100Y-10703D03*
X01100Y-11097D03*
G54D12*
X00897Y-09700D03*
X00503Y-09700D03*
X12797Y-09800D03*
X12403Y-09800D03*
X12403Y-11000D03*
X12797Y-11000D03*
X13903Y-11100D03*
X14297Y-11100D03*
X12797Y-11400D03*
X12403Y-11400D03*
G54D11*
X13900Y-08297D03*
X13900Y-07903D03*
G54D12*
X12797Y-10600D03*
X12403Y-10600D03*
X05497Y-10000D03*
X05103Y-10000D03*
X05497Y-08400D03*
X05103Y-08400D03*
X00897Y-10400D03*
X00503Y-10400D03*
G54D11*
X07400Y-09197D03*
X07400Y-08803D03*
X07900Y-09197D03*
X07900Y-08803D03*
X06400Y-09197D03*
X06400Y-08803D03*
X07900Y-10503D03*
X07900Y-10897D03*
G54D12*
X08897Y-10600D03*
X08503Y-10600D03*
X05503Y-10600D03*
X05897Y-10600D03*
G54D11*
X07400Y-10503D03*
X07400Y-10897D03*
X06900Y-10503D03*
X06900Y-10897D03*
X06400Y-10503D03*
X06400Y-10897D03*
G54D12*
X08053Y-10100D03*
X08447Y-10100D03*
X06347Y-10100D03*
X05953Y-10100D03*
X12403Y-10200D03*
X12797Y-10200D03*
X08053Y-09600D03*
X08447Y-09600D03*
G54D13*
X01000Y-15795D03*
X01000Y-15205D03*
G54D14*
X07495Y-08300D03*
X06905Y-08300D03*
X02005Y-09200D03*
X02595Y-09200D03*
G54D13*
X-00300Y-10405D03*
X-00300Y-10995D03*
G54D14*
X06905Y-11500D03*
X07495Y-11500D03*
G54D15*
X41900Y-24500D03*
X41900Y-25500D03*
X41900Y-26500D03*
X41900Y-27500D03*
X41900Y-28500D03*
X41900Y-29500D03*
X40900Y-24500D03*
X40900Y-25500D03*
X40900Y-26500D03*
X40900Y-27500D03*
X40900Y-28500D03*
G54D16*
X30100Y00068D03*
G54D17*
X30108Y03454D03*
G54D16*
X30100Y-21845D03*
G54D17*
X30084Y-25254D03*
G54D18*
X16000Y-32000D03*
X-09000Y06000D03*
X16000Y06000D03*
X-09000Y-32000D03*
G54D15*
X-02400Y02500D03*
X-02400Y01500D03*
X-00700Y-04100D03*
X00300Y-04100D03*
X-00700Y-02500D03*
X00300Y-02500D03*
X11500Y-14300D03*
X11500Y-15300D03*
X11500Y-16300D03*
X11500Y-17300D03*
X11500Y-18300D03*
X11500Y-19300D03*
X11500Y-20300D03*
X14200Y-20400D03*
X13200Y-20400D03*
X14200Y-19400D03*
X13200Y-19400D03*
X14200Y-18400D03*
X13200Y-18400D03*
X14200Y-17400D03*
X13200Y-17400D03*
X14200Y-16400D03*
X13200Y-16400D03*
X14200Y-15400D03*
X13200Y-15400D03*
X14200Y-14400D03*
X13200Y-14400D03*
X16400Y-01500D03*
X16400Y-02500D03*
X16400Y-04500D03*
X16400Y-05500D03*
X16400Y-06500D03*
X16400Y-07500D03*
X16400Y-08500D03*
X16400Y-03500D03*
X16400Y-10000D03*
X16400Y-11000D03*
X16400Y-13000D03*
X16400Y-14000D03*
X16400Y-15000D03*
X16400Y-16000D03*
X16400Y-17000D03*
X16400Y-12000D03*
X16400Y-18500D03*
X16400Y-19500D03*
X16400Y-21500D03*
X16400Y-22500D03*
X16400Y-23500D03*
X16400Y-24500D03*
X16400Y-25500D03*
X16400Y-20500D03*
G54D19*
X05054Y-09525D03*
X05054Y-08875D03*
X05546Y-08875D03*
X05546Y-09525D03*
G54D20*
X00100Y00100D03*
X01100Y00100D03*
X04100Y00100D03*
X05100Y00100D03*
X06100Y00100D03*
X06100Y03100D03*
X00100Y03100D03*
G54D21*
X-06660Y-00359D03*
X-06660Y-05241D03*
G54D15*
X-05593Y-02237D03*
X-04806Y-02237D03*
X-04806Y-03221D03*
X-05593Y-03221D03*
G54D22*
X34400Y-27350D03*
X33400Y-27350D03*
X32400Y-27350D03*
X32400Y-29850D03*
X34400Y-29850D03*
X-07850Y01500D03*
X-07850Y02500D03*
X-07850Y03500D03*
X-10350Y03500D03*
X-10350Y01500D03*
G54D23*
X43919Y-25035D03*
X44669Y-24535D03*
X43919Y-24035D03*
X44669Y-23535D03*
X43919Y-23035D03*
X44669Y-22535D03*
X43919Y-22035D03*
X44669Y-21535D03*
X43919Y-21035D03*
X44669Y-20535D03*
X43919Y-20035D03*
X44669Y-19535D03*
X43919Y-19035D03*
X44669Y-18535D03*
X43919Y-18035D03*
X44669Y-17535D03*
X43919Y-17035D03*
X44669Y-16535D03*
X43919Y-16035D03*
X44669Y-15535D03*
X43919Y-15035D03*
X44669Y-14535D03*
X43919Y-14035D03*
X44669Y-13535D03*
X43919Y-13035D03*
X44669Y-12535D03*
X43919Y-12035D03*
X44669Y-11535D03*
X43919Y-11035D03*
X44669Y-10535D03*
X43919Y-10035D03*
X44669Y-09535D03*
X43919Y-09035D03*
X44669Y-08535D03*
X45419Y-25035D03*
X46169Y-24535D03*
X45419Y-24035D03*
X46169Y-23535D03*
X45419Y-23035D03*
X46169Y-22535D03*
X45419Y-22035D03*
X46169Y-21535D03*
X45419Y-21035D03*
X46169Y-20535D03*
X45419Y-20035D03*
X46169Y-19535D03*
X45419Y-19035D03*
X46169Y-18535D03*
X45419Y-18035D03*
X46169Y-17535D03*
X45419Y-17035D03*
X46169Y-16535D03*
X45419Y-16035D03*
X46169Y-15535D03*
X45419Y-15035D03*
X46169Y-14535D03*
X45419Y-14035D03*
X46169Y-13535D03*
X45419Y-13035D03*
X46169Y-12535D03*
X45419Y-12035D03*
X46169Y-11535D03*
X45419Y-11035D03*
X46169Y-10535D03*
X45419Y-10035D03*
X46169Y-09535D03*
X45419Y-09035D03*
X46169Y-08535D03*
G54D24*
X45419Y-28185D03*
X45419Y-05385D03*
G54D25*
X-09349Y-15859D03*
X-08404Y-15072D03*
X-06239Y-15072D03*
X-05451Y-14107D03*
X-05451Y-17493D03*
X-08955Y-17493D03*
G54D15*
X20117Y-26185D03*
X20117Y-21785D03*
X20117Y-23985D03*
X20117Y-15185D03*
X20117Y-17385D03*
X20117Y-19585D03*
X20117Y-12985D03*
X20117Y-06385D03*
X20117Y-04185D03*
X20117Y-08585D03*
X20117Y00215D03*
X20117Y-01985D03*
X20117Y-10785D03*
X20117Y02415D03*
X03690Y-24510D03*
X04690Y-24510D03*
X05690Y-24510D03*
X02690Y-24510D03*
X01690Y-24510D03*
X00690Y-24510D03*
X-00310Y-24510D03*
X-01310Y-24510D03*
X14083Y-24496D03*
X13083Y-24496D03*
X12083Y-24496D03*
X11083Y-24496D03*
X10083Y-24496D03*
X09083Y-24496D03*
X08083Y-24496D03*
X07083Y-24496D03*
X-01000Y-11500D03*
X-01000Y-12600D03*
X20117Y-28385D03*
G54D12*
X12103Y00600D03*
X12497Y00600D03*
G54D18*
X46000Y-32000D03*
X46000Y06000D03*
X21000Y-32000D03*
X21000Y06000D03*
G54D26*
X-06800Y-19480D03*
G54D27*
X-06241Y-22206D03*
X-06241Y-23297D03*
X-06241Y-24387D03*
X-06241Y-25478D03*
X-06241Y-26569D03*
X-07359Y-22752D03*
X-07359Y-23842D03*
X-07359Y-24933D03*
X-07359Y-26023D03*
G54D26*
X-06800Y-29319D03*
G54D16*
X-06451Y-07251D03*
X-06451Y-11751D03*
G54D28*
X-05250Y-06448D03*
X-05250Y-12552D03*
G54D29*
X-08049Y-06891D03*
X-08049Y-12111D03*
X-08049Y-07891D03*
X-08049Y-11111D03*
X-03951Y-07751D03*
X-02951Y-08251D03*
X-03951Y-08751D03*
X-02951Y-09251D03*
X-03951Y-09751D03*
X-02951Y-10251D03*
X-03951Y-10751D03*
X-02951Y-11251D03*
G54D30*
X04044Y-03906D03*
G54D31*
X03859Y-08377D03*
X01854Y-11374D03*
X14014Y-11576D03*
X10421Y-12362D03*
X06098Y-12271D03*
G54D30*
X08357Y-03456D03*
G54D31*
X00101Y-10385D03*
X01251Y-11401D03*
X00367Y-09353D03*
X01615Y-09038D03*
X-00662Y-09598D03*
X00601Y-07989D03*
X00998Y-07986D03*
X01395Y-07986D03*
X01799Y-07986D03*
X-01300Y-07295D03*
X-02240Y-10505D03*
X04969Y-10816D03*
X02539Y-10943D03*
G54D30*
X15297Y-23200D03*
X15603Y-14641D03*
X15320Y-06792D03*
X07266Y-13964D03*
G54D31*
X13784Y-13740D03*
G54D30*
X15309Y-05761D03*
X15301Y-14316D03*
X15305Y-22738D03*
G54D31*
X09563Y-16121D03*
X06501Y-15861D03*
X04731Y-12368D03*
X14739Y-11844D03*
X05160Y-12475D03*
X14368Y-11601D03*
X03857Y-15435D03*
X03740Y-13351D03*
X04997Y-12836D03*
X14574Y-12301D03*
X02998Y-16833D03*
X02424Y-17032D03*
X04067Y-12823D03*
X14459Y-13424D03*
X05169Y-13251D03*
X14383Y-12787D03*
X04833Y-13240D03*
X14589Y-12561D03*
X04367Y-12837D03*
X14244Y-13571D03*
X04693Y-11418D03*
X01572Y-17055D03*
X03883Y-11425D03*
X01319Y-17052D03*
X02476Y-10696D03*
X04910Y-10552D03*
X03757Y-07821D03*
X02595Y-10439D03*
X05231Y-11040D03*
X-02163Y-13200D03*
X00112Y-10638D03*
X03902Y-08837D03*
X00998Y-11428D03*
X02372Y-11420D03*
X03676Y-09546D03*
X00734Y-11447D03*
X03549Y-09199D03*
X00348Y-11383D03*
X00150Y-10936D03*
X03690Y-08994D03*
X12187Y-09020D03*
X09390Y-07153D03*
X09544Y-15652D03*
G54D30*
X14922Y-05004D03*
X14912Y-13729D03*
X15010Y-14409D03*
X14840Y-21580D03*
G54D31*
X05712Y-15856D03*
X11158Y-09369D03*
X09309Y-07757D03*
X05300Y-15866D03*
X07615Y-14498D03*
X06844Y-18750D03*
X09084Y-07468D03*
X11813Y-10162D03*
X11035Y-09829D03*
X09090Y-07165D03*
G54D30*
X12674Y-14225D03*
G54D31*
X05330Y-11278D03*
X-01927Y-13379D03*
X02587Y-10085D03*
X02878Y-10435D03*
G54D30*
X12472Y-14791D03*
X24903Y03061D03*
X24585Y02224D03*
X24583Y00020D03*
X24577Y-02193D03*
X24578Y-04390D03*
X24572Y-06603D03*
X24583Y-08780D03*
X24581Y-10983D03*
X24585Y-13176D03*
X24573Y-15400D03*
X24572Y-17604D03*
X24570Y-19807D03*
X24573Y-22000D03*
X24570Y-24207D03*
X24580Y-26387D03*
X24576Y-28594D03*
X27394Y-29119D03*
X26655Y-29649D03*
X31137Y-29794D03*
X35482Y00012D03*
X35470Y-04208D03*
X35478Y-08492D03*
X35482Y-12716D03*
X35466Y-17004D03*
X35470Y-21204D03*
X35478Y-25428D03*
X35510Y-29712D03*
X35490Y-13994D03*
X35478Y-09733D03*
X35502Y-05498D03*
X35482Y-01229D03*
X35441Y03027D03*
X35522Y-26743D03*
X35485Y-22484D03*
X35499Y-18238D03*
X25121Y-28632D03*
X23781Y-29290D03*
X21472Y-29571D03*
X21472Y-27371D03*
X23781Y-27090D03*
X25121Y-26432D03*
X21472Y-25171D03*
X23781Y-24890D03*
X25121Y-24232D03*
X21472Y-22971D03*
X23781Y-22690D03*
X25121Y-22032D03*
X21472Y-20771D03*
X23781Y-20490D03*
X25121Y-19832D03*
X21472Y-18571D03*
X23781Y-18290D03*
X25121Y-17632D03*
X21472Y-16371D03*
X23781Y-16090D03*
X25121Y-15432D03*
X21472Y-14171D03*
X23781Y-13890D03*
X25121Y-13232D03*
X21472Y-11971D03*
X23781Y-11690D03*
X25121Y-11032D03*
X21472Y-09771D03*
X23781Y-09490D03*
X25121Y-08832D03*
X21472Y-07571D03*
X23781Y-07290D03*
X25121Y-06632D03*
X21472Y-05371D03*
X23781Y-05090D03*
X25121Y-04432D03*
X21472Y-03171D03*
X23781Y-02890D03*
X25121Y-02232D03*
X21472Y-00971D03*
X23781Y-00690D03*
X25121Y-00032D03*
X21472Y01229D03*
X23781Y01510D03*
X25121Y02168D03*
X25687Y03095D03*
X28795Y-29565D03*
X28167Y-27349D03*
X27484Y-27871D03*
X35470Y00423D03*
X35478Y-03773D03*
X35474Y-08073D03*
X35486Y-12281D03*
X35478Y-16549D03*
X35478Y-20756D03*
X35470Y-24988D03*
X35490Y-29256D03*
G54D31*
X24308Y03300D03*
G54D30*
X35947Y-21718D03*
X35943Y-17465D03*
X35943Y-13215D03*
X35963Y-08964D03*
X35953Y-04743D03*
X35963Y-00464D03*
X35949Y-25978D03*
X35438Y03515D03*
X21682Y-02796D03*
X21682Y-00596D03*
X21682Y01604D03*
X21170Y03105D03*
X21682Y-29196D03*
X21682Y-26996D03*
X21682Y-24796D03*
X21682Y-22596D03*
X22968Y03072D03*
X21682Y-20396D03*
X21682Y-18196D03*
X21682Y-15996D03*
X21682Y-13796D03*
X22366Y03089D03*
X21682Y-11596D03*
X21682Y-09396D03*
X21682Y-07196D03*
X21682Y-04996D03*
X21781Y03097D03*
G54D31*
X05084Y-12079D03*
G54D30*
X07447Y-03538D03*
G54D31*
X04107Y-14237D03*
X04796Y-15854D03*
X05813Y-12200D03*
G54D30*
X08149Y-03088D03*
G54D31*
X05499Y-12260D03*
G54D30*
X07747Y-03020D03*
X15511Y00898D03*
X15516Y01392D03*
X15516Y01895D03*
X14045Y02108D03*
X14040Y01610D03*
X14035Y01106D03*
X14045Y00603D03*
X12900Y02044D03*
X14705Y02848D03*
X12891Y00549D03*
X07423Y00843D03*
X07048Y00569D03*
X09069Y01303D03*
X10057Y-00250D03*
X09969Y01866D03*
X09985Y03319D03*
X11641Y02054D03*
X11641Y00553D03*
X08593Y00847D03*
X10550Y-00245D03*
X14949Y03593D03*
X15516Y00403D03*
X15512Y02396D03*
X07624Y01664D03*
X08572Y01542D03*
X08210Y02608D03*
G54D31*
X10328Y-06851D03*
X12157Y-10954D03*
X12179Y-10194D03*
X13033Y-11328D03*
X13036Y-10627D03*
X12968Y-09934D03*
X10363Y-12992D03*
X06561Y-09372D03*
X07197Y-09372D03*
X07832Y-09385D03*
X07832Y-10323D03*
X07207Y-10320D03*
X06568Y-10323D03*
X06884Y-10000D03*
X07520Y-09997D03*
X06558Y-09678D03*
X07204Y-09681D03*
X07826Y-09691D03*
X05498Y-10385D03*
X08891Y-10389D03*
X07715Y-11505D03*
X07490Y-11774D03*
X06683Y-08308D03*
X06918Y-08016D03*
G54D30*
X-03997Y-23802D03*
X-02501Y-23800D03*
G54D31*
X05078Y-08607D03*
X05522Y-09790D03*
G54D30*
X15305Y-01787D03*
X15305Y-04248D03*
X15305Y-10299D03*
X15291Y-10703D03*
X15312Y-12697D03*
X15305Y-18197D03*
X15291Y-21222D03*
G54D31*
X03318Y-06905D03*
X02878Y-08088D03*
X01498Y-12196D03*
X00943Y-10203D03*
X01299Y-09842D03*
X01663Y-10200D03*
X01287Y-10553D03*
X-00696Y-10792D03*
X02828Y-09194D03*
X01810Y-13193D03*
X00895Y-13497D03*
X00196Y-12175D03*
X-00480Y-12488D03*
G54D30*
X-00454Y-13942D03*
X00999Y-14924D03*
X-03153Y-17802D03*
X02644Y-13996D03*
X02547Y-15603D03*
X10694Y-17833D03*
X10058Y-16964D03*
X12283Y-16980D03*
G54D31*
X07362Y-07489D03*
X13366Y-13591D03*
X-01095Y-10703D03*
G54D30*
X09653Y-05600D03*
X09236Y-04974D03*
X08295Y-05317D03*
G54D31*
X01437Y-07575D03*
G54D30*
X03047Y-03319D03*
X00994Y-03308D03*
X02728Y-03309D03*
X01412Y-03296D03*
X04380Y-02680D03*
X04038Y-02709D03*
X04346Y-03900D03*
X05345Y-02396D03*
X07047Y-02396D03*
X07552Y-02390D03*
X10068Y-02355D03*
X05087Y-03496D03*
X05712Y-03878D03*
X00568Y-07401D03*
X03183Y-20779D03*
X06198Y-19448D03*
X03090Y-19466D03*
X14496Y-26691D03*
X06373Y-26691D03*
X-01733Y-26699D03*
X39452Y02502D03*
X39469Y01991D03*
G54D31*
X13880Y-08547D03*
X13829Y-11436D03*
X07770Y-19697D03*
X-03776Y-20134D03*
G54D30*
X38546Y00506D03*
X38539Y-03753D03*
X38567Y-07998D03*
X38525Y-12251D03*
X38559Y-20765D03*
X38503Y-25003D03*
X38531Y-29262D03*
X38552Y-16486D03*
X07745Y-16385D03*
X01050Y-17895D03*
G54D31*
X03342Y-17119D03*
G54D30*
X04154Y-17949D03*
X06488Y-17130D03*
G54D31*
X04189Y-13169D03*
X06097Y-07532D03*
X04362Y-06855D03*
G54D30*
X-02402Y-02858D03*
X-01639Y-02286D03*
X-03145Y-02276D03*
X-01994Y-20491D03*
X00829Y-06400D03*
X-00042Y-08202D03*
G54D31*
X04676Y-08741D03*
X04018Y-07959D03*
X38548Y-26230D03*
X38537Y-21979D03*
G54D30*
X38547Y-17733D03*
X38568Y-13480D03*
X38568Y-09238D03*
X38578Y-04978D03*
X38578Y-00729D03*
X38645Y03513D03*
X05501Y-04289D03*
X-00300Y-11279D03*
G54D31*
X09672Y-10147D03*
X12768Y-12296D03*
X10366Y-10485D03*
X12973Y-12183D03*
X09698Y-10490D03*
X12563Y-12421D03*
X10369Y-10148D03*
X13215Y-12038D03*
X12501Y-09388D03*
X08454Y-07162D03*
X01000Y-08994D03*
X11498Y-09843D03*
X09568Y-07504D03*
X01403Y-08944D03*
X05071Y-09790D03*
X01188Y-08860D03*
X00771Y-08931D03*
X05549Y-09121D03*
X03407Y-12059D03*
X00062Y-09551D03*
X01968Y-06794D03*
X07739Y-19041D03*
X03303Y-03518D03*
X03300Y-03098D03*
G54D30*
X05475Y-03116D03*
G54D31*
X09711Y-07153D03*
X13702Y-09532D03*
X10428Y-08906D03*
X13997Y-09507D03*
X12727Y-09535D03*
X08643Y-07911D03*
X12420Y-09053D03*
X10616Y-09103D03*
X11821Y-08904D03*
X10031Y-06855D03*
X11509Y-08911D03*
X10033Y-07166D03*
X11503Y-08594D03*
X10395Y-07320D03*
G54D30*
X-00907Y-06384D03*
X08651Y-04705D03*
G54D31*
X00090Y-09880D03*
X07385Y-16426D03*
X07999Y-17215D03*
X03407Y-12322D03*
G54D30*
X12906Y03034D03*
X12906Y-00444D03*
G54D31*
X06650Y-08717D03*
X07153Y-08719D03*
X07656Y-08723D03*
X08184Y-08724D03*
X06099Y-08720D03*
X08436Y-09385D03*
X05949Y-09371D03*
X07438Y-08009D03*
X-01101Y-10431D03*
X11194Y-08609D03*
X12159Y-11257D03*
X12205Y-10622D03*
X12192Y-09779D03*
X13035Y-10961D03*
X13003Y-10292D03*
X11166Y-11258D03*
X06195Y-10942D03*
X06601Y-10939D03*
X07192Y-10928D03*
X07596Y-10945D03*
X08150Y-10928D03*
X05948Y-10320D03*
X08450Y-10323D03*
X03361Y-10690D03*
X02003Y-12197D03*
X02378Y-12809D03*
G54D30*
X01056Y-16045D03*
X01652Y-15599D03*
G54D31*
X07003Y-14950D03*
G54D30*
X10064Y-14904D03*
X08390Y-15646D03*
X12292Y-17833D03*
X12409Y-19741D03*
G54D31*
X13371Y-13152D03*
X02208Y-07983D03*
X01429Y-06793D03*
G54D30*
X10532Y-02361D03*
X03740Y-20523D03*
X06819Y-20494D03*
G54D31*
X13904Y-07692D03*
X14299Y-10842D03*
X01003Y-12179D03*
X01412Y-13634D03*
X07279Y-19428D03*
X-04051Y-20158D03*
G54D30*
X15053Y-03499D03*
X15300Y-11719D03*
X15306Y-20776D03*
G54D31*
X04688Y-08114D03*
X04727Y-07545D03*
X05154Y-07546D03*
X05774Y-07546D03*
X06098Y-06771D03*
G54D30*
X38546Y00046D03*
X38539Y-04206D03*
X38553Y-08451D03*
X38560Y-12718D03*
X38544Y-16963D03*
X38552Y-21218D03*
X38531Y-25449D03*
X38517Y-29722D03*
G54D32*
X01854Y-11374D02*
X02308Y-09841D01*
X02308Y-09841D02*
X02917Y-09422D01*
X02917Y-09422D02*
X03357Y-08829D01*
X03859Y-08377D02*
X03357Y-08829D01*
X14014Y-11576D02*
X13213Y-12369D01*
X13213Y-12369D02*
X12690Y-12592D01*
X12690Y-12592D02*
X12374Y-12634D01*
X12374Y-12634D02*
X10656Y-12402D01*
X10421Y-12362D02*
X10656Y-12402D01*
X06098Y-12271D02*
X07501Y-12343D01*
X07501Y-12343D02*
X07949Y-12173D01*
X07949Y-12173D02*
X08511Y-11862D01*
X08511Y-11862D02*
X09259Y-11194D01*
X09259Y-11194D02*
X09392Y-10937D01*
X09392Y-10937D02*
X09437Y-10525D01*
X09437Y-10525D02*
X09421Y-10282D01*
X09421Y-10282D02*
X09136Y-08877D01*
X09136Y-08877D02*
X08341Y-07973D01*
X08341Y-07973D02*
X08070Y-07634D01*
X08070Y-07634D02*
X07713Y-06320D01*
X07713Y-06320D02*
X07723Y-04618D01*
X07723Y-04618D02*
X07955Y-03896D01*
X07955Y-03896D02*
X08357Y-03456D01*
G54D33*
X00503Y-10400D02*
X00101Y-10385D01*
X-00300Y-10405D02*
X00101Y-10385D01*
X00367Y-09353D02*
X00503Y-09700D01*
X01600Y-09403D02*
X01615Y-09038D01*
X01100Y-11097D02*
X01251Y-11401D01*
G54D34*
X01600Y-09403D02*
X02005Y-09200D01*
X00503Y-09700D02*
X00564Y-09700D01*
X00503Y-09700D02*
X00678Y-09507D01*
X00678Y-09507D02*
X01093Y-09434D01*
X01093Y-09434D02*
X01600Y-09403D01*
X01100Y-11097D02*
X01380Y-10854D01*
X01380Y-10854D02*
X01866Y-10291D01*
X01866Y-10291D02*
X01920Y-09855D01*
X01920Y-09855D02*
X01864Y-09563D01*
X01864Y-09563D02*
X01600Y-09403D01*
G54D33*
X01615Y-09038D02*
X01799Y-07986D01*
X01799Y-07986D02*
X01395Y-07986D01*
X01395Y-07986D02*
X00998Y-07986D01*
X00998Y-07986D02*
X00601Y-07989D01*
X-01300Y-07295D02*
X-00161Y-07916D01*
X-00161Y-07916D02*
X00601Y-07989D01*
X00367Y-09353D02*
X-00181Y-09358D01*
X-00181Y-09358D02*
X-00662Y-09598D01*
X-00662Y-09598D02*
X-01418Y-09833D01*
X-01418Y-09833D02*
X-02240Y-10505D01*
G54D34*
X15297Y-23200D02*
X15590Y-22696D01*
X15603Y-14641D02*
X15580Y-15087D01*
X15580Y-15087D02*
X15590Y-22696D01*
X15603Y-14641D02*
X15607Y-14168D01*
X15607Y-14168D02*
X15590Y-07157D01*
X15320Y-06792D02*
X15590Y-07157D01*
G54D32*
X07266Y-13964D02*
X10507Y-13685D01*
X10507Y-13685D02*
X11884Y-13686D01*
X11884Y-13686D02*
X13465Y-13763D01*
X13784Y-13740D02*
X13465Y-13763D01*
G54D34*
X15305Y-22738D02*
X15054Y-22414D01*
X15054Y-22414D02*
X15096Y-17429D01*
X15301Y-14316D02*
X15214Y-14554D01*
X15301Y-14316D02*
X15144Y-13944D01*
X15144Y-13944D02*
X15058Y-12707D01*
X15091Y-06021D02*
X15309Y-05761D01*
G54D32*
X09563Y-16121D02*
X09735Y-15839D01*
X09735Y-15839D02*
X09795Y-14551D01*
X09795Y-14551D02*
X10569Y-13893D01*
X10569Y-13893D02*
X11824Y-13911D01*
X12744Y-14001D02*
X14752Y-14013D01*
X14752Y-14013D02*
X15144Y-13944D01*
G54D34*
X15096Y-17429D02*
X15214Y-14554D01*
X15058Y-12707D02*
X15091Y-06021D01*
G54D32*
X09563Y-16121D02*
X06501Y-15861D01*
X11824Y-13911D02*
X12744Y-14001D01*
X04731Y-12368D02*
X05071Y-12640D01*
X05071Y-12640D02*
X05234Y-12649D01*
X05234Y-12649D02*
X05436Y-12579D01*
X05436Y-12579D02*
X10392Y-12632D01*
X12435Y-12855D02*
X10392Y-12632D01*
X12435Y-12855D02*
X12743Y-12805D01*
X14115Y-12189D02*
X14739Y-11844D01*
X12743Y-12805D02*
X13548Y-12479D01*
X13548Y-12479D02*
X14115Y-12189D01*
X05160Y-12475D02*
X10408Y-12532D01*
X10408Y-12532D02*
X12402Y-12749D01*
X12402Y-12749D02*
X12718Y-12707D01*
X13301Y-12445D02*
X14368Y-11601D01*
X12718Y-12707D02*
X13301Y-12445D01*
X03740Y-13351D02*
X03857Y-15435D01*
X04997Y-12836D02*
X05522Y-12682D01*
X05522Y-12682D02*
X10417Y-12736D01*
X10417Y-12736D02*
X12452Y-12959D01*
X12452Y-12959D02*
X12760Y-12914D01*
X13911Y-12465D02*
X14574Y-12301D01*
X12760Y-12914D02*
X13911Y-12465D01*
X02424Y-17032D02*
X02998Y-16833D01*
X04067Y-12823D02*
X04312Y-12663D01*
X04475Y-12660D02*
X04642Y-12891D01*
X04642Y-12891D02*
X04675Y-13359D01*
X04675Y-13359D02*
X04838Y-13441D01*
X04838Y-13441D02*
X05298Y-13409D01*
X05298Y-13409D02*
X10178Y-13364D01*
X10178Y-13364D02*
X10960Y-13365D01*
X10960Y-13365D02*
X13319Y-13319D01*
X13319Y-13319D02*
X13920Y-13326D01*
X13920Y-13326D02*
X14195Y-13294D01*
X14459Y-13424D02*
X14195Y-13294D01*
X04312Y-12663D02*
X04475Y-12660D01*
X05169Y-13251D02*
X10557Y-13264D01*
X10557Y-13264D02*
X12446Y-13234D01*
X12446Y-13234D02*
X12897Y-13122D01*
X13222Y-13001D02*
X12897Y-13122D01*
X13668Y-12953D02*
X14383Y-12787D01*
X13222Y-13001D02*
X13668Y-12953D01*
X04833Y-13240D02*
X05230Y-12906D01*
X05230Y-12906D02*
X05748Y-12786D01*
X05748Y-12786D02*
X10415Y-13162D01*
X12477Y-13119D02*
X10415Y-13162D01*
X14589Y-12561D02*
X13997Y-12561D01*
X13231Y-12892D02*
X12477Y-13119D01*
X13231Y-12892D02*
X13997Y-12561D01*
X04367Y-12837D02*
X04514Y-13369D01*
X04514Y-13369D02*
X04776Y-13554D01*
X04776Y-13554D02*
X08854Y-13477D01*
X08854Y-13477D02*
X10963Y-13466D01*
X10963Y-13466D02*
X13340Y-13424D01*
X13340Y-13424D02*
X14041Y-13432D01*
X14041Y-13432D02*
X14244Y-13571D01*
X04693Y-11418D02*
X03945Y-11966D01*
X03945Y-11966D02*
X03908Y-12499D01*
X03908Y-12499D02*
X02835Y-14650D01*
X02835Y-14650D02*
X02419Y-15227D01*
X02419Y-15227D02*
X02226Y-15586D01*
X01572Y-17055D02*
X02226Y-15586D01*
X03883Y-11425D02*
X03808Y-12466D01*
X03808Y-12466D02*
X02401Y-15047D01*
X02401Y-15047D02*
X01319Y-17052D01*
X02595Y-10439D02*
X02437Y-10172D01*
X02437Y-10172D02*
X02409Y-10043D01*
X02409Y-10043D02*
X02457Y-09902D01*
X02457Y-09902D02*
X03026Y-09478D01*
X03026Y-09478D02*
X03494Y-08869D01*
X04009Y-08492D02*
X03494Y-08869D01*
X04035Y-08329D02*
X04009Y-08492D01*
X04035Y-08329D02*
X03930Y-08188D01*
X03830Y-08150D02*
X03757Y-07821D01*
X03930Y-08188D02*
X03830Y-08150D01*
X05231Y-11040D02*
X03776Y-11138D01*
X03776Y-11138D02*
X03585Y-11287D01*
X03585Y-11287D02*
X03588Y-11868D01*
X03588Y-11868D02*
X03610Y-12380D01*
X03610Y-12380D02*
X03539Y-12500D01*
X03539Y-12500D02*
X02262Y-13374D01*
X02262Y-13374D02*
X01736Y-13386D01*
X01736Y-13386D02*
X00937Y-13219D01*
X00937Y-13219D02*
X-00831Y-13256D01*
X-00831Y-13256D02*
X-02163Y-13200D01*
X-00029Y-10811D02*
X00112Y-10638D01*
X-00029Y-10811D02*
X-00027Y-11155D01*
X-00027Y-11155D02*
X00073Y-11499D01*
X00073Y-11499D02*
X00528Y-11903D01*
X00528Y-11903D02*
X01212Y-12030D01*
X01212Y-12030D02*
X01925Y-12003D01*
X01925Y-12003D02*
X02667Y-11849D01*
X02667Y-11849D02*
X03582Y-10863D01*
X03582Y-10863D02*
X04041Y-09712D01*
X04041Y-09712D02*
X04057Y-09369D01*
X04057Y-09369D02*
X03902Y-08837D01*
X00998Y-11428D02*
X01171Y-11594D01*
X01171Y-11594D02*
X01614Y-11603D01*
X01614Y-11603D02*
X02372Y-11420D01*
X00734Y-11447D02*
X00993Y-11653D01*
X00993Y-11653D02*
X01210Y-11711D01*
X01210Y-11711D02*
X01836Y-11700D01*
X01836Y-11700D02*
X02496Y-11564D01*
X02496Y-11564D02*
X02942Y-10939D01*
X02942Y-10939D02*
X03297Y-10043D01*
X03297Y-10043D02*
X03676Y-09546D01*
X00348Y-11383D02*
X00711Y-11649D01*
X00711Y-11649D02*
X01003Y-11781D01*
X01003Y-11781D02*
X01255Y-11822D01*
X01255Y-11822D02*
X01878Y-11799D01*
X01878Y-11799D02*
X02569Y-11652D01*
X02569Y-11652D02*
X03052Y-10957D01*
X03052Y-10957D02*
X03236Y-10471D01*
X03236Y-10471D02*
X03841Y-09628D01*
X03841Y-09628D02*
X03842Y-09405D01*
X03842Y-09405D02*
X03549Y-09199D01*
X03690Y-08994D02*
X03930Y-09337D01*
X03930Y-09337D02*
X03953Y-09441D01*
X03953Y-09441D02*
X03938Y-09698D01*
X03938Y-09698D02*
X03492Y-10811D01*
X03492Y-10811D02*
X02611Y-11758D01*
X02611Y-11758D02*
X01865Y-11905D01*
X01865Y-11905D02*
X01199Y-11925D01*
X01199Y-11925D02*
X00561Y-11798D01*
X00561Y-11798D02*
X00160Y-11437D01*
X00160Y-11437D02*
X00150Y-10936D01*
X09616Y-07289D02*
X09769Y-07393D01*
X09769Y-07393D02*
X11002Y-08970D01*
X11002Y-08970D02*
X11559Y-09233D01*
X12187Y-09020D02*
X11992Y-09187D01*
X09616Y-07289D02*
X09390Y-07153D01*
X11992Y-09187D02*
X11559Y-09233D01*
X09537Y-14653D02*
X09544Y-15652D01*
X09537Y-14653D02*
X10441Y-13792D01*
X14912Y-13729D02*
X14420Y-13908D01*
X14912Y-13729D02*
X14922Y-05004D01*
X15010Y-14409D02*
X14840Y-21580D01*
X09544Y-15652D02*
X08873Y-15938D01*
X08873Y-15938D02*
X06719Y-15687D01*
X06719Y-15687D02*
X06254Y-15687D01*
X06254Y-15687D02*
X05712Y-15856D01*
X10441Y-13792D02*
X11738Y-13787D01*
X12751Y-13901D02*
X11738Y-13787D01*
X14420Y-13908D02*
X12751Y-13901D01*
X09309Y-07757D02*
X09887Y-08023D01*
X09887Y-08023D02*
X10138Y-08226D01*
X10849Y-09118D02*
X11158Y-09369D01*
X10138Y-08226D02*
X10849Y-09118D01*
X05300Y-15866D02*
X05906Y-15532D01*
X05906Y-15532D02*
X07237Y-15173D01*
X07237Y-15173D02*
X07542Y-14883D01*
X07542Y-14883D02*
X07615Y-14498D01*
X05300Y-15866D02*
X06844Y-18750D01*
X09084Y-07468D02*
X09032Y-07760D01*
X09032Y-07760D02*
X09069Y-07945D01*
X09069Y-07945D02*
X10285Y-09349D01*
X11365Y-10257D02*
X10958Y-09985D01*
X11365Y-10257D02*
X11601Y-10237D01*
X11601Y-10237D02*
X11813Y-10162D01*
X10285Y-09349D02*
X10958Y-09985D01*
X11035Y-09829D02*
X10667Y-09476D01*
X09158Y-07878D02*
X09139Y-07731D01*
X09139Y-07731D02*
X09199Y-07599D01*
X09199Y-07599D02*
X09255Y-07549D01*
X09255Y-07549D02*
X09265Y-07391D01*
X09265Y-07391D02*
X09215Y-07276D01*
X09215Y-07276D02*
X09090Y-07165D01*
X10062Y-08846D02*
X09158Y-07878D01*
X10206Y-09033D02*
X10062Y-08846D01*
X10667Y-09476D02*
X10357Y-09278D01*
X10357Y-09278D02*
X10206Y-09033D01*
G54D34*
X12674Y-14225D02*
X12745Y-14636D01*
X12745Y-14636D02*
X12719Y-17167D01*
X12719Y-17167D02*
X12759Y-18226D01*
X12759Y-18226D02*
X13200Y-18400D01*
G54D32*
X05330Y-11278D02*
X04586Y-11247D01*
X04586Y-11247D02*
X03829Y-11260D01*
X03829Y-11260D02*
X03706Y-11348D01*
X03706Y-11348D02*
X03712Y-12405D01*
X03712Y-12405D02*
X03617Y-12582D01*
X02420Y-13471D02*
X03617Y-12582D01*
X02420Y-13471D02*
X01684Y-13493D01*
X01684Y-13493D02*
X00885Y-13321D01*
X00885Y-13321D02*
X-01558Y-13372D01*
X-01558Y-13372D02*
X-01927Y-13379D01*
X02878Y-10435D02*
X02587Y-10085D01*
G54D34*
X12472Y-14791D02*
X12610Y-15104D01*
X12610Y-15104D02*
X12581Y-17729D01*
X12581Y-17729D02*
X12621Y-19538D01*
X12621Y-19538D02*
X12725Y-20106D01*
X12725Y-20106D02*
X13200Y-20400D01*
X21682Y01604D02*
X21772Y01245D01*
X21772Y01245D02*
X21682Y-00596D01*
X21682Y-00596D02*
X21765Y-01034D01*
X21765Y-01034D02*
X21682Y-02796D01*
X21682Y01604D02*
X21170Y03105D01*
X22968Y03072D02*
X21945Y-21874D01*
X21945Y-21874D02*
X21682Y-22596D01*
X21682Y-22596D02*
X21753Y-22979D01*
X21753Y-22979D02*
X21682Y-24796D01*
X21682Y-24796D02*
X21744Y-25162D01*
X21744Y-25162D02*
X21682Y-26996D01*
X21682Y-26996D02*
X21761Y-27371D01*
X21761Y-27371D02*
X21682Y-29196D01*
X22366Y03089D02*
X21968Y-13185D01*
X21968Y-13185D02*
X21682Y-13796D01*
X21682Y-13796D02*
X21792Y-14197D01*
X21792Y-14197D02*
X21682Y-15996D01*
X21682Y-15996D02*
X21767Y-16372D01*
X21767Y-16372D02*
X21682Y-18196D01*
X21682Y-18196D02*
X21792Y-18547D01*
X21792Y-18547D02*
X21682Y-20396D01*
X21682Y-04996D02*
X21768Y-05415D01*
X21768Y-05415D02*
X21682Y-07196D01*
X21682Y-07196D02*
X21752Y-07598D01*
X21752Y-07598D02*
X21682Y-09396D01*
X21682Y-09396D02*
X21748Y-09776D01*
X21748Y-09776D02*
X21682Y-11596D01*
X21781Y03097D02*
X21979Y01625D01*
X21979Y01625D02*
X21962Y-04590D01*
X21962Y-04590D02*
X21682Y-04996D01*
G54D32*
X05084Y-12079D02*
X05813Y-11914D01*
X05813Y-11914D02*
X06323Y-11879D01*
X06323Y-11879D02*
X07526Y-11988D01*
X07526Y-11988D02*
X08241Y-11660D01*
X08241Y-11660D02*
X09048Y-10938D01*
X09048Y-10938D02*
X09128Y-10551D01*
X09128Y-10551D02*
X08862Y-09058D01*
X08862Y-09058D02*
X07821Y-07864D01*
X07821Y-07864D02*
X07410Y-06476D01*
X07410Y-06476D02*
X07410Y-04391D01*
X07410Y-04391D02*
X07447Y-03538D01*
X04107Y-14237D02*
X04796Y-15854D01*
X05813Y-12200D02*
X06083Y-12100D01*
X06083Y-12100D02*
X06813Y-12154D01*
X06813Y-12154D02*
X07474Y-12227D01*
X07474Y-12227D02*
X07704Y-12159D01*
X07704Y-12159D02*
X08408Y-11803D01*
X08408Y-11803D02*
X09172Y-11137D01*
X09172Y-11137D02*
X09280Y-10935D01*
X09280Y-10935D02*
X09336Y-10519D01*
X09336Y-10519D02*
X09046Y-08940D01*
X09046Y-08940D02*
X07990Y-07722D01*
X07990Y-07722D02*
X07612Y-06385D01*
X07612Y-06385D02*
X07618Y-04606D01*
X07618Y-04606D02*
X07825Y-03882D01*
X07825Y-03882D02*
X08149Y-03088D01*
X05499Y-12260D02*
X05733Y-12037D01*
X05733Y-12037D02*
X06133Y-11993D01*
X06133Y-11993D02*
X06894Y-12050D01*
X06894Y-12050D02*
X07497Y-12101D01*
X07497Y-12101D02*
X07647Y-12061D01*
X07647Y-12061D02*
X08342Y-11723D01*
X08342Y-11723D02*
X09132Y-10998D01*
X09132Y-10998D02*
X09182Y-10872D01*
X09182Y-10872D02*
X09234Y-10523D01*
X09234Y-10523D02*
X08953Y-08994D01*
X08953Y-08994D02*
X07905Y-07793D01*
X07905Y-07793D02*
X07511Y-06425D01*
X07511Y-06425D02*
X07511Y-04626D01*
X07511Y-04626D02*
X07733Y-03596D01*
X07733Y-03596D02*
X07747Y-03020D01*
G54D34*
X12497Y02000D02*
X12900Y02044D01*
X12497Y00600D02*
X12891Y00549D01*
G54D33*
X10057Y-00250D02*
X10103Y00100D01*
G54D34*
X12103Y02000D02*
X11641Y02054D01*
X12103Y00600D02*
X11641Y00553D01*
G54D33*
X10550Y-00245D02*
X10497Y00100D01*
G54D32*
X12968Y-09934D02*
X12797Y-09800D01*
X12179Y-10194D02*
X12403Y-10200D01*
X13036Y-10627D02*
X12797Y-10600D01*
X12157Y-10954D02*
X12403Y-11000D01*
X13033Y-11328D02*
X12797Y-11400D01*
G54D33*
X06400Y-09197D02*
X06561Y-09372D01*
X06561Y-09372D02*
X06900Y-09197D01*
X06900Y-09197D02*
X07197Y-09372D01*
X07197Y-09372D02*
X07400Y-09197D01*
X07400Y-09197D02*
X07832Y-09385D01*
X07832Y-09385D02*
X07900Y-09197D01*
X07832Y-09385D02*
X08053Y-09600D01*
X07826Y-09691D02*
X08053Y-09600D01*
X06558Y-09678D02*
X06347Y-09600D01*
X06347Y-09600D02*
X06561Y-09372D01*
X06347Y-10100D02*
X06568Y-10323D01*
X06400Y-10503D02*
X06568Y-10323D01*
X06568Y-10323D02*
X06900Y-10503D01*
X06900Y-10503D02*
X07207Y-10320D01*
X07207Y-10320D02*
X07400Y-10503D01*
X07400Y-10503D02*
X07832Y-10323D01*
X07832Y-10323D02*
X07900Y-10503D01*
X07832Y-10323D02*
X08053Y-10100D01*
X08053Y-10100D02*
X07826Y-09691D01*
X06347Y-10100D02*
X06558Y-09678D01*
X06568Y-10323D02*
X06884Y-10000D01*
X06884Y-10000D02*
X07204Y-09681D01*
X07204Y-09681D02*
X07520Y-09997D01*
X07207Y-10320D02*
X07520Y-09997D01*
X07204Y-09681D02*
X07197Y-09372D01*
X07520Y-09997D02*
X07832Y-10323D01*
X07520Y-09997D02*
X07826Y-09691D01*
X06884Y-10000D02*
X06558Y-09678D01*
X07207Y-10320D02*
X06884Y-10000D01*
X05503Y-10600D02*
X05498Y-10385D01*
X08897Y-10600D02*
X08891Y-10389D01*
X07495Y-11500D02*
X07715Y-11505D01*
X07495Y-11500D02*
X07490Y-11774D01*
X06905Y-08300D02*
X06683Y-08308D01*
X06905Y-08300D02*
X06918Y-08016D01*
X07003Y-07800D02*
X06918Y-08016D01*
G54D32*
X05054Y-08875D02*
X05078Y-08607D01*
X05103Y-08400D02*
X05078Y-08607D01*
X05546Y-09525D02*
X05522Y-09790D01*
X05497Y-10000D02*
X05522Y-09790D01*
G54D34*
X05103Y-08400D02*
X05078Y-08607D01*
X05060Y-08803D02*
X05078Y-08607D01*
X05546Y-09525D02*
X05522Y-09790D01*
X05497Y-10000D02*
X05522Y-09790D01*
G54D33*
X00897Y-09700D02*
X00943Y-10203D01*
X00897Y-09700D02*
X01299Y-09842D01*
X01299Y-09842D02*
X01600Y-09797D01*
X01600Y-09797D02*
X01663Y-10200D01*
X01663Y-10200D02*
X01287Y-10553D01*
X01287Y-10553D02*
X01100Y-10703D01*
X01100Y-10703D02*
X00897Y-10400D01*
X00897Y-10400D02*
X00943Y-10203D01*
G54D34*
X02595Y-09200D02*
X02828Y-09194D01*
G54D33*
X01810Y-13193D02*
X02100Y-13197D01*
X01000Y-15205D02*
X00999Y-14924D01*
X00500Y-15303D02*
X01000Y-15205D01*
G54D32*
X13900Y-08297D02*
X13880Y-08547D01*
X13829Y-11436D02*
X13903Y-11100D01*
G54D34*
X-00300Y-10995D02*
X-00300Y-11279D01*
G54D32*
X12768Y-12296D02*
X11806Y-12019D01*
X10133Y-10599D02*
X09672Y-10147D01*
X11806Y-12019D02*
X10133Y-10599D01*
X12492Y-11957D02*
X12019Y-11862D01*
X12019Y-11862D02*
X11291Y-11134D01*
X11291Y-11134D02*
X10366Y-10485D01*
X12492Y-11957D02*
X12973Y-12183D01*
X12563Y-12421D02*
X12020Y-12339D01*
X11815Y-12223D02*
X10119Y-10740D01*
X10119Y-10740D02*
X09698Y-10490D01*
X12020Y-12339D02*
X11815Y-12223D01*
X10369Y-10148D02*
X11365Y-11064D01*
X11365Y-11064D02*
X12080Y-11730D01*
X12080Y-11730D02*
X12669Y-11888D01*
X13215Y-12038D02*
X12669Y-11888D01*
X12501Y-09388D02*
X12273Y-09488D01*
X12273Y-09488D02*
X12135Y-09561D01*
X12135Y-09561D02*
X12044Y-09692D01*
X12011Y-09814D02*
X12044Y-09692D01*
X12013Y-10205D02*
X11933Y-10314D01*
X11805Y-10375D02*
X11357Y-10367D01*
X11357Y-10367D02*
X10978Y-10171D01*
X10978Y-10171D02*
X10206Y-09412D01*
X08454Y-07162D02*
X08868Y-07891D01*
X12013Y-10205D02*
X12011Y-09814D01*
X11933Y-10314D02*
X11805Y-10375D01*
X10206Y-09412D02*
X08868Y-07891D01*
X-02951Y-11251D02*
X-02352Y-10124D01*
X-02352Y-10124D02*
X-01644Y-09405D01*
X-01644Y-09405D02*
X00492Y-09094D01*
X00492Y-09094D02*
X00784Y-09097D01*
X00784Y-09097D02*
X00938Y-09067D01*
X00938Y-09067D02*
X01000Y-08994D01*
X09568Y-07504D02*
X10207Y-08143D01*
X10936Y-09050D02*
X11350Y-09273D01*
X11350Y-09273D02*
X11474Y-09462D01*
X11498Y-09843D02*
X11474Y-09462D01*
X10207Y-08143D02*
X10936Y-09050D01*
X01403Y-08944D02*
X01326Y-08759D01*
X01326Y-08759D02*
X01121Y-08588D01*
X01121Y-08588D02*
X-00155Y-08433D01*
X-00155Y-08433D02*
X-02951Y-08251D01*
X05103Y-10000D02*
X05071Y-09790D01*
X05071Y-09790D02*
X05054Y-09525D01*
G54D34*
X05103Y-10000D02*
X05071Y-09790D01*
X05054Y-09525D02*
X05071Y-09790D01*
G54D32*
X-03157Y-08686D02*
X-03566Y-08359D01*
X-03157Y-08686D02*
X-02827Y-08727D01*
X-02827Y-08727D02*
X-01957Y-08423D01*
X00529Y-08618D02*
X01053Y-08732D01*
X01053Y-08732D02*
X01188Y-08860D01*
X-01957Y-08423D02*
X00529Y-08618D01*
X-03566Y-08359D02*
X-03951Y-07751D01*
X00771Y-08931D02*
X-01661Y-09301D01*
X-02994Y-09744D02*
X-03458Y-10067D01*
X-03458Y-10067D02*
X-03951Y-10751D01*
X-01661Y-09301D02*
X-02994Y-09744D01*
X05546Y-08875D02*
X05549Y-09121D01*
X05497Y-08400D02*
X05546Y-08875D01*
G54D34*
X05546Y-08875D02*
X05549Y-09121D01*
G54D32*
X03407Y-12059D02*
X02023Y-12372D01*
X02023Y-12372D02*
X00149Y-12340D01*
X00149Y-12340D02*
X-00180Y-12142D01*
X-00180Y-12142D02*
X-01000Y-11500D01*
X00062Y-09551D02*
X-00996Y-09873D01*
X-00996Y-09873D02*
X-02265Y-10743D01*
X-02265Y-10743D02*
X-02488Y-11405D01*
X-02488Y-11405D02*
X-02704Y-11705D01*
X-02704Y-11705D02*
X-03115Y-11774D01*
X-03115Y-11774D02*
X-04788Y-10931D01*
X-04788Y-10931D02*
X-08049Y-07891D01*
X01968Y-06794D02*
X04195Y-07845D01*
X04195Y-07845D02*
X04359Y-08338D01*
X04359Y-08338D02*
X04824Y-10144D01*
X04824Y-10144D02*
X05163Y-10551D01*
X05163Y-10551D02*
X05395Y-10962D01*
X05395Y-10962D02*
X05536Y-11345D01*
X05536Y-11345D02*
X05502Y-11480D01*
X05502Y-11480D02*
X03948Y-12696D01*
X03948Y-12696D02*
X03894Y-12786D01*
X03894Y-12786D02*
X03875Y-12933D01*
X03875Y-12933D02*
X03917Y-13204D01*
X03917Y-13204D02*
X04498Y-14454D01*
X04498Y-14454D02*
X05047Y-15870D01*
X05047Y-15870D02*
X06717Y-18927D01*
X06717Y-18927D02*
X06838Y-19008D01*
X06838Y-19008D02*
X07343Y-19073D01*
X07343Y-19073D02*
X07739Y-19041D01*
X03303Y-03518D02*
X03300Y-03098D01*
X03300Y-03098D02*
X05475Y-03116D01*
X09711Y-07153D02*
X11053Y-08872D01*
X11053Y-08872D02*
X11520Y-09101D01*
X11520Y-09101D02*
X11909Y-09061D01*
X12695Y-08899D02*
X13702Y-09532D01*
X12058Y-08867D02*
X12373Y-08832D01*
X11909Y-09061D02*
X12058Y-08867D01*
X12373Y-08832D02*
X12695Y-08899D01*
X10428Y-08906D02*
X10447Y-09205D01*
X10673Y-09350D02*
X11021Y-09641D01*
X11108Y-09646D02*
X11021Y-09641D01*
X11210Y-09718D02*
X11108Y-09646D01*
X11214Y-10003D02*
X11210Y-09718D01*
X11214Y-10003D02*
X11418Y-10136D01*
X11601Y-10109D02*
X11418Y-10136D01*
X11601Y-10109D02*
X11749Y-10003D01*
X11749Y-10003D02*
X11868Y-09778D01*
X11868Y-09778D02*
X12038Y-09498D01*
X12038Y-09498D02*
X12227Y-09314D01*
X12469Y-09212D02*
X12615Y-09216D01*
X12615Y-09216D02*
X12837Y-09289D01*
X12837Y-09289D02*
X13373Y-09646D01*
X13373Y-09646D02*
X13708Y-09717D01*
X13708Y-09717D02*
X13877Y-09632D01*
X13997Y-09507D02*
X13877Y-09632D01*
X12227Y-09314D02*
X12469Y-09212D01*
X10447Y-09205D02*
X10673Y-09350D01*
X10916Y-10252D02*
X10135Y-09492D01*
X11325Y-10467D02*
X10916Y-10252D01*
X11325Y-10467D02*
X11824Y-10482D01*
X12054Y-10458D02*
X11824Y-10482D01*
X12054Y-10458D02*
X12309Y-10400D01*
X12547Y-10393D02*
X12309Y-10400D01*
X12547Y-10393D02*
X12616Y-10306D01*
X12616Y-10306D02*
X12607Y-09680D01*
X12607Y-09680D02*
X12649Y-09587D01*
X12727Y-09535D02*
X12649Y-09587D01*
X10135Y-09492D02*
X08815Y-07988D01*
X08815Y-07988D02*
X08643Y-07911D01*
X12420Y-09053D02*
X12214Y-09207D01*
X12214Y-09207D02*
X11895Y-09380D01*
X11895Y-09380D02*
X11673Y-09931D01*
X11673Y-09931D02*
X11604Y-09974D01*
X11604Y-09974D02*
X11548Y-10008D01*
X11548Y-10008D02*
X11481Y-10015D01*
X11481Y-10015D02*
X11379Y-09981D01*
X11379Y-09981D02*
X11349Y-09920D01*
X11349Y-09920D02*
X11323Y-09862D01*
X11323Y-09862D02*
X11313Y-09761D01*
X11313Y-09761D02*
X11307Y-09638D01*
X11307Y-09638D02*
X11183Y-09558D01*
X11183Y-09558D02*
X11163Y-09545D01*
X11163Y-09545D02*
X11066Y-09512D01*
X11066Y-09512D02*
X10972Y-09464D01*
X10972Y-09464D02*
X10616Y-09103D01*
X10031Y-06855D02*
X10231Y-07060D01*
X10231Y-07060D02*
X10501Y-07161D01*
X10501Y-07161D02*
X11703Y-08574D01*
X11703Y-08574D02*
X11821Y-08904D01*
X11509Y-08911D02*
X11096Y-08762D01*
X11096Y-08762D02*
X10033Y-07166D01*
X11503Y-08594D02*
X10395Y-07320D01*
G54D34*
X-04806Y-03221D02*
X-00907Y-06384D01*
G54D33*
X-06241Y-23297D02*
X-06771Y-24164D01*
X-06771Y-24164D02*
X-06829Y-25430D01*
X-06829Y-25430D02*
X-07359Y-26023D01*
X-06241Y-26569D02*
X-07359Y-26023D01*
G54D32*
X00090Y-09880D02*
X-01298Y-10202D01*
X-01298Y-10202D02*
X-02211Y-10898D01*
X-02211Y-10898D02*
X-02414Y-11499D01*
X-02414Y-11499D02*
X-02655Y-11806D01*
X-02655Y-11806D02*
X-03135Y-11880D01*
X-03135Y-11880D02*
X-05430Y-10778D01*
X-05430Y-10778D02*
X-06461Y-10687D01*
X-06461Y-10687D02*
X-07026Y-10938D01*
X-07026Y-10938D02*
X-07612Y-11621D01*
X-07612Y-11621D02*
X-08049Y-12111D01*
X07999Y-17215D02*
X07385Y-16426D01*
X03407Y-12322D02*
X02020Y-12476D01*
X02020Y-12476D02*
X00101Y-12534D01*
X00101Y-12534D02*
X-00369Y-12723D01*
X-00369Y-12723D02*
X-01000Y-12600D01*
G54D35*
X30084Y-25254D02*
X32400Y-27350D01*
G54D32*
X41900Y-26500D02*
X44156Y-25425D01*
X44156Y-25425D02*
X44548Y-24953D01*
X44548Y-24953D02*
X44669Y-24535D01*
X41900Y-27500D02*
X41446Y-26810D01*
X41446Y-26810D02*
X41476Y-25295D01*
X41476Y-25295D02*
X41647Y-25074D01*
X41647Y-25074D02*
X43062Y-24622D01*
X43062Y-24622D02*
X43919Y-24035D01*
G54D34*
X12906Y03034D02*
X13170Y02069D01*
X13170Y02069D02*
X13153Y00512D01*
X13153Y00512D02*
X12906Y-00444D01*
G54D33*
X08447Y-09600D02*
X08436Y-09385D01*
X05953Y-09600D02*
X05949Y-09371D01*
X06099Y-08720D02*
X06400Y-08803D01*
X06400Y-08803D02*
X06650Y-08717D01*
X06650Y-08717D02*
X06900Y-08803D01*
X06900Y-08803D02*
X07153Y-08719D01*
X07153Y-08719D02*
X07400Y-08803D01*
X07400Y-08803D02*
X07656Y-08723D01*
X07656Y-08723D02*
X07900Y-08803D01*
X07900Y-08803D02*
X08184Y-08724D01*
X05949Y-09371D02*
X06099Y-08720D01*
X08184Y-08724D02*
X08436Y-09385D01*
X07495Y-08300D02*
X07496Y-08702D01*
X07496Y-08702D02*
X07656Y-08723D01*
X07397Y-07800D02*
X07438Y-08009D01*
X07438Y-08009D02*
X07495Y-08300D01*
G54D32*
X12159Y-11257D02*
X12403Y-11400D01*
X13035Y-10961D02*
X12797Y-11000D01*
X12205Y-10622D02*
X12403Y-10600D01*
X13003Y-10292D02*
X12797Y-10200D01*
X12192Y-09779D02*
X12403Y-09800D01*
G54D33*
X05948Y-10320D02*
X05953Y-10100D01*
X05948Y-10320D02*
X05897Y-10600D01*
X06195Y-10942D02*
X06400Y-10897D01*
X06400Y-10897D02*
X06601Y-10939D01*
X06601Y-10939D02*
X06900Y-10897D01*
X06900Y-10897D02*
X07192Y-10928D01*
X07192Y-10928D02*
X07400Y-10897D01*
X07400Y-10897D02*
X07596Y-10945D01*
X07596Y-10945D02*
X07900Y-10897D01*
X07900Y-10897D02*
X08150Y-10928D01*
X05897Y-10600D02*
X06195Y-10942D01*
X08150Y-10928D02*
X08503Y-10600D01*
X08450Y-10323D02*
X08503Y-10600D01*
X08450Y-10323D02*
X08447Y-10100D01*
X06905Y-11500D02*
X06900Y-10897D01*
X02100Y-12803D02*
X02378Y-12809D01*
X01000Y-15795D02*
X01056Y-16045D01*
X00500Y-15697D02*
X01000Y-15795D01*
G54D32*
X13900Y-07903D02*
X13904Y-07692D01*
X14297Y-11100D02*
X14299Y-10842D01*
G54D36*
X16931Y-02110D02*
X16400Y-01500D01*
X16931Y-02110D02*
X16914Y-09626D01*
X16914Y-09626D02*
X16400Y-10000D01*
X16882Y-10574D02*
X16400Y-10000D01*
X16882Y-10574D02*
X16916Y-18087D01*
X16916Y-18087D02*
X16400Y-18500D01*
G54D35*
X00100Y00100D02*
X00623Y-01764D01*
X00623Y-01764D02*
X07258Y-01850D01*
X07258Y-01850D02*
X10653Y-01865D01*
X14591Y-02221D02*
X15435Y-02242D01*
G54D36*
X15435Y-02242D02*
X16400Y-01500D01*
G54D35*
X10653Y-01865D02*
X14591Y-02221D01*
G54D32*
X41900Y-25500D02*
X43919Y-25035D01*
M02*
