G04 (created by PCBNEW-RS274X (2010-03-14)-final) date Sat 22 Oct 2011 03:19:19 PM EDT*
G01*
G70*
G90*
%MOIN*%
G04 Gerber Fmt 3.4, Leading zero omitted, Abs format*
%FSLAX34Y34*%
G04 APERTURE LIST*
%ADD10C,0.001000*%
%ADD11R,0.010600X0.015700*%
%ADD12R,0.023600X0.019700*%
%ADD13R,0.019700X0.023600*%
%ADD14R,0.035400X0.023600*%
%ADD15R,0.023600X0.035400*%
%ADD16R,0.013000X0.100000*%
%ADD17R,0.016500X0.023600*%
%ADD18R,0.031500X0.027600*%
%ADD19R,0.032000X0.013000*%
G04 APERTURE END LIST*
G54D10*
G54D11*
X22252Y-01500D03*
X22448Y-01500D03*
X34652Y-01500D03*
X34848Y-01500D03*
X40852Y-01500D03*
X41048Y-01500D03*
X28452Y-01500D03*
X28648Y-01500D03*
G54D12*
X23000Y09297D03*
X23000Y08903D03*
X23500Y09297D03*
X23500Y08903D03*
X22500Y09297D03*
X22500Y08903D03*
X22000Y09297D03*
X22000Y08903D03*
X29600Y09297D03*
X29600Y08903D03*
X30100Y09297D03*
X30100Y08903D03*
X29100Y09297D03*
X29100Y08903D03*
X28600Y09297D03*
X28600Y08903D03*
X32900Y09297D03*
X32900Y08903D03*
X33400Y09297D03*
X33400Y08903D03*
X32400Y09297D03*
X32400Y08903D03*
X31900Y09297D03*
X31900Y08903D03*
X26300Y09297D03*
X26300Y08903D03*
X26800Y09297D03*
X26800Y08903D03*
X25800Y09297D03*
X25800Y08903D03*
X25300Y09297D03*
X25300Y08903D03*
X27500Y13803D03*
X27500Y14197D03*
X27500Y13497D03*
X27500Y13103D03*
X27000Y13803D03*
X27000Y14197D03*
X28100Y15003D03*
X28100Y15397D03*
X25500Y13297D03*
X25500Y12903D03*
X25700Y11703D03*
X25700Y12097D03*
G54D13*
X28503Y11600D03*
X28897Y11600D03*
X25103Y12500D03*
X25497Y12500D03*
X27897Y12100D03*
X27503Y12100D03*
G54D12*
X28200Y13703D03*
X28200Y14097D03*
X26500Y13803D03*
X26500Y14197D03*
X26500Y13497D03*
X26500Y13103D03*
G54D14*
X27000Y12905D03*
X27000Y13495D03*
G54D15*
X27105Y14900D03*
X27695Y14900D03*
G54D16*
X17875Y-01900D03*
X18125Y-01900D03*
X18375Y-01900D03*
X18625Y-01900D03*
X18875Y-01900D03*
X19125Y-01900D03*
X19375Y-01900D03*
X19625Y-01900D03*
X19875Y-01900D03*
X20125Y-01900D03*
X20375Y-01900D03*
X20625Y-01900D03*
X20875Y-01900D03*
X21125Y-01900D03*
X21375Y-01900D03*
X21625Y-01900D03*
X21875Y-01900D03*
X22125Y-01900D03*
X30275Y-01900D03*
X30525Y-01900D03*
X30775Y-01900D03*
X31025Y-01900D03*
X31275Y-01900D03*
X31525Y-01900D03*
X31775Y-01900D03*
X32025Y-01900D03*
X32275Y-01900D03*
X32525Y-01900D03*
X32775Y-01900D03*
X33025Y-01900D03*
X33275Y-01900D03*
X33525Y-01900D03*
X33775Y-01900D03*
X34025Y-01900D03*
X34275Y-01900D03*
X34525Y-01900D03*
X36475Y-01900D03*
X36725Y-01900D03*
X36975Y-01900D03*
X37225Y-01900D03*
X37475Y-01900D03*
X37725Y-01900D03*
X37975Y-01900D03*
X38225Y-01900D03*
X38475Y-01900D03*
X38725Y-01900D03*
X38975Y-01900D03*
X39225Y-01900D03*
X39475Y-01900D03*
X39725Y-01900D03*
X39975Y-01900D03*
X40225Y-01900D03*
X40475Y-01900D03*
X40725Y-01900D03*
X24075Y-01900D03*
X24325Y-01900D03*
X24575Y-01900D03*
X24825Y-01900D03*
X25075Y-01900D03*
X25325Y-01900D03*
X25575Y-01900D03*
X25825Y-01900D03*
X26075Y-01900D03*
X26325Y-01900D03*
X26575Y-01900D03*
X26825Y-01900D03*
X27075Y-01900D03*
X27325Y-01900D03*
X27575Y-01900D03*
X27825Y-01900D03*
X28075Y-01900D03*
X28325Y-01900D03*
G54D17*
X26336Y12284D03*
G54D18*
X26789Y12284D03*
G54D17*
X26848Y11496D03*
X26336Y11496D03*
G54D13*
X31103Y15200D03*
X31497Y15200D03*
X32497Y15800D03*
X32103Y15800D03*
X31497Y14800D03*
X31103Y14800D03*
G54D19*
X33500Y15400D03*
X33500Y15150D03*
X33500Y14900D03*
X33500Y14650D03*
X33500Y14400D03*
X33500Y14150D03*
X33500Y13900D03*
X33500Y13650D03*
X33500Y13400D03*
G54D13*
X26097Y15100D03*
X25703Y15100D03*
M02*
