G04 (created by PCBNEW-RS274X (2010-03-14)-final) date Wed 26 Oct 2011 11:50:53 AM EDT*
G01*
G70*
G90*
%MOIN*%
G04 Gerber Fmt 3.4, Leading zero omitted, Abs format*
%FSLAX34Y34*%
G04 APERTURE LIST*
%ADD10C,0.001000*%
%ADD11C,0.005000*%
%ADD12C,0.015000*%
%ADD13C,0.003300*%
%ADD14C,0.010000*%
G04 APERTURE END LIST*
G54D10*
G54D11*
X00650Y-15850D02*
X00700Y-15800D01*
X00400Y-15500D02*
X00600Y-15500D01*
X01950Y-12650D02*
X01900Y-12700D01*
X02200Y-13000D02*
X02000Y-13000D01*
X06750Y-08650D02*
X06700Y-08700D01*
X07000Y-09000D02*
X06800Y-09000D01*
X05800Y-09750D02*
X05850Y-09800D01*
X06150Y-09500D02*
X06150Y-09700D01*
X07550Y-07650D02*
X07500Y-07600D01*
X07200Y-07900D02*
X07200Y-07700D01*
X01450Y-09250D02*
X01400Y-09300D01*
X01700Y-09600D02*
X01500Y-09600D01*
X01250Y-11250D02*
X01300Y-11200D01*
X01000Y-10900D02*
X01200Y-10900D01*
X00350Y-09850D02*
X00400Y-09900D01*
X00700Y-09600D02*
X00700Y-09800D01*
X12250Y-09950D02*
X12300Y-10000D01*
X12600Y-09700D02*
X12600Y-09900D01*
X12950Y-10850D02*
X12900Y-10800D01*
X12600Y-11100D02*
X12600Y-10900D01*
X14450Y-10950D02*
X14400Y-10900D01*
X14100Y-11200D02*
X14100Y-11000D01*
X12250Y-11550D02*
X12300Y-11600D01*
X12600Y-11300D02*
X12600Y-11500D01*
X13750Y-07750D02*
X13700Y-07800D01*
X14000Y-08100D02*
X13800Y-08100D01*
X12250Y-10750D02*
X12300Y-10800D01*
X12600Y-10500D02*
X12600Y-10700D01*
X04950Y-10150D02*
X05000Y-10200D01*
X05300Y-09900D02*
X05300Y-10100D01*
X04950Y-08550D02*
X05000Y-08600D01*
X05300Y-08300D02*
X05300Y-08500D01*
X00350Y-10550D02*
X00400Y-10600D01*
X00700Y-10300D02*
X00700Y-10500D01*
X07250Y-08650D02*
X07200Y-08700D01*
X07500Y-09000D02*
X07300Y-09000D01*
X07750Y-08650D02*
X07700Y-08700D01*
X08000Y-09000D02*
X07800Y-09000D01*
X06250Y-08650D02*
X06200Y-08700D01*
X06500Y-09000D02*
X06300Y-09000D01*
X08050Y-11050D02*
X08100Y-11000D01*
X07800Y-10700D02*
X08000Y-10700D01*
X08350Y-10750D02*
X08400Y-10800D01*
X08700Y-10500D02*
X08700Y-10700D01*
X06050Y-10450D02*
X06000Y-10400D01*
X05700Y-10700D02*
X05700Y-10500D01*
X07550Y-11050D02*
X07600Y-11000D01*
X07300Y-10700D02*
X07500Y-10700D01*
X07050Y-11050D02*
X07100Y-11000D01*
X06800Y-10700D02*
X07000Y-10700D01*
X06550Y-11050D02*
X06600Y-11000D01*
X06300Y-10700D02*
X06500Y-10700D01*
X08600Y-09950D02*
X08550Y-09900D01*
X08250Y-10200D02*
X08250Y-10000D01*
X05800Y-10250D02*
X05850Y-10300D01*
X06150Y-10000D02*
X06150Y-10200D01*
X12950Y-10050D02*
X12900Y-10000D01*
X12600Y-10300D02*
X12600Y-10100D01*
X08600Y-09450D02*
X08550Y-09400D01*
X08250Y-09700D02*
X08250Y-09500D01*
X00850Y-16000D02*
X00800Y-16000D01*
X00800Y-16000D02*
X00750Y-15950D01*
X00750Y-15950D02*
X00750Y-15900D01*
X01250Y-15900D02*
X01250Y-15950D01*
X01250Y-15950D02*
X01200Y-16000D01*
X01200Y-16000D02*
X01150Y-16000D01*
X01150Y-15500D02*
X00850Y-15500D01*
X07700Y-08450D02*
X07700Y-08500D01*
X07700Y-08500D02*
X07650Y-08550D01*
X07650Y-08550D02*
X07600Y-08550D01*
X07600Y-08050D02*
X07650Y-08050D01*
X07650Y-08050D02*
X07700Y-08100D01*
X07700Y-08100D02*
X07700Y-08150D01*
X07200Y-08150D02*
X07200Y-08450D01*
X01800Y-09050D02*
X01800Y-09000D01*
X01800Y-09000D02*
X01850Y-08950D01*
X01850Y-08950D02*
X01900Y-08950D01*
X01900Y-09450D02*
X01850Y-09450D01*
X01850Y-09450D02*
X01800Y-09400D01*
X01800Y-09400D02*
X01800Y-09350D01*
X02300Y-09350D02*
X02300Y-09050D01*
X-00150Y-10200D02*
X-00100Y-10200D01*
X-00100Y-10200D02*
X-00050Y-10250D01*
X-00050Y-10250D02*
X-00050Y-10300D01*
X-00550Y-10300D02*
X-00550Y-10250D01*
X-00550Y-10250D02*
X-00500Y-10200D01*
X-00500Y-10200D02*
X-00450Y-10200D01*
X-00450Y-10700D02*
X-00150Y-10700D01*
X06700Y-11350D02*
X06700Y-11300D01*
X06700Y-11300D02*
X06750Y-11250D01*
X06750Y-11250D02*
X06800Y-11250D01*
X06800Y-11750D02*
X06750Y-11750D01*
X06750Y-11750D02*
X06700Y-11700D01*
X06700Y-11700D02*
X06700Y-11650D01*
X07200Y-11650D02*
X07200Y-11350D01*
G54D12*
X-11849Y-15859D02*
X-11849Y-18259D01*
X-11849Y-18259D02*
X-05049Y-18259D01*
X-05049Y-18259D02*
X-05049Y-13259D01*
X-05049Y-13259D02*
X-11849Y-13259D01*
X-11849Y-13259D02*
X-11849Y-15859D01*
G54D13*
X00205Y-15325D02*
X00214Y-15315D01*
X00224Y-15287D01*
X00224Y-15268D01*
X00214Y-15239D01*
X00195Y-15220D01*
X00176Y-15211D01*
X00138Y-15201D01*
X00110Y-15201D01*
X00072Y-15211D01*
X00053Y-15220D01*
X00033Y-15239D01*
X00024Y-15268D01*
X00024Y-15287D01*
X00033Y-15315D01*
X00043Y-15325D01*
X00024Y-15496D02*
X00024Y-15458D01*
X00033Y-15439D01*
X00043Y-15430D01*
X00072Y-15411D01*
X00110Y-15401D01*
X00186Y-15401D01*
X00205Y-15411D01*
X00214Y-15420D01*
X00224Y-15439D01*
X00224Y-15477D01*
X00214Y-15496D01*
X00205Y-15506D01*
X00186Y-15515D01*
X00138Y-15515D01*
X00119Y-15506D01*
X00110Y-15496D01*
X00100Y-15477D01*
X00100Y-15439D01*
X00110Y-15420D01*
X00119Y-15411D01*
X00138Y-15401D01*
X00091Y-15686D02*
X00224Y-15686D01*
X00014Y-15639D02*
X00157Y-15591D01*
X00157Y-15715D01*
X-00308Y-15149D02*
X-00308Y-15168D01*
X-00299Y-15187D01*
X-00289Y-15196D01*
X-00270Y-15206D01*
X-00232Y-15215D01*
X-00184Y-15215D01*
X-00146Y-15206D01*
X-00127Y-15196D01*
X-00118Y-15187D01*
X-00108Y-15168D01*
X-00108Y-15149D01*
X-00118Y-15130D01*
X-00127Y-15120D01*
X-00146Y-15111D01*
X-00184Y-15101D01*
X-00232Y-15101D01*
X-00270Y-15111D01*
X-00289Y-15120D01*
X-00299Y-15130D01*
X-00308Y-15149D01*
X-00127Y-15301D02*
X-00118Y-15310D01*
X-00108Y-15301D01*
X-00118Y-15291D01*
X-00127Y-15301D01*
X-00108Y-15301D01*
X-00108Y-15500D02*
X-00108Y-15386D01*
X-00108Y-15443D02*
X-00308Y-15443D01*
X-00279Y-15424D01*
X-00260Y-15405D01*
X-00251Y-15386D01*
X-00241Y-15671D02*
X-00108Y-15671D01*
X-00241Y-15586D02*
X-00137Y-15586D01*
X-00118Y-15595D01*
X-00108Y-15614D01*
X-00108Y-15643D01*
X-00118Y-15662D01*
X-00127Y-15671D01*
X-00241Y-15738D02*
X-00241Y-15814D01*
X-00108Y-15767D02*
X-00279Y-15767D01*
X-00299Y-15776D01*
X-00308Y-15795D01*
X-00308Y-15814D01*
X01826Y-12885D02*
X01835Y-12875D01*
X01845Y-12847D01*
X01845Y-12828D01*
X01835Y-12799D01*
X01816Y-12780D01*
X01797Y-12771D01*
X01759Y-12761D01*
X01731Y-12761D01*
X01693Y-12771D01*
X01674Y-12780D01*
X01654Y-12799D01*
X01645Y-12828D01*
X01645Y-12847D01*
X01654Y-12875D01*
X01664Y-12885D01*
X01645Y-13056D02*
X01645Y-13018D01*
X01654Y-12999D01*
X01664Y-12990D01*
X01693Y-12971D01*
X01731Y-12961D01*
X01807Y-12961D01*
X01826Y-12971D01*
X01835Y-12980D01*
X01845Y-12999D01*
X01845Y-13037D01*
X01835Y-13056D01*
X01826Y-13066D01*
X01807Y-13075D01*
X01759Y-13075D01*
X01740Y-13066D01*
X01731Y-13056D01*
X01721Y-13037D01*
X01721Y-12999D01*
X01731Y-12980D01*
X01740Y-12971D01*
X01759Y-12961D01*
X01845Y-13170D02*
X01845Y-13208D01*
X01835Y-13227D01*
X01826Y-13237D01*
X01797Y-13256D01*
X01759Y-13265D01*
X01683Y-13265D01*
X01664Y-13256D01*
X01654Y-13246D01*
X01645Y-13227D01*
X01645Y-13189D01*
X01654Y-13170D01*
X01664Y-13161D01*
X01683Y-13151D01*
X01731Y-13151D01*
X01750Y-13161D01*
X01759Y-13170D01*
X01769Y-13189D01*
X01769Y-13227D01*
X01759Y-13246D01*
X01750Y-13256D01*
X01731Y-13265D01*
X02492Y-12942D02*
X02492Y-12828D01*
X02492Y-12885D02*
X02292Y-12885D01*
X02321Y-12866D01*
X02340Y-12847D01*
X02349Y-12828D01*
X02359Y-13113D02*
X02492Y-13113D01*
X02359Y-13028D02*
X02463Y-13028D01*
X02482Y-13037D01*
X02492Y-13056D01*
X02492Y-13085D01*
X02482Y-13104D01*
X02473Y-13113D01*
X02359Y-13180D02*
X02359Y-13256D01*
X02492Y-13209D02*
X02321Y-13209D01*
X02301Y-13218D01*
X02292Y-13237D01*
X02292Y-13256D01*
X07223Y-07052D02*
X07337Y-07052D01*
X07280Y-07052D02*
X07280Y-06852D01*
X07299Y-06881D01*
X07318Y-06900D01*
X07337Y-06909D01*
X07052Y-06919D02*
X07052Y-07052D01*
X07137Y-06919D02*
X07137Y-07023D01*
X07128Y-07042D01*
X07109Y-07052D01*
X07080Y-07052D01*
X07061Y-07042D01*
X07052Y-07033D01*
X06985Y-06919D02*
X06909Y-06919D01*
X06956Y-07052D02*
X06956Y-06881D01*
X06947Y-06861D01*
X06928Y-06852D01*
X06909Y-06852D01*
X02214Y-09983D02*
X02224Y-09992D01*
X02252Y-10002D01*
X02271Y-10002D01*
X02300Y-09992D01*
X02319Y-09973D01*
X02328Y-09954D01*
X02338Y-09916D01*
X02338Y-09888D01*
X02328Y-09850D01*
X02319Y-09831D01*
X02300Y-09811D01*
X02271Y-09802D01*
X02252Y-09802D01*
X02224Y-09811D01*
X02214Y-09821D01*
X02147Y-09802D02*
X02024Y-09802D01*
X02090Y-09878D01*
X02062Y-09878D01*
X02043Y-09888D01*
X02033Y-09897D01*
X02024Y-09916D01*
X02024Y-09964D01*
X02033Y-09983D01*
X02043Y-09992D01*
X02062Y-10002D01*
X02119Y-10002D01*
X02138Y-09992D01*
X02147Y-09983D01*
X01948Y-09821D02*
X01938Y-09811D01*
X01919Y-09802D01*
X01872Y-09802D01*
X01853Y-09811D01*
X01843Y-09821D01*
X01834Y-09840D01*
X01834Y-09859D01*
X01843Y-09888D01*
X01957Y-10002D01*
X01834Y-10002D01*
X02517Y-09681D02*
X02631Y-09681D01*
X02574Y-09681D02*
X02574Y-09481D01*
X02593Y-09510D01*
X02612Y-09529D01*
X02631Y-09538D01*
X02346Y-09548D02*
X02346Y-09681D01*
X02431Y-09548D02*
X02431Y-09652D01*
X02422Y-09671D01*
X02403Y-09681D01*
X02374Y-09681D01*
X02355Y-09671D01*
X02346Y-09662D01*
X02279Y-09548D02*
X02203Y-09548D01*
X02250Y-09681D02*
X02250Y-09510D01*
X02241Y-09490D01*
X02222Y-09481D01*
X02203Y-09481D01*
X01801Y-10975D02*
X01811Y-10984D01*
X01839Y-10994D01*
X01858Y-10994D01*
X01887Y-10984D01*
X01906Y-10965D01*
X01915Y-10946D01*
X01925Y-10908D01*
X01925Y-10880D01*
X01915Y-10842D01*
X01906Y-10823D01*
X01887Y-10803D01*
X01858Y-10794D01*
X01839Y-10794D01*
X01811Y-10803D01*
X01801Y-10813D01*
X01734Y-10794D02*
X01611Y-10794D01*
X01677Y-10870D01*
X01649Y-10870D01*
X01630Y-10880D01*
X01620Y-10889D01*
X01611Y-10908D01*
X01611Y-10956D01*
X01620Y-10975D01*
X01630Y-10984D01*
X01649Y-10994D01*
X01706Y-10994D01*
X01725Y-10984D01*
X01734Y-10975D01*
X01544Y-10794D02*
X01411Y-10794D01*
X01497Y-10994D01*
X01251Y-11226D02*
X01232Y-11226D01*
X01213Y-11235D01*
X01204Y-11245D01*
X01194Y-11264D01*
X01185Y-11302D01*
X01185Y-11350D01*
X01194Y-11388D01*
X01204Y-11407D01*
X01213Y-11416D01*
X01232Y-11426D01*
X01251Y-11426D01*
X01270Y-11416D01*
X01280Y-11407D01*
X01289Y-11388D01*
X01299Y-11350D01*
X01299Y-11302D01*
X01289Y-11264D01*
X01280Y-11245D01*
X01270Y-11235D01*
X01251Y-11226D01*
X01099Y-11407D02*
X01090Y-11416D01*
X01099Y-11426D01*
X01109Y-11416D01*
X01099Y-11407D01*
X01099Y-11426D01*
X00900Y-11426D02*
X01014Y-11426D01*
X00957Y-11426D02*
X00957Y-11226D01*
X00976Y-11255D01*
X00995Y-11274D01*
X01014Y-11283D01*
X00729Y-11293D02*
X00729Y-11426D01*
X00814Y-11293D02*
X00814Y-11397D01*
X00805Y-11416D01*
X00786Y-11426D01*
X00757Y-11426D01*
X00738Y-11416D01*
X00729Y-11407D01*
X00662Y-11293D02*
X00586Y-11293D01*
X00633Y-11426D02*
X00633Y-11255D01*
X00624Y-11235D01*
X00605Y-11226D01*
X00586Y-11226D01*
X00790Y-10084D02*
X00800Y-10093D01*
X00828Y-10103D01*
X00847Y-10103D01*
X00876Y-10093D01*
X00895Y-10074D01*
X00904Y-10055D01*
X00914Y-10017D01*
X00914Y-09989D01*
X00904Y-09951D01*
X00895Y-09932D01*
X00876Y-09912D01*
X00847Y-09903D01*
X00828Y-09903D01*
X00800Y-09912D01*
X00790Y-09922D01*
X00723Y-09903D02*
X00600Y-09903D01*
X00666Y-09979D01*
X00638Y-09979D01*
X00619Y-09989D01*
X00609Y-09998D01*
X00600Y-10017D01*
X00600Y-10065D01*
X00609Y-10084D01*
X00619Y-10093D01*
X00638Y-10103D01*
X00695Y-10103D01*
X00714Y-10093D01*
X00723Y-10084D01*
X00533Y-09903D02*
X00410Y-09903D01*
X00476Y-09979D01*
X00448Y-09979D01*
X00429Y-09989D01*
X00419Y-09998D01*
X00410Y-10017D01*
X00410Y-10065D01*
X00419Y-10084D01*
X00429Y-10093D01*
X00448Y-10103D01*
X00505Y-10103D01*
X00524Y-10093D01*
X00533Y-10084D01*
X00961Y-09254D02*
X00942Y-09254D01*
X00923Y-09263D01*
X00914Y-09273D01*
X00904Y-09292D01*
X00895Y-09330D01*
X00895Y-09378D01*
X00904Y-09416D01*
X00914Y-09435D01*
X00923Y-09444D01*
X00942Y-09454D01*
X00961Y-09454D01*
X00980Y-09444D01*
X00990Y-09435D01*
X00999Y-09416D01*
X01009Y-09378D01*
X01009Y-09330D01*
X00999Y-09292D01*
X00990Y-09273D01*
X00980Y-09263D01*
X00961Y-09254D01*
X00809Y-09435D02*
X00800Y-09444D01*
X00809Y-09454D01*
X00819Y-09444D01*
X00809Y-09435D01*
X00809Y-09454D01*
X00610Y-09454D02*
X00724Y-09454D01*
X00667Y-09454D02*
X00667Y-09254D01*
X00686Y-09283D01*
X00705Y-09302D01*
X00724Y-09311D01*
X00439Y-09321D02*
X00439Y-09454D01*
X00524Y-09321D02*
X00524Y-09425D01*
X00515Y-09444D01*
X00496Y-09454D01*
X00467Y-09454D01*
X00448Y-09444D01*
X00439Y-09435D01*
X00372Y-09321D02*
X00296Y-09321D01*
X00343Y-09454D02*
X00343Y-09283D01*
X00334Y-09263D01*
X00315Y-09254D01*
X00296Y-09254D01*
X13374Y-09860D02*
X13384Y-09869D01*
X13412Y-09879D01*
X13431Y-09879D01*
X13460Y-09869D01*
X13479Y-09850D01*
X13488Y-09831D01*
X13498Y-09793D01*
X13498Y-09765D01*
X13488Y-09727D01*
X13479Y-09708D01*
X13460Y-09688D01*
X13431Y-09679D01*
X13412Y-09679D01*
X13384Y-09688D01*
X13374Y-09698D01*
X13260Y-09765D02*
X13279Y-09755D01*
X13288Y-09746D01*
X13298Y-09727D01*
X13298Y-09717D01*
X13288Y-09698D01*
X13279Y-09688D01*
X13260Y-09679D01*
X13222Y-09679D01*
X13203Y-09688D01*
X13193Y-09698D01*
X13184Y-09717D01*
X13184Y-09727D01*
X13193Y-09746D01*
X13203Y-09755D01*
X13222Y-09765D01*
X13260Y-09765D01*
X13279Y-09774D01*
X13288Y-09784D01*
X13298Y-09803D01*
X13298Y-09841D01*
X13288Y-09860D01*
X13279Y-09869D01*
X13260Y-09879D01*
X13222Y-09879D01*
X13203Y-09869D01*
X13193Y-09860D01*
X13184Y-09841D01*
X13184Y-09803D01*
X13193Y-09784D01*
X13203Y-09774D01*
X13222Y-09765D01*
X11760Y-09646D02*
X11741Y-09646D01*
X11722Y-09655D01*
X11713Y-09665D01*
X11703Y-09684D01*
X11694Y-09722D01*
X11694Y-09770D01*
X11703Y-09808D01*
X11713Y-09827D01*
X11722Y-09836D01*
X11741Y-09846D01*
X11760Y-09846D01*
X11779Y-09836D01*
X11789Y-09827D01*
X11798Y-09808D01*
X11808Y-09770D01*
X11808Y-09722D01*
X11798Y-09684D01*
X11789Y-09665D01*
X11779Y-09655D01*
X11760Y-09646D01*
X11608Y-09827D02*
X11599Y-09836D01*
X11608Y-09846D01*
X11618Y-09836D01*
X11608Y-09827D01*
X11608Y-09846D01*
X11409Y-09846D02*
X11523Y-09846D01*
X11466Y-09846D02*
X11466Y-09646D01*
X11485Y-09675D01*
X11504Y-09694D01*
X11523Y-09703D01*
X11238Y-09713D02*
X11238Y-09846D01*
X11323Y-09713D02*
X11323Y-09817D01*
X11314Y-09836D01*
X11295Y-09846D01*
X11266Y-09846D01*
X11247Y-09836D01*
X11238Y-09827D01*
X11171Y-09713D02*
X11095Y-09713D01*
X11142Y-09846D02*
X11142Y-09675D01*
X11133Y-09655D01*
X11114Y-09646D01*
X11095Y-09646D01*
X13324Y-11052D02*
X13334Y-11061D01*
X13362Y-11071D01*
X13381Y-11071D01*
X13410Y-11061D01*
X13429Y-11042D01*
X13438Y-11023D01*
X13448Y-10985D01*
X13448Y-10957D01*
X13438Y-10919D01*
X13429Y-10900D01*
X13410Y-10880D01*
X13381Y-10871D01*
X13362Y-10871D01*
X13334Y-10880D01*
X13324Y-10890D01*
X13153Y-10871D02*
X13191Y-10871D01*
X13210Y-10880D01*
X13219Y-10890D01*
X13238Y-10919D01*
X13248Y-10957D01*
X13248Y-11033D01*
X13238Y-11052D01*
X13229Y-11061D01*
X13210Y-11071D01*
X13172Y-11071D01*
X13153Y-11061D01*
X13143Y-11052D01*
X13134Y-11033D01*
X13134Y-10985D01*
X13143Y-10966D01*
X13153Y-10957D01*
X13172Y-10947D01*
X13210Y-10947D01*
X13229Y-10957D01*
X13238Y-10966D01*
X13248Y-10985D01*
X11828Y-10879D02*
X11809Y-10879D01*
X11790Y-10888D01*
X11781Y-10898D01*
X11771Y-10917D01*
X11762Y-10955D01*
X11762Y-11003D01*
X11771Y-11041D01*
X11781Y-11060D01*
X11790Y-11069D01*
X11809Y-11079D01*
X11828Y-11079D01*
X11847Y-11069D01*
X11857Y-11060D01*
X11866Y-11041D01*
X11876Y-11003D01*
X11876Y-10955D01*
X11866Y-10917D01*
X11857Y-10898D01*
X11847Y-10888D01*
X11828Y-10879D01*
X11676Y-11060D02*
X11667Y-11069D01*
X11676Y-11079D01*
X11686Y-11069D01*
X11676Y-11060D01*
X11676Y-11079D01*
X11477Y-11079D02*
X11591Y-11079D01*
X11534Y-11079D02*
X11534Y-10879D01*
X11553Y-10908D01*
X11572Y-10927D01*
X11591Y-10936D01*
X11306Y-10946D02*
X11306Y-11079D01*
X11391Y-10946D02*
X11391Y-11050D01*
X11382Y-11069D01*
X11363Y-11079D01*
X11334Y-11079D01*
X11315Y-11069D01*
X11306Y-11060D01*
X11239Y-10946D02*
X11163Y-10946D01*
X11210Y-11079D02*
X11210Y-10908D01*
X11201Y-10888D01*
X11182Y-10879D01*
X11163Y-10879D01*
X14151Y-10861D02*
X14161Y-10870D01*
X14189Y-10880D01*
X14208Y-10880D01*
X14237Y-10870D01*
X14256Y-10851D01*
X14265Y-10832D01*
X14275Y-10794D01*
X14275Y-10766D01*
X14265Y-10728D01*
X14256Y-10709D01*
X14237Y-10689D01*
X14208Y-10680D01*
X14189Y-10680D01*
X14161Y-10689D01*
X14151Y-10699D01*
X13970Y-10680D02*
X14065Y-10680D01*
X14075Y-10775D01*
X14065Y-10766D01*
X14046Y-10756D01*
X13999Y-10756D01*
X13980Y-10766D01*
X13970Y-10775D01*
X13961Y-10794D01*
X13961Y-10842D01*
X13970Y-10861D01*
X13980Y-10870D01*
X13999Y-10880D01*
X14046Y-10880D01*
X14065Y-10870D01*
X14075Y-10861D01*
X14204Y-11450D02*
X14318Y-11450D01*
X14261Y-11450D02*
X14261Y-11250D01*
X14280Y-11279D01*
X14299Y-11298D01*
X14318Y-11307D01*
X14033Y-11317D02*
X14033Y-11450D01*
X14118Y-11317D02*
X14118Y-11421D01*
X14109Y-11440D01*
X14090Y-11450D01*
X14061Y-11450D01*
X14042Y-11440D01*
X14033Y-11431D01*
X13966Y-11317D02*
X13890Y-11317D01*
X13937Y-11450D02*
X13937Y-11279D01*
X13928Y-11259D01*
X13909Y-11250D01*
X13890Y-11250D01*
X13337Y-11476D02*
X13347Y-11485D01*
X13375Y-11495D01*
X13394Y-11495D01*
X13423Y-11485D01*
X13442Y-11466D01*
X13451Y-11447D01*
X13461Y-11409D01*
X13461Y-11381D01*
X13451Y-11343D01*
X13442Y-11324D01*
X13423Y-11304D01*
X13394Y-11295D01*
X13375Y-11295D01*
X13347Y-11304D01*
X13337Y-11314D01*
X13270Y-11295D02*
X13147Y-11295D01*
X13213Y-11371D01*
X13185Y-11371D01*
X13166Y-11381D01*
X13156Y-11390D01*
X13147Y-11409D01*
X13147Y-11457D01*
X13156Y-11476D01*
X13166Y-11485D01*
X13185Y-11495D01*
X13242Y-11495D01*
X13261Y-11485D01*
X13270Y-11476D01*
X11910Y-11479D02*
X12024Y-11479D01*
X11967Y-11479D02*
X11967Y-11279D01*
X11986Y-11308D01*
X12005Y-11327D01*
X12024Y-11336D01*
X11739Y-11346D02*
X11739Y-11479D01*
X11824Y-11346D02*
X11824Y-11450D01*
X11815Y-11469D01*
X11796Y-11479D01*
X11767Y-11479D01*
X11748Y-11469D01*
X11739Y-11460D01*
X11672Y-11346D02*
X11596Y-11346D01*
X11643Y-11479D02*
X11643Y-11308D01*
X11634Y-11288D01*
X11615Y-11279D01*
X11596Y-11279D01*
X14546Y-08168D02*
X14556Y-08177D01*
X14584Y-08187D01*
X14603Y-08187D01*
X14632Y-08177D01*
X14651Y-08158D01*
X14660Y-08139D01*
X14670Y-08101D01*
X14670Y-08073D01*
X14660Y-08035D01*
X14651Y-08016D01*
X14632Y-07996D01*
X14603Y-07987D01*
X14584Y-07987D01*
X14556Y-07996D01*
X14546Y-08006D01*
X14356Y-08187D02*
X14470Y-08187D01*
X14413Y-08187D02*
X14413Y-07987D01*
X14432Y-08016D01*
X14451Y-08035D01*
X14470Y-08044D01*
X14232Y-07987D02*
X14213Y-07987D01*
X14194Y-07996D01*
X14185Y-08006D01*
X14175Y-08025D01*
X14166Y-08063D01*
X14166Y-08111D01*
X14175Y-08149D01*
X14185Y-08168D01*
X14194Y-08177D01*
X14213Y-08187D01*
X14232Y-08187D01*
X14251Y-08177D01*
X14261Y-08168D01*
X14270Y-08149D01*
X14280Y-08111D01*
X14280Y-08063D01*
X14270Y-08025D01*
X14261Y-08006D01*
X14251Y-07996D01*
X14232Y-07987D01*
X13358Y-07971D02*
X13339Y-07971D01*
X13320Y-07980D01*
X13311Y-07990D01*
X13301Y-08009D01*
X13292Y-08047D01*
X13292Y-08095D01*
X13301Y-08133D01*
X13311Y-08152D01*
X13320Y-08161D01*
X13339Y-08171D01*
X13358Y-08171D01*
X13377Y-08161D01*
X13387Y-08152D01*
X13396Y-08133D01*
X13406Y-08095D01*
X13406Y-08047D01*
X13396Y-08009D01*
X13387Y-07990D01*
X13377Y-07980D01*
X13358Y-07971D01*
X13206Y-08152D02*
X13197Y-08161D01*
X13206Y-08171D01*
X13216Y-08161D01*
X13206Y-08152D01*
X13206Y-08171D01*
X13007Y-08171D02*
X13121Y-08171D01*
X13064Y-08171D02*
X13064Y-07971D01*
X13083Y-08000D01*
X13102Y-08019D01*
X13121Y-08028D01*
X12836Y-08038D02*
X12836Y-08171D01*
X12921Y-08038D02*
X12921Y-08142D01*
X12912Y-08161D01*
X12893Y-08171D01*
X12864Y-08171D01*
X12845Y-08161D01*
X12836Y-08152D01*
X12769Y-08038D02*
X12693Y-08038D01*
X12740Y-08171D02*
X12740Y-08000D01*
X12731Y-07980D01*
X12712Y-07971D01*
X12693Y-07971D01*
X13449Y-10652D02*
X13459Y-10661D01*
X13487Y-10671D01*
X13506Y-10671D01*
X13535Y-10661D01*
X13554Y-10642D01*
X13563Y-10623D01*
X13573Y-10585D01*
X13573Y-10557D01*
X13563Y-10519D01*
X13554Y-10500D01*
X13535Y-10480D01*
X13506Y-10471D01*
X13487Y-10471D01*
X13459Y-10480D01*
X13449Y-10490D01*
X13259Y-10671D02*
X13373Y-10671D01*
X13316Y-10671D02*
X13316Y-10471D01*
X13335Y-10500D01*
X13354Y-10519D01*
X13373Y-10528D01*
X13069Y-10671D02*
X13183Y-10671D01*
X13126Y-10671D02*
X13126Y-10471D01*
X13145Y-10500D01*
X13164Y-10519D01*
X13183Y-10528D01*
X11768Y-10467D02*
X11749Y-10467D01*
X11730Y-10476D01*
X11721Y-10486D01*
X11711Y-10505D01*
X11702Y-10543D01*
X11702Y-10591D01*
X11711Y-10629D01*
X11721Y-10648D01*
X11730Y-10657D01*
X11749Y-10667D01*
X11768Y-10667D01*
X11787Y-10657D01*
X11797Y-10648D01*
X11806Y-10629D01*
X11816Y-10591D01*
X11816Y-10543D01*
X11806Y-10505D01*
X11797Y-10486D01*
X11787Y-10476D01*
X11768Y-10467D01*
X11616Y-10648D02*
X11607Y-10657D01*
X11616Y-10667D01*
X11626Y-10657D01*
X11616Y-10648D01*
X11616Y-10667D01*
X11417Y-10667D02*
X11531Y-10667D01*
X11474Y-10667D02*
X11474Y-10467D01*
X11493Y-10496D01*
X11512Y-10515D01*
X11531Y-10524D01*
X11246Y-10534D02*
X11246Y-10667D01*
X11331Y-10534D02*
X11331Y-10638D01*
X11322Y-10657D01*
X11303Y-10667D01*
X11274Y-10667D01*
X11255Y-10657D01*
X11246Y-10648D01*
X11179Y-10534D02*
X11103Y-10534D01*
X11150Y-10667D02*
X11150Y-10496D01*
X11141Y-10476D01*
X11122Y-10467D01*
X11103Y-10467D01*
X05298Y-10197D02*
X05165Y-10197D01*
X05251Y-10397D01*
X05089Y-10264D02*
X05089Y-10464D01*
X05089Y-10273D02*
X05070Y-10264D01*
X05032Y-10264D01*
X05013Y-10273D01*
X05004Y-10283D01*
X04994Y-10302D01*
X04994Y-10359D01*
X05004Y-10378D01*
X05013Y-10387D01*
X05032Y-10397D01*
X05070Y-10397D01*
X05089Y-10387D01*
X04937Y-10264D02*
X04861Y-10264D01*
X04908Y-10397D02*
X04908Y-10226D01*
X04899Y-10206D01*
X04880Y-10197D01*
X04861Y-10197D01*
X05515Y-07996D02*
X05382Y-07996D01*
X05468Y-08196D01*
X05306Y-08063D02*
X05306Y-08263D01*
X05306Y-08072D02*
X05287Y-08063D01*
X05249Y-08063D01*
X05230Y-08072D01*
X05221Y-08082D01*
X05211Y-08101D01*
X05211Y-08158D01*
X05221Y-08177D01*
X05230Y-08186D01*
X05249Y-08196D01*
X05287Y-08196D01*
X05306Y-08186D01*
X05154Y-08063D02*
X05078Y-08063D01*
X05125Y-08196D02*
X05125Y-08025D01*
X05116Y-08005D01*
X05097Y-07996D01*
X05078Y-07996D01*
X00702Y-10768D02*
X00712Y-10777D01*
X00740Y-10787D01*
X00759Y-10787D01*
X00788Y-10777D01*
X00807Y-10758D01*
X00816Y-10739D01*
X00826Y-10701D01*
X00826Y-10673D01*
X00816Y-10635D01*
X00807Y-10616D01*
X00788Y-10596D01*
X00759Y-10587D01*
X00740Y-10587D01*
X00712Y-10596D01*
X00702Y-10606D01*
X00531Y-10654D02*
X00531Y-10787D01*
X00578Y-10577D02*
X00626Y-10720D01*
X00502Y-10720D01*
X00436Y-10606D02*
X00426Y-10596D01*
X00407Y-10587D01*
X00360Y-10587D01*
X00341Y-10596D01*
X00331Y-10606D01*
X00322Y-10625D01*
X00322Y-10644D01*
X00331Y-10673D01*
X00445Y-10787D01*
X00322Y-10787D01*
X01951Y-10266D02*
X01932Y-10266D01*
X01913Y-10275D01*
X01904Y-10285D01*
X01894Y-10304D01*
X01885Y-10342D01*
X01885Y-10390D01*
X01894Y-10428D01*
X01904Y-10447D01*
X01913Y-10456D01*
X01932Y-10466D01*
X01951Y-10466D01*
X01970Y-10456D01*
X01980Y-10447D01*
X01989Y-10428D01*
X01999Y-10390D01*
X01999Y-10342D01*
X01989Y-10304D01*
X01980Y-10285D01*
X01970Y-10275D01*
X01951Y-10266D01*
X01799Y-10447D02*
X01790Y-10456D01*
X01799Y-10466D01*
X01809Y-10456D01*
X01799Y-10447D01*
X01799Y-10466D01*
X01600Y-10466D02*
X01714Y-10466D01*
X01657Y-10466D02*
X01657Y-10266D01*
X01676Y-10295D01*
X01695Y-10314D01*
X01714Y-10323D01*
X01429Y-10333D02*
X01429Y-10466D01*
X01514Y-10333D02*
X01514Y-10437D01*
X01505Y-10456D01*
X01486Y-10466D01*
X01457Y-10466D01*
X01438Y-10456D01*
X01429Y-10447D01*
X01362Y-10333D02*
X01286Y-10333D01*
X01333Y-10466D02*
X01333Y-10295D01*
X01324Y-10275D01*
X01305Y-10266D01*
X01286Y-10266D01*
X07638Y-07556D02*
X07638Y-07575D01*
X07647Y-07594D01*
X07657Y-07603D01*
X07676Y-07613D01*
X07714Y-07622D01*
X07762Y-07622D01*
X07800Y-07613D01*
X07819Y-07603D01*
X07828Y-07594D01*
X07838Y-07575D01*
X07838Y-07556D01*
X07828Y-07537D01*
X07819Y-07527D01*
X07800Y-07518D01*
X07762Y-07508D01*
X07714Y-07508D01*
X07676Y-07518D01*
X07657Y-07527D01*
X07647Y-07537D01*
X07638Y-07556D01*
X07819Y-07708D02*
X07828Y-07717D01*
X07838Y-07708D01*
X07828Y-07698D01*
X07819Y-07708D01*
X07838Y-07708D01*
X07638Y-07841D02*
X07638Y-07860D01*
X07647Y-07879D01*
X07657Y-07888D01*
X07676Y-07898D01*
X07714Y-07907D01*
X07762Y-07907D01*
X07800Y-07898D01*
X07819Y-07888D01*
X07828Y-07879D01*
X07838Y-07860D01*
X07838Y-07841D01*
X07828Y-07822D01*
X07819Y-07812D01*
X07800Y-07803D01*
X07762Y-07793D01*
X07714Y-07793D01*
X07676Y-07803D01*
X07657Y-07812D01*
X07647Y-07822D01*
X07638Y-07841D01*
X07838Y-08097D02*
X07838Y-07983D01*
X07838Y-08040D02*
X07638Y-08040D01*
X07667Y-08021D01*
X07686Y-08002D01*
X07695Y-07983D01*
X07705Y-08268D02*
X07838Y-08268D01*
X07705Y-08183D02*
X07809Y-08183D01*
X07828Y-08192D01*
X07838Y-08211D01*
X07838Y-08240D01*
X07828Y-08259D01*
X07819Y-08268D01*
X07705Y-08335D02*
X07705Y-08411D01*
X07838Y-08364D02*
X07667Y-08364D01*
X07647Y-08373D01*
X07638Y-08392D01*
X07638Y-08411D01*
X08094Y-08286D02*
X08094Y-08305D01*
X08103Y-08324D01*
X08113Y-08333D01*
X08132Y-08343D01*
X08170Y-08352D01*
X08218Y-08352D01*
X08256Y-08343D01*
X08275Y-08333D01*
X08284Y-08324D01*
X08294Y-08305D01*
X08294Y-08286D01*
X08284Y-08267D01*
X08275Y-08257D01*
X08256Y-08248D01*
X08218Y-08238D01*
X08170Y-08238D01*
X08132Y-08248D01*
X08113Y-08257D01*
X08103Y-08267D01*
X08094Y-08286D01*
X08275Y-08438D02*
X08284Y-08447D01*
X08294Y-08438D01*
X08284Y-08428D01*
X08275Y-08438D01*
X08294Y-08438D01*
X08094Y-08571D02*
X08094Y-08590D01*
X08103Y-08609D01*
X08113Y-08618D01*
X08132Y-08628D01*
X08170Y-08637D01*
X08218Y-08637D01*
X08256Y-08628D01*
X08275Y-08618D01*
X08284Y-08609D01*
X08294Y-08590D01*
X08294Y-08571D01*
X08284Y-08552D01*
X08275Y-08542D01*
X08256Y-08533D01*
X08218Y-08523D01*
X08170Y-08523D01*
X08132Y-08533D01*
X08113Y-08542D01*
X08103Y-08552D01*
X08094Y-08571D01*
X08294Y-08827D02*
X08294Y-08713D01*
X08294Y-08770D02*
X08094Y-08770D01*
X08123Y-08751D01*
X08142Y-08732D01*
X08151Y-08713D01*
X08161Y-08998D02*
X08294Y-08998D01*
X08161Y-08913D02*
X08265Y-08913D01*
X08284Y-08922D01*
X08294Y-08941D01*
X08294Y-08970D01*
X08284Y-08989D01*
X08275Y-08998D01*
X08161Y-09065D02*
X08161Y-09141D01*
X08294Y-09094D02*
X08123Y-09094D01*
X08103Y-09103D01*
X08094Y-09122D01*
X08094Y-09141D01*
X06316Y-07556D02*
X06316Y-07575D01*
X06325Y-07594D01*
X06335Y-07603D01*
X06354Y-07613D01*
X06392Y-07622D01*
X06440Y-07622D01*
X06478Y-07613D01*
X06497Y-07603D01*
X06506Y-07594D01*
X06516Y-07575D01*
X06516Y-07556D01*
X06506Y-07537D01*
X06497Y-07527D01*
X06478Y-07518D01*
X06440Y-07508D01*
X06392Y-07508D01*
X06354Y-07518D01*
X06335Y-07527D01*
X06325Y-07537D01*
X06316Y-07556D01*
X06497Y-07708D02*
X06506Y-07717D01*
X06516Y-07708D01*
X06506Y-07698D01*
X06497Y-07708D01*
X06516Y-07708D01*
X06316Y-07841D02*
X06316Y-07860D01*
X06325Y-07879D01*
X06335Y-07888D01*
X06354Y-07898D01*
X06392Y-07907D01*
X06440Y-07907D01*
X06478Y-07898D01*
X06497Y-07888D01*
X06506Y-07879D01*
X06516Y-07860D01*
X06516Y-07841D01*
X06506Y-07822D01*
X06497Y-07812D01*
X06478Y-07803D01*
X06440Y-07793D01*
X06392Y-07793D01*
X06354Y-07803D01*
X06335Y-07812D01*
X06325Y-07822D01*
X06316Y-07841D01*
X06516Y-08097D02*
X06516Y-07983D01*
X06516Y-08040D02*
X06316Y-08040D01*
X06345Y-08021D01*
X06364Y-08002D01*
X06373Y-07983D01*
X06383Y-08268D02*
X06516Y-08268D01*
X06383Y-08183D02*
X06487Y-08183D01*
X06506Y-08192D01*
X06516Y-08211D01*
X06516Y-08240D01*
X06506Y-08259D01*
X06497Y-08268D01*
X06383Y-08335D02*
X06383Y-08411D01*
X06516Y-08364D02*
X06345Y-08364D01*
X06325Y-08373D01*
X06316Y-08392D01*
X06316Y-08411D01*
X07795Y-11270D02*
X07795Y-11289D01*
X07804Y-11308D01*
X07814Y-11317D01*
X07833Y-11327D01*
X07871Y-11336D01*
X07919Y-11336D01*
X07957Y-11327D01*
X07976Y-11317D01*
X07985Y-11308D01*
X07995Y-11289D01*
X07995Y-11270D01*
X07985Y-11251D01*
X07976Y-11241D01*
X07957Y-11232D01*
X07919Y-11222D01*
X07871Y-11222D01*
X07833Y-11232D01*
X07814Y-11241D01*
X07804Y-11251D01*
X07795Y-11270D01*
X07976Y-11422D02*
X07985Y-11431D01*
X07995Y-11422D01*
X07985Y-11412D01*
X07976Y-11422D01*
X07995Y-11422D01*
X07995Y-11621D02*
X07995Y-11507D01*
X07995Y-11564D02*
X07795Y-11564D01*
X07824Y-11545D01*
X07843Y-11526D01*
X07852Y-11507D01*
X07862Y-11792D02*
X07995Y-11792D01*
X07862Y-11707D02*
X07966Y-11707D01*
X07985Y-11716D01*
X07995Y-11735D01*
X07995Y-11764D01*
X07985Y-11783D01*
X07976Y-11792D01*
X07862Y-11859D02*
X07862Y-11935D01*
X07995Y-11888D02*
X07824Y-11888D01*
X07804Y-11897D01*
X07795Y-11916D01*
X07795Y-11935D01*
X09482Y-10683D02*
X09596Y-10683D01*
X09539Y-10683D02*
X09539Y-10483D01*
X09558Y-10512D01*
X09577Y-10531D01*
X09596Y-10540D01*
X09311Y-10550D02*
X09311Y-10683D01*
X09396Y-10550D02*
X09396Y-10654D01*
X09387Y-10673D01*
X09368Y-10683D01*
X09339Y-10683D01*
X09320Y-10673D01*
X09311Y-10664D01*
X09244Y-10550D02*
X09168Y-10550D01*
X09215Y-10683D02*
X09215Y-10512D01*
X09206Y-10492D01*
X09187Y-10483D01*
X09168Y-10483D01*
X05711Y-10946D02*
X05825Y-10946D01*
X05768Y-10946D02*
X05768Y-10746D01*
X05787Y-10775D01*
X05806Y-10794D01*
X05825Y-10803D01*
X05540Y-10813D02*
X05540Y-10946D01*
X05625Y-10813D02*
X05625Y-10917D01*
X05616Y-10936D01*
X05597Y-10946D01*
X05568Y-10946D01*
X05549Y-10936D01*
X05540Y-10927D01*
X05473Y-10813D02*
X05397Y-10813D01*
X05444Y-10946D02*
X05444Y-10775D01*
X05435Y-10755D01*
X05416Y-10746D01*
X05397Y-10746D01*
X07404Y-12065D02*
X07404Y-12084D01*
X07413Y-12103D01*
X07423Y-12112D01*
X07442Y-12122D01*
X07480Y-12131D01*
X07528Y-12131D01*
X07566Y-12122D01*
X07585Y-12112D01*
X07594Y-12103D01*
X07604Y-12084D01*
X07604Y-12065D01*
X07594Y-12046D01*
X07585Y-12036D01*
X07566Y-12027D01*
X07528Y-12017D01*
X07480Y-12017D01*
X07442Y-12027D01*
X07423Y-12036D01*
X07413Y-12046D01*
X07404Y-12065D01*
X07585Y-12217D02*
X07594Y-12226D01*
X07604Y-12217D01*
X07594Y-12207D01*
X07585Y-12217D01*
X07604Y-12217D01*
X07604Y-12416D02*
X07604Y-12302D01*
X07604Y-12359D02*
X07404Y-12359D01*
X07433Y-12340D01*
X07452Y-12321D01*
X07461Y-12302D01*
X07471Y-12587D02*
X07604Y-12587D01*
X07471Y-12502D02*
X07575Y-12502D01*
X07594Y-12511D01*
X07604Y-12530D01*
X07604Y-12559D01*
X07594Y-12578D01*
X07585Y-12587D01*
X07471Y-12654D02*
X07471Y-12730D01*
X07604Y-12683D02*
X07433Y-12683D01*
X07413Y-12692D01*
X07404Y-12711D01*
X07404Y-12730D01*
X06754Y-12036D02*
X06754Y-12055D01*
X06763Y-12074D01*
X06773Y-12083D01*
X06792Y-12093D01*
X06830Y-12102D01*
X06878Y-12102D01*
X06916Y-12093D01*
X06935Y-12083D01*
X06944Y-12074D01*
X06954Y-12055D01*
X06954Y-12036D01*
X06944Y-12017D01*
X06935Y-12007D01*
X06916Y-11998D01*
X06878Y-11988D01*
X06830Y-11988D01*
X06792Y-11998D01*
X06773Y-12007D01*
X06763Y-12017D01*
X06754Y-12036D01*
X06935Y-12188D02*
X06944Y-12197D01*
X06954Y-12188D01*
X06944Y-12178D01*
X06935Y-12188D01*
X06954Y-12188D01*
X06954Y-12387D02*
X06954Y-12273D01*
X06954Y-12330D02*
X06754Y-12330D01*
X06783Y-12311D01*
X06802Y-12292D01*
X06811Y-12273D01*
X06821Y-12558D02*
X06954Y-12558D01*
X06821Y-12473D02*
X06925Y-12473D01*
X06944Y-12482D01*
X06954Y-12501D01*
X06954Y-12530D01*
X06944Y-12549D01*
X06935Y-12558D01*
X06821Y-12625D02*
X06821Y-12701D01*
X06954Y-12654D02*
X06783Y-12654D01*
X06763Y-12663D01*
X06754Y-12682D01*
X06754Y-12701D01*
X06263Y-11395D02*
X06263Y-11414D01*
X06272Y-11433D01*
X06282Y-11442D01*
X06301Y-11452D01*
X06339Y-11461D01*
X06387Y-11461D01*
X06425Y-11452D01*
X06444Y-11442D01*
X06453Y-11433D01*
X06463Y-11414D01*
X06463Y-11395D01*
X06453Y-11376D01*
X06444Y-11366D01*
X06425Y-11357D01*
X06387Y-11347D01*
X06339Y-11347D01*
X06301Y-11357D01*
X06282Y-11366D01*
X06272Y-11376D01*
X06263Y-11395D01*
X06444Y-11547D02*
X06453Y-11556D01*
X06463Y-11547D01*
X06453Y-11537D01*
X06444Y-11547D01*
X06463Y-11547D01*
X06463Y-11746D02*
X06463Y-11632D01*
X06463Y-11689D02*
X06263Y-11689D01*
X06292Y-11670D01*
X06311Y-11651D01*
X06320Y-11632D01*
X06330Y-11917D02*
X06463Y-11917D01*
X06330Y-11832D02*
X06434Y-11832D01*
X06453Y-11841D01*
X06463Y-11860D01*
X06463Y-11889D01*
X06453Y-11908D01*
X06444Y-11917D01*
X06330Y-11984D02*
X06330Y-12060D01*
X06463Y-12013D02*
X06292Y-12013D01*
X06272Y-12022D01*
X06263Y-12041D01*
X06263Y-12060D01*
X09474Y-09983D02*
X09455Y-09983D01*
X09436Y-09992D01*
X09427Y-10002D01*
X09417Y-10021D01*
X09408Y-10059D01*
X09408Y-10107D01*
X09417Y-10145D01*
X09427Y-10164D01*
X09436Y-10173D01*
X09455Y-10183D01*
X09474Y-10183D01*
X09493Y-10173D01*
X09503Y-10164D01*
X09512Y-10145D01*
X09522Y-10107D01*
X09522Y-10059D01*
X09512Y-10021D01*
X09503Y-10002D01*
X09493Y-09992D01*
X09474Y-09983D01*
X09322Y-10164D02*
X09313Y-10173D01*
X09322Y-10183D01*
X09332Y-10173D01*
X09322Y-10164D01*
X09322Y-10183D01*
X09123Y-10183D02*
X09237Y-10183D01*
X09180Y-10183D02*
X09180Y-09983D01*
X09199Y-10012D01*
X09218Y-10031D01*
X09237Y-10040D01*
X08952Y-10050D02*
X08952Y-10183D01*
X09037Y-10050D02*
X09037Y-10154D01*
X09028Y-10173D01*
X09009Y-10183D01*
X08980Y-10183D01*
X08961Y-10173D01*
X08952Y-10164D01*
X08885Y-10050D02*
X08809Y-10050D01*
X08856Y-10183D02*
X08856Y-10012D01*
X08847Y-09992D01*
X08828Y-09983D01*
X08809Y-09983D01*
X13516Y-10280D02*
X13526Y-10289D01*
X13554Y-10299D01*
X13573Y-10299D01*
X13602Y-10289D01*
X13621Y-10270D01*
X13630Y-10251D01*
X13640Y-10213D01*
X13640Y-10185D01*
X13630Y-10147D01*
X13621Y-10128D01*
X13602Y-10108D01*
X13573Y-10099D01*
X13554Y-10099D01*
X13526Y-10108D01*
X13516Y-10118D01*
X13326Y-10299D02*
X13440Y-10299D01*
X13383Y-10299D02*
X13383Y-10099D01*
X13402Y-10128D01*
X13421Y-10147D01*
X13440Y-10156D01*
X13259Y-10099D02*
X13136Y-10099D01*
X13202Y-10175D01*
X13174Y-10175D01*
X13155Y-10185D01*
X13145Y-10194D01*
X13136Y-10213D01*
X13136Y-10261D01*
X13145Y-10280D01*
X13155Y-10289D01*
X13174Y-10299D01*
X13231Y-10299D01*
X13250Y-10289D01*
X13259Y-10280D01*
X11743Y-10063D02*
X11724Y-10063D01*
X11705Y-10072D01*
X11696Y-10082D01*
X11686Y-10101D01*
X11677Y-10139D01*
X11677Y-10187D01*
X11686Y-10225D01*
X11696Y-10244D01*
X11705Y-10253D01*
X11724Y-10263D01*
X11743Y-10263D01*
X11762Y-10253D01*
X11772Y-10244D01*
X11781Y-10225D01*
X11791Y-10187D01*
X11791Y-10139D01*
X11781Y-10101D01*
X11772Y-10082D01*
X11762Y-10072D01*
X11743Y-10063D01*
X11591Y-10244D02*
X11582Y-10253D01*
X11591Y-10263D01*
X11601Y-10253D01*
X11591Y-10244D01*
X11591Y-10263D01*
X11392Y-10263D02*
X11506Y-10263D01*
X11449Y-10263D02*
X11449Y-10063D01*
X11468Y-10092D01*
X11487Y-10111D01*
X11506Y-10120D01*
X11221Y-10130D02*
X11221Y-10263D01*
X11306Y-10130D02*
X11306Y-10234D01*
X11297Y-10253D01*
X11278Y-10263D01*
X11249Y-10263D01*
X11230Y-10253D01*
X11221Y-10244D01*
X11154Y-10130D02*
X11078Y-10130D01*
X11125Y-10263D02*
X11125Y-10092D01*
X11116Y-10072D01*
X11097Y-10063D01*
X11078Y-10063D01*
X09495Y-09499D02*
X09476Y-09499D01*
X09457Y-09508D01*
X09448Y-09518D01*
X09438Y-09537D01*
X09429Y-09575D01*
X09429Y-09623D01*
X09438Y-09661D01*
X09448Y-09680D01*
X09457Y-09689D01*
X09476Y-09699D01*
X09495Y-09699D01*
X09514Y-09689D01*
X09524Y-09680D01*
X09533Y-09661D01*
X09543Y-09623D01*
X09543Y-09575D01*
X09533Y-09537D01*
X09524Y-09518D01*
X09514Y-09508D01*
X09495Y-09499D01*
X09343Y-09680D02*
X09334Y-09689D01*
X09343Y-09699D01*
X09353Y-09689D01*
X09343Y-09680D01*
X09343Y-09699D01*
X09144Y-09699D02*
X09258Y-09699D01*
X09201Y-09699D02*
X09201Y-09499D01*
X09220Y-09528D01*
X09239Y-09547D01*
X09258Y-09556D01*
X08973Y-09566D02*
X08973Y-09699D01*
X09058Y-09566D02*
X09058Y-09670D01*
X09049Y-09689D01*
X09030Y-09699D01*
X09001Y-09699D01*
X08982Y-09689D01*
X08973Y-09680D01*
X08906Y-09566D02*
X08830Y-09566D01*
X08877Y-09699D02*
X08877Y-09528D01*
X08868Y-09508D01*
X08849Y-09499D01*
X08830Y-09499D01*
X00696Y-15315D02*
X00696Y-15201D01*
X00696Y-15258D02*
X00496Y-15258D01*
X00525Y-15239D01*
X00544Y-15220D01*
X00553Y-15201D01*
X00496Y-15439D02*
X00496Y-15458D01*
X00505Y-15477D01*
X00515Y-15486D01*
X00534Y-15496D01*
X00572Y-15505D01*
X00620Y-15505D01*
X00658Y-15496D01*
X00677Y-15486D01*
X00686Y-15477D01*
X00696Y-15458D01*
X00696Y-15439D01*
X00686Y-15420D01*
X00677Y-15410D01*
X00658Y-15401D01*
X00620Y-15391D01*
X00572Y-15391D01*
X00534Y-15401D01*
X00515Y-15410D01*
X00505Y-15420D01*
X00496Y-15439D01*
X00563Y-15676D02*
X00696Y-15676D01*
X00563Y-15591D02*
X00667Y-15591D01*
X00686Y-15600D01*
X00696Y-15619D01*
X00696Y-15648D01*
X00686Y-15667D01*
X00677Y-15676D01*
X00563Y-15743D02*
X00563Y-15819D01*
X00696Y-15772D02*
X00525Y-15772D01*
X00505Y-15781D01*
X00496Y-15800D01*
X00496Y-15819D01*
X07385Y-08766D02*
X07499Y-08766D01*
X07442Y-08766D02*
X07442Y-08566D01*
X07461Y-08595D01*
X07480Y-08614D01*
X07499Y-08623D01*
X07261Y-08566D02*
X07242Y-08566D01*
X07223Y-08575D01*
X07214Y-08585D01*
X07204Y-08604D01*
X07195Y-08642D01*
X07195Y-08690D01*
X07204Y-08728D01*
X07214Y-08747D01*
X07223Y-08756D01*
X07242Y-08766D01*
X07261Y-08766D01*
X07280Y-08756D01*
X07290Y-08747D01*
X07299Y-08728D01*
X07309Y-08690D01*
X07309Y-08642D01*
X07299Y-08604D01*
X07290Y-08585D01*
X07280Y-08575D01*
X07261Y-08566D01*
X07024Y-08633D02*
X07024Y-08766D01*
X07109Y-08633D02*
X07109Y-08737D01*
X07100Y-08756D01*
X07081Y-08766D01*
X07052Y-08766D01*
X07033Y-08756D01*
X07024Y-08747D01*
X06957Y-08633D02*
X06881Y-08633D01*
X06928Y-08766D02*
X06928Y-08595D01*
X06919Y-08575D01*
X06900Y-08566D01*
X06881Y-08566D01*
X02550Y-08864D02*
X02664Y-08864D01*
X02607Y-08864D02*
X02607Y-08664D01*
X02626Y-08693D01*
X02645Y-08712D01*
X02664Y-08721D01*
X02426Y-08664D02*
X02407Y-08664D01*
X02388Y-08673D01*
X02379Y-08683D01*
X02369Y-08702D01*
X02360Y-08740D01*
X02360Y-08788D01*
X02369Y-08826D01*
X02379Y-08845D01*
X02388Y-08854D01*
X02407Y-08864D01*
X02426Y-08864D01*
X02445Y-08854D01*
X02455Y-08845D01*
X02464Y-08826D01*
X02474Y-08788D01*
X02474Y-08740D01*
X02464Y-08702D01*
X02455Y-08683D01*
X02445Y-08673D01*
X02426Y-08664D01*
X02189Y-08731D02*
X02189Y-08864D01*
X02274Y-08731D02*
X02274Y-08835D01*
X02265Y-08854D01*
X02246Y-08864D01*
X02217Y-08864D01*
X02198Y-08854D01*
X02189Y-08845D01*
X02122Y-08731D02*
X02046Y-08731D01*
X02093Y-08864D02*
X02093Y-08693D01*
X02084Y-08673D01*
X02065Y-08664D01*
X02046Y-08664D01*
X-00638Y-10619D02*
X-00638Y-10505D01*
X-00638Y-10562D02*
X-00838Y-10562D01*
X-00809Y-10543D01*
X-00790Y-10524D01*
X-00781Y-10505D01*
X-00838Y-10743D02*
X-00838Y-10762D01*
X-00829Y-10781D01*
X-00819Y-10790D01*
X-00800Y-10800D01*
X-00762Y-10809D01*
X-00714Y-10809D01*
X-00676Y-10800D01*
X-00657Y-10790D01*
X-00648Y-10781D01*
X-00638Y-10762D01*
X-00638Y-10743D01*
X-00648Y-10724D01*
X-00657Y-10714D01*
X-00676Y-10705D01*
X-00714Y-10695D01*
X-00762Y-10695D01*
X-00800Y-10705D01*
X-00819Y-10714D01*
X-00829Y-10724D01*
X-00838Y-10743D01*
X-00771Y-10980D02*
X-00638Y-10980D01*
X-00771Y-10895D02*
X-00667Y-10895D01*
X-00648Y-10904D01*
X-00638Y-10923D01*
X-00638Y-10952D01*
X-00648Y-10971D01*
X-00657Y-10980D01*
X-00771Y-11047D02*
X-00771Y-11123D01*
X-00638Y-11076D02*
X-00809Y-11076D01*
X-00829Y-11085D01*
X-00838Y-11104D01*
X-00838Y-11123D01*
X07385Y-11196D02*
X07499Y-11196D01*
X07442Y-11196D02*
X07442Y-10996D01*
X07461Y-11025D01*
X07480Y-11044D01*
X07499Y-11053D01*
X07261Y-10996D02*
X07242Y-10996D01*
X07223Y-11005D01*
X07214Y-11015D01*
X07204Y-11034D01*
X07195Y-11072D01*
X07195Y-11120D01*
X07204Y-11158D01*
X07214Y-11177D01*
X07223Y-11186D01*
X07242Y-11196D01*
X07261Y-11196D01*
X07280Y-11186D01*
X07290Y-11177D01*
X07299Y-11158D01*
X07309Y-11120D01*
X07309Y-11072D01*
X07299Y-11034D01*
X07290Y-11015D01*
X07280Y-11005D01*
X07261Y-10996D01*
X07024Y-11063D02*
X07024Y-11196D01*
X07109Y-11063D02*
X07109Y-11167D01*
X07100Y-11186D01*
X07081Y-11196D01*
X07052Y-11196D01*
X07033Y-11186D01*
X07024Y-11177D01*
X06957Y-11063D02*
X06881Y-11063D01*
X06928Y-11196D02*
X06928Y-11025D01*
X06919Y-11005D01*
X06900Y-10996D01*
X06881Y-10996D01*
X04504Y-08059D02*
X04504Y-08154D01*
X04561Y-08040D02*
X04361Y-08107D01*
X04561Y-08173D01*
X04456Y-08306D02*
X04466Y-08335D01*
X04475Y-08344D01*
X04494Y-08354D01*
X04523Y-08354D01*
X04542Y-08344D01*
X04551Y-08335D01*
X04561Y-08316D01*
X04561Y-08240D01*
X04361Y-08240D01*
X04361Y-08306D01*
X04370Y-08325D01*
X04380Y-08335D01*
X04399Y-08344D01*
X04418Y-08344D01*
X04437Y-08335D01*
X04447Y-08325D01*
X04456Y-08306D01*
X04456Y-08240D01*
X04561Y-08440D02*
X04361Y-08440D01*
X04504Y-08506D01*
X04361Y-08573D01*
X04561Y-08573D01*
X04561Y-08773D02*
X04561Y-08659D01*
X04561Y-08716D02*
X04361Y-08716D01*
X04390Y-08697D01*
X04409Y-08678D01*
X04418Y-08659D01*
X04361Y-08897D02*
X04361Y-08916D01*
X04370Y-08935D01*
X04380Y-08944D01*
X04399Y-08954D01*
X04437Y-08963D01*
X04485Y-08963D01*
X04523Y-08954D01*
X04542Y-08944D01*
X04551Y-08935D01*
X04561Y-08916D01*
X04561Y-08897D01*
X04551Y-08878D01*
X04542Y-08868D01*
X04523Y-08859D01*
X04485Y-08849D01*
X04437Y-08849D01*
X04399Y-08859D01*
X04380Y-08868D01*
X04370Y-08878D01*
X04361Y-08897D01*
X04361Y-09030D02*
X04561Y-09163D01*
X04361Y-09163D02*
X04561Y-09030D01*
X04361Y-09210D02*
X04361Y-09324D01*
X04561Y-09267D02*
X04361Y-09267D01*
X04504Y-09381D02*
X04504Y-09476D01*
X04561Y-09362D02*
X04361Y-09429D01*
X04561Y-09495D01*
X04561Y-09657D02*
X04561Y-09562D01*
X04361Y-09562D01*
X04485Y-09724D02*
X04485Y-09876D01*
X04380Y-09962D02*
X04370Y-09972D01*
X04361Y-09991D01*
X04361Y-10038D01*
X04370Y-10057D01*
X04380Y-10067D01*
X04399Y-10076D01*
X04418Y-10076D01*
X04447Y-10067D01*
X04561Y-09953D01*
X04561Y-10076D01*
X04361Y-10257D02*
X04361Y-10162D01*
X04456Y-10152D01*
X04447Y-10162D01*
X04437Y-10181D01*
X04437Y-10228D01*
X04447Y-10247D01*
X04456Y-10257D01*
X04475Y-10266D01*
X04523Y-10266D01*
X04542Y-10257D01*
X04551Y-10247D01*
X04561Y-10228D01*
X04561Y-10181D01*
X04551Y-10162D01*
X04542Y-10152D01*
G54D14*
X-04387Y-13224D02*
X-04387Y-13510D01*
X-04215Y-13167D02*
X-04815Y-13367D01*
X-04215Y-13567D01*
X-04815Y-13767D02*
X-04329Y-13767D01*
X-04272Y-13795D01*
X-04244Y-13824D01*
X-04215Y-13881D01*
X-04215Y-13995D01*
X-04244Y-14053D01*
X-04272Y-14081D01*
X-04329Y-14110D01*
X-04815Y-14110D01*
X-04215Y-14396D02*
X-04815Y-14396D01*
X-04815Y-14539D01*
X-04787Y-14624D01*
X-04729Y-14682D01*
X-04672Y-14710D01*
X-04558Y-14739D01*
X-04472Y-14739D01*
X-04358Y-14710D01*
X-04301Y-14682D01*
X-04244Y-14624D01*
X-04215Y-14539D01*
X-04215Y-14396D01*
X-04215Y-14996D02*
X-04815Y-14996D01*
X-04815Y-15396D02*
X-04815Y-15510D01*
X-04787Y-15568D01*
X-04729Y-15625D01*
X-04615Y-15653D01*
X-04415Y-15653D01*
X-04301Y-15625D01*
X-04244Y-15568D01*
X-04215Y-15510D01*
X-04215Y-15396D01*
X-04244Y-15339D01*
X-04301Y-15282D01*
X-04415Y-15253D01*
X-04615Y-15253D01*
X-04729Y-15282D01*
X-04787Y-15339D01*
X-04815Y-15396D01*
X-04158Y-15768D02*
X-04158Y-16225D01*
X-04815Y-16539D02*
X-04387Y-16539D01*
X-04301Y-16511D01*
X-04244Y-16454D01*
X-04215Y-16368D01*
X-04215Y-16311D01*
X-04387Y-16796D02*
X-04387Y-17082D01*
X-04215Y-16739D02*
X-04815Y-16939D01*
X-04215Y-17139D01*
X-04272Y-17682D02*
X-04244Y-17653D01*
X-04215Y-17567D01*
X-04215Y-17510D01*
X-04244Y-17425D01*
X-04301Y-17367D01*
X-04358Y-17339D01*
X-04472Y-17310D01*
X-04558Y-17310D01*
X-04672Y-17339D01*
X-04729Y-17367D01*
X-04787Y-17425D01*
X-04815Y-17510D01*
X-04815Y-17567D01*
X-04787Y-17653D01*
X-04758Y-17682D01*
X-04215Y-17939D02*
X-04815Y-17939D01*
X-04215Y-18282D02*
X-04558Y-18025D01*
X-04815Y-18282D02*
X-04472Y-17939D01*
X16359Y-18784D02*
X16845Y-18784D01*
X16902Y-18812D01*
X16930Y-18841D01*
X16959Y-18898D01*
X16959Y-19012D01*
X16930Y-19070D01*
X16902Y-19098D01*
X16845Y-19127D01*
X16359Y-19127D01*
X16559Y-19670D02*
X16959Y-19670D01*
X16330Y-19527D02*
X16759Y-19384D01*
X16759Y-19756D01*
X16416Y-19955D02*
X16387Y-19984D01*
X16359Y-20041D01*
X16359Y-20184D01*
X16387Y-20241D01*
X16416Y-20270D01*
X16473Y-20298D01*
X16530Y-20298D01*
X16616Y-20270D01*
X16959Y-19927D01*
X16959Y-20298D01*
X15488Y-17808D02*
X14888Y-17808D01*
X15488Y-18151D01*
X14888Y-18151D01*
X15488Y-18437D02*
X14888Y-18437D01*
X15174Y-18437D02*
X15174Y-18780D01*
X15488Y-18780D02*
X14888Y-18780D01*
X15488Y-19066D02*
X14888Y-19066D01*
X14888Y-19209D01*
X14916Y-19294D01*
X14974Y-19352D01*
X15031Y-19380D01*
X15145Y-19409D01*
X15231Y-19409D01*
X15345Y-19380D01*
X15402Y-19352D01*
X15459Y-19294D01*
X15488Y-19209D01*
X15488Y-19066D01*
X15259Y-19666D02*
X15259Y-20123D01*
X14888Y-20523D02*
X14888Y-20580D01*
X14916Y-20637D01*
X14945Y-20666D01*
X15002Y-20695D01*
X15116Y-20723D01*
X15259Y-20723D01*
X15374Y-20695D01*
X15431Y-20666D01*
X15459Y-20637D01*
X15488Y-20580D01*
X15488Y-20523D01*
X15459Y-20466D01*
X15431Y-20437D01*
X15374Y-20409D01*
X15259Y-20380D01*
X15116Y-20380D01*
X15002Y-20409D01*
X14945Y-20437D01*
X14916Y-20466D01*
X14888Y-20523D01*
X14945Y-20951D02*
X14916Y-20980D01*
X14888Y-21037D01*
X14888Y-21180D01*
X14916Y-21237D01*
X14945Y-21266D01*
X15002Y-21294D01*
X15059Y-21294D01*
X15145Y-21266D01*
X15488Y-20923D01*
X15488Y-21294D01*
X15488Y-21865D02*
X15488Y-21522D01*
X15488Y-21694D02*
X14888Y-21694D01*
X14974Y-21637D01*
X15031Y-21579D01*
X15059Y-21522D01*
X14888Y-22379D02*
X14888Y-22265D01*
X14916Y-22208D01*
X14945Y-22179D01*
X15031Y-22122D01*
X15145Y-22093D01*
X15374Y-22093D01*
X15431Y-22122D01*
X15459Y-22150D01*
X15488Y-22208D01*
X15488Y-22322D01*
X15459Y-22379D01*
X15431Y-22408D01*
X15374Y-22436D01*
X15231Y-22436D01*
X15174Y-22408D01*
X15145Y-22379D01*
X15116Y-22322D01*
X15116Y-22208D01*
X15145Y-22150D01*
X15174Y-22122D01*
X15231Y-22093D01*
X15488Y-22693D02*
X14888Y-22693D01*
X15488Y-23036D02*
X15145Y-22779D01*
X14888Y-23036D02*
X15231Y-22693D01*
X14888Y-23236D02*
X14888Y-23636D01*
X15488Y-23236D01*
X15488Y-23636D01*
X14888Y-23807D02*
X15488Y-23950D01*
X15059Y-24064D01*
X15488Y-24178D01*
X14888Y-24321D01*
M02*
