M48
;DRILL file {PCBnew (2010-03-14)-final} date Mon 05 Jul 2010 03:39:49 PM EDT
;FORMAT={2:4/ absolute / inch / keep zeros}
R,T
VER,1
FMAT,2
INCH,TZ
TCST,OFF
ICI,OFF
ATC,ON
T1C0.008
T2C0.010
T3C0.035
T4C0.039
T5C0.047
T6C0.091
T7C0.126
%
M47
G05
M72
T1
X023139Y-029536
X023144Y-028028
X023145Y-028273
X023146Y-029778
X023147Y-028528
X023148Y-028782
X023148Y-029271
X023150Y-029028
X023155Y-030033
X023156Y-030274
X023158Y-030527
X023159Y-030774
X023160Y-031023
X023162Y-031273
X023163Y-031520
X023164Y-031767
X023452Y-027567
X023455Y-032226
X024228Y-032543
X024598Y-031518
X024726Y-032043
X024776Y-026999
X024797Y-018698
X024798Y-027255
X024900Y-031001
X025112Y-031630
X025151Y-028035
X025322Y-030548
X025393Y-029721
X025436Y-030893
X025582Y-028052
X025638Y-030669
X025653Y-031497
X025676Y-028792
X025704Y-029752
X025759Y-030940
X025893Y-032074
X025958Y-028519
X025983Y-029718
X025984Y-029393
X026303Y-032717
X026430Y-027005
X026487Y-024442
X026490Y-028412
X026732Y-029094
X026744Y-024471
X026902Y-031906
X026970Y-027536
X026996Y-024500
X027098Y-031497
X027109Y-029981
X027281Y-024529
X027331Y-030795
X027392Y-029320
X027434Y-028535
X027596Y-024659
X027602Y-027775
X027644Y-023693
X027881Y-023193
X027885Y-027566
X027898Y-031138
X027930Y-029407
X027965Y-031450
X027987Y-029778
X027996Y-027791
X028005Y-029155
X028031Y-031951
X028140Y-022334
X028151Y-029573
X028272Y-028842
X028273Y-030495
X028279Y-028063
X028309Y-027192
X028409Y-023149
X028464Y-027673
X028601Y-030818
X028695Y-029852
X028708Y-028272
X028800Y-027526
X028803Y-027761
X028882Y-027013
X029077Y-029833
X029151Y-030049
X029153Y-030407
X029211Y-031750
X029356Y-027455
X029508Y-028125
X029511Y-028753
X029823Y-028758
X030132Y-030603
X030135Y-028753
X030445Y-028448
X030449Y-028784
X030452Y-030954
X030469Y-029869
X030476Y-030200
X030477Y-029190
X030480Y-029533
X030497Y-030589
X030772Y-031591
X030864Y-027253
X030924Y-028773
X030926Y-030616
X031003Y-029409
X031080Y-031272
X031106Y-028415
X031109Y-026810
X031232Y-027399
X031247Y-028777
X031254Y-029897
X031398Y-030643
X031406Y-028135
X031429Y-029399
X031556Y-028783
X031712Y-031274
X031722Y-030643
X031723Y-028436
X031747Y-029896
X031893Y-028774
X031914Y-026702
X032038Y-028116
X032043Y-029393
X032046Y-027215
X032074Y-026535
X032182Y-030609
X032187Y-028780
X032292Y-029713
X032294Y-029227
X032346Y-028121
X032357Y-031606
X032521Y-026524
X032655Y-030944
X032658Y-030661
X032661Y-030018
X032662Y-029071
X032667Y-031269
X032668Y-029695
X032673Y-028738
X032862Y-027443
X032894Y-026535
X032963Y-030347
X032967Y-028432
X032984Y-028742
X033002Y-030661
X033283Y-028128
X033291Y-030955
X033440Y-026819
X033559Y-027016
X033586Y-027517
X033645Y-027960
X033649Y-031748
X033662Y-030482
X033796Y-028185
X033859Y-029595
X033916Y-022312
X034002Y-026525
X034175Y-031487
X034224Y-027380
X034258Y-028232
X034616Y-030305
X034653Y-029889
X040986Y-031697
T2
X024395Y-023098
X024790Y-020195
X024797Y-018698
X025395Y-023400
X026108Y-020429
X027384Y-021075
X027619Y-020867
X027688Y-032797
X027903Y-032565
X028908Y-022772
X028908Y-022772
X029100Y-021958
X029385Y-021086
X029509Y-022980
X029519Y-023592
X029622Y-024379
X029804Y-022793
X029815Y-023599
X029893Y-023958
X030040Y-019996
X030184Y-022283
X030346Y-020000
X030753Y-021818
X030776Y-022247
X031009Y-021487
X031070Y-023777
X031264Y-021887
X031293Y-021586
X031421Y-024001
X031576Y-021839
X031636Y-023574
X031661Y-022331
X031872Y-021787
X031982Y-023322
X032088Y-016950
X032099Y-017870
X032354Y-017865
X032571Y-016080
X032574Y-016611
X032723Y-022769
X032799Y-017812
X033123Y-020849
X033245Y-016394
X033395Y-023296
X033426Y-020849
X033506Y-017408
X033680Y-023894
X033702Y-015695
X033706Y-016504
X033986Y-023506
X034240Y-024172
X034384Y-022193
X034516Y-023908
X034633Y-018197
X034672Y-022293
X034906Y-023338
X034969Y-022208
X035147Y-016586
X035450Y-023197
X035609Y-018212
X035709Y-014405
X036284Y-016994
X036353Y-016676
X036355Y-015998
X036587Y-015278
X036664Y-017414
X037639Y-014125
X037794Y-015502
X037799Y-017387
X037821Y-018097
X038039Y-015901
X038305Y-031021
X038585Y-031844
X038632Y-018582
X038798Y-031139
X039074Y-018642
X039300Y-030748
X039862Y-031061
X039866Y-032338
X040148Y-031065
X040152Y-032338
X041097Y-021243
X041097Y-027300
X043200Y-031694
X043517Y-031396
X043517Y-032005
X045030Y-027269
X045097Y-021236
X046340Y-029209
X046345Y-029719
X046702Y-027821
X050389Y-028299
X050391Y-029199
T3
X047150Y-030800
X047150Y-032800
X049650Y-030800
X049650Y-031800
X049650Y-032800
T4
X022600Y-018400
X022600Y-019400
X022600Y-020400
X022600Y-021400
X022600Y-022400
X022600Y-023400
X022600Y-024400
X023600Y-018400
X023600Y-019400
X023600Y-020400
X023600Y-021400
X023600Y-022400
X023600Y-023400
X023600Y-024400
X024300Y-033200
X025400Y-016000
X025400Y-033200
X026200Y-033200
X026400Y-016000
X027000Y-033200
X027400Y-016000
X028400Y-016000
X029400Y-016000
X030400Y-016000
X031400Y-016000
X034400Y-032300
X034500Y-026800
X034500Y-027800
X034500Y-028800
X035600Y-024500
X036800Y-023800
X036800Y-024800
X036800Y-025800
X036800Y-026800
X036800Y-027800
X036900Y-028900
X037400Y-031100
X037400Y-032100
X038000Y-029900
X038300Y-033500
X038650Y-020750
X038650Y-021750
X038650Y-022750
X038650Y-023750
X038650Y-024750
X038650Y-025750
X038650Y-026750
X038650Y-027750
X039000Y-029900
X039300Y-033500
X041479Y-018307
X041479Y-019094
X042100Y-029800
X042100Y-033500
X042463Y-018307
X042463Y-019094
X042650Y-020750
X042650Y-021750
X042650Y-022750
X042650Y-023750
X042650Y-024750
X042650Y-025750
X042650Y-026750
X042650Y-027750
X043100Y-029800
X043100Y-033500
T5
X046841Y-019031
X046841Y-020122
X046841Y-021213
X046841Y-022303
X046841Y-023394
X047959Y-019577
X047959Y-020667
X047959Y-021758
X047959Y-022848
T6
X039459Y-017240
X044341Y-017240
T7
X047400Y-016281
X047400Y-026120
T0
M30
