G04 (created by PCBNEW-RS274X (2010-03-14)-final) date Mon 05 Jul 2010 05:23:50 PM EDT*
G01*
G70*
G90*
%MOIN*%
G04 Gerber Fmt 3.4, Leading zero omitted, Abs format*
%FSLAX34Y34*%
G04 APERTURE LIST*
%ADD10C,0.001000*%
%ADD11R,0.023600X0.019700*%
%ADD12R,0.019700X0.023600*%
%ADD13R,0.023600X0.035400*%
%ADD14R,0.059100X0.070900*%
%ADD15R,0.009800X0.023600*%
%ADD16R,0.023600X0.009800*%
%ADD17R,0.009800X0.025600*%
%ADD18R,0.025600X0.009800*%
%ADD19R,0.031500X0.031500*%
%ADD20R,0.042000X0.023600*%
%ADD21R,0.031500X0.019700*%
G04 APERTURE END LIST*
G54D10*
G54D11*
X25400Y-27397D03*
X25400Y-27003D03*
X26200Y-27397D03*
X26200Y-27003D03*
X25800Y-27397D03*
X25800Y-27003D03*
X25000Y-27003D03*
X25000Y-27397D03*
G54D12*
X25503Y-30400D03*
X25897Y-30400D03*
G54D11*
X26700Y-29303D03*
X26700Y-29697D03*
G54D12*
X28303Y-28500D03*
X28697Y-28500D03*
G54D11*
X27100Y-29697D03*
X27100Y-29303D03*
G54D12*
X27697Y-30000D03*
X27303Y-30000D03*
G54D11*
X27700Y-30803D03*
X27700Y-31197D03*
X28600Y-32097D03*
X28600Y-31703D03*
G54D12*
X28703Y-31400D03*
X29097Y-31400D03*
X29797Y-31400D03*
X29403Y-31400D03*
X29403Y-31800D03*
X29797Y-31800D03*
X30497Y-31700D03*
X30103Y-31700D03*
G54D11*
X28600Y-32403D03*
X28600Y-32797D03*
G54D12*
X28297Y-32800D03*
X27903Y-32800D03*
G54D11*
X27700Y-31897D03*
X27700Y-31503D03*
X28200Y-31797D03*
X28200Y-31403D03*
X29300Y-28803D03*
X29300Y-29197D03*
G54D12*
X28203Y-29200D03*
X28597Y-29200D03*
G54D11*
X31000Y-29903D03*
X31000Y-30297D03*
X32000Y-29903D03*
X32000Y-30297D03*
X31500Y-29903D03*
X31500Y-30297D03*
G54D12*
X30797Y-31300D03*
X30403Y-31300D03*
G54D11*
X29900Y-28297D03*
X29900Y-27903D03*
X30000Y-29203D03*
X30000Y-29597D03*
G54D12*
X35597Y-16300D03*
X35203Y-16300D03*
X32397Y-31100D03*
X32003Y-31100D03*
X32097Y-31700D03*
X31703Y-31700D03*
X27303Y-30400D03*
X27697Y-30400D03*
G54D11*
X30000Y-30397D03*
X30000Y-30003D03*
G54D12*
X33497Y-20500D03*
X33103Y-20500D03*
X30397Y-20300D03*
X30003Y-20300D03*
G54D11*
X23800Y-31697D03*
X23800Y-31303D03*
G54D12*
X24603Y-32700D03*
X24997Y-32700D03*
G54D11*
X23800Y-32103D03*
X23800Y-32497D03*
X34000Y-28097D03*
X34000Y-27703D03*
G54D13*
X31795Y-29400D03*
X31205Y-29400D03*
X35105Y-16900D03*
X35695Y-16900D03*
G54D14*
X28729Y-33500D03*
X32272Y-33500D03*
G54D15*
X28800Y-29552D03*
X28603Y-29552D03*
X28406Y-29552D03*
X28997Y-29552D03*
X29194Y-29552D03*
X28406Y-31048D03*
X28603Y-31048D03*
X28800Y-31048D03*
X28997Y-31048D03*
X29194Y-31048D03*
G54D16*
X28052Y-30300D03*
X28052Y-30497D03*
X28052Y-30694D03*
X28052Y-30103D03*
X28052Y-29906D03*
X29548Y-30300D03*
X29548Y-30497D03*
X29548Y-30694D03*
X29548Y-30103D03*
X29548Y-29906D03*
G54D17*
X24214Y-27748D03*
X24411Y-27748D03*
X24608Y-27748D03*
X24805Y-27748D03*
X25002Y-27748D03*
X25198Y-27748D03*
X25395Y-27748D03*
X25592Y-27748D03*
X25789Y-27748D03*
X25986Y-27748D03*
X25986Y-30052D03*
X25789Y-30052D03*
X25592Y-30052D03*
X25395Y-30052D03*
X25198Y-30052D03*
X25002Y-30052D03*
X24805Y-30052D03*
X24608Y-30052D03*
X24411Y-30052D03*
X24214Y-30052D03*
G54D18*
X26252Y-28014D03*
X26252Y-28211D03*
X26252Y-28408D03*
X26252Y-28605D03*
X26252Y-28802D03*
X26252Y-28998D03*
X26252Y-29195D03*
X26252Y-29392D03*
X26252Y-29589D03*
X26252Y-29786D03*
X23948Y-29786D03*
X23948Y-29589D03*
X23948Y-29392D03*
X23948Y-29195D03*
X23948Y-28998D03*
X23948Y-28802D03*
X23948Y-28605D03*
X23948Y-28408D03*
X23948Y-28211D03*
X23948Y-28014D03*
G54D19*
X25100Y-28900D03*
G54D20*
X26788Y-28874D03*
X26788Y-28500D03*
X26788Y-28126D03*
X27812Y-28126D03*
X27812Y-28500D03*
X27812Y-28874D03*
G54D21*
X24198Y-32250D03*
X24198Y-31750D03*
X24198Y-31250D03*
X24198Y-30750D03*
X26402Y-30750D03*
X26402Y-31250D03*
X26402Y-31750D03*
X26402Y-32250D03*
G54D12*
X33297Y-30000D03*
X32903Y-30000D03*
M02*
