G04 (Genere par PCBNEW (20080313-r890)) le 29/5/2008-04:29:58*
G01*
G70*
G90*
%MOIN*%
G04 Gerber Fmt 3.4, Leading zero omitted, Abs format*
%FSLAX34Y34*%
G04 APERTURE LIST*
%ADD10C,0.015000*%
%ADD11C,0.001500*%
%ADD12C,0.001000*%
%ADD13C,0.005000*%
%ADD14C,0.012000*%
%ADD15C,0.015000*%
%ADD16C,0.003900*%
%ADD17R,0.023600X0.019700*%
%ADD18R,0.035400X0.023600*%
%ADD19R,0.027600X0.037400*%
%ADD20R,0.037400X0.027600*%
%ADD21C,0.098400*%
%ADD22R,0.023600X0.035400*%
%ADD23R,0.015700X0.011800*%
%ADD24R,0.046100X0.055100*%
%ADD25R,0.063000X0.035400*%
%ADD26R,0.049200X0.082700*%
%ADD27R,0.035400X0.031500*%
%ADD28R,0.149600X0.066900*%
%ADD29C,0.015700*%
%ADD30R,0.096500X0.065000*%
%ADD31R,0.017700X0.027600*%
%ADD32R,0.016500X0.023600*%
%ADD33R,0.031500X0.027600*%
%ADD34R,0.033500X0.023600*%
%ADD35R,0.055100X0.019700*%
%ADD36R,0.027600X0.055100*%
%ADD37R,0.078700X0.019700*%
%ADD38R,0.023600X0.033500*%
%ADD39R,0.023600X0.042000*%
%ADD40R,0.042000X0.023600*%
%ADD41R,0.027600X0.012800*%
%ADD42R,0.027600X0.009800*%
%ADD43R,0.009800X0.027600*%
%ADD44R,0.039400X0.013800*%
%ADD45R,0.013800X0.039400*%
%ADD46R,0.047200X0.055100*%
%ADD47R,0.055100X0.027600*%
%ADD48R,0.019700X0.019700*%
%ADD49R,0.013800X0.051200*%
G04 APERTURE END LIST*
G54D10*
X48819Y-32756D02*
X48583Y-32992D01*
X48819Y-32756D02*
X48740Y-32756D01*
X07433Y-09850D02*
X07433Y-21350D01*
X07433Y-21350D02*
X19433Y-21350D01*
X19433Y-21350D02*
X19433Y-09850D01*
X19433Y-09850D02*
X07433Y-09850D01*
X12933Y-08350D02*
X12433Y-07850D01*
X12433Y-07850D02*
X12433Y-05350D01*
X12433Y-05350D02*
X08933Y-05350D01*
X08933Y-05350D02*
X08933Y-07850D01*
X08933Y-07850D02*
X08433Y-08350D01*
X10433Y-08350D02*
X06933Y-08350D01*
X06933Y-08350D02*
X06433Y-08850D01*
X06433Y-08850D02*
X06433Y-21350D01*
X06433Y-21350D02*
X06933Y-21850D01*
X06933Y-21850D02*
X19933Y-21850D01*
X19933Y-21850D02*
X20433Y-21350D01*
X20433Y-21350D02*
X20433Y-08850D01*
X20433Y-08850D02*
X19933Y-08350D01*
X19933Y-08350D02*
X10433Y-08350D01*
X09646Y-07047D02*
X11220Y-07047D01*
X11122Y-07047D02*
X11122Y-05866D01*
X11220Y-05866D02*
X09646Y-05866D01*
X09744Y-05866D02*
X09744Y-07047D01*
G54D11*
X11909Y-05866D02*
X11909Y-07047D01*
X12402Y-07047D02*
X12402Y-08228D01*
X12402Y-08228D02*
X09252Y-08228D01*
G54D12*
X03169Y-17401D02*
X03159Y-17495D01*
X03159Y-17495D02*
X03129Y-17585D01*
X03129Y-17585D02*
X03082Y-17667D01*
X03082Y-17667D02*
X03019Y-17737D01*
X03019Y-17737D02*
X02942Y-17793D01*
X02942Y-17793D02*
X02855Y-17831D01*
X02855Y-17831D02*
X02763Y-17851D01*
X02763Y-17851D02*
X02669Y-17851D01*
X02669Y-17851D02*
X02577Y-17831D01*
X02577Y-17831D02*
X02490Y-17793D01*
X02490Y-17793D02*
X02413Y-17737D01*
X02413Y-17737D02*
X02350Y-17667D01*
X02350Y-17667D02*
X02303Y-17585D01*
X02303Y-17585D02*
X02273Y-17495D01*
X02273Y-17495D02*
X02263Y-17401D01*
X02263Y-17401D02*
X02273Y-17307D01*
X02273Y-17307D02*
X02303Y-17217D01*
X02303Y-17217D02*
X02350Y-17135D01*
X02350Y-17135D02*
X02413Y-17065D01*
X02413Y-17065D02*
X02490Y-17009D01*
X02490Y-17009D02*
X02577Y-16971D01*
X02577Y-16971D02*
X02669Y-16951D01*
X02669Y-16951D02*
X02763Y-16951D01*
X02763Y-16951D02*
X02855Y-16971D01*
X02855Y-16971D02*
X02942Y-17009D01*
X02942Y-17009D02*
X03019Y-17065D01*
X03019Y-17065D02*
X03082Y-17135D01*
X03082Y-17135D02*
X03129Y-17217D01*
X03129Y-17217D02*
X03159Y-17307D01*
X03159Y-17307D02*
X03169Y-17401D01*
X03169Y-12677D02*
X03159Y-12771D01*
X03159Y-12771D02*
X03129Y-12861D01*
X03129Y-12861D02*
X03082Y-12943D01*
X03082Y-12943D02*
X03019Y-13013D01*
X03019Y-13013D02*
X02942Y-13069D01*
X02942Y-13069D02*
X02855Y-13107D01*
X02855Y-13107D02*
X02763Y-13127D01*
X02763Y-13127D02*
X02669Y-13127D01*
X02669Y-13127D02*
X02577Y-13107D01*
X02577Y-13107D02*
X02490Y-13069D01*
X02490Y-13069D02*
X02413Y-13013D01*
X02413Y-13013D02*
X02350Y-12943D01*
X02350Y-12943D02*
X02303Y-12861D01*
X02303Y-12861D02*
X02273Y-12771D01*
X02273Y-12771D02*
X02263Y-12677D01*
X02263Y-12677D02*
X02273Y-12583D01*
X02273Y-12583D02*
X02303Y-12493D01*
X02303Y-12493D02*
X02350Y-12411D01*
X02350Y-12411D02*
X02413Y-12341D01*
X02413Y-12341D02*
X02490Y-12285D01*
X02490Y-12285D02*
X02577Y-12247D01*
X02577Y-12247D02*
X02669Y-12227D01*
X02669Y-12227D02*
X02763Y-12227D01*
X02763Y-12227D02*
X02855Y-12247D01*
X02855Y-12247D02*
X02942Y-12285D01*
X02942Y-12285D02*
X03019Y-12341D01*
X03019Y-12341D02*
X03082Y-12411D01*
X03082Y-12411D02*
X03129Y-12493D01*
X03129Y-12493D02*
X03159Y-12583D01*
X03159Y-12583D02*
X03169Y-12677D01*
X02066Y-01575D02*
X02055Y-01677D01*
X02055Y-01677D02*
X02023Y-01775D01*
X02023Y-01775D02*
X01972Y-01864D01*
X01972Y-01864D02*
X01903Y-01940D01*
X01903Y-01940D02*
X01820Y-02001D01*
X01820Y-02001D02*
X01726Y-02042D01*
X01726Y-02042D02*
X01625Y-02064D01*
X01625Y-02064D02*
X01523Y-02064D01*
X01523Y-02064D02*
X01422Y-02042D01*
X01422Y-02042D02*
X01328Y-02001D01*
X01328Y-02001D02*
X01245Y-01940D01*
X01245Y-01940D02*
X01176Y-01864D01*
X01176Y-01864D02*
X01125Y-01775D01*
X01125Y-01775D02*
X01093Y-01677D01*
X01093Y-01677D02*
X01082Y-01575D01*
X01082Y-01575D02*
X01093Y-01473D01*
X01093Y-01473D02*
X01125Y-01375D01*
X01125Y-01375D02*
X01176Y-01286D01*
X01176Y-01286D02*
X01245Y-01210D01*
X01245Y-01210D02*
X01328Y-01149D01*
X01328Y-01149D02*
X01422Y-01108D01*
X01422Y-01108D02*
X01523Y-01086D01*
X01523Y-01086D02*
X01625Y-01086D01*
X01625Y-01086D02*
X01726Y-01108D01*
X01726Y-01108D02*
X01820Y-01149D01*
X01820Y-01149D02*
X01903Y-01210D01*
X01903Y-01210D02*
X01972Y-01286D01*
X01972Y-01286D02*
X02023Y-01375D01*
X02023Y-01375D02*
X02055Y-01473D01*
X02055Y-01473D02*
X02066Y-01575D01*
X48523Y-01575D02*
X48512Y-01677D01*
X48512Y-01677D02*
X48480Y-01775D01*
X48480Y-01775D02*
X48429Y-01864D01*
X48429Y-01864D02*
X48360Y-01940D01*
X48360Y-01940D02*
X48277Y-02001D01*
X48277Y-02001D02*
X48183Y-02042D01*
X48183Y-02042D02*
X48082Y-02064D01*
X48082Y-02064D02*
X47980Y-02064D01*
X47980Y-02064D02*
X47879Y-02042D01*
X47879Y-02042D02*
X47785Y-02001D01*
X47785Y-02001D02*
X47702Y-01940D01*
X47702Y-01940D02*
X47633Y-01864D01*
X47633Y-01864D02*
X47582Y-01775D01*
X47582Y-01775D02*
X47550Y-01677D01*
X47550Y-01677D02*
X47539Y-01575D01*
X47539Y-01575D02*
X47550Y-01473D01*
X47550Y-01473D02*
X47582Y-01375D01*
X47582Y-01375D02*
X47633Y-01286D01*
X47633Y-01286D02*
X47702Y-01210D01*
X47702Y-01210D02*
X47785Y-01149D01*
X47785Y-01149D02*
X47879Y-01108D01*
X47879Y-01108D02*
X47980Y-01086D01*
X47980Y-01086D02*
X48082Y-01086D01*
X48082Y-01086D02*
X48183Y-01108D01*
X48183Y-01108D02*
X48277Y-01149D01*
X48277Y-01149D02*
X48360Y-01210D01*
X48360Y-01210D02*
X48429Y-01286D01*
X48429Y-01286D02*
X48480Y-01375D01*
X48480Y-01375D02*
X48512Y-01473D01*
X48512Y-01473D02*
X48523Y-01575D01*
X48523Y-31496D02*
X48512Y-31598D01*
X48512Y-31598D02*
X48480Y-31696D01*
X48480Y-31696D02*
X48429Y-31785D01*
X48429Y-31785D02*
X48360Y-31861D01*
X48360Y-31861D02*
X48277Y-31922D01*
X48277Y-31922D02*
X48183Y-31963D01*
X48183Y-31963D02*
X48082Y-31985D01*
X48082Y-31985D02*
X47980Y-31985D01*
X47980Y-31985D02*
X47879Y-31963D01*
X47879Y-31963D02*
X47785Y-31922D01*
X47785Y-31922D02*
X47702Y-31861D01*
X47702Y-31861D02*
X47633Y-31785D01*
X47633Y-31785D02*
X47582Y-31696D01*
X47582Y-31696D02*
X47550Y-31598D01*
X47550Y-31598D02*
X47539Y-31496D01*
X47539Y-31496D02*
X47550Y-31394D01*
X47550Y-31394D02*
X47582Y-31296D01*
X47582Y-31296D02*
X47633Y-31207D01*
X47633Y-31207D02*
X47702Y-31131D01*
X47702Y-31131D02*
X47785Y-31070D01*
X47785Y-31070D02*
X47879Y-31029D01*
X47879Y-31029D02*
X47980Y-31007D01*
X47980Y-31007D02*
X48082Y-31007D01*
X48082Y-31007D02*
X48183Y-31029D01*
X48183Y-31029D02*
X48277Y-31070D01*
X48277Y-31070D02*
X48360Y-31131D01*
X48360Y-31131D02*
X48429Y-31207D01*
X48429Y-31207D02*
X48480Y-31296D01*
X48480Y-31296D02*
X48512Y-31394D01*
X48512Y-31394D02*
X48523Y-31496D01*
X02066Y-31496D02*
X02055Y-31598D01*
X02055Y-31598D02*
X02023Y-31696D01*
X02023Y-31696D02*
X01972Y-31785D01*
X01972Y-31785D02*
X01903Y-31861D01*
X01903Y-31861D02*
X01820Y-31922D01*
X01820Y-31922D02*
X01726Y-31963D01*
X01726Y-31963D02*
X01625Y-31985D01*
X01625Y-31985D02*
X01523Y-31985D01*
X01523Y-31985D02*
X01422Y-31963D01*
X01422Y-31963D02*
X01328Y-31922D01*
X01328Y-31922D02*
X01245Y-31861D01*
X01245Y-31861D02*
X01176Y-31785D01*
X01176Y-31785D02*
X01125Y-31696D01*
X01125Y-31696D02*
X01093Y-31598D01*
X01093Y-31598D02*
X01082Y-31496D01*
X01082Y-31496D02*
X01093Y-31394D01*
X01093Y-31394D02*
X01125Y-31296D01*
X01125Y-31296D02*
X01176Y-31207D01*
X01176Y-31207D02*
X01245Y-31131D01*
X01245Y-31131D02*
X01328Y-31070D01*
X01328Y-31070D02*
X01422Y-31029D01*
X01422Y-31029D02*
X01523Y-31007D01*
X01523Y-31007D02*
X01625Y-31007D01*
X01625Y-31007D02*
X01726Y-31029D01*
X01726Y-31029D02*
X01820Y-31070D01*
X01820Y-31070D02*
X01903Y-31131D01*
X01903Y-31131D02*
X01972Y-31207D01*
X01972Y-31207D02*
X02023Y-31296D01*
X02023Y-31296D02*
X02055Y-31394D01*
X02055Y-31394D02*
X02066Y-31496D01*
X29626Y-01575D02*
X29615Y-01677D01*
X29615Y-01677D02*
X29583Y-01775D01*
X29583Y-01775D02*
X29532Y-01864D01*
X29532Y-01864D02*
X29463Y-01940D01*
X29463Y-01940D02*
X29380Y-02001D01*
X29380Y-02001D02*
X29286Y-02042D01*
X29286Y-02042D02*
X29185Y-02064D01*
X29185Y-02064D02*
X29083Y-02064D01*
X29083Y-02064D02*
X28982Y-02042D01*
X28982Y-02042D02*
X28888Y-02001D01*
X28888Y-02001D02*
X28805Y-01940D01*
X28805Y-01940D02*
X28736Y-01864D01*
X28736Y-01864D02*
X28685Y-01775D01*
X28685Y-01775D02*
X28653Y-01677D01*
X28653Y-01677D02*
X28642Y-01575D01*
X28642Y-01575D02*
X28653Y-01473D01*
X28653Y-01473D02*
X28685Y-01375D01*
X28685Y-01375D02*
X28736Y-01286D01*
X28736Y-01286D02*
X28805Y-01210D01*
X28805Y-01210D02*
X28888Y-01149D01*
X28888Y-01149D02*
X28982Y-01108D01*
X28982Y-01108D02*
X29083Y-01086D01*
X29083Y-01086D02*
X29185Y-01086D01*
X29185Y-01086D02*
X29286Y-01108D01*
X29286Y-01108D02*
X29380Y-01149D01*
X29380Y-01149D02*
X29463Y-01210D01*
X29463Y-01210D02*
X29532Y-01286D01*
X29532Y-01286D02*
X29583Y-01375D01*
X29583Y-01375D02*
X29615Y-01473D01*
X29615Y-01473D02*
X29626Y-01575D01*
X28051Y-31496D02*
X28040Y-31598D01*
X28040Y-31598D02*
X28008Y-31696D01*
X28008Y-31696D02*
X27957Y-31785D01*
X27957Y-31785D02*
X27888Y-31861D01*
X27888Y-31861D02*
X27805Y-31922D01*
X27805Y-31922D02*
X27711Y-31963D01*
X27711Y-31963D02*
X27610Y-31985D01*
X27610Y-31985D02*
X27508Y-31985D01*
X27508Y-31985D02*
X27407Y-31963D01*
X27407Y-31963D02*
X27313Y-31922D01*
X27313Y-31922D02*
X27230Y-31861D01*
X27230Y-31861D02*
X27161Y-31785D01*
X27161Y-31785D02*
X27110Y-31696D01*
X27110Y-31696D02*
X27078Y-31598D01*
X27078Y-31598D02*
X27067Y-31496D01*
X27067Y-31496D02*
X27078Y-31394D01*
X27078Y-31394D02*
X27110Y-31296D01*
X27110Y-31296D02*
X27161Y-31207D01*
X27161Y-31207D02*
X27230Y-31131D01*
X27230Y-31131D02*
X27313Y-31070D01*
X27313Y-31070D02*
X27407Y-31029D01*
X27407Y-31029D02*
X27508Y-31007D01*
X27508Y-31007D02*
X27610Y-31007D01*
X27610Y-31007D02*
X27711Y-31029D01*
X27711Y-31029D02*
X27805Y-31070D01*
X27805Y-31070D02*
X27888Y-31131D01*
X27888Y-31131D02*
X27957Y-31207D01*
X27957Y-31207D02*
X28008Y-31296D01*
X28008Y-31296D02*
X28040Y-31394D01*
X28040Y-31394D02*
X28051Y-31496D01*
G54D13*
X27454Y-19721D02*
X27479Y-19754D01*
X27479Y-19754D02*
X27604Y-19754D01*
X27604Y-19754D02*
X27629Y-19721D01*
X27629Y-19721D02*
X27629Y-19488D01*
X27629Y-19488D02*
X27604Y-19454D01*
X27604Y-19454D02*
X27479Y-19454D01*
X27479Y-19454D02*
X27454Y-19488D01*
X27332Y-19754D02*
X27357Y-19721D01*
X27357Y-19721D02*
X27357Y-19621D01*
X27357Y-19621D02*
X27332Y-19588D01*
X27332Y-19588D02*
X27207Y-19588D01*
X27207Y-19588D02*
X27182Y-19554D01*
X27182Y-19554D02*
X27182Y-19488D01*
X27182Y-19488D02*
X27207Y-19454D01*
X27207Y-19454D02*
X27332Y-19454D01*
X27332Y-19454D02*
X27357Y-19488D01*
X27357Y-19488D02*
X27357Y-19554D01*
X27357Y-19554D02*
X27332Y-19588D01*
X27207Y-19588D02*
X27182Y-19621D01*
X27182Y-19621D02*
X27182Y-19721D01*
X27182Y-19721D02*
X27207Y-19754D01*
X27207Y-19754D02*
X27332Y-19754D01*
X27085Y-19454D02*
X26910Y-19454D01*
X26910Y-19454D02*
X27085Y-19754D01*
X27924Y-20472D02*
X27749Y-20172D01*
X27924Y-20439D02*
X27924Y-20206D01*
X27924Y-20206D02*
X27899Y-20172D01*
X27899Y-20172D02*
X27774Y-20172D01*
X27774Y-20172D02*
X27749Y-20206D01*
X27749Y-20206D02*
X27749Y-20439D01*
X27749Y-20439D02*
X27774Y-20472D01*
X27774Y-20472D02*
X27899Y-20472D01*
X27899Y-20472D02*
X27924Y-20439D01*
X27577Y-20472D02*
X27577Y-20439D01*
X27330Y-20472D02*
X27230Y-20472D01*
X27280Y-20472D02*
X27280Y-20172D01*
X27280Y-20206D02*
X27330Y-20272D01*
X27108Y-20272D02*
X27108Y-20406D01*
X27108Y-20406D02*
X27058Y-20472D01*
X27058Y-20472D02*
X26983Y-20472D01*
X26983Y-20472D02*
X26933Y-20406D01*
X26933Y-20406D02*
X26933Y-20272D01*
X26811Y-20472D02*
X26811Y-20206D01*
X26811Y-20206D02*
X26786Y-20172D01*
X26786Y-20172D02*
X26686Y-20172D01*
X26686Y-20172D02*
X26661Y-20206D01*
X26836Y-20306D02*
X26761Y-20306D01*
X17138Y-06289D02*
X17171Y-06264D01*
X17171Y-06264D02*
X17171Y-06139D01*
X17171Y-06139D02*
X17138Y-06114D01*
X17138Y-06114D02*
X16905Y-06114D01*
X16905Y-06114D02*
X16871Y-06139D01*
X16871Y-06139D02*
X16871Y-06264D01*
X16871Y-06264D02*
X16905Y-06289D01*
X16905Y-06561D02*
X16871Y-06536D01*
X16871Y-06536D02*
X16871Y-06411D01*
X16871Y-06411D02*
X16905Y-06386D01*
X16905Y-06386D02*
X17138Y-06386D01*
X17138Y-06386D02*
X17171Y-06411D01*
X17171Y-06411D02*
X17171Y-06536D01*
X17171Y-06536D02*
X17138Y-06561D01*
X17138Y-06561D02*
X17038Y-06561D01*
X17038Y-06561D02*
X17005Y-06536D01*
X17005Y-06536D02*
X17005Y-06411D01*
X17005Y-06411D02*
X17038Y-06386D01*
X17171Y-06833D02*
X17171Y-06658D01*
X17171Y-06658D02*
X17071Y-06658D01*
X17071Y-06658D02*
X17038Y-06683D01*
X17038Y-06683D02*
X17038Y-06808D01*
X17038Y-06808D02*
X17005Y-06833D01*
X17005Y-06833D02*
X16905Y-06833D01*
X16905Y-06833D02*
X16871Y-06808D01*
X16871Y-06808D02*
X16871Y-06683D01*
X16871Y-06683D02*
X16905Y-06658D01*
X16792Y-06438D02*
X16492Y-06613D01*
X16759Y-06438D02*
X16526Y-06438D01*
X16526Y-06438D02*
X16492Y-06463D01*
X16492Y-06463D02*
X16492Y-06588D01*
X16492Y-06588D02*
X16526Y-06613D01*
X16526Y-06613D02*
X16759Y-06613D01*
X16759Y-06613D02*
X16792Y-06588D01*
X16792Y-06588D02*
X16792Y-06463D01*
X16792Y-06463D02*
X16759Y-06438D01*
X16792Y-06785D02*
X16759Y-06785D01*
X16792Y-06982D02*
X16492Y-07157D01*
X16759Y-06982D02*
X16526Y-06982D01*
X16526Y-06982D02*
X16492Y-07007D01*
X16492Y-07007D02*
X16492Y-07132D01*
X16492Y-07132D02*
X16526Y-07157D01*
X16526Y-07157D02*
X16759Y-07157D01*
X16759Y-07157D02*
X16792Y-07132D01*
X16792Y-07132D02*
X16792Y-07007D01*
X16792Y-07007D02*
X16759Y-06982D01*
X16792Y-07304D02*
X16792Y-07404D01*
X16792Y-07354D02*
X16492Y-07354D01*
X16526Y-07354D02*
X16592Y-07304D01*
X16592Y-07526D02*
X16726Y-07526D01*
X16726Y-07526D02*
X16792Y-07576D01*
X16792Y-07576D02*
X16792Y-07651D01*
X16792Y-07651D02*
X16726Y-07701D01*
X16726Y-07701D02*
X16592Y-07701D01*
X16792Y-07823D02*
X16526Y-07823D01*
X16526Y-07823D02*
X16492Y-07848D01*
X16492Y-07848D02*
X16492Y-07948D01*
X16492Y-07948D02*
X16526Y-07973D01*
X16626Y-07798D02*
X16626Y-07873D01*
X15655Y-08986D02*
X15680Y-09019D01*
X15680Y-09019D02*
X15805Y-09019D01*
X15805Y-09019D02*
X15830Y-08986D01*
X15830Y-08986D02*
X15830Y-08753D01*
X15830Y-08753D02*
X15805Y-08719D01*
X15805Y-08719D02*
X15680Y-08719D01*
X15680Y-08719D02*
X15655Y-08753D01*
X15383Y-08753D02*
X15408Y-08719D01*
X15408Y-08719D02*
X15533Y-08719D01*
X15533Y-08719D02*
X15558Y-08753D01*
X15558Y-08753D02*
X15558Y-08986D01*
X15558Y-08986D02*
X15533Y-09019D01*
X15533Y-09019D02*
X15408Y-09019D01*
X15408Y-09019D02*
X15383Y-08986D01*
X15383Y-08986D02*
X15383Y-08886D01*
X15383Y-08886D02*
X15408Y-08853D01*
X15408Y-08853D02*
X15533Y-08853D01*
X15533Y-08853D02*
X15558Y-08886D01*
X15286Y-09019D02*
X15111Y-08719D01*
X15286Y-08986D02*
X15286Y-08753D01*
X15286Y-08753D02*
X15261Y-08719D01*
X15261Y-08719D02*
X15136Y-08719D01*
X15136Y-08719D02*
X15111Y-08753D01*
X15111Y-08753D02*
X15111Y-08986D01*
X15111Y-08986D02*
X15136Y-09019D01*
X15136Y-09019D02*
X15261Y-09019D01*
X15261Y-09019D02*
X15286Y-08986D01*
X16708Y-09712D02*
X16533Y-09412D01*
X16708Y-09679D02*
X16708Y-09446D01*
X16708Y-09446D02*
X16683Y-09412D01*
X16683Y-09412D02*
X16558Y-09412D01*
X16558Y-09412D02*
X16533Y-09446D01*
X16533Y-09446D02*
X16533Y-09679D01*
X16533Y-09679D02*
X16558Y-09712D01*
X16558Y-09712D02*
X16683Y-09712D01*
X16683Y-09712D02*
X16708Y-09679D01*
X16361Y-09712D02*
X16361Y-09679D01*
X16164Y-09712D02*
X15989Y-09412D01*
X16164Y-09679D02*
X16164Y-09446D01*
X16164Y-09446D02*
X16139Y-09412D01*
X16139Y-09412D02*
X16014Y-09412D01*
X16014Y-09412D02*
X15989Y-09446D01*
X15989Y-09446D02*
X15989Y-09679D01*
X15989Y-09679D02*
X16014Y-09712D01*
X16014Y-09712D02*
X16139Y-09712D01*
X16139Y-09712D02*
X16164Y-09679D01*
X15842Y-09712D02*
X15742Y-09712D01*
X15792Y-09712D02*
X15792Y-09412D01*
X15792Y-09446D02*
X15842Y-09512D01*
X15620Y-09512D02*
X15620Y-09646D01*
X15620Y-09646D02*
X15570Y-09712D01*
X15570Y-09712D02*
X15495Y-09712D01*
X15495Y-09712D02*
X15445Y-09646D01*
X15445Y-09646D02*
X15445Y-09512D01*
X15323Y-09712D02*
X15323Y-09446D01*
X15323Y-09446D02*
X15298Y-09412D01*
X15298Y-09412D02*
X15198Y-09412D01*
X15198Y-09412D02*
X15173Y-09446D01*
X15348Y-09546D02*
X15273Y-09546D01*
X14649Y-08986D02*
X14674Y-09019D01*
X14674Y-09019D02*
X14799Y-09019D01*
X14799Y-09019D02*
X14824Y-08986D01*
X14824Y-08986D02*
X14824Y-08753D01*
X14824Y-08753D02*
X14799Y-08719D01*
X14799Y-08719D02*
X14674Y-08719D01*
X14674Y-08719D02*
X14649Y-08753D01*
X14427Y-09019D02*
X14427Y-08719D01*
X14427Y-08719D02*
X14552Y-08953D01*
X14552Y-08953D02*
X14377Y-08953D01*
X14280Y-09019D02*
X14105Y-08719D01*
X14280Y-08986D02*
X14280Y-08753D01*
X14280Y-08753D02*
X14255Y-08719D01*
X14255Y-08719D02*
X14130Y-08719D01*
X14130Y-08719D02*
X14105Y-08753D01*
X14105Y-08753D02*
X14105Y-08986D01*
X14105Y-08986D02*
X14130Y-09019D01*
X14130Y-09019D02*
X14255Y-09019D01*
X14255Y-09019D02*
X14280Y-08986D01*
X14848Y-09714D02*
X14673Y-09414D01*
X14848Y-09681D02*
X14848Y-09448D01*
X14848Y-09448D02*
X14823Y-09414D01*
X14823Y-09414D02*
X14698Y-09414D01*
X14698Y-09414D02*
X14673Y-09448D01*
X14673Y-09448D02*
X14673Y-09681D01*
X14673Y-09681D02*
X14698Y-09714D01*
X14698Y-09714D02*
X14823Y-09714D01*
X14823Y-09714D02*
X14848Y-09681D01*
X14501Y-09714D02*
X14501Y-09681D01*
X14304Y-09714D02*
X14129Y-09414D01*
X14304Y-09681D02*
X14304Y-09448D01*
X14304Y-09448D02*
X14279Y-09414D01*
X14279Y-09414D02*
X14154Y-09414D01*
X14154Y-09414D02*
X14129Y-09448D01*
X14129Y-09448D02*
X14129Y-09681D01*
X14129Y-09681D02*
X14154Y-09714D01*
X14154Y-09714D02*
X14279Y-09714D01*
X14279Y-09714D02*
X14304Y-09681D01*
X13982Y-09714D02*
X13882Y-09714D01*
X13932Y-09714D02*
X13932Y-09414D01*
X13932Y-09448D02*
X13982Y-09514D01*
X13760Y-09514D02*
X13760Y-09648D01*
X13760Y-09648D02*
X13710Y-09714D01*
X13710Y-09714D02*
X13635Y-09714D01*
X13635Y-09714D02*
X13585Y-09648D01*
X13585Y-09648D02*
X13585Y-09514D01*
X13463Y-09714D02*
X13463Y-09448D01*
X13463Y-09448D02*
X13438Y-09414D01*
X13438Y-09414D02*
X13338Y-09414D01*
X13338Y-09414D02*
X13313Y-09448D01*
X13488Y-09548D02*
X13413Y-09548D01*
X13805Y-06987D02*
X13838Y-06962D01*
X13838Y-06962D02*
X13838Y-06837D01*
X13838Y-06837D02*
X13805Y-06812D01*
X13805Y-06812D02*
X13572Y-06812D01*
X13572Y-06812D02*
X13538Y-06837D01*
X13538Y-06837D02*
X13538Y-06962D01*
X13538Y-06962D02*
X13572Y-06987D01*
X13772Y-07084D02*
X13805Y-07084D01*
X13805Y-07084D02*
X13838Y-07109D01*
X13838Y-07109D02*
X13838Y-07234D01*
X13838Y-07234D02*
X13805Y-07259D01*
X13805Y-07259D02*
X13705Y-07259D01*
X13705Y-07259D02*
X13638Y-07209D01*
X13638Y-07209D02*
X13638Y-07084D01*
X13638Y-07084D02*
X13538Y-07084D01*
X13538Y-07084D02*
X13538Y-07259D01*
X13772Y-07356D02*
X13805Y-07356D01*
X13805Y-07356D02*
X13838Y-07381D01*
X13838Y-07381D02*
X13838Y-07506D01*
X13838Y-07506D02*
X13805Y-07531D01*
X13805Y-07531D02*
X13705Y-07531D01*
X13705Y-07531D02*
X13638Y-07481D01*
X13638Y-07481D02*
X13638Y-07356D01*
X13638Y-07356D02*
X13538Y-07356D01*
X13538Y-07356D02*
X13538Y-07531D01*
X14496Y-06473D02*
X14196Y-06648D01*
X14463Y-06473D02*
X14230Y-06473D01*
X14230Y-06473D02*
X14196Y-06498D01*
X14196Y-06498D02*
X14196Y-06623D01*
X14196Y-06623D02*
X14230Y-06648D01*
X14230Y-06648D02*
X14463Y-06648D01*
X14463Y-06648D02*
X14496Y-06623D01*
X14496Y-06623D02*
X14496Y-06498D01*
X14496Y-06498D02*
X14463Y-06473D01*
X14496Y-06820D02*
X14463Y-06820D01*
X14496Y-07017D02*
X14196Y-07192D01*
X14463Y-07017D02*
X14230Y-07017D01*
X14230Y-07017D02*
X14196Y-07042D01*
X14196Y-07042D02*
X14196Y-07167D01*
X14196Y-07167D02*
X14230Y-07192D01*
X14230Y-07192D02*
X14463Y-07192D01*
X14463Y-07192D02*
X14496Y-07167D01*
X14496Y-07167D02*
X14496Y-07042D01*
X14496Y-07042D02*
X14463Y-07017D01*
X14496Y-07339D02*
X14496Y-07439D01*
X14496Y-07389D02*
X14196Y-07389D01*
X14230Y-07389D02*
X14296Y-07339D01*
X14296Y-07561D02*
X14430Y-07561D01*
X14430Y-07561D02*
X14496Y-07611D01*
X14496Y-07611D02*
X14496Y-07686D01*
X14496Y-07686D02*
X14430Y-07736D01*
X14430Y-07736D02*
X14296Y-07736D01*
X14496Y-07858D02*
X14230Y-07858D01*
X14230Y-07858D02*
X14196Y-07883D01*
X14196Y-07883D02*
X14196Y-07983D01*
X14196Y-07983D02*
X14230Y-08008D01*
X14330Y-07833D02*
X14330Y-07908D01*
X21550Y-18632D02*
X21575Y-18665D01*
X21575Y-18665D02*
X21700Y-18665D01*
X21700Y-18665D02*
X21725Y-18632D01*
X21725Y-18632D02*
X21725Y-18399D01*
X21725Y-18399D02*
X21700Y-18365D01*
X21700Y-18365D02*
X21575Y-18365D01*
X21575Y-18365D02*
X21550Y-18399D01*
X21328Y-18665D02*
X21328Y-18365D01*
X21328Y-18365D02*
X21453Y-18599D01*
X21453Y-18599D02*
X21278Y-18599D01*
X21006Y-18399D02*
X21031Y-18365D01*
X21031Y-18365D02*
X21156Y-18365D01*
X21156Y-18365D02*
X21181Y-18399D01*
X21181Y-18399D02*
X21181Y-18632D01*
X21181Y-18632D02*
X21156Y-18665D01*
X21156Y-18665D02*
X21031Y-18665D01*
X21031Y-18665D02*
X21006Y-18632D01*
X21006Y-18632D02*
X21006Y-18532D01*
X21006Y-18532D02*
X21031Y-18499D01*
X21031Y-18499D02*
X21156Y-18499D01*
X21156Y-18499D02*
X21181Y-18532D01*
X22343Y-17963D02*
X22168Y-17663D01*
X22343Y-17930D02*
X22343Y-17697D01*
X22343Y-17697D02*
X22318Y-17663D01*
X22318Y-17663D02*
X22193Y-17663D01*
X22193Y-17663D02*
X22168Y-17697D01*
X22168Y-17697D02*
X22168Y-17930D01*
X22168Y-17930D02*
X22193Y-17963D01*
X22193Y-17963D02*
X22318Y-17963D01*
X22318Y-17963D02*
X22343Y-17930D01*
X21996Y-17963D02*
X21996Y-17930D01*
X21749Y-17963D02*
X21649Y-17963D01*
X21699Y-17963D02*
X21699Y-17663D01*
X21699Y-17697D02*
X21749Y-17763D01*
X21527Y-17763D02*
X21527Y-17897D01*
X21527Y-17897D02*
X21477Y-17963D01*
X21477Y-17963D02*
X21402Y-17963D01*
X21402Y-17963D02*
X21352Y-17897D01*
X21352Y-17897D02*
X21352Y-17763D01*
X21230Y-17963D02*
X21230Y-17697D01*
X21230Y-17697D02*
X21205Y-17663D01*
X21205Y-17663D02*
X21105Y-17663D01*
X21105Y-17663D02*
X21080Y-17697D01*
X21255Y-17797D02*
X21180Y-17797D01*
X21116Y-17237D02*
X21149Y-17212D01*
X21149Y-17212D02*
X21149Y-17087D01*
X21149Y-17087D02*
X21116Y-17062D01*
X21116Y-17062D02*
X20883Y-17062D01*
X20883Y-17062D02*
X20849Y-17087D01*
X20849Y-17087D02*
X20849Y-17212D01*
X20849Y-17212D02*
X20883Y-17237D01*
X21149Y-17459D02*
X20849Y-17459D01*
X20849Y-17459D02*
X21083Y-17334D01*
X21083Y-17334D02*
X21083Y-17509D01*
X20849Y-17606D02*
X20849Y-17781D01*
X20849Y-17781D02*
X21149Y-17606D01*
X20383Y-16771D02*
X20083Y-16946D01*
X20350Y-16771D02*
X20117Y-16771D01*
X20117Y-16771D02*
X20083Y-16796D01*
X20083Y-16796D02*
X20083Y-16921D01*
X20083Y-16921D02*
X20117Y-16946D01*
X20117Y-16946D02*
X20350Y-16946D01*
X20350Y-16946D02*
X20383Y-16921D01*
X20383Y-16921D02*
X20383Y-16796D01*
X20383Y-16796D02*
X20350Y-16771D01*
X20383Y-17118D02*
X20350Y-17118D01*
X20383Y-17365D02*
X20383Y-17465D01*
X20383Y-17415D02*
X20083Y-17415D01*
X20117Y-17415D02*
X20183Y-17365D01*
X20183Y-17587D02*
X20317Y-17587D01*
X20317Y-17587D02*
X20383Y-17637D01*
X20383Y-17637D02*
X20383Y-17712D01*
X20383Y-17712D02*
X20317Y-17762D01*
X20317Y-17762D02*
X20183Y-17762D01*
X20383Y-17884D02*
X20117Y-17884D01*
X20117Y-17884D02*
X20083Y-17909D01*
X20083Y-17909D02*
X20083Y-18009D01*
X20083Y-18009D02*
X20117Y-18034D01*
X20217Y-17859D02*
X20217Y-17934D01*
X12795Y-17265D02*
X12828Y-17240D01*
X12828Y-17240D02*
X12828Y-17115D01*
X12828Y-17115D02*
X12795Y-17090D01*
X12795Y-17090D02*
X12562Y-17090D01*
X12562Y-17090D02*
X12528Y-17115D01*
X12528Y-17115D02*
X12528Y-17240D01*
X12528Y-17240D02*
X12562Y-17265D01*
X12828Y-17487D02*
X12528Y-17487D01*
X12528Y-17487D02*
X12762Y-17362D01*
X12762Y-17362D02*
X12762Y-17537D01*
X12828Y-17659D02*
X12795Y-17634D01*
X12795Y-17634D02*
X12695Y-17634D01*
X12695Y-17634D02*
X12662Y-17659D01*
X12662Y-17659D02*
X12662Y-17784D01*
X12662Y-17784D02*
X12628Y-17809D01*
X12628Y-17809D02*
X12562Y-17809D01*
X12562Y-17809D02*
X12528Y-17784D01*
X12528Y-17784D02*
X12528Y-17659D01*
X12528Y-17659D02*
X12562Y-17634D01*
X12562Y-17634D02*
X12628Y-17634D01*
X12628Y-17634D02*
X12662Y-17659D01*
X12662Y-17784D02*
X12695Y-17809D01*
X12695Y-17809D02*
X12795Y-17809D01*
X12795Y-17809D02*
X12828Y-17784D01*
X12828Y-17784D02*
X12828Y-17659D01*
X13430Y-16818D02*
X13130Y-16993D01*
X13397Y-16818D02*
X13164Y-16818D01*
X13164Y-16818D02*
X13130Y-16843D01*
X13130Y-16843D02*
X13130Y-16968D01*
X13130Y-16968D02*
X13164Y-16993D01*
X13164Y-16993D02*
X13397Y-16993D01*
X13397Y-16993D02*
X13430Y-16968D01*
X13430Y-16968D02*
X13430Y-16843D01*
X13430Y-16843D02*
X13397Y-16818D01*
X13430Y-17165D02*
X13397Y-17165D01*
X13430Y-17412D02*
X13430Y-17512D01*
X13430Y-17462D02*
X13130Y-17462D01*
X13164Y-17462D02*
X13230Y-17412D01*
X13230Y-17634D02*
X13364Y-17634D01*
X13364Y-17634D02*
X13430Y-17684D01*
X13430Y-17684D02*
X13430Y-17759D01*
X13430Y-17759D02*
X13364Y-17809D01*
X13364Y-17809D02*
X13230Y-17809D01*
X13430Y-17931D02*
X13164Y-17931D01*
X13164Y-17931D02*
X13130Y-17956D01*
X13130Y-17956D02*
X13130Y-18056D01*
X13130Y-18056D02*
X13164Y-18081D01*
X13264Y-17906D02*
X13264Y-17981D01*
X10845Y-15253D02*
X10870Y-15286D01*
X10870Y-15286D02*
X10995Y-15286D01*
X10995Y-15286D02*
X11020Y-15253D01*
X11020Y-15253D02*
X11020Y-15020D01*
X11020Y-15020D02*
X10995Y-14986D01*
X10995Y-14986D02*
X10870Y-14986D01*
X10870Y-14986D02*
X10845Y-15020D01*
X10623Y-15286D02*
X10623Y-14986D01*
X10623Y-14986D02*
X10748Y-15220D01*
X10748Y-15220D02*
X10573Y-15220D01*
X10451Y-15286D02*
X10326Y-15286D01*
X10326Y-15286D02*
X10301Y-15253D01*
X10301Y-15253D02*
X10301Y-15020D01*
X10301Y-15020D02*
X10326Y-14986D01*
X10326Y-14986D02*
X10451Y-14986D01*
X10451Y-14986D02*
X10476Y-15020D01*
X10476Y-15020D02*
X10476Y-15120D01*
X10476Y-15120D02*
X10451Y-15153D01*
X10451Y-15153D02*
X10326Y-15153D01*
X10326Y-15153D02*
X10301Y-15120D01*
X11419Y-14639D02*
X11244Y-14339D01*
X11419Y-14606D02*
X11419Y-14373D01*
X11419Y-14373D02*
X11394Y-14339D01*
X11394Y-14339D02*
X11269Y-14339D01*
X11269Y-14339D02*
X11244Y-14373D01*
X11244Y-14373D02*
X11244Y-14606D01*
X11244Y-14606D02*
X11269Y-14639D01*
X11269Y-14639D02*
X11394Y-14639D01*
X11394Y-14639D02*
X11419Y-14606D01*
X11072Y-14639D02*
X11072Y-14606D01*
X10825Y-14639D02*
X10725Y-14639D01*
X10775Y-14639D02*
X10775Y-14339D01*
X10775Y-14373D02*
X10825Y-14439D01*
X10603Y-14439D02*
X10603Y-14573D01*
X10603Y-14573D02*
X10553Y-14639D01*
X10553Y-14639D02*
X10478Y-14639D01*
X10478Y-14639D02*
X10428Y-14573D01*
X10428Y-14573D02*
X10428Y-14439D01*
X10306Y-14639D02*
X10306Y-14373D01*
X10306Y-14373D02*
X10281Y-14339D01*
X10281Y-14339D02*
X10181Y-14339D01*
X10181Y-14339D02*
X10156Y-14373D01*
X10331Y-14473D02*
X10256Y-14473D01*
X18050Y-10398D02*
X18083Y-10373D01*
X18083Y-10373D02*
X18083Y-10248D01*
X18083Y-10248D02*
X18050Y-10223D01*
X18050Y-10223D02*
X17817Y-10223D01*
X17817Y-10223D02*
X17783Y-10248D01*
X17783Y-10248D02*
X17783Y-10373D01*
X17783Y-10373D02*
X17817Y-10398D01*
X18017Y-10495D02*
X18050Y-10495D01*
X18050Y-10495D02*
X18083Y-10520D01*
X18083Y-10520D02*
X18083Y-10645D01*
X18083Y-10645D02*
X18050Y-10670D01*
X18050Y-10670D02*
X17950Y-10670D01*
X17950Y-10670D02*
X17883Y-10620D01*
X17883Y-10620D02*
X17883Y-10495D01*
X17883Y-10495D02*
X17783Y-10495D01*
X17783Y-10495D02*
X17783Y-10670D01*
X18083Y-10817D02*
X18083Y-10917D01*
X18083Y-10867D02*
X17783Y-10867D01*
X17817Y-10867D02*
X17883Y-10817D01*
X17639Y-10428D02*
X17339Y-10603D01*
X17606Y-10428D02*
X17373Y-10428D01*
X17373Y-10428D02*
X17339Y-10453D01*
X17339Y-10453D02*
X17339Y-10578D01*
X17339Y-10578D02*
X17373Y-10603D01*
X17373Y-10603D02*
X17606Y-10603D01*
X17606Y-10603D02*
X17639Y-10578D01*
X17639Y-10578D02*
X17639Y-10453D01*
X17639Y-10453D02*
X17606Y-10428D01*
X17639Y-10775D02*
X17606Y-10775D01*
X17639Y-10972D02*
X17339Y-11147D01*
X17606Y-10972D02*
X17373Y-10972D01*
X17373Y-10972D02*
X17339Y-10997D01*
X17339Y-10997D02*
X17339Y-11122D01*
X17339Y-11122D02*
X17373Y-11147D01*
X17373Y-11147D02*
X17606Y-11147D01*
X17606Y-11147D02*
X17639Y-11122D01*
X17639Y-11122D02*
X17639Y-10997D01*
X17639Y-10997D02*
X17606Y-10972D01*
X17639Y-11244D02*
X17339Y-11419D01*
X17606Y-11244D02*
X17373Y-11244D01*
X17373Y-11244D02*
X17339Y-11269D01*
X17339Y-11269D02*
X17339Y-11394D01*
X17339Y-11394D02*
X17373Y-11419D01*
X17373Y-11419D02*
X17606Y-11419D01*
X17606Y-11419D02*
X17639Y-11394D01*
X17639Y-11394D02*
X17639Y-11269D01*
X17639Y-11269D02*
X17606Y-11244D01*
X17639Y-11566D02*
X17639Y-11666D01*
X17639Y-11616D02*
X17339Y-11616D01*
X17373Y-11616D02*
X17439Y-11566D01*
X17439Y-11788D02*
X17573Y-11788D01*
X17573Y-11788D02*
X17639Y-11838D01*
X17639Y-11838D02*
X17639Y-11913D01*
X17639Y-11913D02*
X17573Y-11963D01*
X17573Y-11963D02*
X17439Y-11963D01*
X17639Y-12085D02*
X17373Y-12085D01*
X17373Y-12085D02*
X17339Y-12110D01*
X17339Y-12110D02*
X17339Y-12210D01*
X17339Y-12210D02*
X17373Y-12235D01*
X17473Y-12060D02*
X17473Y-12135D01*
X16549Y-14775D02*
X16574Y-14808D01*
X16574Y-14808D02*
X16699Y-14808D01*
X16699Y-14808D02*
X16724Y-14775D01*
X16724Y-14775D02*
X16724Y-14542D01*
X16724Y-14542D02*
X16699Y-14508D01*
X16699Y-14508D02*
X16574Y-14508D01*
X16574Y-14508D02*
X16549Y-14542D01*
X16452Y-14742D02*
X16452Y-14775D01*
X16452Y-14775D02*
X16427Y-14808D01*
X16427Y-14808D02*
X16302Y-14808D01*
X16302Y-14808D02*
X16277Y-14775D01*
X16277Y-14775D02*
X16277Y-14675D01*
X16277Y-14675D02*
X16327Y-14608D01*
X16327Y-14608D02*
X16452Y-14608D01*
X16452Y-14608D02*
X16452Y-14508D01*
X16452Y-14508D02*
X16277Y-14508D01*
X16005Y-14808D02*
X16180Y-14808D01*
X16180Y-14808D02*
X16180Y-14708D01*
X16180Y-14708D02*
X16155Y-14675D01*
X16155Y-14675D02*
X16030Y-14675D01*
X16030Y-14675D02*
X16005Y-14642D01*
X16005Y-14642D02*
X16005Y-14542D01*
X16005Y-14542D02*
X16030Y-14508D01*
X16030Y-14508D02*
X16155Y-14508D01*
X16155Y-14508D02*
X16180Y-14542D01*
X16093Y-15198D02*
X15918Y-14898D01*
X16093Y-15165D02*
X16093Y-14932D01*
X16093Y-14932D02*
X16068Y-14898D01*
X16068Y-14898D02*
X15943Y-14898D01*
X15943Y-14898D02*
X15918Y-14932D01*
X15918Y-14932D02*
X15918Y-15165D01*
X15918Y-15165D02*
X15943Y-15198D01*
X15943Y-15198D02*
X16068Y-15198D01*
X16068Y-15198D02*
X16093Y-15165D01*
X15746Y-15198D02*
X15746Y-15165D01*
X15499Y-15198D02*
X15399Y-15198D01*
X15449Y-15198D02*
X15449Y-14898D01*
X15449Y-14932D02*
X15499Y-14998D01*
X15277Y-14998D02*
X15277Y-15132D01*
X15277Y-15132D02*
X15227Y-15198D01*
X15227Y-15198D02*
X15152Y-15198D01*
X15152Y-15198D02*
X15102Y-15132D01*
X15102Y-15132D02*
X15102Y-14998D01*
X14980Y-15198D02*
X14980Y-14932D01*
X14980Y-14932D02*
X14955Y-14898D01*
X14955Y-14898D02*
X14855Y-14898D01*
X14855Y-14898D02*
X14830Y-14932D01*
X15005Y-15032D02*
X14930Y-15032D01*
X15901Y-13990D02*
X15926Y-14023D01*
X15926Y-14023D02*
X16051Y-14023D01*
X16051Y-14023D02*
X16076Y-13990D01*
X16076Y-13990D02*
X16076Y-13757D01*
X16076Y-13757D02*
X16051Y-13723D01*
X16051Y-13723D02*
X15926Y-13723D01*
X15926Y-13723D02*
X15901Y-13757D01*
X15804Y-13957D02*
X15804Y-13990D01*
X15804Y-13990D02*
X15779Y-14023D01*
X15779Y-14023D02*
X15654Y-14023D01*
X15654Y-14023D02*
X15629Y-13990D01*
X15629Y-13990D02*
X15629Y-13890D01*
X15629Y-13890D02*
X15679Y-13823D01*
X15679Y-13823D02*
X15804Y-13823D01*
X15804Y-13823D02*
X15804Y-13723D01*
X15804Y-13723D02*
X15629Y-13723D01*
X15407Y-14023D02*
X15407Y-13723D01*
X15407Y-13723D02*
X15532Y-13957D01*
X15532Y-13957D02*
X15357Y-13957D01*
X16516Y-13642D02*
X16341Y-13342D01*
X16516Y-13609D02*
X16516Y-13376D01*
X16516Y-13376D02*
X16491Y-13342D01*
X16491Y-13342D02*
X16366Y-13342D01*
X16366Y-13342D02*
X16341Y-13376D01*
X16341Y-13376D02*
X16341Y-13609D01*
X16341Y-13609D02*
X16366Y-13642D01*
X16366Y-13642D02*
X16491Y-13642D01*
X16491Y-13642D02*
X16516Y-13609D01*
X16169Y-13642D02*
X16169Y-13609D01*
X15972Y-13642D02*
X15797Y-13342D01*
X15972Y-13609D02*
X15972Y-13376D01*
X15972Y-13376D02*
X15947Y-13342D01*
X15947Y-13342D02*
X15822Y-13342D01*
X15822Y-13342D02*
X15797Y-13376D01*
X15797Y-13376D02*
X15797Y-13609D01*
X15797Y-13609D02*
X15822Y-13642D01*
X15822Y-13642D02*
X15947Y-13642D01*
X15947Y-13642D02*
X15972Y-13609D01*
X15650Y-13642D02*
X15550Y-13642D01*
X15600Y-13642D02*
X15600Y-13342D01*
X15600Y-13376D02*
X15650Y-13442D01*
X15428Y-13442D02*
X15428Y-13576D01*
X15428Y-13576D02*
X15378Y-13642D01*
X15378Y-13642D02*
X15303Y-13642D01*
X15303Y-13642D02*
X15253Y-13576D01*
X15253Y-13576D02*
X15253Y-13442D01*
X15131Y-13642D02*
X15131Y-13376D01*
X15131Y-13376D02*
X15106Y-13342D01*
X15106Y-13342D02*
X15006Y-13342D01*
X15006Y-13342D02*
X14981Y-13376D01*
X15156Y-13476D02*
X15081Y-13476D01*
X19784Y-13436D02*
X19809Y-13469D01*
X19809Y-13469D02*
X19934Y-13469D01*
X19934Y-13469D02*
X19959Y-13436D01*
X19959Y-13436D02*
X19959Y-13203D01*
X19959Y-13203D02*
X19934Y-13169D01*
X19934Y-13169D02*
X19809Y-13169D01*
X19809Y-13169D02*
X19784Y-13203D01*
X19687Y-13169D02*
X19512Y-13169D01*
X19512Y-13169D02*
X19512Y-13203D01*
X19512Y-13203D02*
X19612Y-13303D01*
X19612Y-13303D02*
X19537Y-13303D01*
X19537Y-13303D02*
X19512Y-13336D01*
X19512Y-13336D02*
X19512Y-13436D01*
X19512Y-13436D02*
X19537Y-13469D01*
X19537Y-13469D02*
X19662Y-13469D01*
X19662Y-13469D02*
X19687Y-13436D01*
X19415Y-13169D02*
X19240Y-13169D01*
X19240Y-13169D02*
X19240Y-13203D01*
X19240Y-13203D02*
X19340Y-13303D01*
X19340Y-13303D02*
X19265Y-13303D01*
X19265Y-13303D02*
X19240Y-13336D01*
X19240Y-13336D02*
X19240Y-13436D01*
X19240Y-13436D02*
X19265Y-13469D01*
X19265Y-13469D02*
X19390Y-13469D01*
X19390Y-13469D02*
X19415Y-13436D01*
X20283Y-12829D02*
X20108Y-12529D01*
X20283Y-12796D02*
X20283Y-12563D01*
X20283Y-12563D02*
X20258Y-12529D01*
X20258Y-12529D02*
X20133Y-12529D01*
X20133Y-12529D02*
X20108Y-12563D01*
X20108Y-12563D02*
X20108Y-12796D01*
X20108Y-12796D02*
X20133Y-12829D01*
X20133Y-12829D02*
X20258Y-12829D01*
X20258Y-12829D02*
X20283Y-12796D01*
X19936Y-12829D02*
X19936Y-12796D01*
X19689Y-12829D02*
X19589Y-12829D01*
X19639Y-12829D02*
X19639Y-12529D01*
X19639Y-12563D02*
X19689Y-12629D01*
X19467Y-12629D02*
X19467Y-12763D01*
X19467Y-12763D02*
X19417Y-12829D01*
X19417Y-12829D02*
X19342Y-12829D01*
X19342Y-12829D02*
X19292Y-12763D01*
X19292Y-12763D02*
X19292Y-12629D01*
X19170Y-12829D02*
X19170Y-12563D01*
X19170Y-12563D02*
X19145Y-12529D01*
X19145Y-12529D02*
X19045Y-12529D01*
X19045Y-12529D02*
X19020Y-12563D01*
X19195Y-12663D02*
X19120Y-12663D01*
X18928Y-11634D02*
X18953Y-11667D01*
X18953Y-11667D02*
X19078Y-11667D01*
X19078Y-11667D02*
X19103Y-11634D01*
X19103Y-11634D02*
X19103Y-11401D01*
X19103Y-11401D02*
X19078Y-11367D01*
X19078Y-11367D02*
X18953Y-11367D01*
X18953Y-11367D02*
X18928Y-11401D01*
X18831Y-11367D02*
X18656Y-11367D01*
X18656Y-11367D02*
X18656Y-11401D01*
X18656Y-11401D02*
X18756Y-11501D01*
X18756Y-11501D02*
X18681Y-11501D01*
X18681Y-11501D02*
X18656Y-11534D01*
X18656Y-11534D02*
X18656Y-11634D01*
X18656Y-11634D02*
X18681Y-11667D01*
X18681Y-11667D02*
X18806Y-11667D01*
X18806Y-11667D02*
X18831Y-11634D01*
X18434Y-11667D02*
X18434Y-11367D01*
X18434Y-11367D02*
X18559Y-11601D01*
X18559Y-11601D02*
X18384Y-11601D01*
X19272Y-12384D02*
X19097Y-12084D01*
X19272Y-12351D02*
X19272Y-12118D01*
X19272Y-12118D02*
X19247Y-12084D01*
X19247Y-12084D02*
X19122Y-12084D01*
X19122Y-12084D02*
X19097Y-12118D01*
X19097Y-12118D02*
X19097Y-12351D01*
X19097Y-12351D02*
X19122Y-12384D01*
X19122Y-12384D02*
X19247Y-12384D01*
X19247Y-12384D02*
X19272Y-12351D01*
X18925Y-12384D02*
X18925Y-12351D01*
X18678Y-12384D02*
X18578Y-12384D01*
X18628Y-12384D02*
X18628Y-12084D01*
X18628Y-12118D02*
X18678Y-12184D01*
X18456Y-12184D02*
X18456Y-12318D01*
X18456Y-12318D02*
X18406Y-12384D01*
X18406Y-12384D02*
X18331Y-12384D01*
X18331Y-12384D02*
X18281Y-12318D01*
X18281Y-12318D02*
X18281Y-12184D01*
X18159Y-12384D02*
X18159Y-12118D01*
X18159Y-12118D02*
X18134Y-12084D01*
X18134Y-12084D02*
X18034Y-12084D01*
X18034Y-12084D02*
X18009Y-12118D01*
X18184Y-12218D02*
X18109Y-12218D01*
X13200Y-12945D02*
X13233Y-12920D01*
X13233Y-12920D02*
X13233Y-12795D01*
X13233Y-12795D02*
X13200Y-12770D01*
X13200Y-12770D02*
X12967Y-12770D01*
X12967Y-12770D02*
X12933Y-12795D01*
X12933Y-12795D02*
X12933Y-12920D01*
X12933Y-12920D02*
X12967Y-12945D01*
X12933Y-13042D02*
X12933Y-13217D01*
X12933Y-13217D02*
X12967Y-13217D01*
X12967Y-13217D02*
X13067Y-13117D01*
X13067Y-13117D02*
X13067Y-13192D01*
X13067Y-13192D02*
X13100Y-13217D01*
X13100Y-13217D02*
X13200Y-13217D01*
X13200Y-13217D02*
X13233Y-13192D01*
X13233Y-13192D02*
X13233Y-13067D01*
X13233Y-13067D02*
X13200Y-13042D01*
X13167Y-13314D02*
X13200Y-13314D01*
X13200Y-13314D02*
X13233Y-13339D01*
X13233Y-13339D02*
X13233Y-13464D01*
X13233Y-13464D02*
X13200Y-13489D01*
X13200Y-13489D02*
X13100Y-13489D01*
X13100Y-13489D02*
X13033Y-13439D01*
X13033Y-13439D02*
X13033Y-13314D01*
X13033Y-13314D02*
X12933Y-13314D01*
X12933Y-13314D02*
X12933Y-13489D01*
X12610Y-12480D02*
X12310Y-12655D01*
X12577Y-12480D02*
X12344Y-12480D01*
X12344Y-12480D02*
X12310Y-12505D01*
X12310Y-12505D02*
X12310Y-12630D01*
X12310Y-12630D02*
X12344Y-12655D01*
X12344Y-12655D02*
X12577Y-12655D01*
X12577Y-12655D02*
X12610Y-12630D01*
X12610Y-12630D02*
X12610Y-12505D01*
X12610Y-12505D02*
X12577Y-12480D01*
X12610Y-12827D02*
X12577Y-12827D01*
X12610Y-13074D02*
X12610Y-13174D01*
X12610Y-13124D02*
X12310Y-13124D01*
X12344Y-13124D02*
X12410Y-13074D01*
X12410Y-13296D02*
X12544Y-13296D01*
X12544Y-13296D02*
X12610Y-13346D01*
X12610Y-13346D02*
X12610Y-13421D01*
X12610Y-13421D02*
X12544Y-13471D01*
X12544Y-13471D02*
X12410Y-13471D01*
X12610Y-13593D02*
X12344Y-13593D01*
X12344Y-13593D02*
X12310Y-13618D01*
X12310Y-13618D02*
X12310Y-13718D01*
X12310Y-13718D02*
X12344Y-13743D01*
X12444Y-13568D02*
X12444Y-13643D01*
X17052Y-13989D02*
X17077Y-14022D01*
X17077Y-14022D02*
X17202Y-14022D01*
X17202Y-14022D02*
X17227Y-13989D01*
X17227Y-13989D02*
X17227Y-13756D01*
X17227Y-13756D02*
X17202Y-13722D01*
X17202Y-13722D02*
X17077Y-13722D01*
X17077Y-13722D02*
X17052Y-13756D01*
X16955Y-13722D02*
X16780Y-13722D01*
X16780Y-13722D02*
X16780Y-13756D01*
X16780Y-13756D02*
X16880Y-13856D01*
X16880Y-13856D02*
X16805Y-13856D01*
X16805Y-13856D02*
X16780Y-13889D01*
X16780Y-13889D02*
X16780Y-13989D01*
X16780Y-13989D02*
X16805Y-14022D01*
X16805Y-14022D02*
X16930Y-14022D01*
X16930Y-14022D02*
X16955Y-13989D01*
X16683Y-13722D02*
X16508Y-13722D01*
X16508Y-13722D02*
X16683Y-14022D01*
X18746Y-14289D02*
X18571Y-13989D01*
X18746Y-14256D02*
X18746Y-14023D01*
X18746Y-14023D02*
X18721Y-13989D01*
X18721Y-13989D02*
X18596Y-13989D01*
X18596Y-13989D02*
X18571Y-14023D01*
X18571Y-14023D02*
X18571Y-14256D01*
X18571Y-14256D02*
X18596Y-14289D01*
X18596Y-14289D02*
X18721Y-14289D01*
X18721Y-14289D02*
X18746Y-14256D01*
X18399Y-14289D02*
X18399Y-14256D01*
X18202Y-14289D02*
X18027Y-13989D01*
X18202Y-14256D02*
X18202Y-14023D01*
X18202Y-14023D02*
X18177Y-13989D01*
X18177Y-13989D02*
X18052Y-13989D01*
X18052Y-13989D02*
X18027Y-14023D01*
X18027Y-14023D02*
X18027Y-14256D01*
X18027Y-14256D02*
X18052Y-14289D01*
X18052Y-14289D02*
X18177Y-14289D01*
X18177Y-14289D02*
X18202Y-14256D01*
X17880Y-14289D02*
X17780Y-14289D01*
X17830Y-14289D02*
X17830Y-13989D01*
X17830Y-14023D02*
X17880Y-14089D01*
X17658Y-14089D02*
X17658Y-14223D01*
X17658Y-14223D02*
X17608Y-14289D01*
X17608Y-14289D02*
X17533Y-14289D01*
X17533Y-14289D02*
X17483Y-14223D01*
X17483Y-14223D02*
X17483Y-14089D01*
X17361Y-14289D02*
X17361Y-14023D01*
X17361Y-14023D02*
X17336Y-13989D01*
X17336Y-13989D02*
X17236Y-13989D01*
X17236Y-13989D02*
X17211Y-14023D01*
X17386Y-14123D02*
X17311Y-14123D01*
X15418Y-16112D02*
X15443Y-16145D01*
X15443Y-16145D02*
X15568Y-16145D01*
X15568Y-16145D02*
X15593Y-16112D01*
X15593Y-16112D02*
X15593Y-15879D01*
X15593Y-15879D02*
X15568Y-15845D01*
X15568Y-15845D02*
X15443Y-15845D01*
X15443Y-15845D02*
X15418Y-15879D01*
X15321Y-15845D02*
X15146Y-15845D01*
X15146Y-15845D02*
X15146Y-15879D01*
X15146Y-15879D02*
X15246Y-15979D01*
X15246Y-15979D02*
X15171Y-15979D01*
X15171Y-15979D02*
X15146Y-16012D01*
X15146Y-16012D02*
X15146Y-16112D01*
X15146Y-16112D02*
X15171Y-16145D01*
X15171Y-16145D02*
X15296Y-16145D01*
X15296Y-16145D02*
X15321Y-16112D01*
X15024Y-16145D02*
X15049Y-16112D01*
X15049Y-16112D02*
X15049Y-16012D01*
X15049Y-16012D02*
X15024Y-15979D01*
X15024Y-15979D02*
X14899Y-15979D01*
X14899Y-15979D02*
X14874Y-15945D01*
X14874Y-15945D02*
X14874Y-15879D01*
X14874Y-15879D02*
X14899Y-15845D01*
X14899Y-15845D02*
X15024Y-15845D01*
X15024Y-15845D02*
X15049Y-15879D01*
X15049Y-15879D02*
X15049Y-15945D01*
X15049Y-15945D02*
X15024Y-15979D01*
X14899Y-15979D02*
X14874Y-16012D01*
X14874Y-16012D02*
X14874Y-16112D01*
X14874Y-16112D02*
X14899Y-16145D01*
X14899Y-16145D02*
X15024Y-16145D01*
X16854Y-16572D02*
X16679Y-16272D01*
X16854Y-16539D02*
X16854Y-16306D01*
X16854Y-16306D02*
X16829Y-16272D01*
X16829Y-16272D02*
X16704Y-16272D01*
X16704Y-16272D02*
X16679Y-16306D01*
X16679Y-16306D02*
X16679Y-16539D01*
X16679Y-16539D02*
X16704Y-16572D01*
X16704Y-16572D02*
X16829Y-16572D01*
X16829Y-16572D02*
X16854Y-16539D01*
X16507Y-16572D02*
X16507Y-16539D01*
X16310Y-16572D02*
X16135Y-16272D01*
X16310Y-16539D02*
X16310Y-16306D01*
X16310Y-16306D02*
X16285Y-16272D01*
X16285Y-16272D02*
X16160Y-16272D01*
X16160Y-16272D02*
X16135Y-16306D01*
X16135Y-16306D02*
X16135Y-16539D01*
X16135Y-16539D02*
X16160Y-16572D01*
X16160Y-16572D02*
X16285Y-16572D01*
X16285Y-16572D02*
X16310Y-16539D01*
X16038Y-16572D02*
X15863Y-16272D01*
X16038Y-16539D02*
X16038Y-16306D01*
X16038Y-16306D02*
X16013Y-16272D01*
X16013Y-16272D02*
X15888Y-16272D01*
X15888Y-16272D02*
X15863Y-16306D01*
X15863Y-16306D02*
X15863Y-16539D01*
X15863Y-16539D02*
X15888Y-16572D01*
X15888Y-16572D02*
X16013Y-16572D01*
X16013Y-16572D02*
X16038Y-16539D01*
X15716Y-16572D02*
X15616Y-16572D01*
X15666Y-16572D02*
X15666Y-16272D01*
X15666Y-16306D02*
X15716Y-16372D01*
X15494Y-16372D02*
X15494Y-16506D01*
X15494Y-16506D02*
X15444Y-16572D01*
X15444Y-16572D02*
X15369Y-16572D01*
X15369Y-16572D02*
X15319Y-16506D01*
X15319Y-16506D02*
X15319Y-16372D01*
X15197Y-16572D02*
X15197Y-16306D01*
X15197Y-16306D02*
X15172Y-16272D01*
X15172Y-16272D02*
X15072Y-16272D01*
X15072Y-16272D02*
X15047Y-16306D01*
X15222Y-16406D02*
X15147Y-16406D01*
X14854Y-14259D02*
X14887Y-14234D01*
X14887Y-14234D02*
X14887Y-14109D01*
X14887Y-14109D02*
X14854Y-14084D01*
X14854Y-14084D02*
X14621Y-14084D01*
X14621Y-14084D02*
X14587Y-14109D01*
X14587Y-14109D02*
X14587Y-14234D01*
X14587Y-14234D02*
X14621Y-14259D01*
X14587Y-14356D02*
X14587Y-14531D01*
X14587Y-14531D02*
X14621Y-14531D01*
X14621Y-14531D02*
X14721Y-14431D01*
X14721Y-14431D02*
X14721Y-14506D01*
X14721Y-14506D02*
X14754Y-14531D01*
X14754Y-14531D02*
X14854Y-14531D01*
X14854Y-14531D02*
X14887Y-14506D01*
X14887Y-14506D02*
X14887Y-14381D01*
X14887Y-14381D02*
X14854Y-14356D01*
X14887Y-14653D02*
X14887Y-14778D01*
X14887Y-14778D02*
X14854Y-14803D01*
X14854Y-14803D02*
X14621Y-14803D01*
X14621Y-14803D02*
X14587Y-14778D01*
X14587Y-14778D02*
X14587Y-14653D01*
X14587Y-14653D02*
X14621Y-14628D01*
X14621Y-14628D02*
X14721Y-14628D01*
X14721Y-14628D02*
X14754Y-14653D01*
X14754Y-14653D02*
X14754Y-14778D01*
X14754Y-14778D02*
X14721Y-14803D01*
X14431Y-13700D02*
X14131Y-13875D01*
X14398Y-13700D02*
X14165Y-13700D01*
X14165Y-13700D02*
X14131Y-13725D01*
X14131Y-13725D02*
X14131Y-13850D01*
X14131Y-13850D02*
X14165Y-13875D01*
X14165Y-13875D02*
X14398Y-13875D01*
X14398Y-13875D02*
X14431Y-13850D01*
X14431Y-13850D02*
X14431Y-13725D01*
X14431Y-13725D02*
X14398Y-13700D01*
X14431Y-14047D02*
X14398Y-14047D01*
X14431Y-14244D02*
X14131Y-14419D01*
X14398Y-14244D02*
X14165Y-14244D01*
X14165Y-14244D02*
X14131Y-14269D01*
X14131Y-14269D02*
X14131Y-14394D01*
X14131Y-14394D02*
X14165Y-14419D01*
X14165Y-14419D02*
X14398Y-14419D01*
X14398Y-14419D02*
X14431Y-14394D01*
X14431Y-14394D02*
X14431Y-14269D01*
X14431Y-14269D02*
X14398Y-14244D01*
X14431Y-14566D02*
X14431Y-14666D01*
X14431Y-14616D02*
X14131Y-14616D01*
X14165Y-14616D02*
X14231Y-14566D01*
X14231Y-14788D02*
X14365Y-14788D01*
X14365Y-14788D02*
X14431Y-14838D01*
X14431Y-14838D02*
X14431Y-14913D01*
X14431Y-14913D02*
X14365Y-14963D01*
X14365Y-14963D02*
X14231Y-14963D01*
X14431Y-15085D02*
X14165Y-15085D01*
X14165Y-15085D02*
X14131Y-15110D01*
X14131Y-15110D02*
X14131Y-15210D01*
X14131Y-15210D02*
X14165Y-15235D01*
X14265Y-15060D02*
X14265Y-15135D01*
X16734Y-15498D02*
X16759Y-15531D01*
X16759Y-15531D02*
X16884Y-15531D01*
X16884Y-15531D02*
X16909Y-15498D01*
X16909Y-15498D02*
X16909Y-15265D01*
X16909Y-15265D02*
X16884Y-15231D01*
X16884Y-15231D02*
X16759Y-15231D01*
X16759Y-15231D02*
X16734Y-15265D01*
X16587Y-15531D02*
X16487Y-15531D01*
X16537Y-15531D02*
X16537Y-15231D01*
X16537Y-15265D02*
X16587Y-15331D01*
X16315Y-15531D02*
X16215Y-15531D01*
X16265Y-15531D02*
X16265Y-15231D01*
X16265Y-15265D02*
X16315Y-15331D01*
X18148Y-15193D02*
X17973Y-14893D01*
X18148Y-15160D02*
X18148Y-14927D01*
X18148Y-14927D02*
X18123Y-14893D01*
X18123Y-14893D02*
X17998Y-14893D01*
X17998Y-14893D02*
X17973Y-14927D01*
X17973Y-14927D02*
X17973Y-15160D01*
X17973Y-15160D02*
X17998Y-15193D01*
X17998Y-15193D02*
X18123Y-15193D01*
X18123Y-15193D02*
X18148Y-15160D01*
X17801Y-15193D02*
X17801Y-15160D01*
X17554Y-15193D02*
X17454Y-15193D01*
X17504Y-15193D02*
X17504Y-14893D01*
X17504Y-14927D02*
X17554Y-14993D01*
X17332Y-14993D02*
X17332Y-15127D01*
X17332Y-15127D02*
X17282Y-15193D01*
X17282Y-15193D02*
X17207Y-15193D01*
X17207Y-15193D02*
X17157Y-15127D01*
X17157Y-15127D02*
X17157Y-14993D01*
X17035Y-15193D02*
X17035Y-14927D01*
X17035Y-14927D02*
X17010Y-14893D01*
X17010Y-14893D02*
X16910Y-14893D01*
X16910Y-14893D02*
X16885Y-14927D01*
X17060Y-15027D02*
X16985Y-15027D01*
X12857Y-16508D02*
X12882Y-16541D01*
X12882Y-16541D02*
X13007Y-16541D01*
X13007Y-16541D02*
X13032Y-16508D01*
X13032Y-16508D02*
X13032Y-16275D01*
X13032Y-16275D02*
X13007Y-16241D01*
X13007Y-16241D02*
X12882Y-16241D01*
X12882Y-16241D02*
X12857Y-16275D01*
X12760Y-16241D02*
X12585Y-16241D01*
X12585Y-16241D02*
X12760Y-16541D01*
X12959Y-16915D02*
X12784Y-16615D01*
X12959Y-16882D02*
X12959Y-16649D01*
X12959Y-16649D02*
X12934Y-16615D01*
X12934Y-16615D02*
X12809Y-16615D01*
X12809Y-16615D02*
X12784Y-16649D01*
X12784Y-16649D02*
X12784Y-16882D01*
X12784Y-16882D02*
X12809Y-16915D01*
X12809Y-16915D02*
X12934Y-16915D01*
X12934Y-16915D02*
X12959Y-16882D01*
X12612Y-16915D02*
X12612Y-16882D01*
X12365Y-16915D02*
X12265Y-16915D01*
X12315Y-16915D02*
X12315Y-16615D01*
X12315Y-16649D02*
X12365Y-16715D01*
X12143Y-16715D02*
X12143Y-16849D01*
X12143Y-16849D02*
X12093Y-16915D01*
X12093Y-16915D02*
X12018Y-16915D01*
X12018Y-16915D02*
X11968Y-16849D01*
X11968Y-16849D02*
X11968Y-16715D01*
X11846Y-16915D02*
X11846Y-16649D01*
X11846Y-16649D02*
X11821Y-16615D01*
X11821Y-16615D02*
X11721Y-16615D01*
X11721Y-16615D02*
X11696Y-16649D01*
X11871Y-16749D02*
X11796Y-16749D01*
X19259Y-17845D02*
X19284Y-17878D01*
X19284Y-17878D02*
X19409Y-17878D01*
X19409Y-17878D02*
X19434Y-17845D01*
X19434Y-17845D02*
X19434Y-17612D01*
X19434Y-17612D02*
X19409Y-17578D01*
X19409Y-17578D02*
X19284Y-17578D01*
X19284Y-17578D02*
X19259Y-17612D01*
X19162Y-17812D02*
X19162Y-17845D01*
X19162Y-17845D02*
X19137Y-17878D01*
X19137Y-17878D02*
X19012Y-17878D01*
X19012Y-17878D02*
X18987Y-17845D01*
X18987Y-17845D02*
X18987Y-17745D01*
X18987Y-17745D02*
X19037Y-17678D01*
X19037Y-17678D02*
X19162Y-17678D01*
X19162Y-17678D02*
X19162Y-17578D01*
X19162Y-17578D02*
X18987Y-17578D01*
X20827Y-18490D02*
X20652Y-18190D01*
X20827Y-18457D02*
X20827Y-18224D01*
X20827Y-18224D02*
X20802Y-18190D01*
X20802Y-18190D02*
X20677Y-18190D01*
X20677Y-18190D02*
X20652Y-18224D01*
X20652Y-18224D02*
X20652Y-18457D01*
X20652Y-18457D02*
X20677Y-18490D01*
X20677Y-18490D02*
X20802Y-18490D01*
X20802Y-18490D02*
X20827Y-18457D01*
X20480Y-18490D02*
X20480Y-18457D01*
X20233Y-18490D02*
X20133Y-18490D01*
X20183Y-18490D02*
X20183Y-18190D01*
X20183Y-18224D02*
X20233Y-18290D01*
X20011Y-18290D02*
X20011Y-18424D01*
X20011Y-18424D02*
X19961Y-18490D01*
X19961Y-18490D02*
X19886Y-18490D01*
X19886Y-18490D02*
X19836Y-18424D01*
X19836Y-18424D02*
X19836Y-18290D01*
X19714Y-18490D02*
X19714Y-18224D01*
X19714Y-18224D02*
X19689Y-18190D01*
X19689Y-18190D02*
X19589Y-18190D01*
X19589Y-18190D02*
X19564Y-18224D01*
X19739Y-18324D02*
X19664Y-18324D01*
X10199Y-09148D02*
X10224Y-09181D01*
X10224Y-09181D02*
X10349Y-09181D01*
X10349Y-09181D02*
X10374Y-09148D01*
X10374Y-09148D02*
X10374Y-08915D01*
X10374Y-08915D02*
X10349Y-08881D01*
X10349Y-08881D02*
X10224Y-08881D01*
X10224Y-08881D02*
X10199Y-08915D01*
X10077Y-09181D02*
X10102Y-09148D01*
X10102Y-09148D02*
X10102Y-09048D01*
X10102Y-09048D02*
X10077Y-09015D01*
X10077Y-09015D02*
X09952Y-09015D01*
X09952Y-09015D02*
X09927Y-08981D01*
X09927Y-08981D02*
X09927Y-08915D01*
X09927Y-08915D02*
X09952Y-08881D01*
X09952Y-08881D02*
X10077Y-08881D01*
X10077Y-08881D02*
X10102Y-08915D01*
X10102Y-08915D02*
X10102Y-08981D01*
X10102Y-08981D02*
X10077Y-09015D01*
X09952Y-09015D02*
X09927Y-09048D01*
X09927Y-09048D02*
X09927Y-09148D01*
X09927Y-09148D02*
X09952Y-09181D01*
X09952Y-09181D02*
X10077Y-09181D01*
X09992Y-09653D02*
X09817Y-09353D01*
X09992Y-09620D02*
X09992Y-09387D01*
X09992Y-09387D02*
X09967Y-09353D01*
X09967Y-09353D02*
X09842Y-09353D01*
X09842Y-09353D02*
X09817Y-09387D01*
X09817Y-09387D02*
X09817Y-09620D01*
X09817Y-09620D02*
X09842Y-09653D01*
X09842Y-09653D02*
X09967Y-09653D01*
X09967Y-09653D02*
X09992Y-09620D01*
X09645Y-09653D02*
X09645Y-09620D01*
X09398Y-09653D02*
X09298Y-09653D01*
X09348Y-09653D02*
X09348Y-09353D01*
X09348Y-09387D02*
X09398Y-09453D01*
X09176Y-09453D02*
X09176Y-09587D01*
X09176Y-09587D02*
X09126Y-09653D01*
X09126Y-09653D02*
X09051Y-09653D01*
X09051Y-09653D02*
X09001Y-09587D01*
X09001Y-09587D02*
X09001Y-09453D01*
X08879Y-09653D02*
X08879Y-09387D01*
X08879Y-09387D02*
X08854Y-09353D01*
X08854Y-09353D02*
X08754Y-09353D01*
X08754Y-09353D02*
X08729Y-09387D01*
X08904Y-09487D02*
X08829Y-09487D01*
X07987Y-06503D02*
X08020Y-06478D01*
X08020Y-06478D02*
X08020Y-06353D01*
X08020Y-06353D02*
X07987Y-06328D01*
X07987Y-06328D02*
X07754Y-06328D01*
X07754Y-06328D02*
X07720Y-06353D01*
X07720Y-06353D02*
X07720Y-06478D01*
X07720Y-06478D02*
X07754Y-06503D01*
X07720Y-06600D02*
X07720Y-06775D01*
X07720Y-06775D02*
X08020Y-06600D01*
X07720Y-06872D02*
X07720Y-07047D01*
X07720Y-07047D02*
X07754Y-07047D01*
X07754Y-07047D02*
X07854Y-06947D01*
X07854Y-06947D02*
X07854Y-07022D01*
X07854Y-07022D02*
X07887Y-07047D01*
X07887Y-07047D02*
X07987Y-07047D01*
X07987Y-07047D02*
X08020Y-07022D01*
X08020Y-07022D02*
X08020Y-06897D01*
X08020Y-06897D02*
X07987Y-06872D01*
X08727Y-06453D02*
X08727Y-06553D01*
X08727Y-06503D02*
X08427Y-06503D01*
X08461Y-06503D02*
X08527Y-06453D01*
X08527Y-06675D02*
X08661Y-06675D01*
X08661Y-06675D02*
X08727Y-06725D01*
X08727Y-06725D02*
X08727Y-06800D01*
X08727Y-06800D02*
X08661Y-06850D01*
X08661Y-06850D02*
X08527Y-06850D01*
X08727Y-06972D02*
X08461Y-06972D01*
X08461Y-06972D02*
X08427Y-06997D01*
X08427Y-06997D02*
X08427Y-07097D01*
X08427Y-07097D02*
X08461Y-07122D01*
X08561Y-06947D02*
X08561Y-07022D01*
X13217Y-11774D02*
X13250Y-11749D01*
X13250Y-11749D02*
X13250Y-11624D01*
X13250Y-11624D02*
X13217Y-11599D01*
X13217Y-11599D02*
X12984Y-11599D01*
X12984Y-11599D02*
X12950Y-11624D01*
X12950Y-11624D02*
X12950Y-11749D01*
X12950Y-11749D02*
X12984Y-11774D01*
X12984Y-12046D02*
X12950Y-12021D01*
X12950Y-12021D02*
X12950Y-11896D01*
X12950Y-11896D02*
X12984Y-11871D01*
X12984Y-11871D02*
X13217Y-11871D01*
X13217Y-11871D02*
X13250Y-11896D01*
X13250Y-11896D02*
X13250Y-12021D01*
X13250Y-12021D02*
X13217Y-12046D01*
X13217Y-12046D02*
X13117Y-12046D01*
X13117Y-12046D02*
X13084Y-12021D01*
X13084Y-12021D02*
X13084Y-11896D01*
X13084Y-11896D02*
X13117Y-11871D01*
X13184Y-12143D02*
X13217Y-12143D01*
X13217Y-12143D02*
X13250Y-12168D01*
X13250Y-12168D02*
X13250Y-12293D01*
X13250Y-12293D02*
X13217Y-12318D01*
X13217Y-12318D02*
X13117Y-12318D01*
X13117Y-12318D02*
X13050Y-12268D01*
X13050Y-12268D02*
X13050Y-12143D01*
X13050Y-12143D02*
X12950Y-12143D01*
X12950Y-12143D02*
X12950Y-12318D01*
X12592Y-11649D02*
X12592Y-11749D01*
X12592Y-11699D02*
X12292Y-11699D01*
X12326Y-11699D02*
X12392Y-11649D01*
X12392Y-11871D02*
X12526Y-11871D01*
X12526Y-11871D02*
X12592Y-11921D01*
X12592Y-11921D02*
X12592Y-11996D01*
X12592Y-11996D02*
X12526Y-12046D01*
X12526Y-12046D02*
X12392Y-12046D01*
X12592Y-12168D02*
X12326Y-12168D01*
X12326Y-12168D02*
X12292Y-12193D01*
X12292Y-12193D02*
X12292Y-12293D01*
X12292Y-12293D02*
X12326Y-12318D01*
X12426Y-12143D02*
X12426Y-12218D01*
X16973Y-20749D02*
X17006Y-20724D01*
X17006Y-20724D02*
X17006Y-20599D01*
X17006Y-20599D02*
X16973Y-20574D01*
X16973Y-20574D02*
X16740Y-20574D01*
X16740Y-20574D02*
X16706Y-20599D01*
X16706Y-20599D02*
X16706Y-20724D01*
X16706Y-20724D02*
X16740Y-20749D01*
X16706Y-20846D02*
X16706Y-21021D01*
X16706Y-21021D02*
X17006Y-20846D01*
X17006Y-21293D02*
X17006Y-21118D01*
X17006Y-21118D02*
X16906Y-21118D01*
X16906Y-21118D02*
X16873Y-21143D01*
X16873Y-21143D02*
X16873Y-21268D01*
X16873Y-21268D02*
X16840Y-21293D01*
X16840Y-21293D02*
X16740Y-21293D01*
X16740Y-21293D02*
X16706Y-21268D01*
X16706Y-21268D02*
X16706Y-21143D01*
X16706Y-21143D02*
X16740Y-21118D01*
X16927Y-18434D02*
X16627Y-18609D01*
X16894Y-18434D02*
X16661Y-18434D01*
X16661Y-18434D02*
X16627Y-18459D01*
X16627Y-18459D02*
X16627Y-18584D01*
X16627Y-18584D02*
X16661Y-18609D01*
X16661Y-18609D02*
X16894Y-18609D01*
X16894Y-18609D02*
X16927Y-18584D01*
X16927Y-18584D02*
X16927Y-18459D01*
X16927Y-18459D02*
X16894Y-18434D01*
X16927Y-18781D02*
X16894Y-18781D01*
X16927Y-19028D02*
X16927Y-19128D01*
X16927Y-19078D02*
X16627Y-19078D01*
X16661Y-19078D02*
X16727Y-19028D01*
X16727Y-19250D02*
X16861Y-19250D01*
X16861Y-19250D02*
X16927Y-19300D01*
X16927Y-19300D02*
X16927Y-19375D01*
X16927Y-19375D02*
X16861Y-19425D01*
X16861Y-19425D02*
X16727Y-19425D01*
X16927Y-19547D02*
X16661Y-19547D01*
X16661Y-19547D02*
X16627Y-19572D01*
X16627Y-19572D02*
X16627Y-19672D01*
X16627Y-19672D02*
X16661Y-19697D01*
X16761Y-19522D02*
X16761Y-19597D01*
X15658Y-20352D02*
X15691Y-20327D01*
X15691Y-20327D02*
X15691Y-20202D01*
X15691Y-20202D02*
X15658Y-20177D01*
X15658Y-20177D02*
X15425Y-20177D01*
X15425Y-20177D02*
X15391Y-20202D01*
X15391Y-20202D02*
X15391Y-20327D01*
X15391Y-20327D02*
X15425Y-20352D01*
X15391Y-20449D02*
X15391Y-20624D01*
X15391Y-20624D02*
X15691Y-20449D01*
X15691Y-20771D02*
X15691Y-20871D01*
X15691Y-20821D02*
X15391Y-20821D01*
X15425Y-20821D02*
X15491Y-20771D01*
X15703Y-18841D02*
X15703Y-18941D01*
X15703Y-18891D02*
X15403Y-18891D01*
X15437Y-18891D02*
X15503Y-18841D01*
X15503Y-19063D02*
X15637Y-19063D01*
X15637Y-19063D02*
X15703Y-19113D01*
X15703Y-19113D02*
X15703Y-19188D01*
X15703Y-19188D02*
X15637Y-19238D01*
X15637Y-19238D02*
X15503Y-19238D01*
X15703Y-19360D02*
X15437Y-19360D01*
X15437Y-19360D02*
X15403Y-19385D01*
X15403Y-19385D02*
X15403Y-19485D01*
X15403Y-19485D02*
X15437Y-19510D01*
X15537Y-19335D02*
X15537Y-19410D01*
X17526Y-18227D02*
X17559Y-18202D01*
X17559Y-18202D02*
X17559Y-18077D01*
X17559Y-18077D02*
X17526Y-18052D01*
X17526Y-18052D02*
X17293Y-18052D01*
X17293Y-18052D02*
X17259Y-18077D01*
X17259Y-18077D02*
X17259Y-18202D01*
X17259Y-18202D02*
X17293Y-18227D01*
X17493Y-18324D02*
X17526Y-18324D01*
X17526Y-18324D02*
X17559Y-18349D01*
X17559Y-18349D02*
X17559Y-18474D01*
X17559Y-18474D02*
X17526Y-18499D01*
X17526Y-18499D02*
X17426Y-18499D01*
X17426Y-18499D02*
X17359Y-18449D01*
X17359Y-18449D02*
X17359Y-18324D01*
X17359Y-18324D02*
X17259Y-18324D01*
X17259Y-18324D02*
X17259Y-18499D01*
X17559Y-18596D02*
X17259Y-18771D01*
X17526Y-18596D02*
X17293Y-18596D01*
X17293Y-18596D02*
X17259Y-18621D01*
X17259Y-18621D02*
X17259Y-18746D01*
X17259Y-18746D02*
X17293Y-18771D01*
X17293Y-18771D02*
X17526Y-18771D01*
X17526Y-18771D02*
X17559Y-18746D01*
X17559Y-18746D02*
X17559Y-18621D01*
X17559Y-18621D02*
X17526Y-18596D01*
X18336Y-17986D02*
X18336Y-18086D01*
X18336Y-18036D02*
X18036Y-18036D01*
X18070Y-18036D02*
X18136Y-17986D01*
X18336Y-18208D02*
X18036Y-18383D01*
X18303Y-18208D02*
X18070Y-18208D01*
X18070Y-18208D02*
X18036Y-18233D01*
X18036Y-18233D02*
X18036Y-18358D01*
X18036Y-18358D02*
X18070Y-18383D01*
X18070Y-18383D02*
X18303Y-18383D01*
X18303Y-18383D02*
X18336Y-18358D01*
X18336Y-18358D02*
X18336Y-18233D01*
X18336Y-18233D02*
X18303Y-18208D01*
X18136Y-18480D02*
X18270Y-18480D01*
X18270Y-18480D02*
X18336Y-18530D01*
X18336Y-18530D02*
X18336Y-18605D01*
X18336Y-18605D02*
X18270Y-18655D01*
X18270Y-18655D02*
X18136Y-18655D01*
X18336Y-18777D02*
X18070Y-18777D01*
X18070Y-18777D02*
X18036Y-18802D01*
X18036Y-18802D02*
X18036Y-18902D01*
X18036Y-18902D02*
X18070Y-18927D01*
X18170Y-18752D02*
X18170Y-18827D01*
X21358Y-12659D02*
X21391Y-12634D01*
X21391Y-12634D02*
X21391Y-12509D01*
X21391Y-12509D02*
X21358Y-12484D01*
X21358Y-12484D02*
X21125Y-12484D01*
X21125Y-12484D02*
X21091Y-12509D01*
X21091Y-12509D02*
X21091Y-12634D01*
X21091Y-12634D02*
X21125Y-12659D01*
X21091Y-12756D02*
X21091Y-12931D01*
X21091Y-12931D02*
X21125Y-12931D01*
X21125Y-12931D02*
X21225Y-12831D01*
X21225Y-12831D02*
X21225Y-12906D01*
X21225Y-12906D02*
X21258Y-12931D01*
X21258Y-12931D02*
X21358Y-12931D01*
X21358Y-12931D02*
X21391Y-12906D01*
X21391Y-12906D02*
X21391Y-12781D01*
X21391Y-12781D02*
X21358Y-12756D01*
X22177Y-12262D02*
X22177Y-12362D01*
X22177Y-12312D02*
X21877Y-12312D01*
X21911Y-12312D02*
X21977Y-12262D01*
X22177Y-12484D02*
X21877Y-12659D01*
X22144Y-12484D02*
X21911Y-12484D01*
X21911Y-12484D02*
X21877Y-12509D01*
X21877Y-12509D02*
X21877Y-12634D01*
X21877Y-12634D02*
X21911Y-12659D01*
X21911Y-12659D02*
X22144Y-12659D01*
X22144Y-12659D02*
X22177Y-12634D01*
X22177Y-12634D02*
X22177Y-12509D01*
X22177Y-12509D02*
X22144Y-12484D01*
X21977Y-12756D02*
X22111Y-12756D01*
X22111Y-12756D02*
X22177Y-12806D01*
X22177Y-12806D02*
X22177Y-12881D01*
X22177Y-12881D02*
X22111Y-12931D01*
X22111Y-12931D02*
X21977Y-12931D01*
X22177Y-13053D02*
X21911Y-13053D01*
X21911Y-13053D02*
X21877Y-13078D01*
X21877Y-13078D02*
X21877Y-13178D01*
X21877Y-13178D02*
X21911Y-13203D01*
X22011Y-13028D02*
X22011Y-13103D01*
X15731Y-06293D02*
X15756Y-06326D01*
X15756Y-06326D02*
X15881Y-06326D01*
X15881Y-06326D02*
X15906Y-06293D01*
X15906Y-06293D02*
X15906Y-06060D01*
X15906Y-06060D02*
X15881Y-06026D01*
X15881Y-06026D02*
X15756Y-06026D01*
X15756Y-06026D02*
X15731Y-06060D01*
X15509Y-06326D02*
X15509Y-06026D01*
X15509Y-06026D02*
X15634Y-06260D01*
X15634Y-06260D02*
X15459Y-06260D01*
X15187Y-06326D02*
X15362Y-06326D01*
X15362Y-06326D02*
X15362Y-06226D01*
X15362Y-06226D02*
X15337Y-06193D01*
X15337Y-06193D02*
X15212Y-06193D01*
X15212Y-06193D02*
X15187Y-06160D01*
X15187Y-06160D02*
X15187Y-06060D01*
X15187Y-06060D02*
X15212Y-06026D01*
X15212Y-06026D02*
X15337Y-06026D01*
X15337Y-06026D02*
X15362Y-06060D01*
X15048Y-05876D02*
X14948Y-05876D01*
X14998Y-05876D02*
X14998Y-05576D01*
X14998Y-05610D02*
X15048Y-05676D01*
X14826Y-05876D02*
X14651Y-05576D01*
X14826Y-05843D02*
X14826Y-05610D01*
X14826Y-05610D02*
X14801Y-05576D01*
X14801Y-05576D02*
X14676Y-05576D01*
X14676Y-05576D02*
X14651Y-05610D01*
X14651Y-05610D02*
X14651Y-05843D01*
X14651Y-05843D02*
X14676Y-05876D01*
X14676Y-05876D02*
X14801Y-05876D01*
X14801Y-05876D02*
X14826Y-05843D01*
X14554Y-05676D02*
X14554Y-05810D01*
X14554Y-05810D02*
X14504Y-05876D01*
X14504Y-05876D02*
X14429Y-05876D01*
X14429Y-05876D02*
X14379Y-05810D01*
X14379Y-05810D02*
X14379Y-05676D01*
X14257Y-05876D02*
X14257Y-05610D01*
X14257Y-05610D02*
X14232Y-05576D01*
X14232Y-05576D02*
X14132Y-05576D01*
X14132Y-05576D02*
X14107Y-05610D01*
X14282Y-05710D02*
X14207Y-05710D01*
X14947Y-07137D02*
X14980Y-07112D01*
X14980Y-07112D02*
X14980Y-06987D01*
X14980Y-06987D02*
X14947Y-06962D01*
X14947Y-06962D02*
X14714Y-06962D01*
X14714Y-06962D02*
X14680Y-06987D01*
X14680Y-06987D02*
X14680Y-07112D01*
X14680Y-07112D02*
X14714Y-07137D01*
X14714Y-07409D02*
X14680Y-07384D01*
X14680Y-07384D02*
X14680Y-07259D01*
X14680Y-07259D02*
X14714Y-07234D01*
X14714Y-07234D02*
X14947Y-07234D01*
X14947Y-07234D02*
X14980Y-07259D01*
X14980Y-07259D02*
X14980Y-07384D01*
X14980Y-07384D02*
X14947Y-07409D01*
X14947Y-07409D02*
X14847Y-07409D01*
X14847Y-07409D02*
X14814Y-07384D01*
X14814Y-07384D02*
X14814Y-07259D01*
X14814Y-07259D02*
X14847Y-07234D01*
X14680Y-07506D02*
X14680Y-07681D01*
X14680Y-07681D02*
X14714Y-07681D01*
X14714Y-07681D02*
X14814Y-07581D01*
X14814Y-07581D02*
X14814Y-07656D01*
X14814Y-07656D02*
X14847Y-07681D01*
X14847Y-07681D02*
X14947Y-07681D01*
X14947Y-07681D02*
X14980Y-07656D01*
X14980Y-07656D02*
X14980Y-07531D01*
X14980Y-07531D02*
X14947Y-07506D01*
X15823Y-06883D02*
X15823Y-06983D01*
X15823Y-06933D02*
X15523Y-06933D01*
X15557Y-06933D02*
X15623Y-06883D01*
X15823Y-07105D02*
X15523Y-07280D01*
X15790Y-07105D02*
X15557Y-07105D01*
X15557Y-07105D02*
X15523Y-07130D01*
X15523Y-07130D02*
X15523Y-07255D01*
X15523Y-07255D02*
X15557Y-07280D01*
X15557Y-07280D02*
X15790Y-07280D01*
X15790Y-07280D02*
X15823Y-07255D01*
X15823Y-07255D02*
X15823Y-07130D01*
X15823Y-07130D02*
X15790Y-07105D01*
X15623Y-07377D02*
X15757Y-07377D01*
X15757Y-07377D02*
X15823Y-07427D01*
X15823Y-07427D02*
X15823Y-07502D01*
X15823Y-07502D02*
X15757Y-07552D01*
X15757Y-07552D02*
X15623Y-07552D01*
X15823Y-07674D02*
X15557Y-07674D01*
X15557Y-07674D02*
X15523Y-07699D01*
X15523Y-07699D02*
X15523Y-07799D01*
X15523Y-07799D02*
X15557Y-07824D01*
X15657Y-07649D02*
X15657Y-07724D01*
X10506Y-07246D02*
X10773Y-07246D01*
X10773Y-07246D02*
X10806Y-07271D01*
X10806Y-07271D02*
X10806Y-07396D01*
X10806Y-07396D02*
X10773Y-07421D01*
X10773Y-07421D02*
X10506Y-07421D01*
X10506Y-07518D02*
X10506Y-07693D01*
X10506Y-07693D02*
X10540Y-07693D01*
X10540Y-07693D02*
X10640Y-07593D01*
X10640Y-07593D02*
X10640Y-07668D01*
X10640Y-07668D02*
X10673Y-07693D01*
X10673Y-07693D02*
X10773Y-07693D01*
X10773Y-07693D02*
X10806Y-07668D01*
X10806Y-07668D02*
X10806Y-07543D01*
X10806Y-07543D02*
X10773Y-07518D01*
X10806Y-07915D02*
X10506Y-07915D01*
X10506Y-07915D02*
X10740Y-07790D01*
X10740Y-07790D02*
X10740Y-07965D01*
X12624Y-05069D02*
X12599Y-05102D01*
X12599Y-05102D02*
X12474Y-05102D01*
X12474Y-05102D02*
X12449Y-05069D01*
X12449Y-05069D02*
X12449Y-04969D01*
X12449Y-04969D02*
X12474Y-04936D01*
X12474Y-04936D02*
X12599Y-04936D01*
X12599Y-04936D02*
X12624Y-04902D01*
X12624Y-04902D02*
X12624Y-04836D01*
X12624Y-04836D02*
X12599Y-04802D01*
X12599Y-04802D02*
X12474Y-04802D01*
X12474Y-04802D02*
X12449Y-04836D01*
X12352Y-05102D02*
X12352Y-04802D01*
X12352Y-04802D02*
X12202Y-04802D01*
X12202Y-04802D02*
X12177Y-04836D01*
X12177Y-04836D02*
X12177Y-04936D01*
X12177Y-04936D02*
X12202Y-04969D01*
X12202Y-04969D02*
X12352Y-04969D01*
X12055Y-05102D02*
X11955Y-05102D01*
X12005Y-05102D02*
X12005Y-04802D01*
X12055Y-04802D02*
X11955Y-04802D01*
X11808Y-05102D02*
X11633Y-05102D01*
X11536Y-04802D02*
X11536Y-05102D01*
X11536Y-05102D02*
X11336Y-05102D01*
X11089Y-05069D02*
X11114Y-05102D01*
X11114Y-05102D02*
X11239Y-05102D01*
X11239Y-05102D02*
X11264Y-05069D01*
X11264Y-05069D02*
X11264Y-04836D01*
X11264Y-04836D02*
X11239Y-04802D01*
X11239Y-04802D02*
X11114Y-04802D01*
X11114Y-04802D02*
X11089Y-04836D01*
X10967Y-05102D02*
X10967Y-04802D01*
X10992Y-04802D02*
X10842Y-04802D01*
X10842Y-04802D02*
X10817Y-04836D01*
X10817Y-04836D02*
X10817Y-05069D01*
X10817Y-05069D02*
X10842Y-05102D01*
X10842Y-05102D02*
X10992Y-05102D01*
G54D14*
X12744Y-08689D02*
X12744Y-09289D01*
X12744Y-09289D02*
X12144Y-09289D01*
X11433Y-09223D02*
X11508Y-09289D01*
X11508Y-09289D02*
X11883Y-09289D01*
X11883Y-09289D02*
X11958Y-09223D01*
X11958Y-09223D02*
X11958Y-08756D01*
X11958Y-08756D02*
X11883Y-08689D01*
X11883Y-08689D02*
X11508Y-08689D01*
X11508Y-08689D02*
X11433Y-08756D01*
X11097Y-09289D02*
X11097Y-08689D01*
X11172Y-08689D02*
X10722Y-08689D01*
X10722Y-08689D02*
X10647Y-08756D01*
X10647Y-08756D02*
X10647Y-09223D01*
X10647Y-09223D02*
X10722Y-09289D01*
X10722Y-09289D02*
X11172Y-09289D01*
G54D13*
X16261Y-20731D02*
X16294Y-20706D01*
X16294Y-20706D02*
X16294Y-20581D01*
X16294Y-20581D02*
X16261Y-20556D01*
X16261Y-20556D02*
X16028Y-20556D01*
X16028Y-20556D02*
X15994Y-20581D01*
X15994Y-20581D02*
X15994Y-20706D01*
X15994Y-20706D02*
X16028Y-20731D01*
X16294Y-21003D02*
X16294Y-20828D01*
X16294Y-20828D02*
X16194Y-20828D01*
X16194Y-20828D02*
X16161Y-20853D01*
X16161Y-20853D02*
X16161Y-20978D01*
X16161Y-20978D02*
X16128Y-21003D01*
X16128Y-21003D02*
X16028Y-21003D01*
X16028Y-21003D02*
X15994Y-20978D01*
X15994Y-20978D02*
X15994Y-20853D01*
X15994Y-20853D02*
X16028Y-20828D01*
X16294Y-21150D02*
X16294Y-21250D01*
X16294Y-21200D02*
X15994Y-21200D01*
X16028Y-21200D02*
X16094Y-21150D01*
X16294Y-21497D02*
X15994Y-21497D01*
X15994Y-21497D02*
X16228Y-21372D01*
X16228Y-21372D02*
X16228Y-21547D01*
X16313Y-18479D02*
X16313Y-18579D01*
X16313Y-18529D02*
X16013Y-18529D01*
X16047Y-18529D02*
X16113Y-18479D01*
X16313Y-18701D02*
X16013Y-18876D01*
X16280Y-18701D02*
X16047Y-18701D01*
X16047Y-18701D02*
X16013Y-18726D01*
X16013Y-18726D02*
X16013Y-18851D01*
X16013Y-18851D02*
X16047Y-18876D01*
X16047Y-18876D02*
X16280Y-18876D01*
X16280Y-18876D02*
X16313Y-18851D01*
X16313Y-18851D02*
X16313Y-18726D01*
X16313Y-18726D02*
X16280Y-18701D01*
X16113Y-18973D02*
X16247Y-18973D01*
X16247Y-18973D02*
X16313Y-19023D01*
X16313Y-19023D02*
X16313Y-19098D01*
X16313Y-19098D02*
X16247Y-19148D01*
X16247Y-19148D02*
X16113Y-19148D01*
X16313Y-19270D02*
X16047Y-19270D01*
X16047Y-19270D02*
X16013Y-19295D01*
X16013Y-19295D02*
X16013Y-19395D01*
X16013Y-19395D02*
X16047Y-19420D01*
X16147Y-19245D02*
X16147Y-19320D01*
M02*
