G04 (created by PCBNEW-RS274X (2010-03-14)-final) date Sat 22 Oct 2011 03:19:01 PM EDT*
G01*
G70*
G90*
%MOIN*%
G04 Gerber Fmt 3.4, Leading zero omitted, Abs format*
%FSLAX34Y34*%
G04 APERTURE LIST*
%ADD10C,0.001000*%
%ADD11R,0.023600X0.019700*%
%ADD12R,0.019700X0.023600*%
%ADD13R,0.035400X0.023600*%
%ADD14R,0.023600X0.035400*%
%ADD15C,0.150000*%
%ADD16R,0.031500X0.035400*%
G04 APERTURE END LIST*
G54D10*
G54D11*
X00500Y-15303D03*
X00500Y-15697D03*
X02100Y-13197D03*
X02100Y-12803D03*
X06900Y-09197D03*
X06900Y-08803D03*
G54D12*
X06347Y-09600D03*
X05953Y-09600D03*
X07003Y-07800D03*
X07397Y-07800D03*
G54D11*
X01600Y-09797D03*
X01600Y-09403D03*
X01100Y-10703D03*
X01100Y-11097D03*
G54D12*
X00897Y-09700D03*
X00503Y-09700D03*
X12797Y-09800D03*
X12403Y-09800D03*
X12403Y-11000D03*
X12797Y-11000D03*
X13903Y-11100D03*
X14297Y-11100D03*
X12797Y-11400D03*
X12403Y-11400D03*
G54D11*
X13900Y-08297D03*
X13900Y-07903D03*
G54D12*
X12797Y-10600D03*
X12403Y-10600D03*
X05497Y-10000D03*
X05103Y-10000D03*
X05497Y-08400D03*
X05103Y-08400D03*
X00897Y-10400D03*
X00503Y-10400D03*
G54D11*
X07400Y-09197D03*
X07400Y-08803D03*
X07900Y-09197D03*
X07900Y-08803D03*
X06400Y-09197D03*
X06400Y-08803D03*
X07900Y-10503D03*
X07900Y-10897D03*
G54D12*
X08897Y-10600D03*
X08503Y-10600D03*
X05503Y-10600D03*
X05897Y-10600D03*
G54D11*
X07400Y-10503D03*
X07400Y-10897D03*
X06900Y-10503D03*
X06900Y-10897D03*
X06400Y-10503D03*
X06400Y-10897D03*
G54D12*
X08053Y-10100D03*
X08447Y-10100D03*
X06347Y-10100D03*
X05953Y-10100D03*
X12403Y-10200D03*
X12797Y-10200D03*
X08053Y-09600D03*
X08447Y-09600D03*
G54D13*
X01000Y-15795D03*
X01000Y-15205D03*
G54D14*
X07495Y-08300D03*
X06905Y-08300D03*
X02005Y-09200D03*
X02595Y-09200D03*
G54D13*
X-00300Y-10405D03*
X-00300Y-10995D03*
G54D14*
X06905Y-11500D03*
X07495Y-11500D03*
G54D15*
X18000Y-32000D03*
X-09000Y08500D03*
X18000Y08500D03*
X-09000Y-32000D03*
G54D16*
X05054Y-09525D03*
X05054Y-08875D03*
X05546Y-08875D03*
X05546Y-09525D03*
M02*
