G04 (created by PCBNEW-RS274X (2010-03-14)-final) date Sat 22 Oct 2011 03:19:01 PM EDT*
G01*
G70*
G90*
%MOIN*%
G04 Gerber Fmt 3.4, Leading zero omitted, Abs format*
%FSLAX34Y34*%
G04 APERTURE LIST*
%ADD10C,0.001000*%
%ADD11R,0.019700X0.023600*%
%ADD12R,0.023600X0.019700*%
%ADD13R,0.023600X0.035400*%
%ADD14R,0.082700X0.049200*%
%ADD15C,0.150000*%
%ADD16R,0.078700X0.118100*%
%ADD17R,0.118100X0.078700*%
%ADD18R,0.031500X0.035400*%
%ADD19C,0.015700*%
%ADD20R,0.047200X0.009800*%
%ADD21R,0.010200X0.031500*%
%ADD22R,0.118100X0.029500*%
%ADD23R,0.023600X0.009800*%
%ADD24R,0.009800X0.023600*%
%ADD25R,0.055100X0.055100*%
%ADD26R,0.016500X0.023600*%
%ADD27R,0.031500X0.027600*%
%ADD28R,0.015700X0.023600*%
%ADD29R,0.027600X0.055100*%
%ADD30R,0.023600X0.033500*%
%ADD31R,0.042000X0.023600*%
%ADD32R,0.013800X0.039400*%
%ADD33R,0.051200X0.013800*%
%ADD34R,0.013800X0.051200*%
%ADD35R,0.033500X0.023600*%
%ADD36R,0.055100X0.027600*%
%ADD37R,0.035400X0.023600*%
%ADD38R,0.063000X0.035400*%
%ADD39R,0.013000X0.032000*%
%ADD40R,0.035400X0.063000*%
%ADD41R,0.078700X0.078700*%
%ADD42R,0.027600X0.037400*%
%ADD43R,0.068900X0.135000*%
%ADD44R,0.023600X0.042000*%
G04 APERTURE END LIST*
G54D10*
G54D11*
X00897Y-13300D03*
X00503Y-13300D03*
X00897Y-12900D03*
X00503Y-12900D03*
X00097Y-12500D03*
X-00297Y-12500D03*
X00897Y-12500D03*
X00503Y-12500D03*
X02397Y-14000D03*
X02003Y-14000D03*
G54D12*
X-03900Y-17803D03*
X-03900Y-18197D03*
X-03300Y-18197D03*
X-03300Y-17803D03*
G54D11*
X02297Y-15600D03*
X01903Y-15600D03*
X-02297Y-30200D03*
X-01903Y-30200D03*
X11297Y-31700D03*
X10903Y-31700D03*
X10903Y-30700D03*
X11297Y-30700D03*
G54D12*
X08000Y-04903D03*
X08000Y-05297D03*
X08900Y-04203D03*
X08900Y-04597D03*
G54D11*
X10303Y-17300D03*
X10697Y-17300D03*
X06903Y-31900D03*
X07297Y-31900D03*
G54D12*
X11400Y-00197D03*
X11400Y00197D03*
X17100Y-26803D03*
X17100Y-27197D03*
X09400Y-04203D03*
X09400Y-04597D03*
X10600Y-00197D03*
X10600Y00197D03*
G54D11*
X02097Y-06400D03*
X01703Y-06400D03*
G54D12*
X12400Y-18003D03*
X12400Y-18397D03*
X12400Y-20397D03*
X12400Y-20003D03*
X12400Y-16403D03*
X12400Y-16797D03*
X00200Y-03732D03*
X00200Y-03338D03*
X00200Y-04532D03*
X00200Y-04138D03*
X-01900Y-03438D03*
X-01900Y-03832D03*
X-01900Y-04138D03*
X-01900Y-04532D03*
X-02300Y-03832D03*
X-02300Y-03438D03*
G54D11*
X-00803Y-04635D03*
X-01197Y-04635D03*
X00297Y-07400D03*
X-00097Y-07400D03*
G54D12*
X05690Y-26707D03*
X05690Y-26313D03*
X04690Y-26707D03*
X04690Y-26313D03*
X03690Y-26707D03*
X03690Y-26313D03*
X02690Y-26707D03*
X02690Y-26313D03*
X-04000Y-23597D03*
X-04000Y-23203D03*
X-02500Y-23203D03*
X-02500Y-23597D03*
X-03800Y-19503D03*
X-03800Y-19897D03*
X-03500Y-23203D03*
X-03500Y-23597D03*
X-03000Y-23203D03*
X-03000Y-23597D03*
X01690Y-26707D03*
X01690Y-26313D03*
X00690Y-26707D03*
X00690Y-26313D03*
X-00310Y-26707D03*
X-00310Y-26313D03*
X-01310Y-26707D03*
X-01310Y-26313D03*
G54D11*
X07897Y-19700D03*
X07503Y-19700D03*
X03597Y-20400D03*
X03203Y-20400D03*
X07397Y-15200D03*
X07003Y-15200D03*
X07397Y-14700D03*
X07003Y-14700D03*
X07397Y-15700D03*
X07003Y-15700D03*
X06597Y-20400D03*
X06203Y-20400D03*
G54D12*
X07083Y-26693D03*
X07083Y-26299D03*
X08083Y-26693D03*
X08083Y-26299D03*
X09083Y-26693D03*
X09083Y-26299D03*
X10083Y-26693D03*
X10083Y-26299D03*
X11083Y-26693D03*
X11083Y-26299D03*
X12083Y-26693D03*
X12083Y-26299D03*
X13083Y-26693D03*
X13083Y-26299D03*
X14083Y-26693D03*
X14083Y-26299D03*
X-03100Y-19897D03*
X-03100Y-19503D03*
X-02600Y-19897D03*
X-02600Y-19503D03*
G54D11*
X08297Y-06300D03*
X07903Y-06300D03*
X04697Y-06200D03*
X04303Y-06200D03*
G54D12*
X01000Y-11603D03*
X01000Y-11997D03*
X00600Y-11603D03*
X00600Y-11997D03*
X00200Y-11603D03*
X00200Y-11997D03*
G54D11*
X02703Y-10700D03*
X03097Y-10700D03*
X-00103Y-11000D03*
X-00497Y-11000D03*
G54D12*
X01500Y-11603D03*
X01500Y-11997D03*
G54D11*
X-00103Y-10600D03*
X-00497Y-10600D03*
G54D12*
X02000Y-11603D03*
X02000Y-11997D03*
G54D11*
X-00103Y-09800D03*
X-00497Y-09800D03*
X-00103Y-09400D03*
X-00497Y-09400D03*
G54D12*
X00200Y-08597D03*
X00200Y-08203D03*
G54D11*
X-00497Y-09000D03*
X-00103Y-09000D03*
G54D12*
X02200Y-08203D03*
X02200Y-08597D03*
G54D11*
X-01097Y-10200D03*
X-00703Y-10200D03*
G54D12*
X01400Y-08597D03*
X01400Y-08203D03*
X01800Y-08597D03*
X01800Y-08203D03*
X00600Y-08597D03*
X00600Y-08203D03*
X01000Y-08597D03*
X01000Y-08203D03*
G54D11*
X03297Y-06700D03*
X02903Y-06700D03*
X02903Y-08300D03*
X03297Y-08300D03*
X13997Y-13100D03*
X13603Y-13100D03*
X12703Y-13100D03*
X13097Y-13100D03*
X13997Y-13500D03*
X13603Y-13500D03*
X12703Y-13500D03*
X13097Y-13500D03*
X15697Y-01500D03*
X15303Y-01500D03*
X15697Y-11000D03*
X15303Y-11000D03*
X15697Y-03500D03*
X15303Y-03500D03*
X15697Y-06500D03*
X15303Y-06500D03*
G54D12*
X08500Y-14097D03*
X08500Y-13703D03*
X07800Y-14097D03*
X07800Y-13703D03*
X11800Y-06397D03*
X11800Y-06003D03*
X13400Y-06003D03*
X13400Y-06397D03*
G54D11*
X15697Y-15000D03*
X15303Y-15000D03*
X15697Y-10000D03*
X15303Y-10000D03*
X15697Y-18500D03*
X15303Y-18500D03*
X15697Y-23500D03*
X15303Y-23500D03*
X15697Y-12000D03*
X15303Y-12000D03*
X15697Y-20500D03*
X15303Y-20500D03*
X15697Y-21500D03*
X15303Y-21500D03*
X15697Y-13000D03*
X15303Y-13000D03*
X15697Y-04500D03*
X15303Y-04500D03*
X10503Y-16200D03*
X10897Y-16200D03*
X10503Y-15600D03*
X10897Y-15600D03*
X10303Y-18100D03*
X10697Y-18100D03*
G54D12*
X06300Y-16103D03*
X06300Y-16497D03*
X05900Y-16103D03*
X05900Y-16497D03*
X05500Y-16103D03*
X05500Y-16497D03*
X05100Y-16103D03*
X05100Y-16497D03*
X06000Y-13703D03*
X06000Y-14097D03*
X04600Y-16103D03*
X04600Y-16497D03*
X05600Y-13703D03*
X05600Y-14097D03*
X05200Y-13703D03*
X05200Y-14097D03*
G54D13*
X-01105Y-00335D03*
X-01695Y-00335D03*
X-00695Y-00335D03*
X-00105Y-00335D03*
X-01195Y-05035D03*
X-00605Y-05035D03*
G54D14*
X-01600Y-02235D03*
X-01600Y-01035D03*
X-00200Y-02235D03*
X-00200Y-01035D03*
G54D15*
X18000Y-32000D03*
X-09000Y08500D03*
X18000Y08500D03*
X-09000Y-32000D03*
G54D16*
X-03681Y-14300D03*
X-01319Y-14300D03*
X-03681Y-16500D03*
X-01319Y-16500D03*
G54D17*
X-03100Y05581D03*
X-03100Y03219D03*
G54D18*
X03346Y-07825D03*
X03346Y-07175D03*
X02854Y-07175D03*
X02854Y-07825D03*
G54D19*
X04208Y-12993D03*
X04208Y-12678D03*
X04208Y-12363D03*
X04208Y-12048D03*
X04208Y-11733D03*
X04208Y-11418D03*
X04208Y-11103D03*
X04208Y-10788D03*
X04208Y-10473D03*
X04208Y-10158D03*
X04208Y-09843D03*
X04208Y-09528D03*
X04208Y-09213D03*
X04208Y-08898D03*
X04208Y-08583D03*
X04208Y-08268D03*
X04208Y-07953D03*
X04208Y-07638D03*
X04208Y-07323D03*
X04208Y-07008D03*
X04523Y-12993D03*
X04523Y-12678D03*
X04523Y-12363D03*
X04523Y-12048D03*
X04523Y-11733D03*
X04523Y-11418D03*
X04523Y-11103D03*
X04523Y-10788D03*
X04523Y-10473D03*
X04523Y-10158D03*
X04523Y-09843D03*
X04523Y-09528D03*
X04523Y-09213D03*
X04523Y-08898D03*
X04523Y-08583D03*
X04523Y-08268D03*
X04523Y-07953D03*
X04523Y-07638D03*
X04523Y-07323D03*
X04523Y-07008D03*
X04838Y-12993D03*
X04838Y-12678D03*
X04838Y-07323D03*
X04838Y-07008D03*
X05153Y-12993D03*
X05153Y-12678D03*
X05153Y-07323D03*
X05153Y-07008D03*
X05468Y-12993D03*
X05468Y-12678D03*
X05468Y-07323D03*
X05468Y-07008D03*
X05783Y-12993D03*
X05783Y-12678D03*
X05783Y-07323D03*
X05783Y-07008D03*
X06098Y-12993D03*
X06098Y-12678D03*
X06098Y-11103D03*
X06098Y-10788D03*
X06098Y-10473D03*
X06098Y-10158D03*
X06098Y-09843D03*
X06098Y-09528D03*
X06098Y-09213D03*
X06098Y-08898D03*
X06098Y-07323D03*
X06098Y-07008D03*
X06413Y-12993D03*
X06413Y-12678D03*
X06413Y-11103D03*
X06413Y-10788D03*
X06413Y-10473D03*
X06413Y-10158D03*
X06413Y-09843D03*
X06413Y-09528D03*
X06413Y-09213D03*
X06413Y-08898D03*
X06413Y-07323D03*
X06413Y-07008D03*
X06728Y-12993D03*
X06728Y-12678D03*
X06728Y-11103D03*
X06728Y-10788D03*
X06728Y-10473D03*
X06728Y-10158D03*
X06728Y-09843D03*
X06728Y-09528D03*
X06728Y-09213D03*
X06728Y-08898D03*
X06728Y-07323D03*
X06728Y-07008D03*
X07043Y-12993D03*
X07043Y-12678D03*
X07043Y-11103D03*
X07043Y-10788D03*
X07043Y-10473D03*
X07043Y-10158D03*
X07043Y-09843D03*
X07043Y-09528D03*
X07043Y-09213D03*
X07043Y-08898D03*
X07043Y-07323D03*
X07043Y-07008D03*
X07358Y-12993D03*
X07358Y-12678D03*
X07358Y-11103D03*
X07358Y-10788D03*
X07358Y-10473D03*
X07358Y-10158D03*
X07358Y-09843D03*
X07358Y-09528D03*
X07358Y-09213D03*
X07358Y-08898D03*
X07358Y-07323D03*
X07358Y-07008D03*
X07673Y-12993D03*
X07673Y-12678D03*
X07673Y-11103D03*
X07673Y-10788D03*
X07673Y-10473D03*
X07673Y-10158D03*
X07673Y-09843D03*
X07673Y-09528D03*
X07673Y-09213D03*
X07673Y-08898D03*
X07673Y-07323D03*
X07673Y-07008D03*
X07988Y-12993D03*
X07988Y-12678D03*
X07988Y-11103D03*
X07988Y-10788D03*
X07988Y-10473D03*
X07988Y-10158D03*
X07988Y-09843D03*
X07988Y-09528D03*
X07988Y-09213D03*
X07988Y-08898D03*
X07988Y-07323D03*
X07988Y-07008D03*
X08303Y-12993D03*
X08303Y-12678D03*
X08303Y-11103D03*
X08303Y-10788D03*
X08303Y-10473D03*
X08303Y-10158D03*
X08303Y-09843D03*
X08303Y-09528D03*
X08303Y-09213D03*
X08303Y-08898D03*
X08303Y-07323D03*
X08303Y-07008D03*
X08618Y-12993D03*
X08618Y-12678D03*
X08618Y-07323D03*
X08618Y-07008D03*
X08933Y-12993D03*
X08933Y-12678D03*
X08933Y-07323D03*
X08933Y-07008D03*
X09248Y-12993D03*
X09248Y-12678D03*
X09248Y-07323D03*
X09248Y-07008D03*
X09563Y-12993D03*
X09563Y-12678D03*
X09563Y-07323D03*
X09563Y-07008D03*
X09878Y-12993D03*
X09878Y-12678D03*
X09878Y-07323D03*
X09878Y-07008D03*
X10193Y-12993D03*
X10193Y-12678D03*
X10193Y-12363D03*
X10193Y-12048D03*
X10193Y-11733D03*
X10193Y-11418D03*
X10193Y-11103D03*
X10193Y-10788D03*
X10193Y-10473D03*
X10193Y-10158D03*
X10193Y-09843D03*
X10193Y-09528D03*
X10193Y-09213D03*
X10193Y-08898D03*
X10193Y-08583D03*
X10193Y-08268D03*
X10193Y-07953D03*
X10193Y-07638D03*
X10193Y-07323D03*
X10193Y-07008D03*
X09878Y-12363D03*
X09878Y-12048D03*
X09878Y-11733D03*
X09878Y-11418D03*
X09878Y-11103D03*
X09878Y-10788D03*
X09878Y-10473D03*
X09878Y-10158D03*
X09878Y-09843D03*
X09878Y-09528D03*
X09878Y-09213D03*
X09878Y-08898D03*
X09878Y-08583D03*
X09878Y-08268D03*
X09878Y-07953D03*
X09878Y-07638D03*
G54D20*
X01411Y-12608D03*
X01411Y-12804D03*
X01411Y-13000D03*
X01411Y-13196D03*
X01411Y-13392D03*
X02790Y-13392D03*
X02790Y-13196D03*
X02790Y-13000D03*
X02790Y-12804D03*
X02790Y-12608D03*
G54D21*
X-01294Y-04126D03*
X-01097Y-04126D03*
X-00900Y-04126D03*
X-00703Y-04126D03*
X-00506Y-04126D03*
X-00506Y-02944D03*
X-00703Y-02944D03*
X-00900Y-02944D03*
X-01097Y-02944D03*
X-01294Y-02944D03*
G54D22*
X-00900Y-03535D03*
G54D23*
X00355Y-09511D03*
X00355Y-09708D03*
X00355Y-09905D03*
X00355Y-10102D03*
X00355Y-10298D03*
X00355Y-10495D03*
X00355Y-10692D03*
X00355Y-10889D03*
X02245Y-10889D03*
X02245Y-10692D03*
X02245Y-10495D03*
X02245Y-10298D03*
X02245Y-10102D03*
X02245Y-09905D03*
X02245Y-09708D03*
X02245Y-09511D03*
G54D24*
X00611Y-11145D03*
X00808Y-11145D03*
X01005Y-11145D03*
X01202Y-11145D03*
X01398Y-11145D03*
X01595Y-11145D03*
X01792Y-11145D03*
X01989Y-11145D03*
X01989Y-09255D03*
X01792Y-09255D03*
X01595Y-09255D03*
X01398Y-09255D03*
X01202Y-09255D03*
X01005Y-09255D03*
X00808Y-09255D03*
X00611Y-09255D03*
G54D25*
X00946Y-09846D03*
X00946Y-10554D03*
X01654Y-10554D03*
X01654Y-09846D03*
G54D26*
X01636Y-07584D03*
G54D27*
X02089Y-07584D03*
G54D26*
X02148Y-06796D03*
X01636Y-06796D03*
G54D28*
X01944Y-15174D03*
X02200Y-15174D03*
X02456Y-15174D03*
X02456Y-14426D03*
X01944Y-14426D03*
X12856Y-05826D03*
X12600Y-05826D03*
X12344Y-05826D03*
X12344Y-06574D03*
X12856Y-06574D03*
G54D29*
X01250Y-14337D03*
X00750Y-14337D03*
X00250Y-14337D03*
X-00250Y-14337D03*
X-00250Y-16463D03*
X00250Y-16463D03*
X00750Y-16463D03*
X01250Y-16463D03*
G54D30*
X13100Y02487D03*
X13474Y03313D03*
X12726Y03313D03*
G54D31*
X00512Y-06774D03*
X00512Y-06400D03*
X00512Y-06026D03*
X-00512Y-06026D03*
X-00512Y-06400D03*
X-00512Y-06774D03*
G54D32*
X-03228Y-22702D03*
X-02972Y-22702D03*
X-02716Y-22702D03*
X-02460Y-22702D03*
X-02204Y-22702D03*
X-02204Y-20498D03*
X-02460Y-20498D03*
X-02716Y-20498D03*
X-02972Y-20498D03*
X-03228Y-20498D03*
X-03484Y-20498D03*
X-03740Y-20498D03*
X-03996Y-20498D03*
X-03484Y-22702D03*
X-03740Y-22702D03*
X-03996Y-22702D03*
G54D33*
X09669Y-19252D03*
X09669Y-18996D03*
X09669Y-18740D03*
X09669Y-18484D03*
X09669Y-18228D03*
X09669Y-17972D03*
X09669Y-17716D03*
X09669Y-17460D03*
X09669Y-17204D03*
X09669Y-16948D03*
X07331Y-16948D03*
X07331Y-17204D03*
X07331Y-17460D03*
X07331Y-17716D03*
X07331Y-17972D03*
X07331Y-18228D03*
X07331Y-18484D03*
X07331Y-18740D03*
X07331Y-18996D03*
X07331Y-19252D03*
G54D34*
X03152Y-17531D03*
X02896Y-17531D03*
X02640Y-17531D03*
X02384Y-17531D03*
X02128Y-17531D03*
X01872Y-17531D03*
X01616Y-17531D03*
X01360Y-17531D03*
X01104Y-17531D03*
X00848Y-17531D03*
X00848Y-19869D03*
X01104Y-19869D03*
X01360Y-19869D03*
X01616Y-19869D03*
X01872Y-19869D03*
X02128Y-19869D03*
X02384Y-19869D03*
X02640Y-19869D03*
X02896Y-19869D03*
X03152Y-19869D03*
X06252Y-17531D03*
X05996Y-17531D03*
X05740Y-17531D03*
X05484Y-17531D03*
X05228Y-17531D03*
X04972Y-17531D03*
X04716Y-17531D03*
X04460Y-17531D03*
X04204Y-17531D03*
X03948Y-17531D03*
X03948Y-19869D03*
X04204Y-19869D03*
X04460Y-19869D03*
X04716Y-19869D03*
X04972Y-19869D03*
X05228Y-19869D03*
X05484Y-19869D03*
X05740Y-19869D03*
X05996Y-19869D03*
X06252Y-19869D03*
G54D19*
X13860Y-11260D03*
X13545Y-11260D03*
X13230Y-11260D03*
X11970Y-11260D03*
X11655Y-11260D03*
X11340Y-11260D03*
X13860Y-10945D03*
X13545Y-10945D03*
X13230Y-10945D03*
X11970Y-10945D03*
X11655Y-10945D03*
X11340Y-10945D03*
X13860Y-10630D03*
X13545Y-10630D03*
X13230Y-10630D03*
X11970Y-10630D03*
X11655Y-10630D03*
X11340Y-10630D03*
X13860Y-10315D03*
X13545Y-10315D03*
X13230Y-10315D03*
X11970Y-10315D03*
X11655Y-10315D03*
X11340Y-10315D03*
X13860Y-10000D03*
X13545Y-10000D03*
X13230Y-10000D03*
X11970Y-10000D03*
X11655Y-10000D03*
X11340Y-10000D03*
X13860Y-09685D03*
X13545Y-09685D03*
X13230Y-09685D03*
X11970Y-09685D03*
X11655Y-09685D03*
X11340Y-09685D03*
X13860Y-09370D03*
X13545Y-09370D03*
X13230Y-09370D03*
X11970Y-09370D03*
X11655Y-09370D03*
X11340Y-09370D03*
X13860Y-09055D03*
X13545Y-09055D03*
X13230Y-09055D03*
X11970Y-09055D03*
X11655Y-09055D03*
X11340Y-09055D03*
X13860Y-08740D03*
X13545Y-08740D03*
X13230Y-08740D03*
X11970Y-08740D03*
X11655Y-08740D03*
X11340Y-08740D03*
G54D35*
X08487Y-05500D03*
X09313Y-05874D03*
X09313Y-05126D03*
G54D36*
X07937Y-14650D03*
X07937Y-15150D03*
X07937Y-15650D03*
X07937Y-16150D03*
X10063Y-16150D03*
X10063Y-15650D03*
X10063Y-15150D03*
X10063Y-14650D03*
G54D11*
X15697Y-05000D03*
X15303Y-05000D03*
X15303Y-05500D03*
X15697Y-05500D03*
X15697Y-13500D03*
X15303Y-13500D03*
X15303Y-14000D03*
X15697Y-14000D03*
X15697Y-22000D03*
X15303Y-22000D03*
X15303Y-22500D03*
X15697Y-22500D03*
X10697Y-18600D03*
X10303Y-18600D03*
G54D12*
X10000Y03798D03*
X10000Y03404D03*
X10400Y03798D03*
X10400Y03404D03*
X10800Y03798D03*
X10800Y03404D03*
X11200Y03404D03*
X11200Y03798D03*
X11600Y03404D03*
X11600Y03798D03*
G54D11*
X09403Y00800D03*
X09797Y00800D03*
G54D12*
X08400Y-04597D03*
X08400Y-04203D03*
X09900Y-04203D03*
X09900Y-04597D03*
G54D11*
X09003Y-03800D03*
X09397Y-03800D03*
G54D12*
X08000Y-04203D03*
X08000Y-04597D03*
G54D11*
X08003Y-03800D03*
X08397Y-03800D03*
G54D12*
X11000Y00197D03*
X11000Y-00197D03*
X11800Y00197D03*
X11800Y-00197D03*
G54D11*
X11297Y-31200D03*
X10903Y-31200D03*
X06903Y-30700D03*
X07297Y-30700D03*
X06903Y-31100D03*
X07297Y-31100D03*
X10903Y-32100D03*
X11297Y-32100D03*
X06903Y-31500D03*
X07297Y-31500D03*
G54D12*
X00100Y-27403D03*
X00100Y-27797D03*
G54D13*
X08095Y06700D03*
X07505Y06700D03*
G54D37*
X14200Y02705D03*
X14200Y03295D03*
G54D38*
X08500Y03671D03*
X08500Y02529D03*
G54D37*
X-01300Y-25205D03*
X-01300Y-25795D03*
X-00300Y-25205D03*
X-00300Y-25795D03*
X00700Y-25205D03*
X00700Y-25795D03*
X01700Y-25205D03*
X01700Y-25795D03*
X02700Y-25205D03*
X02700Y-25795D03*
X03700Y-25205D03*
X03700Y-25795D03*
X04700Y-25205D03*
X04700Y-25795D03*
X05700Y-25205D03*
X05700Y-25795D03*
X07100Y-25205D03*
X07100Y-25795D03*
X08100Y-25105D03*
X08100Y-25695D03*
X09100Y-25205D03*
X09100Y-25795D03*
X10100Y-25205D03*
X10100Y-25795D03*
X11100Y-25205D03*
X11100Y-25795D03*
X12100Y-25205D03*
X12100Y-25795D03*
X13100Y-25205D03*
X13100Y-25795D03*
G54D39*
X-02100Y-30700D03*
X-01850Y-30700D03*
X-01600Y-30700D03*
X-01350Y-30700D03*
X-01100Y-30700D03*
X-00850Y-30700D03*
X-00600Y-30700D03*
X-00350Y-30700D03*
X-00100Y-30700D03*
G54D12*
X03900Y-29803D03*
X03900Y-30197D03*
G54D39*
X03900Y-30700D03*
X04150Y-30700D03*
X04400Y-30700D03*
X04650Y-30700D03*
X04900Y-30700D03*
X05150Y-30700D03*
X05400Y-30700D03*
X05650Y-30700D03*
X05900Y-30700D03*
G54D33*
X10269Y-31952D03*
X10269Y-31696D03*
X10269Y-31440D03*
X10269Y-31184D03*
X10269Y-30928D03*
X10269Y-30672D03*
X10269Y-30416D03*
X10269Y-30160D03*
X10269Y-29904D03*
X10269Y-29648D03*
X07931Y-29648D03*
X07931Y-29904D03*
X07931Y-30160D03*
X07931Y-30416D03*
X07931Y-30672D03*
X07931Y-30928D03*
X07931Y-31184D03*
X07931Y-31440D03*
X07931Y-31696D03*
X07931Y-31952D03*
G54D37*
X14083Y-25201D03*
X14083Y-25791D03*
G54D14*
X08600Y05600D03*
X08600Y04400D03*
X13100Y01800D03*
X13100Y00600D03*
X09800Y04400D03*
X09800Y05600D03*
G54D35*
X10813Y-05500D03*
X09987Y-05126D03*
X09987Y-05874D03*
G54D40*
X07071Y-04800D03*
X05929Y-04800D03*
X03929Y-04800D03*
X05071Y-04800D03*
G54D41*
X01513Y-04800D03*
X03087Y-04800D03*
G54D14*
X14300Y01800D03*
X14300Y00600D03*
G54D42*
X08135Y07300D03*
X07465Y07300D03*
G54D41*
X04813Y07300D03*
X06387Y07300D03*
G54D43*
X06761Y05543D03*
X05776Y05543D03*
X04792Y05543D03*
X03808Y05543D03*
X02824Y05543D03*
X01839Y05543D03*
X01839Y-03343D03*
X02824Y-03343D03*
X03808Y-03343D03*
X04792Y-03343D03*
X05776Y-03343D03*
X06761Y-03343D03*
G54D44*
X08226Y00888D03*
X08600Y00888D03*
X08974Y00888D03*
X08974Y01912D03*
X08600Y01912D03*
X08226Y01912D03*
G54D32*
X11100Y00708D03*
X11356Y00708D03*
X11612Y00708D03*
X11868Y00708D03*
X11868Y02893D03*
X11612Y02893D03*
X11356Y02893D03*
X11100Y02893D03*
X10844Y02893D03*
X10588Y02893D03*
X10332Y02893D03*
X10844Y00708D03*
X10588Y00708D03*
X10332Y00708D03*
G54D41*
X12800Y04313D03*
X12800Y05887D03*
G54D14*
X14400Y05800D03*
X14400Y04600D03*
X11000Y04400D03*
X11000Y05600D03*
G54D12*
X07000Y-14097D03*
X07000Y-13703D03*
X06400Y-14097D03*
X06400Y-13703D03*
G54D11*
X-00597Y-11500D03*
X-00203Y-11500D03*
X-00597Y-12000D03*
X-00203Y-12000D03*
M02*
