G04 (created by PCBnew (20090216-final)) date Tue 18 May 2010 07:03:37 PM EDT*
G01*
G70*
G90*
%MOIN*%
G04 Gerber Fmt 3.4, Leading zero omitted, Abs format*
G04 I've changed : *
G04 LMV1023 apeture:  from 10.8 mil square to 13 mil circle*
G04 TPS62410 center pad from 118 x 37mil to 110 x 30 mil*
G04 Omnetics 36 from 30 x 14.5 mil to  30 x 12.5 mil*
%FSLAX34Y34*%
G04 APERTURE LIST*
%ADD10R,0.023600X0.019700*%
%ADD11R,0.019700X0.023600*%
%ADD12R,0.023600X0.035400*%
%ADD13R,0.035400X0.023600*%
%ADD14R,0.027600X0.037400*%
%ADD15R,0.063000X0.035400*%
%ADD16R,0.082700X0.049200*%
%ADD17R,0.035400X0.031500*%
%ADD18R,0.059100X0.070900*%
%ADD19C,0.016000*%
%ADD20C,0.013000*%
%ADD21R,0.027600X0.035400*%
%ADD22R,0.035400X0.027600*%
%ADD23R,0.096500X0.065000*%
%ADD24R,0.017700X0.027600*%
%ADD25R,0.050000X0.015000*%
%ADD26R,0.047200X0.055100*%
%ADD27R,0.030000X0.012500*%
%ADD28R,0.011000X0.031500*%
%ADD29R,0.110100X0.030400*%
%ADD30R,0.023600X0.015700*%
%ADD31R,0.019700X0.019700*%
%ADD32R,0.019700X0.055100*%
%ADD33R,0.055100X0.027600*%
%ADD34R,0.027600X0.055100*%
%ADD35R,0.078700X0.039400*%
%ADD36R,0.039400X0.078700*%
%ADD37R,0.055100X0.025000*%
%ADD38R,0.033500X0.023600*%
%ADD39R,0.042000X0.023600*%
%ADD40R,0.023600X0.042000*%
%ADD41R,0.009800X0.027600*%
%ADD42R,0.027600X0.009800*%
%ADD43R,0.039400X0.013800*%
%ADD44R,0.013800X0.039400*%
%ADD45R,0.051200X0.013800*%
%ADD46R,0.035400X0.063000*%
%ADD47R,0.023600X0.009800*%
%ADD48R,0.009800X0.023600*%
%ADD49R,0.015700X0.010600*%
%ADD50R,0.019700X0.059100*%
%ADD51C,0.150000*%
G04 APERTURE END LIST*
G54D10*
X-29650Y44704D03*
X-29650Y45098D03*
G54D11*
X-33247Y37049D03*
X-32853Y37049D03*
X-29602Y37049D03*
X-29996Y37049D03*
X-33197Y45751D03*
X-32803Y45751D03*
X-29553Y45800D03*
X-29947Y45800D03*
G54D10*
X-27649Y43796D03*
X-27649Y43402D03*
G54D11*
X-28153Y43800D03*
X-28547Y43800D03*
X-29246Y43799D03*
X-28852Y43799D03*
X-05203Y20300D03*
X-05597Y20300D03*
X-05203Y21299D03*
X-05597Y21299D03*
X-04503Y21900D03*
X-04897Y21900D03*
X-04603Y19700D03*
X-04997Y19700D03*
G54D10*
X-29650Y37947D03*
X-29650Y37553D03*
X-28100Y37603D03*
X-28100Y37997D03*
X-28500Y38747D03*
X-28500Y38353D03*
X-28100Y38353D03*
X-28100Y38747D03*
X-30049Y41446D03*
X-30049Y41052D03*
G54D11*
X-34896Y32700D03*
X-34502Y32700D03*
X-34897Y32200D03*
X-34503Y32200D03*
X-31596Y31900D03*
X-31202Y31900D03*
X-31202Y32299D03*
X-31596Y32299D03*
G54D10*
X-30799Y32497D03*
X-30799Y32103D03*
G54D11*
X-29597Y31501D03*
X-29203Y31501D03*
X-29204Y31000D03*
X-29598Y31000D03*
X-33602Y31600D03*
X-33996Y31600D03*
X-32597Y33400D03*
X-32203Y33400D03*
X-30497Y32899D03*
X-30103Y32899D03*
X-29697Y32900D03*
X-29303Y32900D03*
G54D10*
X-29200Y32003D03*
X-29200Y32397D03*
G54D11*
X-34896Y25200D03*
X-34502Y25200D03*
X-34897Y24700D03*
X-34503Y24700D03*
X-31596Y24400D03*
X-31202Y24400D03*
X-31202Y24799D03*
X-31596Y24799D03*
G54D10*
X-30799Y24997D03*
X-30799Y24603D03*
G54D11*
X-29597Y24001D03*
X-29203Y24001D03*
X-29204Y23500D03*
X-29598Y23500D03*
X-33602Y24100D03*
X-33996Y24100D03*
X-32597Y25900D03*
X-32203Y25900D03*
X-30497Y25399D03*
X-30103Y25399D03*
X-29697Y25400D03*
X-29303Y25400D03*
G54D10*
X-29200Y24503D03*
X-29200Y24897D03*
G54D11*
X-34896Y17700D03*
X-34502Y17700D03*
X-34897Y17200D03*
X-34503Y17200D03*
X-31596Y16900D03*
X-31202Y16900D03*
X-31202Y17299D03*
X-31596Y17299D03*
G54D10*
X-30799Y17497D03*
X-30799Y17103D03*
G54D11*
X-29597Y16501D03*
X-29203Y16501D03*
X-29204Y16000D03*
X-29598Y16000D03*
X-33602Y16600D03*
X-33996Y16600D03*
X-32597Y18400D03*
X-32203Y18400D03*
X-30497Y17899D03*
X-30103Y17899D03*
X-29697Y17900D03*
X-29303Y17900D03*
G54D10*
X-29200Y17003D03*
X-29200Y17397D03*
G54D11*
X-34896Y10200D03*
X-34502Y10200D03*
X-34897Y09700D03*
X-34503Y09700D03*
X-31596Y09400D03*
X-31202Y09400D03*
X-31202Y09799D03*
X-31596Y09799D03*
G54D10*
X-30799Y09997D03*
X-30799Y09603D03*
G54D11*
X-29597Y09001D03*
X-29203Y09001D03*
X-29204Y08500D03*
X-29598Y08500D03*
X-33602Y09100D03*
X-33996Y09100D03*
X-32597Y10900D03*
X-32203Y10900D03*
X-30497Y10399D03*
X-30103Y10399D03*
X-29697Y10400D03*
X-29303Y10400D03*
G54D10*
X-29200Y09503D03*
X-29200Y09897D03*
X-19000Y28103D03*
X-19000Y28497D03*
G54D11*
X-14097Y22700D03*
X-13703Y22700D03*
X-13703Y23901D03*
X-14097Y23901D03*
G54D10*
X-18628Y25290D03*
X-18628Y24896D03*
X-18228Y25290D03*
X-18228Y24896D03*
G54D11*
X-14323Y25693D03*
X-13929Y25693D03*
X-20104Y31700D03*
X-20498Y31700D03*
X-20497Y31199D03*
X-20103Y31199D03*
G54D10*
X-17627Y25290D03*
X-17627Y24896D03*
X-17229Y25290D03*
X-17229Y24896D03*
G54D11*
X-20103Y24199D03*
X-20497Y24199D03*
X-20497Y23699D03*
X-20103Y23699D03*
G54D10*
X-16629Y25289D03*
X-16629Y24895D03*
X-16228Y25289D03*
X-16228Y24895D03*
G54D11*
X-20103Y16799D03*
X-20497Y16799D03*
X-20497Y16300D03*
X-20103Y16300D03*
G54D10*
X-15628Y25289D03*
X-15628Y24895D03*
X-15228Y25289D03*
X-15228Y24895D03*
G54D11*
X-20203Y09300D03*
X-20597Y09300D03*
X-20597Y08800D03*
X-20203Y08800D03*
G54D10*
X-10601Y28898D03*
X-10601Y28504D03*
G54D11*
X-18597Y28900D03*
X-18203Y28900D03*
X-10297Y28900D03*
X-09903Y28900D03*
G54D10*
X-06300Y35097D03*
X-06300Y34703D03*
X-09500Y35097D03*
X-09500Y34703D03*
G54D11*
X-13927Y26691D03*
X-14321Y26691D03*
G54D10*
X-27800Y37398D03*
X-27800Y37004D03*
G54D11*
X-26703Y43200D03*
X-27097Y43200D03*
G54D10*
X-27100Y43503D03*
X-27100Y43897D03*
X-24901Y42704D03*
X-24901Y43098D03*
X-27100Y45296D03*
X-27100Y44902D03*
X-15000Y43702D03*
X-15000Y44096D03*
X-16999Y43997D03*
X-16999Y43603D03*
X-13601Y44097D03*
X-13601Y43703D03*
X00000Y35503D03*
X00000Y35897D03*
X-00401Y35104D03*
X-00401Y35498D03*
X02200Y35303D03*
X02200Y35697D03*
X01300Y35898D03*
X01300Y35504D03*
X01800Y35697D03*
X01800Y35303D03*
G54D11*
X00503Y35700D03*
X00897Y35700D03*
X-25803Y45499D03*
X-26197Y45499D03*
G54D10*
X-24700Y45502D03*
X-24700Y45896D03*
G54D11*
X-23802Y44400D03*
X-24196Y44400D03*
G54D10*
X-24500Y44396D03*
X-24500Y44002D03*
X-24199Y43602D03*
X-24199Y43996D03*
X-23900Y43202D03*
X-23900Y43596D03*
X-24500Y43202D03*
X-24500Y43596D03*
G54D11*
X-23497Y44400D03*
X-23103Y44400D03*
G54D10*
X-22800Y44496D03*
X-22800Y44102D03*
G54D11*
X-23903Y45895D03*
X-24297Y45895D03*
X-23903Y45498D03*
X-24297Y45498D03*
X-25104Y45899D03*
X-25498Y45899D03*
X-25603Y43200D03*
X-25997Y43200D03*
G54D10*
X-26700Y43503D03*
X-26700Y43897D03*
X-26700Y44896D03*
X-26700Y44502D03*
X-22400Y42597D03*
X-22400Y42203D03*
G54D11*
X-23703Y37400D03*
X-24097Y37400D03*
G54D10*
X-27800Y41897D03*
X-27800Y41503D03*
X02601Y44303D03*
X02601Y44697D03*
X02100Y44304D03*
X02100Y44698D03*
G54D11*
X00597Y44900D03*
X00203Y44900D03*
X04102Y42900D03*
X04496Y42900D03*
X04104Y42300D03*
X04498Y42300D03*
G54D10*
X-00800Y43603D03*
X-00800Y43997D03*
G54D11*
X00004Y42500D03*
X00398Y42500D03*
X-02073Y37499D03*
X-02467Y37499D03*
X-02075Y36498D03*
X-02469Y36498D03*
X-02075Y35498D03*
X-02469Y35498D03*
X-02075Y34499D03*
X-02469Y34499D03*
G54D10*
X-22400Y40297D03*
X-22400Y39903D03*
G54D11*
X-27703Y39101D03*
X-28097Y39101D03*
X-05702Y43801D03*
X-06096Y43801D03*
X-06097Y45100D03*
X-05703Y45100D03*
X-06096Y44201D03*
X-05702Y44201D03*
X-06096Y44701D03*
X-05702Y44701D03*
X-25103Y45499D03*
X-25497Y45499D03*
X-24002Y44999D03*
X-24396Y44999D03*
X-01096Y35501D03*
X-00702Y35501D03*
X-02075Y33499D03*
X-02469Y33499D03*
X-02075Y32500D03*
X-02469Y32500D03*
X-02075Y31499D03*
X-02469Y31499D03*
X-02075Y30501D03*
X-02469Y30501D03*
X-02054Y45900D03*
X-02448Y45900D03*
X-02054Y44900D03*
X-02448Y44900D03*
X-02053Y43900D03*
X-02447Y43900D03*
X-02053Y42900D03*
X-02447Y42900D03*
X-02053Y41900D03*
X-02447Y41900D03*
X-02053Y40900D03*
X-02447Y40900D03*
X-02053Y39900D03*
X-02447Y39900D03*
X-02053Y38900D03*
X-02447Y38900D03*
X01303Y36500D03*
X01697Y36500D03*
G54D10*
X02100Y39603D03*
X02100Y39997D03*
X02101Y38803D03*
X02101Y39197D03*
X-01300Y41597D03*
X-01300Y41203D03*
G54D11*
X-00102Y41900D03*
X-00496Y41900D03*
G54D12*
X-31104Y33300D03*
X-31694Y33300D03*
X-31104Y25800D03*
X-31694Y25800D03*
X-31104Y18300D03*
X-31694Y18300D03*
X-31104Y10800D03*
X-31694Y10800D03*
X-07295Y24700D03*
X-06705Y24700D03*
X-09195Y24700D03*
X-08605Y24700D03*
X-13730Y26196D03*
X-14320Y26196D03*
X-10331Y25757D03*
X-10921Y25757D03*
G54D13*
X57801Y38695D03*
X57801Y38105D03*
X57300Y38695D03*
X57300Y38105D03*
X36851Y33648D03*
X36851Y33058D03*
X37351Y33648D03*
X37351Y33058D03*
G54D12*
X36856Y32553D03*
X37446Y32553D03*
X28695Y38300D03*
X28105Y38300D03*
X40906Y33700D03*
X41496Y33700D03*
X28995Y34601D03*
X28405Y34601D03*
X59594Y33300D03*
X59004Y33300D03*
G54D13*
X59600Y34395D03*
X59600Y33805D03*
X24500Y39706D03*
X24500Y40296D03*
X25499Y39706D03*
X25499Y40296D03*
X26500Y39706D03*
X26500Y40296D03*
X23500Y39706D03*
X23500Y40296D03*
X59000Y38105D03*
X59000Y38695D03*
X58999Y34396D03*
X58999Y33806D03*
X58300Y33805D03*
X58300Y34395D03*
X57701Y34395D03*
X57701Y33805D03*
X58400Y38695D03*
X58400Y38105D03*
X59900Y35796D03*
X59900Y35206D03*
G54D12*
X37194Y39700D03*
X36604Y39700D03*
X35895Y39700D03*
X35305Y39700D03*
G54D13*
X36999Y35695D03*
X36999Y35105D03*
G54D12*
X31695Y33400D03*
X31105Y33400D03*
G54D13*
X31200Y37296D03*
X31200Y36706D03*
X33200Y37295D03*
X33200Y36705D03*
X33200Y38995D03*
X33200Y38405D03*
G54D12*
X29696Y35300D03*
X29106Y35300D03*
X33595Y33400D03*
X33005Y33400D03*
X38405Y34299D03*
X38995Y34299D03*
G54D13*
X41548Y33145D03*
X41548Y32555D03*
X40948Y33144D03*
X40948Y32554D03*
G54D12*
X41443Y32050D03*
X40853Y32050D03*
X42895Y39700D03*
X42305Y39700D03*
X44295Y39699D03*
X43705Y39699D03*
G54D13*
X42500Y35105D03*
X42500Y35695D03*
G54D12*
X47595Y33400D03*
X47005Y33400D03*
G54D13*
X46600Y37295D03*
X46600Y36705D03*
X44600Y37295D03*
X44600Y36705D03*
X46601Y38205D03*
X46601Y38795D03*
G54D12*
X49295Y35300D03*
X48705Y35300D03*
X48704Y33401D03*
X49294Y33401D03*
X40005Y34300D03*
X40595Y34300D03*
G54D13*
X40400Y37805D03*
X40400Y38395D03*
X39299Y38295D03*
X39299Y37705D03*
X41700Y35695D03*
X41700Y35105D03*
X37799Y35105D03*
X37799Y35695D03*
G54D12*
X34394Y39700D03*
X33804Y39700D03*
X32395Y39700D03*
X31805Y39700D03*
X45796Y39700D03*
X45206Y39700D03*
X47795Y39700D03*
X47205Y39700D03*
X30695Y35999D03*
X30105Y35999D03*
G54D13*
X33900Y35795D03*
X33900Y35205D03*
X45800Y34694D03*
X45800Y34104D03*
G54D12*
X49295Y35900D03*
X48705Y35900D03*
X36196Y37600D03*
X35606Y37600D03*
G54D13*
X34801Y33495D03*
X34801Y32905D03*
G54D12*
X35995Y34299D03*
X35405Y34299D03*
X40895Y31400D03*
X40305Y31400D03*
G54D13*
X37001Y31995D03*
X37001Y31405D03*
X42300Y33794D03*
X42300Y33204D03*
G54D12*
X43495Y34200D03*
X42905Y34200D03*
X38094Y31400D03*
X37504Y31400D03*
G54D13*
X42301Y31805D03*
X42301Y32395D03*
X34801Y31896D03*
X34801Y31306D03*
G54D12*
X44395Y37700D03*
X43805Y37700D03*
G54D13*
X57801Y49695D03*
X57801Y49105D03*
X57300Y49695D03*
X57300Y49105D03*
X36851Y44648D03*
X36851Y44058D03*
X37351Y44648D03*
X37351Y44058D03*
G54D12*
X36856Y43553D03*
X37446Y43553D03*
X28695Y49300D03*
X28105Y49300D03*
X40906Y44700D03*
X41496Y44700D03*
X28995Y45601D03*
X28405Y45601D03*
X59594Y44300D03*
X59004Y44300D03*
G54D13*
X59600Y45395D03*
X59600Y44805D03*
X24500Y50706D03*
X24500Y51296D03*
X25499Y50706D03*
X25499Y51296D03*
X26500Y50706D03*
X26500Y51296D03*
X23500Y50706D03*
X23500Y51296D03*
X59000Y49105D03*
X59000Y49695D03*
X58999Y45396D03*
X58999Y44806D03*
X58300Y44805D03*
X58300Y45395D03*
X57701Y45395D03*
X57701Y44805D03*
X58400Y49695D03*
X58400Y49105D03*
X59900Y46796D03*
X59900Y46206D03*
G54D12*
X37194Y50700D03*
X36604Y50700D03*
X35895Y50700D03*
X35305Y50700D03*
G54D13*
X36999Y46695D03*
X36999Y46105D03*
G54D12*
X31695Y44400D03*
X31105Y44400D03*
G54D13*
X31200Y48296D03*
X31200Y47706D03*
X33200Y48295D03*
X33200Y47705D03*
X33200Y49995D03*
X33200Y49405D03*
G54D12*
X29696Y46300D03*
X29106Y46300D03*
X33595Y44400D03*
X33005Y44400D03*
X38405Y45299D03*
X38995Y45299D03*
G54D13*
X41548Y44145D03*
X41548Y43555D03*
X40948Y44144D03*
X40948Y43554D03*
G54D12*
X41443Y43050D03*
X40853Y43050D03*
X42895Y50700D03*
X42305Y50700D03*
X44295Y50699D03*
X43705Y50699D03*
G54D13*
X42500Y46105D03*
X42500Y46695D03*
G54D12*
X47595Y44400D03*
X47005Y44400D03*
G54D13*
X46600Y48295D03*
X46600Y47705D03*
X44600Y48295D03*
X44600Y47705D03*
X46601Y49205D03*
X46601Y49795D03*
G54D12*
X49295Y46300D03*
X48705Y46300D03*
X48704Y44401D03*
X49294Y44401D03*
X40005Y45300D03*
X40595Y45300D03*
G54D13*
X40400Y48805D03*
X40400Y49395D03*
X39299Y49295D03*
X39299Y48705D03*
X41700Y46695D03*
X41700Y46105D03*
X37799Y46105D03*
X37799Y46695D03*
G54D12*
X34394Y50700D03*
X33804Y50700D03*
X32395Y50700D03*
X31805Y50700D03*
X45796Y50700D03*
X45206Y50700D03*
X47795Y50700D03*
X47205Y50700D03*
X30695Y46999D03*
X30105Y46999D03*
G54D13*
X33900Y46795D03*
X33900Y46205D03*
X45800Y45694D03*
X45800Y45104D03*
G54D12*
X49295Y46900D03*
X48705Y46900D03*
X36196Y48600D03*
X35606Y48600D03*
G54D13*
X34801Y44495D03*
X34801Y43905D03*
G54D12*
X35995Y45299D03*
X35405Y45299D03*
X40895Y42400D03*
X40305Y42400D03*
G54D13*
X37001Y42995D03*
X37001Y42405D03*
X42300Y44794D03*
X42300Y44204D03*
G54D12*
X43495Y45200D03*
X42905Y45200D03*
X38094Y42400D03*
X37504Y42400D03*
G54D13*
X42301Y42805D03*
X42301Y43395D03*
X34801Y42896D03*
X34801Y42306D03*
G54D12*
X44395Y48700D03*
X43805Y48700D03*
G54D13*
X57801Y27695D03*
X57801Y27105D03*
X57300Y27695D03*
X57300Y27105D03*
X36851Y22648D03*
X36851Y22058D03*
X37351Y22648D03*
X37351Y22058D03*
G54D12*
X36856Y21553D03*
X37446Y21553D03*
X28695Y27300D03*
X28105Y27300D03*
X40906Y22700D03*
X41496Y22700D03*
X28995Y23601D03*
X28405Y23601D03*
X59594Y22300D03*
X59004Y22300D03*
G54D13*
X59600Y23395D03*
X59600Y22805D03*
X24500Y28706D03*
X24500Y29296D03*
X25499Y28706D03*
X25499Y29296D03*
X26500Y28706D03*
X26500Y29296D03*
X23500Y28706D03*
X23500Y29296D03*
X59000Y27105D03*
X59000Y27695D03*
X58999Y23396D03*
X58999Y22806D03*
X58300Y22805D03*
X58300Y23395D03*
X57701Y23395D03*
X57701Y22805D03*
X58400Y27695D03*
X58400Y27105D03*
X59900Y24796D03*
X59900Y24206D03*
G54D12*
X37194Y28700D03*
X36604Y28700D03*
X35895Y28700D03*
X35305Y28700D03*
G54D13*
X36999Y24695D03*
X36999Y24105D03*
G54D12*
X31695Y22400D03*
X31105Y22400D03*
G54D13*
X31200Y26296D03*
X31200Y25706D03*
X33200Y26295D03*
X33200Y25705D03*
X33200Y27995D03*
X33200Y27405D03*
G54D12*
X29696Y24300D03*
X29106Y24300D03*
X33595Y22400D03*
X33005Y22400D03*
X38405Y23299D03*
X38995Y23299D03*
G54D13*
X41548Y22145D03*
X41548Y21555D03*
X40948Y22144D03*
X40948Y21554D03*
G54D12*
X41443Y21050D03*
X40853Y21050D03*
X42895Y28700D03*
X42305Y28700D03*
X44295Y28699D03*
X43705Y28699D03*
G54D13*
X42500Y24105D03*
X42500Y24695D03*
G54D12*
X47595Y22400D03*
X47005Y22400D03*
G54D13*
X46600Y26295D03*
X46600Y25705D03*
X44600Y26295D03*
X44600Y25705D03*
X46601Y27205D03*
X46601Y27795D03*
G54D12*
X49295Y24300D03*
X48705Y24300D03*
X48704Y22401D03*
X49294Y22401D03*
X40005Y23300D03*
X40595Y23300D03*
G54D13*
X40400Y26805D03*
X40400Y27395D03*
X39299Y27295D03*
X39299Y26705D03*
X41700Y24695D03*
X41700Y24105D03*
X37799Y24105D03*
X37799Y24695D03*
G54D12*
X34394Y28700D03*
X33804Y28700D03*
X32395Y28700D03*
X31805Y28700D03*
X45796Y28700D03*
X45206Y28700D03*
X47795Y28700D03*
X47205Y28700D03*
X30695Y24999D03*
X30105Y24999D03*
G54D13*
X33900Y24795D03*
X33900Y24205D03*
X45800Y23694D03*
X45800Y23104D03*
G54D12*
X49295Y24900D03*
X48705Y24900D03*
X36196Y26600D03*
X35606Y26600D03*
G54D13*
X34801Y22495D03*
X34801Y21905D03*
G54D12*
X35995Y23299D03*
X35405Y23299D03*
X40895Y20400D03*
X40305Y20400D03*
G54D13*
X37001Y20995D03*
X37001Y20405D03*
X42300Y22794D03*
X42300Y22204D03*
G54D12*
X43495Y23200D03*
X42905Y23200D03*
X38094Y20400D03*
X37504Y20400D03*
G54D13*
X42301Y20805D03*
X42301Y21395D03*
X34801Y20896D03*
X34801Y20306D03*
G54D12*
X44395Y26700D03*
X43805Y26700D03*
G54D13*
X57801Y16695D03*
X57801Y16105D03*
X57300Y16695D03*
X57300Y16105D03*
X36851Y11648D03*
X36851Y11058D03*
X37351Y11648D03*
X37351Y11058D03*
G54D12*
X36856Y10553D03*
X37446Y10553D03*
X28695Y16300D03*
X28105Y16300D03*
X40906Y11700D03*
X41496Y11700D03*
X28995Y12601D03*
X28405Y12601D03*
X59594Y11300D03*
X59004Y11300D03*
G54D13*
X59600Y12395D03*
X59600Y11805D03*
X24500Y17706D03*
X24500Y18296D03*
X25499Y17706D03*
X25499Y18296D03*
X26500Y17706D03*
X26500Y18296D03*
X23500Y17706D03*
X23500Y18296D03*
X59000Y16105D03*
X59000Y16695D03*
X58999Y12396D03*
X58999Y11806D03*
X58300Y11805D03*
X58300Y12395D03*
X57701Y12395D03*
X57701Y11805D03*
X58400Y16695D03*
X58400Y16105D03*
X59900Y13796D03*
X59900Y13206D03*
G54D12*
X37194Y17700D03*
X36604Y17700D03*
X35895Y17700D03*
X35305Y17700D03*
G54D13*
X36999Y13695D03*
X36999Y13105D03*
G54D12*
X31695Y11400D03*
X31105Y11400D03*
G54D13*
X31200Y15296D03*
X31200Y14706D03*
X33200Y15295D03*
X33200Y14705D03*
X33200Y16995D03*
X33200Y16405D03*
G54D12*
X29696Y13300D03*
X29106Y13300D03*
X33595Y11400D03*
X33005Y11400D03*
X38405Y12299D03*
X38995Y12299D03*
G54D13*
X41548Y11145D03*
X41548Y10555D03*
X40948Y11144D03*
X40948Y10554D03*
G54D12*
X41443Y10050D03*
X40853Y10050D03*
X42895Y17700D03*
X42305Y17700D03*
X44295Y17699D03*
X43705Y17699D03*
G54D13*
X42500Y13105D03*
X42500Y13695D03*
G54D12*
X47595Y11400D03*
X47005Y11400D03*
G54D13*
X46600Y15295D03*
X46600Y14705D03*
X44600Y15295D03*
X44600Y14705D03*
X46601Y16205D03*
X46601Y16795D03*
G54D12*
X49295Y13300D03*
X48705Y13300D03*
X48704Y11401D03*
X49294Y11401D03*
X40005Y12300D03*
X40595Y12300D03*
G54D13*
X40400Y15805D03*
X40400Y16395D03*
X39299Y16295D03*
X39299Y15705D03*
X41700Y13695D03*
X41700Y13105D03*
X37799Y13105D03*
X37799Y13695D03*
G54D12*
X34394Y17700D03*
X33804Y17700D03*
X32395Y17700D03*
X31805Y17700D03*
X45796Y17700D03*
X45206Y17700D03*
X47795Y17700D03*
X47205Y17700D03*
X30695Y13999D03*
X30105Y13999D03*
G54D13*
X33900Y13795D03*
X33900Y13205D03*
X45800Y12694D03*
X45800Y12104D03*
G54D12*
X49295Y13900D03*
X48705Y13900D03*
X36196Y15600D03*
X35606Y15600D03*
G54D13*
X34801Y11495D03*
X34801Y10905D03*
G54D12*
X35995Y12299D03*
X35405Y12299D03*
X40895Y09400D03*
X40305Y09400D03*
G54D13*
X37001Y09995D03*
X37001Y09405D03*
X42300Y11794D03*
X42300Y11204D03*
G54D12*
X43495Y12200D03*
X42905Y12200D03*
X38094Y09400D03*
X37504Y09400D03*
G54D13*
X42301Y09805D03*
X42301Y10395D03*
X34801Y09896D03*
X34801Y09306D03*
G54D12*
X44395Y15700D03*
X43805Y15700D03*
X02995Y22401D03*
X02405Y22401D03*
X-15805Y14100D03*
X-16395Y14100D03*
G54D13*
X06100Y22195D03*
X06100Y21605D03*
G54D12*
X-17405Y34300D03*
X-17995Y34300D03*
X00905Y31400D03*
X01495Y31400D03*
X00395Y31400D03*
X-00195Y31400D03*
G54D13*
X00199Y36996D03*
X00199Y36406D03*
X-23309Y43005D03*
X-23309Y43595D03*
G54D12*
X-03465Y37499D03*
X-02875Y37499D03*
X-03465Y36498D03*
X-02875Y36498D03*
X-03467Y35498D03*
X-02877Y35498D03*
X-03467Y34499D03*
X-02877Y34499D03*
X-03467Y33498D03*
X-02877Y33498D03*
X-03467Y32499D03*
X-02877Y32499D03*
X-03467Y31500D03*
X-02877Y31500D03*
X-03467Y30501D03*
X-02877Y30501D03*
X-03445Y45900D03*
X-02855Y45900D03*
X-03445Y44900D03*
X-02855Y44900D03*
X-03445Y43900D03*
X-02855Y43900D03*
X-03445Y42900D03*
X-02855Y42900D03*
X-03445Y41900D03*
X-02855Y41900D03*
X-03445Y40899D03*
X-02855Y40899D03*
X-03445Y39900D03*
X-02855Y39900D03*
X-03445Y38900D03*
X-02855Y38900D03*
G54D13*
X00801Y36994D03*
X00801Y36404D03*
G54D12*
X00004Y39500D03*
X00594Y39500D03*
X00005Y39999D03*
X00595Y39999D03*
G54D14*
X-31265Y31400D03*
X-31935Y31400D03*
X-33034Y31400D03*
X-32364Y31400D03*
X-31265Y23900D03*
X-31935Y23900D03*
X-33034Y23900D03*
X-32364Y23900D03*
X-31265Y16400D03*
X-31935Y16400D03*
X-33034Y16400D03*
X-32364Y16400D03*
X-31265Y08900D03*
X-31935Y08900D03*
X-33034Y08900D03*
X-32364Y08900D03*
X-07236Y27000D03*
X-06566Y27000D03*
X-09136Y27000D03*
X-08466Y27000D03*
G54D15*
X13500Y38171D03*
X13500Y37029D03*
X13499Y34871D03*
X13499Y33729D03*
X13500Y32971D03*
X13500Y31829D03*
X08300Y38171D03*
X08300Y37029D03*
X08299Y35071D03*
X08299Y33929D03*
X08300Y33171D03*
X08300Y32029D03*
X18700Y38272D03*
X18700Y37130D03*
X18700Y33230D03*
X18700Y34372D03*
X13500Y49171D03*
X13500Y48029D03*
X13499Y45871D03*
X13499Y44729D03*
X13500Y43971D03*
X13500Y42829D03*
X08300Y49171D03*
X08300Y48029D03*
X08299Y46071D03*
X08299Y44929D03*
X08300Y44171D03*
X08300Y43029D03*
X18700Y49272D03*
X18700Y48130D03*
X18700Y44230D03*
X18700Y45372D03*
X13500Y27171D03*
X13500Y26029D03*
X13499Y23871D03*
X13499Y22729D03*
X13500Y21971D03*
X13500Y20829D03*
X08300Y27171D03*
X08300Y26029D03*
X08299Y24071D03*
X08299Y22929D03*
X08300Y22171D03*
X08300Y21029D03*
X18700Y27272D03*
X18700Y26130D03*
X18700Y22230D03*
X18700Y23372D03*
X13500Y16171D03*
X13500Y15029D03*
X13499Y12871D03*
X13499Y11729D03*
X13500Y10971D03*
X13500Y09829D03*
X08300Y16171D03*
X08300Y15029D03*
X08299Y13071D03*
X08299Y11929D03*
X08300Y11171D03*
X08300Y10029D03*
X18700Y16272D03*
X18700Y15130D03*
X18700Y11230D03*
X18700Y12372D03*
G54D16*
X30000Y38300D03*
X30000Y39500D03*
X49800Y38300D03*
X49800Y39500D03*
X30000Y49300D03*
X30000Y50500D03*
X49800Y49300D03*
X49800Y50500D03*
X30000Y27300D03*
X30000Y28500D03*
X49800Y27300D03*
X49800Y28500D03*
X30000Y16300D03*
X30000Y17500D03*
X49800Y16300D03*
X49800Y17500D03*
X01301Y38800D03*
X01301Y40000D03*
G54D17*
X-27325Y36954D03*
X-26675Y36954D03*
X-26675Y37446D03*
X-27325Y37446D03*
G54D18*
X-22971Y44999D03*
X-19428Y44999D03*
G54D19*
X-23053Y38053D03*
X-23368Y38053D03*
X-23683Y38053D03*
X-23998Y38053D03*
X-24313Y38053D03*
X-24628Y38053D03*
X-24943Y38053D03*
X-25258Y38053D03*
X-25573Y38053D03*
X-25888Y38053D03*
X-26203Y38053D03*
X-26518Y38053D03*
X-26833Y38053D03*
X-27147Y38053D03*
X-23053Y38368D03*
X-23368Y38368D03*
X-23683Y38368D03*
X-23998Y38368D03*
X-24313Y38368D03*
X-24628Y38368D03*
X-24943Y38368D03*
X-25258Y38368D03*
X-25573Y38368D03*
X-25888Y38368D03*
X-26203Y38368D03*
X-26518Y38368D03*
X-26833Y38368D03*
X-27147Y38368D03*
X-23053Y38683D03*
X-23368Y38683D03*
X-23683Y38683D03*
X-23998Y38683D03*
X-24313Y38683D03*
X-24628Y38683D03*
X-24943Y38683D03*
X-25258Y38683D03*
X-25573Y38683D03*
X-25888Y38683D03*
X-26203Y38683D03*
X-26518Y38683D03*
X-26833Y38683D03*
X-27147Y38683D03*
X-23053Y38998D03*
X-23368Y38998D03*
X-23683Y38998D03*
X-23998Y38998D03*
X-24313Y38998D03*
X-24628Y38998D03*
X-24943Y38998D03*
X-25258Y38998D03*
X-25573Y38998D03*
X-25888Y38998D03*
X-26203Y38998D03*
X-26518Y38998D03*
X-26833Y38998D03*
X-27147Y38998D03*
X-23053Y39313D03*
X-23368Y39313D03*
X-23683Y39313D03*
X-23998Y39313D03*
X-26203Y39313D03*
X-26518Y39313D03*
X-26833Y39313D03*
X-27147Y39313D03*
X-23053Y39628D03*
X-23368Y39628D03*
X-23683Y39628D03*
X-23998Y39628D03*
X-26203Y39628D03*
X-26518Y39628D03*
X-26833Y39628D03*
X-27147Y39628D03*
X-23053Y39943D03*
X-23368Y39943D03*
X-23683Y39943D03*
X-23998Y39943D03*
X-26203Y39943D03*
X-26518Y39943D03*
X-26833Y39943D03*
X-27147Y39943D03*
X-23053Y40258D03*
X-23368Y40258D03*
X-23683Y40258D03*
X-23998Y40258D03*
X-26203Y40258D03*
X-26518Y40258D03*
X-26833Y40258D03*
X-27147Y40258D03*
X-23053Y40573D03*
X-23368Y40573D03*
X-23683Y40573D03*
X-23998Y40573D03*
X-26203Y40573D03*
X-26518Y40573D03*
X-26833Y40573D03*
X-27147Y40573D03*
X-23053Y40888D03*
X-23368Y40888D03*
X-23683Y40888D03*
X-23998Y40888D03*
X-26203Y40888D03*
X-26518Y40888D03*
X-26833Y40888D03*
X-27147Y40888D03*
X-23053Y41203D03*
X-23368Y41203D03*
X-23683Y41203D03*
X-23998Y41203D03*
X-24313Y41203D03*
X-24628Y41203D03*
X-24943Y41203D03*
X-25258Y41203D03*
X-25573Y41203D03*
X-25888Y41203D03*
X-26203Y41203D03*
X-26518Y41203D03*
X-26833Y41203D03*
X-27147Y41203D03*
X-23053Y41518D03*
X-23368Y41518D03*
X-23683Y41518D03*
X-23998Y41518D03*
X-24313Y41518D03*
X-24628Y41518D03*
X-24943Y41518D03*
X-25258Y41518D03*
X-25573Y41518D03*
X-25888Y41518D03*
X-26203Y41518D03*
X-26518Y41518D03*
X-26833Y41518D03*
X-27147Y41518D03*
X-23053Y41833D03*
X-23368Y41833D03*
X-23683Y41833D03*
X-23998Y41833D03*
X-24313Y41833D03*
X-24628Y41833D03*
X-24943Y41833D03*
X-25258Y41833D03*
X-25573Y41833D03*
X-25888Y41833D03*
X-26203Y41833D03*
X-26518Y41833D03*
X-26833Y41833D03*
X-27147Y41833D03*
X-23053Y42147D03*
X-23368Y42147D03*
X-23683Y42147D03*
X-23998Y42147D03*
X-24313Y42147D03*
X-24628Y42147D03*
X-24943Y42147D03*
X-25258Y42147D03*
X-25573Y42147D03*
X-25888Y42147D03*
X-26203Y42147D03*
X-26518Y42147D03*
X-26833Y42147D03*
X-27147Y42147D03*
G54D20*
X-32101Y45601D03*
X-32101Y45798D03*
X-32298Y45601D03*
X-32298Y45798D03*
X-31301Y45601D03*
X-31301Y45798D03*
X-31498Y45601D03*
X-31498Y45798D03*
X-30501Y45601D03*
X-30501Y45798D03*
X-30698Y45601D03*
X-30698Y45798D03*
X-32101Y45031D03*
X-32101Y45228D03*
X-32298Y45031D03*
X-32298Y45228D03*
X-31301Y45031D03*
X-31301Y45228D03*
X-31498Y45031D03*
X-31498Y45228D03*
X-30501Y45031D03*
X-30501Y45228D03*
X-30698Y45031D03*
X-30698Y45228D03*
X-32101Y44461D03*
X-32101Y44658D03*
X-32298Y44461D03*
X-32298Y44658D03*
X-31301Y44461D03*
X-31301Y44658D03*
X-31498Y44461D03*
X-31498Y44658D03*
X-30501Y44461D03*
X-30501Y44658D03*
X-30698Y44461D03*
X-30698Y44658D03*
X-32101Y43891D03*
X-32101Y44088D03*
X-32298Y43891D03*
X-32298Y44088D03*
X-31301Y43891D03*
X-31301Y44088D03*
X-31498Y43891D03*
X-31498Y44088D03*
X-30501Y43891D03*
X-30501Y44088D03*
X-30698Y43891D03*
X-30698Y44088D03*
X-32101Y43321D03*
X-32101Y43518D03*
X-32298Y43321D03*
X-32298Y43518D03*
X-31301Y43321D03*
X-31301Y43518D03*
X-31498Y43321D03*
X-31498Y43518D03*
X-30501Y43321D03*
X-30501Y43518D03*
X-30698Y43321D03*
X-30698Y43518D03*
X-32101Y42751D03*
X-32101Y42948D03*
X-32298Y42751D03*
X-32298Y42948D03*
X-31301Y42751D03*
X-31301Y42948D03*
X-31498Y42751D03*
X-31498Y42948D03*
X-30501Y42751D03*
X-30501Y42948D03*
X-30698Y42751D03*
X-30698Y42948D03*
X-32101Y42181D03*
X-32101Y42378D03*
X-32298Y42181D03*
X-32298Y42378D03*
X-31301Y42181D03*
X-31301Y42378D03*
X-31498Y42181D03*
X-31498Y42378D03*
X-30501Y42181D03*
X-30501Y42378D03*
X-30698Y42181D03*
X-30698Y42378D03*
X-32101Y41611D03*
X-32101Y41808D03*
X-32298Y41611D03*
X-32298Y41808D03*
X-31301Y41611D03*
X-31301Y41808D03*
X-31498Y41611D03*
X-31498Y41808D03*
X-30501Y41611D03*
X-30501Y41808D03*
X-30698Y41611D03*
X-30698Y41808D03*
X-32101Y41041D03*
X-32101Y41238D03*
X-32298Y41041D03*
X-32298Y41238D03*
X-31301Y41041D03*
X-31301Y41238D03*
X-31498Y41041D03*
X-31498Y41238D03*
X-30501Y41041D03*
X-30501Y41238D03*
X-30698Y41041D03*
X-30698Y41238D03*
X-32101Y40471D03*
X-32101Y40668D03*
X-32298Y40471D03*
X-32298Y40668D03*
X-31301Y40471D03*
X-31301Y40668D03*
X-31498Y40471D03*
X-31498Y40668D03*
X-30501Y40471D03*
X-30501Y40668D03*
X-30698Y40471D03*
X-30698Y40668D03*
X-32101Y39901D03*
X-32101Y40098D03*
X-32298Y39901D03*
X-32298Y40098D03*
X-31301Y39901D03*
X-31301Y40098D03*
X-31498Y39901D03*
X-31498Y40098D03*
X-30501Y39901D03*
X-30501Y40098D03*
X-30698Y39901D03*
X-30698Y40098D03*
X-32101Y39331D03*
X-32101Y39528D03*
X-32298Y39331D03*
X-32298Y39528D03*
X-31301Y39331D03*
X-31301Y39528D03*
X-31498Y39331D03*
X-31498Y39528D03*
X-30501Y39331D03*
X-30501Y39528D03*
X-30698Y39331D03*
X-30698Y39528D03*
X-32101Y38761D03*
X-32101Y38958D03*
X-32298Y38761D03*
X-32298Y38958D03*
X-31301Y38761D03*
X-31301Y38958D03*
X-31498Y38761D03*
X-31498Y38958D03*
X-30501Y38761D03*
X-30501Y38958D03*
X-30698Y38761D03*
X-30698Y38958D03*
X-32101Y38191D03*
X-32101Y38388D03*
X-32298Y38191D03*
X-32298Y38388D03*
X-31301Y38191D03*
X-31301Y38388D03*
X-31498Y38191D03*
X-31498Y38388D03*
X-30501Y38191D03*
X-30501Y38388D03*
X-30698Y38191D03*
X-30698Y38388D03*
X-32101Y37621D03*
X-32101Y37818D03*
X-32298Y37621D03*
X-32298Y37818D03*
X-31301Y37621D03*
X-31301Y37818D03*
X-31498Y37621D03*
X-31498Y37818D03*
X-30501Y37621D03*
X-30501Y37818D03*
X-30698Y37621D03*
X-30698Y37818D03*
X-32101Y37051D03*
X-32101Y37248D03*
X-32298Y37051D03*
X-32298Y37248D03*
X-31301Y37051D03*
X-31301Y37248D03*
X-31498Y37051D03*
X-31498Y37248D03*
X-30501Y37051D03*
X-30501Y37248D03*
X-30698Y37051D03*
X-30698Y37248D03*
X-05302Y19898D03*
X-05499Y19898D03*
X-05302Y19701D03*
X-05499Y19701D03*
X-05301Y20899D03*
X-05498Y20899D03*
X-05301Y20702D03*
X-05498Y20702D03*
G54D21*
X37374Y39173D03*
X36626Y39173D03*
X37000Y38228D03*
X36327Y36228D03*
X37075Y36228D03*
X36701Y37173D03*
X35974Y39173D03*
X35226Y39173D03*
X35600Y38228D03*
X34575Y39173D03*
X33827Y39173D03*
X34201Y38228D03*
X32574Y39173D03*
X31826Y39173D03*
X32200Y38228D03*
X31825Y36728D03*
X32573Y36728D03*
X32199Y37673D03*
X34326Y36727D03*
X35074Y36727D03*
X34700Y37672D03*
G54D22*
X34872Y34025D03*
X34872Y34773D03*
X33927Y34399D03*
X31373Y34025D03*
X31373Y34773D03*
X30428Y34399D03*
X32972Y33925D03*
X32972Y34673D03*
X32027Y34299D03*
G54D21*
X29825Y36527D03*
X30573Y36527D03*
X30199Y37472D03*
X32525Y35228D03*
X33273Y35228D03*
X32899Y36173D03*
X39374Y35772D03*
X38626Y35772D03*
X39000Y34827D03*
X43074Y39173D03*
X42326Y39173D03*
X42700Y38228D03*
X43126Y36226D03*
X43874Y36226D03*
X43500Y37171D03*
X44473Y39172D03*
X43725Y39172D03*
X44099Y38227D03*
X45975Y39173D03*
X45227Y39173D03*
X45601Y38228D03*
X47974Y39172D03*
X47226Y39172D03*
X47600Y38227D03*
X47326Y36727D03*
X48074Y36727D03*
X47700Y37672D03*
X45226Y36727D03*
X45974Y36727D03*
X45600Y37672D03*
G54D22*
X45072Y34026D03*
X45072Y34774D03*
X44127Y34400D03*
X47572Y34026D03*
X47572Y34774D03*
X46627Y34400D03*
X49273Y34025D03*
X49273Y34773D03*
X48328Y34399D03*
G54D21*
X48725Y36427D03*
X49473Y36427D03*
X49099Y37372D03*
X45926Y35227D03*
X46674Y35227D03*
X46300Y36172D03*
X40974Y35772D03*
X40226Y35772D03*
X40600Y34827D03*
X41726Y36227D03*
X42474Y36227D03*
X42100Y37172D03*
X37826Y36227D03*
X38574Y36227D03*
X38200Y37172D03*
X37374Y50173D03*
X36626Y50173D03*
X37000Y49228D03*
X36327Y47228D03*
X37075Y47228D03*
X36701Y48173D03*
X35974Y50173D03*
X35226Y50173D03*
X35600Y49228D03*
X34575Y50173D03*
X33827Y50173D03*
X34201Y49228D03*
X32574Y50173D03*
X31826Y50173D03*
X32200Y49228D03*
X31825Y47728D03*
X32573Y47728D03*
X32199Y48673D03*
X34326Y47727D03*
X35074Y47727D03*
X34700Y48672D03*
G54D22*
X34872Y45025D03*
X34872Y45773D03*
X33927Y45399D03*
X31373Y45025D03*
X31373Y45773D03*
X30428Y45399D03*
X32972Y44925D03*
X32972Y45673D03*
X32027Y45299D03*
G54D21*
X29825Y47527D03*
X30573Y47527D03*
X30199Y48472D03*
X32525Y46228D03*
X33273Y46228D03*
X32899Y47173D03*
X39374Y46772D03*
X38626Y46772D03*
X39000Y45827D03*
X43074Y50173D03*
X42326Y50173D03*
X42700Y49228D03*
X43126Y47226D03*
X43874Y47226D03*
X43500Y48171D03*
X44473Y50172D03*
X43725Y50172D03*
X44099Y49227D03*
X45975Y50173D03*
X45227Y50173D03*
X45601Y49228D03*
X47974Y50172D03*
X47226Y50172D03*
X47600Y49227D03*
X47326Y47727D03*
X48074Y47727D03*
X47700Y48672D03*
X45226Y47727D03*
X45974Y47727D03*
X45600Y48672D03*
G54D22*
X45072Y45026D03*
X45072Y45774D03*
X44127Y45400D03*
X47572Y45026D03*
X47572Y45774D03*
X46627Y45400D03*
X49273Y45025D03*
X49273Y45773D03*
X48328Y45399D03*
G54D21*
X48725Y47427D03*
X49473Y47427D03*
X49099Y48372D03*
X45926Y46227D03*
X46674Y46227D03*
X46300Y47172D03*
X40974Y46772D03*
X40226Y46772D03*
X40600Y45827D03*
X41726Y47227D03*
X42474Y47227D03*
X42100Y48172D03*
X37826Y47227D03*
X38574Y47227D03*
X38200Y48172D03*
X37374Y28173D03*
X36626Y28173D03*
X37000Y27228D03*
X36327Y25228D03*
X37075Y25228D03*
X36701Y26173D03*
X35974Y28173D03*
X35226Y28173D03*
X35600Y27228D03*
X34575Y28173D03*
X33827Y28173D03*
X34201Y27228D03*
X32574Y28173D03*
X31826Y28173D03*
X32200Y27228D03*
X31825Y25728D03*
X32573Y25728D03*
X32199Y26673D03*
X34326Y25727D03*
X35074Y25727D03*
X34700Y26672D03*
G54D22*
X34872Y23025D03*
X34872Y23773D03*
X33927Y23399D03*
X31373Y23025D03*
X31373Y23773D03*
X30428Y23399D03*
X32972Y22925D03*
X32972Y23673D03*
X32027Y23299D03*
G54D21*
X29825Y25527D03*
X30573Y25527D03*
X30199Y26472D03*
X32525Y24228D03*
X33273Y24228D03*
X32899Y25173D03*
X39374Y24772D03*
X38626Y24772D03*
X39000Y23827D03*
X43074Y28173D03*
X42326Y28173D03*
X42700Y27228D03*
X43126Y25226D03*
X43874Y25226D03*
X43500Y26171D03*
X44473Y28172D03*
X43725Y28172D03*
X44099Y27227D03*
X45975Y28173D03*
X45227Y28173D03*
X45601Y27228D03*
X47974Y28172D03*
X47226Y28172D03*
X47600Y27227D03*
X47326Y25727D03*
X48074Y25727D03*
X47700Y26672D03*
X45226Y25727D03*
X45974Y25727D03*
X45600Y26672D03*
G54D22*
X45072Y23026D03*
X45072Y23774D03*
X44127Y23400D03*
X47572Y23026D03*
X47572Y23774D03*
X46627Y23400D03*
X49273Y23025D03*
X49273Y23773D03*
X48328Y23399D03*
G54D21*
X48725Y25427D03*
X49473Y25427D03*
X49099Y26372D03*
X45926Y24227D03*
X46674Y24227D03*
X46300Y25172D03*
X40974Y24772D03*
X40226Y24772D03*
X40600Y23827D03*
X41726Y25227D03*
X42474Y25227D03*
X42100Y26172D03*
X37826Y25227D03*
X38574Y25227D03*
X38200Y26172D03*
X37374Y17173D03*
X36626Y17173D03*
X37000Y16228D03*
X36327Y14228D03*
X37075Y14228D03*
X36701Y15173D03*
X35974Y17173D03*
X35226Y17173D03*
X35600Y16228D03*
X34575Y17173D03*
X33827Y17173D03*
X34201Y16228D03*
X32574Y17173D03*
X31826Y17173D03*
X32200Y16228D03*
X31825Y14728D03*
X32573Y14728D03*
X32199Y15673D03*
X34326Y14727D03*
X35074Y14727D03*
X34700Y15672D03*
G54D22*
X34872Y12025D03*
X34872Y12773D03*
X33927Y12399D03*
X31373Y12025D03*
X31373Y12773D03*
X30428Y12399D03*
X32972Y11925D03*
X32972Y12673D03*
X32027Y12299D03*
G54D21*
X29825Y14527D03*
X30573Y14527D03*
X30199Y15472D03*
X32525Y13228D03*
X33273Y13228D03*
X32899Y14173D03*
X39374Y13772D03*
X38626Y13772D03*
X39000Y12827D03*
X43074Y17173D03*
X42326Y17173D03*
X42700Y16228D03*
X43126Y14226D03*
X43874Y14226D03*
X43500Y15171D03*
X44473Y17172D03*
X43725Y17172D03*
X44099Y16227D03*
X45975Y17173D03*
X45227Y17173D03*
X45601Y16228D03*
X47974Y17172D03*
X47226Y17172D03*
X47600Y16227D03*
X47326Y14727D03*
X48074Y14727D03*
X47700Y15672D03*
X45226Y14727D03*
X45974Y14727D03*
X45600Y15672D03*
G54D22*
X45072Y12026D03*
X45072Y12774D03*
X44127Y12400D03*
X47572Y12026D03*
X47572Y12774D03*
X46627Y12400D03*
X49273Y12025D03*
X49273Y12773D03*
X48328Y12399D03*
G54D21*
X48725Y14427D03*
X49473Y14427D03*
X49099Y15372D03*
X45926Y13227D03*
X46674Y13227D03*
X46300Y14172D03*
X40974Y13772D03*
X40226Y13772D03*
X40600Y12827D03*
X41726Y14227D03*
X42474Y14227D03*
X42100Y15172D03*
X37826Y14227D03*
X38574Y14227D03*
X38200Y15172D03*
G54D23*
X01699Y37500D03*
G54D24*
X01325Y36949D03*
X01699Y36949D03*
X02073Y36949D03*
X02073Y38051D03*
X01699Y38051D03*
X01325Y38051D03*
G54D25*
X-33950Y32884D03*
X-33950Y32628D03*
X-33950Y32372D03*
X-33950Y32116D03*
X-32250Y32116D03*
X-32250Y32372D03*
X-32250Y32628D03*
X-32250Y32884D03*
X-33950Y25384D03*
X-33950Y25128D03*
X-33950Y24872D03*
X-33950Y24616D03*
X-32250Y24616D03*
X-32250Y24872D03*
X-32250Y25128D03*
X-32250Y25384D03*
X-33950Y17884D03*
X-33950Y17628D03*
X-33950Y17372D03*
X-33950Y17116D03*
X-32250Y17116D03*
X-32250Y17372D03*
X-32250Y17628D03*
X-32250Y17884D03*
X-33950Y10384D03*
X-33950Y10128D03*
X-33950Y09872D03*
X-33950Y09616D03*
X-32250Y09616D03*
X-32250Y09872D03*
X-32250Y10128D03*
X-32250Y10384D03*
G54D26*
X-00215Y43933D03*
X-00215Y43067D03*
X00415Y43067D03*
X00415Y43933D03*
G54D27*
X-33750Y43425D03*
X-33750Y43175D03*
X-33750Y42925D03*
X-33750Y42675D03*
X-33750Y42425D03*
X-33750Y42175D03*
X-33750Y41925D03*
X-33750Y41675D03*
X-33750Y41425D03*
X-33750Y41175D03*
X-33750Y40925D03*
X-33750Y40675D03*
X-33750Y40425D03*
X-33750Y40175D03*
X-33750Y39925D03*
X-33750Y39675D03*
X-33750Y39425D03*
X-33750Y39175D03*
X-33250Y43425D03*
X-33250Y43175D03*
X-33250Y42925D03*
X-33250Y42675D03*
X-33250Y42425D03*
X-33250Y42175D03*
X-33250Y41925D03*
X-33250Y41675D03*
X-33250Y41425D03*
X-33250Y41175D03*
X-33250Y40925D03*
X-33250Y40675D03*
X-33250Y40425D03*
X-33250Y40175D03*
X-33250Y39925D03*
X-33250Y39675D03*
X-33250Y39425D03*
X-33250Y39175D03*
G54D28*
X01094Y35191D03*
X00897Y35191D03*
X00700Y35191D03*
X00503Y35191D03*
X00306Y35191D03*
X00306Y34009D03*
X00503Y34009D03*
X00700Y34009D03*
X00897Y34009D03*
X01094Y34009D03*
G54D29*
X00700Y34600D03*
G54D30*
X-28526Y37494D03*
X-28526Y37750D03*
X-28526Y38006D03*
X-29274Y38006D03*
X-29274Y37494D03*
X-00876Y41558D03*
X-00876Y41302D03*
X-00876Y41046D03*
X-00128Y41046D03*
X-00128Y41558D03*
G54D31*
X-30599Y31585D03*
X-30599Y31015D03*
X-30099Y31585D03*
X-30099Y31015D03*
X-30599Y24085D03*
X-30599Y23515D03*
X-30099Y24085D03*
X-30099Y23515D03*
X-30599Y16585D03*
X-30599Y16015D03*
X-30099Y16585D03*
X-30099Y16015D03*
X-30599Y09085D03*
X-30599Y08515D03*
X-30099Y09085D03*
X-30099Y08515D03*
X01115Y44699D03*
X01685Y44699D03*
X03586Y44299D03*
X03016Y44299D03*
X01116Y44200D03*
X01686Y44200D03*
G54D32*
X-18578Y25828D03*
X-18078Y25828D03*
X-17578Y25828D03*
X-17078Y25828D03*
X-16578Y25828D03*
X-16078Y25828D03*
X-15578Y25828D03*
X-15078Y25828D03*
X-15078Y27954D03*
X-15578Y27954D03*
X-16078Y27954D03*
X-16578Y27954D03*
X-17078Y27954D03*
X-17578Y27954D03*
X-18078Y27954D03*
X-18578Y27954D03*
X28650Y37564D03*
X28150Y37564D03*
X27650Y37564D03*
X27150Y37564D03*
X26650Y37564D03*
X26150Y37564D03*
X25650Y37564D03*
X25150Y37564D03*
X25150Y35438D03*
X25650Y35438D03*
X26150Y35438D03*
X26650Y35438D03*
X27150Y35438D03*
X27650Y35438D03*
X28150Y35438D03*
X28650Y35438D03*
X28650Y48564D03*
X28150Y48564D03*
X27650Y48564D03*
X27150Y48564D03*
X26650Y48564D03*
X26150Y48564D03*
X25650Y48564D03*
X25150Y48564D03*
X25150Y46438D03*
X25650Y46438D03*
X26150Y46438D03*
X26650Y46438D03*
X27150Y46438D03*
X27650Y46438D03*
X28150Y46438D03*
X28650Y46438D03*
X28650Y26564D03*
X28150Y26564D03*
X27650Y26564D03*
X27150Y26564D03*
X26650Y26564D03*
X26150Y26564D03*
X25650Y26564D03*
X25150Y26564D03*
X25150Y24438D03*
X25650Y24438D03*
X26150Y24438D03*
X26650Y24438D03*
X27150Y24438D03*
X27650Y24438D03*
X28150Y24438D03*
X28650Y24438D03*
X28650Y15564D03*
X28150Y15564D03*
X27650Y15564D03*
X27150Y15564D03*
X26650Y15564D03*
X26150Y15564D03*
X25650Y15564D03*
X25150Y15564D03*
X25150Y13438D03*
X25650Y13438D03*
X26150Y13438D03*
X26650Y13438D03*
X27150Y13438D03*
X27650Y13438D03*
X28150Y13438D03*
X28650Y13438D03*
G54D33*
X-06837Y34150D03*
X-06837Y34650D03*
X-06837Y35150D03*
X-06837Y35650D03*
X-08963Y35650D03*
X-08963Y35150D03*
X-08963Y34650D03*
X-08963Y34150D03*
G54D34*
X28550Y33762D03*
X28050Y33762D03*
X27550Y33762D03*
X27050Y33762D03*
X27050Y31636D03*
X27550Y31636D03*
X28050Y31636D03*
X28550Y31636D03*
G54D33*
X38085Y33603D03*
X38085Y33103D03*
X38085Y32603D03*
X38085Y32103D03*
X40211Y32103D03*
X40211Y32603D03*
X40211Y33103D03*
X40211Y33603D03*
G54D34*
X28550Y44762D03*
X28050Y44762D03*
X27550Y44762D03*
X27050Y44762D03*
X27050Y42636D03*
X27550Y42636D03*
X28050Y42636D03*
X28550Y42636D03*
G54D33*
X38085Y44603D03*
X38085Y44103D03*
X38085Y43603D03*
X38085Y43103D03*
X40211Y43103D03*
X40211Y43603D03*
X40211Y44103D03*
X40211Y44603D03*
G54D34*
X28550Y22762D03*
X28050Y22762D03*
X27550Y22762D03*
X27050Y22762D03*
X27050Y20636D03*
X27550Y20636D03*
X28050Y20636D03*
X28550Y20636D03*
G54D33*
X38085Y22603D03*
X38085Y22103D03*
X38085Y21603D03*
X38085Y21103D03*
X40211Y21103D03*
X40211Y21603D03*
X40211Y22103D03*
X40211Y22603D03*
G54D34*
X28550Y11762D03*
X28050Y11762D03*
X27550Y11762D03*
X27050Y11762D03*
X27050Y09636D03*
X27550Y09636D03*
X28050Y09636D03*
X28550Y09636D03*
G54D33*
X38085Y11603D03*
X38085Y11103D03*
X38085Y10603D03*
X38085Y10103D03*
X40211Y10103D03*
X40211Y10603D03*
X40211Y11103D03*
X40211Y11603D03*
G54D35*
X19893Y38199D03*
X19893Y37199D03*
X19893Y34199D03*
X19893Y33199D03*
X19893Y32199D03*
X23507Y32199D03*
X23507Y38199D03*
X19893Y49199D03*
X19893Y48199D03*
X19893Y45199D03*
X19893Y44199D03*
X19893Y43199D03*
X23507Y43199D03*
X23507Y49199D03*
X19893Y27199D03*
X19893Y26199D03*
X19893Y23199D03*
X19893Y22199D03*
X19893Y21199D03*
X23507Y21199D03*
X23507Y27199D03*
X19893Y16199D03*
X19893Y15199D03*
X19893Y12199D03*
X19893Y11199D03*
X19893Y10199D03*
X23507Y10199D03*
X23507Y16199D03*
G54D36*
X-01200Y24592D03*
X-00200Y24592D03*
X02800Y24592D03*
X03800Y24592D03*
X04800Y24592D03*
X04800Y28206D03*
X-01200Y28206D03*
G54D37*
X30250Y32650D03*
X30250Y32150D03*
X30250Y31650D03*
X30250Y31150D03*
X31750Y32650D03*
X31750Y32150D03*
X31750Y31650D03*
X31750Y31150D03*
X30250Y43650D03*
X30250Y43150D03*
X30250Y42650D03*
X30250Y42150D03*
X31750Y43650D03*
X31750Y43150D03*
X31750Y42650D03*
X31750Y42150D03*
X30250Y21650D03*
X30250Y21150D03*
X30250Y20650D03*
X30250Y20150D03*
X31750Y21650D03*
X31750Y21150D03*
X31750Y20650D03*
X31750Y20150D03*
X30250Y10650D03*
X30250Y10150D03*
X30250Y09650D03*
X30250Y09150D03*
X31750Y10650D03*
X31750Y10150D03*
X31750Y09650D03*
X31750Y09150D03*
G54D38*
X-06487Y28000D03*
X-07313Y28374D03*
X-07313Y27626D03*
X-09214Y27999D03*
X-08388Y27625D03*
X-08388Y28373D03*
X-20614Y32799D03*
X-19788Y32425D03*
X-19788Y33173D03*
X-20614Y25299D03*
X-19788Y24925D03*
X-19788Y25673D03*
X-20614Y17799D03*
X-19788Y17425D03*
X-19788Y18173D03*
X-20614Y10299D03*
X-19788Y09925D03*
X-19788Y10673D03*
X37887Y38399D03*
X38713Y38025D03*
X38713Y38773D03*
X40886Y38400D03*
X41712Y38026D03*
X41712Y38774D03*
X37887Y49399D03*
X38713Y49025D03*
X38713Y49773D03*
X40886Y49400D03*
X41712Y49026D03*
X41712Y49774D03*
X37887Y27399D03*
X38713Y27025D03*
X38713Y27773D03*
X40886Y27400D03*
X41712Y27026D03*
X41712Y27774D03*
X37887Y16399D03*
X38713Y16025D03*
X38713Y16773D03*
X40886Y16400D03*
X41712Y16026D03*
X41712Y16774D03*
G54D39*
X-29162Y43374D03*
X-29150Y43000D03*
X-29162Y42626D03*
X-28138Y42626D03*
X-28138Y43374D03*
G54D40*
X-06725Y26312D03*
X-07099Y26300D03*
X-07473Y26312D03*
X-07473Y25288D03*
X-06725Y25288D03*
G54D39*
X-09988Y26525D03*
X-10000Y26899D03*
X-09988Y27273D03*
X-11012Y27273D03*
X-11012Y26525D03*
G54D40*
X36174Y32413D03*
X35800Y32401D03*
X35426Y32413D03*
X35426Y31389D03*
X36174Y31389D03*
X43674Y32412D03*
X43300Y32400D03*
X42926Y32412D03*
X42926Y31388D03*
X43674Y31388D03*
X36174Y43413D03*
X35800Y43401D03*
X35426Y43413D03*
X35426Y42389D03*
X36174Y42389D03*
X43674Y43412D03*
X43300Y43400D03*
X42926Y43412D03*
X42926Y42388D03*
X43674Y42388D03*
X36174Y21413D03*
X35800Y21401D03*
X35426Y21413D03*
X35426Y20389D03*
X36174Y20389D03*
X43674Y21412D03*
X43300Y21400D03*
X42926Y21412D03*
X42926Y20388D03*
X43674Y20388D03*
X36174Y10413D03*
X35800Y10401D03*
X35426Y10413D03*
X35426Y09389D03*
X36174Y09389D03*
X43674Y10412D03*
X43300Y10400D03*
X42926Y10412D03*
X42926Y09388D03*
X43674Y09388D03*
G54D39*
X-29162Y45074D03*
X-29162Y44700D03*
X-29162Y44326D03*
X-28138Y44326D03*
X-28138Y44700D03*
X-28138Y45074D03*
X33812Y31626D03*
X33812Y32000D03*
X33812Y32374D03*
X32788Y32374D03*
X32788Y32000D03*
X32788Y31626D03*
X33812Y42626D03*
X33812Y43000D03*
X33812Y43374D03*
X32788Y43374D03*
X32788Y43000D03*
X32788Y42626D03*
X33812Y20626D03*
X33812Y21000D03*
X33812Y21374D03*
X32788Y21374D03*
X32788Y21000D03*
X32788Y20626D03*
X33812Y09626D03*
X33812Y10000D03*
X33812Y10374D03*
X32788Y10374D03*
X32788Y10000D03*
X32788Y09626D03*
G54D21*
X35056Y36174D03*
X34544Y36174D03*
X34800Y35426D03*
X31855Y36175D03*
X31343Y36175D03*
X31599Y35427D03*
X45256Y36174D03*
X44744Y36174D03*
X45000Y35426D03*
X47856Y36175D03*
X47344Y36175D03*
X47600Y35427D03*
G54D22*
X35426Y33756D03*
X35426Y33244D03*
X36174Y33500D03*
X42925Y33756D03*
X42925Y33244D03*
X43673Y33500D03*
G54D21*
X35056Y47174D03*
X34544Y47174D03*
X34800Y46426D03*
X31855Y47175D03*
X31343Y47175D03*
X31599Y46427D03*
X45256Y47174D03*
X44744Y47174D03*
X45000Y46426D03*
X47856Y47175D03*
X47344Y47175D03*
X47600Y46427D03*
G54D22*
X35426Y44756D03*
X35426Y44244D03*
X36174Y44500D03*
X42925Y44756D03*
X42925Y44244D03*
X43673Y44500D03*
G54D21*
X35056Y25174D03*
X34544Y25174D03*
X34800Y24426D03*
X31855Y25175D03*
X31343Y25175D03*
X31599Y24427D03*
X45256Y25174D03*
X44744Y25174D03*
X45000Y24426D03*
X47856Y25175D03*
X47344Y25175D03*
X47600Y24427D03*
G54D22*
X35426Y22756D03*
X35426Y22244D03*
X36174Y22500D03*
X42925Y22756D03*
X42925Y22244D03*
X43673Y22500D03*
G54D21*
X35056Y14174D03*
X34544Y14174D03*
X34800Y13426D03*
X31855Y14175D03*
X31343Y14175D03*
X31599Y13427D03*
X45256Y14174D03*
X44744Y14174D03*
X45000Y13426D03*
X47856Y14175D03*
X47344Y14175D03*
X47600Y13427D03*
G54D22*
X35426Y11756D03*
X35426Y11244D03*
X36174Y11500D03*
X42925Y11756D03*
X42925Y11244D03*
X43673Y11500D03*
G54D41*
X02202Y41120D03*
X02398Y41120D03*
X02595Y41120D03*
X02792Y41120D03*
X02989Y41120D03*
X02989Y43680D03*
X02792Y43679D03*
X02595Y43679D03*
X02398Y43679D03*
X02202Y43679D03*
X02005Y43679D03*
X01808Y43679D03*
X01611Y43679D03*
G54D42*
X03580Y41711D03*
X03580Y41908D03*
X03580Y42105D03*
X03580Y42302D03*
X03580Y42498D03*
X03580Y42695D03*
X03580Y42892D03*
X03580Y43089D03*
X01020Y43089D03*
X01020Y42892D03*
X01020Y42695D03*
X01020Y42498D03*
X01020Y42302D03*
X01020Y42105D03*
X01020Y41908D03*
X01020Y41711D03*
G54D41*
X01611Y41120D03*
X01808Y41120D03*
X02005Y41120D03*
G54D43*
X-17921Y22192D03*
X-17921Y21936D03*
X-17921Y21680D03*
X-17921Y21424D03*
X-15736Y21424D03*
X-15736Y21680D03*
X-15736Y21936D03*
X-15736Y22192D03*
X-15736Y22448D03*
X-15736Y22704D03*
X-15736Y22960D03*
X-17921Y22448D03*
X-17921Y22704D03*
X-17921Y22960D03*
G54D44*
X58501Y37293D03*
X58245Y37293D03*
X57989Y37293D03*
X57733Y37293D03*
X57733Y35108D03*
X57989Y35108D03*
X58245Y35108D03*
X58501Y35108D03*
X58757Y35108D03*
X59013Y35108D03*
X59269Y35108D03*
X58757Y37293D03*
X59013Y37293D03*
X59269Y37293D03*
X58501Y48293D03*
X58245Y48293D03*
X57989Y48293D03*
X57733Y48293D03*
X57733Y46108D03*
X57989Y46108D03*
X58245Y46108D03*
X58501Y46108D03*
X58757Y46108D03*
X59013Y46108D03*
X59269Y46108D03*
X58757Y48293D03*
X59013Y48293D03*
X59269Y48293D03*
X58501Y26293D03*
X58245Y26293D03*
X57989Y26293D03*
X57733Y26293D03*
X57733Y24108D03*
X57989Y24108D03*
X58245Y24108D03*
X58501Y24108D03*
X58757Y24108D03*
X59013Y24108D03*
X59269Y24108D03*
X58757Y26293D03*
X59013Y26293D03*
X59269Y26293D03*
X58501Y15293D03*
X58245Y15293D03*
X57989Y15293D03*
X57733Y15293D03*
X57733Y13108D03*
X57989Y13108D03*
X58245Y13108D03*
X58501Y13108D03*
X58757Y13108D03*
X59013Y13108D03*
X59269Y13108D03*
X58757Y15293D03*
X59013Y15293D03*
X59269Y15293D03*
G54D43*
X-06631Y44494D03*
X-06631Y44750D03*
X-06631Y45006D03*
X-06631Y45262D03*
X-06631Y45518D03*
X-08835Y45518D03*
X-08835Y45262D03*
X-08835Y45006D03*
X-08835Y44750D03*
X-08835Y44494D03*
X-08835Y44238D03*
X-08835Y43982D03*
X-08835Y43726D03*
X-06631Y44238D03*
X-06631Y43982D03*
X-06631Y43726D03*
G54D45*
X03030Y21852D03*
X03030Y21596D03*
X03030Y21340D03*
X03030Y21084D03*
X03030Y20828D03*
X03030Y20572D03*
X03030Y20316D03*
X03030Y20060D03*
X03030Y19804D03*
X03030Y19548D03*
X05368Y19548D03*
X05368Y19804D03*
X05368Y20060D03*
X05368Y20316D03*
X05368Y20572D03*
X05368Y20828D03*
X05368Y21084D03*
X05368Y21340D03*
X05368Y21596D03*
X05368Y21852D03*
X-15369Y39353D03*
X-15369Y39097D03*
X-15369Y38841D03*
X-15369Y38585D03*
X-15369Y38329D03*
X-15369Y38073D03*
X-15369Y37817D03*
X-15369Y37561D03*
X-15369Y37305D03*
X-15369Y37049D03*
X-13031Y37049D03*
X-13031Y37305D03*
X-13031Y37561D03*
X-13031Y37817D03*
X-13031Y38073D03*
X-13031Y38329D03*
X-13031Y38585D03*
X-13031Y38841D03*
X-13031Y39097D03*
X-13031Y39353D03*
X-15369Y36253D03*
X-15369Y35997D03*
X-15369Y35741D03*
X-15369Y35485D03*
X-15369Y35229D03*
X-15369Y34973D03*
X-15369Y34717D03*
X-15369Y34461D03*
X-15369Y34205D03*
X-15369Y33949D03*
X-13031Y33949D03*
X-13031Y34205D03*
X-13031Y34461D03*
X-13031Y34717D03*
X-13031Y34973D03*
X-13031Y35229D03*
X-13031Y35485D03*
X-13031Y35741D03*
X-13031Y35997D03*
X-13031Y36253D03*
X-15369Y42252D03*
X-15369Y41996D03*
X-15369Y41740D03*
X-15369Y41484D03*
X-15369Y41228D03*
X-15369Y40972D03*
X-15369Y40716D03*
X-15369Y40460D03*
X-15369Y40204D03*
X-15369Y39948D03*
X-13031Y39948D03*
X-13031Y40204D03*
X-13031Y40460D03*
X-13031Y40716D03*
X-13031Y40972D03*
X-13031Y41228D03*
X-13031Y41484D03*
X-13031Y41740D03*
X-13031Y41996D03*
X-13031Y42252D03*
X-08539Y40203D03*
X-08539Y39947D03*
X-08539Y39691D03*
X-08539Y39435D03*
X-08539Y39179D03*
X-08539Y38923D03*
X-08539Y38667D03*
X-08539Y38411D03*
X-08539Y38155D03*
X-08539Y37899D03*
X-06201Y37899D03*
X-06201Y38155D03*
X-06201Y38411D03*
X-06201Y38667D03*
X-06201Y38923D03*
X-06201Y39179D03*
X-06201Y39435D03*
X-06201Y39691D03*
X-06201Y39947D03*
X-06201Y40203D03*
X-08470Y43152D03*
X-08470Y42896D03*
X-08470Y42640D03*
X-08470Y42384D03*
X-08470Y42128D03*
X-08470Y41872D03*
X-08470Y41616D03*
X-08470Y41360D03*
X-08470Y41104D03*
X-08470Y40848D03*
X-06132Y40848D03*
X-06132Y41104D03*
X-06132Y41360D03*
X-06132Y41616D03*
X-06132Y41872D03*
X-06132Y42128D03*
X-06132Y42384D03*
X-06132Y42640D03*
X-06132Y42896D03*
X-06132Y43152D03*
G54D20*
X-05302Y21898D03*
X-05499Y21898D03*
X-05302Y21701D03*
X-05499Y21701D03*
G54D11*
X-05204Y19301D03*
X-05598Y19301D03*
X-05204Y18902D03*
X-05598Y18902D03*
X-29303Y38351D03*
X-29697Y38351D03*
X-31596Y32800D03*
X-31202Y32800D03*
G54D30*
X-30374Y32456D03*
X-30374Y32200D03*
X-30374Y31944D03*
X-29626Y31944D03*
X-29626Y32456D03*
G54D11*
X-31596Y25300D03*
X-31202Y25300D03*
G54D30*
X-30374Y24956D03*
X-30374Y24700D03*
X-30374Y24444D03*
X-29626Y24444D03*
X-29626Y24956D03*
G54D11*
X-31596Y17800D03*
X-31202Y17800D03*
G54D30*
X-30374Y17456D03*
X-30374Y17200D03*
X-30374Y16944D03*
X-29626Y16944D03*
X-29626Y17456D03*
G54D11*
X-31596Y10300D03*
X-31202Y10300D03*
G54D30*
X-30374Y09956D03*
X-30374Y09700D03*
X-30374Y09444D03*
X-29626Y09444D03*
X-29626Y09956D03*
G54D10*
X-19600Y28104D03*
X-19600Y28498D03*
G54D31*
X-13614Y23301D03*
X-14184Y23301D03*
X-14184Y24501D03*
X-13614Y24501D03*
G54D40*
X-08627Y26312D03*
X-09001Y26300D03*
X-09375Y26312D03*
X-09375Y25288D03*
X-08627Y25288D03*
G54D10*
X-09901Y25203D03*
X-09901Y25597D03*
X-08000Y25203D03*
X-08000Y25597D03*
G54D11*
X-10922Y27957D03*
X-10528Y27957D03*
G54D13*
X29400Y31105D03*
X29400Y31695D03*
G54D12*
X33295Y31100D03*
X32705Y31100D03*
G54D13*
X59599Y38695D03*
X59599Y38105D03*
G54D12*
X38905Y31400D03*
X39495Y31400D03*
G54D13*
X29400Y42105D03*
X29400Y42695D03*
G54D12*
X33295Y42100D03*
X32705Y42100D03*
G54D13*
X59599Y49695D03*
X59599Y49105D03*
G54D12*
X38905Y42400D03*
X39495Y42400D03*
G54D13*
X29400Y20105D03*
X29400Y20695D03*
G54D12*
X33295Y20100D03*
X32705Y20100D03*
G54D13*
X59599Y27695D03*
X59599Y27105D03*
G54D12*
X38905Y20400D03*
X39495Y20400D03*
G54D13*
X29400Y09105D03*
X29400Y09695D03*
G54D12*
X33295Y09100D03*
X32705Y09100D03*
G54D13*
X59599Y16695D03*
X59599Y16105D03*
G54D12*
X38905Y09400D03*
X39495Y09400D03*
G54D46*
X-01272Y23500D03*
X-00130Y23500D03*
G54D10*
X-26199Y37003D03*
X-26199Y37397D03*
G54D16*
X01400Y33300D03*
X01400Y32100D03*
X00000Y33301D03*
X00000Y32101D03*
G54D10*
X00300Y41103D03*
X00300Y41497D03*
G54D47*
X-26348Y44299D03*
X-26348Y44496D03*
X-26348Y44693D03*
X-26348Y44102D03*
X-26348Y43905D03*
X-24852Y44693D03*
X-24852Y44496D03*
X-24852Y44299D03*
X-24852Y44102D03*
X-24852Y43905D03*
G54D48*
X-25600Y45047D03*
X-25403Y45047D03*
X-25206Y45047D03*
X-25797Y45047D03*
X-25994Y45047D03*
X-25600Y43551D03*
X-25403Y43551D03*
X-25206Y43551D03*
X-25797Y43551D03*
X-25994Y43551D03*
G54D49*
X-31800Y45798D03*
X-31800Y45602D03*
X-31000Y45798D03*
X-31000Y45602D03*
X-31800Y45228D03*
X-31800Y45032D03*
X-31000Y45228D03*
X-31000Y45032D03*
X-31800Y44658D03*
X-31800Y44462D03*
X-31000Y44658D03*
X-31000Y44462D03*
X-31800Y44088D03*
X-31800Y43892D03*
X-31000Y44088D03*
X-31000Y43892D03*
X-31800Y43518D03*
X-31800Y43322D03*
X-31000Y43518D03*
X-31000Y43322D03*
X-31800Y42948D03*
X-31800Y42752D03*
X-31000Y42948D03*
X-31000Y42752D03*
X-31800Y42378D03*
X-31800Y42182D03*
X-31000Y42378D03*
X-31000Y42182D03*
X-31800Y41808D03*
X-31800Y41612D03*
X-31000Y41808D03*
X-31000Y41612D03*
X-31800Y41238D03*
X-31800Y41042D03*
X-31000Y41238D03*
X-31000Y41042D03*
X-31800Y40668D03*
X-31800Y40472D03*
X-31000Y40668D03*
X-31000Y40472D03*
X-31800Y40098D03*
X-31800Y39902D03*
X-31000Y40098D03*
X-31000Y39902D03*
X-31800Y39528D03*
X-31800Y39332D03*
X-31000Y39528D03*
X-31000Y39332D03*
X-31800Y38958D03*
X-31800Y38762D03*
X-31000Y38958D03*
X-31000Y38762D03*
X-31800Y38388D03*
X-31800Y38192D03*
X-31000Y38388D03*
X-31000Y38192D03*
X-31800Y37818D03*
X-31800Y37622D03*
X-31000Y37818D03*
X-31000Y37622D03*
X-31800Y37248D03*
X-31800Y37052D03*
X-31000Y37248D03*
X-31000Y37052D03*
G54D41*
X-28898Y39591D03*
X-29095Y39591D03*
X-29292Y39591D03*
X-29489Y39591D03*
X-29686Y39591D03*
X-27915Y39591D03*
X-28111Y39591D03*
X-28308Y39591D03*
X-28505Y39591D03*
X-28702Y39591D03*
X-29686Y40811D03*
X-29489Y40811D03*
X-29292Y40811D03*
X-29095Y40811D03*
X-28898Y40811D03*
X-28702Y40811D03*
X-28505Y40811D03*
X-28308Y40811D03*
X-28111Y40811D03*
X-27914Y40811D03*
G54D42*
X-29804Y40496D03*
X-29804Y39906D03*
X-27796Y39906D03*
X-27796Y40496D03*
G54D11*
X-25797Y37400D03*
X-25403Y37400D03*
G54D10*
X-22400Y38197D03*
X-22400Y37803D03*
X-13100Y42998D03*
X-13100Y42604D03*
G54D11*
X02097Y40700D03*
X01703Y40700D03*
G54D50*
X-18649Y29627D03*
X-18149Y29627D03*
X-17649Y29627D03*
X-17149Y29627D03*
X-16649Y29627D03*
X-16149Y29627D03*
X-15649Y29627D03*
X-15149Y29627D03*
X-15149Y33171D03*
X-15649Y33171D03*
X-16149Y33171D03*
X-16649Y33171D03*
X-17149Y33171D03*
X-17649Y33171D03*
X-18149Y33171D03*
X-18649Y33171D03*
X-10650Y33172D03*
X-11150Y33172D03*
X-11650Y33172D03*
X-12150Y33172D03*
X-12650Y33172D03*
X-13150Y33172D03*
X-13650Y33172D03*
X-14150Y33172D03*
X-14150Y29628D03*
X-13650Y29628D03*
X-13150Y29628D03*
X-12650Y29628D03*
X-12150Y29628D03*
X-11650Y29628D03*
X-11150Y29628D03*
X-10650Y29628D03*
G54D51*
X-24500Y05000D03*
X-16000Y50500D03*
X62000Y50500D03*
X62000Y05000D03*
X18000Y05000D03*
X06300Y26900D03*
M02*
