G04 (created by PCBNEW-RS274X (2010-03-14)-final) date Thu 07 Oct 2010 02:34:07 PM EDT*
G01*
G70*
G90*
%MOIN*%
G04 Gerber Fmt 3.4, Leading zero omitted, Abs format*
%FSLAX34Y34*%
G04 APERTURE LIST*
%ADD10C,0.001000*%
%ADD11C,0.005000*%
%ADD12C,0.015000*%
%ADD13C,0.008000*%
%ADD14C,0.003300*%
%ADD15C,0.003900*%
G04 APERTURE END LIST*
G54D10*
G54D11*
X28050Y12650D02*
X28100Y12700D01*
X27800Y13000D02*
X28000Y13000D01*
X28450Y12650D02*
X28500Y12700D01*
X28200Y13000D02*
X28400Y13000D01*
X28950Y13350D02*
X28900Y13300D01*
X29200Y13000D02*
X29000Y13000D01*
X26050Y13950D02*
X26100Y14000D01*
X25800Y14300D02*
X26000Y14300D01*
X23250Y13800D02*
X23300Y13850D01*
X23000Y14150D02*
X23200Y14150D01*
X15550Y14450D02*
X15500Y14400D01*
X15800Y14100D02*
X15600Y14100D01*
X14950Y14950D02*
X15000Y15000D01*
X14700Y15300D02*
X14900Y15300D01*
X23450Y22650D02*
X23500Y22700D01*
X23200Y23000D02*
X23400Y23000D01*
X21050Y22850D02*
X21000Y22800D01*
X21300Y22500D02*
X21100Y22500D01*
X23150Y21750D02*
X23200Y21800D01*
X22900Y22100D02*
X23100Y22100D01*
X24450Y22450D02*
X24400Y22400D01*
X24700Y22100D02*
X24500Y22100D01*
X-25450Y16450D02*
X-25400Y16400D01*
X-25100Y16700D02*
X-25100Y16500D01*
X-26350Y13650D02*
X-26300Y13600D01*
X-26000Y13900D02*
X-26000Y13700D01*
X-28050Y05950D02*
X-28100Y06000D01*
X-28400Y05700D02*
X-28400Y05900D01*
X-06150Y13650D02*
X-06100Y13600D01*
X-05800Y13900D02*
X-05800Y13700D01*
X-07050Y15550D02*
X-07100Y15500D01*
X-06800Y15200D02*
X-07000Y15200D01*
X-05450Y15750D02*
X-05500Y15800D01*
X-05800Y15500D02*
X-05800Y15700D01*
X06250Y13650D02*
X06300Y13600D01*
X06600Y13900D02*
X06600Y13700D01*
X06950Y13550D02*
X06900Y13600D01*
X06600Y13300D02*
X06600Y13500D01*
X07150Y12650D02*
X07200Y12600D01*
X07500Y12900D02*
X07500Y12700D01*
X08450Y16350D02*
X08400Y16400D01*
X08100Y16100D02*
X08100Y16300D01*
X06950Y14350D02*
X06900Y14400D01*
X06600Y14100D02*
X06600Y14300D01*
X06250Y14450D02*
X06300Y14400D01*
X06600Y14700D02*
X06600Y14500D01*
X-03450Y13750D02*
X-03400Y13700D01*
X-03100Y14000D02*
X-03100Y13800D01*
X-03450Y14350D02*
X-03400Y14300D01*
X-03100Y14600D02*
X-03100Y14400D01*
X-07050Y14550D02*
X-07100Y14500D01*
X-06800Y14200D02*
X-07000Y14200D01*
X00850Y15450D02*
X00800Y15400D01*
X01100Y15100D02*
X00900Y15100D01*
X02450Y14650D02*
X02400Y14700D01*
X02100Y14400D02*
X02100Y14600D01*
X01450Y15450D02*
X01400Y15400D01*
X01700Y15100D02*
X01500Y15100D01*
X02350Y13750D02*
X02300Y13800D01*
X02000Y13500D02*
X02000Y13700D01*
X01150Y12950D02*
X01100Y12900D01*
X01400Y12600D02*
X01200Y12600D01*
X-00050Y12950D02*
X-00100Y12900D01*
X00200Y12600D02*
X00000Y12600D01*
X-00250Y14050D02*
X-00200Y14000D01*
X00100Y14300D02*
X00100Y14100D01*
X-00250Y13450D02*
X-00200Y13400D01*
X00100Y13700D02*
X00100Y13500D01*
X02450Y14250D02*
X02400Y14300D01*
X02100Y14000D02*
X02100Y14200D01*
X01450Y13350D02*
X01500Y13400D01*
X01200Y13700D02*
X01400Y13700D01*
X00850Y13350D02*
X00900Y13400D01*
X00600Y13700D02*
X00800Y13700D01*
X21950Y22000D02*
X21900Y22000D01*
X21900Y22000D02*
X21850Y22050D01*
X21850Y22050D02*
X21850Y22100D01*
X22350Y22100D02*
X22350Y22050D01*
X22350Y22050D02*
X22300Y22000D01*
X22300Y22000D02*
X22250Y22000D01*
X22250Y22500D02*
X21950Y22500D01*
X00850Y13100D02*
X00900Y13100D01*
X00900Y13100D02*
X00950Y13050D01*
X00950Y13050D02*
X00950Y13000D01*
X00450Y13000D02*
X00450Y13050D01*
X00450Y13050D02*
X00500Y13100D01*
X00500Y13100D02*
X00550Y13100D01*
X00550Y12600D02*
X00850Y12600D01*
G54D12*
X22092Y23704D02*
X22288Y23704D01*
X21112Y24295D02*
X21112Y23704D01*
X22288Y24295D02*
X22288Y23704D01*
G54D13*
X30576Y13520D02*
X30380Y13520D01*
X30380Y13520D02*
X30380Y13324D01*
X27820Y13717D02*
X27820Y13520D01*
X27820Y13520D02*
X28017Y13520D01*
X28017Y16080D02*
X27820Y16080D01*
X27820Y16080D02*
X27820Y15883D01*
X30380Y15883D02*
X30380Y16080D01*
X30380Y16080D02*
X30183Y16080D01*
X30183Y13520D02*
X30380Y13520D01*
X30380Y13520D02*
X30380Y13717D01*
X25176Y23520D02*
X24980Y23520D01*
X24980Y23520D02*
X24980Y23324D01*
X22420Y23717D02*
X22420Y23520D01*
X22420Y23520D02*
X22617Y23520D01*
X22617Y26080D02*
X22420Y26080D01*
X22420Y26080D02*
X22420Y25883D01*
X24980Y25883D02*
X24980Y26080D01*
X24980Y26080D02*
X24783Y26080D01*
X24783Y23520D02*
X24980Y23520D01*
X24980Y23520D02*
X24980Y23717D01*
G54D11*
X20800Y26150D02*
X20800Y25450D01*
X20800Y25450D02*
X22000Y25450D01*
X22000Y25450D02*
X22000Y26150D01*
X22000Y26150D02*
X20800Y26150D01*
X26550Y13900D02*
X27250Y13900D01*
X27250Y13900D02*
X27250Y15100D01*
X27250Y15100D02*
X26550Y15100D01*
X26550Y15100D02*
X26550Y13900D01*
X26750Y15250D02*
X26800Y15200D01*
X27100Y15500D02*
X27100Y15300D01*
X28850Y12650D02*
X28900Y12700D01*
X28600Y13000D02*
X28800Y13000D01*
X28050Y16150D02*
X28100Y16100D01*
X28400Y16400D02*
X28400Y16200D01*
X27450Y15950D02*
X27400Y16000D01*
X27100Y15700D02*
X27100Y15900D01*
X24850Y12550D02*
X24900Y12600D01*
X24600Y12900D02*
X24800Y12900D01*
X26150Y17100D02*
X26200Y17150D01*
X25900Y17450D02*
X26100Y17450D01*
X25150Y17100D02*
X25200Y17050D01*
X25500Y17350D02*
X25500Y17150D01*
X25450Y17750D02*
X25400Y17800D01*
X25100Y17500D02*
X25100Y17700D01*
X24850Y17350D02*
X24800Y17400D01*
X24500Y17100D02*
X24500Y17300D01*
X24750Y16950D02*
X24700Y17000D01*
X24400Y16700D02*
X24400Y16900D01*
X25850Y18450D02*
X25800Y18400D01*
X26100Y18100D02*
X25900Y18100D01*
X26850Y18450D02*
X26800Y18500D01*
X26500Y18200D02*
X26500Y18400D01*
X26750Y16050D02*
X26800Y16000D01*
X27100Y16300D02*
X27100Y16100D01*
X24950Y15150D02*
X24900Y15100D01*
X25200Y14800D02*
X25000Y14800D01*
X24550Y15450D02*
X24500Y15400D01*
X24800Y15100D02*
X24600Y15100D01*
X22200Y13800D02*
X22250Y13850D01*
X21950Y14150D02*
X22150Y14150D01*
X22750Y13800D02*
X22800Y13850D01*
X22500Y14150D02*
X22700Y14150D01*
X22100Y15200D02*
X22100Y15250D01*
X22100Y15250D02*
X22150Y15300D01*
X22150Y15300D02*
X22200Y15300D01*
X22200Y14800D02*
X22150Y14800D01*
X22150Y14800D02*
X22100Y14850D01*
X22100Y14850D02*
X22100Y14900D01*
X22600Y14900D02*
X22600Y15200D01*
X22700Y16850D02*
X22700Y16900D01*
X22700Y16900D02*
X22750Y16950D01*
X22750Y16950D02*
X22800Y16950D01*
X22800Y16450D02*
X22750Y16450D01*
X22750Y16450D02*
X22700Y16500D01*
X22700Y16500D02*
X22700Y16550D01*
X23200Y16550D02*
X23200Y16850D01*
X21350Y16450D02*
X21300Y16500D01*
X21000Y16200D02*
X21000Y16400D01*
X22250Y16850D02*
X22200Y16900D01*
X21900Y16600D02*
X21900Y16800D01*
X24650Y15850D02*
X24700Y15900D01*
X24400Y16200D02*
X24600Y16200D01*
X26250Y17100D02*
X26300Y17050D01*
X26600Y17350D02*
X26600Y17150D01*
G54D12*
X25272Y18250D02*
X25022Y18000D01*
X25022Y18000D02*
X22522Y18000D01*
X22522Y18000D02*
X22272Y18250D01*
X25272Y19250D02*
X25022Y19500D01*
X25022Y19500D02*
X22522Y19500D01*
X22522Y19500D02*
X22272Y19250D01*
G54D11*
X21250Y12550D02*
X21200Y12600D01*
X20900Y12300D02*
X20900Y12500D01*
X21450Y12550D02*
X21500Y12500D01*
X21800Y12800D02*
X21800Y12600D01*
X20950Y14850D02*
X20900Y14900D01*
X20600Y14600D02*
X20600Y14800D01*
X24250Y27250D02*
X24200Y27200D01*
X24500Y26900D02*
X24300Y26900D01*
X23050Y27250D02*
X23000Y27300D01*
X22700Y27000D02*
X22700Y27200D01*
X21750Y22150D02*
X21800Y22200D01*
X21500Y22500D02*
X21700Y22500D01*
X22650Y22650D02*
X22700Y22700D01*
X22400Y23000D02*
X22600Y23000D01*
X23050Y22650D02*
X23100Y22700D01*
X22800Y23000D02*
X23000Y23000D01*
X23550Y23350D02*
X23500Y23300D01*
X23800Y23000D02*
X23600Y23000D01*
X22950Y26550D02*
X22900Y26600D01*
X22600Y26300D02*
X22600Y26500D01*
X21050Y23650D02*
X21100Y23700D01*
X20800Y24000D02*
X21000Y24000D01*
X-26951Y15420D02*
X-26901Y15370D01*
X-26601Y15670D02*
X-26601Y15470D01*
X-26951Y14420D02*
X-26901Y14370D01*
X-26601Y14670D02*
X-26601Y14470D01*
X-26951Y14920D02*
X-26901Y14870D01*
X-26601Y15170D02*
X-26601Y14970D01*
X-25651Y15570D02*
X-25601Y15570D01*
X-25601Y15570D02*
X-25551Y15520D01*
X-25551Y15520D02*
X-25551Y15470D01*
X-26051Y15470D02*
X-26051Y15520D01*
X-26051Y15520D02*
X-26001Y15570D01*
X-26001Y15570D02*
X-25951Y15570D01*
X-25951Y15070D02*
X-25651Y15070D01*
X-24350Y15100D02*
X-24300Y15100D01*
X-24300Y15100D02*
X-24250Y15050D01*
X-24250Y15050D02*
X-24250Y15000D01*
X-24750Y15000D02*
X-24750Y15050D01*
X-24750Y15050D02*
X-24700Y15100D01*
X-24700Y15100D02*
X-24650Y15100D01*
X-24650Y14600D02*
X-24350Y14600D01*
X-24050Y13150D02*
X-24100Y13200D01*
X-24400Y12900D02*
X-24400Y13100D01*
X-27450Y16450D02*
X-27400Y16400D01*
X-27100Y16700D02*
X-27100Y16500D01*
X-23950Y18250D02*
X-23900Y18200D01*
X-23600Y18500D02*
X-23600Y18300D01*
X-24850Y05950D02*
X-24900Y06000D01*
X-25200Y05700D02*
X-25200Y05900D01*
X00250Y15450D02*
X00200Y15400D01*
X00500Y15100D02*
X00300Y15100D01*
X-00350Y14520D02*
X-00300Y14470D01*
X00000Y14770D02*
X00000Y14570D01*
X00850Y15650D02*
X00900Y15700D01*
X00600Y16000D02*
X00800Y16000D01*
X01150Y15600D02*
X01100Y15600D01*
X01100Y15600D02*
X01050Y15650D01*
X01050Y15650D02*
X01050Y15700D01*
X01550Y15700D02*
X01550Y15650D01*
X01550Y15650D02*
X01500Y15600D01*
X01500Y15600D02*
X01450Y15600D01*
X01450Y16100D02*
X01150Y16100D01*
X03650Y08950D02*
X03600Y09000D01*
X03300Y08700D02*
X03300Y08900D01*
X-00250Y06950D02*
X-00300Y07000D01*
X-00600Y06700D02*
X-00600Y06900D01*
X02950Y06850D02*
X02900Y06900D01*
X02600Y06600D02*
X02600Y06800D01*
X22250Y25350D02*
X22200Y25400D01*
X21900Y25100D02*
X21900Y25300D01*
X-31450Y13450D02*
X-31500Y13500D01*
X-31800Y13200D02*
X-31800Y13400D01*
G54D12*
X-24359Y29749D02*
X-26759Y29749D01*
X-26759Y29749D02*
X-26759Y22949D01*
X-26759Y22949D02*
X-21759Y22949D01*
X-21759Y22949D02*
X-21759Y29749D01*
X-21759Y29749D02*
X-24359Y29749D01*
X-06159Y29749D02*
X-08559Y29749D01*
X-08559Y29749D02*
X-08559Y22949D01*
X-08559Y22949D02*
X-03559Y22949D01*
X-03559Y22949D02*
X-03559Y29749D01*
X-03559Y29749D02*
X-06159Y29749D01*
G54D13*
X26891Y13933D02*
X25709Y13933D01*
X26891Y11867D02*
X25709Y11867D01*
G54D11*
X06250Y12850D02*
X06300Y12800D01*
X06600Y13100D02*
X06600Y12900D01*
X-32450Y07550D02*
X-32500Y07500D01*
X-32200Y07200D02*
X-32400Y07200D01*
X-32450Y19450D02*
X-32500Y19400D01*
X-32200Y19100D02*
X-32400Y19100D01*
X-32150Y06150D02*
X-32100Y06200D01*
X-32400Y06500D02*
X-32200Y06500D01*
X-32150Y18050D02*
X-32100Y18100D01*
X-32400Y18400D02*
X-32200Y18400D01*
X-24350Y14050D02*
X-24400Y14100D01*
X-24700Y13800D02*
X-24700Y14000D01*
X-27850Y15250D02*
X-27800Y15300D01*
X-28100Y15600D02*
X-27900Y15600D01*
X-27550Y14750D02*
X-27600Y14800D01*
X-27900Y14500D02*
X-27900Y14700D01*
X08950Y05550D02*
X08900Y05500D01*
X09200Y05200D02*
X09000Y05200D01*
G54D14*
X25422Y14440D02*
X25422Y14317D01*
X25498Y14383D01*
X25498Y14355D01*
X25508Y14336D01*
X25517Y14326D01*
X25536Y14317D01*
X25584Y14317D01*
X25603Y14326D01*
X25612Y14336D01*
X25622Y14355D01*
X25622Y14412D01*
X25612Y14431D01*
X25603Y14440D01*
X25422Y14250D02*
X25422Y14127D01*
X25498Y14193D01*
X25498Y14165D01*
X25508Y14146D01*
X25517Y14136D01*
X25536Y14127D01*
X25584Y14127D01*
X25603Y14136D01*
X25612Y14146D01*
X25622Y14165D01*
X25622Y14222D01*
X25612Y14241D01*
X25603Y14250D01*
X23183Y13583D02*
X23183Y13697D01*
X23183Y13640D02*
X22983Y13640D01*
X23012Y13659D01*
X23031Y13678D01*
X23040Y13697D01*
X23050Y13412D02*
X23183Y13412D01*
X23050Y13497D02*
X23154Y13497D01*
X23173Y13488D01*
X23183Y13469D01*
X23183Y13440D01*
X23173Y13421D01*
X23164Y13412D01*
X23050Y13345D02*
X23050Y13269D01*
X23183Y13316D02*
X23012Y13316D01*
X22992Y13307D01*
X22983Y13288D01*
X22983Y13269D01*
X15369Y14194D02*
X15378Y14204D01*
X15388Y14232D01*
X15388Y14251D01*
X15378Y14280D01*
X15359Y14299D01*
X15340Y14308D01*
X15302Y14318D01*
X15274Y14318D01*
X15236Y14308D01*
X15217Y14299D01*
X15197Y14280D01*
X15188Y14251D01*
X15188Y14232D01*
X15197Y14204D01*
X15207Y14194D01*
X15274Y14080D02*
X15264Y14099D01*
X15255Y14108D01*
X15236Y14118D01*
X15226Y14118D01*
X15207Y14108D01*
X15197Y14099D01*
X15188Y14080D01*
X15188Y14042D01*
X15197Y14023D01*
X15207Y14013D01*
X15226Y14004D01*
X15236Y14004D01*
X15255Y14013D01*
X15264Y14023D01*
X15274Y14042D01*
X15274Y14080D01*
X15283Y14099D01*
X15293Y14108D01*
X15312Y14118D01*
X15350Y14118D01*
X15369Y14108D01*
X15378Y14099D01*
X15388Y14080D01*
X15388Y14042D01*
X15378Y14023D01*
X15369Y14013D01*
X15350Y14004D01*
X15312Y14004D01*
X15293Y14013D01*
X15283Y14023D01*
X15274Y14042D01*
X15255Y13833D02*
X15388Y13833D01*
X15178Y13880D02*
X15321Y13928D01*
X15321Y13804D01*
X15901Y14449D02*
X15901Y14430D01*
X15910Y14411D01*
X15920Y14402D01*
X15939Y14392D01*
X15977Y14383D01*
X16025Y14383D01*
X16063Y14392D01*
X16082Y14402D01*
X16091Y14411D01*
X16101Y14430D01*
X16101Y14449D01*
X16091Y14468D01*
X16082Y14478D01*
X16063Y14487D01*
X16025Y14497D01*
X15977Y14497D01*
X15939Y14487D01*
X15920Y14478D01*
X15910Y14468D01*
X15901Y14449D01*
X16082Y14297D02*
X16091Y14288D01*
X16101Y14297D01*
X16091Y14307D01*
X16082Y14297D01*
X16101Y14297D01*
X16101Y14098D02*
X16101Y14212D01*
X16101Y14155D02*
X15901Y14155D01*
X15930Y14174D01*
X15949Y14193D01*
X15958Y14212D01*
X15968Y13927D02*
X16101Y13927D01*
X15968Y14012D02*
X16072Y14012D01*
X16091Y14003D01*
X16101Y13984D01*
X16101Y13955D01*
X16091Y13936D01*
X16082Y13927D01*
X15968Y13860D02*
X15968Y13784D01*
X16101Y13831D02*
X15930Y13831D01*
X15910Y13822D01*
X15901Y13803D01*
X15901Y13784D01*
X15207Y15450D02*
X15216Y15460D01*
X15226Y15488D01*
X15226Y15507D01*
X15216Y15536D01*
X15197Y15555D01*
X15178Y15564D01*
X15140Y15574D01*
X15112Y15574D01*
X15074Y15564D01*
X15055Y15555D01*
X15035Y15536D01*
X15026Y15507D01*
X15026Y15488D01*
X15035Y15460D01*
X15045Y15450D01*
X15026Y15269D02*
X15026Y15364D01*
X15121Y15374D01*
X15112Y15364D01*
X15102Y15345D01*
X15102Y15298D01*
X15112Y15279D01*
X15121Y15269D01*
X15140Y15260D01*
X15188Y15260D01*
X15207Y15269D01*
X15216Y15279D01*
X15226Y15298D01*
X15226Y15345D01*
X15216Y15364D01*
X15207Y15374D01*
X15026Y15089D02*
X15026Y15127D01*
X15035Y15146D01*
X15045Y15155D01*
X15074Y15174D01*
X15112Y15184D01*
X15188Y15184D01*
X15207Y15174D01*
X15216Y15165D01*
X15226Y15146D01*
X15226Y15108D01*
X15216Y15089D01*
X15207Y15079D01*
X15188Y15070D01*
X15140Y15070D01*
X15121Y15079D01*
X15112Y15089D01*
X15102Y15108D01*
X15102Y15146D01*
X15112Y15165D01*
X15121Y15174D01*
X15140Y15184D01*
X14361Y15561D02*
X14361Y15542D01*
X14370Y15523D01*
X14380Y15514D01*
X14399Y15504D01*
X14437Y15495D01*
X14485Y15495D01*
X14523Y15504D01*
X14542Y15514D01*
X14551Y15523D01*
X14561Y15542D01*
X14561Y15561D01*
X14551Y15580D01*
X14542Y15590D01*
X14523Y15599D01*
X14485Y15609D01*
X14437Y15609D01*
X14399Y15599D01*
X14380Y15590D01*
X14370Y15580D01*
X14361Y15561D01*
X14542Y15409D02*
X14551Y15400D01*
X14561Y15409D01*
X14551Y15419D01*
X14542Y15409D01*
X14561Y15409D01*
X14561Y15210D02*
X14561Y15324D01*
X14561Y15267D02*
X14361Y15267D01*
X14390Y15286D01*
X14409Y15305D01*
X14418Y15324D01*
X14428Y15039D02*
X14561Y15039D01*
X14428Y15124D02*
X14532Y15124D01*
X14551Y15115D01*
X14561Y15096D01*
X14561Y15067D01*
X14551Y15048D01*
X14542Y15039D01*
X14428Y14972D02*
X14428Y14896D01*
X14561Y14943D02*
X14390Y14943D01*
X14370Y14934D01*
X14361Y14915D01*
X14361Y14896D01*
X20895Y22527D02*
X20904Y22537D01*
X20914Y22565D01*
X20914Y22584D01*
X20904Y22613D01*
X20885Y22632D01*
X20866Y22641D01*
X20828Y22651D01*
X20800Y22651D01*
X20762Y22641D01*
X20743Y22632D01*
X20723Y22613D01*
X20714Y22584D01*
X20714Y22565D01*
X20723Y22537D01*
X20733Y22527D01*
X20914Y22432D02*
X20914Y22394D01*
X20904Y22375D01*
X20895Y22365D01*
X20866Y22346D01*
X20828Y22337D01*
X20752Y22337D01*
X20733Y22346D01*
X20723Y22356D01*
X20714Y22375D01*
X20714Y22413D01*
X20723Y22432D01*
X20733Y22441D01*
X20752Y22451D01*
X20800Y22451D01*
X20819Y22441D01*
X20828Y22432D01*
X20838Y22413D01*
X20838Y22375D01*
X20828Y22356D01*
X20819Y22346D01*
X20800Y22337D01*
X20714Y22270D02*
X20714Y22147D01*
X20790Y22213D01*
X20790Y22185D01*
X20800Y22166D01*
X20809Y22156D01*
X20828Y22147D01*
X20876Y22147D01*
X20895Y22156D01*
X20904Y22166D01*
X20914Y22185D01*
X20914Y22242D01*
X20904Y22261D01*
X20895Y22270D01*
X24901Y22857D02*
X24891Y22847D01*
X24882Y22828D01*
X24882Y22781D01*
X24891Y22762D01*
X24901Y22752D01*
X24920Y22743D01*
X24939Y22743D01*
X24968Y22752D01*
X25082Y22866D01*
X25082Y22743D01*
X25063Y22657D02*
X25072Y22648D01*
X25082Y22657D01*
X25072Y22667D01*
X25063Y22657D01*
X25082Y22657D01*
X24901Y22572D02*
X24891Y22562D01*
X24882Y22543D01*
X24882Y22496D01*
X24891Y22477D01*
X24901Y22467D01*
X24920Y22458D01*
X24939Y22458D01*
X24968Y22467D01*
X25082Y22581D01*
X25082Y22458D01*
X24949Y22287D02*
X25082Y22287D01*
X24949Y22372D02*
X25053Y22372D01*
X25072Y22363D01*
X25082Y22344D01*
X25082Y22315D01*
X25072Y22296D01*
X25063Y22287D01*
X24949Y22220D02*
X24949Y22144D01*
X25082Y22191D02*
X24911Y22191D01*
X24891Y22182D01*
X24882Y22163D01*
X24882Y22144D01*
X-24927Y16154D02*
X-24917Y16145D01*
X-24889Y16135D01*
X-24870Y16135D01*
X-24841Y16145D01*
X-24822Y16164D01*
X-24813Y16183D01*
X-24803Y16221D01*
X-24803Y16249D01*
X-24813Y16287D01*
X-24822Y16306D01*
X-24841Y16326D01*
X-24870Y16335D01*
X-24889Y16335D01*
X-24917Y16326D01*
X-24927Y16316D01*
X-25117Y16135D02*
X-25003Y16135D01*
X-25060Y16135D02*
X-25060Y16335D01*
X-25041Y16306D01*
X-25022Y16287D01*
X-25003Y16278D01*
X-25184Y16335D02*
X-25307Y16335D01*
X-25241Y16259D01*
X-25269Y16259D01*
X-25288Y16249D01*
X-25298Y16240D01*
X-25307Y16221D01*
X-25307Y16173D01*
X-25298Y16154D01*
X-25288Y16145D01*
X-25269Y16135D01*
X-25212Y16135D01*
X-25193Y16145D01*
X-25184Y16154D01*
X-25497Y16135D02*
X-25383Y16135D01*
X-25440Y16135D02*
X-25440Y16335D01*
X-25421Y16306D01*
X-25402Y16287D01*
X-25383Y16278D01*
X-24834Y17103D02*
X-24853Y17103D01*
X-24872Y17094D01*
X-24881Y17084D01*
X-24891Y17065D01*
X-24900Y17027D01*
X-24900Y16979D01*
X-24891Y16941D01*
X-24881Y16922D01*
X-24872Y16913D01*
X-24853Y16903D01*
X-24834Y16903D01*
X-24815Y16913D01*
X-24805Y16922D01*
X-24796Y16941D01*
X-24786Y16979D01*
X-24786Y17027D01*
X-24796Y17065D01*
X-24805Y17084D01*
X-24815Y17094D01*
X-24834Y17103D01*
X-24986Y16922D02*
X-24995Y16913D01*
X-24986Y16903D01*
X-24976Y16913D01*
X-24986Y16922D01*
X-24986Y16903D01*
X-25185Y16903D02*
X-25071Y16903D01*
X-25128Y16903D02*
X-25128Y17103D01*
X-25109Y17074D01*
X-25090Y17055D01*
X-25071Y17046D01*
X-25356Y17036D02*
X-25356Y16903D01*
X-25271Y17036D02*
X-25271Y16932D01*
X-25280Y16913D01*
X-25299Y16903D01*
X-25328Y16903D01*
X-25347Y16913D01*
X-25356Y16922D01*
X-25423Y17036D02*
X-25499Y17036D01*
X-25452Y16903D02*
X-25452Y17074D01*
X-25461Y17094D01*
X-25480Y17103D01*
X-25499Y17103D01*
X-25835Y13346D02*
X-25825Y13337D01*
X-25797Y13327D01*
X-25778Y13327D01*
X-25749Y13337D01*
X-25730Y13356D01*
X-25721Y13375D01*
X-25711Y13413D01*
X-25711Y13441D01*
X-25721Y13479D01*
X-25730Y13498D01*
X-25749Y13518D01*
X-25778Y13527D01*
X-25797Y13527D01*
X-25825Y13518D01*
X-25835Y13508D01*
X-26025Y13327D02*
X-25911Y13327D01*
X-25968Y13327D02*
X-25968Y13527D01*
X-25949Y13498D01*
X-25930Y13479D01*
X-25911Y13470D01*
X-26092Y13527D02*
X-26215Y13527D01*
X-26149Y13451D01*
X-26177Y13451D01*
X-26196Y13441D01*
X-26206Y13432D01*
X-26215Y13413D01*
X-26215Y13365D01*
X-26206Y13346D01*
X-26196Y13337D01*
X-26177Y13327D01*
X-26120Y13327D01*
X-26101Y13337D01*
X-26092Y13346D01*
X-26386Y13460D02*
X-26386Y13327D01*
X-26339Y13537D02*
X-26291Y13394D01*
X-26415Y13394D01*
X-25701Y14219D02*
X-25720Y14219D01*
X-25739Y14210D01*
X-25748Y14200D01*
X-25758Y14181D01*
X-25767Y14143D01*
X-25767Y14095D01*
X-25758Y14057D01*
X-25748Y14038D01*
X-25739Y14029D01*
X-25720Y14019D01*
X-25701Y14019D01*
X-25682Y14029D01*
X-25672Y14038D01*
X-25663Y14057D01*
X-25653Y14095D01*
X-25653Y14143D01*
X-25663Y14181D01*
X-25672Y14200D01*
X-25682Y14210D01*
X-25701Y14219D01*
X-25853Y14038D02*
X-25862Y14029D01*
X-25853Y14019D01*
X-25843Y14029D01*
X-25853Y14038D01*
X-25853Y14019D01*
X-26052Y14019D02*
X-25938Y14019D01*
X-25995Y14019D02*
X-25995Y14219D01*
X-25976Y14190D01*
X-25957Y14171D01*
X-25938Y14162D01*
X-26223Y14152D02*
X-26223Y14019D01*
X-26138Y14152D02*
X-26138Y14048D01*
X-26147Y14029D01*
X-26166Y14019D01*
X-26195Y14019D01*
X-26214Y14029D01*
X-26223Y14038D01*
X-26290Y14152D02*
X-26366Y14152D01*
X-26319Y14019D02*
X-26319Y14190D01*
X-26328Y14210D01*
X-26347Y14219D01*
X-26366Y14219D01*
X-28144Y06129D02*
X-28134Y06120D01*
X-28106Y06110D01*
X-28087Y06110D01*
X-28058Y06120D01*
X-28039Y06139D01*
X-28030Y06158D01*
X-28020Y06196D01*
X-28020Y06224D01*
X-28030Y06262D01*
X-28039Y06281D01*
X-28058Y06301D01*
X-28087Y06310D01*
X-28106Y06310D01*
X-28134Y06301D01*
X-28144Y06291D01*
X-28334Y06110D02*
X-28220Y06110D01*
X-28277Y06110D02*
X-28277Y06310D01*
X-28258Y06281D01*
X-28239Y06262D01*
X-28220Y06253D01*
X-28515Y06310D02*
X-28420Y06310D01*
X-28410Y06215D01*
X-28420Y06224D01*
X-28439Y06234D01*
X-28486Y06234D01*
X-28505Y06224D01*
X-28515Y06215D01*
X-28524Y06196D01*
X-28524Y06148D01*
X-28515Y06129D01*
X-28505Y06120D01*
X-28486Y06110D01*
X-28439Y06110D01*
X-28420Y06120D01*
X-28410Y06129D01*
X-28648Y06310D02*
X-28667Y06310D01*
X-28686Y06301D01*
X-28695Y06291D01*
X-28705Y06272D01*
X-28714Y06234D01*
X-28714Y06186D01*
X-28705Y06148D01*
X-28695Y06129D01*
X-28686Y06120D01*
X-28667Y06110D01*
X-28648Y06110D01*
X-28629Y06120D01*
X-28619Y06129D01*
X-28610Y06148D01*
X-28600Y06186D01*
X-28600Y06234D01*
X-28610Y06272D01*
X-28619Y06291D01*
X-28629Y06301D01*
X-28648Y06310D01*
X-28086Y05580D02*
X-28105Y05580D01*
X-28124Y05571D01*
X-28133Y05561D01*
X-28143Y05542D01*
X-28152Y05504D01*
X-28152Y05456D01*
X-28143Y05418D01*
X-28133Y05399D01*
X-28124Y05390D01*
X-28105Y05380D01*
X-28086Y05380D01*
X-28067Y05390D01*
X-28057Y05399D01*
X-28048Y05418D01*
X-28038Y05456D01*
X-28038Y05504D01*
X-28048Y05542D01*
X-28057Y05561D01*
X-28067Y05571D01*
X-28086Y05580D01*
X-28238Y05399D02*
X-28247Y05390D01*
X-28238Y05380D01*
X-28228Y05390D01*
X-28238Y05399D01*
X-28238Y05380D01*
X-28437Y05380D02*
X-28323Y05380D01*
X-28380Y05380D02*
X-28380Y05580D01*
X-28361Y05551D01*
X-28342Y05532D01*
X-28323Y05523D01*
X-28608Y05513D02*
X-28608Y05380D01*
X-28523Y05513D02*
X-28523Y05409D01*
X-28532Y05390D01*
X-28551Y05380D01*
X-28580Y05380D01*
X-28599Y05390D01*
X-28608Y05399D01*
X-28675Y05513D02*
X-28751Y05513D01*
X-28704Y05380D02*
X-28704Y05551D01*
X-28713Y05571D01*
X-28732Y05580D01*
X-28751Y05580D01*
X-05739Y13399D02*
X-05729Y13390D01*
X-05701Y13380D01*
X-05682Y13380D01*
X-05653Y13390D01*
X-05634Y13409D01*
X-05625Y13428D01*
X-05615Y13466D01*
X-05615Y13494D01*
X-05625Y13532D01*
X-05634Y13551D01*
X-05653Y13571D01*
X-05682Y13580D01*
X-05701Y13580D01*
X-05729Y13571D01*
X-05739Y13561D01*
X-05806Y13580D02*
X-05929Y13580D01*
X-05863Y13504D01*
X-05891Y13504D01*
X-05910Y13494D01*
X-05920Y13485D01*
X-05929Y13466D01*
X-05929Y13418D01*
X-05920Y13399D01*
X-05910Y13390D01*
X-05891Y13380D01*
X-05834Y13380D01*
X-05815Y13390D01*
X-05806Y13399D01*
X-06053Y13580D02*
X-06072Y13580D01*
X-06091Y13571D01*
X-06100Y13561D01*
X-06110Y13542D01*
X-06119Y13504D01*
X-06119Y13456D01*
X-06110Y13418D01*
X-06100Y13399D01*
X-06091Y13390D01*
X-06072Y13380D01*
X-06053Y13380D01*
X-06034Y13390D01*
X-06024Y13399D01*
X-06015Y13418D01*
X-06005Y13456D01*
X-06005Y13504D01*
X-06015Y13542D01*
X-06024Y13561D01*
X-06034Y13571D01*
X-06053Y13580D01*
X-05673Y14144D02*
X-05559Y14144D01*
X-05616Y14144D02*
X-05616Y14344D01*
X-05597Y14315D01*
X-05578Y14296D01*
X-05559Y14287D01*
X-05844Y14277D02*
X-05844Y14144D01*
X-05759Y14277D02*
X-05759Y14173D01*
X-05768Y14154D01*
X-05787Y14144D01*
X-05816Y14144D01*
X-05835Y14154D01*
X-05844Y14163D01*
X-05911Y14277D02*
X-05987Y14277D01*
X-05940Y14144D02*
X-05940Y14315D01*
X-05949Y14335D01*
X-05968Y14344D01*
X-05987Y14344D01*
X-07194Y15361D02*
X-07185Y15371D01*
X-07175Y15399D01*
X-07175Y15418D01*
X-07185Y15447D01*
X-07204Y15466D01*
X-07223Y15475D01*
X-07261Y15485D01*
X-07289Y15485D01*
X-07327Y15475D01*
X-07346Y15466D01*
X-07366Y15447D01*
X-07375Y15418D01*
X-07375Y15399D01*
X-07366Y15371D01*
X-07356Y15361D01*
X-07375Y15294D02*
X-07375Y15171D01*
X-07299Y15237D01*
X-07299Y15209D01*
X-07289Y15190D01*
X-07280Y15180D01*
X-07261Y15171D01*
X-07213Y15171D01*
X-07194Y15180D01*
X-07185Y15190D01*
X-07175Y15209D01*
X-07175Y15266D01*
X-07185Y15285D01*
X-07194Y15294D01*
X-07308Y15000D02*
X-07175Y15000D01*
X-07385Y15047D02*
X-07242Y15095D01*
X-07242Y14971D01*
X-06680Y15653D02*
X-06680Y15634D01*
X-06671Y15615D01*
X-06661Y15606D01*
X-06642Y15596D01*
X-06604Y15587D01*
X-06556Y15587D01*
X-06518Y15596D01*
X-06499Y15606D01*
X-06490Y15615D01*
X-06480Y15634D01*
X-06480Y15653D01*
X-06490Y15672D01*
X-06499Y15682D01*
X-06518Y15691D01*
X-06556Y15701D01*
X-06604Y15701D01*
X-06642Y15691D01*
X-06661Y15682D01*
X-06671Y15672D01*
X-06680Y15653D01*
X-06499Y15501D02*
X-06490Y15492D01*
X-06480Y15501D01*
X-06490Y15511D01*
X-06499Y15501D01*
X-06480Y15501D01*
X-06480Y15302D02*
X-06480Y15416D01*
X-06480Y15359D02*
X-06680Y15359D01*
X-06651Y15378D01*
X-06632Y15397D01*
X-06623Y15416D01*
X-06613Y15131D02*
X-06480Y15131D01*
X-06613Y15216D02*
X-06509Y15216D01*
X-06490Y15207D01*
X-06480Y15188D01*
X-06480Y15159D01*
X-06490Y15140D01*
X-06499Y15131D01*
X-06613Y15064D02*
X-06613Y14988D01*
X-06480Y15035D02*
X-06651Y15035D01*
X-06671Y15026D01*
X-06680Y15007D01*
X-06680Y14988D01*
X-05587Y15911D02*
X-05577Y15902D01*
X-05549Y15892D01*
X-05530Y15892D01*
X-05501Y15902D01*
X-05482Y15921D01*
X-05473Y15940D01*
X-05463Y15978D01*
X-05463Y16006D01*
X-05473Y16044D01*
X-05482Y16063D01*
X-05501Y16083D01*
X-05530Y16092D01*
X-05549Y16092D01*
X-05577Y16083D01*
X-05587Y16073D01*
X-05654Y16092D02*
X-05777Y16092D01*
X-05711Y16016D01*
X-05739Y16016D01*
X-05758Y16006D01*
X-05768Y15997D01*
X-05777Y15978D01*
X-05777Y15930D01*
X-05768Y15911D01*
X-05758Y15902D01*
X-05739Y15892D01*
X-05682Y15892D01*
X-05663Y15902D01*
X-05654Y15911D01*
X-05958Y16092D02*
X-05863Y16092D01*
X-05853Y15997D01*
X-05863Y16006D01*
X-05882Y16016D01*
X-05929Y16016D01*
X-05948Y16006D01*
X-05958Y15997D01*
X-05967Y15978D01*
X-05967Y15930D01*
X-05958Y15911D01*
X-05948Y15902D01*
X-05929Y15892D01*
X-05882Y15892D01*
X-05863Y15902D01*
X-05853Y15911D01*
X-05330Y15328D02*
X-05349Y15328D01*
X-05368Y15319D01*
X-05377Y15309D01*
X-05387Y15290D01*
X-05396Y15252D01*
X-05396Y15204D01*
X-05387Y15166D01*
X-05377Y15147D01*
X-05368Y15138D01*
X-05349Y15128D01*
X-05330Y15128D01*
X-05311Y15138D01*
X-05301Y15147D01*
X-05292Y15166D01*
X-05282Y15204D01*
X-05282Y15252D01*
X-05292Y15290D01*
X-05301Y15309D01*
X-05311Y15319D01*
X-05330Y15328D01*
X-05482Y15147D02*
X-05491Y15138D01*
X-05482Y15128D01*
X-05472Y15138D01*
X-05482Y15147D01*
X-05482Y15128D01*
X-05681Y15128D02*
X-05567Y15128D01*
X-05624Y15128D02*
X-05624Y15328D01*
X-05605Y15299D01*
X-05586Y15280D01*
X-05567Y15271D01*
X-05852Y15261D02*
X-05852Y15128D01*
X-05767Y15261D02*
X-05767Y15157D01*
X-05776Y15138D01*
X-05795Y15128D01*
X-05824Y15128D01*
X-05843Y15138D01*
X-05852Y15147D01*
X-05919Y15261D02*
X-05995Y15261D01*
X-05948Y15128D02*
X-05948Y15299D01*
X-05957Y15319D01*
X-05976Y15328D01*
X-05995Y15328D01*
X05848Y13683D02*
X05858Y13674D01*
X05886Y13664D01*
X05905Y13664D01*
X05934Y13674D01*
X05953Y13693D01*
X05962Y13712D01*
X05972Y13750D01*
X05972Y13778D01*
X05962Y13816D01*
X05953Y13835D01*
X05934Y13855D01*
X05905Y13864D01*
X05886Y13864D01*
X05858Y13855D01*
X05848Y13845D01*
X05753Y13664D02*
X05715Y13664D01*
X05696Y13674D01*
X05686Y13683D01*
X05667Y13712D01*
X05658Y13750D01*
X05658Y13826D01*
X05667Y13845D01*
X05677Y13855D01*
X05696Y13864D01*
X05734Y13864D01*
X05753Y13855D01*
X05762Y13845D01*
X05772Y13826D01*
X05772Y13778D01*
X05762Y13759D01*
X05753Y13750D01*
X05734Y13740D01*
X05696Y13740D01*
X05677Y13750D01*
X05667Y13759D01*
X05658Y13778D01*
X07897Y14348D02*
X07878Y14348D01*
X07859Y14339D01*
X07850Y14329D01*
X07840Y14310D01*
X07831Y14272D01*
X07831Y14224D01*
X07840Y14186D01*
X07850Y14167D01*
X07859Y14158D01*
X07878Y14148D01*
X07897Y14148D01*
X07916Y14158D01*
X07926Y14167D01*
X07935Y14186D01*
X07945Y14224D01*
X07945Y14272D01*
X07935Y14310D01*
X07926Y14329D01*
X07916Y14339D01*
X07897Y14348D01*
X07745Y14167D02*
X07736Y14158D01*
X07745Y14148D01*
X07755Y14158D01*
X07745Y14167D01*
X07745Y14148D01*
X07546Y14148D02*
X07660Y14148D01*
X07603Y14148D02*
X07603Y14348D01*
X07622Y14319D01*
X07641Y14300D01*
X07660Y14291D01*
X07375Y14281D02*
X07375Y14148D01*
X07460Y14281D02*
X07460Y14177D01*
X07451Y14158D01*
X07432Y14148D01*
X07403Y14148D01*
X07384Y14158D01*
X07375Y14167D01*
X07308Y14281D02*
X07232Y14281D01*
X07279Y14148D02*
X07279Y14319D01*
X07270Y14339D01*
X07251Y14348D01*
X07232Y14348D01*
X05780Y13345D02*
X05790Y13336D01*
X05818Y13326D01*
X05837Y13326D01*
X05866Y13336D01*
X05885Y13355D01*
X05894Y13374D01*
X05904Y13412D01*
X05904Y13440D01*
X05894Y13478D01*
X05885Y13497D01*
X05866Y13517D01*
X05837Y13526D01*
X05818Y13526D01*
X05790Y13517D01*
X05780Y13507D01*
X05713Y13526D02*
X05580Y13526D01*
X05666Y13326D01*
X07901Y13500D02*
X07882Y13500D01*
X07863Y13491D01*
X07854Y13481D01*
X07844Y13462D01*
X07835Y13424D01*
X07835Y13376D01*
X07844Y13338D01*
X07854Y13319D01*
X07863Y13310D01*
X07882Y13300D01*
X07901Y13300D01*
X07920Y13310D01*
X07930Y13319D01*
X07939Y13338D01*
X07949Y13376D01*
X07949Y13424D01*
X07939Y13462D01*
X07930Y13481D01*
X07920Y13491D01*
X07901Y13500D01*
X07749Y13319D02*
X07740Y13310D01*
X07749Y13300D01*
X07759Y13310D01*
X07749Y13319D01*
X07749Y13300D01*
X07550Y13300D02*
X07664Y13300D01*
X07607Y13300D02*
X07607Y13500D01*
X07626Y13471D01*
X07645Y13452D01*
X07664Y13443D01*
X07379Y13433D02*
X07379Y13300D01*
X07464Y13433D02*
X07464Y13329D01*
X07455Y13310D01*
X07436Y13300D01*
X07407Y13300D01*
X07388Y13310D01*
X07379Y13319D01*
X07312Y13433D02*
X07236Y13433D01*
X07283Y13300D02*
X07283Y13471D01*
X07274Y13491D01*
X07255Y13500D01*
X07236Y13500D01*
X07652Y12345D02*
X07662Y12336D01*
X07690Y12326D01*
X07709Y12326D01*
X07738Y12336D01*
X07757Y12355D01*
X07766Y12374D01*
X07776Y12412D01*
X07776Y12440D01*
X07766Y12478D01*
X07757Y12497D01*
X07738Y12517D01*
X07709Y12526D01*
X07690Y12526D01*
X07662Y12517D01*
X07652Y12507D01*
X07471Y12526D02*
X07566Y12526D01*
X07576Y12431D01*
X07566Y12440D01*
X07547Y12450D01*
X07500Y12450D01*
X07481Y12440D01*
X07471Y12431D01*
X07462Y12412D01*
X07462Y12364D01*
X07471Y12345D01*
X07481Y12336D01*
X07500Y12326D01*
X07547Y12326D01*
X07566Y12336D01*
X07576Y12345D01*
X08335Y12714D02*
X08449Y12714D01*
X08392Y12714D02*
X08392Y12914D01*
X08411Y12885D01*
X08430Y12866D01*
X08449Y12857D01*
X08164Y12847D02*
X08164Y12714D01*
X08249Y12847D02*
X08249Y12743D01*
X08240Y12724D01*
X08221Y12714D01*
X08192Y12714D01*
X08173Y12724D01*
X08164Y12733D01*
X08097Y12847D02*
X08021Y12847D01*
X08068Y12714D02*
X08068Y12885D01*
X08059Y12905D01*
X08040Y12914D01*
X08021Y12914D01*
X07424Y16145D02*
X07434Y16136D01*
X07462Y16126D01*
X07481Y16126D01*
X07510Y16136D01*
X07529Y16155D01*
X07538Y16174D01*
X07548Y16212D01*
X07548Y16240D01*
X07538Y16278D01*
X07529Y16297D01*
X07510Y16317D01*
X07481Y16326D01*
X07462Y16326D01*
X07434Y16317D01*
X07424Y16307D01*
X07253Y16259D02*
X07253Y16126D01*
X07300Y16336D02*
X07348Y16193D01*
X07224Y16193D01*
X08842Y16088D02*
X08956Y16088D01*
X08899Y16088D02*
X08899Y16288D01*
X08918Y16259D01*
X08937Y16240D01*
X08956Y16231D01*
X08671Y16221D02*
X08671Y16088D01*
X08756Y16221D02*
X08756Y16117D01*
X08747Y16098D01*
X08728Y16088D01*
X08699Y16088D01*
X08680Y16098D01*
X08671Y16107D01*
X08604Y16221D02*
X08528Y16221D01*
X08575Y16088D02*
X08575Y16259D01*
X08566Y16279D01*
X08547Y16288D01*
X08528Y16288D01*
X05838Y14121D02*
X05848Y14112D01*
X05876Y14102D01*
X05895Y14102D01*
X05924Y14112D01*
X05943Y14131D01*
X05952Y14150D01*
X05962Y14188D01*
X05962Y14216D01*
X05952Y14254D01*
X05943Y14273D01*
X05924Y14293D01*
X05895Y14302D01*
X05876Y14302D01*
X05848Y14293D01*
X05838Y14283D01*
X05648Y14102D02*
X05762Y14102D01*
X05705Y14102D02*
X05705Y14302D01*
X05724Y14273D01*
X05743Y14254D01*
X05762Y14245D01*
X05524Y14302D02*
X05505Y14302D01*
X05486Y14293D01*
X05477Y14283D01*
X05467Y14264D01*
X05458Y14226D01*
X05458Y14178D01*
X05467Y14140D01*
X05477Y14121D01*
X05486Y14112D01*
X05505Y14102D01*
X05524Y14102D01*
X05543Y14112D01*
X05553Y14121D01*
X05562Y14140D01*
X05572Y14178D01*
X05572Y14226D01*
X05562Y14264D01*
X05553Y14283D01*
X05543Y14293D01*
X05524Y14302D01*
X07925Y13926D02*
X07906Y13926D01*
X07887Y13917D01*
X07878Y13907D01*
X07868Y13888D01*
X07859Y13850D01*
X07859Y13802D01*
X07868Y13764D01*
X07878Y13745D01*
X07887Y13736D01*
X07906Y13726D01*
X07925Y13726D01*
X07944Y13736D01*
X07954Y13745D01*
X07963Y13764D01*
X07973Y13802D01*
X07973Y13850D01*
X07963Y13888D01*
X07954Y13907D01*
X07944Y13917D01*
X07925Y13926D01*
X07773Y13745D02*
X07764Y13736D01*
X07773Y13726D01*
X07783Y13736D01*
X07773Y13745D01*
X07773Y13726D01*
X07574Y13726D02*
X07688Y13726D01*
X07631Y13726D02*
X07631Y13926D01*
X07650Y13897D01*
X07669Y13878D01*
X07688Y13869D01*
X07403Y13859D02*
X07403Y13726D01*
X07488Y13859D02*
X07488Y13755D01*
X07479Y13736D01*
X07460Y13726D01*
X07431Y13726D01*
X07412Y13736D01*
X07403Y13745D01*
X07336Y13859D02*
X07260Y13859D01*
X07307Y13726D02*
X07307Y13897D01*
X07298Y13917D01*
X07279Y13926D01*
X07260Y13926D01*
X05895Y14531D02*
X05905Y14522D01*
X05933Y14512D01*
X05952Y14512D01*
X05981Y14522D01*
X06000Y14541D01*
X06009Y14560D01*
X06019Y14598D01*
X06019Y14626D01*
X06009Y14664D01*
X06000Y14683D01*
X05981Y14703D01*
X05952Y14712D01*
X05933Y14712D01*
X05905Y14703D01*
X05895Y14693D01*
X05705Y14512D02*
X05819Y14512D01*
X05762Y14512D02*
X05762Y14712D01*
X05781Y14683D01*
X05800Y14664D01*
X05819Y14655D01*
X05629Y14693D02*
X05619Y14703D01*
X05600Y14712D01*
X05553Y14712D01*
X05534Y14703D01*
X05524Y14693D01*
X05515Y14674D01*
X05515Y14655D01*
X05524Y14626D01*
X05638Y14512D01*
X05515Y14512D01*
X07873Y14774D02*
X07854Y14774D01*
X07835Y14765D01*
X07826Y14755D01*
X07816Y14736D01*
X07807Y14698D01*
X07807Y14650D01*
X07816Y14612D01*
X07826Y14593D01*
X07835Y14584D01*
X07854Y14574D01*
X07873Y14574D01*
X07892Y14584D01*
X07902Y14593D01*
X07911Y14612D01*
X07921Y14650D01*
X07921Y14698D01*
X07911Y14736D01*
X07902Y14755D01*
X07892Y14765D01*
X07873Y14774D01*
X07721Y14593D02*
X07712Y14584D01*
X07721Y14574D01*
X07731Y14584D01*
X07721Y14593D01*
X07721Y14574D01*
X07522Y14574D02*
X07636Y14574D01*
X07579Y14574D02*
X07579Y14774D01*
X07598Y14745D01*
X07617Y14726D01*
X07636Y14717D01*
X07351Y14707D02*
X07351Y14574D01*
X07436Y14707D02*
X07436Y14603D01*
X07427Y14584D01*
X07408Y14574D01*
X07379Y14574D01*
X07360Y14584D01*
X07351Y14593D01*
X07284Y14707D02*
X07208Y14707D01*
X07255Y14574D02*
X07255Y14745D01*
X07246Y14765D01*
X07227Y14774D01*
X07208Y14774D01*
X-03005Y13413D02*
X-02995Y13404D01*
X-02967Y13394D01*
X-02948Y13394D01*
X-02919Y13404D01*
X-02900Y13423D01*
X-02891Y13442D01*
X-02881Y13480D01*
X-02881Y13508D01*
X-02891Y13546D01*
X-02900Y13565D01*
X-02919Y13585D01*
X-02948Y13594D01*
X-02967Y13594D01*
X-02995Y13585D01*
X-03005Y13575D01*
X-03195Y13394D02*
X-03081Y13394D01*
X-03138Y13394D02*
X-03138Y13594D01*
X-03119Y13565D01*
X-03100Y13546D01*
X-03081Y13537D01*
X-03376Y13594D02*
X-03281Y13594D01*
X-03271Y13499D01*
X-03281Y13508D01*
X-03300Y13518D01*
X-03347Y13518D01*
X-03366Y13508D01*
X-03376Y13499D01*
X-03385Y13480D01*
X-03385Y13432D01*
X-03376Y13413D01*
X-03366Y13404D01*
X-03347Y13394D01*
X-03300Y13394D01*
X-03281Y13404D01*
X-03271Y13413D01*
X-02122Y14028D02*
X-02255Y14028D01*
X-02169Y13828D01*
X-02331Y13961D02*
X-02331Y13761D01*
X-02331Y13952D02*
X-02350Y13961D01*
X-02388Y13961D01*
X-02407Y13952D01*
X-02416Y13942D01*
X-02426Y13923D01*
X-02426Y13866D01*
X-02416Y13847D01*
X-02407Y13838D01*
X-02388Y13828D01*
X-02350Y13828D01*
X-02331Y13838D01*
X-02483Y13961D02*
X-02559Y13961D01*
X-02512Y13828D02*
X-02512Y13999D01*
X-02521Y14019D01*
X-02540Y14028D01*
X-02559Y14028D01*
X-03664Y14463D02*
X-03654Y14454D01*
X-03626Y14444D01*
X-03607Y14444D01*
X-03578Y14454D01*
X-03559Y14473D01*
X-03550Y14492D01*
X-03540Y14530D01*
X-03540Y14558D01*
X-03550Y14596D01*
X-03559Y14615D01*
X-03578Y14635D01*
X-03607Y14644D01*
X-03626Y14644D01*
X-03654Y14635D01*
X-03664Y14625D01*
X-03740Y14625D02*
X-03750Y14635D01*
X-03769Y14644D01*
X-03816Y14644D01*
X-03835Y14635D01*
X-03845Y14625D01*
X-03854Y14606D01*
X-03854Y14587D01*
X-03845Y14558D01*
X-03731Y14444D01*
X-03854Y14444D01*
X-04044Y14444D02*
X-03930Y14444D01*
X-03987Y14444D02*
X-03987Y14644D01*
X-03968Y14615D01*
X-03949Y14596D01*
X-03930Y14587D01*
X-02885Y14940D02*
X-03018Y14940D01*
X-02932Y14740D01*
X-03094Y14873D02*
X-03094Y14673D01*
X-03094Y14864D02*
X-03113Y14873D01*
X-03151Y14873D01*
X-03170Y14864D01*
X-03179Y14854D01*
X-03189Y14835D01*
X-03189Y14778D01*
X-03179Y14759D01*
X-03170Y14750D01*
X-03151Y14740D01*
X-03113Y14740D01*
X-03094Y14750D01*
X-03246Y14873D02*
X-03322Y14873D01*
X-03275Y14740D02*
X-03275Y14911D01*
X-03284Y14931D01*
X-03303Y14940D01*
X-03322Y14940D01*
X-07229Y14326D02*
X-07220Y14336D01*
X-07210Y14364D01*
X-07210Y14383D01*
X-07220Y14412D01*
X-07239Y14431D01*
X-07258Y14440D01*
X-07296Y14450D01*
X-07324Y14450D01*
X-07362Y14440D01*
X-07381Y14431D01*
X-07401Y14412D01*
X-07410Y14383D01*
X-07410Y14364D01*
X-07401Y14336D01*
X-07391Y14326D01*
X-07343Y14155D02*
X-07210Y14155D01*
X-07420Y14202D02*
X-07277Y14250D01*
X-07277Y14126D01*
X-07410Y14012D02*
X-07410Y13993D01*
X-07401Y13974D01*
X-07391Y13965D01*
X-07372Y13955D01*
X-07334Y13946D01*
X-07286Y13946D01*
X-07248Y13955D01*
X-07229Y13965D01*
X-07220Y13974D01*
X-07210Y13993D01*
X-07210Y14012D01*
X-07220Y14031D01*
X-07229Y14041D01*
X-07248Y14050D01*
X-07286Y14060D01*
X-07334Y14060D01*
X-07372Y14050D01*
X-07391Y14041D01*
X-07401Y14031D01*
X-07410Y14012D01*
X-06698Y14271D02*
X-06698Y14252D01*
X-06689Y14233D01*
X-06679Y14224D01*
X-06660Y14214D01*
X-06622Y14205D01*
X-06574Y14205D01*
X-06536Y14214D01*
X-06517Y14224D01*
X-06508Y14233D01*
X-06498Y14252D01*
X-06498Y14271D01*
X-06508Y14290D01*
X-06517Y14300D01*
X-06536Y14309D01*
X-06574Y14319D01*
X-06622Y14319D01*
X-06660Y14309D01*
X-06679Y14300D01*
X-06689Y14290D01*
X-06698Y14271D01*
X-06517Y14119D02*
X-06508Y14110D01*
X-06498Y14119D01*
X-06508Y14129D01*
X-06517Y14119D01*
X-06498Y14119D01*
X-06498Y13920D02*
X-06498Y14034D01*
X-06498Y13977D02*
X-06698Y13977D01*
X-06669Y13996D01*
X-06650Y14015D01*
X-06641Y14034D01*
X-06631Y13749D02*
X-06498Y13749D01*
X-06631Y13834D02*
X-06527Y13834D01*
X-06508Y13825D01*
X-06498Y13806D01*
X-06498Y13777D01*
X-06508Y13758D01*
X-06517Y13749D01*
X-06631Y13682D02*
X-06631Y13606D01*
X-06498Y13653D02*
X-06669Y13653D01*
X-06689Y13644D01*
X-06698Y13625D01*
X-06698Y13606D01*
X03668Y14640D02*
X03649Y14640D01*
X03630Y14631D01*
X03621Y14621D01*
X03611Y14602D01*
X03602Y14564D01*
X03602Y14516D01*
X03611Y14478D01*
X03621Y14459D01*
X03630Y14450D01*
X03649Y14440D01*
X03668Y14440D01*
X03687Y14450D01*
X03697Y14459D01*
X03706Y14478D01*
X03716Y14516D01*
X03716Y14564D01*
X03706Y14602D01*
X03697Y14621D01*
X03687Y14631D01*
X03668Y14640D01*
X03516Y14459D02*
X03507Y14450D01*
X03516Y14440D01*
X03526Y14450D01*
X03516Y14459D01*
X03516Y14440D01*
X03383Y14640D02*
X03364Y14640D01*
X03345Y14631D01*
X03336Y14621D01*
X03326Y14602D01*
X03317Y14564D01*
X03317Y14516D01*
X03326Y14478D01*
X03336Y14459D01*
X03345Y14450D01*
X03364Y14440D01*
X03383Y14440D01*
X03402Y14450D01*
X03412Y14459D01*
X03421Y14478D01*
X03431Y14516D01*
X03431Y14564D01*
X03421Y14602D01*
X03412Y14621D01*
X03402Y14631D01*
X03383Y14640D01*
X03127Y14440D02*
X03241Y14440D01*
X03184Y14440D02*
X03184Y14640D01*
X03203Y14611D01*
X03222Y14592D01*
X03241Y14583D01*
X02956Y14573D02*
X02956Y14440D01*
X03041Y14573D02*
X03041Y14469D01*
X03032Y14450D01*
X03013Y14440D01*
X02984Y14440D01*
X02965Y14450D01*
X02956Y14459D01*
X02889Y14573D02*
X02813Y14573D01*
X02860Y14440D02*
X02860Y14611D01*
X02851Y14631D01*
X02832Y14640D01*
X02813Y14640D01*
X01902Y16397D02*
X01902Y16378D01*
X01911Y16359D01*
X01921Y16350D01*
X01940Y16340D01*
X01978Y16331D01*
X02026Y16331D01*
X02064Y16340D01*
X02083Y16350D01*
X02092Y16359D01*
X02102Y16378D01*
X02102Y16397D01*
X02092Y16416D01*
X02083Y16426D01*
X02064Y16435D01*
X02026Y16445D01*
X01978Y16445D01*
X01940Y16435D01*
X01921Y16426D01*
X01911Y16416D01*
X01902Y16397D01*
X02083Y16245D02*
X02092Y16236D01*
X02102Y16245D01*
X02092Y16255D01*
X02083Y16245D01*
X02102Y16245D01*
X01902Y16112D02*
X01902Y16093D01*
X01911Y16074D01*
X01921Y16065D01*
X01940Y16055D01*
X01978Y16046D01*
X02026Y16046D01*
X02064Y16055D01*
X02083Y16065D01*
X02092Y16074D01*
X02102Y16093D01*
X02102Y16112D01*
X02092Y16131D01*
X02083Y16141D01*
X02064Y16150D01*
X02026Y16160D01*
X01978Y16160D01*
X01940Y16150D01*
X01921Y16141D01*
X01911Y16131D01*
X01902Y16112D01*
X02102Y15856D02*
X02102Y15970D01*
X02102Y15913D02*
X01902Y15913D01*
X01931Y15932D01*
X01950Y15951D01*
X01959Y15970D01*
X01969Y15685D02*
X02102Y15685D01*
X01969Y15770D02*
X02073Y15770D01*
X02092Y15761D01*
X02102Y15742D01*
X02102Y15713D01*
X02092Y15694D01*
X02083Y15685D01*
X01969Y15618D02*
X01969Y15542D01*
X02102Y15589D02*
X01931Y15589D01*
X01911Y15580D01*
X01902Y15561D01*
X01902Y15542D01*
X03232Y13680D02*
X03213Y13680D01*
X03194Y13671D01*
X03185Y13661D01*
X03175Y13642D01*
X03166Y13604D01*
X03166Y13556D01*
X03175Y13518D01*
X03185Y13499D01*
X03194Y13490D01*
X03213Y13480D01*
X03232Y13480D01*
X03251Y13490D01*
X03261Y13499D01*
X03270Y13518D01*
X03280Y13556D01*
X03280Y13604D01*
X03270Y13642D01*
X03261Y13661D01*
X03251Y13671D01*
X03232Y13680D01*
X03080Y13499D02*
X03071Y13490D01*
X03080Y13480D01*
X03090Y13490D01*
X03080Y13499D01*
X03080Y13480D01*
X02881Y13480D02*
X02995Y13480D01*
X02938Y13480D02*
X02938Y13680D01*
X02957Y13651D01*
X02976Y13632D01*
X02995Y13623D01*
X02710Y13613D02*
X02710Y13480D01*
X02795Y13613D02*
X02795Y13509D01*
X02786Y13490D01*
X02767Y13480D01*
X02738Y13480D01*
X02719Y13490D01*
X02710Y13499D01*
X02643Y13613D02*
X02567Y13613D01*
X02614Y13480D02*
X02614Y13651D01*
X02605Y13671D01*
X02586Y13680D01*
X02567Y13680D01*
X01430Y11957D02*
X01430Y12071D01*
X01430Y12014D02*
X01230Y12014D01*
X01259Y12033D01*
X01278Y12052D01*
X01287Y12071D01*
X01297Y11786D02*
X01430Y11786D01*
X01297Y11871D02*
X01401Y11871D01*
X01420Y11862D01*
X01430Y11843D01*
X01430Y11814D01*
X01420Y11795D01*
X01411Y11786D01*
X01297Y11719D02*
X01297Y11643D01*
X01430Y11690D02*
X01259Y11690D01*
X01239Y11681D01*
X01230Y11662D01*
X01230Y11643D01*
X00190Y11937D02*
X00190Y12051D01*
X00190Y11994D02*
X-00010Y11994D01*
X00019Y12013D01*
X00038Y12032D01*
X00047Y12051D01*
X00057Y11766D02*
X00190Y11766D01*
X00057Y11851D02*
X00161Y11851D01*
X00180Y11842D01*
X00190Y11823D01*
X00190Y11794D01*
X00180Y11775D01*
X00171Y11766D01*
X00057Y11699D02*
X00057Y11623D01*
X00190Y11670D02*
X00019Y11670D01*
X-00001Y11661D01*
X-00010Y11642D01*
X-00010Y11623D01*
X-00725Y14328D02*
X-00744Y14328D01*
X-00763Y14319D01*
X-00772Y14309D01*
X-00782Y14290D01*
X-00791Y14252D01*
X-00791Y14204D01*
X-00782Y14166D01*
X-00772Y14147D01*
X-00763Y14138D01*
X-00744Y14128D01*
X-00725Y14128D01*
X-00706Y14138D01*
X-00696Y14147D01*
X-00687Y14166D01*
X-00677Y14204D01*
X-00677Y14252D01*
X-00687Y14290D01*
X-00696Y14309D01*
X-00706Y14319D01*
X-00725Y14328D01*
X-00877Y14147D02*
X-00886Y14138D01*
X-00877Y14128D01*
X-00867Y14138D01*
X-00877Y14147D01*
X-00877Y14128D01*
X-01076Y14128D02*
X-00962Y14128D01*
X-01019Y14128D02*
X-01019Y14328D01*
X-01000Y14299D01*
X-00981Y14280D01*
X-00962Y14271D01*
X-01247Y14261D02*
X-01247Y14128D01*
X-01162Y14261D02*
X-01162Y14157D01*
X-01171Y14138D01*
X-01190Y14128D01*
X-01219Y14128D01*
X-01238Y14138D01*
X-01247Y14147D01*
X-01314Y14261D02*
X-01390Y14261D01*
X-01343Y14128D02*
X-01343Y14299D01*
X-01352Y14319D01*
X-01371Y14328D01*
X-01390Y14328D01*
X-00665Y13698D02*
X-00684Y13698D01*
X-00703Y13689D01*
X-00712Y13679D01*
X-00722Y13660D01*
X-00731Y13622D01*
X-00731Y13574D01*
X-00722Y13536D01*
X-00712Y13517D01*
X-00703Y13508D01*
X-00684Y13498D01*
X-00665Y13498D01*
X-00646Y13508D01*
X-00636Y13517D01*
X-00627Y13536D01*
X-00617Y13574D01*
X-00617Y13622D01*
X-00627Y13660D01*
X-00636Y13679D01*
X-00646Y13689D01*
X-00665Y13698D01*
X-00817Y13517D02*
X-00826Y13508D01*
X-00817Y13498D01*
X-00807Y13508D01*
X-00817Y13517D01*
X-00817Y13498D01*
X-01016Y13498D02*
X-00902Y13498D01*
X-00959Y13498D02*
X-00959Y13698D01*
X-00940Y13669D01*
X-00921Y13650D01*
X-00902Y13641D01*
X-01187Y13631D02*
X-01187Y13498D01*
X-01102Y13631D02*
X-01102Y13527D01*
X-01111Y13508D01*
X-01130Y13498D01*
X-01159Y13498D01*
X-01178Y13508D01*
X-01187Y13517D01*
X-01254Y13631D02*
X-01330Y13631D01*
X-01283Y13498D02*
X-01283Y13669D01*
X-01292Y13689D01*
X-01311Y13698D01*
X-01330Y13698D01*
X03383Y14190D02*
X03364Y14190D01*
X03345Y14181D01*
X03336Y14171D01*
X03326Y14152D01*
X03317Y14114D01*
X03317Y14066D01*
X03326Y14028D01*
X03336Y14009D01*
X03345Y14000D01*
X03364Y13990D01*
X03383Y13990D01*
X03402Y14000D01*
X03412Y14009D01*
X03421Y14028D01*
X03431Y14066D01*
X03431Y14114D01*
X03421Y14152D01*
X03412Y14171D01*
X03402Y14181D01*
X03383Y14190D01*
X03231Y14009D02*
X03222Y14000D01*
X03231Y13990D01*
X03241Y14000D01*
X03231Y14009D01*
X03231Y13990D01*
X03032Y13990D02*
X03146Y13990D01*
X03089Y13990D02*
X03089Y14190D01*
X03108Y14161D01*
X03127Y14142D01*
X03146Y14133D01*
X02861Y14123D02*
X02861Y13990D01*
X02946Y14123D02*
X02946Y14019D01*
X02937Y14000D01*
X02918Y13990D01*
X02889Y13990D01*
X02870Y14000D01*
X02861Y14009D01*
X02794Y14123D02*
X02718Y14123D01*
X02765Y13990D02*
X02765Y14161D01*
X02756Y14181D01*
X02737Y14190D01*
X02718Y14190D01*
X22633Y22401D02*
X22633Y22515D01*
X22633Y22458D02*
X22433Y22458D01*
X22462Y22477D01*
X22481Y22496D01*
X22490Y22515D01*
X22433Y22277D02*
X22433Y22258D01*
X22442Y22239D01*
X22452Y22230D01*
X22471Y22220D01*
X22509Y22211D01*
X22557Y22211D01*
X22595Y22220D01*
X22614Y22230D01*
X22623Y22239D01*
X22633Y22258D01*
X22633Y22277D01*
X22623Y22296D01*
X22614Y22306D01*
X22595Y22315D01*
X22557Y22325D01*
X22509Y22325D01*
X22471Y22315D01*
X22452Y22306D01*
X22442Y22296D01*
X22433Y22277D01*
X22500Y22040D02*
X22633Y22040D01*
X22500Y22125D02*
X22604Y22125D01*
X22623Y22116D01*
X22633Y22097D01*
X22633Y22068D01*
X22623Y22049D01*
X22614Y22040D01*
X22500Y21973D02*
X22500Y21897D01*
X22633Y21944D02*
X22462Y21944D01*
X22442Y21935D01*
X22433Y21916D01*
X22433Y21897D01*
X00831Y11831D02*
X00831Y11945D01*
X00831Y11888D02*
X00631Y11888D01*
X00660Y11907D01*
X00679Y11926D01*
X00688Y11945D01*
X00631Y11707D02*
X00631Y11688D01*
X00640Y11669D01*
X00650Y11660D01*
X00669Y11650D01*
X00707Y11641D01*
X00755Y11641D01*
X00793Y11650D01*
X00812Y11660D01*
X00821Y11669D01*
X00831Y11688D01*
X00831Y11707D01*
X00821Y11726D01*
X00812Y11736D01*
X00793Y11745D01*
X00755Y11755D01*
X00707Y11755D01*
X00669Y11745D01*
X00650Y11736D01*
X00640Y11726D01*
X00631Y11707D01*
X00698Y11470D02*
X00831Y11470D01*
X00698Y11555D02*
X00802Y11555D01*
X00821Y11546D01*
X00831Y11527D01*
X00831Y11498D01*
X00821Y11479D01*
X00812Y11470D01*
X00698Y11403D02*
X00698Y11327D01*
X00831Y11374D02*
X00660Y11374D01*
X00640Y11365D01*
X00631Y11346D01*
X00631Y11327D01*
G54D15*
X29658Y15237D02*
X29737Y15350D01*
X29793Y15237D02*
X29793Y15473D01*
X29703Y15473D01*
X29680Y15462D01*
X29669Y15451D01*
X29658Y15429D01*
X29658Y15395D01*
X29669Y15372D01*
X29680Y15361D01*
X29703Y15350D01*
X29793Y15350D01*
X29557Y15237D02*
X29557Y15473D01*
X29557Y15361D02*
X29422Y15361D01*
X29422Y15237D02*
X29422Y15473D01*
X29321Y15305D02*
X29209Y15305D01*
X29344Y15237D02*
X29265Y15473D01*
X29186Y15237D01*
X29119Y15451D02*
X29108Y15462D01*
X29085Y15473D01*
X29029Y15473D01*
X29007Y15462D01*
X28995Y15451D01*
X28984Y15429D01*
X28984Y15406D01*
X28995Y15372D01*
X29130Y15237D01*
X28984Y15237D01*
X28759Y15237D02*
X28894Y15237D01*
X28827Y15237D02*
X28827Y15473D01*
X28849Y15440D01*
X28872Y15417D01*
X28894Y15406D01*
X28534Y15237D02*
X28669Y15237D01*
X28602Y15237D02*
X28602Y15473D01*
X28624Y15440D01*
X28647Y15417D01*
X28669Y15406D01*
X28332Y15473D02*
X28377Y15473D01*
X28399Y15462D01*
X28410Y15451D01*
X28433Y15417D01*
X28444Y15372D01*
X28444Y15282D01*
X28433Y15260D01*
X28422Y15249D01*
X28399Y15237D01*
X28354Y15237D01*
X28332Y15249D01*
X28320Y15260D01*
X28309Y15282D01*
X28309Y15339D01*
X28320Y15361D01*
X28332Y15372D01*
X28354Y15384D01*
X28399Y15384D01*
X28422Y15372D01*
X28433Y15361D01*
X28444Y15339D01*
X24301Y25295D02*
X24380Y25408D01*
X24436Y25295D02*
X24436Y25531D01*
X24346Y25531D01*
X24323Y25520D01*
X24312Y25509D01*
X24301Y25487D01*
X24301Y25453D01*
X24312Y25430D01*
X24323Y25419D01*
X24346Y25408D01*
X24436Y25408D01*
X24200Y25295D02*
X24200Y25531D01*
X24200Y25419D02*
X24065Y25419D01*
X24065Y25295D02*
X24065Y25531D01*
X23964Y25363D02*
X23852Y25363D01*
X23987Y25295D02*
X23908Y25531D01*
X23829Y25295D01*
X23762Y25509D02*
X23751Y25520D01*
X23728Y25531D01*
X23672Y25531D01*
X23650Y25520D01*
X23638Y25509D01*
X23627Y25487D01*
X23627Y25464D01*
X23638Y25430D01*
X23773Y25295D01*
X23627Y25295D01*
X23402Y25295D02*
X23537Y25295D01*
X23470Y25295D02*
X23470Y25531D01*
X23492Y25498D01*
X23515Y25475D01*
X23537Y25464D01*
X23177Y25295D02*
X23312Y25295D01*
X23245Y25295D02*
X23245Y25531D01*
X23267Y25498D01*
X23290Y25475D01*
X23312Y25464D01*
X22975Y25531D02*
X23020Y25531D01*
X23042Y25520D01*
X23053Y25509D01*
X23076Y25475D01*
X23087Y25430D01*
X23087Y25340D01*
X23076Y25318D01*
X23065Y25307D01*
X23042Y25295D01*
X22997Y25295D01*
X22975Y25307D01*
X22963Y25318D01*
X22952Y25340D01*
X22952Y25397D01*
X22963Y25419D01*
X22975Y25430D01*
X22997Y25442D01*
X23042Y25442D01*
X23065Y25430D01*
X23076Y25419D01*
X23087Y25397D01*
G54D14*
X21647Y25769D02*
X21647Y25607D01*
X21638Y25588D01*
X21628Y25579D01*
X21609Y25569D01*
X21571Y25569D01*
X21552Y25579D01*
X21543Y25588D01*
X21533Y25607D01*
X21533Y25769D01*
X21352Y25702D02*
X21352Y25569D01*
X21399Y25779D02*
X21447Y25636D01*
X21323Y25636D01*
X21162Y25769D02*
X21200Y25769D01*
X21219Y25760D01*
X21228Y25750D01*
X21247Y25721D01*
X21257Y25683D01*
X21257Y25607D01*
X21247Y25588D01*
X21238Y25579D01*
X21219Y25569D01*
X21181Y25569D01*
X21162Y25579D01*
X21152Y25588D01*
X21143Y25607D01*
X21143Y25655D01*
X21152Y25674D01*
X21162Y25683D01*
X21181Y25693D01*
X21219Y25693D01*
X21238Y25683D01*
X21247Y25674D01*
X21257Y25655D01*
X26931Y14747D02*
X27093Y14747D01*
X27112Y14738D01*
X27121Y14728D01*
X27131Y14709D01*
X27131Y14671D01*
X27121Y14652D01*
X27112Y14643D01*
X27093Y14633D01*
X26931Y14633D01*
X26931Y14556D02*
X26931Y14423D01*
X27131Y14509D01*
X27131Y14338D02*
X27131Y14300D01*
X27121Y14281D01*
X27112Y14271D01*
X27083Y14252D01*
X27045Y14243D01*
X26969Y14243D01*
X26950Y14252D01*
X26940Y14262D01*
X26931Y14281D01*
X26931Y14319D01*
X26940Y14338D01*
X26950Y14347D01*
X26969Y14357D01*
X27017Y14357D01*
X27036Y14347D01*
X27045Y14338D01*
X27055Y14319D01*
X27055Y14281D01*
X27045Y14262D01*
X27036Y14252D01*
X27017Y14243D01*
X24739Y14076D02*
X24739Y13914D01*
X24730Y13895D01*
X24720Y13886D01*
X24701Y13876D01*
X24663Y13876D01*
X24644Y13886D01*
X24635Y13895D01*
X24625Y13914D01*
X24625Y14076D01*
X24548Y14076D02*
X24425Y14076D01*
X24491Y14000D01*
X24463Y14000D01*
X24444Y13990D01*
X24434Y13981D01*
X24425Y13962D01*
X24425Y13914D01*
X24434Y13895D01*
X24444Y13886D01*
X24463Y13876D01*
X24520Y13876D01*
X24539Y13886D01*
X24548Y13895D01*
X24244Y14076D02*
X24339Y14076D01*
X24349Y13981D01*
X24339Y13990D01*
X24320Y14000D01*
X24273Y14000D01*
X24254Y13990D01*
X24244Y13981D01*
X24235Y13962D01*
X24235Y13914D01*
X24244Y13895D01*
X24254Y13886D01*
X24273Y13876D01*
X24320Y13876D01*
X24339Y13886D01*
X24349Y13895D01*
X24408Y13012D02*
X24408Y13126D01*
X24408Y13069D02*
X24208Y13069D01*
X24237Y13088D01*
X24256Y13107D01*
X24265Y13126D01*
X24208Y12888D02*
X24208Y12869D01*
X24217Y12850D01*
X24227Y12841D01*
X24246Y12831D01*
X24284Y12822D01*
X24332Y12822D01*
X24370Y12831D01*
X24389Y12841D01*
X24398Y12850D01*
X24408Y12869D01*
X24408Y12888D01*
X24398Y12907D01*
X24389Y12917D01*
X24370Y12926D01*
X24332Y12936D01*
X24284Y12936D01*
X24246Y12926D01*
X24227Y12917D01*
X24217Y12907D01*
X24208Y12888D01*
X24408Y12736D02*
X24208Y12736D01*
X24332Y12717D02*
X24408Y12660D01*
X24275Y12660D02*
X24351Y12736D01*
X25781Y16803D02*
X25581Y16803D01*
X25781Y16689D01*
X25581Y16689D01*
X25781Y16479D02*
X25686Y16546D01*
X25781Y16593D02*
X25581Y16593D01*
X25581Y16517D01*
X25590Y16498D01*
X25600Y16489D01*
X25619Y16479D01*
X25648Y16479D01*
X25667Y16489D01*
X25676Y16498D01*
X25686Y16517D01*
X25686Y16593D01*
X25676Y16327D02*
X25676Y16393D01*
X25781Y16393D02*
X25581Y16393D01*
X25581Y16298D01*
X25600Y16232D02*
X25590Y16222D01*
X25581Y16203D01*
X25581Y16156D01*
X25590Y16137D01*
X25600Y16127D01*
X25619Y16118D01*
X25638Y16118D01*
X25667Y16127D01*
X25781Y16241D01*
X25781Y16118D01*
X25648Y15947D02*
X25781Y15947D01*
X25571Y15994D02*
X25714Y16042D01*
X25714Y15918D01*
X25781Y15747D02*
X25781Y15842D01*
X25581Y15842D01*
X25581Y15642D02*
X25581Y15623D01*
X25590Y15604D01*
X25600Y15595D01*
X25619Y15585D01*
X25657Y15576D01*
X25705Y15576D01*
X25743Y15585D01*
X25762Y15595D01*
X25771Y15604D01*
X25781Y15623D01*
X25781Y15642D01*
X25771Y15661D01*
X25762Y15671D01*
X25743Y15680D01*
X25705Y15690D01*
X25657Y15690D01*
X25619Y15680D01*
X25600Y15671D01*
X25590Y15661D01*
X25581Y15642D01*
X25781Y15386D02*
X25781Y15500D01*
X25781Y15443D02*
X25581Y15443D01*
X25610Y15462D01*
X25629Y15481D01*
X25638Y15500D01*
X25483Y16969D02*
X25578Y16969D01*
X25578Y17169D01*
X25435Y17169D02*
X25302Y17169D01*
X25388Y16969D01*
X25311Y14924D02*
X25311Y14801D01*
X25387Y14867D01*
X25387Y14839D01*
X25397Y14820D01*
X25406Y14810D01*
X25425Y14801D01*
X25473Y14801D01*
X25492Y14810D01*
X25501Y14820D01*
X25511Y14839D01*
X25511Y14896D01*
X25501Y14915D01*
X25492Y14924D01*
X25311Y14734D02*
X25311Y14611D01*
X25387Y14677D01*
X25387Y14649D01*
X25397Y14630D01*
X25406Y14620D01*
X25425Y14611D01*
X25473Y14611D01*
X25492Y14620D01*
X25501Y14630D01*
X25511Y14649D01*
X25511Y14706D01*
X25501Y14725D01*
X25492Y14734D01*
X21572Y14451D02*
X21572Y14432D01*
X21581Y14413D01*
X21591Y14404D01*
X21610Y14394D01*
X21648Y14385D01*
X21696Y14385D01*
X21734Y14394D01*
X21753Y14404D01*
X21762Y14413D01*
X21772Y14432D01*
X21772Y14451D01*
X21762Y14470D01*
X21753Y14480D01*
X21734Y14489D01*
X21696Y14499D01*
X21648Y14499D01*
X21610Y14489D01*
X21591Y14480D01*
X21581Y14470D01*
X21572Y14451D01*
X21753Y14299D02*
X21762Y14290D01*
X21772Y14299D01*
X21762Y14309D01*
X21753Y14299D01*
X21772Y14299D01*
X21572Y14166D02*
X21572Y14147D01*
X21581Y14128D01*
X21591Y14119D01*
X21610Y14109D01*
X21648Y14100D01*
X21696Y14100D01*
X21734Y14109D01*
X21753Y14119D01*
X21762Y14128D01*
X21772Y14147D01*
X21772Y14166D01*
X21762Y14185D01*
X21753Y14195D01*
X21734Y14204D01*
X21696Y14214D01*
X21648Y14214D01*
X21610Y14204D01*
X21591Y14195D01*
X21581Y14185D01*
X21572Y14166D01*
X21772Y13910D02*
X21772Y14024D01*
X21772Y13967D02*
X21572Y13967D01*
X21601Y13986D01*
X21620Y14005D01*
X21629Y14024D01*
X21639Y13739D02*
X21772Y13739D01*
X21639Y13824D02*
X21743Y13824D01*
X21762Y13815D01*
X21772Y13796D01*
X21772Y13767D01*
X21762Y13748D01*
X21753Y13739D01*
X21639Y13672D02*
X21639Y13596D01*
X21772Y13643D02*
X21601Y13643D01*
X21581Y13634D01*
X21572Y13615D01*
X21572Y13596D01*
X22223Y14370D02*
X22223Y14351D01*
X22232Y14332D01*
X22242Y14323D01*
X22261Y14313D01*
X22299Y14304D01*
X22347Y14304D01*
X22385Y14313D01*
X22404Y14323D01*
X22413Y14332D01*
X22423Y14351D01*
X22423Y14370D01*
X22413Y14389D01*
X22404Y14399D01*
X22385Y14408D01*
X22347Y14418D01*
X22299Y14418D01*
X22261Y14408D01*
X22242Y14399D01*
X22232Y14389D01*
X22223Y14370D01*
X22404Y14218D02*
X22413Y14209D01*
X22423Y14218D01*
X22413Y14228D01*
X22404Y14218D01*
X22423Y14218D01*
X22423Y14019D02*
X22423Y14133D01*
X22423Y14076D02*
X22223Y14076D01*
X22252Y14095D01*
X22271Y14114D01*
X22280Y14133D01*
X22290Y13848D02*
X22423Y13848D01*
X22290Y13933D02*
X22394Y13933D01*
X22413Y13924D01*
X22423Y13905D01*
X22423Y13876D01*
X22413Y13857D01*
X22404Y13848D01*
X22290Y13781D02*
X22290Y13705D01*
X22423Y13752D02*
X22252Y13752D01*
X22232Y13743D01*
X22223Y13724D01*
X22223Y13705D01*
X22799Y15388D02*
X22913Y15388D01*
X22856Y15388D02*
X22856Y15588D01*
X22875Y15559D01*
X22894Y15540D01*
X22913Y15531D01*
X22675Y15588D02*
X22656Y15588D01*
X22637Y15579D01*
X22628Y15569D01*
X22618Y15550D01*
X22609Y15512D01*
X22609Y15464D01*
X22618Y15426D01*
X22628Y15407D01*
X22637Y15398D01*
X22656Y15388D01*
X22675Y15388D01*
X22694Y15398D01*
X22704Y15407D01*
X22713Y15426D01*
X22723Y15464D01*
X22723Y15512D01*
X22713Y15550D01*
X22704Y15569D01*
X22694Y15579D01*
X22675Y15588D01*
X22438Y15521D02*
X22438Y15388D01*
X22523Y15521D02*
X22523Y15417D01*
X22514Y15398D01*
X22495Y15388D01*
X22466Y15388D01*
X22447Y15398D01*
X22438Y15407D01*
X22371Y15521D02*
X22295Y15521D01*
X22342Y15388D02*
X22342Y15559D01*
X22333Y15579D01*
X22314Y15588D01*
X22295Y15588D01*
X23385Y16229D02*
X23499Y16229D01*
X23442Y16229D02*
X23442Y16429D01*
X23461Y16400D01*
X23480Y16381D01*
X23499Y16372D01*
X23261Y16429D02*
X23242Y16429D01*
X23223Y16420D01*
X23214Y16410D01*
X23204Y16391D01*
X23195Y16353D01*
X23195Y16305D01*
X23204Y16267D01*
X23214Y16248D01*
X23223Y16239D01*
X23242Y16229D01*
X23261Y16229D01*
X23280Y16239D01*
X23290Y16248D01*
X23299Y16267D01*
X23309Y16305D01*
X23309Y16353D01*
X23299Y16391D01*
X23290Y16410D01*
X23280Y16420D01*
X23261Y16429D01*
X23024Y16362D02*
X23024Y16229D01*
X23109Y16362D02*
X23109Y16258D01*
X23100Y16239D01*
X23081Y16229D01*
X23052Y16229D01*
X23033Y16239D01*
X23024Y16248D01*
X22957Y16362D02*
X22881Y16362D01*
X22928Y16229D02*
X22928Y16400D01*
X22919Y16420D01*
X22900Y16429D01*
X22881Y16429D01*
X21349Y16089D02*
X21330Y16089D01*
X21311Y16080D01*
X21302Y16070D01*
X21292Y16051D01*
X21283Y16013D01*
X21283Y15965D01*
X21292Y15927D01*
X21302Y15908D01*
X21311Y15899D01*
X21330Y15889D01*
X21349Y15889D01*
X21368Y15899D01*
X21378Y15908D01*
X21387Y15927D01*
X21397Y15965D01*
X21397Y16013D01*
X21387Y16051D01*
X21378Y16070D01*
X21368Y16080D01*
X21349Y16089D01*
X21197Y15908D02*
X21188Y15899D01*
X21197Y15889D01*
X21207Y15899D01*
X21197Y15908D01*
X21197Y15889D01*
X20998Y15889D02*
X21112Y15889D01*
X21055Y15889D02*
X21055Y16089D01*
X21074Y16060D01*
X21093Y16041D01*
X21112Y16032D01*
X20827Y16022D02*
X20827Y15889D01*
X20912Y16022D02*
X20912Y15918D01*
X20903Y15899D01*
X20884Y15889D01*
X20855Y15889D01*
X20836Y15899D01*
X20827Y15908D01*
X20760Y16022D02*
X20684Y16022D01*
X20731Y15889D02*
X20731Y16060D01*
X20722Y16080D01*
X20703Y16089D01*
X20684Y16089D01*
X22078Y16460D02*
X22173Y16460D01*
X22183Y16365D01*
X22173Y16374D01*
X22154Y16384D01*
X22107Y16384D01*
X22088Y16374D01*
X22078Y16365D01*
X22069Y16346D01*
X22069Y16298D01*
X22078Y16279D01*
X22088Y16270D01*
X22107Y16260D01*
X22154Y16260D01*
X22173Y16270D01*
X22183Y16279D01*
X21945Y16460D02*
X21926Y16460D01*
X21907Y16451D01*
X21898Y16441D01*
X21888Y16422D01*
X21879Y16384D01*
X21879Y16336D01*
X21888Y16298D01*
X21898Y16279D01*
X21907Y16270D01*
X21926Y16260D01*
X21945Y16260D01*
X21964Y16270D01*
X21974Y16279D01*
X21983Y16298D01*
X21993Y16336D01*
X21993Y16384D01*
X21983Y16422D01*
X21974Y16441D01*
X21964Y16451D01*
X21945Y16460D01*
X21793Y16260D02*
X21793Y16460D01*
X21774Y16336D02*
X21717Y16260D01*
X21717Y16393D02*
X21793Y16317D01*
X24213Y16003D02*
X24222Y16013D01*
X24232Y16041D01*
X24232Y16060D01*
X24222Y16089D01*
X24203Y16108D01*
X24184Y16117D01*
X24146Y16127D01*
X24118Y16127D01*
X24080Y16117D01*
X24061Y16108D01*
X24041Y16089D01*
X24032Y16060D01*
X24032Y16041D01*
X24041Y16013D01*
X24051Y16003D01*
X24032Y15936D02*
X24032Y15803D01*
X24232Y15889D01*
X24099Y15642D02*
X24232Y15642D01*
X24022Y15689D02*
X24165Y15737D01*
X24165Y15613D01*
X24006Y18346D02*
X24006Y18184D01*
X23997Y18165D01*
X23987Y18156D01*
X23968Y18146D01*
X23930Y18146D01*
X23911Y18156D01*
X23902Y18165D01*
X23892Y18184D01*
X23892Y18346D01*
X23815Y18346D02*
X23692Y18346D01*
X23758Y18270D01*
X23730Y18270D01*
X23711Y18260D01*
X23701Y18251D01*
X23692Y18232D01*
X23692Y18184D01*
X23701Y18165D01*
X23711Y18156D01*
X23730Y18146D01*
X23787Y18146D01*
X23806Y18156D01*
X23815Y18165D01*
X23521Y18346D02*
X23559Y18346D01*
X23578Y18337D01*
X23587Y18327D01*
X23606Y18298D01*
X23616Y18260D01*
X23616Y18184D01*
X23606Y18165D01*
X23597Y18156D01*
X23578Y18146D01*
X23540Y18146D01*
X23521Y18156D01*
X23511Y18165D01*
X23502Y18184D01*
X23502Y18232D01*
X23511Y18251D01*
X23521Y18260D01*
X23540Y18270D01*
X23578Y18270D01*
X23597Y18260D01*
X23606Y18251D01*
X23616Y18232D01*
X24314Y18776D02*
X24219Y18776D01*
X24333Y18719D02*
X24266Y18919D01*
X24200Y18719D01*
X24133Y18719D02*
X24133Y18919D01*
X24019Y18719D01*
X24019Y18919D01*
X23952Y18919D02*
X23838Y18919D01*
X23895Y18719D02*
X23895Y18919D01*
X23771Y18824D02*
X23705Y18824D01*
X23676Y18719D02*
X23771Y18719D01*
X23771Y18919D01*
X23676Y18919D01*
X23590Y18719D02*
X23590Y18919D01*
X23476Y18719D01*
X23476Y18919D01*
X23380Y18719D02*
X23380Y18919D01*
X23266Y18719D01*
X23266Y18919D01*
X23180Y18776D02*
X23085Y18776D01*
X23199Y18719D02*
X23132Y18919D01*
X23066Y18719D01*
X20981Y12897D02*
X20858Y12897D01*
X20924Y12821D01*
X20896Y12821D01*
X20877Y12811D01*
X20867Y12802D01*
X20858Y12783D01*
X20858Y12735D01*
X20867Y12716D01*
X20877Y12707D01*
X20896Y12697D01*
X20953Y12697D01*
X20972Y12707D01*
X20981Y12716D01*
X20791Y12897D02*
X20668Y12897D01*
X20734Y12821D01*
X20706Y12821D01*
X20687Y12811D01*
X20677Y12802D01*
X20668Y12783D01*
X20668Y12735D01*
X20677Y12716D01*
X20687Y12707D01*
X20706Y12697D01*
X20763Y12697D01*
X20782Y12707D01*
X20791Y12716D01*
X21969Y13135D02*
X21846Y13135D01*
X21912Y13059D01*
X21884Y13059D01*
X21865Y13049D01*
X21855Y13040D01*
X21846Y13021D01*
X21846Y12973D01*
X21855Y12954D01*
X21865Y12945D01*
X21884Y12935D01*
X21941Y12935D01*
X21960Y12945D01*
X21969Y12954D01*
X21779Y13135D02*
X21656Y13135D01*
X21722Y13059D01*
X21694Y13059D01*
X21675Y13049D01*
X21665Y13040D01*
X21656Y13021D01*
X21656Y12973D01*
X21665Y12954D01*
X21675Y12945D01*
X21694Y12935D01*
X21751Y12935D01*
X21770Y12945D01*
X21779Y12954D01*
X21007Y14446D02*
X20988Y14446D01*
X20969Y14437D01*
X20960Y14427D01*
X20950Y14408D01*
X20941Y14370D01*
X20941Y14322D01*
X20950Y14284D01*
X20960Y14265D01*
X20969Y14256D01*
X20988Y14246D01*
X21007Y14246D01*
X21026Y14256D01*
X21036Y14265D01*
X21045Y14284D01*
X21055Y14322D01*
X21055Y14370D01*
X21045Y14408D01*
X21036Y14427D01*
X21026Y14437D01*
X21007Y14446D01*
X20855Y14265D02*
X20846Y14256D01*
X20855Y14246D01*
X20865Y14256D01*
X20855Y14265D01*
X20855Y14246D01*
X20656Y14246D02*
X20770Y14246D01*
X20713Y14246D02*
X20713Y14446D01*
X20732Y14417D01*
X20751Y14398D01*
X20770Y14389D01*
X20485Y14379D02*
X20485Y14246D01*
X20570Y14379D02*
X20570Y14275D01*
X20561Y14256D01*
X20542Y14246D01*
X20513Y14246D01*
X20494Y14256D01*
X20485Y14265D01*
X20418Y14379D02*
X20342Y14379D01*
X20389Y14246D02*
X20389Y14417D01*
X20380Y14437D01*
X20361Y14446D01*
X20342Y14446D01*
X24739Y26986D02*
X24748Y26996D01*
X24758Y27024D01*
X24758Y27043D01*
X24748Y27072D01*
X24729Y27091D01*
X24710Y27100D01*
X24672Y27110D01*
X24644Y27110D01*
X24606Y27100D01*
X24587Y27091D01*
X24567Y27072D01*
X24558Y27043D01*
X24558Y27024D01*
X24567Y26996D01*
X24577Y26986D01*
X24644Y26872D02*
X24634Y26891D01*
X24625Y26900D01*
X24606Y26910D01*
X24596Y26910D01*
X24577Y26900D01*
X24567Y26891D01*
X24558Y26872D01*
X24558Y26834D01*
X24567Y26815D01*
X24577Y26805D01*
X24596Y26796D01*
X24606Y26796D01*
X24625Y26805D01*
X24634Y26815D01*
X24644Y26834D01*
X24644Y26872D01*
X24653Y26891D01*
X24663Y26900D01*
X24682Y26910D01*
X24720Y26910D01*
X24739Y26900D01*
X24748Y26891D01*
X24758Y26872D01*
X24758Y26834D01*
X24748Y26815D01*
X24739Y26805D01*
X24720Y26796D01*
X24682Y26796D01*
X24663Y26805D01*
X24653Y26815D01*
X24644Y26834D01*
X24558Y26625D02*
X24558Y26663D01*
X24567Y26682D01*
X24577Y26691D01*
X24606Y26710D01*
X24644Y26720D01*
X24720Y26720D01*
X24739Y26710D01*
X24748Y26701D01*
X24758Y26682D01*
X24758Y26644D01*
X24748Y26625D01*
X24739Y26615D01*
X24720Y26606D01*
X24672Y26606D01*
X24653Y26615D01*
X24644Y26625D01*
X24634Y26644D01*
X24634Y26682D01*
X24644Y26701D01*
X24653Y26710D01*
X24672Y26720D01*
X22518Y26753D02*
X22528Y26744D01*
X22556Y26734D01*
X22575Y26734D01*
X22604Y26744D01*
X22623Y26763D01*
X22632Y26782D01*
X22642Y26820D01*
X22642Y26848D01*
X22632Y26886D01*
X22623Y26905D01*
X22604Y26925D01*
X22575Y26934D01*
X22556Y26934D01*
X22528Y26925D01*
X22518Y26915D01*
X22423Y26734D02*
X22385Y26734D01*
X22366Y26744D01*
X22356Y26753D01*
X22337Y26782D01*
X22328Y26820D01*
X22328Y26896D01*
X22337Y26915D01*
X22347Y26925D01*
X22366Y26934D01*
X22404Y26934D01*
X22423Y26925D01*
X22432Y26915D01*
X22442Y26896D01*
X22442Y26848D01*
X22432Y26829D01*
X22423Y26820D01*
X22404Y26810D01*
X22366Y26810D01*
X22347Y26820D01*
X22337Y26829D01*
X22328Y26848D01*
X22233Y26734D02*
X22195Y26734D01*
X22176Y26744D01*
X22166Y26753D01*
X22147Y26782D01*
X22138Y26820D01*
X22138Y26896D01*
X22147Y26915D01*
X22157Y26925D01*
X22176Y26934D01*
X22214Y26934D01*
X22233Y26925D01*
X22242Y26915D01*
X22252Y26896D01*
X22252Y26848D01*
X22242Y26829D01*
X22233Y26820D01*
X22214Y26810D01*
X22176Y26810D01*
X22157Y26820D01*
X22147Y26829D01*
X22138Y26848D01*
X20751Y23536D02*
X20741Y23526D01*
X20732Y23507D01*
X20732Y23460D01*
X20741Y23441D01*
X20751Y23431D01*
X20770Y23422D01*
X20789Y23422D01*
X20818Y23431D01*
X20932Y23545D01*
X20932Y23422D01*
X20732Y23298D02*
X20732Y23279D01*
X20741Y23260D01*
X20751Y23251D01*
X20770Y23241D01*
X20808Y23232D01*
X20856Y23232D01*
X20894Y23241D01*
X20913Y23251D01*
X20922Y23260D01*
X20932Y23279D01*
X20932Y23298D01*
X20922Y23317D01*
X20913Y23327D01*
X20894Y23336D01*
X20856Y23346D01*
X20808Y23346D01*
X20770Y23336D01*
X20751Y23327D01*
X20741Y23317D01*
X20732Y23298D01*
X20732Y23108D02*
X20732Y23089D01*
X20741Y23070D01*
X20751Y23061D01*
X20770Y23051D01*
X20808Y23042D01*
X20856Y23042D01*
X20894Y23051D01*
X20913Y23061D01*
X20922Y23070D01*
X20932Y23089D01*
X20932Y23108D01*
X20922Y23127D01*
X20913Y23137D01*
X20894Y23146D01*
X20856Y23156D01*
X20808Y23156D01*
X20770Y23146D01*
X20751Y23137D01*
X20741Y23127D01*
X20732Y23108D01*
X-26207Y16031D02*
X-26226Y16031D01*
X-26245Y16022D01*
X-26254Y16012D01*
X-26264Y15993D01*
X-26273Y15955D01*
X-26273Y15907D01*
X-26264Y15869D01*
X-26254Y15850D01*
X-26245Y15841D01*
X-26226Y15831D01*
X-26207Y15831D01*
X-26188Y15841D01*
X-26178Y15850D01*
X-26169Y15869D01*
X-26159Y15907D01*
X-26159Y15955D01*
X-26169Y15993D01*
X-26178Y16012D01*
X-26188Y16022D01*
X-26207Y16031D01*
X-26359Y15850D02*
X-26368Y15841D01*
X-26359Y15831D01*
X-26349Y15841D01*
X-26359Y15850D01*
X-26359Y15831D01*
X-26492Y16031D02*
X-26511Y16031D01*
X-26530Y16022D01*
X-26539Y16012D01*
X-26549Y15993D01*
X-26558Y15955D01*
X-26558Y15907D01*
X-26549Y15869D01*
X-26539Y15850D01*
X-26530Y15841D01*
X-26511Y15831D01*
X-26492Y15831D01*
X-26473Y15841D01*
X-26463Y15850D01*
X-26454Y15869D01*
X-26444Y15907D01*
X-26444Y15955D01*
X-26454Y15993D01*
X-26463Y16012D01*
X-26473Y16022D01*
X-26492Y16031D01*
X-26748Y15831D02*
X-26634Y15831D01*
X-26691Y15831D02*
X-26691Y16031D01*
X-26672Y16002D01*
X-26653Y15983D01*
X-26634Y15974D01*
X-26919Y15964D02*
X-26919Y15831D01*
X-26834Y15964D02*
X-26834Y15860D01*
X-26843Y15841D01*
X-26862Y15831D01*
X-26891Y15831D01*
X-26910Y15841D01*
X-26919Y15850D01*
X-26986Y15964D02*
X-27062Y15964D01*
X-27015Y15831D02*
X-27015Y16002D01*
X-27024Y16022D01*
X-27043Y16031D01*
X-27062Y16031D01*
X-27222Y14913D02*
X-27108Y14913D01*
X-27165Y14913D02*
X-27165Y15113D01*
X-27146Y15084D01*
X-27127Y15065D01*
X-27108Y15056D01*
X-27393Y15046D02*
X-27393Y14913D01*
X-27308Y15046D02*
X-27308Y14942D01*
X-27317Y14923D01*
X-27336Y14913D01*
X-27365Y14913D01*
X-27384Y14923D01*
X-27393Y14932D01*
X-27460Y15046D02*
X-27536Y15046D01*
X-27489Y14913D02*
X-27489Y15084D01*
X-27498Y15104D01*
X-27517Y15113D01*
X-27536Y15113D01*
X-25327Y15205D02*
X-25327Y15319D01*
X-25327Y15262D02*
X-25527Y15262D01*
X-25498Y15281D01*
X-25479Y15300D01*
X-25470Y15319D01*
X-25527Y15081D02*
X-25527Y15062D01*
X-25518Y15043D01*
X-25508Y15034D01*
X-25489Y15024D01*
X-25451Y15015D01*
X-25403Y15015D01*
X-25365Y15024D01*
X-25346Y15034D01*
X-25337Y15043D01*
X-25327Y15062D01*
X-25327Y15081D01*
X-25337Y15100D01*
X-25346Y15110D01*
X-25365Y15119D01*
X-25403Y15129D01*
X-25451Y15129D01*
X-25489Y15119D01*
X-25508Y15110D01*
X-25518Y15100D01*
X-25527Y15081D01*
X-25460Y14844D02*
X-25327Y14844D01*
X-25460Y14929D02*
X-25356Y14929D01*
X-25337Y14920D01*
X-25327Y14901D01*
X-25327Y14872D01*
X-25337Y14853D01*
X-25346Y14844D01*
X-25460Y14777D02*
X-25460Y14701D01*
X-25327Y14748D02*
X-25498Y14748D01*
X-25518Y14739D01*
X-25527Y14720D01*
X-25527Y14701D01*
X-24028Y15024D02*
X-24019Y15034D01*
X-24009Y15062D01*
X-24009Y15081D01*
X-24019Y15110D01*
X-24038Y15129D01*
X-24057Y15138D01*
X-24095Y15148D01*
X-24123Y15148D01*
X-24161Y15138D01*
X-24180Y15129D01*
X-24200Y15110D01*
X-24209Y15081D01*
X-24209Y15062D01*
X-24200Y15034D01*
X-24190Y15024D01*
X-24009Y14834D02*
X-24009Y14948D01*
X-24009Y14891D02*
X-24209Y14891D01*
X-24180Y14910D01*
X-24161Y14929D01*
X-24152Y14948D01*
X-24209Y14767D02*
X-24209Y14644D01*
X-24133Y14710D01*
X-24133Y14682D01*
X-24123Y14663D01*
X-24114Y14653D01*
X-24095Y14644D01*
X-24047Y14644D01*
X-24028Y14653D01*
X-24019Y14663D01*
X-24009Y14682D01*
X-24009Y14739D01*
X-24019Y14758D01*
X-24028Y14767D01*
X-24209Y14520D02*
X-24209Y14501D01*
X-24200Y14482D01*
X-24190Y14473D01*
X-24171Y14463D01*
X-24133Y14454D01*
X-24085Y14454D01*
X-24047Y14463D01*
X-24028Y14473D01*
X-24019Y14482D01*
X-24009Y14501D01*
X-24009Y14520D01*
X-24019Y14539D01*
X-24028Y14549D01*
X-24047Y14558D01*
X-24085Y14568D01*
X-24133Y14568D01*
X-24171Y14558D01*
X-24190Y14549D01*
X-24200Y14539D01*
X-24209Y14520D01*
X-24837Y14793D02*
X-24837Y14907D01*
X-24837Y14850D02*
X-25037Y14850D01*
X-25008Y14869D01*
X-24989Y14888D01*
X-24980Y14907D01*
X-25037Y14669D02*
X-25037Y14650D01*
X-25028Y14631D01*
X-25018Y14622D01*
X-24999Y14612D01*
X-24961Y14603D01*
X-24913Y14603D01*
X-24875Y14612D01*
X-24856Y14622D01*
X-24847Y14631D01*
X-24837Y14650D01*
X-24837Y14669D01*
X-24847Y14688D01*
X-24856Y14698D01*
X-24875Y14707D01*
X-24913Y14717D01*
X-24961Y14717D01*
X-24999Y14707D01*
X-25018Y14698D01*
X-25028Y14688D01*
X-25037Y14669D01*
X-24970Y14432D02*
X-24837Y14432D01*
X-24970Y14517D02*
X-24866Y14517D01*
X-24847Y14508D01*
X-24837Y14489D01*
X-24837Y14460D01*
X-24847Y14441D01*
X-24856Y14432D01*
X-24970Y14365D02*
X-24970Y14289D01*
X-24837Y14336D02*
X-25008Y14336D01*
X-25028Y14327D01*
X-25037Y14308D01*
X-25037Y14289D01*
X-24060Y13255D02*
X-24050Y13246D01*
X-24022Y13236D01*
X-24003Y13236D01*
X-23974Y13246D01*
X-23955Y13265D01*
X-23946Y13284D01*
X-23936Y13322D01*
X-23936Y13350D01*
X-23946Y13388D01*
X-23955Y13407D01*
X-23974Y13427D01*
X-24003Y13436D01*
X-24022Y13436D01*
X-24050Y13427D01*
X-24060Y13417D01*
X-24250Y13236D02*
X-24136Y13236D01*
X-24193Y13236D02*
X-24193Y13436D01*
X-24174Y13407D01*
X-24155Y13388D01*
X-24136Y13379D01*
X-24317Y13436D02*
X-24440Y13436D01*
X-24374Y13360D01*
X-24402Y13360D01*
X-24421Y13350D01*
X-24431Y13341D01*
X-24440Y13322D01*
X-24440Y13274D01*
X-24431Y13255D01*
X-24421Y13246D01*
X-24402Y13236D01*
X-24345Y13236D01*
X-24326Y13246D01*
X-24317Y13255D01*
X-24507Y13436D02*
X-24630Y13436D01*
X-24564Y13360D01*
X-24592Y13360D01*
X-24611Y13350D01*
X-24621Y13341D01*
X-24630Y13322D01*
X-24630Y13274D01*
X-24621Y13255D01*
X-24611Y13246D01*
X-24592Y13236D01*
X-24535Y13236D01*
X-24516Y13246D01*
X-24507Y13255D01*
X-24068Y12735D02*
X-24087Y12735D01*
X-24106Y12726D01*
X-24115Y12716D01*
X-24125Y12697D01*
X-24134Y12659D01*
X-24134Y12611D01*
X-24125Y12573D01*
X-24115Y12554D01*
X-24106Y12545D01*
X-24087Y12535D01*
X-24068Y12535D01*
X-24049Y12545D01*
X-24039Y12554D01*
X-24030Y12573D01*
X-24020Y12611D01*
X-24020Y12659D01*
X-24030Y12697D01*
X-24039Y12716D01*
X-24049Y12726D01*
X-24068Y12735D01*
X-24220Y12554D02*
X-24229Y12545D01*
X-24220Y12535D01*
X-24210Y12545D01*
X-24220Y12554D01*
X-24220Y12535D01*
X-24419Y12535D02*
X-24305Y12535D01*
X-24362Y12535D02*
X-24362Y12735D01*
X-24343Y12706D01*
X-24324Y12687D01*
X-24305Y12678D01*
X-24590Y12668D02*
X-24590Y12535D01*
X-24505Y12668D02*
X-24505Y12564D01*
X-24514Y12545D01*
X-24533Y12535D01*
X-24562Y12535D01*
X-24581Y12545D01*
X-24590Y12554D01*
X-24657Y12668D02*
X-24733Y12668D01*
X-24686Y12535D02*
X-24686Y12706D01*
X-24695Y12726D01*
X-24714Y12735D01*
X-24733Y12735D01*
X-26919Y16246D02*
X-26909Y16237D01*
X-26881Y16227D01*
X-26862Y16227D01*
X-26833Y16237D01*
X-26814Y16256D01*
X-26805Y16275D01*
X-26795Y16313D01*
X-26795Y16341D01*
X-26805Y16379D01*
X-26814Y16398D01*
X-26833Y16418D01*
X-26862Y16427D01*
X-26881Y16427D01*
X-26909Y16418D01*
X-26919Y16408D01*
X-27109Y16227D02*
X-26995Y16227D01*
X-27052Y16227D02*
X-27052Y16427D01*
X-27033Y16398D01*
X-27014Y16379D01*
X-26995Y16370D01*
X-27176Y16427D02*
X-27299Y16427D01*
X-27233Y16351D01*
X-27261Y16351D01*
X-27280Y16341D01*
X-27290Y16332D01*
X-27299Y16313D01*
X-27299Y16265D01*
X-27290Y16246D01*
X-27280Y16237D01*
X-27261Y16227D01*
X-27204Y16227D01*
X-27185Y16237D01*
X-27176Y16246D01*
X-27480Y16427D02*
X-27385Y16427D01*
X-27375Y16332D01*
X-27385Y16341D01*
X-27404Y16351D01*
X-27451Y16351D01*
X-27470Y16341D01*
X-27480Y16332D01*
X-27489Y16313D01*
X-27489Y16265D01*
X-27480Y16246D01*
X-27470Y16237D01*
X-27451Y16227D01*
X-27404Y16227D01*
X-27385Y16237D01*
X-27375Y16246D01*
X-26843Y17078D02*
X-26862Y17078D01*
X-26881Y17069D01*
X-26890Y17059D01*
X-26900Y17040D01*
X-26909Y17002D01*
X-26909Y16954D01*
X-26900Y16916D01*
X-26890Y16897D01*
X-26881Y16888D01*
X-26862Y16878D01*
X-26843Y16878D01*
X-26824Y16888D01*
X-26814Y16897D01*
X-26805Y16916D01*
X-26795Y16954D01*
X-26795Y17002D01*
X-26805Y17040D01*
X-26814Y17059D01*
X-26824Y17069D01*
X-26843Y17078D01*
X-26995Y16897D02*
X-27004Y16888D01*
X-26995Y16878D01*
X-26985Y16888D01*
X-26995Y16897D01*
X-26995Y16878D01*
X-27194Y16878D02*
X-27080Y16878D01*
X-27137Y16878D02*
X-27137Y17078D01*
X-27118Y17049D01*
X-27099Y17030D01*
X-27080Y17021D01*
X-27365Y17011D02*
X-27365Y16878D01*
X-27280Y17011D02*
X-27280Y16907D01*
X-27289Y16888D01*
X-27308Y16878D01*
X-27337Y16878D01*
X-27356Y16888D01*
X-27365Y16897D01*
X-27432Y17011D02*
X-27508Y17011D01*
X-27461Y16878D02*
X-27461Y17049D01*
X-27470Y17069D01*
X-27489Y17078D01*
X-27508Y17078D01*
X-23456Y17950D02*
X-23446Y17941D01*
X-23418Y17931D01*
X-23399Y17931D01*
X-23370Y17941D01*
X-23351Y17960D01*
X-23342Y17979D01*
X-23332Y18017D01*
X-23332Y18045D01*
X-23342Y18083D01*
X-23351Y18102D01*
X-23370Y18122D01*
X-23399Y18131D01*
X-23418Y18131D01*
X-23446Y18122D01*
X-23456Y18112D01*
X-23646Y17931D02*
X-23532Y17931D01*
X-23589Y17931D02*
X-23589Y18131D01*
X-23570Y18102D01*
X-23551Y18083D01*
X-23532Y18074D01*
X-23817Y18064D02*
X-23817Y17931D01*
X-23770Y18141D02*
X-23722Y17998D01*
X-23846Y17998D01*
X-24017Y18131D02*
X-23922Y18131D01*
X-23912Y18036D01*
X-23922Y18045D01*
X-23941Y18055D01*
X-23988Y18055D01*
X-24007Y18045D01*
X-24017Y18036D01*
X-24026Y18017D01*
X-24026Y17969D01*
X-24017Y17950D01*
X-24007Y17941D01*
X-23988Y17931D01*
X-23941Y17931D01*
X-23922Y17941D01*
X-23912Y17950D01*
X-23322Y18878D02*
X-23341Y18878D01*
X-23360Y18869D01*
X-23369Y18859D01*
X-23379Y18840D01*
X-23388Y18802D01*
X-23388Y18754D01*
X-23379Y18716D01*
X-23369Y18697D01*
X-23360Y18688D01*
X-23341Y18678D01*
X-23322Y18678D01*
X-23303Y18688D01*
X-23293Y18697D01*
X-23284Y18716D01*
X-23274Y18754D01*
X-23274Y18802D01*
X-23284Y18840D01*
X-23293Y18859D01*
X-23303Y18869D01*
X-23322Y18878D01*
X-23474Y18697D02*
X-23483Y18688D01*
X-23474Y18678D01*
X-23464Y18688D01*
X-23474Y18697D01*
X-23474Y18678D01*
X-23673Y18678D02*
X-23559Y18678D01*
X-23616Y18678D02*
X-23616Y18878D01*
X-23597Y18849D01*
X-23578Y18830D01*
X-23559Y18821D01*
X-23844Y18811D02*
X-23844Y18678D01*
X-23759Y18811D02*
X-23759Y18707D01*
X-23768Y18688D01*
X-23787Y18678D01*
X-23816Y18678D01*
X-23835Y18688D01*
X-23844Y18697D01*
X-23911Y18811D02*
X-23987Y18811D01*
X-23940Y18678D02*
X-23940Y18849D01*
X-23949Y18869D01*
X-23968Y18878D01*
X-23987Y18878D01*
X-24944Y06094D02*
X-24934Y06085D01*
X-24906Y06075D01*
X-24887Y06075D01*
X-24858Y06085D01*
X-24839Y06104D01*
X-24830Y06123D01*
X-24820Y06161D01*
X-24820Y06189D01*
X-24830Y06227D01*
X-24839Y06246D01*
X-24858Y06266D01*
X-24887Y06275D01*
X-24906Y06275D01*
X-24934Y06266D01*
X-24944Y06256D01*
X-25134Y06075D02*
X-25020Y06075D01*
X-25077Y06075D02*
X-25077Y06275D01*
X-25058Y06246D01*
X-25039Y06227D01*
X-25020Y06218D01*
X-25305Y06208D02*
X-25305Y06075D01*
X-25258Y06285D02*
X-25210Y06142D01*
X-25334Y06142D01*
X-25419Y06075D02*
X-25457Y06075D01*
X-25476Y06085D01*
X-25486Y06094D01*
X-25505Y06123D01*
X-25514Y06161D01*
X-25514Y06237D01*
X-25505Y06256D01*
X-25495Y06266D01*
X-25476Y06275D01*
X-25438Y06275D01*
X-25419Y06266D01*
X-25410Y06256D01*
X-25400Y06237D01*
X-25400Y06189D01*
X-25410Y06170D01*
X-25419Y06161D01*
X-25438Y06151D01*
X-25476Y06151D01*
X-25495Y06161D01*
X-25505Y06170D01*
X-25514Y06189D01*
X-24868Y05563D02*
X-24887Y05563D01*
X-24906Y05554D01*
X-24915Y05544D01*
X-24925Y05525D01*
X-24934Y05487D01*
X-24934Y05439D01*
X-24925Y05401D01*
X-24915Y05382D01*
X-24906Y05373D01*
X-24887Y05363D01*
X-24868Y05363D01*
X-24849Y05373D01*
X-24839Y05382D01*
X-24830Y05401D01*
X-24820Y05439D01*
X-24820Y05487D01*
X-24830Y05525D01*
X-24839Y05544D01*
X-24849Y05554D01*
X-24868Y05563D01*
X-25020Y05382D02*
X-25029Y05373D01*
X-25020Y05363D01*
X-25010Y05373D01*
X-25020Y05382D01*
X-25020Y05363D01*
X-25219Y05363D02*
X-25105Y05363D01*
X-25162Y05363D02*
X-25162Y05563D01*
X-25143Y05534D01*
X-25124Y05515D01*
X-25105Y05506D01*
X-25390Y05496D02*
X-25390Y05363D01*
X-25305Y05496D02*
X-25305Y05392D01*
X-25314Y05373D01*
X-25333Y05363D01*
X-25362Y05363D01*
X-25381Y05373D01*
X-25390Y05382D01*
X-25457Y05496D02*
X-25533Y05496D01*
X-25486Y05363D02*
X-25486Y05534D01*
X-25495Y05554D01*
X-25514Y05563D01*
X-25533Y05563D01*
X-00041Y16488D02*
X-00041Y16469D01*
X-00032Y16450D01*
X-00022Y16441D01*
X-00003Y16431D01*
X00035Y16422D01*
X00083Y16422D01*
X00121Y16431D01*
X00140Y16441D01*
X00149Y16450D01*
X00159Y16469D01*
X00159Y16488D01*
X00149Y16507D01*
X00140Y16517D01*
X00121Y16526D01*
X00083Y16536D01*
X00035Y16536D01*
X-00003Y16526D01*
X-00022Y16517D01*
X-00032Y16507D01*
X-00041Y16488D01*
X00140Y16336D02*
X00149Y16327D01*
X00159Y16336D01*
X00149Y16346D01*
X00140Y16336D01*
X00159Y16336D01*
X-00041Y16203D02*
X-00041Y16184D01*
X-00032Y16165D01*
X-00022Y16156D01*
X-00003Y16146D01*
X00035Y16137D01*
X00083Y16137D01*
X00121Y16146D01*
X00140Y16156D01*
X00149Y16165D01*
X00159Y16184D01*
X00159Y16203D01*
X00149Y16222D01*
X00140Y16232D01*
X00121Y16241D01*
X00083Y16251D01*
X00035Y16251D01*
X-00003Y16241D01*
X-00022Y16232D01*
X-00032Y16222D01*
X-00041Y16203D01*
X00159Y15947D02*
X00159Y16061D01*
X00159Y16004D02*
X-00041Y16004D01*
X-00012Y16023D01*
X00007Y16042D01*
X00016Y16061D01*
X00026Y15776D02*
X00159Y15776D01*
X00026Y15861D02*
X00130Y15861D01*
X00149Y15852D01*
X00159Y15833D01*
X00159Y15804D01*
X00149Y15785D01*
X00140Y15776D01*
X00026Y15709D02*
X00026Y15633D01*
X00159Y15680D02*
X-00012Y15680D01*
X-00032Y15671D01*
X-00041Y15652D01*
X-00041Y15633D01*
X-00745Y14828D02*
X-00764Y14828D01*
X-00783Y14819D01*
X-00792Y14809D01*
X-00802Y14790D01*
X-00811Y14752D01*
X-00811Y14704D01*
X-00802Y14666D01*
X-00792Y14647D01*
X-00783Y14638D01*
X-00764Y14628D01*
X-00745Y14628D01*
X-00726Y14638D01*
X-00716Y14647D01*
X-00707Y14666D01*
X-00697Y14704D01*
X-00697Y14752D01*
X-00707Y14790D01*
X-00716Y14809D01*
X-00726Y14819D01*
X-00745Y14828D01*
X-00897Y14647D02*
X-00906Y14638D01*
X-00897Y14628D01*
X-00887Y14638D01*
X-00897Y14647D01*
X-00897Y14628D01*
X-01096Y14628D02*
X-00982Y14628D01*
X-01039Y14628D02*
X-01039Y14828D01*
X-01020Y14799D01*
X-01001Y14780D01*
X-00982Y14771D01*
X-01267Y14761D02*
X-01267Y14628D01*
X-01182Y14761D02*
X-01182Y14657D01*
X-01191Y14638D01*
X-01210Y14628D01*
X-01239Y14628D01*
X-01258Y14638D01*
X-01267Y14647D01*
X-01334Y14761D02*
X-01410Y14761D01*
X-01363Y14628D02*
X-01363Y14799D01*
X-01372Y14819D01*
X-01391Y14828D01*
X-01410Y14828D01*
X00772Y16833D02*
X00772Y16947D01*
X00772Y16890D02*
X00572Y16890D01*
X00601Y16909D01*
X00620Y16928D01*
X00629Y16947D01*
X00639Y16662D02*
X00772Y16662D01*
X00639Y16747D02*
X00743Y16747D01*
X00762Y16738D01*
X00772Y16719D01*
X00772Y16690D01*
X00762Y16671D01*
X00753Y16662D01*
X00639Y16595D02*
X00639Y16519D01*
X00772Y16566D02*
X00601Y16566D01*
X00581Y16557D01*
X00572Y16538D01*
X00572Y16519D01*
X01371Y17198D02*
X01371Y17312D01*
X01371Y17255D02*
X01171Y17255D01*
X01200Y17274D01*
X01219Y17293D01*
X01228Y17312D01*
X01171Y17074D02*
X01171Y17055D01*
X01180Y17036D01*
X01190Y17027D01*
X01209Y17017D01*
X01247Y17008D01*
X01295Y17008D01*
X01333Y17017D01*
X01352Y17027D01*
X01361Y17036D01*
X01371Y17055D01*
X01371Y17074D01*
X01361Y17093D01*
X01352Y17103D01*
X01333Y17112D01*
X01295Y17122D01*
X01247Y17122D01*
X01209Y17112D01*
X01190Y17103D01*
X01180Y17093D01*
X01171Y17074D01*
X01238Y16837D02*
X01371Y16837D01*
X01238Y16922D02*
X01342Y16922D01*
X01361Y16913D01*
X01371Y16894D01*
X01371Y16865D01*
X01361Y16846D01*
X01352Y16837D01*
X01238Y16770D02*
X01238Y16694D01*
X01371Y16741D02*
X01200Y16741D01*
X01180Y16732D01*
X01171Y16713D01*
X01171Y16694D01*
X03540Y09229D02*
X03550Y09220D01*
X03578Y09210D01*
X03597Y09210D01*
X03626Y09220D01*
X03645Y09239D01*
X03654Y09258D01*
X03664Y09296D01*
X03664Y09324D01*
X03654Y09362D01*
X03645Y09381D01*
X03626Y09401D01*
X03597Y09410D01*
X03578Y09410D01*
X03550Y09401D01*
X03540Y09391D01*
X03359Y09410D02*
X03454Y09410D01*
X03464Y09315D01*
X03454Y09324D01*
X03435Y09334D01*
X03388Y09334D01*
X03369Y09324D01*
X03359Y09315D01*
X03350Y09296D01*
X03350Y09248D01*
X03359Y09229D01*
X03369Y09220D01*
X03388Y09210D01*
X03435Y09210D01*
X03454Y09220D01*
X03464Y09229D01*
X03226Y09410D02*
X03207Y09410D01*
X03188Y09401D01*
X03179Y09391D01*
X03169Y09372D01*
X03160Y09334D01*
X03160Y09286D01*
X03169Y09248D01*
X03179Y09229D01*
X03188Y09220D01*
X03207Y09210D01*
X03226Y09210D01*
X03245Y09220D01*
X03255Y09229D01*
X03264Y09248D01*
X03274Y09286D01*
X03274Y09334D01*
X03264Y09372D01*
X03255Y09391D01*
X03245Y09401D01*
X03226Y09410D01*
X03607Y08448D02*
X03588Y08448D01*
X03569Y08439D01*
X03560Y08429D01*
X03550Y08410D01*
X03541Y08372D01*
X03541Y08324D01*
X03550Y08286D01*
X03560Y08267D01*
X03569Y08258D01*
X03588Y08248D01*
X03607Y08248D01*
X03626Y08258D01*
X03636Y08267D01*
X03645Y08286D01*
X03655Y08324D01*
X03655Y08372D01*
X03645Y08410D01*
X03636Y08429D01*
X03626Y08439D01*
X03607Y08448D01*
X03455Y08267D02*
X03446Y08258D01*
X03455Y08248D01*
X03465Y08258D01*
X03455Y08267D01*
X03455Y08248D01*
X03256Y08248D02*
X03370Y08248D01*
X03313Y08248D02*
X03313Y08448D01*
X03332Y08419D01*
X03351Y08400D01*
X03370Y08391D01*
X03085Y08381D02*
X03085Y08248D01*
X03170Y08381D02*
X03170Y08277D01*
X03161Y08258D01*
X03142Y08248D01*
X03113Y08248D01*
X03094Y08258D01*
X03085Y08267D01*
X03018Y08381D02*
X02942Y08381D01*
X02989Y08248D02*
X02989Y08419D01*
X02980Y08439D01*
X02961Y08448D01*
X02942Y08448D01*
X-00422Y07125D02*
X-00412Y07116D01*
X-00384Y07106D01*
X-00365Y07106D01*
X-00336Y07116D01*
X-00317Y07135D01*
X-00308Y07154D01*
X-00298Y07192D01*
X-00298Y07220D01*
X-00308Y07258D01*
X-00317Y07277D01*
X-00336Y07297D01*
X-00365Y07306D01*
X-00384Y07306D01*
X-00412Y07297D01*
X-00422Y07287D01*
X-00603Y07306D02*
X-00508Y07306D01*
X-00498Y07211D01*
X-00508Y07220D01*
X-00527Y07230D01*
X-00574Y07230D01*
X-00593Y07220D01*
X-00603Y07211D01*
X-00612Y07192D01*
X-00612Y07144D01*
X-00603Y07125D01*
X-00593Y07116D01*
X-00574Y07106D01*
X-00527Y07106D01*
X-00508Y07116D01*
X-00498Y07125D01*
X-00688Y07287D02*
X-00698Y07297D01*
X-00717Y07306D01*
X-00764Y07306D01*
X-00783Y07297D01*
X-00793Y07287D01*
X-00802Y07268D01*
X-00802Y07249D01*
X-00793Y07220D01*
X-00679Y07106D01*
X-00802Y07106D01*
X-00355Y06490D02*
X-00374Y06490D01*
X-00393Y06481D01*
X-00402Y06471D01*
X-00412Y06452D01*
X-00421Y06414D01*
X-00421Y06366D01*
X-00412Y06328D01*
X-00402Y06309D01*
X-00393Y06300D01*
X-00374Y06290D01*
X-00355Y06290D01*
X-00336Y06300D01*
X-00326Y06309D01*
X-00317Y06328D01*
X-00307Y06366D01*
X-00307Y06414D01*
X-00317Y06452D01*
X-00326Y06471D01*
X-00336Y06481D01*
X-00355Y06490D01*
X-00507Y06309D02*
X-00516Y06300D01*
X-00507Y06290D01*
X-00497Y06300D01*
X-00507Y06309D01*
X-00507Y06290D01*
X-00706Y06290D02*
X-00592Y06290D01*
X-00649Y06290D02*
X-00649Y06490D01*
X-00630Y06461D01*
X-00611Y06442D01*
X-00592Y06433D01*
X-00877Y06423D02*
X-00877Y06290D01*
X-00792Y06423D02*
X-00792Y06319D01*
X-00801Y06300D01*
X-00820Y06290D01*
X-00849Y06290D01*
X-00868Y06300D01*
X-00877Y06309D01*
X-00944Y06423D02*
X-01020Y06423D01*
X-00973Y06290D02*
X-00973Y06461D01*
X-00982Y06481D01*
X-01001Y06490D01*
X-01020Y06490D01*
X02778Y07025D02*
X02788Y07016D01*
X02816Y07006D01*
X02835Y07006D01*
X02864Y07016D01*
X02883Y07035D01*
X02892Y07054D01*
X02902Y07092D01*
X02902Y07120D01*
X02892Y07158D01*
X02883Y07177D01*
X02864Y07197D01*
X02835Y07206D01*
X02816Y07206D01*
X02788Y07197D01*
X02778Y07187D01*
X02597Y07206D02*
X02692Y07206D01*
X02702Y07111D01*
X02692Y07120D01*
X02673Y07130D01*
X02626Y07130D01*
X02607Y07120D01*
X02597Y07111D01*
X02588Y07092D01*
X02588Y07044D01*
X02597Y07025D01*
X02607Y07016D01*
X02626Y07006D01*
X02673Y07006D01*
X02692Y07016D01*
X02702Y07025D01*
X02398Y07006D02*
X02512Y07006D01*
X02455Y07006D02*
X02455Y07206D01*
X02474Y07177D01*
X02493Y07158D01*
X02512Y07149D01*
X03032Y06348D02*
X03013Y06348D01*
X02994Y06339D01*
X02985Y06329D01*
X02975Y06310D01*
X02966Y06272D01*
X02966Y06224D01*
X02975Y06186D01*
X02985Y06167D01*
X02994Y06158D01*
X03013Y06148D01*
X03032Y06148D01*
X03051Y06158D01*
X03061Y06167D01*
X03070Y06186D01*
X03080Y06224D01*
X03080Y06272D01*
X03070Y06310D01*
X03061Y06329D01*
X03051Y06339D01*
X03032Y06348D01*
X02880Y06167D02*
X02871Y06158D01*
X02880Y06148D01*
X02890Y06158D01*
X02880Y06167D01*
X02880Y06148D01*
X02681Y06148D02*
X02795Y06148D01*
X02738Y06148D02*
X02738Y06348D01*
X02757Y06319D01*
X02776Y06300D01*
X02795Y06291D01*
X02510Y06281D02*
X02510Y06148D01*
X02595Y06281D02*
X02595Y06177D01*
X02586Y06158D01*
X02567Y06148D01*
X02538Y06148D01*
X02519Y06158D01*
X02510Y06167D01*
X02443Y06281D02*
X02367Y06281D01*
X02414Y06148D02*
X02414Y06319D01*
X02405Y06339D01*
X02386Y06348D01*
X02367Y06348D01*
X-31527Y13614D02*
X-31517Y13605D01*
X-31489Y13595D01*
X-31470Y13595D01*
X-31441Y13605D01*
X-31422Y13624D01*
X-31413Y13643D01*
X-31403Y13681D01*
X-31403Y13709D01*
X-31413Y13747D01*
X-31422Y13766D01*
X-31441Y13786D01*
X-31470Y13795D01*
X-31489Y13795D01*
X-31517Y13786D01*
X-31527Y13776D01*
X-31603Y13776D02*
X-31613Y13786D01*
X-31632Y13795D01*
X-31679Y13795D01*
X-31698Y13786D01*
X-31708Y13776D01*
X-31717Y13757D01*
X-31717Y13738D01*
X-31708Y13709D01*
X-31594Y13595D01*
X-31717Y13595D01*
X-31793Y13776D02*
X-31803Y13786D01*
X-31822Y13795D01*
X-31869Y13795D01*
X-31888Y13786D01*
X-31898Y13776D01*
X-31907Y13757D01*
X-31907Y13738D01*
X-31898Y13709D01*
X-31784Y13595D01*
X-31907Y13595D01*
X-32088Y13795D02*
X-31993Y13795D01*
X-31983Y13700D01*
X-31993Y13709D01*
X-32012Y13719D01*
X-32059Y13719D01*
X-32078Y13709D01*
X-32088Y13700D01*
X-32097Y13681D01*
X-32097Y13633D01*
X-32088Y13614D01*
X-32078Y13605D01*
X-32059Y13595D01*
X-32012Y13595D01*
X-31993Y13605D01*
X-31983Y13614D01*
X-31468Y13043D02*
X-31487Y13043D01*
X-31506Y13034D01*
X-31515Y13024D01*
X-31525Y13005D01*
X-31534Y12967D01*
X-31534Y12919D01*
X-31525Y12881D01*
X-31515Y12862D01*
X-31506Y12853D01*
X-31487Y12843D01*
X-31468Y12843D01*
X-31449Y12853D01*
X-31439Y12862D01*
X-31430Y12881D01*
X-31420Y12919D01*
X-31420Y12967D01*
X-31430Y13005D01*
X-31439Y13024D01*
X-31449Y13034D01*
X-31468Y13043D01*
X-31620Y12862D02*
X-31629Y12853D01*
X-31620Y12843D01*
X-31610Y12853D01*
X-31620Y12862D01*
X-31620Y12843D01*
X-31819Y12843D02*
X-31705Y12843D01*
X-31762Y12843D02*
X-31762Y13043D01*
X-31743Y13014D01*
X-31724Y12995D01*
X-31705Y12986D01*
X-31990Y12976D02*
X-31990Y12843D01*
X-31905Y12976D02*
X-31905Y12872D01*
X-31914Y12853D01*
X-31933Y12843D01*
X-31962Y12843D01*
X-31981Y12853D01*
X-31990Y12862D01*
X-32057Y12976D02*
X-32133Y12976D01*
X-32086Y12843D02*
X-32086Y13014D01*
X-32095Y13034D01*
X-32114Y13043D01*
X-32133Y13043D01*
X26362Y13104D02*
X26524Y13104D01*
X26543Y13095D01*
X26552Y13085D01*
X26562Y13066D01*
X26562Y13028D01*
X26552Y13009D01*
X26543Y13000D01*
X26524Y12990D01*
X26362Y12990D01*
X26362Y12913D02*
X26362Y12790D01*
X26438Y12856D01*
X26438Y12828D01*
X26448Y12809D01*
X26457Y12799D01*
X26476Y12790D01*
X26524Y12790D01*
X26543Y12799D01*
X26552Y12809D01*
X26562Y12828D01*
X26562Y12885D01*
X26552Y12904D01*
X26543Y12913D01*
X26362Y12723D02*
X26362Y12600D01*
X26438Y12666D01*
X26438Y12638D01*
X26448Y12619D01*
X26457Y12609D01*
X26476Y12600D01*
X26524Y12600D01*
X26543Y12609D01*
X26552Y12619D01*
X26562Y12638D01*
X26562Y12695D01*
X26552Y12714D01*
X26543Y12723D01*
X23508Y27072D02*
X23670Y27072D01*
X23689Y27063D01*
X23698Y27053D01*
X23708Y27034D01*
X23708Y26996D01*
X23698Y26977D01*
X23689Y26968D01*
X23670Y26958D01*
X23508Y26958D01*
X23575Y26777D02*
X23708Y26777D01*
X23498Y26824D02*
X23641Y26872D01*
X23641Y26748D01*
X23708Y26568D02*
X23708Y26682D01*
X23708Y26625D02*
X23508Y26625D01*
X23537Y26644D01*
X23556Y26663D01*
X23565Y26682D01*
X23725Y22322D02*
X23887Y22322D01*
X23906Y22313D01*
X23915Y22303D01*
X23925Y22284D01*
X23925Y22246D01*
X23915Y22227D01*
X23906Y22218D01*
X23887Y22208D01*
X23725Y22208D01*
X23792Y22027D02*
X23925Y22027D01*
X23715Y22074D02*
X23858Y22122D01*
X23858Y21998D01*
X23725Y21941D02*
X23725Y21818D01*
X23801Y21884D01*
X23801Y21856D01*
X23811Y21837D01*
X23820Y21827D01*
X23839Y21818D01*
X23887Y21818D01*
X23906Y21827D01*
X23915Y21837D01*
X23925Y21856D01*
X23925Y21913D01*
X23915Y21932D01*
X23906Y21941D01*
X05930Y12846D02*
X05940Y12837D01*
X05968Y12827D01*
X05987Y12827D01*
X06016Y12837D01*
X06035Y12856D01*
X06044Y12875D01*
X06054Y12913D01*
X06054Y12941D01*
X06044Y12979D01*
X06035Y12998D01*
X06016Y13018D01*
X05987Y13027D01*
X05968Y13027D01*
X05940Y13018D01*
X05930Y13008D01*
X05854Y13008D02*
X05844Y13018D01*
X05825Y13027D01*
X05778Y13027D01*
X05759Y13018D01*
X05749Y13008D01*
X05740Y12989D01*
X05740Y12970D01*
X05749Y12941D01*
X05863Y12827D01*
X05740Y12827D01*
X05569Y12960D02*
X05569Y12827D01*
X05616Y13037D02*
X05664Y12894D01*
X05540Y12894D01*
X05436Y12941D02*
X05455Y12951D01*
X05464Y12960D01*
X05474Y12979D01*
X05474Y12989D01*
X05464Y13008D01*
X05455Y13018D01*
X05436Y13027D01*
X05398Y13027D01*
X05379Y13018D01*
X05369Y13008D01*
X05360Y12989D01*
X05360Y12979D01*
X05369Y12960D01*
X05379Y12951D01*
X05398Y12941D01*
X05436Y12941D01*
X05455Y12932D01*
X05464Y12922D01*
X05474Y12903D01*
X05474Y12865D01*
X05464Y12846D01*
X05455Y12837D01*
X05436Y12827D01*
X05398Y12827D01*
X05379Y12837D01*
X05369Y12846D01*
X05360Y12865D01*
X05360Y12903D01*
X05369Y12922D01*
X05379Y12932D01*
X05398Y12941D01*
X06716Y12644D02*
X06697Y12644D01*
X06678Y12635D01*
X06669Y12625D01*
X06659Y12606D01*
X06650Y12568D01*
X06650Y12520D01*
X06659Y12482D01*
X06669Y12463D01*
X06678Y12454D01*
X06697Y12444D01*
X06716Y12444D01*
X06735Y12454D01*
X06745Y12463D01*
X06754Y12482D01*
X06764Y12520D01*
X06764Y12568D01*
X06754Y12606D01*
X06745Y12625D01*
X06735Y12635D01*
X06716Y12644D01*
X06564Y12463D02*
X06555Y12454D01*
X06564Y12444D01*
X06574Y12454D01*
X06564Y12463D01*
X06564Y12444D01*
X06365Y12444D02*
X06479Y12444D01*
X06422Y12444D02*
X06422Y12644D01*
X06441Y12615D01*
X06460Y12596D01*
X06479Y12587D01*
X06194Y12577D02*
X06194Y12444D01*
X06279Y12577D02*
X06279Y12473D01*
X06270Y12454D01*
X06251Y12444D01*
X06222Y12444D01*
X06203Y12454D01*
X06194Y12463D01*
X06127Y12577D02*
X06051Y12577D01*
X06098Y12444D02*
X06098Y12615D01*
X06089Y12635D01*
X06070Y12644D01*
X06051Y12644D01*
X-32716Y07612D02*
X-32707Y07622D01*
X-32697Y07650D01*
X-32697Y07669D01*
X-32707Y07698D01*
X-32726Y07717D01*
X-32745Y07726D01*
X-32783Y07736D01*
X-32811Y07736D01*
X-32849Y07726D01*
X-32868Y07717D01*
X-32888Y07698D01*
X-32897Y07669D01*
X-32897Y07650D01*
X-32888Y07622D01*
X-32878Y07612D01*
X-32878Y07536D02*
X-32888Y07526D01*
X-32897Y07507D01*
X-32897Y07460D01*
X-32888Y07441D01*
X-32878Y07431D01*
X-32859Y07422D01*
X-32840Y07422D01*
X-32811Y07431D01*
X-32697Y07545D01*
X-32697Y07422D01*
X-32830Y07251D02*
X-32697Y07251D01*
X-32907Y07298D02*
X-32764Y07346D01*
X-32764Y07222D01*
X-32697Y07137D02*
X-32697Y07099D01*
X-32707Y07080D01*
X-32716Y07070D01*
X-32745Y07051D01*
X-32783Y07042D01*
X-32859Y07042D01*
X-32878Y07051D01*
X-32888Y07061D01*
X-32897Y07080D01*
X-32897Y07118D01*
X-32888Y07137D01*
X-32878Y07146D01*
X-32859Y07156D01*
X-32811Y07156D01*
X-32792Y07146D01*
X-32783Y07137D01*
X-32773Y07118D01*
X-32773Y07080D01*
X-32783Y07061D01*
X-32792Y07051D01*
X-32811Y07042D01*
X-31940Y07788D02*
X-31950Y07778D01*
X-31959Y07759D01*
X-31959Y07712D01*
X-31950Y07693D01*
X-31940Y07683D01*
X-31921Y07674D01*
X-31902Y07674D01*
X-31873Y07683D01*
X-31759Y07797D01*
X-31759Y07674D01*
X-31778Y07588D02*
X-31769Y07579D01*
X-31759Y07588D01*
X-31769Y07598D01*
X-31778Y07588D01*
X-31759Y07588D01*
X-31940Y07503D02*
X-31950Y07493D01*
X-31959Y07474D01*
X-31959Y07427D01*
X-31950Y07408D01*
X-31940Y07398D01*
X-31921Y07389D01*
X-31902Y07389D01*
X-31873Y07398D01*
X-31759Y07512D01*
X-31759Y07389D01*
X-31892Y07218D02*
X-31759Y07218D01*
X-31892Y07303D02*
X-31788Y07303D01*
X-31769Y07294D01*
X-31759Y07275D01*
X-31759Y07246D01*
X-31769Y07227D01*
X-31778Y07218D01*
X-31892Y07151D02*
X-31892Y07075D01*
X-31759Y07122D02*
X-31930Y07122D01*
X-31950Y07113D01*
X-31959Y07094D01*
X-31959Y07075D01*
X-32706Y19607D02*
X-32697Y19617D01*
X-32687Y19645D01*
X-32687Y19664D01*
X-32697Y19693D01*
X-32716Y19712D01*
X-32735Y19721D01*
X-32773Y19731D01*
X-32801Y19731D01*
X-32839Y19721D01*
X-32858Y19712D01*
X-32878Y19693D01*
X-32887Y19664D01*
X-32887Y19645D01*
X-32878Y19617D01*
X-32868Y19607D01*
X-32868Y19531D02*
X-32878Y19521D01*
X-32887Y19502D01*
X-32887Y19455D01*
X-32878Y19436D01*
X-32868Y19426D01*
X-32849Y19417D01*
X-32830Y19417D01*
X-32801Y19426D01*
X-32687Y19540D01*
X-32687Y19417D01*
X-32887Y19236D02*
X-32887Y19331D01*
X-32792Y19341D01*
X-32801Y19331D01*
X-32811Y19312D01*
X-32811Y19265D01*
X-32801Y19246D01*
X-32792Y19236D01*
X-32773Y19227D01*
X-32725Y19227D01*
X-32706Y19236D01*
X-32697Y19246D01*
X-32687Y19265D01*
X-32687Y19312D01*
X-32697Y19331D01*
X-32706Y19341D01*
X-32887Y19103D02*
X-32887Y19084D01*
X-32878Y19065D01*
X-32868Y19056D01*
X-32849Y19046D01*
X-32811Y19037D01*
X-32763Y19037D01*
X-32725Y19046D01*
X-32706Y19056D01*
X-32697Y19065D01*
X-32687Y19084D01*
X-32687Y19103D01*
X-32697Y19122D01*
X-32706Y19132D01*
X-32725Y19141D01*
X-32763Y19151D01*
X-32811Y19151D01*
X-32849Y19141D01*
X-32868Y19132D01*
X-32878Y19122D01*
X-32887Y19103D01*
X-31999Y19706D02*
X-32009Y19696D01*
X-32018Y19677D01*
X-32018Y19630D01*
X-32009Y19611D01*
X-31999Y19601D01*
X-31980Y19592D01*
X-31961Y19592D01*
X-31932Y19601D01*
X-31818Y19715D01*
X-31818Y19592D01*
X-31837Y19506D02*
X-31828Y19497D01*
X-31818Y19506D01*
X-31828Y19516D01*
X-31837Y19506D01*
X-31818Y19506D01*
X-31999Y19421D02*
X-32009Y19411D01*
X-32018Y19392D01*
X-32018Y19345D01*
X-32009Y19326D01*
X-31999Y19316D01*
X-31980Y19307D01*
X-31961Y19307D01*
X-31932Y19316D01*
X-31818Y19430D01*
X-31818Y19307D01*
X-31951Y19136D02*
X-31818Y19136D01*
X-31951Y19221D02*
X-31847Y19221D01*
X-31828Y19212D01*
X-31818Y19193D01*
X-31818Y19164D01*
X-31828Y19145D01*
X-31837Y19136D01*
X-31951Y19069D02*
X-31951Y18993D01*
X-31818Y19040D02*
X-31989Y19040D01*
X-32009Y19031D01*
X-32018Y19012D01*
X-32018Y18993D01*
X-31882Y06500D02*
X-31873Y06510D01*
X-31863Y06538D01*
X-31863Y06557D01*
X-31873Y06586D01*
X-31892Y06605D01*
X-31911Y06614D01*
X-31949Y06624D01*
X-31977Y06624D01*
X-32015Y06614D01*
X-32034Y06605D01*
X-32054Y06586D01*
X-32063Y06557D01*
X-32063Y06538D01*
X-32054Y06510D01*
X-32044Y06500D01*
X-32044Y06424D02*
X-32054Y06414D01*
X-32063Y06395D01*
X-32063Y06348D01*
X-32054Y06329D01*
X-32044Y06319D01*
X-32025Y06310D01*
X-32006Y06310D01*
X-31977Y06319D01*
X-31863Y06433D01*
X-31863Y06310D01*
X-32063Y06129D02*
X-32063Y06224D01*
X-31968Y06234D01*
X-31977Y06224D01*
X-31987Y06205D01*
X-31987Y06158D01*
X-31977Y06139D01*
X-31968Y06129D01*
X-31949Y06120D01*
X-31901Y06120D01*
X-31882Y06129D01*
X-31873Y06139D01*
X-31863Y06158D01*
X-31863Y06205D01*
X-31873Y06224D01*
X-31882Y06234D01*
X-31863Y05930D02*
X-31863Y06044D01*
X-31863Y05987D02*
X-32063Y05987D01*
X-32034Y06006D01*
X-32015Y06025D01*
X-32006Y06044D01*
X-32756Y06537D02*
X-32766Y06527D01*
X-32775Y06508D01*
X-32775Y06461D01*
X-32766Y06442D01*
X-32756Y06432D01*
X-32737Y06423D01*
X-32718Y06423D01*
X-32689Y06432D01*
X-32575Y06546D01*
X-32575Y06423D01*
X-32594Y06337D02*
X-32585Y06328D01*
X-32575Y06337D01*
X-32585Y06347D01*
X-32594Y06337D01*
X-32575Y06337D01*
X-32756Y06252D02*
X-32766Y06242D01*
X-32775Y06223D01*
X-32775Y06176D01*
X-32766Y06157D01*
X-32756Y06147D01*
X-32737Y06138D01*
X-32718Y06138D01*
X-32689Y06147D01*
X-32575Y06261D01*
X-32575Y06138D01*
X-32708Y05967D02*
X-32575Y05967D01*
X-32708Y06052D02*
X-32604Y06052D01*
X-32585Y06043D01*
X-32575Y06024D01*
X-32575Y05995D01*
X-32585Y05976D01*
X-32594Y05967D01*
X-32708Y05900D02*
X-32708Y05824D01*
X-32575Y05871D02*
X-32746Y05871D01*
X-32766Y05862D01*
X-32775Y05843D01*
X-32775Y05824D01*
X-31745Y18372D02*
X-31736Y18382D01*
X-31726Y18410D01*
X-31726Y18429D01*
X-31736Y18458D01*
X-31755Y18477D01*
X-31774Y18486D01*
X-31812Y18496D01*
X-31840Y18496D01*
X-31878Y18486D01*
X-31897Y18477D01*
X-31917Y18458D01*
X-31926Y18429D01*
X-31926Y18410D01*
X-31917Y18382D01*
X-31907Y18372D01*
X-31907Y18296D02*
X-31917Y18286D01*
X-31926Y18267D01*
X-31926Y18220D01*
X-31917Y18201D01*
X-31907Y18191D01*
X-31888Y18182D01*
X-31869Y18182D01*
X-31840Y18191D01*
X-31726Y18305D01*
X-31726Y18182D01*
X-31926Y18001D02*
X-31926Y18096D01*
X-31831Y18106D01*
X-31840Y18096D01*
X-31850Y18077D01*
X-31850Y18030D01*
X-31840Y18011D01*
X-31831Y18001D01*
X-31812Y17992D01*
X-31764Y17992D01*
X-31745Y18001D01*
X-31736Y18011D01*
X-31726Y18030D01*
X-31726Y18077D01*
X-31736Y18096D01*
X-31745Y18106D01*
X-31907Y17916D02*
X-31917Y17906D01*
X-31926Y17887D01*
X-31926Y17840D01*
X-31917Y17821D01*
X-31907Y17811D01*
X-31888Y17802D01*
X-31869Y17802D01*
X-31840Y17811D01*
X-31726Y17925D01*
X-31726Y17802D01*
X-32751Y18496D02*
X-32761Y18486D01*
X-32770Y18467D01*
X-32770Y18420D01*
X-32761Y18401D01*
X-32751Y18391D01*
X-32732Y18382D01*
X-32713Y18382D01*
X-32684Y18391D01*
X-32570Y18505D01*
X-32570Y18382D01*
X-32589Y18296D02*
X-32580Y18287D01*
X-32570Y18296D01*
X-32580Y18306D01*
X-32589Y18296D01*
X-32570Y18296D01*
X-32751Y18211D02*
X-32761Y18201D01*
X-32770Y18182D01*
X-32770Y18135D01*
X-32761Y18116D01*
X-32751Y18106D01*
X-32732Y18097D01*
X-32713Y18097D01*
X-32684Y18106D01*
X-32570Y18220D01*
X-32570Y18097D01*
X-32703Y17926D02*
X-32570Y17926D01*
X-32703Y18011D02*
X-32599Y18011D01*
X-32580Y18002D01*
X-32570Y17983D01*
X-32570Y17954D01*
X-32580Y17935D01*
X-32589Y17926D01*
X-32703Y17859D02*
X-32703Y17783D01*
X-32570Y17830D02*
X-32741Y17830D01*
X-32761Y17821D01*
X-32770Y17802D01*
X-32770Y17783D01*
X-23457Y14138D02*
X-23447Y14129D01*
X-23419Y14119D01*
X-23400Y14119D01*
X-23371Y14129D01*
X-23352Y14148D01*
X-23343Y14167D01*
X-23333Y14205D01*
X-23333Y14233D01*
X-23343Y14271D01*
X-23352Y14290D01*
X-23371Y14310D01*
X-23400Y14319D01*
X-23419Y14319D01*
X-23447Y14310D01*
X-23457Y14300D01*
X-23533Y14300D02*
X-23543Y14310D01*
X-23562Y14319D01*
X-23609Y14319D01*
X-23628Y14310D01*
X-23638Y14300D01*
X-23647Y14281D01*
X-23647Y14262D01*
X-23638Y14233D01*
X-23524Y14119D01*
X-23647Y14119D01*
X-23828Y14319D02*
X-23733Y14319D01*
X-23723Y14224D01*
X-23733Y14233D01*
X-23752Y14243D01*
X-23799Y14243D01*
X-23818Y14233D01*
X-23828Y14224D01*
X-23837Y14205D01*
X-23837Y14157D01*
X-23828Y14138D01*
X-23818Y14129D01*
X-23799Y14119D01*
X-23752Y14119D01*
X-23733Y14129D01*
X-23723Y14138D01*
X-23904Y14319D02*
X-24027Y14319D01*
X-23961Y14243D01*
X-23989Y14243D01*
X-24008Y14233D01*
X-24018Y14224D01*
X-24027Y14205D01*
X-24027Y14157D01*
X-24018Y14138D01*
X-24008Y14129D01*
X-23989Y14119D01*
X-23932Y14119D01*
X-23913Y14129D01*
X-23904Y14138D01*
X-23389Y13978D02*
X-23408Y13978D01*
X-23427Y13969D01*
X-23436Y13959D01*
X-23446Y13940D01*
X-23455Y13902D01*
X-23455Y13854D01*
X-23446Y13816D01*
X-23436Y13797D01*
X-23427Y13788D01*
X-23408Y13778D01*
X-23389Y13778D01*
X-23370Y13788D01*
X-23360Y13797D01*
X-23351Y13816D01*
X-23341Y13854D01*
X-23341Y13902D01*
X-23351Y13940D01*
X-23360Y13959D01*
X-23370Y13969D01*
X-23389Y13978D01*
X-23541Y13797D02*
X-23550Y13788D01*
X-23541Y13778D01*
X-23531Y13788D01*
X-23541Y13797D01*
X-23541Y13778D01*
X-23740Y13778D02*
X-23626Y13778D01*
X-23683Y13778D02*
X-23683Y13978D01*
X-23664Y13949D01*
X-23645Y13930D01*
X-23626Y13921D01*
X-23911Y13911D02*
X-23911Y13778D01*
X-23826Y13911D02*
X-23826Y13807D01*
X-23835Y13788D01*
X-23854Y13778D01*
X-23883Y13778D01*
X-23902Y13788D01*
X-23911Y13797D01*
X-23978Y13911D02*
X-24054Y13911D01*
X-24007Y13778D02*
X-24007Y13949D01*
X-24016Y13969D01*
X-24035Y13978D01*
X-24054Y13978D01*
X-27621Y15840D02*
X-27612Y15850D01*
X-27602Y15878D01*
X-27602Y15897D01*
X-27612Y15926D01*
X-27631Y15945D01*
X-27650Y15954D01*
X-27688Y15964D01*
X-27716Y15964D01*
X-27754Y15954D01*
X-27773Y15945D01*
X-27793Y15926D01*
X-27802Y15897D01*
X-27802Y15878D01*
X-27793Y15850D01*
X-27783Y15840D01*
X-27783Y15764D02*
X-27793Y15754D01*
X-27802Y15735D01*
X-27802Y15688D01*
X-27793Y15669D01*
X-27783Y15659D01*
X-27764Y15650D01*
X-27745Y15650D01*
X-27716Y15659D01*
X-27602Y15773D01*
X-27602Y15650D01*
X-27802Y15469D02*
X-27802Y15564D01*
X-27707Y15574D01*
X-27716Y15564D01*
X-27726Y15545D01*
X-27726Y15498D01*
X-27716Y15479D01*
X-27707Y15469D01*
X-27688Y15460D01*
X-27640Y15460D01*
X-27621Y15469D01*
X-27612Y15479D01*
X-27602Y15498D01*
X-27602Y15545D01*
X-27612Y15564D01*
X-27621Y15574D01*
X-27735Y15289D02*
X-27602Y15289D01*
X-27812Y15336D02*
X-27669Y15384D01*
X-27669Y15260D01*
X-28436Y15949D02*
X-28436Y15930D01*
X-28427Y15911D01*
X-28417Y15902D01*
X-28398Y15892D01*
X-28360Y15883D01*
X-28312Y15883D01*
X-28274Y15892D01*
X-28255Y15902D01*
X-28246Y15911D01*
X-28236Y15930D01*
X-28236Y15949D01*
X-28246Y15968D01*
X-28255Y15978D01*
X-28274Y15987D01*
X-28312Y15997D01*
X-28360Y15997D01*
X-28398Y15987D01*
X-28417Y15978D01*
X-28427Y15968D01*
X-28436Y15949D01*
X-28255Y15797D02*
X-28246Y15788D01*
X-28236Y15797D01*
X-28246Y15807D01*
X-28255Y15797D01*
X-28236Y15797D01*
X-28236Y15598D02*
X-28236Y15712D01*
X-28236Y15655D02*
X-28436Y15655D01*
X-28407Y15674D01*
X-28388Y15693D01*
X-28379Y15712D01*
X-28369Y15427D02*
X-28236Y15427D01*
X-28369Y15512D02*
X-28265Y15512D01*
X-28246Y15503D01*
X-28236Y15484D01*
X-28236Y15455D01*
X-28246Y15436D01*
X-28255Y15427D01*
X-28369Y15360D02*
X-28369Y15284D01*
X-28236Y15331D02*
X-28407Y15331D01*
X-28427Y15322D01*
X-28436Y15303D01*
X-28436Y15284D01*
X-28547Y14587D02*
X-28537Y14578D01*
X-28509Y14568D01*
X-28490Y14568D01*
X-28461Y14578D01*
X-28442Y14597D01*
X-28433Y14616D01*
X-28423Y14654D01*
X-28423Y14682D01*
X-28433Y14720D01*
X-28442Y14739D01*
X-28461Y14759D01*
X-28490Y14768D01*
X-28509Y14768D01*
X-28537Y14759D01*
X-28547Y14749D01*
X-28623Y14749D02*
X-28633Y14759D01*
X-28652Y14768D01*
X-28699Y14768D01*
X-28718Y14759D01*
X-28728Y14749D01*
X-28737Y14730D01*
X-28737Y14711D01*
X-28728Y14682D01*
X-28614Y14568D01*
X-28737Y14568D01*
X-28918Y14768D02*
X-28823Y14768D01*
X-28813Y14673D01*
X-28823Y14682D01*
X-28842Y14692D01*
X-28889Y14692D01*
X-28908Y14682D01*
X-28918Y14673D01*
X-28927Y14654D01*
X-28927Y14606D01*
X-28918Y14587D01*
X-28908Y14578D01*
X-28889Y14568D01*
X-28842Y14568D01*
X-28823Y14578D01*
X-28813Y14587D01*
X-29108Y14768D02*
X-29013Y14768D01*
X-29003Y14673D01*
X-29013Y14682D01*
X-29032Y14692D01*
X-29079Y14692D01*
X-29098Y14682D01*
X-29108Y14673D01*
X-29117Y14654D01*
X-29117Y14606D01*
X-29108Y14587D01*
X-29098Y14578D01*
X-29079Y14568D01*
X-29032Y14568D01*
X-29013Y14578D01*
X-29003Y14587D01*
X-27752Y14385D02*
X-27771Y14385D01*
X-27790Y14376D01*
X-27799Y14366D01*
X-27809Y14347D01*
X-27818Y14309D01*
X-27818Y14261D01*
X-27809Y14223D01*
X-27799Y14204D01*
X-27790Y14195D01*
X-27771Y14185D01*
X-27752Y14185D01*
X-27733Y14195D01*
X-27723Y14204D01*
X-27714Y14223D01*
X-27704Y14261D01*
X-27704Y14309D01*
X-27714Y14347D01*
X-27723Y14366D01*
X-27733Y14376D01*
X-27752Y14385D01*
X-27904Y14204D02*
X-27913Y14195D01*
X-27904Y14185D01*
X-27894Y14195D01*
X-27904Y14204D01*
X-27904Y14185D01*
X-28103Y14185D02*
X-27989Y14185D01*
X-28046Y14185D02*
X-28046Y14385D01*
X-28027Y14356D01*
X-28008Y14337D01*
X-27989Y14328D01*
X-28274Y14318D02*
X-28274Y14185D01*
X-28189Y14318D02*
X-28189Y14214D01*
X-28198Y14195D01*
X-28217Y14185D01*
X-28246Y14185D01*
X-28265Y14195D01*
X-28274Y14204D01*
X-28341Y14318D02*
X-28417Y14318D01*
X-28370Y14185D02*
X-28370Y14356D01*
X-28379Y14376D01*
X-28398Y14385D01*
X-28417Y14385D01*
X09129Y04515D02*
X09138Y04525D01*
X09148Y04553D01*
X09148Y04572D01*
X09138Y04601D01*
X09119Y04620D01*
X09100Y04629D01*
X09062Y04639D01*
X09034Y04639D01*
X08996Y04629D01*
X08977Y04620D01*
X08957Y04601D01*
X08948Y04572D01*
X08948Y04553D01*
X08957Y04525D01*
X08967Y04515D01*
X08967Y04439D02*
X08957Y04429D01*
X08948Y04410D01*
X08948Y04363D01*
X08957Y04344D01*
X08967Y04334D01*
X08986Y04325D01*
X09005Y04325D01*
X09034Y04334D01*
X09148Y04448D01*
X09148Y04325D01*
X08948Y04144D02*
X08948Y04239D01*
X09043Y04249D01*
X09034Y04239D01*
X09024Y04220D01*
X09024Y04173D01*
X09034Y04154D01*
X09043Y04144D01*
X09062Y04135D01*
X09110Y04135D01*
X09129Y04144D01*
X09138Y04154D01*
X09148Y04173D01*
X09148Y04220D01*
X09138Y04239D01*
X09129Y04249D01*
X08948Y03964D02*
X08948Y04002D01*
X08957Y04021D01*
X08967Y04030D01*
X08996Y04049D01*
X09034Y04059D01*
X09110Y04059D01*
X09129Y04049D01*
X09138Y04040D01*
X09148Y04021D01*
X09148Y03983D01*
X09138Y03964D01*
X09129Y03954D01*
X09110Y03945D01*
X09062Y03945D01*
X09043Y03954D01*
X09034Y03964D01*
X09024Y03983D01*
X09024Y04021D01*
X09034Y04040D01*
X09043Y04049D01*
X09062Y04059D01*
X09471Y05535D02*
X09461Y05525D01*
X09452Y05506D01*
X09452Y05459D01*
X09461Y05440D01*
X09471Y05430D01*
X09490Y05421D01*
X09509Y05421D01*
X09538Y05430D01*
X09652Y05544D01*
X09652Y05421D01*
X09633Y05335D02*
X09642Y05326D01*
X09652Y05335D01*
X09642Y05345D01*
X09633Y05335D01*
X09652Y05335D01*
X09471Y05250D02*
X09461Y05240D01*
X09452Y05221D01*
X09452Y05174D01*
X09461Y05155D01*
X09471Y05145D01*
X09490Y05136D01*
X09509Y05136D01*
X09538Y05145D01*
X09652Y05259D01*
X09652Y05136D01*
X09519Y04965D02*
X09652Y04965D01*
X09519Y05050D02*
X09623Y05050D01*
X09642Y05041D01*
X09652Y05022D01*
X09652Y04993D01*
X09642Y04974D01*
X09633Y04965D01*
X09519Y04898D02*
X09519Y04822D01*
X09652Y04869D02*
X09481Y04869D01*
X09461Y04860D01*
X09452Y04841D01*
X09452Y04822D01*
M02*
