G04 (created by PCBNEW-RS274X (2010-03-14)-final) date Thu 07 Oct 2010 02:34:07 PM EDT*
G01*
G70*
G90*
%MOIN*%
G04 Gerber Fmt 3.4, Leading zero omitted, Abs format*
%FSLAX34Y34*%
G04 APERTURE LIST*
%ADD10C,0.001000*%
%ADD11R,0.023600X0.019700*%
%ADD12R,0.019700X0.023600*%
%ADD13R,0.023600X0.035400*%
%ADD14R,0.035400X0.023600*%
%ADD15R,0.027600X0.037400*%
%ADD16C,0.063000*%
%ADD17R,0.059100X0.070900*%
%ADD18C,0.140000*%
%ADD19C,0.066900*%
%ADD20C,0.070900*%
%ADD21C,0.129900*%
%ADD22C,0.060000*%
%ADD23R,0.023600X0.009800*%
%ADD24R,0.009800X0.023600*%
%ADD25C,0.016000*%
%ADD26C,0.015700*%
%ADD27R,0.009800X0.047200*%
%ADD28R,0.055100X0.055100*%
%ADD29R,0.009800X0.025600*%
%ADD30R,0.025600X0.009800*%
%ADD31R,0.023600X0.015700*%
%ADD32C,0.126000*%
%ADD33C,0.059100*%
%ADD34R,0.019700X0.055100*%
%ADD35R,0.023600X0.042000*%
%ADD36R,0.042000X0.023600*%
%ADD37R,0.013800X0.039400*%
%ADD38R,0.039400X0.013800*%
%ADD39R,0.051200X0.013800*%
%ADD40R,0.013800X0.051200*%
%ADD41R,0.050000X0.015000*%
%ADD42R,0.030000X0.014500*%
%ADD43R,0.010200X0.031500*%
%ADD44R,0.118100X0.029500*%
%ADD45R,0.082700X0.049200*%
%ADD46R,0.016500X0.023600*%
%ADD47R,0.031500X0.027600*%
%ADD48R,0.023600X0.016500*%
%ADD49R,0.027600X0.031500*%
%ADD50R,0.078700X0.118100*%
%ADD51R,0.118100X0.078700*%
%ADD52R,0.047200X0.009800*%
%ADD53C,0.094500*%
%ADD54R,0.055100X0.027600*%
%ADD55R,0.031500X0.035400*%
%ADD56R,0.015700X0.023600*%
%ADD57R,0.035400X0.031500*%
%ADD58C,0.150000*%
%ADD59R,0.023600X0.033500*%
%ADD60C,0.025000*%
%ADD61C,0.025000*%
%ADD62C,0.015000*%
%ADD63C,0.010000*%
%ADD64C,0.005000*%
%ADD65C,0.040000*%
G04 APERTURE END LIST*
G54D10*
G54D11*
X27150Y12003D03*
X27150Y12397D03*
X27550Y12397D03*
X27550Y12003D03*
X27950Y12397D03*
X27950Y12003D03*
X28500Y16897D03*
X28500Y16503D03*
G54D12*
X27997Y13300D03*
X27603Y13300D03*
G54D11*
X27700Y16503D03*
X27700Y16897D03*
X27300Y16603D03*
X27300Y16997D03*
X28100Y16503D03*
X28100Y16897D03*
G54D12*
X26503Y14350D03*
X26897Y14350D03*
G54D11*
X25250Y15197D03*
X25250Y14803D03*
G54D12*
X26897Y13900D03*
X26503Y13900D03*
G54D11*
X13200Y06097D03*
X13200Y05703D03*
G54D12*
X26747Y12350D03*
X26353Y12350D03*
G54D11*
X13200Y09503D03*
X13200Y09897D03*
G54D12*
X10703Y14700D03*
X11097Y14700D03*
X10703Y15600D03*
X11097Y15600D03*
X10703Y16500D03*
X11097Y16500D03*
X10703Y17500D03*
X11097Y17500D03*
G54D11*
X01100Y01103D03*
X01100Y01497D03*
X00600Y01103D03*
X00600Y01497D03*
X23000Y22303D03*
X23000Y22697D03*
G54D12*
X21603Y22700D03*
X21997Y22700D03*
G54D11*
X00100Y01103D03*
X00100Y01497D03*
X-00400Y01103D03*
X-00400Y01497D03*
X21200Y27097D03*
X21200Y26703D03*
X20900Y25203D03*
X20900Y25597D03*
G54D12*
X22403Y23200D03*
X22797Y23200D03*
G54D11*
X23800Y26797D03*
X23800Y26403D03*
X23000Y26403D03*
X23000Y26797D03*
X22600Y26403D03*
X22600Y26797D03*
X23400Y26403D03*
X23400Y26797D03*
X21600Y26703D03*
X21600Y27097D03*
X05600Y00903D03*
X05600Y01297D03*
G54D12*
X06303Y00400D03*
X06697Y00400D03*
X-37898Y21170D03*
X-37504Y21170D03*
X-37898Y20570D03*
X-37504Y20570D03*
X-34303Y20300D03*
X-34697Y20300D03*
X-33903Y20700D03*
X-34297Y20700D03*
G54D11*
X-34700Y20703D03*
X-34700Y21097D03*
G54D12*
X-33803Y21700D03*
X-34197Y21700D03*
G54D11*
X-35001Y21967D03*
X-35001Y21573D03*
X-34601Y21573D03*
X-34601Y21967D03*
X-37101Y19673D03*
X-37101Y20067D03*
G54D12*
X-35404Y21870D03*
X-35798Y21870D03*
X-37898Y13070D03*
X-37504Y13070D03*
X-37898Y12470D03*
X-37504Y12470D03*
X-34303Y12200D03*
X-34697Y12200D03*
X-33903Y12600D03*
X-34297Y12600D03*
G54D11*
X-34700Y12603D03*
X-34700Y12997D03*
G54D12*
X-33803Y13600D03*
X-34197Y13600D03*
G54D11*
X-35001Y13867D03*
X-35001Y13473D03*
X-34601Y13473D03*
X-34601Y13867D03*
X-37101Y11573D03*
X-37101Y11967D03*
G54D12*
X-35404Y13770D03*
X-35798Y13770D03*
X-37898Y15770D03*
X-37504Y15770D03*
X-37898Y15170D03*
X-37504Y15170D03*
X-34303Y14900D03*
X-34697Y14900D03*
X-33903Y15300D03*
X-34297Y15300D03*
G54D11*
X-34700Y15303D03*
X-34700Y15697D03*
G54D12*
X-33803Y16300D03*
X-34197Y16300D03*
G54D11*
X-35001Y16567D03*
X-35001Y16173D03*
X-34601Y16173D03*
X-34601Y16567D03*
X-37101Y14273D03*
X-37101Y14667D03*
G54D12*
X-35404Y16470D03*
X-35798Y16470D03*
X-37898Y04970D03*
X-37504Y04970D03*
X-37898Y04370D03*
X-37504Y04370D03*
X-34303Y04100D03*
X-34697Y04100D03*
X-33903Y04500D03*
X-34297Y04500D03*
G54D11*
X-34700Y04503D03*
X-34700Y04897D03*
G54D12*
X-33803Y05500D03*
X-34197Y05500D03*
G54D11*
X-35001Y05767D03*
X-35001Y05373D03*
X-34601Y05373D03*
X-34601Y05767D03*
X-37101Y03473D03*
X-37101Y03867D03*
G54D12*
X-35404Y05670D03*
X-35798Y05670D03*
X-37898Y02270D03*
X-37504Y02270D03*
X-37898Y01670D03*
X-37504Y01670D03*
X-34303Y01400D03*
X-34697Y01400D03*
X-33903Y01800D03*
X-34297Y01800D03*
G54D11*
X-34700Y01803D03*
X-34700Y02197D03*
G54D12*
X-33803Y02800D03*
X-34197Y02800D03*
G54D11*
X-35001Y03067D03*
X-35001Y02673D03*
X-34601Y02673D03*
X-34601Y03067D03*
X-37101Y00773D03*
X-37101Y01167D03*
G54D12*
X-35404Y02970D03*
X-35798Y02970D03*
X-37898Y07670D03*
X-37504Y07670D03*
X-37898Y07070D03*
X-37504Y07070D03*
X-34303Y06800D03*
X-34697Y06800D03*
X-33903Y07200D03*
X-34297Y07200D03*
G54D11*
X-34700Y07203D03*
X-34700Y07597D03*
G54D12*
X-33803Y08200D03*
X-34197Y08200D03*
G54D11*
X-35001Y08467D03*
X-35001Y08073D03*
X-34601Y08073D03*
X-34601Y08467D03*
X-37101Y06173D03*
X-37101Y06567D03*
G54D12*
X-35404Y08370D03*
X-35798Y08370D03*
X-37898Y10370D03*
X-37504Y10370D03*
X-37898Y09770D03*
X-37504Y09770D03*
X-34303Y09500D03*
X-34697Y09500D03*
X-33903Y09900D03*
X-34297Y09900D03*
G54D11*
X-34700Y09903D03*
X-34700Y10297D03*
G54D12*
X-33803Y10900D03*
X-34197Y10900D03*
G54D11*
X-35001Y11167D03*
X-35001Y10773D03*
X-34601Y10773D03*
X-34601Y11167D03*
X-37101Y08873D03*
X-37101Y09267D03*
G54D12*
X-35404Y11070D03*
X-35798Y11070D03*
X-37898Y18470D03*
X-37504Y18470D03*
X-37898Y17870D03*
X-37504Y17870D03*
X-34303Y17600D03*
X-34697Y17600D03*
X-33903Y18000D03*
X-34297Y18000D03*
G54D11*
X-34700Y18003D03*
X-34700Y18397D03*
G54D12*
X-33803Y19000D03*
X-34197Y19000D03*
G54D11*
X-35001Y19267D03*
X-35001Y18873D03*
X-34601Y18873D03*
X-34601Y19267D03*
X-37101Y16973D03*
X-37101Y17367D03*
G54D12*
X-35404Y19170D03*
X-35798Y19170D03*
X-28904Y17270D03*
X-29298Y17270D03*
X-29298Y15670D03*
X-28904Y15670D03*
G54D11*
X-22000Y11697D03*
X-22000Y11303D03*
G54D12*
X-24598Y08470D03*
X-24204Y08470D03*
X-24998Y08070D03*
X-24604Y08070D03*
G54D11*
X-22500Y11697D03*
X-22500Y11303D03*
X-23300Y11697D03*
X-23300Y11303D03*
G54D12*
X-23104Y08870D03*
X-23498Y08870D03*
X-24203Y06400D03*
X-24597Y06400D03*
G54D11*
X-25401Y01573D03*
X-25401Y01967D03*
X-27200Y17903D03*
X-27200Y18297D03*
G54D12*
X-22404Y10070D03*
X-22798Y10070D03*
G54D11*
X-25200Y10103D03*
X-25200Y10497D03*
X-28401Y01573D03*
X-28401Y01967D03*
X-29401Y01573D03*
X-29401Y01967D03*
X-31401Y-01927D03*
X-31401Y-01533D03*
X-30401Y-01927D03*
X-30401Y-01533D03*
X-24401Y-01927D03*
X-24401Y-01533D03*
G54D12*
X-25103Y11100D03*
X-25497Y11100D03*
G54D11*
X-28200Y11903D03*
X-28200Y12297D03*
G54D12*
X-30803Y11700D03*
X-31197Y11700D03*
X-30803Y11300D03*
X-31197Y11300D03*
X-32297Y16100D03*
X-31903Y16100D03*
G54D11*
X-31100Y16397D03*
X-31100Y16003D03*
X-31500Y16003D03*
X-31500Y16397D03*
X-31500Y15297D03*
X-31500Y14903D03*
X-33200Y12403D03*
X-33200Y12797D03*
X-26000Y11903D03*
X-26000Y12297D03*
X-26400Y11903D03*
X-26400Y12297D03*
X-25600Y11903D03*
X-25600Y12297D03*
X-30900Y14503D03*
X-30900Y14897D03*
G54D12*
X-30203Y13700D03*
X-30597Y13700D03*
X-31903Y11000D03*
X-32297Y11000D03*
X-32297Y10600D03*
X-31903Y10600D03*
G54D11*
X-30500Y15597D03*
X-30500Y15203D03*
X-30100Y19097D03*
X-30100Y18703D03*
X-31000Y15203D03*
X-31000Y15597D03*
X-30700Y18703D03*
X-30700Y19097D03*
X-07700Y11697D03*
X-07700Y11303D03*
G54D12*
X-13003Y28400D03*
X-13397Y28400D03*
G54D11*
X-11193Y00514D03*
X-11193Y00908D03*
G54D12*
X-10596Y-00389D03*
X-10990Y-00389D03*
G54D11*
X-07293Y01108D03*
X-07293Y00714D03*
X-10693Y00514D03*
X-10693Y00908D03*
G54D12*
X-10596Y00011D03*
X-10990Y00011D03*
X-07803Y07500D03*
X-08197Y07500D03*
X-07290Y00111D03*
X-06896Y00111D03*
X-07290Y-00389D03*
X-06896Y-00389D03*
X02003Y18300D03*
X02397Y18300D03*
X-03003Y15900D03*
X-03397Y15900D03*
G54D11*
X-06200Y13197D03*
X-06200Y12803D03*
X-06600Y13197D03*
X-06600Y12803D03*
X-07000Y13197D03*
X-07000Y12803D03*
G54D12*
X-04497Y14200D03*
X-04103Y14200D03*
X-07403Y13800D03*
X-07797Y13800D03*
G54D11*
X-05800Y13197D03*
X-05800Y12803D03*
G54D12*
X-07403Y14200D03*
X-07797Y14200D03*
G54D11*
X-05400Y13197D03*
X-05400Y12803D03*
G54D12*
X-07403Y14900D03*
X-07797Y14900D03*
X-07403Y15300D03*
X-07797Y15300D03*
G54D11*
X-06900Y16303D03*
X-06900Y16697D03*
G54D12*
X-07603Y12200D03*
X-07997Y12200D03*
X-07503Y17300D03*
X-07897Y17300D03*
X-07403Y15700D03*
X-07797Y15700D03*
X-06803Y12200D03*
X-07197Y12200D03*
G54D11*
X-07900Y16497D03*
X-07900Y16103D03*
X-06100Y16303D03*
X-06100Y16697D03*
X-06500Y16303D03*
X-06500Y16697D03*
X-05300Y16303D03*
X-05300Y16697D03*
X-05700Y16303D03*
X-05700Y16697D03*
G54D12*
X-03003Y17900D03*
X-03397Y17900D03*
X-03397Y16300D03*
X-03003Y16300D03*
G54D11*
X-01100Y20897D03*
X-01100Y20503D03*
X-00100Y20897D03*
X-00100Y20503D03*
X00900Y20897D03*
X00900Y20503D03*
X03900Y20797D03*
X03900Y20403D03*
G54D12*
X02103Y10100D03*
X02497Y10100D03*
X03397Y10100D03*
X03003Y10100D03*
G54D13*
X20405Y04600D03*
X20995Y04600D03*
X12095Y14700D03*
X11505Y14700D03*
X12095Y15600D03*
X11505Y15600D03*
X12095Y16500D03*
X11505Y16500D03*
X12095Y17500D03*
X11505Y17500D03*
G54D14*
X07500Y00805D03*
X07500Y01395D03*
G54D13*
X21995Y23400D03*
X21405Y23400D03*
G54D14*
X22100Y27195D03*
X22100Y26605D03*
G54D13*
X-33705Y21200D03*
X-34295Y21200D03*
X-33705Y13100D03*
X-34295Y13100D03*
X-33705Y15800D03*
X-34295Y15800D03*
X-33705Y05000D03*
X-34295Y05000D03*
X-33705Y02300D03*
X-34295Y02300D03*
X-33705Y07700D03*
X-34295Y07700D03*
X-33705Y10400D03*
X-34295Y10400D03*
X-33705Y18500D03*
X-34295Y18500D03*
G54D14*
X-24401Y02865D03*
X-24401Y02275D03*
X-25401Y02865D03*
X-25401Y02275D03*
X-26401Y02865D03*
X-26401Y02275D03*
X-28401Y02865D03*
X-28401Y02275D03*
X-29401Y02865D03*
X-29401Y02275D03*
X-30401Y-00635D03*
X-30401Y-01225D03*
X-25401Y-00635D03*
X-25401Y-01225D03*
X-33200Y13205D03*
X-33200Y13795D03*
G54D13*
X-30595Y16100D03*
X-30005Y16100D03*
X-30695Y18300D03*
X-30105Y18300D03*
X-31805Y10100D03*
X-32395Y10100D03*
X-05695Y03500D03*
X-05105Y03500D03*
X-09295Y05500D03*
X-08705Y05500D03*
X-09295Y07500D03*
X-08705Y07500D03*
G54D14*
X-07600Y13295D03*
X-07600Y12705D03*
X-07400Y16105D03*
X-07400Y16695D03*
G54D15*
X-35236Y19770D03*
X-34566Y19770D03*
X-35866Y19770D03*
X-36536Y19770D03*
X-35236Y11670D03*
X-34566Y11670D03*
X-35866Y11670D03*
X-36536Y11670D03*
X-35236Y14370D03*
X-34566Y14370D03*
X-35866Y14370D03*
X-36536Y14370D03*
X-35236Y03570D03*
X-34566Y03570D03*
X-35866Y03570D03*
X-36536Y03570D03*
X-35236Y00870D03*
X-34566Y00870D03*
X-35866Y00870D03*
X-36536Y00870D03*
X-35236Y06270D03*
X-34566Y06270D03*
X-35866Y06270D03*
X-36536Y06270D03*
X-35236Y08970D03*
X-34566Y08970D03*
X-35866Y08970D03*
X-36536Y08970D03*
X-35236Y17070D03*
X-34566Y17070D03*
X-35866Y17070D03*
X-36536Y17070D03*
G54D16*
X09400Y26500D03*
X08400Y26500D03*
X09300Y18200D03*
X10300Y18200D03*
X-20400Y21800D03*
X-21400Y21800D03*
X-22400Y21800D03*
X-23400Y21800D03*
X-24400Y21800D03*
X-25400Y21800D03*
X-26400Y21800D03*
X14500Y10600D03*
X15500Y10600D03*
X14500Y09600D03*
X15500Y09600D03*
X14500Y08600D03*
X15500Y08600D03*
X14500Y07600D03*
X15500Y07600D03*
X14500Y06600D03*
X15500Y06600D03*
X14500Y05600D03*
X15500Y05600D03*
X14500Y04600D03*
X15500Y04600D03*
X05700Y-00500D03*
X04700Y-00500D03*
X02700Y-00500D03*
X01700Y-00500D03*
X00700Y-00500D03*
X-00300Y-00500D03*
X-01300Y-00500D03*
X03700Y-00500D03*
X-01100Y21600D03*
X-00100Y21600D03*
X01900Y21600D03*
X02900Y21600D03*
X03900Y21600D03*
X04900Y21600D03*
X05900Y21600D03*
X00900Y21600D03*
G54D17*
X-23271Y07200D03*
X-19728Y07200D03*
G54D18*
X-13300Y09219D03*
G54D19*
X-12741Y06493D03*
X-12741Y05402D03*
X-12741Y04312D03*
X-12741Y03221D03*
X-12741Y02130D03*
X-13859Y05947D03*
X-13859Y04857D03*
X-13859Y03766D03*
X-13859Y02676D03*
G54D18*
X-13300Y-00620D03*
G54D20*
X08400Y05700D03*
X08400Y04700D03*
X08400Y01700D03*
X08400Y00700D03*
X08400Y-00300D03*
X11400Y-00300D03*
X11400Y05700D03*
G54D21*
X-13260Y24841D03*
X-13260Y19959D03*
G54D16*
X-12193Y22963D03*
X-11406Y22963D03*
X-11406Y21979D03*
X-12193Y21979D03*
G54D22*
X-14350Y26400D03*
X-14350Y27400D03*
X-14350Y28400D03*
X-16850Y28400D03*
X-16850Y26400D03*
G54D23*
X-32648Y13294D03*
X-32648Y13097D03*
X-32648Y12900D03*
X-32648Y12703D03*
X-32648Y12506D03*
G54D24*
X-32294Y12152D03*
X-32097Y12152D03*
X-31900Y12152D03*
X-31703Y12152D03*
X-31506Y12152D03*
X-31506Y13648D03*
X-31703Y13648D03*
X-31900Y13648D03*
X-32097Y13648D03*
X-32294Y13648D03*
G54D23*
X-31152Y12506D03*
X-31152Y12703D03*
X-31152Y12900D03*
X-31152Y13097D03*
X-31152Y13294D03*
G54D25*
X20503Y12553D03*
X20503Y12868D03*
X20503Y13183D03*
X20503Y13498D03*
X20503Y13813D03*
X20503Y14128D03*
X20503Y14443D03*
X20503Y14758D03*
X20503Y15073D03*
X20503Y15388D03*
X20503Y15703D03*
X20503Y16018D03*
X20503Y16333D03*
X20503Y16647D03*
X20818Y12553D03*
X20818Y12868D03*
X20818Y13183D03*
X20818Y13498D03*
X20818Y13813D03*
X20818Y14128D03*
X20818Y14443D03*
X20818Y14758D03*
X20818Y15073D03*
X20818Y15388D03*
X20818Y15703D03*
X20818Y16018D03*
X20818Y16333D03*
X20818Y16647D03*
X21133Y12553D03*
X21133Y12868D03*
X21133Y13183D03*
X21133Y13498D03*
X21133Y13813D03*
X21133Y14128D03*
X21133Y14443D03*
X21133Y14758D03*
X21133Y15073D03*
X21133Y15388D03*
X21133Y15703D03*
X21133Y16018D03*
X21133Y16333D03*
X21133Y16647D03*
X21448Y12553D03*
X21448Y12868D03*
X21448Y13183D03*
X21448Y13498D03*
X21448Y13813D03*
X21448Y14128D03*
X21448Y14443D03*
X21448Y14758D03*
X21448Y15073D03*
X21448Y15388D03*
X21448Y15703D03*
X21448Y16018D03*
X21448Y16333D03*
X21448Y16647D03*
X21763Y12553D03*
X21763Y12868D03*
X21763Y13183D03*
X21763Y13498D03*
X21763Y15703D03*
X21763Y16018D03*
X21763Y16333D03*
X21763Y16647D03*
X22078Y12553D03*
X22078Y12868D03*
X22078Y13183D03*
X22078Y13498D03*
X22078Y15703D03*
X22078Y16018D03*
X22078Y16333D03*
X22078Y16647D03*
X22393Y12553D03*
X22393Y12868D03*
X22393Y13183D03*
X22393Y13498D03*
X22393Y15703D03*
X22393Y16018D03*
X22393Y16333D03*
X22393Y16647D03*
X22708Y12553D03*
X22708Y12868D03*
X22708Y13183D03*
X22708Y13498D03*
X22708Y15703D03*
X22708Y16018D03*
X22708Y16333D03*
X22708Y16647D03*
X23023Y12553D03*
X23023Y12868D03*
X23023Y13183D03*
X23023Y13498D03*
X23023Y15703D03*
X23023Y16018D03*
X23023Y16333D03*
X23023Y16647D03*
X23338Y12553D03*
X23338Y12868D03*
X23338Y13183D03*
X23338Y13498D03*
X23338Y15703D03*
X23338Y16018D03*
X23338Y16333D03*
X23338Y16647D03*
X23653Y12553D03*
X23653Y12868D03*
X23653Y13183D03*
X23653Y13498D03*
X23653Y13813D03*
X23653Y14128D03*
X23653Y14443D03*
X23653Y14758D03*
X23653Y15073D03*
X23653Y15388D03*
X23653Y15703D03*
X23653Y16018D03*
X23653Y16333D03*
X23653Y16647D03*
X23968Y12553D03*
X23968Y12868D03*
X23968Y13183D03*
X23968Y13498D03*
X23968Y13813D03*
X23968Y14128D03*
X23968Y14443D03*
X23968Y14758D03*
X23968Y15073D03*
X23968Y15388D03*
X23968Y15703D03*
X23968Y16018D03*
X23968Y16333D03*
X23968Y16647D03*
X24283Y12553D03*
X24283Y12868D03*
X24283Y13183D03*
X24283Y13498D03*
X24283Y13813D03*
X24283Y14128D03*
X24283Y14443D03*
X24283Y14758D03*
X24283Y15073D03*
X24283Y15388D03*
X24283Y15703D03*
X24283Y16018D03*
X24283Y16333D03*
X24283Y16647D03*
X24597Y12553D03*
X24597Y12868D03*
X24597Y13183D03*
X24597Y13498D03*
X24597Y13813D03*
X24597Y14128D03*
X24597Y14443D03*
X24597Y14758D03*
X24597Y15073D03*
X24597Y15388D03*
X24597Y15703D03*
X24597Y16018D03*
X24597Y16333D03*
X24597Y16647D03*
G54D26*
X-01993Y11207D03*
X-01993Y11522D03*
X-01993Y11837D03*
X-01993Y12152D03*
X-01993Y12467D03*
X-01993Y12782D03*
X-01993Y13097D03*
X-01993Y13412D03*
X-01993Y13727D03*
X-01993Y14042D03*
X-01993Y14357D03*
X-01993Y14672D03*
X-01993Y14987D03*
X-01993Y15302D03*
X-01993Y15617D03*
X-01993Y15932D03*
X-01993Y16247D03*
X-01993Y16562D03*
X-01993Y16877D03*
X-01993Y17192D03*
X-01678Y11207D03*
X-01678Y11522D03*
X-01678Y11837D03*
X-01678Y12152D03*
X-01678Y12467D03*
X-01678Y12782D03*
X-01678Y13097D03*
X-01678Y13412D03*
X-01678Y13727D03*
X-01678Y14042D03*
X-01678Y14357D03*
X-01678Y14672D03*
X-01678Y14987D03*
X-01678Y15302D03*
X-01678Y15617D03*
X-01678Y15932D03*
X-01678Y16247D03*
X-01678Y16562D03*
X-01678Y16877D03*
X-01678Y17192D03*
X-01363Y11207D03*
X-01363Y11522D03*
X-01363Y16877D03*
X-01363Y17192D03*
X-01048Y11207D03*
X-01048Y11522D03*
X-01048Y16877D03*
X-01048Y17192D03*
X-00733Y11207D03*
X-00733Y11522D03*
X-00733Y16877D03*
X-00733Y17192D03*
X-00418Y11207D03*
X-00418Y11522D03*
X-00418Y16877D03*
X-00418Y17192D03*
X-00103Y11207D03*
X-00103Y11522D03*
X-00103Y13097D03*
X-00103Y13412D03*
X-00103Y13727D03*
X-00103Y14042D03*
X-00103Y14357D03*
X-00103Y14672D03*
X-00103Y14987D03*
X-00103Y15302D03*
X-00103Y16877D03*
X-00103Y17192D03*
X00212Y11207D03*
X00212Y11522D03*
X00212Y13097D03*
X00212Y13412D03*
X00212Y13727D03*
X00212Y14042D03*
X00212Y14357D03*
X00212Y14672D03*
X00212Y14987D03*
X00212Y15302D03*
X00212Y16877D03*
X00212Y17192D03*
X00527Y11207D03*
X00527Y11522D03*
X00527Y13097D03*
X00527Y13412D03*
X00527Y13727D03*
X00527Y14042D03*
X00527Y14357D03*
X00527Y14672D03*
X00527Y14987D03*
X00527Y15302D03*
X00527Y16877D03*
X00527Y17192D03*
X00842Y11207D03*
X00842Y11522D03*
X00842Y13097D03*
X00842Y13412D03*
X00842Y13727D03*
X00842Y14042D03*
X00842Y14357D03*
X00842Y14672D03*
X00842Y14987D03*
X00842Y15302D03*
X00842Y16877D03*
X00842Y17192D03*
X01157Y11207D03*
X01157Y11522D03*
X01157Y13097D03*
X01157Y13412D03*
X01157Y13727D03*
X01157Y14042D03*
X01157Y14357D03*
X01157Y14672D03*
X01157Y14987D03*
X01157Y15302D03*
X01157Y16877D03*
X01157Y17192D03*
X01472Y11207D03*
X01472Y11522D03*
X01472Y13097D03*
X01472Y13412D03*
X01472Y13727D03*
X01472Y14042D03*
X01472Y14357D03*
X01472Y14672D03*
X01472Y14987D03*
X01472Y15302D03*
X01472Y16877D03*
X01472Y17192D03*
X01787Y11207D03*
X01787Y11522D03*
X01787Y13097D03*
X01787Y13412D03*
X01787Y13727D03*
X01787Y14042D03*
X01787Y14357D03*
X01787Y14672D03*
X01787Y14987D03*
X01787Y15302D03*
X01787Y16877D03*
X01787Y17192D03*
X02102Y11207D03*
X02102Y11522D03*
X02102Y13097D03*
X02102Y13412D03*
X02102Y13727D03*
X02102Y14042D03*
X02102Y14357D03*
X02102Y14672D03*
X02102Y14987D03*
X02102Y15302D03*
X02102Y16877D03*
X02102Y17192D03*
X02417Y11207D03*
X02417Y11522D03*
X02417Y16877D03*
X02417Y17192D03*
X02732Y11207D03*
X02732Y11522D03*
X02732Y16877D03*
X02732Y17192D03*
X03047Y11207D03*
X03047Y11522D03*
X03047Y16877D03*
X03047Y17192D03*
X03362Y11207D03*
X03362Y11522D03*
X03362Y16877D03*
X03362Y17192D03*
X03677Y11207D03*
X03677Y11522D03*
X03677Y16877D03*
X03677Y17192D03*
X03992Y11207D03*
X03992Y11522D03*
X03992Y11837D03*
X03992Y12152D03*
X03992Y12467D03*
X03992Y12782D03*
X03992Y13097D03*
X03992Y13412D03*
X03992Y13727D03*
X03992Y14042D03*
X03992Y14357D03*
X03992Y14672D03*
X03992Y14987D03*
X03992Y15302D03*
X03992Y15617D03*
X03992Y15932D03*
X03992Y16247D03*
X03992Y16562D03*
X03992Y16877D03*
X03992Y17192D03*
X03677Y11837D03*
X03677Y12152D03*
X03677Y12467D03*
X03677Y12782D03*
X03677Y13097D03*
X03677Y13412D03*
X03677Y13727D03*
X03677Y14042D03*
X03677Y14357D03*
X03677Y14672D03*
X03677Y14987D03*
X03677Y15302D03*
X03677Y15617D03*
X03677Y15932D03*
X03677Y16247D03*
X03677Y16562D03*
G54D27*
X22092Y26089D03*
X21896Y26089D03*
X21700Y26089D03*
X21504Y26089D03*
X21308Y26089D03*
X21308Y24710D03*
X21504Y24710D03*
X21700Y24710D03*
X21896Y24710D03*
X22092Y24710D03*
G54D23*
X-06845Y15389D03*
X-06845Y15192D03*
X-06845Y14995D03*
X-06845Y14798D03*
X-06845Y14602D03*
X-06845Y14405D03*
X-06845Y14208D03*
X-06845Y14011D03*
X-04955Y14011D03*
X-04955Y14208D03*
X-04955Y14405D03*
X-04955Y14602D03*
X-04955Y14798D03*
X-04955Y14995D03*
X-04955Y15192D03*
X-04955Y15389D03*
G54D24*
X-06589Y13755D03*
X-06392Y13755D03*
X-06195Y13755D03*
X-05998Y13755D03*
X-05802Y13755D03*
X-05605Y13755D03*
X-05408Y13755D03*
X-05211Y13755D03*
X-05211Y15645D03*
X-05408Y15645D03*
X-05605Y15645D03*
X-05802Y15645D03*
X-05998Y15645D03*
X-06195Y15645D03*
X-06392Y15645D03*
X-06589Y15645D03*
G54D28*
X-06254Y15054D03*
X-06254Y14346D03*
X-05546Y14346D03*
X-05546Y15054D03*
G54D29*
X29386Y16052D03*
X29189Y16052D03*
X28992Y16052D03*
X28795Y16052D03*
X28598Y16052D03*
X28402Y16052D03*
X28205Y16052D03*
X28008Y16052D03*
X27811Y16052D03*
X27614Y16052D03*
X27614Y13748D03*
X27811Y13748D03*
X28008Y13748D03*
X28205Y13748D03*
X28402Y13748D03*
X28598Y13748D03*
X28795Y13748D03*
X28992Y13748D03*
X29189Y13748D03*
X29386Y13748D03*
G54D30*
X27348Y15786D03*
X27348Y15589D03*
X27348Y15392D03*
X27348Y15195D03*
X27348Y14998D03*
X27348Y14802D03*
X27348Y14605D03*
X27348Y14408D03*
X27348Y14211D03*
X27348Y14014D03*
X29652Y14014D03*
X29652Y14211D03*
X29652Y14408D03*
X29652Y14605D03*
X29652Y14802D03*
X29652Y14998D03*
X29652Y15195D03*
X29652Y15392D03*
X29652Y15589D03*
X29652Y15786D03*
G54D29*
X24586Y25952D03*
X24389Y25952D03*
X24192Y25952D03*
X23995Y25952D03*
X23798Y25952D03*
X23602Y25952D03*
X23405Y25952D03*
X23208Y25952D03*
X23011Y25952D03*
X22814Y25952D03*
X22814Y23648D03*
X23011Y23648D03*
X23208Y23648D03*
X23405Y23648D03*
X23602Y23648D03*
X23798Y23648D03*
X23995Y23648D03*
X24192Y23648D03*
X24389Y23648D03*
X24586Y23648D03*
G54D30*
X22548Y25686D03*
X22548Y25489D03*
X22548Y25292D03*
X22548Y25095D03*
X22548Y24898D03*
X22548Y24702D03*
X22548Y24505D03*
X22548Y24308D03*
X22548Y24111D03*
X22548Y23914D03*
X24852Y23914D03*
X24852Y24111D03*
X24852Y24308D03*
X24852Y24505D03*
X24852Y24702D03*
X24852Y24898D03*
X24852Y25095D03*
X24852Y25292D03*
X24852Y25489D03*
X24852Y25686D03*
G54D31*
X-30626Y10344D03*
X-30626Y10600D03*
X-30626Y10856D03*
X-31374Y10856D03*
X-31374Y10344D03*
G54D32*
X-13051Y16749D03*
X-13051Y12249D03*
G54D19*
X-11850Y17552D03*
X-11850Y11448D03*
G54D33*
X-14649Y17109D03*
X-14649Y11889D03*
X-14649Y16109D03*
X-14649Y12889D03*
X-10551Y16249D03*
X-09551Y15749D03*
X-10551Y15249D03*
X-09551Y14749D03*
X-10551Y14249D03*
X-09551Y13749D03*
X-10551Y13249D03*
X-09551Y12749D03*
G54D34*
X02150Y04263D03*
X01650Y04263D03*
X01150Y04263D03*
X00650Y04263D03*
X00150Y04263D03*
X-00350Y04263D03*
X-00850Y04263D03*
X-01350Y04263D03*
X-01350Y02137D03*
X-00850Y02137D03*
X-00350Y02137D03*
X00150Y02137D03*
X00650Y02137D03*
X01150Y02137D03*
X01650Y02137D03*
X02150Y02137D03*
X03150Y02137D03*
X03650Y02137D03*
X04150Y02137D03*
X04650Y02137D03*
X05150Y02137D03*
X05650Y02137D03*
X06150Y02137D03*
X06650Y02137D03*
X06650Y04263D03*
X06150Y04263D03*
X05650Y04263D03*
X05150Y04263D03*
X04650Y04263D03*
X04150Y04263D03*
X03650Y04263D03*
X03150Y04263D03*
G54D35*
X-30026Y17712D03*
X-30400Y17700D03*
X-30774Y17712D03*
X-30774Y16688D03*
X-30026Y16688D03*
G54D36*
X26812Y14826D03*
X26812Y15200D03*
X26812Y15574D03*
X25788Y15574D03*
X25788Y15200D03*
X25788Y14826D03*
X-04588Y17426D03*
X-04588Y17800D03*
X-04588Y18174D03*
X-05612Y18174D03*
X-05612Y17800D03*
X-05612Y17426D03*
G54D16*
X23600Y08300D03*
X28100Y18000D03*
X23600Y09200D03*
X29000Y18000D03*
X27200Y18000D03*
X29900Y18000D03*
X23600Y06400D03*
X23600Y07300D03*
X12800Y15000D03*
X12800Y15900D03*
X12800Y16800D03*
X12800Y17700D03*
X-38401Y21370D03*
X-38401Y20270D03*
X-38401Y13270D03*
X-38401Y12170D03*
X-38401Y15970D03*
X-38401Y14870D03*
X-38401Y05170D03*
X-38401Y04070D03*
X-38401Y02470D03*
X-38401Y01370D03*
X-38401Y07870D03*
X-38401Y06770D03*
X-38401Y10570D03*
X-38401Y09470D03*
X-38401Y18670D03*
X-38401Y17570D03*
X-24401Y03570D03*
X-27401Y03570D03*
X-28401Y03570D03*
X-29401Y03570D03*
X-30401Y03570D03*
X-10000Y08500D03*
X03200Y18500D03*
X-03400Y12700D03*
X-04300Y12700D03*
G54D37*
X-32300Y05808D03*
X-32044Y05808D03*
X-31788Y05808D03*
X-31532Y05808D03*
X-31532Y07993D03*
X-31788Y07993D03*
X-32044Y07993D03*
X-32300Y07993D03*
X-32556Y07993D03*
X-32812Y07993D03*
X-33068Y07993D03*
X-32556Y05808D03*
X-32812Y05808D03*
X-33068Y05808D03*
X-32301Y19863D03*
X-32557Y19863D03*
X-32813Y19863D03*
X-33069Y19863D03*
X-33069Y17678D03*
X-32813Y17678D03*
X-32557Y17678D03*
X-32301Y17678D03*
X-32045Y17678D03*
X-31789Y17678D03*
X-31533Y17678D03*
X-32045Y19863D03*
X-31789Y19863D03*
X-31533Y19863D03*
G54D38*
X-10103Y00221D03*
X-10103Y-00035D03*
X-10103Y-00291D03*
X-10103Y-00547D03*
X-10103Y-00803D03*
X-07899Y-00803D03*
X-07899Y-00547D03*
X-07899Y-00291D03*
X-07899Y-00035D03*
X-07899Y00221D03*
X-07899Y00477D03*
X-07899Y00733D03*
X-07899Y00989D03*
X-10103Y00477D03*
X-10103Y00733D03*
X-10103Y00989D03*
G54D39*
X16469Y15148D03*
X16469Y15404D03*
X16469Y15660D03*
X16469Y15916D03*
X16469Y16172D03*
X16469Y16428D03*
X16469Y16684D03*
X16469Y16940D03*
X16469Y17196D03*
X16469Y17452D03*
X14131Y17452D03*
X14131Y17196D03*
X14131Y16940D03*
X14131Y16684D03*
X14131Y16428D03*
X14131Y16172D03*
X14131Y15916D03*
X14131Y15660D03*
X14131Y15404D03*
X14131Y15148D03*
G54D40*
X-25048Y07369D03*
X-25304Y07369D03*
X-25560Y07369D03*
X-25816Y07369D03*
X-26072Y07369D03*
X-26328Y07369D03*
X-26584Y07369D03*
X-26840Y07369D03*
X-27096Y07369D03*
X-27352Y07369D03*
X-27352Y05031D03*
X-27096Y05031D03*
X-26840Y05031D03*
X-26584Y05031D03*
X-26328Y05031D03*
X-26072Y05031D03*
X-25816Y05031D03*
X-25560Y05031D03*
X-25304Y05031D03*
X-25048Y05031D03*
X-28249Y07439D03*
X-28505Y07439D03*
X-28761Y07439D03*
X-29017Y07439D03*
X-29273Y07439D03*
X-29529Y07439D03*
X-29785Y07439D03*
X-30041Y07439D03*
X-30297Y07439D03*
X-30553Y07439D03*
X-30553Y05101D03*
X-30297Y05101D03*
X-30041Y05101D03*
X-29785Y05101D03*
X-29529Y05101D03*
X-29273Y05101D03*
X-29017Y05101D03*
X-28761Y05101D03*
X-28505Y05101D03*
X-28249Y05101D03*
G54D41*
X-36951Y21254D03*
X-36951Y20998D03*
X-36951Y20742D03*
X-36951Y20486D03*
X-35251Y20486D03*
X-35251Y20742D03*
X-35251Y20998D03*
X-35251Y21254D03*
X-36951Y13154D03*
X-36951Y12898D03*
X-36951Y12642D03*
X-36951Y12386D03*
X-35251Y12386D03*
X-35251Y12642D03*
X-35251Y12898D03*
X-35251Y13154D03*
X-36951Y15854D03*
X-36951Y15598D03*
X-36951Y15342D03*
X-36951Y15086D03*
X-35251Y15086D03*
X-35251Y15342D03*
X-35251Y15598D03*
X-35251Y15854D03*
X-36951Y05054D03*
X-36951Y04798D03*
X-36951Y04542D03*
X-36951Y04286D03*
X-35251Y04286D03*
X-35251Y04542D03*
X-35251Y04798D03*
X-35251Y05054D03*
X-36951Y02354D03*
X-36951Y02098D03*
X-36951Y01842D03*
X-36951Y01586D03*
X-35251Y01586D03*
X-35251Y01842D03*
X-35251Y02098D03*
X-35251Y02354D03*
X-36951Y07754D03*
X-36951Y07498D03*
X-36951Y07242D03*
X-36951Y06986D03*
X-35251Y06986D03*
X-35251Y07242D03*
X-35251Y07498D03*
X-35251Y07754D03*
X-36951Y10454D03*
X-36951Y10198D03*
X-36951Y09942D03*
X-36951Y09686D03*
X-35251Y09686D03*
X-35251Y09942D03*
X-35251Y10198D03*
X-35251Y10454D03*
X-36951Y18554D03*
X-36951Y18298D03*
X-36951Y18042D03*
X-36951Y17786D03*
X-35251Y17786D03*
X-35251Y18042D03*
X-35251Y18298D03*
X-35251Y18554D03*
G54D26*
X07860Y13240D03*
X07545Y13240D03*
X07230Y13240D03*
X05970Y13240D03*
X05655Y13240D03*
X05340Y13240D03*
X07860Y13555D03*
X07545Y13555D03*
X07230Y13555D03*
X05970Y13555D03*
X05655Y13555D03*
X05340Y13555D03*
X07860Y13870D03*
X07545Y13870D03*
X07230Y13870D03*
X05970Y13870D03*
X05655Y13870D03*
X05340Y13870D03*
X07860Y14185D03*
X07545Y14185D03*
X07230Y14185D03*
X05970Y14185D03*
X05655Y14185D03*
X05340Y14185D03*
X07860Y14500D03*
X07545Y14500D03*
X07230Y14500D03*
X05970Y14500D03*
X05655Y14500D03*
X05340Y14500D03*
X07860Y14815D03*
X07545Y14815D03*
X07230Y14815D03*
X05970Y14815D03*
X05655Y14815D03*
X05340Y14815D03*
X07860Y15130D03*
X07545Y15130D03*
X07230Y15130D03*
X05970Y15130D03*
X05655Y15130D03*
X05340Y15130D03*
X07860Y15445D03*
X07545Y15445D03*
X07230Y15445D03*
X05970Y15445D03*
X05655Y15445D03*
X05340Y15445D03*
X07860Y15760D03*
X07545Y15760D03*
X07230Y15760D03*
X05970Y15760D03*
X05655Y15760D03*
X05340Y15760D03*
G54D11*
X27100Y13197D03*
X27100Y12803D03*
X25500Y12803D03*
X25500Y13197D03*
G54D42*
X30650Y12675D03*
X30650Y12925D03*
X30650Y13175D03*
X30650Y13425D03*
X30650Y13675D03*
X30650Y13925D03*
X30650Y14175D03*
X30650Y14425D03*
X30650Y14675D03*
X30650Y14925D03*
X30650Y15175D03*
X30650Y15425D03*
X30650Y15675D03*
X30650Y15925D03*
X30650Y16175D03*
X30650Y16425D03*
X30650Y16675D03*
X30650Y16925D03*
X30150Y12675D03*
X30150Y12925D03*
X30150Y13175D03*
X30150Y13425D03*
X30150Y13675D03*
X30150Y13925D03*
X30150Y14175D03*
X30150Y14425D03*
X30150Y14675D03*
X30150Y14925D03*
X30150Y15175D03*
X30150Y15425D03*
X30150Y15675D03*
X30150Y15925D03*
X30150Y16175D03*
X30150Y16425D03*
X30150Y16675D03*
X30150Y16925D03*
G54D12*
X25897Y13600D03*
X25503Y13600D03*
X25503Y14000D03*
X25897Y14000D03*
G54D11*
X29550Y12053D03*
X29550Y12447D03*
G54D12*
X19697Y16500D03*
X19303Y16500D03*
X19303Y14900D03*
X19697Y14900D03*
G54D39*
X14131Y14352D03*
X14131Y14096D03*
X14131Y13840D03*
X14131Y13584D03*
X14131Y13328D03*
X14131Y13072D03*
X14131Y12816D03*
X14131Y12560D03*
X14131Y12304D03*
X14131Y12048D03*
X16469Y12048D03*
X16469Y12304D03*
X16469Y12560D03*
X16469Y12816D03*
X16469Y13072D03*
X16469Y13328D03*
X16469Y13584D03*
X16469Y13840D03*
X16469Y14096D03*
X16469Y14352D03*
G54D16*
X12300Y07500D03*
X12300Y08500D03*
X12300Y09500D03*
X12300Y10500D03*
X12300Y11500D03*
X12300Y12500D03*
X12300Y13500D03*
G54D11*
X13200Y08303D03*
X13200Y08697D03*
G54D12*
X15497Y11400D03*
X15103Y11400D03*
G54D43*
X21106Y05209D03*
X21303Y05209D03*
X21500Y05209D03*
X21697Y05209D03*
X21894Y05209D03*
X21894Y06391D03*
X21697Y06391D03*
X21500Y06391D03*
X21303Y06391D03*
X21106Y06391D03*
G54D44*
X21500Y05800D03*
G54D45*
X20700Y07000D03*
X20700Y08200D03*
X22300Y07000D03*
X22300Y08200D03*
G54D13*
X21195Y08900D03*
X20605Y08900D03*
X21805Y08900D03*
X22395Y08900D03*
G54D12*
X22403Y05200D03*
X22797Y05200D03*
X22797Y05600D03*
X22403Y05600D03*
X20103Y05600D03*
X20497Y05600D03*
X20497Y06000D03*
X20103Y06000D03*
X20497Y05200D03*
X20103Y05200D03*
G54D13*
X22595Y04600D03*
X22005Y04600D03*
G54D11*
X21500Y04797D03*
X21500Y04403D03*
G54D16*
X23600Y05500D03*
X23600Y04500D03*
G54D12*
X26703Y16200D03*
X27097Y16200D03*
G54D11*
X26360Y16597D03*
X26360Y16203D03*
G54D12*
X27297Y17300D03*
X26903Y17300D03*
G54D11*
X26900Y16997D03*
X26900Y16603D03*
G54D12*
X25997Y16150D03*
X25603Y16150D03*
X23797Y11900D03*
X23403Y11900D03*
G54D11*
X19800Y12897D03*
X19800Y12503D03*
G54D12*
X24303Y11900D03*
X24697Y11900D03*
X25703Y12300D03*
X26097Y12300D03*
X25703Y11900D03*
X26097Y11900D03*
G54D11*
X25250Y12397D03*
X25250Y12003D03*
G54D12*
X21803Y11900D03*
X22197Y11900D03*
X22997Y11900D03*
X22603Y11900D03*
G54D11*
X13200Y06703D03*
X13200Y07097D03*
X24600Y22697D03*
X24600Y22303D03*
G54D42*
X25850Y22675D03*
X25850Y22925D03*
X25850Y23175D03*
X25850Y23425D03*
X25850Y23675D03*
X25850Y23925D03*
X25850Y24175D03*
X25850Y24425D03*
X25850Y24675D03*
X25850Y24925D03*
X25850Y25175D03*
X25850Y25425D03*
X25850Y25675D03*
X25850Y25925D03*
X25850Y26175D03*
X25850Y26425D03*
X25850Y26675D03*
X25850Y26925D03*
X25350Y22675D03*
X25350Y22925D03*
X25350Y23175D03*
X25350Y23425D03*
X25350Y23675D03*
X25350Y23925D03*
X25350Y24175D03*
X25350Y24425D03*
X25350Y24675D03*
X25350Y24925D03*
X25350Y25175D03*
X25350Y25425D03*
X25350Y25675D03*
X25350Y25925D03*
X25350Y26175D03*
X25350Y26425D03*
X25350Y26675D03*
X25350Y26925D03*
G54D11*
X21200Y22303D03*
X21200Y22697D03*
G54D12*
X01703Y01400D03*
X02097Y01400D03*
X03597Y01400D03*
X03203Y01400D03*
G54D25*
X-28247Y13053D03*
X-28247Y13368D03*
X-28247Y13683D03*
X-28247Y13998D03*
X-28247Y14313D03*
X-28247Y14628D03*
X-28247Y14943D03*
X-28247Y15258D03*
X-28247Y15573D03*
X-28247Y15888D03*
X-28247Y16203D03*
X-28247Y16518D03*
X-28247Y16833D03*
X-28247Y17147D03*
X-27932Y13053D03*
X-27932Y13368D03*
X-27932Y13683D03*
X-27932Y13998D03*
X-27932Y14313D03*
X-27932Y14628D03*
X-27932Y14943D03*
X-27932Y15258D03*
X-27932Y15573D03*
X-27932Y15888D03*
X-27932Y16203D03*
X-27932Y16518D03*
X-27932Y16833D03*
X-27932Y17147D03*
X-27617Y13053D03*
X-27617Y13368D03*
X-27617Y13683D03*
X-27617Y13998D03*
X-27617Y14313D03*
X-27617Y14628D03*
X-27617Y14943D03*
X-27617Y15258D03*
X-27617Y15573D03*
X-27617Y15888D03*
X-27617Y16203D03*
X-27617Y16518D03*
X-27617Y16833D03*
X-27617Y17147D03*
X-27302Y13053D03*
X-27302Y13368D03*
X-27302Y13683D03*
X-27302Y13998D03*
X-27302Y14313D03*
X-27302Y14628D03*
X-27302Y14943D03*
X-27302Y15258D03*
X-27302Y15573D03*
X-27302Y15888D03*
X-27302Y16203D03*
X-27302Y16518D03*
X-27302Y16833D03*
X-27302Y17147D03*
X-26987Y13053D03*
X-26987Y13368D03*
X-26987Y13683D03*
X-26987Y13998D03*
X-26987Y16203D03*
X-26987Y16518D03*
X-26987Y16833D03*
X-26987Y17147D03*
X-26672Y13053D03*
X-26672Y13368D03*
X-26672Y13683D03*
X-26672Y13998D03*
X-26672Y16203D03*
X-26672Y16518D03*
X-26672Y16833D03*
X-26672Y17147D03*
X-26357Y13053D03*
X-26357Y13368D03*
X-26357Y13683D03*
X-26357Y13998D03*
X-26357Y16203D03*
X-26357Y16518D03*
X-26357Y16833D03*
X-26357Y17147D03*
X-26042Y13053D03*
X-26042Y13368D03*
X-26042Y13683D03*
X-26042Y13998D03*
X-26042Y16203D03*
X-26042Y16518D03*
X-26042Y16833D03*
X-26042Y17147D03*
X-25727Y13053D03*
X-25727Y13368D03*
X-25727Y13683D03*
X-25727Y13998D03*
X-25727Y16203D03*
X-25727Y16518D03*
X-25727Y16833D03*
X-25727Y17147D03*
X-25412Y13053D03*
X-25412Y13368D03*
X-25412Y13683D03*
X-25412Y13998D03*
X-25412Y16203D03*
X-25412Y16518D03*
X-25412Y16833D03*
X-25412Y17147D03*
X-25097Y13053D03*
X-25097Y13368D03*
X-25097Y13683D03*
X-25097Y13998D03*
X-25097Y14313D03*
X-25097Y14628D03*
X-25097Y14943D03*
X-25097Y15258D03*
X-25097Y15573D03*
X-25097Y15888D03*
X-25097Y16203D03*
X-25097Y16518D03*
X-25097Y16833D03*
X-25097Y17147D03*
X-24782Y13053D03*
X-24782Y13368D03*
X-24782Y13683D03*
X-24782Y13998D03*
X-24782Y14313D03*
X-24782Y14628D03*
X-24782Y14943D03*
X-24782Y15258D03*
X-24782Y15573D03*
X-24782Y15888D03*
X-24782Y16203D03*
X-24782Y16518D03*
X-24782Y16833D03*
X-24782Y17147D03*
X-24467Y13053D03*
X-24467Y13368D03*
X-24467Y13683D03*
X-24467Y13998D03*
X-24467Y14313D03*
X-24467Y14628D03*
X-24467Y14943D03*
X-24467Y15258D03*
X-24467Y15573D03*
X-24467Y15888D03*
X-24467Y16203D03*
X-24467Y16518D03*
X-24467Y16833D03*
X-24467Y17147D03*
X-24153Y13053D03*
X-24153Y13368D03*
X-24153Y13683D03*
X-24153Y13998D03*
X-24153Y14313D03*
X-24153Y14628D03*
X-24153Y14943D03*
X-24153Y15258D03*
X-24153Y15573D03*
X-24153Y15888D03*
X-24153Y16203D03*
X-24153Y16518D03*
X-24153Y16833D03*
X-24153Y17147D03*
G54D40*
X-24248Y20669D03*
X-24504Y20669D03*
X-24760Y20669D03*
X-25016Y20669D03*
X-25272Y20669D03*
X-25528Y20669D03*
X-25784Y20669D03*
X-26040Y20669D03*
X-26296Y20669D03*
X-26552Y20669D03*
X-26552Y18331D03*
X-26296Y18331D03*
X-26040Y18331D03*
X-25784Y18331D03*
X-25528Y18331D03*
X-25272Y18331D03*
X-25016Y18331D03*
X-24760Y18331D03*
X-24504Y18331D03*
X-24248Y18331D03*
G54D46*
X-28264Y18116D03*
G54D47*
X-27811Y18116D03*
G54D46*
X-27752Y18904D03*
X-28264Y18904D03*
G54D12*
X-27803Y19400D03*
X-28197Y19400D03*
G54D16*
X-21000Y12500D03*
X-22000Y12500D03*
X-21000Y13500D03*
X-22000Y13500D03*
X-21000Y14500D03*
X-22000Y14500D03*
X-21000Y15500D03*
X-22000Y15500D03*
X-21000Y16500D03*
X-22000Y16500D03*
X-21000Y17500D03*
X-22000Y17500D03*
X-21000Y18500D03*
X-22000Y18500D03*
G54D11*
X-22800Y13203D03*
X-22800Y13597D03*
X-23200Y13597D03*
X-23200Y13203D03*
G54D43*
X-31957Y27111D03*
X-32154Y27111D03*
X-32351Y27111D03*
X-32548Y27111D03*
X-32745Y27111D03*
X-32745Y25929D03*
X-32548Y25929D03*
X-32351Y25929D03*
X-32154Y25929D03*
X-31957Y25929D03*
G54D44*
X-32351Y26520D03*
G54D45*
X-31651Y25120D03*
X-31651Y23920D03*
X-33051Y25120D03*
X-33051Y23920D03*
G54D13*
X-32146Y23220D03*
X-31556Y23220D03*
X-32556Y23220D03*
X-33146Y23220D03*
G54D11*
X-33451Y26717D03*
X-33451Y26323D03*
X-33451Y27417D03*
X-33451Y27023D03*
X-31251Y26123D03*
X-31251Y26517D03*
X-31251Y26823D03*
X-31251Y27217D03*
X-30851Y26517D03*
X-30851Y26123D03*
G54D14*
X-32800Y28195D03*
X-32800Y27605D03*
G54D11*
X-32300Y27603D03*
X-32300Y27997D03*
G54D16*
X-40400Y24700D03*
X-40400Y25700D03*
X-31400Y21500D03*
X-31400Y22500D03*
X-35300Y23200D03*
X-34300Y23200D03*
G54D24*
X-24000Y10948D03*
X-23803Y10948D03*
X-23606Y10948D03*
X-24197Y10948D03*
X-24394Y10948D03*
X-23606Y09452D03*
X-23803Y09452D03*
X-24000Y09452D03*
X-24197Y09452D03*
X-24394Y09452D03*
G54D23*
X-23252Y10200D03*
X-23252Y10003D03*
X-23252Y09806D03*
X-23252Y10397D03*
X-23252Y10594D03*
X-24748Y10200D03*
X-24748Y10003D03*
X-24748Y09806D03*
X-24748Y10397D03*
X-24748Y10594D03*
G54D11*
X-22801Y10473D03*
X-22801Y10867D03*
G54D12*
X-22798Y09670D03*
X-22404Y09670D03*
G54D11*
X-23801Y08073D03*
X-23801Y08467D03*
G54D12*
X-23804Y08870D03*
X-24198Y08870D03*
X-24998Y08870D03*
X-24604Y08870D03*
G54D11*
X-23800Y07797D03*
X-23800Y07403D03*
G54D12*
X-24104Y07370D03*
X-24498Y07370D03*
G54D11*
X-22900Y11697D03*
X-22900Y11303D03*
X-24400Y11697D03*
X-24400Y11303D03*
X-24401Y01573D03*
X-24401Y01967D03*
X-26401Y01573D03*
X-26401Y01967D03*
G54D14*
X-27401Y02865D03*
X-27401Y02275D03*
G54D11*
X-27401Y01573D03*
X-27401Y01967D03*
G54D14*
X-30401Y02865D03*
X-30401Y02275D03*
G54D11*
X-30401Y01573D03*
X-30401Y01967D03*
G54D14*
X-31401Y02865D03*
X-31401Y02275D03*
G54D11*
X-31401Y01573D03*
X-31401Y01967D03*
G54D16*
X-26401Y03570D03*
X-25401Y03570D03*
X-31401Y03570D03*
G54D12*
X-28603Y10100D03*
X-28997Y10100D03*
X-28603Y11000D03*
X-28997Y11000D03*
G54D11*
X-27800Y11903D03*
X-27800Y12297D03*
G54D12*
X-30303Y13100D03*
X-30697Y13100D03*
G54D11*
X-27300Y11903D03*
X-27300Y12297D03*
G54D16*
X-24401Y00070D03*
X-25401Y00070D03*
X-26401Y00070D03*
X-27401Y00070D03*
X-28401Y00070D03*
X-29401Y00070D03*
X-30401Y00070D03*
X-31401Y00070D03*
G54D14*
X-31401Y-00635D03*
X-31401Y-01225D03*
G54D11*
X-29401Y-01927D03*
X-29401Y-01533D03*
G54D14*
X-29401Y-00635D03*
X-29401Y-01225D03*
G54D11*
X-28401Y-01927D03*
X-28401Y-01533D03*
G54D14*
X-28401Y-00635D03*
X-28401Y-01225D03*
G54D11*
X-27401Y-01927D03*
X-27401Y-01533D03*
G54D14*
X-27401Y-00635D03*
X-27401Y-01225D03*
G54D11*
X-26401Y-01927D03*
X-26401Y-01533D03*
G54D14*
X-26401Y-00635D03*
X-26401Y-01225D03*
G54D11*
X-25401Y-01927D03*
X-25401Y-01533D03*
G54D14*
X-24401Y-00635D03*
X-24401Y-01225D03*
G54D22*
X-38900Y24450D03*
X-37900Y24450D03*
X-36900Y24450D03*
X-36900Y26950D03*
X-38900Y26950D03*
G54D40*
X03848Y06731D03*
X04104Y06731D03*
X04360Y06731D03*
X04616Y06731D03*
X04872Y06731D03*
X05128Y06731D03*
X05384Y06731D03*
X05640Y06731D03*
X05896Y06731D03*
X06152Y06731D03*
X06152Y09069D03*
X05896Y09069D03*
X05640Y09069D03*
X05384Y09069D03*
X05128Y09069D03*
X04872Y09069D03*
X04616Y09069D03*
X04360Y09069D03*
X04104Y09069D03*
X03848Y09069D03*
G54D16*
X01400Y05300D03*
X02400Y05300D03*
X03400Y05300D03*
X04400Y05300D03*
X05400Y05300D03*
X06400Y05300D03*
X07400Y05300D03*
G54D48*
X-06316Y11236D03*
G54D49*
X-06316Y11689D03*
G54D48*
X-07104Y11748D03*
X-07104Y11236D03*
G54D16*
X10200Y07400D03*
X09200Y07400D03*
X10200Y08400D03*
X09200Y08400D03*
X10200Y09400D03*
X09200Y09400D03*
X10200Y10400D03*
X09200Y10400D03*
X10200Y11400D03*
X09200Y11400D03*
X10200Y12400D03*
X09200Y12400D03*
X10200Y13400D03*
X09200Y13400D03*
G54D12*
X08103Y08800D03*
X08497Y08800D03*
X08497Y07400D03*
X08103Y07400D03*
X08497Y11400D03*
X08103Y11400D03*
G54D43*
X09609Y22784D03*
X09412Y22784D03*
X09215Y22784D03*
X09018Y22784D03*
X08821Y22784D03*
X08821Y21602D03*
X09018Y21602D03*
X09215Y21602D03*
X09412Y21602D03*
X09609Y21602D03*
G54D44*
X09215Y22193D03*
G54D45*
X10015Y20893D03*
X10015Y19693D03*
X08415Y20893D03*
X08415Y19693D03*
G54D13*
X09520Y18993D03*
X10110Y18993D03*
X08910Y18993D03*
X08320Y18993D03*
G54D12*
X08212Y22593D03*
X07818Y22593D03*
X07818Y22093D03*
X08212Y22093D03*
X10612Y22193D03*
X10218Y22193D03*
X10218Y22693D03*
X10612Y22693D03*
X10218Y21793D03*
X10612Y21793D03*
G54D13*
X08220Y23293D03*
X08810Y23293D03*
G54D12*
X09218Y23293D03*
X09612Y23293D03*
G54D16*
X07100Y18200D03*
X08100Y18200D03*
G54D13*
X-05695Y10500D03*
X-05105Y10500D03*
G54D12*
X-04203Y10500D03*
X-04597Y10500D03*
G54D13*
X-05695Y09500D03*
X-05105Y09500D03*
G54D12*
X-04203Y09500D03*
X-04597Y09500D03*
G54D13*
X-05695Y08500D03*
X-05105Y08500D03*
G54D12*
X-04203Y08500D03*
X-04597Y08500D03*
G54D13*
X-05695Y07500D03*
X-05105Y07500D03*
G54D12*
X-04203Y07500D03*
X-04597Y07500D03*
G54D40*
X-00448Y09069D03*
X-00704Y09069D03*
X-00960Y09069D03*
X-01216Y09069D03*
X-01472Y09069D03*
X-01728Y09069D03*
X-01984Y09069D03*
X-02240Y09069D03*
X-02496Y09069D03*
X-02752Y09069D03*
X-02752Y06731D03*
X-02496Y06731D03*
X-02240Y06731D03*
X-01984Y06731D03*
X-01728Y06731D03*
X-01472Y06731D03*
X-01216Y06731D03*
X-00960Y06731D03*
X-00704Y06731D03*
X-00448Y06731D03*
G54D13*
X-05695Y06500D03*
X-05105Y06500D03*
G54D12*
X-04203Y06500D03*
X-04597Y06500D03*
G54D13*
X-05695Y05500D03*
X-05105Y05500D03*
G54D12*
X-04203Y05500D03*
X-04597Y05500D03*
G54D13*
X-05695Y04500D03*
X-05105Y04500D03*
G54D12*
X-04203Y04500D03*
X-04597Y04500D03*
X-04203Y03500D03*
X-04597Y03500D03*
G54D16*
X-06400Y08500D03*
X-06400Y09500D03*
X-06400Y10500D03*
X-06400Y07500D03*
X-06400Y06500D03*
X-06400Y05500D03*
X-06400Y04500D03*
X-06400Y03500D03*
G54D11*
X08200Y10403D03*
X08200Y10797D03*
G54D12*
X07103Y08800D03*
X07497Y08800D03*
G54D11*
X08200Y10097D03*
X08200Y09703D03*
G54D16*
X-10000Y10500D03*
X-10000Y09500D03*
X-10000Y07500D03*
X-10000Y06500D03*
X-10000Y05500D03*
X-10000Y04500D03*
X-10000Y03500D03*
G54D12*
X-07803Y03500D03*
X-08197Y03500D03*
G54D13*
X-09295Y03500D03*
X-08705Y03500D03*
G54D12*
X-07803Y04500D03*
X-08197Y04500D03*
G54D13*
X-09295Y04500D03*
X-08705Y04500D03*
G54D12*
X-07803Y05500D03*
X-08197Y05500D03*
X-07803Y06500D03*
X-08197Y06500D03*
G54D13*
X-09295Y06500D03*
X-08705Y06500D03*
G54D40*
X02852Y09069D03*
X02596Y09069D03*
X02340Y09069D03*
X02084Y09069D03*
X01828Y09069D03*
X01572Y09069D03*
X01316Y09069D03*
X01060Y09069D03*
X00804Y09069D03*
X00548Y09069D03*
X00548Y06731D03*
X00804Y06731D03*
X01060Y06731D03*
X01316Y06731D03*
X01572Y06731D03*
X01828Y06731D03*
X02084Y06731D03*
X02340Y06731D03*
X02596Y06731D03*
X02852Y06731D03*
G54D12*
X-07803Y08500D03*
X-08197Y08500D03*
G54D13*
X-09295Y08500D03*
X-08705Y08500D03*
G54D12*
X-07803Y09500D03*
X-08197Y09500D03*
G54D13*
X-09295Y09500D03*
X-08705Y09500D03*
G54D12*
X-07803Y10500D03*
X-08197Y10500D03*
G54D13*
X-09295Y10500D03*
X-08705Y10500D03*
G54D11*
X-24800Y11303D03*
X-24800Y11697D03*
G54D33*
X-41001Y13170D03*
X-40001Y13170D03*
X-41001Y12170D03*
X-40001Y12170D03*
X-41001Y11170D03*
X-40001Y11170D03*
X-41001Y10170D03*
X-40001Y10170D03*
X-41001Y09170D03*
X-40001Y09170D03*
X-41001Y08170D03*
X-40001Y08170D03*
X-41001Y07170D03*
X-40001Y07170D03*
X-41001Y06170D03*
X-40001Y06170D03*
G54D16*
X20275Y22950D03*
X19525Y23450D03*
X20275Y23950D03*
X19525Y24450D03*
X20275Y24950D03*
X19525Y25450D03*
X20275Y25950D03*
X19525Y26450D03*
G54D12*
X-28603Y10600D03*
X-28997Y10600D03*
X09103Y15100D03*
X09497Y15100D03*
X09103Y15500D03*
X09497Y15500D03*
X09103Y14200D03*
X09497Y14200D03*
X09103Y14600D03*
X09497Y14600D03*
X21703Y24000D03*
X22097Y24000D03*
X-30397Y21500D03*
X-30003Y21500D03*
G54D11*
X-27400Y23903D03*
X-27400Y24297D03*
G54D12*
X-27497Y21900D03*
X-27103Y21900D03*
X-27497Y21500D03*
X-27103Y21500D03*
G54D11*
X-27500Y20603D03*
X-27500Y20997D03*
X-27900Y20997D03*
X-27900Y20603D03*
X-29300Y20503D03*
X-29300Y20897D03*
X-21200Y24497D03*
X-21200Y24103D03*
X-21200Y26403D03*
X-21200Y26797D03*
G54D12*
X-29497Y14400D03*
X-29103Y14400D03*
X-29497Y14000D03*
X-29103Y14000D03*
X-29497Y13600D03*
X-29103Y13600D03*
X-03497Y09800D03*
X-03103Y09800D03*
X-04503Y21600D03*
X-04897Y21600D03*
G54D11*
X-05300Y18603D03*
X-05300Y18997D03*
X-05800Y18603D03*
X-05800Y18997D03*
X-06800Y18997D03*
X-06800Y18603D03*
X-06300Y18603D03*
X-06300Y18997D03*
X-04200Y11403D03*
X-04200Y11797D03*
X-05500Y22197D03*
X-05500Y21803D03*
X-06600Y21803D03*
X-06600Y22197D03*
G54D13*
X-29805Y20900D03*
X-30395Y20900D03*
X-03105Y09300D03*
X-03695Y09300D03*
G54D50*
X-27619Y28100D03*
X-29981Y28100D03*
X-27619Y25800D03*
X-29981Y25800D03*
G54D51*
X-08600Y21381D03*
X-08600Y19019D03*
X-03100Y21481D03*
X-03100Y19119D03*
G54D52*
X-28110Y21308D03*
X-28110Y21504D03*
X-28110Y21700D03*
X-28110Y21896D03*
X-28110Y22092D03*
X-29489Y22092D03*
X-29489Y21896D03*
X-29489Y21700D03*
X-29489Y21504D03*
X-29489Y21308D03*
G54D27*
X-03792Y10410D03*
X-03596Y10410D03*
X-03400Y10410D03*
X-03204Y10410D03*
X-03008Y10410D03*
X-03008Y11789D03*
X-03204Y11789D03*
X-03400Y11789D03*
X-03596Y11789D03*
X-03792Y11789D03*
G54D53*
X-24359Y27749D03*
X-23572Y26804D03*
X-23572Y24639D03*
X-22607Y23851D03*
X-25993Y23851D03*
X-25993Y27355D03*
X-06159Y27749D03*
X-05372Y26804D03*
X-05372Y24639D03*
X-04407Y23851D03*
X-07793Y23851D03*
X-07793Y27355D03*
G54D54*
X-30163Y24350D03*
X-30163Y23850D03*
X-30163Y23350D03*
X-30163Y22850D03*
X-28037Y22850D03*
X-28037Y23350D03*
X-28037Y23850D03*
X-28037Y24350D03*
X-07063Y21150D03*
X-07063Y20650D03*
X-07063Y20150D03*
X-07063Y19650D03*
X-04937Y19650D03*
X-04937Y20150D03*
X-04937Y20650D03*
X-04937Y21150D03*
G54D51*
X-34900Y25219D03*
X-34900Y27581D03*
G54D50*
X10596Y24793D03*
X08234Y24793D03*
G54D12*
X-28603Y19700D03*
X-28997Y19700D03*
G54D11*
X-05800Y11797D03*
X-05800Y11403D03*
G54D31*
X25926Y13256D03*
X25926Y13000D03*
X25926Y12744D03*
X26674Y12744D03*
X26674Y13256D03*
X28426Y12556D03*
X28426Y12300D03*
X28426Y12044D03*
X29174Y12044D03*
X29174Y12556D03*
G54D55*
X19254Y16025D03*
X19254Y15375D03*
X19746Y15375D03*
X19746Y16025D03*
G54D31*
X24174Y22244D03*
X24174Y22500D03*
X24174Y22756D03*
X23426Y22756D03*
X23426Y22244D03*
X06126Y01356D03*
X06126Y01100D03*
X06126Y00844D03*
X06874Y00844D03*
X06874Y01356D03*
G54D56*
X-28856Y20126D03*
X-28600Y20126D03*
X-28344Y20126D03*
X-28344Y20874D03*
X-28856Y20874D03*
G54D55*
X-29446Y16825D03*
X-29446Y16175D03*
X-28954Y16175D03*
X-28954Y16825D03*
G54D54*
X-28063Y10550D03*
X-28063Y10050D03*
X-28063Y09550D03*
X-28063Y09050D03*
X-25937Y09050D03*
X-25937Y09550D03*
X-25937Y10050D03*
X-25937Y10550D03*
G54D56*
X-31944Y15674D03*
X-32200Y15674D03*
X-32456Y15674D03*
X-32456Y14926D03*
X-31944Y14926D03*
X-30456Y14126D03*
X-30200Y14126D03*
X-29944Y14126D03*
X-29944Y14874D03*
X-30456Y14874D03*
G54D31*
X-05374Y11856D03*
X-05374Y11600D03*
X-05374Y11344D03*
X-04626Y11344D03*
X-04626Y11856D03*
G54D55*
X-02954Y16775D03*
X-02954Y17425D03*
X-03446Y17425D03*
X-03446Y16775D03*
G54D54*
X05437Y11150D03*
X05437Y10650D03*
X05437Y10150D03*
X05437Y09650D03*
X07563Y09650D03*
X07563Y10150D03*
X07563Y10650D03*
X07563Y11150D03*
G54D57*
X-03525Y13954D03*
X-02875Y13954D03*
X-02875Y14446D03*
X-03525Y14446D03*
G54D58*
X-20500Y28800D03*
X-40800Y28800D03*
X-40800Y-00800D03*
X-22800Y-00800D03*
X-16400Y30400D03*
X16400Y30400D03*
X16400Y-03200D03*
X-16400Y-03200D03*
G54D16*
X-20400Y20800D03*
X-23400Y20800D03*
X-21900Y20800D03*
X-37900Y23400D03*
G54D12*
X-21297Y21200D03*
X-20903Y21200D03*
G54D16*
X-38900Y23400D03*
G54D59*
X-20400Y20013D03*
X-20774Y19187D03*
X-20026Y19187D03*
X-23400Y20013D03*
X-23774Y19187D03*
X-23026Y19187D03*
X-21900Y20013D03*
X-22274Y19187D03*
X-21526Y19187D03*
G54D60*
X22095Y05549D03*
X22095Y06072D03*
X-07165Y16094D03*
G54D25*
X23055Y27238D03*
X-07106Y14731D03*
G54D60*
X-03652Y15856D03*
G54D25*
X-01500Y16248D03*
X-05405Y13401D03*
X07085Y12162D03*
X04205Y11838D03*
X03828Y11685D03*
X07358Y12189D03*
X05152Y14500D03*
X03827Y12623D03*
X-07124Y14480D03*
X-05601Y15860D03*
G54D60*
X-04985Y16707D03*
G54D25*
X-06902Y15594D03*
X-06001Y13532D03*
X-08002Y15304D03*
G54D60*
X-07965Y13307D03*
X-08028Y15710D03*
G54D25*
X-04611Y13884D03*
X00057Y11695D03*
G54D60*
X04864Y07211D03*
X02312Y09578D03*
X08241Y09433D03*
X03897Y20136D03*
X02593Y08647D03*
X00571Y19842D03*
X01091Y10181D03*
X01429Y09938D03*
X01014Y09782D03*
G54D25*
X-04246Y13783D03*
X00063Y11366D03*
X-04716Y14401D03*
X-01517Y16563D03*
G54D60*
X-06316Y12018D03*
G54D25*
X01001Y11364D03*
X-06609Y00109D03*
X-01491Y15622D03*
X-07206Y14205D03*
X-01491Y14037D03*
X-06195Y13398D03*
X-02200Y14670D03*
X-06603Y13398D03*
X-02213Y14993D03*
X-07016Y13418D03*
X-01491Y15306D03*
X-07215Y13890D03*
X-05800Y13401D03*
X-01483Y13108D03*
X06157Y14820D03*
X03202Y17029D03*
X05151Y15133D03*
X02571Y16737D03*
G54D60*
X04379Y09960D03*
X01888Y09780D03*
G54D25*
X05797Y14675D03*
X02885Y16721D03*
X05481Y14669D03*
X02883Y17042D03*
X03361Y11715D03*
X02417Y10979D03*
X02561Y11358D03*
X03047Y11720D03*
X01156Y10948D03*
X-06624Y-00385D03*
X-04619Y14799D03*
X-01848Y13568D03*
G54D60*
X00083Y08849D03*
X-00347Y04752D03*
X00806Y08627D03*
X00151Y05130D03*
G54D25*
X02734Y11707D03*
G54D60*
X-32308Y20308D03*
X-32308Y17304D03*
X-32298Y08402D03*
X-31805Y09795D03*
X-32294Y05433D03*
G54D25*
X-25553Y12864D03*
G54D60*
X-30043Y13061D03*
G54D25*
X-26151Y12026D03*
G54D60*
X-30494Y12442D03*
G54D25*
X-29676Y14402D03*
G54D60*
X-21318Y20755D03*
X-28774Y18092D03*
G54D25*
X-24412Y11856D03*
X-26819Y13209D03*
X-29205Y12803D03*
X-23882Y17772D03*
X-26537Y11231D03*
X-25014Y17956D03*
X-25311Y07939D03*
X-23636Y10631D03*
X-25557Y07925D03*
X-23844Y10694D03*
X-27477Y11033D03*
X-27766Y13226D03*
X-25812Y07928D03*
X-25889Y13210D03*
X-24747Y17794D03*
X-24745Y10734D03*
X-26081Y08177D03*
X-27763Y13531D03*
X-28071Y12873D03*
X-26328Y07923D03*
X-28091Y13213D03*
X-26582Y07923D03*
X-28088Y13523D03*
X-26844Y07919D03*
X-28088Y13852D03*
X-27102Y07919D03*
X-28847Y12750D03*
G54D60*
X-30275Y06992D03*
G54D25*
X-26578Y12009D03*
G54D60*
X-30180Y11200D03*
X-29492Y12193D03*
X-30693Y12799D03*
G54D25*
X-25256Y12854D03*
X-24745Y10997D03*
X-25261Y18785D03*
X-29682Y13602D03*
G54D60*
X-29418Y18334D03*
G54D25*
X-25738Y12013D03*
G54D60*
X-30335Y10368D03*
G54D25*
X-29679Y14009D03*
G54D60*
X-29102Y18212D03*
X-35315Y21544D03*
X-35315Y18844D03*
X-35343Y16145D03*
X-35315Y13444D03*
X-35315Y10744D03*
X-35315Y08044D03*
X-35315Y05344D03*
X-35315Y02644D03*
X-32294Y19549D03*
X-32302Y06111D03*
X-30772Y15578D03*
X-37030Y20290D03*
X-37030Y17590D03*
X-37030Y14890D03*
X-37030Y12190D03*
X-37030Y09490D03*
X-37030Y06790D03*
X-37030Y04090D03*
X-37030Y01390D03*
X-32302Y07686D03*
X-32306Y18001D03*
X-30403Y19097D03*
G54D25*
X25715Y14265D03*
X22534Y13028D03*
X24824Y14585D03*
X21920Y13330D03*
G54D60*
X14558Y13336D03*
G54D25*
X16883Y13577D03*
X20447Y12304D03*
X26255Y13061D03*
X27361Y13489D03*
X21606Y13031D03*
X26157Y15127D03*
X17325Y15324D03*
X20969Y12704D03*
X25269Y15613D03*
X25532Y11966D03*
X21287Y12720D03*
X16893Y13843D03*
X19996Y12264D03*
X24949Y15529D03*
X20968Y13330D03*
X28182Y14720D03*
X20314Y12869D03*
X20985Y15237D03*
X26234Y13928D03*
X26651Y13010D03*
X21920Y12389D03*
X16868Y13328D03*
X24431Y12715D03*
X24118Y13034D03*
X24113Y12716D03*
X23043Y12241D03*
X24112Y12382D03*
X22241Y13027D03*
X25234Y14339D03*
X30947Y16676D03*
X30947Y14425D03*
X30947Y14179D03*
X30947Y13925D03*
X30947Y13679D03*
X30947Y13425D03*
X30947Y13170D03*
X30947Y12916D03*
X30947Y16430D03*
X30947Y16184D03*
X30947Y15930D03*
X30947Y15672D03*
X30947Y15425D03*
X30947Y15175D03*
X30947Y14941D03*
X30947Y14687D03*
X26591Y13687D03*
X27643Y15399D03*
X29378Y12494D03*
X29128Y12326D03*
X26651Y13580D03*
X26752Y14630D03*
X28219Y15491D03*
X28272Y14091D03*
X25609Y14634D03*
X21691Y12352D03*
X28177Y14510D03*
X20973Y13645D03*
G54D60*
X02996Y07415D03*
X04650Y04720D03*
G54D25*
X26163Y26668D03*
X26168Y24430D03*
X26168Y24172D03*
X26168Y23926D03*
X26165Y23679D03*
X26168Y23430D03*
X26165Y23180D03*
X26168Y22934D03*
X26163Y26413D03*
X26156Y26172D03*
X26165Y25931D03*
X26165Y25679D03*
X26165Y25419D03*
X26165Y25178D03*
X26165Y24929D03*
X26165Y24682D03*
X26088Y22686D03*
X25077Y22696D03*
X24955Y26914D03*
X26171Y26936D03*
X22822Y24300D03*
X22862Y25299D03*
X21397Y27097D03*
X21820Y27140D03*
G54D60*
X24860Y21912D03*
X22752Y22203D03*
X22458Y22614D03*
X20970Y22315D03*
X24288Y26544D03*
X22399Y27257D03*
G54D25*
X21502Y25628D03*
X21506Y23755D03*
G54D60*
X22374Y23522D03*
G54D25*
X23475Y23903D03*
X23485Y25638D03*
X22403Y26186D03*
G54D60*
X01680Y01698D03*
X05876Y00860D03*
X-01119Y02137D03*
X03652Y01688D03*
X06917Y02148D03*
G54D25*
X21394Y26703D03*
X21036Y22951D03*
X23649Y26232D03*
X22820Y24028D03*
X22818Y25612D03*
X23643Y23380D03*
X23252Y22574D03*
X22789Y22565D03*
X20849Y26438D03*
X22088Y24349D03*
G54D60*
X22758Y21901D03*
X02120Y01693D03*
X06795Y00645D03*
X03178Y01711D03*
G54D25*
X22098Y26411D03*
X22820Y24513D03*
X21704Y24268D03*
X21126Y24698D03*
X22808Y24900D03*
X23450Y14761D03*
X-02201Y15306D03*
G54D60*
X-07550Y00742D03*
G54D25*
X29895Y16942D03*
X30418Y16931D03*
X30941Y16937D03*
X30935Y12684D03*
X30401Y12678D03*
X29884Y12673D03*
X28795Y15675D03*
X28795Y14019D03*
X28107Y12803D03*
X28896Y12803D03*
X27496Y16930D03*
X28301Y16897D03*
X27710Y14355D03*
X27071Y15200D03*
X27047Y14435D03*
X29790Y12056D03*
X28157Y12315D03*
X26934Y12016D03*
X25256Y13993D03*
X24114Y16494D03*
X25998Y15959D03*
X28845Y16464D03*
X22896Y14787D03*
X22886Y15336D03*
X19285Y15115D03*
X19721Y16293D03*
X20652Y16499D03*
X20673Y15535D03*
X20967Y15543D03*
X20669Y15228D03*
X21286Y15551D03*
X21600Y14599D03*
X22229Y15857D03*
X22557Y15870D03*
X23492Y15543D03*
X23810Y15541D03*
X23791Y13977D03*
X23812Y13653D03*
X23488Y13349D03*
X22856Y13639D03*
X22076Y13677D03*
X21290Y13643D03*
X26891Y13663D03*
X24038Y17208D03*
X26683Y17021D03*
X25178Y16099D03*
X24047Y11904D03*
X25717Y12773D03*
X19796Y13155D03*
G54D60*
X21500Y07185D03*
X21507Y08870D03*
X22105Y05796D03*
X20865Y05805D03*
X20851Y06062D03*
X20860Y05544D03*
X20405Y04334D03*
X22593Y04329D03*
X21504Y04213D03*
X20100Y06251D03*
X22791Y05855D03*
X21506Y08529D03*
X15700Y13632D03*
X14557Y15458D03*
X13204Y05445D03*
X13192Y06450D03*
G54D25*
X07054Y13867D03*
X07041Y13229D03*
X07026Y14500D03*
X06155Y13556D03*
X06175Y14193D03*
X07858Y15954D03*
X07705Y13068D03*
X-03521Y14701D03*
X-02610Y13942D03*
X-05896Y15049D03*
X-05541Y14712D03*
X-05913Y14340D03*
X-06256Y14718D03*
G54D60*
X-11221Y-00385D03*
X-11184Y00284D03*
X09210Y19472D03*
X09221Y21146D03*
X09877Y23299D03*
X09838Y22040D03*
X09829Y22330D03*
X08614Y22035D03*
X08614Y22330D03*
X07819Y21839D03*
X10617Y22938D03*
X-07124Y16697D03*
X-07809Y10845D03*
X-07800Y03178D03*
X-04217Y03188D03*
X-04197Y10839D03*
X-36822Y19727D03*
X-35807Y21589D03*
X-35699Y20487D03*
X-34257Y19761D03*
X-34257Y17061D03*
X-35699Y17787D03*
X-35807Y18889D03*
X-36822Y17027D03*
X-34257Y14361D03*
X-35699Y15087D03*
X-35807Y16189D03*
X-36822Y14327D03*
X-34257Y11661D03*
X-35699Y12387D03*
X-35807Y13489D03*
X-36822Y11627D03*
X-34257Y08961D03*
X-35699Y09687D03*
X-35807Y10789D03*
X-36822Y08927D03*
X-34257Y06261D03*
X-35699Y06987D03*
X-35807Y08089D03*
X-36822Y06227D03*
X-34257Y03561D03*
X-35699Y04287D03*
X-35807Y05389D03*
X-36822Y03527D03*
X-34257Y00861D03*
X-35699Y01587D03*
X-35807Y02689D03*
X-36822Y00827D03*
X-32927Y12507D03*
X-32885Y13804D03*
X-32348Y10374D03*
X-30612Y11717D03*
X-30397Y10863D03*
X-31493Y15506D03*
X-32287Y16329D03*
X-31603Y13025D03*
X-30204Y13911D03*
X-30697Y18551D03*
X-30987Y16686D03*
X-24688Y07367D03*
X-25004Y08476D03*
X-24996Y09097D03*
X-24996Y07830D03*
X-24504Y07124D03*
G54D25*
X-24987Y10148D03*
X-23484Y10003D03*
X-23252Y10740D03*
X-22993Y10867D03*
X-25096Y11409D03*
X-28923Y17065D03*
X-29367Y15879D03*
G54D60*
X-23411Y18715D03*
X-26543Y20237D03*
X-29300Y20282D03*
X-28603Y19905D03*
X-30379Y21236D03*
X-27243Y20994D03*
X-27702Y21909D03*
X-27402Y23678D03*
X-30603Y22853D03*
X-32354Y23221D03*
X-32354Y23664D03*
X-32345Y25488D03*
X-31746Y26364D03*
X-31746Y26679D03*
X-32956Y26675D03*
X-32964Y26364D03*
X-32303Y28212D03*
X-33142Y28200D03*
X-31254Y27452D03*
X-33447Y27627D03*
X-34894Y24505D03*
X-35719Y25237D03*
X-34052Y25220D03*
X-03417Y16497D03*
X-02988Y17692D03*
X-04271Y17797D03*
X-03570Y09575D03*
X-05806Y11999D03*
X-05078Y18605D03*
X-07023Y18591D03*
X-06031Y21803D03*
X-12784Y28419D03*
X02605Y07202D03*
X03065Y09071D03*
X00304Y09064D03*
X-00212Y09078D03*
X-01351Y03843D03*
X01651Y03857D03*
X06400Y04263D03*
X-00795Y07187D03*
X06328Y06737D03*
X-04203Y08035D03*
X09814Y14600D03*
X10610Y25776D03*
X10158Y23885D03*
X05053Y09662D03*
X07907Y11506D03*
X00371Y13881D03*
X00991Y13886D03*
X01630Y13886D03*
X01310Y14191D03*
X00681Y14205D03*
X00376Y14525D03*
X01005Y14505D03*
X01635Y14525D03*
X00691Y14835D03*
X01301Y14830D03*
X00961Y16341D03*
X02611Y18300D03*
G54D25*
X-28410Y17303D03*
X-27771Y16049D03*
X-28081Y16044D03*
X-27462Y16049D03*
X-26518Y16364D03*
X-26193Y16369D03*
X-25259Y16054D03*
X-24935Y16049D03*
X-24944Y15110D03*
X-24935Y14465D03*
X-24930Y14147D03*
X-25564Y13846D03*
X-25908Y14166D03*
X-26513Y14161D03*
X-27457Y14151D03*
X-27452Y15091D03*
X-24004Y17290D03*
G54D60*
X-26397Y15328D03*
X-26397Y14810D03*
X-26087Y14776D03*
X-25511Y14786D03*
G54D25*
X-28099Y14794D03*
X-24940Y16351D03*
X-24765Y12832D03*
G54D60*
X-25362Y05461D03*
X-28585Y05568D03*
X-31997Y18904D03*
X-32631Y18671D03*
X-32023Y06700D03*
X-32681Y07107D03*
X-04306Y21604D03*
G54D25*
X-00107Y16678D03*
X01157Y16692D03*
X04170Y17364D03*
X04158Y11105D03*
X-02138Y11074D03*
G54D60*
X-00619Y20503D03*
X16467Y17672D03*
X14122Y11808D03*
X16992Y15163D03*
X22853Y14350D03*
G54D25*
X22050Y14522D03*
G54D60*
X03646Y03885D03*
X00382Y12348D03*
X01044Y12362D03*
X-07063Y19411D03*
X-22402Y10309D03*
X-22405Y09438D03*
X-28143Y08797D03*
X07954Y23281D03*
X-02757Y09633D03*
X-24395Y01200D03*
X-31927Y-01922D03*
X20189Y14558D03*
G54D25*
X-28161Y18359D03*
X25865Y16657D03*
G54D60*
X-22897Y11894D03*
X-23308Y11908D03*
G54D25*
X-23807Y09669D03*
G54D60*
X-08348Y-00550D03*
X-27356Y06964D03*
X-28252Y07019D03*
X-30549Y07877D03*
G54D25*
X28228Y15213D03*
X27686Y15775D03*
G54D60*
X-07266Y12751D03*
X-08044Y13809D03*
G54D25*
X-07212Y15620D03*
X-02178Y16242D03*
X-28200Y11687D03*
G54D60*
X-30895Y14252D03*
G54D25*
X-01842Y17345D03*
G54D60*
X-23105Y09167D03*
X-22272Y19495D03*
X-23773Y19486D03*
G54D25*
X26168Y16325D03*
X03503Y16723D03*
X05812Y14351D03*
X07031Y14827D03*
X02271Y17040D03*
X03829Y15136D03*
X07391Y14970D03*
X07384Y14641D03*
X01000Y17377D03*
X04179Y15323D03*
X08049Y15132D03*
X03513Y17052D03*
X07704Y14961D03*
X05061Y15553D03*
X03199Y16726D03*
X05511Y15902D03*
X04214Y16877D03*
X05505Y15586D03*
X03837Y17025D03*
X-06484Y16085D03*
X-05827Y16081D03*
X-06868Y16079D03*
X04189Y14046D03*
G54D60*
X08852Y15055D03*
G54D25*
X03483Y14043D03*
G54D60*
X08853Y15466D03*
G54D25*
X-03175Y14200D03*
X-02553Y14414D03*
X05814Y15603D03*
X03834Y17355D03*
X-01835Y12310D03*
X04193Y13727D03*
G54D60*
X08847Y14173D03*
G54D25*
X03479Y13727D03*
G54D60*
X08844Y14570D03*
X03838Y07474D03*
X04096Y09566D03*
X02018Y07589D03*
X05128Y08626D03*
X-03938Y18091D03*
X-05287Y17800D03*
X08026Y10255D03*
X05822Y10650D03*
G54D25*
X09506Y21266D03*
X08934Y21280D03*
G54D60*
X09027Y23293D03*
G54D25*
X-06113Y16085D03*
X-05299Y16105D03*
X-02196Y12142D03*
X25532Y12443D03*
X21285Y13029D03*
G54D60*
X10708Y14368D03*
G54D25*
X21442Y12358D03*
X21444Y16819D03*
X22388Y12341D03*
X24949Y16675D03*
X20663Y15854D03*
X25437Y16160D03*
X26091Y16566D03*
X26699Y16648D03*
X26394Y16746D03*
X26666Y15902D03*
X21305Y06728D03*
X21707Y06732D03*
G54D60*
X21247Y04694D03*
X21751Y04704D03*
X23797Y22291D03*
X23527Y27112D03*
G54D25*
X-27838Y12558D03*
X-27464Y13527D03*
G54D60*
X-32302Y13294D03*
G54D25*
X-23047Y10417D03*
G54D60*
X-32056Y25577D03*
X-32518Y27600D03*
G54D25*
X-24983Y10437D03*
X-23565Y09262D03*
X-23047Y10188D03*
G54D60*
X-27573Y08441D03*
G54D25*
X-28908Y15876D03*
G54D60*
X-32516Y10953D03*
X-33206Y13406D03*
G54D25*
X-26831Y13522D03*
X-28680Y14380D03*
X-26674Y12856D03*
X-28687Y13990D03*
X-26993Y12848D03*
X-28670Y13634D03*
G54D60*
X-03562Y10958D03*
X-06270Y18284D03*
X-03896Y10963D03*
X-06682Y18298D03*
X-34389Y18940D03*
X-32818Y19496D03*
X-34398Y13546D03*
X-32825Y17310D03*
X-34378Y02743D03*
X-31789Y06220D03*
X-31787Y08409D03*
X-34393Y08138D03*
G54D25*
X23521Y13635D03*
X23467Y15071D03*
X23032Y15527D03*
X21760Y15524D03*
X21673Y14048D03*
X21756Y13682D03*
X22312Y13953D03*
X22318Y14690D03*
X22053Y15056D03*
G54D60*
X-07986Y16884D03*
X-00272Y14870D03*
X00052Y15469D03*
X00681Y15488D03*
X01305Y15483D03*
X01940Y15498D03*
X02269Y14810D03*
G54D25*
X-26991Y14180D03*
X-27128Y14628D03*
X-26973Y16015D03*
X-25732Y16004D03*
X-25280Y15572D03*
X-25256Y14148D03*
G54D60*
X-07549Y01089D03*
X-28636Y09715D03*
G54D25*
X27354Y12397D03*
X21292Y13961D03*
X21282Y14297D03*
X21296Y14926D03*
X20981Y14928D03*
X21282Y15864D03*
X21904Y15861D03*
X22870Y15852D03*
X23820Y15864D03*
X23807Y14597D03*
X24442Y13339D03*
X24731Y12408D03*
X22864Y13327D03*
X22533Y13349D03*
X20326Y12510D03*
X23402Y12130D03*
X26094Y12106D03*
X22229Y16500D03*
X24442Y14901D03*
G54D60*
X16055Y14350D03*
X14543Y15103D03*
X15098Y11173D03*
X13198Y07687D03*
G54D25*
X05145Y15766D03*
X07046Y14185D03*
X07033Y13555D03*
X06154Y14509D03*
X06159Y13871D03*
X06151Y13241D03*
X05494Y13393D03*
X-04100Y13994D03*
G54D60*
X03580Y09064D03*
X-31373Y10160D03*
X-28989Y11271D03*
G54D25*
X-28580Y13045D03*
X-28439Y12295D03*
X-23932Y13051D03*
G54D60*
X-24089Y18328D03*
X-29198Y19706D03*
X-30053Y20515D03*
X-28511Y22093D03*
X-27630Y24316D03*
X-27208Y18520D03*
X-03099Y09575D03*
X-05799Y11209D03*
X07792Y08805D03*
X03057Y06725D03*
X-07409Y11270D03*
X-00452Y07214D03*
X02662Y04263D03*
X09498Y15797D03*
X07554Y10919D03*
X05049Y10158D03*
X00047Y13250D03*
X00681Y13245D03*
X01306Y13250D03*
X01935Y13254D03*
X02284Y13874D03*
X-00309Y14207D03*
X-00311Y13565D03*
G54D25*
X07172Y12632D03*
G54D60*
X08520Y16201D03*
G54D25*
X-27776Y15105D03*
X-27462Y14476D03*
X-27781Y15415D03*
X-24954Y14795D03*
X-25564Y14161D03*
X-26198Y14161D03*
X-24320Y13856D03*
X-27450Y15421D03*
X-26827Y16350D03*
X-25571Y16367D03*
X-25256Y16352D03*
X-27464Y16362D03*
G54D60*
X-25903Y10930D03*
X-22565Y13204D03*
X-24159Y06626D03*
X-24989Y05471D03*
X-28225Y05527D03*
X-30555Y13922D03*
X-31295Y16003D03*
X27510Y17296D03*
X-06608Y12205D03*
X-06415Y12699D03*
X-05391Y12619D03*
X-04916Y21387D03*
G54D25*
X-01475Y15866D03*
X-01844Y17039D03*
X-01045Y16668D03*
X-00261Y17021D03*
G54D60*
X00208Y20148D03*
X07879Y07433D03*
X-03756Y12260D03*
X-28229Y19159D03*
X-22499Y11918D03*
X-20032Y18838D03*
X-21517Y19515D03*
X-23027Y19510D03*
G54D25*
X26205Y13689D03*
X26320Y13514D03*
G54D61*
X22105Y05796D02*
X22095Y05549D01*
X22105Y05796D02*
X22095Y06072D01*
G54D62*
X01676Y01744D02*
X01700Y01443D01*
G54D63*
X-07165Y16094D02*
X-07468Y16105D01*
G54D64*
X-06845Y14602D02*
X-07009Y14634D01*
X-07009Y14634D02*
X-07106Y14731D01*
X-03397Y15900D02*
X-03652Y15856D01*
X-01678Y16247D02*
X-01500Y16248D01*
X-05400Y13197D02*
X-05405Y13401D01*
X-05405Y13401D02*
X-05408Y13755D01*
X-01993Y13097D02*
X-03539Y13346D01*
X-04568Y13393D02*
X-03539Y13346D01*
X-04568Y13393D02*
X-05173Y13000D01*
X-05173Y13000D02*
X-05549Y13007D01*
X-05549Y13007D02*
X-05603Y13064D01*
X-05603Y13064D02*
X-05605Y13755D01*
X05655Y13240D02*
X05519Y13039D01*
X05519Y13039D02*
X04662Y13049D01*
X04662Y13049D02*
X03992Y13412D01*
X03677Y13412D02*
X03848Y13550D01*
X03848Y13550D02*
X03967Y13569D01*
X03967Y13569D02*
X04167Y13559D01*
X04167Y13559D02*
X05340Y13555D01*
X07860Y14185D02*
X07974Y14084D01*
X07974Y14084D02*
X08039Y13853D01*
X08039Y13853D02*
X08032Y13260D01*
X08032Y13260D02*
X07955Y13051D01*
X07955Y13051D02*
X07085Y12162D01*
X03992Y11837D02*
X04205Y11838D01*
X07545Y13870D02*
X07704Y14015D01*
X07704Y14015D02*
X07704Y14209D01*
X07704Y14209D02*
X07728Y14269D01*
X07728Y14269D02*
X07776Y14322D01*
X07991Y14314D02*
X08054Y14176D01*
X03677Y11837D02*
X03828Y11685D01*
X08054Y14176D02*
X08140Y13957D01*
X08140Y13957D02*
X08142Y13852D01*
X08142Y13852D02*
X08135Y13264D01*
X08135Y13264D02*
X08099Y13078D01*
X08099Y13078D02*
X07961Y12887D01*
X07961Y12887D02*
X07358Y12189D01*
X07776Y14322D02*
X07844Y14345D01*
X07844Y14345D02*
X07909Y14346D01*
X07909Y14346D02*
X07991Y14314D01*
X07860Y13870D02*
X07659Y13717D01*
X07659Y13717D02*
X07360Y13708D01*
X07360Y13708D02*
X06994Y13712D01*
X06994Y13712D02*
X06898Y13668D01*
X06898Y13668D02*
X06768Y13318D01*
X06768Y13318D02*
X06768Y13055D01*
X06602Y12847D02*
X06345Y12610D01*
X05271Y12279D02*
X04540Y11695D01*
X04540Y11695D02*
X03992Y11522D01*
X06768Y13055D02*
X06602Y12847D01*
X06345Y12610D02*
X06079Y12450D01*
X06079Y12450D02*
X05718Y12361D01*
X05718Y12361D02*
X05271Y12279D01*
X07543Y13558D02*
X07358Y13438D01*
X07358Y13438D02*
X07286Y13396D01*
X07286Y13396D02*
X06976Y13394D01*
X06976Y13394D02*
X06881Y13322D01*
X06881Y13322D02*
X06867Y13002D01*
X06767Y12890D02*
X06583Y12663D01*
X04601Y11604D02*
X04183Y11359D01*
X04183Y11359D02*
X03829Y11363D01*
X03829Y11363D02*
X03677Y11522D01*
X05316Y12184D02*
X04601Y11604D01*
X06095Y12314D02*
X05316Y12184D01*
X06583Y12663D02*
X06376Y12490D01*
X06867Y13002D02*
X06767Y12890D01*
X06376Y12490D02*
X06095Y12314D01*
X07860Y13555D02*
X07648Y13397D01*
X07648Y13397D02*
X07476Y13393D01*
X07476Y13393D02*
X07397Y13306D01*
X07397Y13306D02*
X07385Y13232D01*
X07385Y13232D02*
X07364Y13125D01*
X07364Y13125D02*
X06980Y12876D01*
X06980Y12876D02*
X06572Y12486D01*
X06127Y12207D02*
X05364Y12089D01*
X05364Y12089D02*
X04688Y11543D01*
X04688Y11543D02*
X04435Y11005D01*
X03758Y11050D02*
X03677Y11207D01*
X04435Y11005D02*
X04144Y10890D01*
X06572Y12486D02*
X06127Y12207D01*
X03954Y10940D02*
X03758Y11050D01*
X04144Y10890D02*
X03954Y10940D01*
X07545Y13240D02*
X07466Y13078D01*
X07120Y12802D02*
X06679Y12431D01*
X06200Y12099D02*
X05411Y11990D01*
X05411Y11990D02*
X05026Y11636D01*
X04547Y10942D02*
X05026Y11636D01*
X03524Y10961D02*
X03362Y11207D01*
X04148Y10776D02*
X03524Y10961D01*
X04547Y10942D02*
X04148Y10776D01*
X07466Y13078D02*
X07120Y12802D01*
X06679Y12431D02*
X06200Y12099D01*
X05655Y13555D02*
X05805Y13395D01*
X05805Y13395D02*
X05818Y13062D01*
X05818Y13062D02*
X05667Y12934D01*
X05667Y12934D02*
X04514Y12900D01*
X04514Y12900D02*
X03992Y13097D01*
X05340Y13870D02*
X04290Y13885D01*
X04290Y13885D02*
X03521Y13882D01*
X03521Y13882D02*
X03384Y13885D01*
X03286Y13764D02*
X03384Y13885D01*
X03286Y13764D02*
X03286Y13236D01*
X03286Y13236D02*
X03398Y13100D01*
X03398Y13100D02*
X03677Y13097D01*
X05655Y13870D02*
X05778Y13716D01*
X05778Y13716D02*
X06255Y13711D01*
X06255Y13711D02*
X06311Y13606D01*
X06311Y13606D02*
X06351Y13390D01*
X06351Y13390D02*
X06292Y13156D01*
X06143Y13005D02*
X05687Y12831D01*
X05687Y12831D02*
X03992Y12782D01*
X06292Y13156D02*
X06143Y13005D01*
X03677Y12782D02*
X03407Y12777D01*
X03407Y12777D02*
X03174Y12946D01*
X03174Y12946D02*
X03174Y13934D01*
X03174Y13934D02*
X03392Y14189D01*
X03392Y14189D02*
X03554Y14207D01*
X03554Y14207D02*
X03956Y14192D01*
X03956Y14192D02*
X04135Y14217D01*
X04135Y14217D02*
X05340Y14185D01*
X05655Y14185D02*
X05797Y14046D01*
X05797Y14046D02*
X06069Y14020D01*
X06069Y14020D02*
X06231Y14038D01*
X06231Y14038D02*
X06331Y13956D01*
X06331Y13956D02*
X06459Y13422D01*
X06459Y13422D02*
X06447Y13224D01*
X06350Y13050D02*
X06200Y12909D01*
X05624Y12701D02*
X03992Y12467D01*
X06200Y12909D02*
X05624Y12701D01*
X06447Y13224D02*
X06350Y13050D01*
X05340Y14500D02*
X05152Y14500D01*
X03677Y12467D02*
X03827Y12623D01*
X07860Y14500D02*
X07664Y14371D01*
X07664Y14371D02*
X07538Y14339D01*
X07538Y14339D02*
X06958Y14343D01*
X06833Y14157D02*
X06958Y14343D01*
X06833Y14157D02*
X06560Y13428D01*
X06560Y13428D02*
X06549Y13176D01*
X06467Y13021D02*
X06284Y12846D01*
X05598Y12587D02*
X03979Y12208D01*
X06284Y12846D02*
X06196Y12778D01*
X06549Y13176D02*
X06467Y13021D01*
X05999Y12684D02*
X05598Y12587D01*
X06196Y12778D02*
X05999Y12684D01*
X03677Y12152D02*
X03892Y11991D01*
X03892Y11991D02*
X04195Y11994D01*
X04195Y11994D02*
X05431Y12444D01*
X05431Y12444D02*
X05744Y12473D01*
X06515Y12909D02*
X06655Y13098D01*
X06669Y13376D02*
X06740Y13616D01*
X06740Y13616D02*
X06882Y13957D01*
X06882Y13957D02*
X06978Y14027D01*
X06978Y14027D02*
X07137Y14031D01*
X07137Y14031D02*
X07358Y14029D01*
X07358Y14029D02*
X07545Y14185D01*
X06278Y12687D02*
X06515Y12909D01*
X06655Y13098D02*
X06669Y13376D01*
X05744Y12473D02*
X06278Y12687D01*
G54D63*
X-07400Y16105D02*
X-07900Y16103D01*
G54D64*
X-06845Y14405D02*
X-07037Y14408D01*
X-07037Y14408D02*
X-07124Y14480D01*
X-05605Y15645D02*
X-05601Y15860D01*
G54D63*
X-06500Y16697D02*
X-06100Y16697D01*
X-06100Y16697D02*
X-05700Y16697D01*
X-05700Y16697D02*
X-05300Y16697D01*
X-05300Y16697D02*
X-04985Y16707D01*
G54D64*
X-06902Y15594D02*
X-06845Y15389D01*
X-05998Y13755D02*
X-06001Y13532D01*
X-07797Y15300D02*
X-07797Y14900D01*
X-07797Y15300D02*
X-08002Y15304D01*
G54D63*
X-07600Y13295D02*
X-07965Y13307D01*
X-07503Y17300D02*
X-06802Y17141D01*
X-06802Y17141D02*
X-06597Y16898D01*
X-06597Y16898D02*
X-06500Y16697D01*
X-07603Y12200D02*
X-07197Y12200D01*
X-07797Y15700D02*
X-08028Y15708D01*
X-07603Y12200D02*
X-07903Y12515D01*
X-07903Y12515D02*
X-07950Y12681D01*
X-07950Y12681D02*
X-07965Y13307D01*
G54D64*
X-04955Y14011D02*
X-04739Y14012D01*
X-04739Y14012D02*
X-04611Y13884D01*
X00212Y11522D02*
X00057Y11695D01*
X-01993Y13412D02*
X-03144Y13400D01*
X-03144Y13400D02*
X-03256Y13403D01*
X-03256Y13403D02*
X-04512Y13622D01*
X-04512Y13622D02*
X-04936Y13735D01*
X-04936Y13735D02*
X-05211Y13755D01*
X02340Y09069D02*
X02312Y09578D01*
X04872Y06731D02*
X04864Y07211D01*
X08200Y09703D02*
X08241Y09433D01*
X02312Y09578D02*
X02312Y10247D01*
X02312Y10247D02*
X02023Y10792D01*
X02023Y10792D02*
X01787Y11207D01*
X03900Y20403D02*
X03897Y20136D01*
X04610Y08702D02*
X04477Y08621D01*
X04477Y08621D02*
X03733Y08633D01*
X02593Y08647D02*
X03733Y08633D01*
X02593Y08647D02*
X02693Y08662D01*
X02593Y08647D02*
X02596Y09069D01*
X02596Y09069D02*
X02606Y09585D01*
X04610Y08702D02*
X04616Y09069D01*
X02606Y09585D02*
X03103Y09724D01*
X03397Y10100D02*
X03103Y09724D01*
X03397Y10100D02*
X04343Y10497D01*
X04752Y10734D02*
X05128Y11387D01*
X05128Y11387D02*
X05812Y11397D01*
X05812Y11397D02*
X06207Y11168D01*
X06207Y11168D02*
X06471Y10673D01*
X06471Y10673D02*
X06714Y09996D01*
X06714Y09996D02*
X07563Y09650D01*
X04343Y10497D02*
X04752Y10734D01*
X02900Y21600D02*
X02349Y22142D01*
X02349Y22142D02*
X01576Y22130D01*
X01397Y21965D02*
X01576Y22130D01*
X01397Y21965D02*
X01383Y20651D01*
X01383Y20651D02*
X00571Y19842D01*
X01316Y09069D02*
X01275Y09737D01*
X01275Y09737D02*
X01091Y10181D01*
X00682Y10978D02*
X00682Y11361D01*
X00682Y11361D02*
X00842Y11522D01*
X01091Y10181D02*
X00682Y10978D01*
X-00100Y21600D02*
X-00100Y20897D01*
X01572Y09069D02*
X01553Y09731D01*
X01553Y09731D02*
X01429Y09938D01*
X00856Y10982D02*
X00842Y11207D01*
X01429Y09938D02*
X01288Y10407D01*
X01288Y10407D02*
X00856Y10982D01*
X00900Y21600D02*
X00900Y20897D01*
X01014Y09782D02*
X01060Y09069D01*
X00522Y10776D02*
X00527Y11207D01*
X01014Y09782D02*
X00724Y10201D01*
X00724Y10201D02*
X00522Y10776D01*
X-00960Y09069D02*
X-00889Y10184D01*
X-00889Y10184D02*
X-00738Y10930D01*
X-00738Y10930D02*
X-00733Y11207D01*
X-00958Y09095D02*
X-00924Y08776D01*
X-00924Y08776D02*
X-00714Y08570D01*
X-00714Y08570D02*
X00561Y08275D01*
X00561Y08275D02*
X01425Y08201D01*
X01425Y08201D02*
X02498Y07950D01*
X02498Y07950D02*
X03182Y07715D01*
X03182Y07715D02*
X03463Y07326D01*
X03463Y07326D02*
X03452Y06578D01*
X03452Y06578D02*
X03150Y06077D01*
X03150Y06077D02*
X02331Y05815D01*
X02331Y05815D02*
X01968Y05581D01*
X01968Y05581D02*
X01859Y05206D01*
X01859Y05206D02*
X01650Y04835D01*
X01650Y04835D02*
X01278Y04677D01*
X01278Y04677D02*
X01190Y04593D01*
X01190Y04593D02*
X01150Y04263D01*
X-01048Y11207D02*
X-01107Y10714D01*
X-01107Y10714D02*
X-01475Y09968D01*
X-01475Y09968D02*
X-01472Y09069D01*
X-01048Y11522D02*
X-01209Y11338D01*
X-01209Y11338D02*
X-01194Y10985D01*
X-01194Y10985D02*
X-01736Y10104D01*
X-01736Y10104D02*
X-01728Y09069D01*
X-01363Y11207D02*
X-01446Y10873D01*
X-01446Y10873D02*
X-01983Y10162D01*
X-01983Y10162D02*
X-01984Y09069D01*
X-01363Y11522D02*
X-01523Y11328D01*
X-01523Y11328D02*
X-01523Y11057D01*
X-01523Y11057D02*
X-02235Y10230D01*
X-02235Y10230D02*
X-02240Y09069D01*
X-04955Y14208D02*
X-04497Y14200D01*
X-04497Y14200D02*
X-04347Y13977D01*
X-04347Y13977D02*
X-04246Y13783D01*
X-00103Y11207D02*
X00063Y11366D01*
X-04955Y14405D02*
X-04716Y14401D01*
X-01678Y16562D02*
X-01517Y16563D01*
X-06316Y11689D02*
X-06316Y12018D01*
X01157Y11522D02*
X01001Y11364D01*
X-06896Y00111D02*
X-06609Y00109D01*
X-01678Y15617D02*
X-01491Y15622D01*
X-06845Y14208D02*
X-07206Y14205D01*
X-07403Y14200D02*
X-07206Y14205D01*
X-01678Y14042D02*
X-01491Y14037D01*
X-06200Y13197D02*
X-06195Y13398D01*
X-06195Y13398D02*
X-06195Y13755D01*
X-01993Y14672D02*
X-02200Y14670D01*
X-06600Y13197D02*
X-06603Y13398D01*
X-06392Y13755D02*
X-06405Y13523D01*
X-06405Y13523D02*
X-06603Y13398D01*
X-01993Y14987D02*
X-02213Y14990D01*
X-06598Y13597D02*
X-06589Y13755D01*
X-06598Y13597D02*
X-07016Y13418D01*
X-07016Y13418D02*
X-07000Y13197D01*
X-07016Y13418D02*
X-06990Y13414D01*
X-01678Y15302D02*
X-01491Y15306D01*
X-06845Y14011D02*
X-07084Y14006D01*
X-07084Y14006D02*
X-07215Y13890D01*
X-07215Y13890D02*
X-07403Y13800D01*
X-01678Y15932D02*
X-01869Y16086D01*
X-01869Y16086D02*
X-02145Y16090D01*
X-05339Y15875D02*
X-05403Y15807D01*
X-05403Y15807D02*
X-05408Y15645D01*
X-05339Y15875D02*
X-04590Y15872D01*
X-03458Y15427D02*
X-02499Y15689D01*
X-04590Y15872D02*
X-03458Y15427D01*
X-02499Y15689D02*
X-02145Y16090D01*
X-05800Y13197D02*
X-05800Y13401D01*
X-05800Y13401D02*
X-05802Y13755D01*
X-01678Y13097D02*
X-01483Y13108D01*
X05970Y14815D02*
X06157Y14820D01*
X03047Y17192D02*
X03202Y17029D01*
X07563Y10150D02*
X07917Y09977D01*
X07917Y09977D02*
X07988Y09843D01*
X07995Y09736D02*
X07961Y09450D01*
X07961Y09450D02*
X07396Y09126D01*
X07396Y09126D02*
X07301Y08966D01*
X07301Y08966D02*
X07303Y08606D01*
X07303Y08606D02*
X07229Y08392D01*
X07229Y08392D02*
X06998Y08140D01*
X06998Y08140D02*
X05227Y08118D01*
X05227Y08118D02*
X04933Y08221D01*
X04933Y08221D02*
X04875Y08381D01*
X04875Y08381D02*
X04872Y09069D01*
X04875Y08381D02*
X04636Y08287D01*
X04636Y08287D02*
X02455Y08301D01*
X02455Y08301D02*
X02138Y08515D01*
X02138Y08515D02*
X02074Y08712D01*
X02074Y08712D02*
X02084Y09069D01*
X02084Y09069D02*
X02106Y09667D01*
X02106Y09667D02*
X02103Y10100D01*
X07988Y09843D02*
X07995Y09736D01*
X07988Y09843D02*
X08089Y09904D01*
X08089Y09904D02*
X08352Y09917D01*
X08352Y09917D02*
X08462Y09981D01*
X08462Y09981D02*
X08516Y10078D01*
X08301Y15393D02*
X08280Y16097D01*
X08280Y16097D02*
X07981Y16487D01*
X07981Y16487D02*
X06921Y17121D01*
X06921Y17121D02*
X04747Y17749D01*
X04747Y17749D02*
X03638Y18778D01*
X03638Y18778D02*
X02581Y19799D01*
X02581Y19799D02*
X01937Y20656D01*
X01937Y20656D02*
X01900Y21600D01*
X08516Y10078D02*
X08549Y10472D01*
X08549Y10472D02*
X08638Y10640D01*
X08638Y10640D02*
X08894Y10825D01*
X08894Y10825D02*
X09331Y10888D01*
X09331Y10888D02*
X09532Y11009D01*
X09532Y11009D02*
X09623Y11156D01*
X09623Y11156D02*
X09655Y11413D01*
X09655Y11413D02*
X09632Y11714D01*
X09632Y11714D02*
X09506Y11838D01*
X09506Y11838D02*
X09046Y11966D01*
X09046Y11966D02*
X08675Y12088D01*
X08675Y12088D02*
X08465Y12447D01*
X08465Y12447D02*
X08301Y15393D01*
X05340Y15130D02*
X05151Y15133D01*
X02571Y16737D02*
X02417Y16877D01*
X02102Y11207D02*
X01933Y11365D01*
X01933Y11365D02*
X01747Y11361D01*
X01632Y11128D02*
X01666Y10284D01*
X01888Y09780D02*
X01666Y10284D01*
X01787Y09570D02*
X01828Y09069D01*
X04366Y10190D02*
X04379Y09960D01*
X04379Y09960D02*
X04360Y09069D01*
X01888Y09780D02*
X01787Y09570D01*
X07103Y08800D02*
X06712Y09303D01*
X04379Y09960D02*
X04365Y09937D01*
X04366Y10190D02*
X04366Y10231D01*
X04366Y10231D02*
X04839Y10641D01*
X04839Y10641D02*
X05110Y11016D01*
X05110Y11016D02*
X05437Y11150D01*
X05437Y11150D02*
X05866Y11129D01*
X05866Y11129D02*
X06207Y10846D01*
X06207Y10846D02*
X06712Y09303D01*
X01632Y11128D02*
X01632Y11278D01*
X01632Y11278D02*
X01665Y11337D01*
X01665Y11337D02*
X01747Y11361D01*
X05655Y14815D02*
X05797Y14675D01*
X02732Y16877D02*
X02885Y16721D01*
X05340Y14815D02*
X05481Y14669D01*
X02732Y17192D02*
X02883Y17042D01*
X03362Y11522D02*
X03361Y11715D01*
X02417Y11207D02*
X02417Y10979D01*
X02561Y11358D02*
X02732Y11207D01*
X03047Y11522D02*
X03047Y11720D01*
X01157Y11207D02*
X01156Y10948D01*
X-06896Y-00389D02*
X-06624Y-00385D01*
X-04955Y14602D02*
X-04646Y14599D01*
X-04646Y14599D02*
X-04071Y14500D01*
X-04071Y14500D02*
X-03911Y14344D01*
X-03911Y14344D02*
X-03893Y13730D01*
X-03893Y13730D02*
X-03788Y13614D01*
X-03788Y13614D02*
X-03248Y13504D01*
X-03248Y13504D02*
X-02551Y13516D01*
X-02551Y13516D02*
X-01993Y13727D01*
X-01678Y13727D02*
X-01854Y13852D01*
X-01854Y13852D02*
X-01976Y13882D01*
X-01976Y13882D02*
X-02220Y13876D01*
X-02220Y13876D02*
X-02650Y13615D01*
X-02650Y13615D02*
X-03324Y13622D01*
X-03324Y13622D02*
X-03742Y13713D01*
X-03742Y13713D02*
X-03794Y13806D01*
X-03794Y13806D02*
X-03800Y14387D01*
X-03800Y14387D02*
X-04027Y14718D01*
X-04027Y14718D02*
X-04515Y14956D01*
X-04515Y14956D02*
X-04955Y14995D01*
X-01678Y14357D02*
X-01823Y14494D01*
X-01823Y14494D02*
X-02055Y14518D01*
X-02055Y14518D02*
X-02341Y14509D01*
X-02341Y14509D02*
X-02665Y14692D01*
X-02665Y14692D02*
X-03170Y14947D01*
X-03170Y14947D02*
X-04291Y15139D01*
X-04291Y15139D02*
X-04955Y15192D01*
X-01678Y14672D02*
X-01875Y14825D01*
X-01875Y14825D02*
X-02254Y14835D01*
X-02254Y14835D02*
X-03236Y15067D01*
X-03236Y15067D02*
X-04477Y15331D01*
X-04477Y15331D02*
X-04814Y15394D01*
X-04814Y15394D02*
X-04955Y15389D01*
X-01678Y14987D02*
X-01857Y15133D01*
X-01857Y15133D02*
X-02101Y15151D01*
X-02101Y15151D02*
X-02361Y15147D01*
X-04140Y15412D02*
X-04675Y15621D01*
X-04675Y15621D02*
X-05211Y15645D01*
X-02361Y15147D02*
X-04140Y15412D01*
X-04955Y14798D02*
X-04619Y14799D01*
X-01678Y13412D02*
X-01848Y13568D01*
X01472Y11522D02*
X01450Y11689D01*
X01450Y11689D02*
X01314Y11839D01*
X01314Y11839D02*
X00840Y11859D01*
X00840Y11859D02*
X-00004Y11851D01*
X-00004Y11851D02*
X-00246Y11674D01*
X-00246Y11674D02*
X-00260Y11486D01*
X-00260Y11486D02*
X-00266Y11065D01*
X-00266Y11065D02*
X00093Y09297D01*
X00083Y08849D02*
X00093Y09297D01*
X-00350Y04263D02*
X-00347Y04752D01*
X01472Y11207D02*
X01319Y11381D01*
X01319Y11381D02*
X01311Y11627D01*
X01311Y11627D02*
X01215Y11728D01*
X01215Y11728D02*
X00472Y11716D01*
X00472Y11716D02*
X00371Y11587D01*
X00371Y11587D02*
X00373Y11090D01*
X00373Y11090D02*
X00428Y10591D01*
X00428Y10591D02*
X00765Y09772D01*
X00765Y09772D02*
X00804Y09069D01*
X00804Y09069D02*
X00806Y08627D01*
X00151Y05130D02*
X00150Y04263D01*
X02732Y11522D02*
X02734Y11707D01*
X08497Y07400D02*
X09200Y07400D01*
X03047Y11207D02*
X03402Y10858D01*
X04204Y10656D02*
X03402Y10858D01*
X04633Y10865D02*
X04204Y10656D01*
X04633Y10865D02*
X05144Y11583D01*
X05144Y11583D02*
X06219Y11764D01*
X06219Y11764D02*
X08001Y11829D01*
X08001Y11829D02*
X08364Y11701D01*
X08364Y11701D02*
X08458Y11594D01*
X08458Y11594D02*
X08497Y11400D01*
X09200Y11400D02*
X08497Y11400D01*
X-01678Y12467D02*
X-01897Y12630D01*
X-01897Y12630D02*
X-02222Y12613D01*
X-02222Y12613D02*
X-03128Y12328D01*
X-03128Y12328D02*
X-03384Y12148D01*
X-03384Y12148D02*
X-03400Y11789D01*
X-01993Y12467D02*
X-03094Y12218D01*
X-03094Y12218D02*
X-03187Y12125D01*
X-03187Y12125D02*
X-03204Y11790D01*
X-01993Y11837D02*
X-03008Y11790D01*
G54D63*
X-32557Y19863D02*
X-32552Y20169D01*
X-32552Y20169D02*
X-32433Y20308D01*
X-32433Y20308D02*
X-32308Y20308D01*
X-32045Y19863D02*
X-32050Y20190D01*
X-32050Y20190D02*
X-32119Y20294D01*
X-32119Y20294D02*
X-32308Y20308D01*
X-32557Y17678D02*
X-32558Y17408D01*
X-32558Y17408D02*
X-32507Y17316D01*
X-32507Y17316D02*
X-32308Y17304D01*
X-32045Y17678D02*
X-32043Y17415D01*
X-32043Y17415D02*
X-32111Y17304D01*
X-32111Y17304D02*
X-32308Y17304D01*
X-32556Y07992D02*
X-32560Y08281D01*
X-32560Y08281D02*
X-32463Y08397D01*
X-32463Y08397D02*
X-32298Y08402D01*
X-32044Y07993D02*
X-32047Y08300D01*
X-32047Y08300D02*
X-32124Y08392D01*
X-32124Y08392D02*
X-32298Y08402D01*
X-31903Y11000D02*
X-31903Y10600D01*
X-31903Y10600D02*
X-31805Y10100D01*
X-31805Y10100D02*
X-31805Y09795D01*
X-31903Y11000D02*
X-31879Y11213D01*
X-31879Y11213D02*
X-31632Y11571D01*
X-31632Y11571D02*
X-31521Y11827D01*
X-31521Y11827D02*
X-31511Y11968D01*
X-31511Y11968D02*
X-31506Y12152D01*
X-32556Y05808D02*
X-32544Y05542D01*
X-32544Y05542D02*
X-32455Y05437D01*
X-32455Y05437D02*
X-32294Y05433D01*
X-32044Y05808D02*
X-32044Y05526D01*
X-32044Y05526D02*
X-32112Y05445D01*
X-32112Y05445D02*
X-32294Y05433D01*
G54D64*
X-25412Y13053D02*
X-25553Y12864D01*
X-30303Y13100D02*
X-30043Y13061D01*
X-29885Y11904D02*
X-30043Y13061D01*
X-29885Y11904D02*
X-29835Y11319D01*
X-29758Y10967D02*
X-29514Y09631D01*
X-29475Y08117D02*
X-29984Y07842D01*
X-29984Y07842D02*
X-30041Y07439D01*
X-29076Y08911D02*
X-29475Y08117D01*
X-29294Y09218D02*
X-29076Y08911D01*
X-29294Y09218D02*
X-29514Y09631D01*
X-29835Y11319D02*
X-29758Y10967D01*
X-26000Y11903D02*
X-26151Y12026D01*
X-31152Y12703D02*
X-30918Y12674D01*
X-30918Y12674D02*
X-30494Y12442D01*
X-30494Y12442D02*
X-30466Y12738D01*
X-30466Y12738D02*
X-30502Y12984D01*
X-30502Y12984D02*
X-30498Y13255D01*
X-30498Y13255D02*
X-30426Y13352D01*
X-30426Y13352D02*
X-30317Y13368D01*
X-30317Y13368D02*
X-30095Y13331D01*
X-30095Y13331D02*
X-29918Y13227D01*
X-29918Y13227D02*
X-29833Y13118D01*
X-29833Y13118D02*
X-29825Y12819D01*
X-29825Y12819D02*
X-29738Y11388D01*
X-29738Y11388D02*
X-29665Y11048D01*
X-29419Y08000D02*
X-28931Y08976D01*
X-29419Y08000D02*
X-29538Y07384D01*
X-29363Y09677D02*
X-29036Y09307D01*
X-29665Y11048D02*
X-29363Y09677D01*
X-29036Y09307D02*
X-28931Y08976D01*
X-29497Y14400D02*
X-29676Y14402D01*
X-21318Y20755D02*
X-21297Y21200D01*
X-29489Y21700D02*
X-29956Y21696D01*
X-29956Y21696D02*
X-30225Y21774D01*
X-30225Y21774D02*
X-30524Y21762D01*
X-30524Y21762D02*
X-30657Y21641D01*
X-30657Y21641D02*
X-30697Y21411D01*
X-30697Y21411D02*
X-30673Y21068D01*
X-30673Y21068D02*
X-30584Y20314D01*
X-30584Y20314D02*
X-30261Y19967D01*
X-30261Y19967D02*
X-29455Y19095D01*
X-29455Y19095D02*
X-28774Y18092D01*
G54D63*
X-35001Y19267D02*
X-34601Y19267D01*
X-34601Y19267D02*
X-33974Y19445D01*
X-33974Y19445D02*
X-33486Y19737D01*
X-33486Y19737D02*
X-33069Y19863D01*
X-33069Y19863D02*
X-33074Y19444D01*
X-33074Y19444D02*
X-32887Y19097D01*
X-32887Y19097D02*
X-32039Y18662D01*
X-32039Y18662D02*
X-31616Y18486D01*
X-31616Y18486D02*
X-31442Y18277D01*
X-31442Y18277D02*
X-31343Y17969D01*
X-31343Y17969D02*
X-31343Y17428D01*
X-31343Y17428D02*
X-31447Y17144D01*
X-31447Y17144D02*
X-31774Y16966D01*
X-31774Y16966D02*
X-32251Y16853D01*
X-32251Y16853D02*
X-32646Y16623D01*
X-32646Y16623D02*
X-32874Y16344D01*
X-32874Y16344D02*
X-33105Y15361D01*
X-33105Y15361D02*
X-33054Y14701D01*
X-33054Y14701D02*
X-32707Y14431D01*
X-32707Y14431D02*
X-32062Y14278D01*
X-32062Y14278D02*
X-31791Y14081D01*
X-31791Y14081D02*
X-31709Y13902D01*
X-31709Y13902D02*
X-31703Y13648D01*
X-35001Y16567D02*
X-34601Y16567D01*
X-34601Y16567D02*
X-34015Y16844D01*
X-34015Y16844D02*
X-33823Y17062D01*
X-33823Y17062D02*
X-33627Y17734D01*
X-33627Y17734D02*
X-33303Y18239D01*
X-33303Y18239D02*
X-32641Y18437D01*
X-32641Y18437D02*
X-31715Y18336D01*
X-31715Y18336D02*
X-31555Y18127D01*
X-31555Y18127D02*
X-31533Y17678D01*
X-31900Y13648D02*
X-31922Y13939D01*
X-31922Y13939D02*
X-32138Y14141D01*
X-32138Y14141D02*
X-32875Y14315D01*
X-32875Y14315D02*
X-33227Y14658D01*
X-33227Y14658D02*
X-33260Y15462D01*
X-33260Y15462D02*
X-32992Y16490D01*
X-32992Y16490D02*
X-32666Y16850D01*
X-32666Y16850D02*
X-32304Y17027D01*
X-32304Y17027D02*
X-31775Y17137D01*
X-31775Y17137D02*
X-31561Y17307D01*
X-31561Y17307D02*
X-31529Y17407D01*
X-31529Y17407D02*
X-31533Y17678D01*
X-35001Y13867D02*
X-34601Y13867D01*
X-34601Y13867D02*
X-34358Y13867D01*
X-34358Y13867D02*
X-34015Y14147D01*
X-34015Y14147D02*
X-33479Y15283D01*
X-33479Y15283D02*
X-33144Y16754D01*
X-33144Y16754D02*
X-33069Y17678D01*
X-32097Y13648D02*
X-32106Y13855D01*
X-32106Y13855D02*
X-32206Y13998D01*
X-32206Y13998D02*
X-32474Y14056D01*
X-32474Y14056D02*
X-33360Y14106D01*
X-33360Y14106D02*
X-34015Y14147D01*
X-35001Y05767D02*
X-34601Y05767D01*
X-34601Y05767D02*
X-34231Y05889D01*
X-34231Y05889D02*
X-33726Y05999D01*
X-33726Y05999D02*
X-33465Y05976D01*
X-33465Y05976D02*
X-33319Y05877D01*
X-33319Y05877D02*
X-33068Y05807D01*
X-31900Y12152D02*
X-31905Y11942D01*
X-31905Y11942D02*
X-32007Y11802D01*
X-32007Y11802D02*
X-32273Y11574D01*
X-32273Y11574D02*
X-32678Y11418D01*
X-32678Y11418D02*
X-32970Y10942D01*
X-32970Y10942D02*
X-32859Y09368D01*
X-32859Y09368D02*
X-32734Y08916D01*
X-32734Y08916D02*
X-32593Y08813D01*
X-32593Y08813D02*
X-31635Y08835D01*
X-31635Y08835D02*
X-31394Y08624D01*
X-31394Y08624D02*
X-31314Y08268D01*
X-31314Y08268D02*
X-31334Y07697D01*
X-31334Y07697D02*
X-31508Y07411D01*
X-31508Y07411D02*
X-32776Y06777D01*
X-32776Y06777D02*
X-32984Y06351D01*
X-32984Y06351D02*
X-33072Y06114D01*
X-33072Y06114D02*
X-33068Y05807D01*
X-35001Y03067D02*
X-34601Y03067D01*
X-34601Y03067D02*
X-34051Y03240D01*
X-34051Y03240D02*
X-33645Y03710D01*
X-33645Y03710D02*
X-32860Y04727D01*
X-32860Y04727D02*
X-32082Y05221D01*
X-32082Y05221D02*
X-31687Y05383D01*
X-31687Y05383D02*
X-31548Y05523D01*
X-31548Y05523D02*
X-31532Y05808D01*
X-31532Y05808D02*
X-31532Y06554D01*
X-31532Y06554D02*
X-31305Y07363D01*
X-31305Y07363D02*
X-31193Y07590D01*
X-31193Y07590D02*
X-31159Y07890D01*
X-31159Y07890D02*
X-31165Y08443D01*
X-31165Y08443D02*
X-31281Y08764D01*
X-31281Y08764D02*
X-31559Y09003D01*
X-31559Y09003D02*
X-31744Y09004D01*
X-31744Y09004D02*
X-32365Y08970D01*
X-32365Y08970D02*
X-32605Y09015D01*
X-32605Y09015D02*
X-32656Y09201D01*
X-32656Y09201D02*
X-32755Y10034D01*
X-32755Y10034D02*
X-32815Y10893D01*
X-32815Y10893D02*
X-32579Y11291D01*
X-32579Y11291D02*
X-32206Y11439D01*
X-32206Y11439D02*
X-31832Y11666D01*
X-31832Y11666D02*
X-31711Y11855D01*
X-31711Y11855D02*
X-31703Y12152D01*
G54D64*
X-37898Y04970D02*
X-38401Y05170D01*
X-41001Y07170D02*
X-40440Y07559D01*
X-40440Y07559D02*
X-39947Y07643D01*
X-39395Y07275D02*
X-39947Y07643D01*
X-39395Y07275D02*
X-38910Y05620D01*
X-38910Y05620D02*
X-38401Y05170D01*
X-37898Y04370D02*
X-38401Y04070D01*
X-40001Y07170D02*
X-39249Y06396D01*
X-39249Y06396D02*
X-38796Y04737D01*
X-38796Y04737D02*
X-38401Y04070D01*
X-37898Y02270D02*
X-38401Y02470D01*
X-41001Y06170D02*
X-40222Y06633D01*
X-40222Y06633D02*
X-39821Y06628D01*
X-39821Y06628D02*
X-39263Y06034D01*
X-38928Y04591D02*
X-39263Y06034D01*
X-38928Y04591D02*
X-38698Y03399D01*
X-38698Y03399D02*
X-38401Y02470D01*
X-37898Y01670D02*
X-38401Y01370D01*
X-40001Y06170D02*
X-39325Y05839D01*
X-39325Y05839D02*
X-39144Y05072D01*
X-38888Y03832D02*
X-39144Y05072D01*
X-38888Y03832D02*
X-38913Y02228D01*
X-38913Y02228D02*
X-38401Y01370D01*
X-37898Y20570D02*
X-38401Y20270D01*
X-40001Y13170D02*
X-39415Y14261D01*
X-38932Y18868D02*
X-38401Y20270D01*
X-39415Y14261D02*
X-38932Y18868D01*
X-37898Y12470D02*
X-38401Y12170D01*
X-40001Y10170D02*
X-39438Y10706D01*
X-39438Y10706D02*
X-39014Y11275D01*
X-39014Y11275D02*
X-38401Y12170D01*
X-37898Y10370D02*
X-38401Y10570D01*
X-41001Y09170D02*
X-40014Y09675D01*
X-40014Y09675D02*
X-39188Y10014D01*
X-39188Y10014D02*
X-38401Y10570D01*
X-24400Y11697D02*
X-24412Y11856D01*
X-28761Y07439D02*
X-28691Y08211D01*
X-28691Y08211D02*
X-28632Y09173D01*
X-28632Y09173D02*
X-28749Y09399D01*
X-28749Y09399D02*
X-29153Y09847D01*
X-29153Y09847D02*
X-29193Y10110D01*
X-29193Y10110D02*
X-29137Y10444D01*
X-29137Y10444D02*
X-28997Y10600D01*
X-28997Y10600D02*
X-29171Y10774D01*
X-29171Y10774D02*
X-29247Y11704D01*
X-29247Y11704D02*
X-29205Y12803D01*
X-26987Y13368D02*
X-26819Y13209D01*
X-25272Y20669D02*
X-25210Y20143D01*
X-25210Y20143D02*
X-24416Y19355D01*
X-24416Y19355D02*
X-23989Y18805D01*
X-23989Y18805D02*
X-23865Y18386D01*
X-23882Y17772D02*
X-23865Y18386D01*
X-24197Y10948D02*
X-24140Y11161D01*
X-24140Y11161D02*
X-24094Y11496D01*
X-24094Y11496D02*
X-24114Y11734D01*
X-24114Y11734D02*
X-24171Y11850D01*
X-24171Y11850D02*
X-24282Y11970D01*
X-24282Y11970D02*
X-24431Y12034D01*
X-24615Y12006D02*
X-24793Y11969D01*
X-24431Y12034D02*
X-24615Y12006D01*
X-24963Y11866D02*
X-25133Y11588D01*
X-25402Y11341D02*
X-26536Y11242D01*
X-26536Y11242D02*
X-27038Y11477D01*
X-27038Y11477D02*
X-27542Y11672D01*
X-27542Y11672D02*
X-27800Y11903D01*
X-25133Y11588D02*
X-25402Y11341D01*
X-26622Y10717D02*
X-26536Y11242D01*
X-26622Y10717D02*
X-26691Y09946D01*
X-24793Y11969D02*
X-24963Y11866D01*
X-28505Y07439D02*
X-28442Y08105D01*
X-25016Y18331D02*
X-25014Y17956D01*
X-26691Y09946D02*
X-26388Y09260D01*
X-26388Y09260D02*
X-25937Y09050D01*
X-28442Y08105D02*
X-27851Y08760D01*
X-27851Y08760D02*
X-27467Y08858D01*
X-27467Y08858D02*
X-26901Y08959D01*
X-26901Y08959D02*
X-26388Y09260D01*
X-27012Y12249D02*
X-26777Y11812D01*
X-26777Y11812D02*
X-26502Y11678D01*
X-26502Y11678D02*
X-25574Y11692D01*
X-25574Y11692D02*
X-25435Y11733D01*
X-24672Y12354D02*
X-24245Y12340D01*
X-24245Y12340D02*
X-24147Y12305D01*
X-24147Y12305D02*
X-23863Y12051D01*
X-23863Y12051D02*
X-23728Y11701D01*
X-23728Y11701D02*
X-23644Y11281D01*
X-23644Y11281D02*
X-23606Y10948D01*
X-25304Y07369D02*
X-25311Y07939D01*
X-23606Y10948D02*
X-23636Y10631D01*
X-25435Y11733D02*
X-25331Y11912D01*
X-25331Y11912D02*
X-25221Y12090D01*
X-25221Y12090D02*
X-25039Y12246D01*
X-25039Y12246D02*
X-24672Y12354D01*
X-27012Y12249D02*
X-27083Y12510D01*
X-27083Y12510D02*
X-27151Y12760D01*
X-27151Y12760D02*
X-27140Y13184D01*
X-27140Y13184D02*
X-27184Y13268D01*
X-27184Y13268D02*
X-27302Y13368D01*
X-23803Y10948D02*
X-23800Y11303D01*
X-27618Y13023D02*
X-27531Y12384D01*
X-27531Y12384D02*
X-27484Y12142D01*
X-27484Y12142D02*
X-27427Y12095D01*
X-27427Y12095D02*
X-27165Y12091D01*
X-27165Y12091D02*
X-27101Y12047D01*
X-27101Y12047D02*
X-26952Y11852D01*
X-26952Y11852D02*
X-26823Y11709D01*
X-26823Y11709D02*
X-26520Y11575D01*
X-26520Y11575D02*
X-25467Y11592D01*
X-25467Y11592D02*
X-25374Y11651D01*
X-25126Y12037D02*
X-24951Y12167D01*
X-24646Y12236D02*
X-24274Y12239D01*
X-23974Y12015D02*
X-23856Y11726D01*
X-23856Y11726D02*
X-23800Y11303D01*
X-24274Y12239D02*
X-23974Y12015D01*
X-25274Y11763D02*
X-25126Y12037D01*
X-25560Y07369D02*
X-25557Y07925D01*
X-23803Y10948D02*
X-23844Y10694D01*
X-25374Y11651D02*
X-25274Y11763D01*
X-24951Y12167D02*
X-24646Y12236D01*
X-25560Y07395D02*
X-25497Y06970D01*
X-25497Y06970D02*
X-25330Y06698D01*
X-25330Y06698D02*
X-24981Y06496D01*
X-24981Y06496D02*
X-24597Y06400D01*
X-28070Y10927D02*
X-28603Y11000D01*
X-28070Y10927D02*
X-27477Y11033D01*
X-27766Y13226D02*
X-27617Y13368D01*
X-25812Y07928D02*
X-25816Y07369D01*
X-24760Y18331D02*
X-24747Y17794D01*
X-28063Y10550D02*
X-28070Y10927D01*
X-27763Y13531D02*
X-27617Y13683D01*
X-26072Y07369D02*
X-26081Y08177D01*
X-24748Y10594D02*
X-24745Y10734D01*
X-27932Y13053D02*
X-28071Y12873D01*
X-26328Y07369D02*
X-26328Y07923D01*
X-28091Y13213D02*
X-27932Y13368D01*
X-26584Y07369D02*
X-26582Y07923D01*
X-27932Y13683D02*
X-28088Y13523D01*
X-26840Y07369D02*
X-26844Y07919D01*
X-27932Y13998D02*
X-28088Y13852D01*
X-27096Y07369D02*
X-27102Y07919D01*
X-28247Y13368D02*
X-28571Y13300D01*
X-28571Y13300D02*
X-28884Y13014D01*
X-28847Y12750D02*
X-28884Y13014D01*
X-30304Y07123D02*
X-30297Y07439D01*
X-30304Y07123D02*
X-30275Y06992D01*
X-27617Y15888D02*
X-27828Y15736D01*
X-27828Y15736D02*
X-28137Y15726D01*
X-28137Y15726D02*
X-28406Y15736D01*
X-28406Y15736D02*
X-28621Y15514D01*
X-28621Y15514D02*
X-28776Y15406D01*
X-28776Y15406D02*
X-29213Y15393D01*
X-29213Y15393D02*
X-29522Y15443D01*
X-29522Y15443D02*
X-29694Y15749D01*
X-29694Y15749D02*
X-29751Y16095D01*
X-29751Y16095D02*
X-29751Y16532D01*
X-29751Y16532D02*
X-29694Y17410D01*
X-29694Y17410D02*
X-29580Y17706D01*
X-29580Y17706D02*
X-29303Y17763D01*
X-29303Y17763D02*
X-28205Y17763D01*
X-28205Y17763D02*
X-27897Y17809D01*
X-27897Y17809D02*
X-27811Y18116D01*
X-30626Y10600D02*
X-30327Y10601D01*
X-30327Y10601D02*
X-30188Y10782D01*
X-30188Y10782D02*
X-30180Y11200D01*
X-30180Y11200D02*
X-30333Y11850D01*
X-30333Y11850D02*
X-30739Y12315D01*
X-30739Y12315D02*
X-30949Y12489D01*
X-30949Y12489D02*
X-31152Y12506D01*
X-26400Y11903D02*
X-26578Y12009D01*
X-26578Y12009D02*
X-26653Y12156D01*
X-26653Y12156D02*
X-26624Y12424D01*
X-26624Y12424D02*
X-26512Y12598D01*
X-26516Y13038D02*
X-26513Y13365D01*
X-26513Y13365D02*
X-26513Y13733D01*
X-26513Y13733D02*
X-26479Y13811D01*
X-26479Y13811D02*
X-26433Y13827D01*
X-26433Y13827D02*
X-26383Y13836D01*
X-26383Y13836D02*
X-26339Y13844D01*
X-26339Y13844D02*
X-25976Y13842D01*
X-25976Y13842D02*
X-25830Y13813D01*
X-25830Y13813D02*
X-25727Y13683D01*
X-29492Y12193D02*
X-29462Y10921D01*
X-29254Y09722D02*
X-28866Y09379D01*
X-29177Y07992D02*
X-29273Y07439D01*
X-29294Y10110D02*
X-29254Y09722D01*
X-29462Y10921D02*
X-29294Y10110D01*
X-28786Y08980D02*
X-29177Y07992D01*
X-28866Y09379D02*
X-28786Y08980D01*
X-26512Y12598D02*
X-26516Y13038D01*
X-31197Y11700D02*
X-31239Y12135D01*
X-31239Y12135D02*
X-31402Y12420D01*
X-31402Y12420D02*
X-31419Y12739D01*
X-31419Y12739D02*
X-31367Y12855D01*
X-31367Y12855D02*
X-31309Y12902D01*
X-31309Y12902D02*
X-31152Y12900D01*
X-31197Y11700D02*
X-31197Y11300D01*
X-30693Y12799D02*
X-31152Y12900D01*
X-25097Y13053D02*
X-25256Y12854D01*
X-31197Y11300D02*
X-31447Y11170D01*
X-31447Y11170D02*
X-31621Y10990D01*
X-31621Y10990D02*
X-31618Y10750D01*
X-31618Y10750D02*
X-31524Y10652D01*
X-31524Y10652D02*
X-31296Y10575D01*
X-31296Y10575D02*
X-31083Y10420D01*
X-31083Y10420D02*
X-30952Y10091D01*
X-30952Y10091D02*
X-30933Y09415D01*
X-30933Y09415D02*
X-30812Y07941D01*
X-30812Y07941D02*
X-30802Y07075D01*
X-30802Y07075D02*
X-30676Y06857D01*
X-30676Y06857D02*
X-30459Y06755D01*
X-30459Y06755D02*
X-30110Y06760D01*
X-30110Y06760D02*
X-29873Y06857D01*
X-29873Y06857D02*
X-29781Y07022D01*
X-29781Y07022D02*
X-29785Y07439D01*
X-24000Y10948D02*
X-23998Y10778D01*
X-23998Y10778D02*
X-24055Y10727D01*
X-24184Y10713D02*
X-24511Y10761D01*
X-24745Y10997D02*
X-24511Y10761D01*
X-24745Y10997D02*
X-24800Y11303D01*
X-24055Y10727D02*
X-24184Y10713D01*
X-24745Y10997D02*
X-24906Y10882D01*
X-25233Y10823D02*
X-25468Y10642D01*
X-25468Y10642D02*
X-25559Y10312D01*
X-24000Y10948D02*
X-23971Y11320D01*
X-23971Y11320D02*
X-24015Y11788D01*
X-24015Y11788D02*
X-24066Y11936D01*
X-24302Y12115D02*
X-24081Y11954D01*
X-24302Y12115D02*
X-24418Y12134D01*
X-24418Y12134D02*
X-24568Y12135D01*
X-24568Y12135D02*
X-24888Y12063D01*
X-24888Y12063D02*
X-25039Y11944D01*
X-25039Y11944D02*
X-25211Y11654D01*
X-25211Y11654D02*
X-25398Y11500D01*
X-25398Y11500D02*
X-25758Y11448D01*
X-25758Y11448D02*
X-26579Y11454D01*
X-26579Y11454D02*
X-26935Y11606D01*
X-26935Y11606D02*
X-27300Y11903D01*
X-29017Y07439D02*
X-28994Y07022D01*
X-28994Y07022D02*
X-28882Y06837D01*
X-28684Y06741D02*
X-28308Y06729D01*
X-28308Y06729D02*
X-28035Y06797D01*
X-27879Y06951D02*
X-27785Y07379D01*
X-27785Y07379D02*
X-27832Y07808D01*
X-27832Y07808D02*
X-27905Y08389D01*
X-24906Y10882D02*
X-25233Y10823D01*
X-25272Y18331D02*
X-25261Y18785D01*
X-25937Y09550D02*
X-25553Y09708D01*
X-25553Y09708D02*
X-25505Y09893D01*
X-25505Y09893D02*
X-25559Y10312D01*
X-25937Y09550D02*
X-25619Y09397D01*
X-25619Y09397D02*
X-25560Y09268D01*
X-25560Y09268D02*
X-25518Y08938D01*
X-25518Y08938D02*
X-25549Y08834D01*
X-25549Y08834D02*
X-25630Y08753D01*
X-25630Y08753D02*
X-26039Y08674D01*
X-26039Y08674D02*
X-27384Y08694D01*
X-27384Y08694D02*
X-27633Y08694D01*
X-27633Y08694D02*
X-27793Y08644D01*
X-27793Y08644D02*
X-27877Y08534D01*
X-27877Y08534D02*
X-27905Y08389D01*
X-28035Y06797D02*
X-27879Y06951D01*
X-28882Y06837D02*
X-28684Y06741D01*
X-24153Y13368D02*
X-23903Y13430D01*
X-23495Y13849D02*
X-22890Y14542D01*
X-22890Y14542D02*
X-22000Y15500D01*
X-23903Y13430D02*
X-23495Y13849D01*
X-24782Y13683D02*
X-24636Y13852D01*
X-24636Y13852D02*
X-24617Y14075D01*
X-24617Y14075D02*
X-24559Y14148D01*
X-24559Y14148D02*
X-24417Y14159D01*
X-24417Y14159D02*
X-24086Y14157D01*
X-24086Y14157D02*
X-23462Y14337D01*
X-23462Y14337D02*
X-22996Y15050D01*
X-22996Y15050D02*
X-22658Y16136D01*
X-22658Y16136D02*
X-22510Y16873D01*
X-22510Y16873D02*
X-22000Y17500D01*
X-23542Y14046D02*
X-22937Y14913D01*
X-22937Y14913D02*
X-22618Y15823D01*
X-22618Y15823D02*
X-22434Y16738D01*
X-22434Y16738D02*
X-22182Y16975D01*
X-22182Y16975D02*
X-21727Y17043D01*
X-21727Y17043D02*
X-21543Y17251D01*
X-21543Y17251D02*
X-21490Y17643D01*
X-21490Y17643D02*
X-21533Y18006D01*
X-21533Y18006D02*
X-22000Y18500D01*
X-24467Y13683D02*
X-24281Y13532D01*
X-24281Y13532D02*
X-24087Y13522D01*
X-24087Y13522D02*
X-23904Y13590D01*
X-23904Y13590D02*
X-23542Y14046D01*
X-29497Y13600D02*
X-29682Y13602D01*
G54D62*
X-23400Y20013D02*
X-23400Y20800D01*
G54D64*
X-29489Y22092D02*
X-30203Y22103D01*
X-30203Y22103D02*
X-30612Y21954D01*
X-30612Y21954D02*
X-30720Y21890D01*
X-30720Y21890D02*
X-30856Y21720D01*
X-30856Y21720D02*
X-30912Y21509D01*
X-30912Y21509D02*
X-30912Y21149D01*
X-30912Y21149D02*
X-30775Y20208D01*
X-30775Y20208D02*
X-29601Y18937D01*
X-29601Y18937D02*
X-29413Y18333D01*
X-24467Y13368D02*
X-24330Y13235D01*
X-24330Y13235D02*
X-24208Y13206D01*
X-24208Y13206D02*
X-23974Y13216D01*
X-23974Y13216D02*
X-23311Y13881D01*
X-23311Y13881D02*
X-22625Y14361D01*
X-22625Y14361D02*
X-22000Y14500D01*
X-25600Y11903D02*
X-25738Y12013D01*
X-30626Y10344D02*
X-30335Y10368D01*
X-29497Y14000D02*
X-29679Y14009D01*
X-29489Y21896D02*
X-29885Y21897D01*
G54D62*
X-21900Y20013D02*
X-21900Y20800D01*
G54D64*
X-29885Y21897D02*
X-30568Y21863D01*
X-30568Y21863D02*
X-30753Y21688D01*
X-30753Y21688D02*
X-30798Y21423D01*
X-30798Y21423D02*
X-30810Y21161D01*
X-30810Y21161D02*
X-30681Y20261D01*
X-30681Y20261D02*
X-29517Y18997D01*
X-29102Y18212D02*
X-29517Y18997D01*
X-24782Y13368D02*
X-24627Y13214D01*
X-24627Y13214D02*
X-24625Y12976D01*
X-24625Y12976D02*
X-24516Y12813D01*
X-24516Y12813D02*
X-24201Y12733D01*
X-24201Y12733D02*
X-23832Y12747D01*
X-23832Y12747D02*
X-23080Y12861D01*
X-23080Y12861D02*
X-22460Y12783D01*
X-22460Y12783D02*
X-22000Y12500D01*
X-22000Y12500D02*
X-22000Y11697D01*
X-24467Y13053D02*
X-24301Y12892D01*
X-24301Y12892D02*
X-24098Y12840D01*
X-24098Y12840D02*
X-23885Y12856D01*
X-23885Y12856D02*
X-23719Y13020D01*
X-22664Y14022D02*
X-21981Y14061D01*
X-21981Y14061D02*
X-21671Y14211D01*
X-21671Y14211D02*
X-21550Y14468D01*
X-21550Y14468D02*
X-21565Y15714D01*
X-21565Y15714D02*
X-22000Y16500D01*
X-23719Y13020D02*
X-23529Y13418D01*
X-23529Y13418D02*
X-23200Y13597D01*
X-23200Y13597D02*
X-23024Y13824D01*
X-23024Y13824D02*
X-22664Y14022D01*
X-37898Y21170D02*
X-38401Y21370D01*
X-41001Y13170D02*
X-39484Y14592D01*
X-39484Y14592D02*
X-38915Y20180D01*
X-38915Y20180D02*
X-38401Y21370D01*
G54D63*
X-35001Y21967D02*
X-34601Y21967D01*
X-31533Y19863D02*
X-31638Y20581D01*
X-31638Y20581D02*
X-32493Y21504D01*
X-32493Y21504D02*
X-33355Y22024D01*
X-33355Y22024D02*
X-33702Y22110D01*
X-33702Y22110D02*
X-34050Y22135D01*
X-34050Y22135D02*
X-34322Y22080D01*
X-34322Y22080D02*
X-34601Y21967D01*
X-31506Y13648D02*
X-31506Y13902D01*
X-31506Y13902D02*
X-31593Y14117D01*
X-31593Y14117D02*
X-31781Y14328D01*
X-31781Y14328D02*
X-32048Y14464D01*
X-32048Y14464D02*
X-32641Y14570D01*
X-32641Y14570D02*
X-32913Y14830D01*
X-32913Y14830D02*
X-32952Y15349D01*
X-32952Y15349D02*
X-32735Y16276D01*
X-32735Y16276D02*
X-32545Y16508D01*
X-32545Y16508D02*
X-32117Y16729D01*
X-32117Y16729D02*
X-31672Y16835D01*
X-31672Y16835D02*
X-31349Y16999D01*
X-31349Y16999D02*
X-31203Y17312D01*
X-31203Y17312D02*
X-31165Y17705D01*
X-31165Y17705D02*
X-31238Y18441D01*
X-31238Y18441D02*
X-31535Y19264D01*
X-31535Y19264D02*
X-31533Y19863D01*
G54D64*
X-37898Y18470D02*
X-38401Y18670D01*
X-41001Y12170D02*
X-40279Y12642D01*
X-40279Y12642D02*
X-39747Y12753D01*
X-39747Y12753D02*
X-39438Y13157D01*
X-39438Y13157D02*
X-39043Y16567D01*
X-39043Y16567D02*
X-38810Y18077D01*
X-38810Y18077D02*
X-38401Y18670D01*
X-37898Y17870D02*
X-38401Y17570D01*
X-39386Y12698D02*
X-40001Y12170D01*
X-39386Y12698D02*
X-38996Y16097D01*
X-38996Y16097D02*
X-38824Y16878D01*
X-38824Y16878D02*
X-38401Y17570D01*
X-37898Y15770D02*
X-38401Y15970D01*
X-41001Y11170D02*
X-40249Y11598D01*
X-40249Y11598D02*
X-39606Y11775D01*
X-39606Y11775D02*
X-39366Y12080D01*
X-39366Y12080D02*
X-39024Y14690D01*
X-39024Y14690D02*
X-38401Y15970D01*
X-37898Y15170D02*
X-38401Y14870D01*
X-40001Y11170D02*
X-39316Y11618D01*
X-39316Y11618D02*
X-39037Y13802D01*
X-39037Y13802D02*
X-38401Y14870D01*
G54D63*
X-35251Y21254D02*
X-35315Y21544D01*
X-35315Y21544D02*
X-35404Y21870D01*
X-35315Y18844D02*
X-35404Y19170D01*
X-35251Y18554D02*
X-35315Y18844D01*
X-35343Y16145D02*
X-35404Y16470D01*
X-35343Y16145D02*
X-35251Y15854D01*
X-35315Y13444D02*
X-35404Y13770D01*
X-35251Y13154D02*
X-35315Y13444D01*
X-35315Y10744D02*
X-35404Y11070D01*
X-35251Y10454D02*
X-35315Y10744D01*
X-35315Y08044D02*
X-35404Y08370D01*
X-35251Y07754D02*
X-35315Y08044D01*
X-35315Y05344D02*
X-35404Y05670D01*
X-35251Y05054D02*
X-35315Y05344D01*
X-35315Y02644D02*
X-35404Y02970D01*
X-35251Y02354D02*
X-35315Y02644D01*
X-30772Y15578D02*
X-31000Y15597D01*
X-32300Y05808D02*
X-32302Y06111D01*
X-30772Y15578D02*
X-30500Y15597D01*
X-32301Y19863D02*
X-32294Y19549D01*
G54D64*
X-37898Y13070D02*
X-38401Y13270D01*
X-41001Y10170D02*
X-40209Y10614D01*
X-40209Y10614D02*
X-39432Y10886D01*
X-39432Y10886D02*
X-39060Y11385D01*
X-39060Y11385D02*
X-38979Y12106D01*
X-38979Y12106D02*
X-38834Y12602D01*
X-38834Y12602D02*
X-38401Y13270D01*
X-37898Y09770D02*
X-38401Y09470D01*
X-40001Y09170D02*
X-38401Y09470D01*
G54D63*
X-35001Y11167D02*
X-34601Y11167D01*
X-33068Y07992D02*
X-33317Y10774D01*
X-33317Y10774D02*
X-33387Y11213D01*
X-33387Y11213D02*
X-33784Y11387D01*
X-33784Y11387D02*
X-34200Y11353D01*
X-34200Y11353D02*
X-34601Y11167D01*
X-33387Y11213D02*
X-32645Y12110D01*
X-32645Y12110D02*
X-32294Y12152D01*
G54D64*
X-37898Y07670D02*
X-38401Y07870D01*
X-41001Y08170D02*
X-40248Y08605D01*
X-40248Y08605D02*
X-39428Y08613D01*
X-39428Y08613D02*
X-38401Y07870D01*
X-37898Y07070D02*
X-38401Y06770D01*
X-40001Y08170D02*
X-38401Y06770D01*
G54D63*
X-35001Y08467D02*
X-34601Y08467D01*
X-34601Y08467D02*
X-33947Y08636D01*
X-33947Y08636D02*
X-33505Y08555D01*
X-33505Y08555D02*
X-33470Y08217D01*
X-33470Y08217D02*
X-33435Y07664D01*
X-33435Y07664D02*
X-33261Y07469D01*
X-33261Y07469D02*
X-32773Y07434D01*
X-32773Y07434D02*
X-32259Y07417D01*
X-32259Y07417D02*
X-31652Y07579D01*
X-31652Y07579D02*
X-31542Y07701D01*
X-31542Y07701D02*
X-31532Y07993D01*
X-32097Y12152D02*
X-32101Y11943D01*
X-32101Y11943D02*
X-32331Y11739D01*
X-32728Y11615D02*
X-33126Y11016D01*
X-33126Y11016D02*
X-33070Y10061D01*
X-33070Y10061D02*
X-32972Y08924D01*
X-32972Y08924D02*
X-32673Y08658D01*
X-32673Y08658D02*
X-31692Y08681D01*
X-31692Y08681D02*
X-31522Y08499D01*
X-31522Y08499D02*
X-31532Y07993D01*
X-32331Y11739D02*
X-32728Y11615D01*
X-37030Y20290D02*
X-37101Y20067D01*
X-36951Y20486D02*
X-36579Y20491D01*
X-36579Y20491D02*
X-36478Y20619D01*
X-36478Y20619D02*
X-36492Y21130D01*
X-36492Y21130D02*
X-36609Y21224D01*
X-36609Y21224D02*
X-36951Y21254D01*
X-37030Y20290D02*
X-36951Y20486D01*
X-37030Y17590D02*
X-36951Y17786D01*
X-36609Y18524D02*
X-36951Y18554D01*
X-36492Y18430D02*
X-36609Y18524D01*
X-36478Y17919D02*
X-36492Y18430D01*
X-36579Y17791D02*
X-36478Y17919D01*
X-36951Y17786D02*
X-36579Y17791D01*
X-37101Y17367D02*
X-37030Y17590D01*
X-37030Y14890D02*
X-36951Y15086D01*
X-36609Y15824D02*
X-36951Y15854D01*
X-36492Y15730D02*
X-36609Y15824D01*
X-36478Y15219D02*
X-36492Y15730D01*
X-36579Y15091D02*
X-36478Y15219D01*
X-36951Y15086D02*
X-36579Y15091D01*
X-37101Y14667D02*
X-37030Y14890D01*
X-37030Y12190D02*
X-36951Y12386D01*
X-36609Y13124D02*
X-36951Y13154D01*
X-36492Y13030D02*
X-36609Y13124D01*
X-36478Y12519D02*
X-36492Y13030D01*
X-36579Y12391D02*
X-36478Y12519D01*
X-36951Y12386D02*
X-36579Y12391D01*
X-37101Y11967D02*
X-37030Y12190D01*
X-37030Y09490D02*
X-36951Y09686D01*
X-36609Y10424D02*
X-36951Y10454D01*
X-36492Y10330D02*
X-36609Y10424D01*
X-36478Y09819D02*
X-36492Y10330D01*
X-36579Y09691D02*
X-36478Y09819D01*
X-36951Y09686D02*
X-36579Y09691D01*
X-37101Y09267D02*
X-37030Y09490D01*
X-37030Y06790D02*
X-36951Y06986D01*
X-36609Y07724D02*
X-36951Y07754D01*
X-36492Y07630D02*
X-36609Y07724D01*
X-36478Y07119D02*
X-36492Y07630D01*
X-36579Y06991D02*
X-36478Y07119D01*
X-36951Y06986D02*
X-36579Y06991D01*
X-37101Y06567D02*
X-37030Y06790D01*
X-37030Y04090D02*
X-36951Y04286D01*
X-36609Y05024D02*
X-36951Y05054D01*
X-36492Y04930D02*
X-36609Y05024D01*
X-36478Y04419D02*
X-36492Y04930D01*
X-36579Y04291D02*
X-36478Y04419D01*
X-36951Y04286D02*
X-36579Y04291D01*
X-37101Y03867D02*
X-37030Y04090D01*
X-37030Y01390D02*
X-36951Y01586D01*
X-36609Y02324D02*
X-36951Y02354D01*
X-36492Y02230D02*
X-36609Y02324D01*
X-36478Y01719D02*
X-36492Y02230D01*
X-36579Y01591D02*
X-36478Y01719D01*
X-36951Y01586D02*
X-36579Y01591D01*
X-37101Y01167D02*
X-37030Y01390D01*
X-30100Y19097D02*
X-30403Y19097D01*
X-32300Y07993D02*
X-32302Y07686D01*
X-32301Y17678D02*
X-32306Y18001D01*
X-30403Y19097D02*
X-30700Y19097D01*
G54D64*
X22534Y13028D02*
X22393Y13183D01*
X25250Y12003D02*
X25023Y12174D01*
X25023Y12174D02*
X25031Y12566D01*
X25031Y12566D02*
X24916Y12754D01*
X24916Y12754D02*
X24936Y13877D01*
X24936Y13877D02*
X24931Y14394D01*
X24931Y14394D02*
X24824Y14585D01*
X21763Y12868D02*
X21920Y13066D01*
X21920Y13330D02*
X21920Y13066D01*
X21920Y13330D02*
X21928Y13265D01*
X14131Y13328D02*
X14558Y13336D01*
X16469Y13584D02*
X16883Y13577D01*
X21606Y13031D02*
X21448Y12868D01*
X16769Y15404D02*
X17180Y15398D01*
X17180Y15398D02*
X17325Y15324D01*
X16769Y15404D02*
X16469Y15404D01*
X20969Y12704D02*
X21133Y12553D01*
X20969Y12704D02*
X20729Y12713D01*
X20729Y12713D02*
X20663Y12763D01*
X20663Y12763D02*
X20661Y12873D01*
X20661Y12873D02*
X20661Y12959D01*
X20661Y12959D02*
X20585Y13021D01*
X20585Y13021D02*
X20428Y13032D01*
X20428Y13032D02*
X20341Y13111D01*
X20341Y13111D02*
X20147Y13687D01*
X20147Y13687D02*
X18291Y14951D01*
X18291Y14951D02*
X17515Y15453D01*
X17515Y15453D02*
X17232Y15635D01*
X17232Y15635D02*
X16769Y15660D01*
X16769Y15660D02*
X16469Y15660D01*
X21287Y12720D02*
X21133Y12868D01*
X25532Y11966D02*
X25703Y11900D01*
X16469Y13840D02*
X16893Y13843D01*
X21287Y12720D02*
X21290Y12406D01*
X21290Y12406D02*
X21163Y12204D01*
X21163Y12204D02*
X20583Y12152D01*
X20583Y12152D02*
X20401Y12147D01*
X19996Y12264D02*
X20401Y12147D01*
X21133Y13183D02*
X20965Y13327D01*
X20965Y13327D02*
X20809Y13343D01*
X20809Y13343D02*
X20434Y13340D01*
X20434Y13340D02*
X20353Y13392D01*
X20353Y13392D02*
X20228Y13760D01*
X20228Y13760D02*
X18431Y14978D01*
X18431Y14978D02*
X17254Y15907D01*
X17254Y15907D02*
X16769Y15916D01*
X16769Y15916D02*
X16469Y15916D01*
X27348Y14998D02*
X28182Y14720D01*
X20503Y12868D02*
X20314Y12869D01*
X20314Y12869D02*
X20070Y13599D01*
X18279Y14816D02*
X20070Y13599D01*
X18279Y14816D02*
X16655Y14815D01*
X16655Y14815D02*
X16122Y14876D01*
X16122Y14876D02*
X15981Y15030D01*
X15981Y15030D02*
X15928Y15578D01*
X15928Y15578D02*
X15989Y16054D01*
X15989Y16054D02*
X16102Y16171D01*
X16102Y16171D02*
X16469Y16172D01*
X21133Y15388D02*
X20985Y15237D01*
X25788Y15574D02*
X26156Y15399D01*
X26156Y15399D02*
X26403Y15195D01*
X26437Y14842D02*
X26228Y14428D01*
X26228Y14428D02*
X26232Y13902D01*
X26232Y13902D02*
X26245Y13914D01*
X26403Y15195D02*
X26437Y14842D01*
X26228Y14428D02*
X25671Y14468D01*
X25671Y14468D02*
X25458Y14289D01*
X25458Y14289D02*
X25296Y14176D01*
X25296Y14176D02*
X25086Y14092D01*
X25086Y14092D02*
X25044Y13885D01*
X25044Y13885D02*
X25044Y12857D01*
X25044Y12857D02*
X25268Y12650D01*
X25268Y12650D02*
X25514Y12602D01*
X25514Y12602D02*
X25756Y12594D01*
X25756Y12594D02*
X25901Y12431D01*
X25901Y12431D02*
X25895Y11762D01*
X25895Y11762D02*
X25822Y11700D01*
X25822Y11700D02*
X23514Y11694D01*
X23514Y11694D02*
X23153Y11715D01*
X23153Y11715D02*
X22997Y11900D01*
X26747Y12350D02*
X26482Y12615D01*
X26482Y12615D02*
X26449Y12723D01*
X26449Y12723D02*
X26476Y12911D01*
X26651Y13010D02*
X26476Y12911D01*
X16469Y13328D02*
X16868Y13328D01*
X24597Y12868D02*
X24431Y12715D01*
X23968Y13183D02*
X23809Y13042D01*
X23809Y13042D02*
X23661Y13023D01*
X23661Y13023D02*
X23563Y13026D01*
X23178Y12577D02*
X23180Y12472D01*
X23151Y12399D02*
X23180Y12472D01*
X22921Y12396D02*
X23151Y12399D01*
X22921Y12396D02*
X22798Y12253D01*
X22798Y12253D02*
X22802Y11774D01*
X22802Y11774D02*
X22680Y11592D01*
X22680Y11592D02*
X21308Y11609D01*
X21308Y11609D02*
X20696Y11615D01*
X23178Y12577D02*
X23182Y12930D01*
X23182Y12930D02*
X23225Y13005D01*
X23225Y13005D02*
X23349Y13028D01*
X23349Y13028D02*
X23563Y13026D01*
X16662Y11588D02*
X20696Y11615D01*
X15500Y05600D02*
X15993Y06116D01*
X15993Y06116D02*
X16021Y10912D01*
X16021Y10912D02*
X16662Y11588D01*
X24283Y13183D02*
X24118Y13034D01*
X24283Y12868D02*
X24112Y12718D01*
X23968Y12868D02*
X23806Y12715D01*
X23806Y12715D02*
X23610Y12709D01*
X23610Y12709D02*
X23512Y12676D01*
X23512Y12676D02*
X23491Y12592D01*
X23491Y12592D02*
X23498Y12473D01*
X23498Y12473D02*
X23456Y12394D01*
X23456Y12394D02*
X23218Y12237D01*
X23043Y12241D02*
X23218Y12237D01*
X15497Y11400D02*
X15500Y10600D01*
X24283Y12553D02*
X24112Y12382D01*
X13200Y06097D02*
X14906Y06101D01*
X14906Y06101D02*
X15500Y06600D01*
X22078Y13183D02*
X22241Y13027D01*
X25250Y14803D02*
X25269Y14426D01*
X25234Y14339D02*
X25269Y14426D01*
X30650Y16675D02*
X30947Y16676D01*
X30650Y14425D02*
X30947Y14425D01*
X30650Y14175D02*
X30947Y14179D01*
X30650Y13925D02*
X30947Y13925D01*
X30650Y13675D02*
X30947Y13679D01*
X30650Y13425D02*
X30947Y13425D01*
X30650Y13175D02*
X30947Y13170D01*
X30650Y12925D02*
X30947Y12916D01*
X30150Y12925D02*
X29945Y12940D01*
X29945Y12940D02*
X29691Y13240D01*
X29691Y13240D02*
X29420Y13390D01*
X29420Y13390D02*
X29133Y13456D01*
X29133Y13456D02*
X28997Y13554D01*
X28997Y13554D02*
X28992Y13748D01*
X30150Y13175D02*
X29869Y13211D01*
X29869Y13211D02*
X29618Y13449D01*
X29618Y13449D02*
X29300Y13521D01*
X29300Y13521D02*
X29219Y13582D01*
X29219Y13582D02*
X29189Y13748D01*
X30150Y13425D02*
X29893Y13441D01*
X29893Y13441D02*
X29618Y13691D01*
X29618Y13691D02*
X29386Y13748D01*
X30650Y16425D02*
X30947Y16430D01*
X30150Y13675D02*
X29937Y13723D01*
X29937Y13723D02*
X29877Y13820D01*
X29877Y13820D02*
X29784Y13957D01*
X29784Y13957D02*
X29652Y14014D01*
X30150Y13925D02*
X29953Y13993D01*
X29953Y13993D02*
X29881Y14110D01*
X29881Y14110D02*
X29808Y14187D01*
X29808Y14187D02*
X29652Y14211D01*
X30150Y14175D02*
X29925Y14264D01*
X29925Y14264D02*
X29869Y14369D01*
X29869Y14369D02*
X29788Y14413D01*
X29788Y14413D02*
X29652Y14408D01*
X29652Y14605D02*
X29834Y14578D01*
X29834Y14578D02*
X29905Y14518D01*
X29905Y14518D02*
X29993Y14447D01*
X29993Y14447D02*
X30150Y14425D01*
X30150Y14675D02*
X29895Y14747D01*
X29895Y14747D02*
X29808Y14777D01*
X29808Y14777D02*
X29652Y14802D01*
X30150Y14925D02*
X29878Y14962D01*
X29878Y14962D02*
X29653Y15001D01*
X30150Y15175D02*
X29652Y15195D01*
X30150Y15425D02*
X29652Y15392D01*
X30150Y15675D02*
X29918Y15654D01*
X29918Y15654D02*
X29810Y15594D01*
X29810Y15594D02*
X29652Y15589D01*
X30150Y15925D02*
X29895Y15900D01*
X29895Y15900D02*
X29821Y15809D01*
X29821Y15809D02*
X29652Y15786D01*
X30650Y16175D02*
X30947Y16184D01*
X30150Y16175D02*
X29386Y16052D01*
X30150Y16425D02*
X29376Y16349D01*
X29376Y16349D02*
X29223Y16257D01*
X29223Y16257D02*
X29189Y16052D01*
X30150Y16675D02*
X29328Y16440D01*
X29328Y16440D02*
X29017Y16285D01*
X29017Y16285D02*
X28992Y16052D01*
X30650Y15925D02*
X30947Y15930D01*
X30650Y15675D02*
X30947Y15672D01*
X30650Y15425D02*
X30947Y15425D01*
X30650Y15175D02*
X30947Y15175D01*
X30650Y14925D02*
X30947Y14941D01*
X30650Y14675D02*
X30947Y14687D01*
G54D63*
X26503Y13900D02*
X26503Y14350D01*
X26503Y14350D02*
X26621Y14595D01*
X26621Y14595D02*
X26812Y14826D01*
X26591Y13687D02*
X26503Y13900D01*
X29378Y12494D02*
X29174Y12556D01*
X29378Y12494D02*
X29550Y12447D01*
X29174Y12556D02*
X29128Y12326D01*
X26591Y13687D02*
X26651Y13580D01*
X26752Y14630D02*
X26812Y14826D01*
X26674Y12744D02*
X27100Y12803D01*
X27100Y12803D02*
X27535Y12972D01*
X27535Y12972D02*
X27603Y13300D01*
X27603Y13300D02*
X27614Y13748D01*
X27614Y13748D02*
X27620Y14110D01*
X27620Y14110D02*
X27543Y14194D01*
X27543Y14194D02*
X27348Y14211D01*
X27620Y14110D02*
X27814Y14110D01*
X28272Y14091D02*
X27814Y14110D01*
X28272Y14091D02*
X28598Y14407D01*
X28598Y14407D02*
X28557Y15261D01*
X28557Y15261D02*
X28219Y15491D01*
X28219Y15491D02*
X28403Y15748D01*
X28403Y15748D02*
X28402Y16052D01*
X28402Y16052D02*
X28407Y16248D01*
X28407Y16248D02*
X28500Y16503D01*
G54D64*
X25609Y14634D02*
X25788Y14826D01*
X21691Y12352D02*
X21803Y11900D01*
X27348Y15195D02*
X27593Y15207D01*
X27593Y15207D02*
X27693Y15148D01*
X28358Y14637D02*
X28177Y14510D01*
X28358Y14637D02*
X28338Y14832D01*
X20818Y13498D02*
X20973Y13645D01*
X27693Y15148D02*
X28093Y14952D01*
X28093Y14952D02*
X28338Y14832D01*
X-00418Y11207D02*
X-00667Y10237D01*
X-00667Y10237D02*
X-00704Y09069D01*
X-00704Y09069D02*
X-00662Y08768D01*
X-00662Y08768D02*
X-00537Y08647D01*
X-00537Y08647D02*
X00552Y08381D01*
X00552Y08381D02*
X01407Y08308D01*
X01407Y08308D02*
X02525Y08050D01*
X02525Y08050D02*
X03227Y07828D01*
X03227Y07828D02*
X03568Y07393D01*
X03568Y07393D02*
X03561Y06582D01*
X03561Y06582D02*
X03287Y05876D01*
X03287Y05876D02*
X02940Y05456D01*
X02940Y05456D02*
X02936Y05089D01*
X02936Y05089D02*
X03255Y04826D01*
X03255Y04826D02*
X03776Y04826D01*
X03776Y04826D02*
X04122Y04636D01*
X04122Y04636D02*
X04150Y04263D01*
X-01678Y11207D02*
X-01678Y11087D01*
X-01678Y11087D02*
X-02491Y10273D01*
X-02491Y10273D02*
X-02496Y10269D01*
X-02496Y10269D02*
X-02496Y09069D01*
X-02496Y09069D02*
X-02446Y08758D01*
X-02446Y08758D02*
X-02325Y08669D01*
X-02325Y08669D02*
X-00705Y08360D01*
X-00705Y08360D02*
X00709Y08034D01*
X00709Y08034D02*
X01510Y07974D01*
X01510Y07974D02*
X02479Y07743D01*
X02996Y07415D02*
X02479Y07743D01*
X04650Y04263D02*
X04650Y04720D01*
X26163Y26668D02*
X25850Y26675D01*
X25850Y24425D02*
X26168Y24430D01*
X25850Y24175D02*
X26168Y24172D01*
X25850Y23925D02*
X26168Y23926D01*
X25850Y23675D02*
X26165Y23679D01*
X25850Y23425D02*
X26168Y23430D01*
X25850Y23175D02*
X26165Y23180D01*
X26168Y22934D02*
X25850Y22925D01*
X24192Y23648D02*
X24229Y23459D01*
X24229Y23459D02*
X24471Y23354D01*
X24471Y23354D02*
X25044Y23046D01*
X25044Y23046D02*
X25350Y22925D01*
X25350Y23175D02*
X24543Y23434D01*
X24543Y23434D02*
X24414Y23488D01*
X24414Y23488D02*
X24389Y23648D01*
X24586Y23648D02*
X24879Y23607D01*
X24879Y23607D02*
X25350Y23425D01*
X25850Y26425D02*
X26163Y26413D01*
X24852Y23914D02*
X25054Y23853D01*
X25054Y23853D02*
X25135Y23755D01*
X25135Y23755D02*
X25350Y23675D01*
X24852Y24111D02*
X25091Y24054D01*
X25091Y24054D02*
X25350Y23925D01*
X24852Y24308D02*
X25350Y24175D01*
X24852Y24505D02*
X25350Y24425D01*
X25323Y24702D02*
X25350Y24675D01*
X24852Y24702D02*
X25323Y24702D01*
X24852Y24898D02*
X25350Y24925D01*
X24852Y25095D02*
X25350Y25175D01*
X24852Y25292D02*
X25098Y25318D01*
X25098Y25318D02*
X25350Y25425D01*
X24852Y25489D02*
X25084Y25540D01*
X25084Y25540D02*
X25350Y25675D01*
X24852Y25686D02*
X25047Y25745D01*
X25135Y25840D02*
X25350Y25925D01*
X25047Y25745D02*
X25135Y25840D01*
X25850Y26175D02*
X26156Y26172D01*
X25350Y26175D02*
X24852Y26011D01*
X24852Y26011D02*
X24586Y25952D01*
X24389Y25952D02*
X24424Y26111D01*
X24424Y26111D02*
X24537Y26171D01*
X24537Y26171D02*
X25068Y26347D01*
X25068Y26347D02*
X25350Y26425D01*
X25350Y26675D02*
X25074Y26593D01*
X25074Y26593D02*
X24967Y26447D01*
X24441Y26241D02*
X24220Y26138D01*
X24220Y26138D02*
X24192Y25952D01*
X24967Y26447D02*
X24441Y26241D01*
X25850Y25925D02*
X26165Y25931D01*
X25850Y25675D02*
X26165Y25679D01*
X25850Y25425D02*
X26165Y25419D01*
X25850Y25175D02*
X26165Y25178D01*
X25850Y24925D02*
X26165Y24929D01*
X25850Y24675D02*
X26165Y24682D01*
X-00733Y11522D02*
X-00896Y11333D01*
X-00896Y11333D02*
X-00886Y10906D01*
X-00886Y10906D02*
X-01219Y10042D01*
X-01219Y10042D02*
X-01216Y09069D01*
X-01216Y09069D02*
X-01152Y08705D01*
X-01152Y08705D02*
X-00750Y08474D01*
X-00750Y08474D02*
X00605Y08161D01*
X00605Y08161D02*
X01461Y08089D01*
X01461Y08089D02*
X02471Y07853D01*
X02471Y07853D02*
X03121Y07626D01*
X03121Y07626D02*
X03361Y07280D01*
X03361Y07280D02*
X03346Y06599D01*
X03346Y06599D02*
X03072Y06159D01*
X03072Y06159D02*
X01810Y05821D01*
X01810Y05821D02*
X01164Y05722D01*
X01164Y05722D02*
X00852Y05491D01*
X00852Y05491D02*
X00680Y05038D01*
X00680Y05038D02*
X00653Y04685D01*
X00653Y04685D02*
X00650Y04263D01*
G54D63*
X23995Y23648D02*
X24013Y23430D01*
X24013Y23430D02*
X24937Y22942D01*
X24937Y22942D02*
X25077Y22696D01*
X25077Y22696D02*
X25350Y22675D01*
X25350Y22675D02*
X25850Y22675D01*
X25850Y22675D02*
X26088Y22686D01*
X26088Y22686D02*
X26248Y22750D01*
X25350Y26925D02*
X25850Y26925D01*
X25850Y26925D02*
X26171Y26936D01*
X26171Y26936D02*
X26301Y26825D01*
X26301Y26825D02*
X26345Y26714D01*
X26345Y26714D02*
X26352Y22875D01*
X26248Y22750D02*
X26355Y22873D01*
X25350Y26925D02*
X24955Y26914D01*
X24955Y26914D02*
X24834Y26531D01*
X24432Y26381D02*
X24103Y26239D01*
X23996Y26116D02*
X23995Y25952D01*
X23996Y23590D02*
X23995Y25952D01*
X24103Y26239D02*
X23996Y26116D01*
X24834Y26531D02*
X24432Y26381D01*
G54D64*
X22600Y26797D02*
X23000Y26797D01*
X22957Y26797D02*
X23400Y26797D01*
X23353Y26797D02*
X23800Y26797D01*
X23995Y23648D02*
X23798Y23648D01*
X23798Y23648D02*
X23602Y23648D01*
X23602Y23648D02*
X23405Y23648D01*
X23405Y23648D02*
X23208Y23648D01*
X23208Y23648D02*
X23011Y23648D01*
X22822Y24300D02*
X22548Y24308D01*
X22862Y25299D02*
X22548Y25292D01*
X21600Y27097D02*
X21397Y27097D01*
X21600Y27097D02*
X21820Y27140D01*
X21397Y27097D02*
X21200Y27097D01*
X21820Y27140D02*
X22100Y27195D01*
G54D63*
X24600Y22697D02*
X25077Y22696D01*
X24600Y22697D02*
X24174Y22756D01*
X23000Y22303D02*
X22752Y22203D01*
X24288Y26544D02*
X24043Y26756D01*
X24043Y26756D02*
X23800Y26797D01*
X24288Y26544D02*
X24432Y26381D01*
X22100Y27195D02*
X22399Y27257D01*
X22600Y26797D02*
X22399Y27257D01*
G54D64*
X21504Y26089D02*
X21502Y25628D01*
X21308Y26089D02*
X21504Y26089D01*
G54D63*
X22403Y23200D02*
X22374Y23522D01*
X21200Y22303D02*
X20970Y22315D01*
X21200Y22303D02*
X21600Y22303D01*
X21600Y22303D02*
X22043Y22216D01*
X22043Y22216D02*
X22752Y22203D01*
G54D64*
X23798Y25952D02*
X23995Y25952D01*
X23485Y25638D02*
X23406Y25780D01*
X23406Y25780D02*
X23405Y25952D01*
X23485Y25638D02*
X23709Y25643D01*
X23709Y25643D02*
X23793Y25713D01*
X23793Y25713D02*
X23798Y25952D01*
G54D63*
X21405Y23400D02*
X21506Y23755D01*
X21506Y23755D02*
X21703Y24000D01*
G54D64*
X01650Y02137D02*
X01680Y01698D01*
X01680Y01698D02*
X01703Y01400D01*
X05150Y02137D02*
X05650Y02137D01*
X05614Y02137D02*
X06150Y02137D01*
X06110Y02137D02*
X06650Y02137D01*
G54D62*
X07500Y01395D02*
X08400Y01700D01*
X06126Y00844D02*
X05876Y00860D01*
X05600Y00903D02*
X05876Y00860D01*
X06126Y00844D02*
X06303Y00400D01*
X01680Y01698D02*
X01650Y02137D01*
X-01350Y02137D02*
X-01119Y02137D01*
X-00850Y02137D02*
X-01119Y02137D01*
X03597Y01400D02*
X03652Y01688D01*
X03650Y02137D02*
X03652Y01688D01*
X06650Y02137D02*
X06917Y02148D01*
G54D64*
X21896Y26090D02*
X21873Y26379D01*
X21873Y26379D02*
X21781Y26488D01*
X21781Y26488D02*
X21600Y26703D01*
X21200Y26703D02*
X21394Y26703D01*
X21394Y26703D02*
X21600Y26703D01*
X23649Y26232D02*
X23602Y25952D01*
X23649Y26232D02*
X23800Y26403D01*
X22814Y23648D02*
X22820Y24028D01*
X22820Y24028D02*
X22748Y24100D01*
X22748Y24100D02*
X22548Y24111D01*
X22797Y23200D02*
X22814Y23648D01*
G54D63*
X23252Y22574D02*
X23426Y22756D01*
X23000Y22697D02*
X23252Y22574D01*
X23000Y22697D02*
X22789Y22565D01*
G54D64*
X21896Y24711D02*
X22092Y24711D01*
X22088Y24349D02*
X22092Y24711D01*
X22097Y24000D02*
X22088Y24349D01*
X02150Y02137D02*
X02120Y01693D01*
X02120Y01693D02*
X02097Y01400D01*
G54D62*
X06874Y00844D02*
X06795Y00645D01*
X06795Y00645D02*
X06697Y00400D01*
X03150Y02137D02*
X03178Y01711D01*
X03203Y01400D02*
X03178Y01711D01*
X02150Y02137D02*
X02120Y01693D01*
X02120Y01693D02*
X02097Y01400D01*
G54D63*
X21131Y22707D02*
X21603Y22700D01*
X21603Y22700D02*
X21738Y22921D01*
X21738Y22921D02*
X21995Y23400D01*
X21184Y22706D02*
X20592Y22716D01*
X20592Y22716D02*
X20275Y22950D01*
G54D62*
X08400Y00700D02*
X07500Y00805D01*
X07500Y00805D02*
X07100Y01115D01*
X07100Y01115D02*
X06874Y01356D01*
X06874Y01356D02*
X06126Y01356D01*
X06126Y01356D02*
X05600Y01297D01*
X05600Y01297D02*
X05310Y01269D01*
X05310Y01269D02*
X05188Y01084D01*
X05188Y01084D02*
X05211Y00555D01*
X05211Y00555D02*
X05345Y00113D01*
X05345Y00113D02*
X05700Y-00500D01*
G54D64*
X22092Y26089D02*
X22098Y26411D01*
X22100Y26605D02*
X22098Y26411D01*
X22548Y25095D02*
X22794Y25107D01*
X22794Y25107D02*
X22931Y25040D01*
X22931Y25040D02*
X22969Y24900D01*
X22969Y24900D02*
X22962Y24625D01*
X22962Y24625D02*
X22923Y24547D01*
X22923Y24547D02*
X22820Y24513D01*
X21700Y24710D02*
X21704Y24268D01*
X21126Y24698D02*
X21308Y24710D01*
X22548Y24898D02*
X22808Y24900D01*
X20900Y25597D02*
X20700Y25436D01*
X20700Y25436D02*
X20676Y25116D01*
X20676Y25116D02*
X20736Y24934D01*
X20736Y24934D02*
X20724Y24521D01*
X20724Y24521D02*
X20275Y23950D01*
X-07272Y00710D02*
X-07550Y00742D01*
X-07550Y00742D02*
X-07891Y00751D01*
G54D63*
X28795Y16052D02*
X28815Y16332D01*
X28845Y16464D02*
X28815Y16332D01*
X28845Y16464D02*
X29343Y16663D01*
X29343Y16663D02*
X29704Y16867D01*
X29704Y16867D02*
X29895Y16942D01*
X29895Y16942D02*
X30150Y16925D01*
X30150Y16925D02*
X30418Y16931D01*
X30418Y16931D02*
X30650Y16925D01*
X30650Y16925D02*
X30941Y16937D01*
X30941Y16937D02*
X31156Y16832D01*
X31156Y16832D02*
X31214Y16629D01*
X31214Y16629D02*
X31179Y12911D01*
X31179Y12911D02*
X31109Y12754D01*
X31109Y12754D02*
X30935Y12684D01*
X30935Y12684D02*
X30650Y12675D01*
X30650Y12675D02*
X30401Y12678D01*
X30401Y12678D02*
X30150Y12675D01*
X30150Y12675D02*
X29884Y12673D01*
X29884Y12673D02*
X29640Y12963D01*
X29640Y12963D02*
X29105Y13213D01*
X29105Y13213D02*
X28821Y13387D01*
X28821Y13387D02*
X28780Y13480D01*
X28780Y13480D02*
X28795Y13748D01*
X28795Y16052D02*
X28795Y13748D01*
X27300Y16997D02*
X27496Y16930D01*
X27614Y16897D02*
X28100Y16897D01*
X28015Y16897D02*
X28301Y16897D01*
X27496Y16930D02*
X27700Y16897D01*
X28301Y16897D02*
X28500Y16897D01*
X28500Y16897D02*
X29090Y16846D01*
X29090Y16846D02*
X29343Y16663D01*
G54D64*
X27811Y13748D02*
X28008Y13748D01*
X28008Y13748D02*
X28205Y13748D01*
X28205Y13748D02*
X28402Y13748D01*
X28402Y13748D02*
X28598Y13748D01*
X28598Y13748D02*
X28795Y13748D01*
G54D63*
X28008Y13748D02*
X27997Y13300D01*
X27997Y13300D02*
X28107Y12803D01*
G54D64*
X27348Y15392D02*
X27163Y15336D01*
X27163Y15336D02*
X27071Y15200D01*
X26812Y15200D02*
X27071Y15200D01*
G54D63*
X26897Y14350D02*
X27047Y14435D01*
X26897Y14350D02*
X26897Y13900D01*
X29550Y12053D02*
X29790Y12056D01*
X28426Y12300D02*
X28157Y12315D01*
X28157Y12315D02*
X27950Y12397D01*
X27950Y12397D02*
X28108Y12617D01*
X28108Y12617D02*
X28107Y12803D01*
X27150Y12003D02*
X26934Y12016D01*
X25500Y12803D02*
X25717Y12773D01*
X25503Y14000D02*
X25256Y13993D01*
G54D64*
X24597Y16647D02*
X24468Y16502D01*
X24468Y16502D02*
X24281Y16488D01*
X24114Y16494D02*
X24281Y16488D01*
X25998Y15959D02*
X25997Y16150D01*
G54D63*
X19303Y14900D02*
X19285Y15115D01*
X19254Y15375D02*
X19285Y15115D01*
X19746Y16025D02*
X19721Y16293D01*
X19697Y16500D02*
X19721Y16293D01*
G54D64*
X20503Y16647D02*
X20652Y16499D01*
X20503Y15388D02*
X20673Y15535D01*
X20818Y15388D02*
X20673Y15535D01*
X20818Y15703D02*
X20673Y15535D01*
X20818Y15703D02*
X20967Y15543D01*
X20818Y15388D02*
X20967Y15543D01*
X20967Y15543D02*
X21133Y15703D01*
X20503Y15073D02*
X20669Y15228D01*
X20669Y15228D02*
X20503Y15388D01*
X20669Y15228D02*
X20818Y15388D01*
X21133Y15703D02*
X21286Y15551D01*
X21286Y15551D02*
X21448Y15703D01*
X21286Y15551D02*
X21448Y15388D01*
X21448Y14758D02*
X21600Y14599D01*
X21448Y14443D02*
X21600Y14599D01*
X22078Y15703D02*
X22230Y15858D01*
X22393Y15703D02*
X22229Y15857D01*
X22393Y15703D02*
X22557Y15870D01*
X22708Y15703D02*
X22557Y15870D01*
X23492Y15543D02*
X23338Y15703D01*
X23492Y15543D02*
X23653Y15388D01*
X23810Y15541D02*
X23653Y15388D01*
X23810Y15541D02*
X23968Y15388D01*
X23450Y14761D02*
X23653Y14758D01*
X23791Y13977D02*
X23653Y14128D01*
X23791Y13977D02*
X23653Y13813D01*
X23812Y13653D02*
X23968Y13498D01*
X23812Y13653D02*
X23653Y13813D01*
X23338Y13498D02*
X23488Y13349D01*
X22856Y13639D02*
X22708Y13498D01*
X22076Y13677D02*
X22078Y13498D01*
X21448Y13498D02*
X21290Y13643D01*
X21133Y13498D02*
X21290Y13643D01*
X21133Y13813D02*
X21290Y13643D01*
G54D63*
X27100Y13197D02*
X26891Y13663D01*
X26891Y13663D02*
X26897Y13900D01*
X26683Y17021D02*
X26900Y16997D01*
G54D64*
X24303Y11900D02*
X24047Y11904D01*
X23797Y11900D02*
X24047Y11904D01*
G54D63*
X25717Y12773D02*
X25926Y12744D01*
G54D64*
X26353Y12350D02*
X26353Y12547D01*
X26353Y12547D02*
X26160Y12751D01*
X26160Y12751D02*
X25926Y12744D01*
G54D63*
X19800Y12897D02*
X19796Y13155D01*
X21500Y06391D02*
X21500Y05800D01*
X21500Y06391D02*
X21499Y07018D01*
G54D61*
X21499Y07018D02*
X21500Y07185D01*
X21507Y08870D02*
X21805Y08900D01*
X21507Y08870D02*
X21195Y08900D01*
X21500Y07185D02*
X21506Y08529D01*
X21500Y05800D02*
X22105Y05796D01*
X21500Y05800D02*
X20865Y05805D01*
X20865Y05805D02*
X20851Y06062D01*
X20865Y05805D02*
X20860Y05544D01*
G54D63*
X20405Y04600D02*
X20405Y04334D01*
X22595Y04600D02*
X22593Y04329D01*
X21500Y04403D02*
X21504Y04213D01*
G54D64*
X20103Y06000D02*
X20100Y06251D01*
X22797Y05600D02*
X22791Y05855D01*
G54D61*
X21506Y08529D02*
X21507Y08870D01*
G54D63*
X14131Y15404D02*
X14557Y15458D01*
G54D64*
X13200Y09897D02*
X14500Y10600D01*
X13200Y05703D02*
X13204Y05445D01*
X13200Y06703D02*
X13192Y06450D01*
X07230Y13870D02*
X07054Y13867D01*
X07230Y13240D02*
X07041Y13229D01*
X07230Y14500D02*
X07026Y14500D01*
X05970Y13555D02*
X06155Y13556D01*
X05970Y14185D02*
X06175Y14193D01*
X07860Y15760D02*
X07858Y15954D01*
X07860Y13240D02*
X07705Y13068D01*
X-03525Y14446D02*
X-03521Y14701D01*
X-02875Y13954D02*
X-02610Y13942D01*
G54D63*
X-06254Y15054D02*
X-05896Y15049D01*
X-05546Y15054D02*
X-05896Y15049D01*
X-05546Y15054D02*
X-05541Y14712D01*
X-05546Y14346D02*
X-05541Y14712D01*
X-05546Y14346D02*
X-05913Y14340D01*
X-06254Y14346D02*
X-05913Y14340D01*
X-06254Y14346D02*
X-06256Y14718D01*
X-06254Y15054D02*
X-06256Y14718D01*
G54D64*
X-01993Y15302D02*
X-02201Y15299D01*
X-10990Y-00389D02*
X-11221Y-00385D01*
X-11193Y00514D02*
X-11184Y00284D01*
G54D61*
X09210Y18984D02*
X09210Y19472D01*
X09221Y21146D02*
X09210Y19472D01*
G54D63*
X09221Y21146D02*
X09215Y21602D01*
X09215Y21602D02*
X09215Y22193D01*
X09412Y22784D02*
X09414Y22403D01*
X09414Y22403D02*
X09215Y22193D01*
X21303Y05209D02*
X21300Y05595D01*
X21300Y05595D02*
X21500Y05800D01*
X09412Y22784D02*
X09412Y23003D01*
X09412Y23003D02*
X09567Y23168D01*
X09567Y23168D02*
X09612Y23293D01*
X09612Y23293D02*
X09877Y23299D01*
X09215Y22193D02*
X09838Y22040D01*
X09215Y22193D02*
X09829Y22330D01*
X09215Y22193D02*
X08614Y22035D01*
X09257Y22238D02*
X08614Y22330D01*
X08614Y22035D02*
X08614Y22330D01*
X09838Y22040D02*
X09829Y22330D01*
G54D64*
X07818Y22093D02*
X07819Y21839D01*
X10612Y22693D02*
X10617Y22938D01*
G54D63*
X-07400Y16695D02*
X-07124Y16697D01*
X-06900Y16697D02*
X-07124Y16697D01*
X-07803Y10500D02*
X-07803Y09500D01*
X-07803Y09500D02*
X-07803Y08500D01*
X-07803Y08500D02*
X-07803Y07500D01*
X-07803Y07500D02*
X-07803Y06500D01*
X-07803Y06500D02*
X-07803Y05500D01*
X-07803Y05582D02*
X-07803Y04500D01*
X-07803Y04500D02*
X-07803Y03500D01*
X-04203Y03500D02*
X-04203Y04500D01*
X-04203Y04500D02*
X-04203Y05500D01*
X-04203Y05500D02*
X-04203Y06500D01*
X-04203Y06500D02*
X-04203Y07500D01*
X-04203Y07500D02*
X-04203Y08035D01*
X-04203Y09500D02*
X-04203Y10500D01*
X-07803Y10500D02*
X-07809Y10845D01*
X-07803Y03500D02*
X-07800Y03178D01*
X-04203Y03500D02*
X-04217Y03188D01*
X-04203Y10500D02*
X-04197Y10839D01*
X-37101Y19673D02*
X-36822Y19727D01*
X-36536Y19770D02*
X-36822Y19727D01*
X-35798Y21870D02*
X-35807Y21589D01*
X-35251Y20486D02*
X-35699Y20487D01*
X-34566Y19770D02*
X-34257Y19761D01*
X-34566Y17070D02*
X-34257Y17061D01*
X-35251Y17786D02*
X-35699Y17787D01*
X-35798Y19170D02*
X-35807Y18889D01*
X-36536Y17070D02*
X-36822Y17027D01*
X-37101Y16973D02*
X-36822Y17027D01*
X-34566Y14370D02*
X-34257Y14361D01*
X-35251Y15086D02*
X-35699Y15087D01*
X-35798Y16470D02*
X-35807Y16189D01*
X-36536Y14370D02*
X-36822Y14327D01*
X-37101Y14273D02*
X-36822Y14327D01*
X-34566Y11670D02*
X-34257Y11661D01*
X-35251Y12386D02*
X-35699Y12387D01*
X-35798Y13770D02*
X-35807Y13489D01*
X-36536Y11670D02*
X-36822Y11627D01*
X-37101Y11573D02*
X-36822Y11627D01*
X-34566Y08970D02*
X-34257Y08961D01*
X-35251Y09686D02*
X-35699Y09687D01*
X-35798Y11070D02*
X-35807Y10789D01*
X-36536Y08970D02*
X-36822Y08927D01*
X-37101Y08873D02*
X-36822Y08927D01*
X-34566Y06270D02*
X-34257Y06261D01*
X-35251Y06986D02*
X-35699Y06987D01*
X-35798Y08370D02*
X-35807Y08089D01*
X-36536Y06270D02*
X-36822Y06227D01*
X-37101Y06173D02*
X-36822Y06227D01*
X-34566Y03570D02*
X-34257Y03561D01*
X-35251Y04286D02*
X-35699Y04287D01*
X-35798Y05670D02*
X-35807Y05389D01*
X-36536Y03570D02*
X-36822Y03527D01*
X-37101Y03473D02*
X-36822Y03527D01*
X-34566Y00870D02*
X-34257Y00861D01*
X-35251Y01586D02*
X-35699Y01587D01*
X-35798Y02970D02*
X-35807Y02689D01*
X-36536Y00870D02*
X-36822Y00827D01*
X-37101Y00773D02*
X-36822Y00827D01*
X-32648Y12703D02*
X-32906Y12702D01*
X-32906Y12702D02*
X-32927Y12507D01*
X-32927Y12507D02*
X-33200Y12403D01*
X-32648Y12506D02*
X-32927Y12507D01*
X-33200Y13795D02*
X-32885Y13804D01*
X-32297Y10600D02*
X-32348Y10374D01*
X-32348Y10374D02*
X-32395Y10100D01*
G54D64*
X-30803Y11700D02*
X-30612Y11717D01*
X-30626Y10856D02*
X-30397Y10863D01*
G54D63*
X-32200Y15674D02*
X-32252Y15903D01*
X-31500Y15297D02*
X-31493Y15506D01*
X-32252Y15903D02*
X-32297Y16100D01*
X-32297Y16100D02*
X-32287Y16329D01*
X-30200Y14126D02*
X-30204Y13911D01*
X-30203Y13700D02*
X-30204Y13911D01*
X-30700Y18703D02*
X-30697Y18551D01*
X-30695Y18300D02*
X-30697Y18551D01*
X-30774Y16688D02*
X-30987Y16686D01*
X-31000Y15203D02*
X-31246Y15292D01*
X-31246Y15292D02*
X-31500Y15297D01*
X-31100Y16397D02*
X-30987Y16686D01*
G54D64*
X-24498Y07370D02*
X-24688Y07367D01*
X-25048Y07369D02*
X-24688Y07367D01*
X-25004Y08476D02*
X-24998Y08070D01*
X-24998Y08870D02*
X-25004Y08476D01*
X-24998Y08870D02*
X-24996Y09097D01*
X-24998Y08070D02*
X-24996Y07830D01*
X-25048Y07369D02*
X-24996Y07830D01*
X-24498Y07370D02*
X-24504Y07124D01*
X-24748Y10200D02*
X-24987Y10148D01*
X-24987Y10148D02*
X-25200Y10103D01*
X-22404Y09670D02*
X-22405Y09438D01*
X-23252Y10003D02*
X-23484Y10003D01*
X-23252Y10594D02*
X-23252Y10740D01*
X-22801Y10867D02*
X-22993Y10867D01*
X-22993Y10867D02*
X-23252Y10740D01*
X-25103Y11100D02*
X-25096Y11409D01*
X-25096Y11409D02*
X-24991Y11563D01*
X-24991Y11563D02*
X-24800Y11697D01*
X-28904Y17270D02*
X-28923Y17065D01*
X-28955Y16795D02*
X-28923Y17065D01*
X-29447Y16145D02*
X-29367Y15879D01*
X-29298Y15670D02*
X-29367Y15879D01*
X-25528Y20669D02*
X-25784Y20669D01*
X-25735Y20669D02*
X-26040Y20669D01*
X-26006Y20669D02*
X-26296Y20669D01*
X-26296Y20669D02*
X-26552Y20669D01*
X-26543Y20237D02*
X-26552Y20669D01*
G54D63*
X-29300Y20503D02*
X-29300Y20282D01*
X-28600Y20126D02*
X-28603Y19905D01*
X-28603Y19700D02*
X-28603Y19905D01*
X-30395Y20900D02*
X-30379Y21236D01*
X-30397Y21500D02*
X-30379Y21236D01*
G54D64*
X-27500Y20997D02*
X-27243Y20994D01*
X-27497Y21900D02*
X-27702Y21909D01*
X-28110Y21896D02*
X-27702Y21909D01*
X-28110Y21700D02*
X-27775Y21696D01*
X-27775Y21696D02*
X-27707Y21769D01*
X-27707Y21769D02*
X-27702Y21909D01*
G54D63*
X-27400Y23903D02*
X-27402Y23678D01*
X-30163Y22850D02*
X-30603Y22853D01*
X-21200Y24103D02*
X-20962Y24195D01*
X-20962Y24195D02*
X-20882Y24436D01*
X-20882Y24436D02*
X-20962Y25359D01*
X-20962Y25359D02*
X-21200Y26403D01*
X-21153Y24121D02*
X-22607Y23851D01*
G54D62*
X-32556Y23220D02*
X-32354Y23221D01*
X-32354Y23221D02*
X-32146Y23220D01*
X-32354Y23221D02*
X-32354Y23664D01*
G54D61*
X-32354Y23664D02*
X-32345Y25488D01*
G54D63*
X-32351Y25929D02*
X-32345Y25488D01*
X-32351Y26520D02*
X-31746Y26364D01*
X-32351Y26520D02*
X-31746Y26679D01*
X-32351Y26520D02*
X-32956Y26675D01*
X-32351Y26520D02*
X-32964Y26364D01*
X-32154Y27111D02*
X-32157Y26699D01*
X-32157Y26699D02*
X-32351Y26520D01*
X-32300Y27997D02*
X-32303Y28212D01*
X-32800Y28195D02*
X-33142Y28200D01*
X-32800Y28195D02*
X-32303Y28212D01*
G54D64*
X-31251Y27217D02*
X-31254Y27452D01*
X-33451Y27417D02*
X-33447Y27627D01*
G54D62*
X-34900Y25219D02*
X-34894Y24505D01*
X-34900Y25219D02*
X-35719Y25237D01*
X-34900Y25219D02*
X-34052Y25220D01*
G54D64*
X-03397Y16300D02*
X-03417Y16497D01*
X-03417Y16497D02*
X-03446Y16775D01*
X-02954Y17425D02*
X-02988Y17692D01*
X-03003Y17900D02*
X-02988Y17692D01*
X-04588Y17800D02*
X-04271Y17797D01*
X-03695Y09300D02*
X-03570Y09575D01*
X-03497Y09800D02*
X-03570Y09575D01*
X-03400Y10410D02*
X-03204Y10411D01*
X-03497Y09800D02*
X-03402Y10130D01*
X-03402Y10130D02*
X-03400Y10410D01*
G54D63*
X-04197Y10839D02*
X-04200Y11403D01*
X-05374Y11600D02*
X-05638Y11723D01*
X-05638Y11723D02*
X-05800Y11797D01*
X-05800Y11797D02*
X-05806Y11999D01*
G54D64*
X-05300Y18603D02*
X-05078Y18605D01*
X-06800Y18603D02*
X-07023Y18591D01*
G54D63*
X-06600Y21803D02*
X-06031Y21803D01*
X-06031Y21803D02*
X-05500Y21803D01*
X-13003Y28400D02*
X-12784Y28419D01*
G54D64*
X02596Y06731D02*
X02605Y07202D01*
X02852Y09069D02*
X03065Y09071D01*
X00548Y09069D02*
X00304Y09064D01*
X-00448Y09069D02*
X-00212Y09078D01*
X-06316Y11236D02*
X-06049Y11452D01*
X-06049Y11452D02*
X-06005Y11654D01*
X-06005Y11654D02*
X-05800Y11797D01*
X-01350Y04263D02*
X-01351Y03843D01*
X01650Y04263D02*
X01651Y03857D01*
X06650Y04263D02*
X06400Y04263D01*
X06400Y04263D02*
X06150Y04263D01*
X-00704Y06731D02*
X-00731Y07025D01*
X-00731Y07025D02*
X-00795Y07187D01*
X05128Y06731D02*
X05384Y06731D01*
X05356Y06731D02*
X05640Y06731D01*
X05614Y06731D02*
X05896Y06731D01*
X05896Y06731D02*
X06152Y06731D01*
X06152Y06731D02*
X06328Y06737D01*
G54D63*
X-04203Y08035D02*
X-04203Y08500D01*
G54D64*
X09497Y14600D02*
X09497Y14200D01*
X09497Y14600D02*
X09814Y14600D01*
G54D61*
X09877Y23299D02*
X10158Y23885D01*
X10596Y24794D02*
X10610Y25776D01*
X10158Y23885D02*
X10596Y24794D01*
G54D64*
X05437Y09650D02*
X05053Y09662D01*
X08103Y11400D02*
X07907Y11506D01*
X00212Y13727D02*
X00371Y13881D01*
X00212Y14042D02*
X00371Y13881D01*
X00527Y14042D02*
X00371Y13881D01*
X00527Y13727D02*
X00371Y13881D01*
X00842Y13727D02*
X00991Y13886D01*
X00842Y14042D02*
X00991Y13886D01*
X01157Y14042D02*
X00991Y13886D01*
X01157Y13727D02*
X00991Y13886D01*
X01472Y13727D02*
X01630Y13886D01*
X01472Y14042D02*
X01630Y13886D01*
X01787Y14042D02*
X01630Y13886D01*
X01787Y13727D02*
X01630Y13886D01*
X01157Y14042D02*
X01310Y14191D01*
X01157Y14357D02*
X01310Y14191D01*
X01472Y14357D02*
X01310Y14191D01*
X01472Y14042D02*
X01310Y14191D01*
X00527Y14042D02*
X00681Y14205D01*
X00527Y14357D02*
X00681Y14205D01*
X00842Y14357D02*
X00681Y14205D01*
X00842Y14042D02*
X00681Y14205D01*
X00212Y14357D02*
X00376Y14525D01*
X00212Y14672D02*
X00376Y14525D01*
X00527Y14672D02*
X00376Y14525D01*
X00527Y14357D02*
X00376Y14525D01*
X00842Y14357D02*
X01005Y14505D01*
X00842Y14672D02*
X01005Y14505D01*
X01157Y14672D02*
X01005Y14505D01*
X01157Y14357D02*
X01005Y14505D01*
X01472Y14357D02*
X01635Y14525D01*
X01472Y14672D02*
X01635Y14525D01*
X01787Y14672D02*
X01635Y14525D01*
X01787Y14357D02*
X01635Y14525D01*
X00527Y14672D02*
X00691Y14835D01*
X00527Y14987D02*
X00691Y14835D01*
X00842Y14987D02*
X00691Y14835D01*
X00842Y14672D02*
X00691Y14835D01*
X01157Y14987D02*
X01301Y14830D01*
X01157Y14672D02*
X01301Y14830D01*
X01472Y14987D02*
X01301Y14830D01*
X01472Y14672D02*
X01301Y14830D01*
X01472Y13727D02*
X01157Y13727D01*
X00842Y13727D02*
X00527Y13727D01*
X00212Y14042D02*
X00212Y14357D01*
X00212Y14672D02*
X00212Y14987D01*
X00212Y14987D02*
X00527Y14987D01*
X00212Y14987D02*
X00527Y14672D01*
X01472Y14987D02*
X01787Y14987D01*
X01787Y14987D02*
X01787Y14672D01*
X01472Y14672D02*
X01787Y14946D01*
X01787Y14357D02*
X01787Y14042D01*
X02397Y18300D02*
X02611Y18300D01*
X-28247Y17147D02*
X-28410Y17303D01*
X-27932Y16203D02*
X-27771Y16049D01*
X-27617Y16203D02*
X-27771Y16049D01*
X-27932Y15888D02*
X-27771Y16049D01*
X-28247Y15888D02*
X-28081Y16044D01*
X-27932Y15888D02*
X-28081Y16044D01*
X-27932Y16203D02*
X-28081Y16044D01*
X-27617Y16203D02*
X-27462Y16049D01*
X-27302Y16203D02*
X-27462Y16049D01*
X-27302Y15888D02*
X-27462Y16049D01*
X-26672Y16203D02*
X-26518Y16364D01*
X-26357Y16203D02*
X-26518Y16364D01*
X-26357Y16203D02*
X-26193Y16369D01*
X-26042Y16203D02*
X-26193Y16369D01*
X-25412Y16203D02*
X-25259Y16054D01*
X-25097Y15888D02*
X-25259Y16054D01*
X-25097Y15888D02*
X-24935Y16049D01*
X-24782Y15888D02*
X-24935Y16049D01*
X-25097Y15258D02*
X-24944Y15110D01*
X-25097Y14628D02*
X-24935Y14466D01*
X-25097Y14313D02*
X-24935Y14466D01*
X-24782Y13998D02*
X-24930Y14147D01*
X-25097Y14313D02*
X-24930Y14147D01*
X-25412Y13998D02*
X-25564Y13846D01*
X-26042Y13998D02*
X-25908Y14166D01*
X-26672Y13998D02*
X-26513Y14161D01*
X-27302Y13998D02*
X-27457Y14151D01*
X-27617Y14313D02*
X-27457Y14151D01*
X-27617Y13998D02*
X-27457Y14151D01*
X-27302Y14943D02*
X-27452Y15091D01*
X-27302Y15258D02*
X-27452Y15091D01*
X-24153Y17147D02*
X-23991Y17308D01*
X-23200Y13203D02*
X-23025Y13014D01*
X-23025Y13014D02*
X-22747Y12954D01*
X-22747Y12954D02*
X-22311Y12962D01*
X-22311Y12962D02*
X-22061Y13107D01*
X-22061Y13107D02*
X-22000Y13500D01*
X-25304Y05031D02*
X-25362Y05461D01*
X-28585Y05568D02*
X-28505Y05101D01*
G54D62*
X-04503Y21600D02*
X-04306Y21604D01*
G54D64*
X-00103Y16877D02*
X-00107Y16678D01*
X01157Y16877D02*
X01157Y16692D01*
X03992Y17192D02*
X04170Y17364D01*
X03992Y11207D02*
X04158Y11105D01*
X-01993Y11207D02*
X-02138Y11074D01*
X-01100Y20503D02*
X-00619Y20503D01*
X-00619Y20503D02*
X-00100Y20503D01*
G54D63*
X16469Y17452D02*
X16469Y17196D01*
X16469Y17196D02*
X16469Y16940D01*
X16469Y16940D02*
X16469Y16684D01*
X16469Y16684D02*
X16469Y16428D01*
X16469Y17452D02*
X16467Y17672D01*
G54D64*
X14131Y13072D02*
X14131Y12816D01*
X14131Y12816D02*
X14131Y12560D01*
X14131Y12560D02*
X14131Y12304D01*
X14131Y12304D02*
X14131Y12048D01*
X14131Y12048D02*
X14122Y11808D01*
X16992Y15163D02*
X16469Y15148D01*
G54D62*
X03646Y03885D02*
X03650Y04263D01*
X-07063Y19650D02*
X-07063Y19411D01*
G54D63*
X-22404Y09670D02*
X-22404Y10070D01*
X-22404Y10070D02*
X-22402Y10309D01*
X-28143Y08797D02*
X-28063Y09050D01*
G54D61*
X08220Y23293D02*
X07954Y23281D01*
G54D62*
X-02757Y09633D02*
X-02752Y09069D01*
X-31401Y01573D02*
X-30401Y01573D01*
X-30401Y01573D02*
X-29401Y01573D01*
X-29401Y01573D02*
X-28401Y01573D01*
X-28401Y01573D02*
X-27401Y01573D01*
X-27401Y01573D02*
X-26401Y01573D01*
X-26476Y01573D02*
X-25401Y01573D01*
X-25401Y01573D02*
X-24401Y01573D01*
X-24401Y01573D02*
X-24395Y01200D01*
X-31401Y-01927D02*
X-30401Y-01927D01*
X-30401Y-01927D02*
X-29401Y-01927D01*
X-29401Y-01927D02*
X-28401Y-01927D01*
X-28401Y-01927D02*
X-27401Y-01927D01*
X-27401Y-01927D02*
X-26401Y-01927D01*
X-26401Y-01927D02*
X-25401Y-01927D01*
X-25401Y-01927D02*
X-24401Y-01927D01*
X-31401Y-01927D02*
X-31927Y-01922D01*
G54D64*
X-28264Y18116D02*
X-28161Y18359D01*
X-23300Y11697D02*
X-22900Y11697D01*
X-22900Y11697D02*
X-22897Y11894D01*
X-23300Y11697D02*
X-23308Y11908D01*
G54D63*
X-23803Y09452D02*
X-23807Y09669D01*
X-07899Y-00803D02*
X-07899Y-00547D01*
X-07899Y-00547D02*
X-08348Y-00550D01*
G54D64*
X-27352Y07369D02*
X-27356Y06964D01*
X-28249Y07439D02*
X-28252Y07019D01*
X-30553Y07439D02*
X-30549Y07877D01*
X28205Y16052D02*
X28207Y15871D01*
X28207Y15871D02*
X28131Y15844D01*
X28131Y15844D02*
X27825Y15821D01*
X27825Y15821D02*
X27686Y15775D01*
X28205Y16052D02*
X28253Y16279D01*
X28253Y16279D02*
X28300Y16399D01*
X28300Y16399D02*
X28307Y16618D01*
X28307Y16618D02*
X28301Y16897D01*
X28598Y16052D02*
X28795Y16052D01*
X27348Y14408D02*
X27047Y14435D01*
X27348Y14408D02*
X27710Y14355D01*
G54D63*
X-07266Y12751D02*
X-07000Y12803D01*
X-07266Y12751D02*
X-07600Y12705D01*
G54D64*
X-05800Y12803D02*
X-05806Y11999D01*
X-07797Y14200D02*
X-07797Y13800D01*
X-07797Y13800D02*
X-08044Y13809D01*
G54D63*
X-07400Y16695D02*
X-07124Y16697D01*
X-07403Y15700D02*
X-07212Y15620D01*
G54D64*
X-02178Y16242D02*
X-01993Y16247D01*
G54D61*
X09520Y18993D02*
X09210Y18984D01*
X08910Y18993D02*
X09210Y18984D01*
G54D64*
X-28200Y11903D02*
X-28200Y11687D01*
G54D63*
X-30900Y14503D02*
X-30895Y14252D01*
G54D64*
X-01993Y17192D02*
X-01842Y17345D01*
X-01678Y17192D02*
X-01842Y17345D01*
X-23104Y08870D02*
X-23105Y09167D01*
G54D63*
X-20774Y19187D02*
X-21000Y18500D01*
X-22274Y19187D02*
X-22272Y19495D01*
X-23774Y19187D02*
X-23773Y19486D01*
X25997Y16150D02*
X26168Y16325D01*
X26168Y16325D02*
X26360Y16203D01*
G54D64*
X27097Y16200D02*
X27097Y16414D01*
X27300Y16997D02*
X27103Y16974D01*
X26683Y17021D02*
X27108Y16973D01*
X27097Y16200D02*
X27098Y16239D01*
X27097Y16414D02*
X27108Y16973D01*
X27097Y16414D02*
X26598Y16421D01*
X26598Y16421D02*
X26360Y16203D01*
X03503Y16723D02*
X03362Y16877D01*
X05655Y14500D02*
X05812Y14351D01*
X-01363Y16877D02*
X-01338Y16598D01*
X-01338Y16598D02*
X-01376Y16453D01*
X-01376Y16453D02*
X-01459Y16410D01*
X-01459Y16410D02*
X-01642Y16401D01*
X-01642Y16401D02*
X-02064Y16405D01*
X-02064Y16405D02*
X-02373Y16408D01*
X-02373Y16408D02*
X-02631Y16108D01*
X-02631Y16108D02*
X-03003Y15900D01*
X-03003Y16300D02*
X-02954Y16775D01*
X-02954Y16775D02*
X-01993Y16562D01*
X03992Y16562D02*
X04382Y16507D01*
X04382Y16507D02*
X05473Y16593D01*
X05473Y16593D02*
X06169Y16631D01*
X06169Y16631D02*
X06923Y16175D01*
X06923Y16175D02*
X07230Y15760D01*
X07230Y15445D02*
X06838Y15601D01*
X06838Y15601D02*
X06702Y16052D01*
X06702Y16052D02*
X06612Y16122D01*
X06612Y16122D02*
X06123Y16390D01*
X06123Y16390D02*
X06058Y16422D01*
X06058Y16422D02*
X05291Y16371D01*
X05291Y16371D02*
X03992Y16247D01*
X07230Y15130D02*
X07024Y15185D01*
X07024Y15185D02*
X06673Y15360D01*
X06673Y15360D02*
X06512Y15935D01*
X06512Y15935D02*
X06031Y16205D01*
X06031Y16205D02*
X05491Y16181D01*
X05491Y16181D02*
X04864Y16112D01*
X04864Y16112D02*
X04430Y15884D01*
X04430Y15884D02*
X04115Y15790D01*
X04115Y15790D02*
X03889Y15758D01*
X03889Y15758D02*
X03677Y15617D01*
X07230Y14815D02*
X07031Y14827D01*
X02102Y17192D02*
X02271Y17040D01*
X02102Y17192D02*
X02003Y18300D01*
X03677Y16247D02*
X03763Y16427D01*
X03763Y16427D02*
X03834Y16491D01*
X03834Y16491D02*
X03831Y16618D01*
X03831Y16618D02*
X03864Y16702D01*
X03864Y16702D02*
X03984Y16723D01*
X03984Y16723D02*
X04399Y16689D01*
X04399Y16689D02*
X06220Y16733D01*
X06220Y16733D02*
X07042Y16219D01*
X07042Y16219D02*
X07545Y15760D01*
X03677Y15932D02*
X03836Y16113D01*
X03836Y16113D02*
X03836Y16328D01*
X04414Y16396D02*
X05318Y16475D01*
X05318Y16475D02*
X06100Y16525D01*
X06100Y16525D02*
X06818Y16121D01*
X06818Y16121D02*
X06968Y15683D01*
X06968Y15683D02*
X07166Y15600D01*
X07166Y15600D02*
X07332Y15602D01*
X07332Y15602D02*
X07545Y15445D01*
X03836Y16328D02*
X03912Y16407D01*
X03912Y16407D02*
X04220Y16403D01*
X04220Y16403D02*
X04414Y16396D01*
X03677Y15302D02*
X03829Y15136D01*
X07545Y15130D02*
X07391Y14970D01*
X07384Y14641D02*
X07545Y14815D01*
X00842Y17192D02*
X01000Y17377D01*
X03992Y15932D02*
X04386Y15976D01*
X04386Y15976D02*
X04796Y16223D01*
X04796Y16223D02*
X05482Y16282D01*
X05482Y16282D02*
X06063Y16308D01*
X06063Y16308D02*
X06614Y15993D01*
X06614Y15993D02*
X06784Y15431D01*
X06784Y15431D02*
X07080Y15286D01*
X07080Y15286D02*
X07473Y15286D01*
X07473Y15286D02*
X07695Y15296D01*
X07695Y15296D02*
X07860Y15445D01*
X03992Y15302D02*
X04179Y15323D01*
X07860Y15130D02*
X08049Y15132D01*
X03513Y17052D02*
X03362Y17192D01*
X07860Y14815D02*
X07704Y14961D01*
X05061Y15553D02*
X05340Y15445D01*
X03047Y16877D02*
X03199Y16726D01*
X05655Y15760D02*
X05511Y15902D01*
X03992Y16877D02*
X04214Y16877D01*
X05655Y15445D02*
X05505Y15586D01*
X03677Y16877D02*
X03837Y17025D01*
X05655Y15130D02*
X05467Y14987D01*
X05467Y14987D02*
X05305Y14971D01*
X05305Y14971D02*
X04934Y14894D01*
X04934Y14894D02*
X04248Y14487D01*
X04248Y14487D02*
X03992Y14357D01*
X05970Y15760D02*
X05811Y15929D01*
X05811Y15929D02*
X05628Y16053D01*
X05628Y16053D02*
X05454Y16062D01*
X05454Y16062D02*
X05220Y16048D01*
X05220Y16048D02*
X04857Y15995D01*
X04857Y15995D02*
X04275Y15555D01*
X04275Y15555D02*
X04026Y15459D01*
X04026Y15459D02*
X03619Y15462D01*
X03619Y15462D02*
X03530Y15510D01*
X03530Y15510D02*
X03488Y15597D01*
X03488Y15597D02*
X03513Y16437D01*
X03513Y16437D02*
X03677Y16562D01*
X-06392Y15645D02*
X-06407Y15937D01*
X-06407Y15937D02*
X-06484Y16085D01*
X-06484Y16085D02*
X-06500Y16303D01*
X-05998Y15645D02*
X-05996Y15937D01*
X-05827Y16081D02*
X-05996Y15937D01*
X-05705Y16178D02*
X-05700Y16303D01*
X-05827Y16081D02*
X-05705Y16178D01*
X-07403Y14900D02*
X-07106Y14977D01*
X-07106Y14977D02*
X-06845Y14995D01*
X-07403Y14900D02*
X-07584Y14652D01*
X-07584Y14652D02*
X-08105Y14508D01*
X-14639Y11893D02*
X-14081Y12832D01*
X-13511Y13402D02*
X-11181Y13724D01*
X-11181Y13724D02*
X-10408Y13774D01*
X-10408Y13774D02*
X-09756Y14226D01*
X-09756Y14226D02*
X-08105Y14508D01*
X-14081Y12832D02*
X-13511Y13402D01*
X-06589Y15645D02*
X-06649Y15835D01*
X-06868Y16079D02*
X-06649Y15835D01*
X-06868Y16079D02*
X-06900Y16303D01*
G54D63*
X-14649Y12889D02*
X-15207Y12295D01*
X-15207Y12295D02*
X-15197Y11512D01*
X-15197Y11512D02*
X-15139Y11373D01*
X-14825Y11241D02*
X-14528Y11264D01*
X-14329Y11471D02*
X-13674Y12838D01*
X-13674Y12838D02*
X-13290Y13059D01*
X-13290Y13059D02*
X-12657Y13163D01*
X-12657Y13163D02*
X-11734Y12989D01*
X-11734Y12989D02*
X-10781Y12437D01*
X-10781Y12437D02*
X-09456Y12275D01*
X-09456Y12275D02*
X-08411Y12193D01*
X-08411Y12193D02*
X-07997Y12200D01*
X-14528Y11264D02*
X-14329Y11471D01*
X-15139Y11373D02*
X-14825Y11241D01*
X-14649Y17109D02*
X-12549Y18327D01*
X-12549Y18327D02*
X-10876Y18307D01*
X-08618Y17742D02*
X-07897Y17300D01*
X-10876Y18307D02*
X-08618Y17742D01*
G54D64*
X02417Y17192D02*
X02868Y17875D01*
X02868Y17875D02*
X03200Y18500D01*
X-00733Y17192D02*
X-00942Y17702D01*
X-00942Y17702D02*
X-01545Y18095D01*
X-01545Y18095D02*
X-02891Y18413D01*
X-02891Y18413D02*
X-03636Y18396D01*
X-03636Y18396D02*
X-04588Y18174D01*
X03992Y14042D02*
X04189Y14046D01*
X09103Y15100D02*
X08852Y15055D01*
X03677Y14042D02*
X03483Y14043D01*
X09103Y15500D02*
X08853Y15466D01*
X-01993Y14042D02*
X-02680Y14193D01*
X-02680Y14193D02*
X-03175Y14200D01*
X-03175Y14200D02*
X-03525Y13954D01*
X03677Y14357D02*
X03833Y14503D01*
X03833Y14503D02*
X04016Y14516D01*
X04016Y14516D02*
X04209Y14588D01*
X04209Y14588D02*
X04785Y15073D01*
X04785Y15073D02*
X05049Y15295D01*
X05049Y15295D02*
X05342Y15290D01*
X05342Y15290D02*
X05855Y15285D01*
X05855Y15285D02*
X05970Y15130D01*
X-01993Y14357D02*
X-02553Y14414D01*
X-02553Y14414D02*
X-02875Y14446D01*
X05970Y15445D02*
X05814Y15603D01*
X03677Y17192D02*
X03834Y17355D01*
X-01678Y12152D02*
X-01835Y12310D01*
X02497Y10100D02*
X02265Y10849D01*
X02265Y10849D02*
X02260Y11061D01*
X02260Y11061D02*
X02257Y11370D01*
X02257Y11370D02*
X02102Y11522D01*
X01787Y11522D02*
X02174Y11853D01*
X02174Y11853D02*
X02765Y11890D01*
X02765Y11890D02*
X02870Y11833D01*
X02870Y11833D02*
X02889Y11746D01*
X02889Y11746D02*
X02890Y11621D01*
X02890Y11621D02*
X02888Y11424D01*
X02888Y11424D02*
X02900Y10939D01*
X02900Y10939D02*
X03003Y10100D01*
X03992Y13727D02*
X04193Y13727D01*
X09103Y14200D02*
X08847Y14173D01*
X03677Y13727D02*
X03479Y13727D01*
X09103Y14600D02*
X08844Y14570D01*
G54D63*
X-05105Y10500D02*
X-04597Y10500D01*
X-05105Y09500D02*
X-04597Y09500D01*
X-06400Y09500D02*
X-05695Y09500D01*
G54D64*
X-01216Y06731D02*
X-01313Y06219D01*
X-01313Y06219D02*
X-02510Y05306D01*
X-02510Y05306D02*
X-02658Y04284D01*
X-02658Y04284D02*
X-03481Y02494D01*
X-03481Y02494D02*
X-04190Y02308D01*
X-04190Y02308D02*
X-06586Y02357D01*
X-06586Y02357D02*
X-07379Y02960D01*
X-07379Y02960D02*
X-07338Y05902D01*
X-07338Y05902D02*
X-06993Y08700D01*
X-06993Y08700D02*
X-06400Y09500D01*
G54D63*
X-05105Y08500D02*
X-04597Y08500D01*
X-05105Y07500D02*
X-04597Y07500D01*
X-06400Y07500D02*
X-05695Y07500D01*
G54D64*
X-01728Y06731D02*
X-01737Y06291D01*
X-01737Y06291D02*
X-01917Y06145D01*
X-01917Y06145D02*
X-02683Y05525D01*
X-02683Y05525D02*
X-02845Y04403D01*
X-02845Y04403D02*
X-03612Y02695D01*
X-03612Y02695D02*
X-04171Y02523D01*
X-04171Y02523D02*
X-06458Y02560D01*
X-06458Y02560D02*
X-07156Y03048D01*
X-07156Y03048D02*
X-07140Y05549D01*
X-07140Y05549D02*
X-06926Y06715D01*
X-06926Y06715D02*
X-06400Y07500D01*
X09609Y22784D02*
X10218Y22693D01*
X10218Y22693D02*
X10218Y22193D01*
X10218Y22230D02*
X10218Y21793D01*
G54D61*
X10015Y19693D02*
X10110Y18993D01*
G54D64*
X10612Y22193D02*
X10612Y21793D01*
X10612Y21840D02*
X10571Y21091D01*
X10571Y21091D02*
X10571Y19302D01*
X10571Y19302D02*
X10339Y19006D01*
X10339Y19006D02*
X10110Y18993D01*
G54D61*
X10110Y18993D02*
X10300Y18200D01*
G54D64*
X-07891Y-00017D02*
X-07571Y00007D01*
X-07571Y00007D02*
X-07290Y00111D01*
X-07891Y-00273D02*
X-07564Y-00314D01*
X-07564Y-00314D02*
X-07290Y-00389D01*
X-10596Y00011D02*
X-10354Y-00019D01*
X-10354Y-00019D02*
X-10095Y-00017D01*
X-10693Y00514D02*
X-10095Y00495D01*
X03838Y07474D02*
X03848Y06731D01*
X04096Y09566D02*
X04104Y09069D01*
X03838Y07474D02*
X05958Y07467D01*
X05958Y07467D02*
X06452Y07195D01*
X06452Y07195D02*
X06815Y06603D01*
X06815Y06603D02*
X07400Y05300D01*
X-07700Y11697D02*
X-07384Y11724D01*
X-07384Y11724D02*
X-07104Y11748D01*
X-07104Y11748D02*
X-06870Y11632D01*
X-06870Y11632D02*
X-06619Y11214D01*
X-06619Y11214D02*
X-06466Y10997D01*
X-06466Y10997D02*
X-05936Y10900D01*
X-05936Y10900D02*
X-05519Y10809D01*
X-05519Y10809D02*
X-05393Y10664D01*
X-05393Y10664D02*
X-05379Y10217D01*
X-05379Y10217D02*
X-05399Y09317D01*
X-05399Y09317D02*
X-05323Y09178D01*
X-05323Y09178D02*
X-05093Y09018D01*
X-05093Y09018D02*
X-04124Y08920D01*
X-04124Y08920D02*
X-02785Y08565D01*
X-02785Y08565D02*
X00867Y07854D01*
X00867Y07854D02*
X02018Y07589D01*
X04616Y06731D02*
X04677Y06412D01*
X04677Y06412D02*
X05037Y06192D01*
X05037Y06192D02*
X05748Y05836D01*
X05748Y05836D02*
X06400Y05300D01*
X04104Y06731D02*
X04041Y06387D01*
X04041Y06387D02*
X03650Y05899D01*
X03650Y05899D02*
X03400Y05300D01*
X04360Y06731D02*
X04419Y06379D01*
X04419Y06379D02*
X05030Y06003D01*
X05030Y06003D02*
X05260Y05718D01*
X05260Y05718D02*
X05400Y05300D01*
X05128Y09069D02*
X05128Y08626D01*
X08821Y22784D02*
X08376Y22779D01*
X08376Y22779D02*
X08212Y22593D01*
X08212Y22593D02*
X08212Y22093D01*
G54D63*
X08821Y21602D02*
X08415Y20893D01*
G54D64*
X10200Y09400D02*
X09491Y08947D01*
X09491Y08947D02*
X08963Y08855D01*
X08963Y08855D02*
X08497Y08800D01*
G54D63*
X09609Y21602D02*
X10015Y20893D01*
X-08705Y03500D02*
X-08197Y03500D01*
X-08705Y04500D02*
X-08197Y04500D01*
X-09295Y04500D02*
X-10000Y04500D01*
G54D64*
X-10000Y04500D02*
X-10451Y03635D01*
X-10451Y03635D02*
X-10431Y03190D01*
X-10431Y03190D02*
X-10083Y02783D01*
X-10083Y02783D02*
X-06733Y02048D01*
X-06733Y02048D02*
X-04165Y01947D01*
X-04165Y01947D02*
X-03260Y02220D01*
X-03260Y02220D02*
X-02372Y04106D01*
X-02372Y04106D02*
X-02227Y04802D01*
X-02113Y05010D02*
X-01927Y05212D01*
X00494Y06231D02*
X00775Y06394D01*
X00775Y06394D02*
X00804Y06731D01*
X-01927Y05212D02*
X00494Y06231D01*
X-02227Y04802D02*
X-02113Y05010D01*
G54D63*
X-08705Y05500D02*
X-08197Y05500D01*
X-08705Y06500D02*
X-08197Y06500D01*
X-09295Y06500D02*
X-10000Y06500D01*
G54D64*
X01316Y06731D02*
X01238Y06365D01*
X01238Y06365D02*
X00610Y06056D01*
X00610Y06056D02*
X-01801Y05041D01*
X-01801Y05041D02*
X-02048Y04676D01*
X-02048Y04676D02*
X-02197Y03957D01*
X-02197Y03957D02*
X-03121Y02035D01*
X-03121Y02035D02*
X-04222Y01719D01*
X-04222Y01719D02*
X-06913Y01855D01*
X-06913Y01855D02*
X-10265Y02617D01*
X-10265Y02617D02*
X-10653Y03150D01*
X-10653Y03150D02*
X-10660Y03927D01*
X-10660Y03927D02*
X-10562Y05665D01*
X-10562Y05665D02*
X-10000Y06500D01*
G54D63*
X-08705Y09500D02*
X-08197Y09500D01*
X-08705Y10500D02*
X-08197Y10500D01*
X-09295Y10500D02*
X-10000Y10500D01*
G54D64*
X02340Y06731D02*
X02270Y06351D01*
X02270Y06351D02*
X01917Y06139D01*
X01917Y06139D02*
X00838Y05698D01*
X00838Y05698D02*
X-01445Y04740D01*
X-01445Y04740D02*
X-01677Y04466D01*
X-01677Y04466D02*
X-01806Y03786D01*
X-01806Y03786D02*
X-02822Y01691D01*
X-02822Y01691D02*
X-04157Y01296D01*
X-04157Y01296D02*
X-06976Y01440D01*
X-06976Y01440D02*
X-10550Y02242D01*
X-10550Y02242D02*
X-11096Y02974D01*
X-11096Y02974D02*
X-11063Y04203D01*
X-11063Y04203D02*
X-10962Y06236D01*
X-10962Y06236D02*
X-10542Y09413D01*
X-10542Y09413D02*
X-10000Y10500D01*
G54D63*
X-08705Y07500D02*
X-08197Y07500D01*
X-08705Y08500D02*
X-08197Y08500D01*
X-09295Y08500D02*
X-10000Y08500D01*
G54D64*
X01828Y06731D02*
X01729Y06347D01*
X01729Y06347D02*
X01322Y06119D01*
X01322Y06119D02*
X00688Y05863D01*
X00688Y05863D02*
X-01671Y04874D01*
X-01671Y04874D02*
X-01857Y04599D01*
X-01857Y04599D02*
X-02004Y03873D01*
X-02004Y03873D02*
X-02970Y01861D01*
X-02970Y01861D02*
X-04222Y01502D01*
X-04222Y01502D02*
X-06946Y01644D01*
X-06946Y01644D02*
X-10383Y02418D01*
X-10383Y02418D02*
X-10865Y03035D01*
X-10865Y03035D02*
X-10865Y04041D01*
X-10865Y04041D02*
X-10757Y06138D01*
X-10757Y06138D02*
X-10458Y07911D01*
X-10458Y07911D02*
X-10000Y08500D01*
X-05619Y18174D02*
X-05887Y18075D01*
X-07077Y17777D02*
X-07753Y17860D01*
X-07753Y17860D02*
X-09322Y18544D01*
X-10423Y21354D02*
X-10966Y23064D01*
X-10966Y23064D02*
X-11158Y23377D01*
X-11158Y23377D02*
X-11489Y23476D01*
X-11489Y23476D02*
X-11832Y23395D01*
X-11832Y23395D02*
X-12193Y22963D01*
X-09322Y18544D02*
X-09935Y19528D01*
X-09935Y19528D02*
X-10423Y21354D01*
X-06347Y17685D02*
X-07077Y17777D01*
X-05887Y18075D02*
X-06347Y17685D01*
X-00733Y16877D02*
X-00890Y17136D01*
X-00890Y17136D02*
X-00894Y17321D01*
X-00894Y17321D02*
X-01025Y17635D01*
X-01025Y17635D02*
X-01606Y18006D01*
X-01606Y18006D02*
X-02918Y18311D01*
X-02918Y18311D02*
X-03782Y18258D01*
X-03938Y18091D02*
X-03782Y18258D01*
X-05612Y17800D02*
X-05287Y17800D01*
G54D65*
X-11406Y21979D02*
X-11746Y21251D01*
X-11746Y21251D02*
X-12371Y21130D01*
X-12371Y21130D02*
X-13446Y21563D01*
X-13446Y21563D02*
X-14314Y23107D01*
X-14314Y23107D02*
X-15173Y26014D01*
X-15233Y27166D02*
X-15132Y27871D01*
X-15132Y27871D02*
X-14350Y28400D01*
X-15173Y26014D02*
X-15233Y27166D01*
G54D63*
X-14350Y28400D02*
X-13397Y28400D01*
X-05105Y06500D02*
X-04597Y06500D01*
X-05105Y05500D02*
X-04597Y05500D01*
X-06400Y05500D02*
X-05695Y05500D01*
G54D64*
X-02240Y06731D02*
X-02274Y06334D01*
X-02274Y06334D02*
X-02914Y05606D01*
X-02914Y05606D02*
X-03026Y04600D01*
X-03026Y04600D02*
X-03741Y02901D01*
X-03741Y02901D02*
X-04149Y02756D01*
X-04149Y02756D02*
X-06331Y02761D01*
X-06331Y02761D02*
X-06933Y03165D01*
X-06933Y03165D02*
X-06935Y04954D01*
X-06935Y04954D02*
X-06400Y05500D01*
G54D63*
X-05105Y04500D02*
X-04597Y04500D01*
G54D64*
X-10095Y00751D02*
X-10589Y00711D01*
X-10589Y00711D02*
X-10855Y00707D01*
X-10855Y00707D02*
X-11026Y00731D01*
X-11026Y00731D02*
X-11193Y00908D01*
X-10095Y-00273D02*
X-10408Y-00342D01*
X-10408Y-00342D02*
X-10596Y-00389D01*
X-12741Y03221D02*
X-10410Y01922D01*
X-10410Y01922D02*
X-08946Y01052D01*
X-08946Y01052D02*
X-08452Y00584D01*
X-08452Y00584D02*
X-08218Y00450D01*
X-08218Y00450D02*
X-07899Y00477D01*
X-10095Y01007D02*
X-10415Y00986D01*
X-10415Y00986D02*
X-10693Y00908D01*
X-10095Y00239D02*
X-10630Y00247D01*
X-10630Y00247D02*
X-10885Y00206D01*
X-10885Y00206D02*
X-10990Y00011D01*
X08026Y10255D02*
X08200Y10403D01*
X08026Y10255D02*
X08200Y10097D01*
X05437Y10650D02*
X05822Y10650D01*
G54D63*
X-04597Y03500D02*
X-05105Y03500D01*
X-06400Y03500D02*
X-05695Y03500D01*
G54D64*
X-06400Y03500D02*
X-05963Y02962D01*
X-05963Y02962D02*
X-04132Y02981D01*
X-04132Y02981D02*
X-03874Y03106D01*
X-03874Y03106D02*
X-03219Y04736D01*
X-03219Y04736D02*
X-03077Y05940D01*
X-03077Y05940D02*
X-02776Y06359D01*
X-02776Y06359D02*
X-02752Y06731D01*
X-07899Y00221D02*
X-08360Y00249D01*
X-08360Y00249D02*
X-09423Y01136D01*
X-09423Y01136D02*
X-10544Y01805D01*
X-10544Y01805D02*
X-12518Y02667D01*
X-12518Y02667D02*
X-13103Y02784D01*
X-13103Y02784D02*
X-13304Y03227D01*
X-13304Y03227D02*
X-13221Y03813D01*
X-13221Y03813D02*
X-12741Y04312D01*
G54D63*
X-09295Y03500D02*
X-10000Y03500D01*
G54D64*
X00548Y06731D02*
X-00056Y06316D01*
X-00056Y06316D02*
X-02061Y05286D01*
X-02196Y05160D02*
X-02297Y04966D01*
X-02478Y04119D02*
X-03348Y02300D01*
X-03348Y02300D02*
X-04188Y02048D01*
X-04188Y02048D02*
X-06782Y02163D01*
X-06782Y02163D02*
X-08965Y03015D01*
X-08965Y03015D02*
X-09295Y03500D01*
X-02297Y04966D02*
X-02478Y04119D01*
X-02061Y05286D02*
X-02196Y05160D01*
G54D63*
X-09295Y05500D02*
X-10000Y05500D01*
G54D64*
X01060Y06731D02*
X00983Y06379D01*
X00983Y06379D02*
X00518Y06129D01*
X00518Y06129D02*
X-01863Y05129D01*
X-01863Y05129D02*
X-02142Y04719D01*
X-02142Y04719D02*
X-02287Y04020D01*
X-02287Y04020D02*
X-03189Y02128D01*
X-03189Y02128D02*
X-04194Y01832D01*
X-04194Y01832D02*
X-06827Y01952D01*
X-06827Y01952D02*
X-10181Y02701D01*
X-10181Y02701D02*
X-10539Y03165D01*
X-10539Y03165D02*
X-10558Y03859D01*
X-10558Y03859D02*
X-10366Y04948D01*
X-10366Y04948D02*
X-10000Y05500D01*
G54D63*
X-09295Y07500D02*
X-10000Y07500D01*
G54D64*
X-10000Y07500D02*
X-10663Y06008D01*
X-10663Y06008D02*
X-10764Y03864D01*
X-10764Y03864D02*
X-10752Y03055D01*
X-10752Y03055D02*
X-10302Y02503D01*
X-10302Y02503D02*
X-06864Y01741D01*
X-06864Y01741D02*
X-04190Y01616D01*
X-04190Y01616D02*
X-03037Y01955D01*
X-03037Y01955D02*
X-02093Y03942D01*
X-02093Y03942D02*
X-01953Y04637D01*
X-01953Y04637D02*
X-01736Y04957D01*
X-01736Y04957D02*
X00683Y05974D01*
X00683Y05974D02*
X01463Y06317D01*
X01463Y06317D02*
X01540Y06455D01*
X01540Y06455D02*
X01572Y06731D01*
G54D63*
X-09295Y09500D02*
X-10000Y09500D01*
G54D64*
X-10000Y09500D02*
X-10542Y08381D01*
X-10542Y08381D02*
X-10862Y06117D01*
X-10862Y06117D02*
X-10967Y04019D01*
X-10967Y04019D02*
X-10982Y02989D01*
X-10982Y02989D02*
X-10434Y02320D01*
X-10434Y02320D02*
X-06941Y01539D01*
X-06941Y01539D02*
X-04167Y01398D01*
X-04167Y01398D02*
X-02892Y01779D01*
X-02892Y01779D02*
X-01892Y03872D01*
X-01892Y03872D02*
X-01762Y04558D01*
X-01762Y04558D02*
X-01607Y04788D01*
X-01607Y04788D02*
X00794Y05795D01*
X00794Y05795D02*
X01873Y06236D01*
X01873Y06236D02*
X02028Y06394D01*
X02028Y06394D02*
X02084Y06731D01*
G54D63*
X-06400Y04500D02*
X-05695Y04500D01*
G54D64*
X-02496Y06731D02*
X-02533Y06283D01*
X-02533Y06283D02*
X-03009Y05661D01*
X-03009Y05661D02*
X-03121Y04660D01*
X-03121Y04660D02*
X-03808Y03003D01*
X-03808Y03003D02*
X-04158Y02860D01*
X-04158Y02860D02*
X-06264Y02862D01*
X-06264Y02862D02*
X-06825Y03213D01*
X-06825Y03213D02*
X-06833Y04125D01*
X-06833Y04125D02*
X-06400Y04500D01*
G54D63*
X-06400Y06500D02*
X-05695Y06500D01*
G54D64*
X-01984Y06731D02*
X-02006Y06292D01*
X-02006Y06292D02*
X-02820Y05536D01*
X-02820Y05536D02*
X-02940Y04451D01*
X-02940Y04451D02*
X-03657Y02840D01*
X-03657Y02840D02*
X-03724Y02780D01*
X-03724Y02780D02*
X-04193Y02638D01*
X-04193Y02638D02*
X-06407Y02661D01*
X-06407Y02661D02*
X-07043Y03100D01*
X-07043Y03100D02*
X-07037Y05463D01*
X-07037Y05463D02*
X-06805Y06078D01*
X-06805Y06078D02*
X-06400Y06500D01*
G54D63*
X-06400Y08500D02*
X-05695Y08500D01*
G54D64*
X-01472Y06731D02*
X-01556Y06263D01*
X-01556Y06263D02*
X-02595Y05428D01*
X-02595Y05428D02*
X-02748Y04367D01*
X-02748Y04367D02*
X-03541Y02606D01*
X-03541Y02606D02*
X-04160Y02420D01*
X-04160Y02420D02*
X-06523Y02460D01*
X-06523Y02460D02*
X-07260Y02996D01*
X-07260Y02996D02*
X-07239Y05755D01*
X-07239Y05755D02*
X-06954Y07997D01*
X-06954Y07997D02*
X-06400Y08500D01*
G54D63*
X-06400Y10500D02*
X-05695Y10500D01*
G54D64*
X-00960Y06731D02*
X-01076Y06219D01*
X-01076Y06219D02*
X-02417Y05249D01*
X-02417Y05249D02*
X-02568Y04200D01*
X-02568Y04200D02*
X-03420Y02384D01*
X-03420Y02384D02*
X-04182Y02184D01*
X-04182Y02184D02*
X-06680Y02259D01*
X-06680Y02259D02*
X-07480Y02913D01*
X-07480Y02913D02*
X-07438Y05971D01*
X-07438Y05971D02*
X-06949Y09869D01*
X-06949Y09869D02*
X-06400Y10500D01*
X09018Y22784D02*
X09009Y22997D01*
X09009Y22997D02*
X08888Y23033D01*
X08888Y23033D02*
X08505Y23013D01*
X08505Y23013D02*
X08009Y22848D01*
X08009Y22848D02*
X07818Y22593D01*
X07835Y22616D02*
X07601Y22376D01*
X07601Y22376D02*
X07609Y21787D01*
X07609Y21787D02*
X07843Y21105D01*
X07843Y21105D02*
X07843Y19298D01*
X07843Y19298D02*
X08150Y18987D01*
X08150Y18987D02*
X08320Y18993D01*
G54D61*
X08415Y19693D02*
X08320Y18993D01*
X08320Y18993D02*
X08100Y18200D01*
G54D63*
X09218Y23293D02*
X09027Y23293D01*
G54D65*
X08400Y26500D02*
X08234Y24793D01*
G54D61*
X08234Y24793D02*
X08803Y23655D01*
X08803Y23655D02*
X08810Y23293D01*
G54D63*
X09412Y21602D02*
X09410Y21437D01*
X09018Y21602D02*
X09015Y21441D01*
X08934Y21280D02*
X09015Y21441D01*
X09506Y21266D02*
X09410Y21437D01*
X09218Y23293D02*
X09215Y22784D01*
X09027Y23293D02*
X08810Y23293D01*
G54D64*
X-00418Y17192D02*
X-00874Y17779D01*
X-00874Y17779D02*
X-01525Y18202D01*
X-01525Y18202D02*
X-02881Y18514D01*
X-02881Y18514D02*
X-03771Y18494D01*
X-03771Y18494D02*
X-04779Y18414D01*
X-04779Y18414D02*
X-04908Y18326D01*
X-04908Y18326D02*
X-04916Y17591D01*
X-04916Y17591D02*
X-04852Y17511D01*
X-04852Y17511D02*
X-04588Y17426D01*
X-06195Y15645D02*
X-06199Y15927D01*
X-06199Y15927D02*
X-06113Y16085D01*
X-06113Y16085D02*
X-06100Y16303D01*
X-05802Y15645D02*
X-05787Y15863D01*
X-05787Y15863D02*
X-05714Y15972D01*
X-05299Y16105D02*
X-05605Y16053D01*
X-05300Y16303D02*
X-05299Y16105D01*
X-05714Y15972D02*
X-05605Y16053D01*
X-07403Y15300D02*
X-07135Y15187D01*
X-07135Y15187D02*
X-06845Y15192D01*
X-07403Y15300D02*
X-07567Y15451D01*
X-07567Y15451D02*
X-07714Y15504D01*
X-07714Y15504D02*
X-08000Y15504D01*
X-08000Y15504D02*
X-08774Y15513D01*
X-08774Y15513D02*
X-09687Y16550D01*
X-09687Y16550D02*
X-10663Y16684D01*
X-10663Y16684D02*
X-11042Y16570D01*
X-11042Y16570D02*
X-12103Y15832D01*
X-12103Y15832D02*
X-13785Y15812D01*
X-13785Y15812D02*
X-14649Y16109D01*
X-01993Y12152D02*
X-02196Y12142D01*
X-01993Y16877D02*
X-02606Y17063D01*
X-02606Y17063D02*
X-03230Y17121D01*
X-03230Y17121D02*
X-03446Y17425D01*
X-03446Y17425D02*
X-03397Y17900D01*
X-07786Y17762D02*
X-05612Y17426D01*
X-07786Y17762D02*
X-09404Y18464D01*
X-10534Y21359D02*
X-10893Y22413D01*
X-10893Y22413D02*
X-11406Y22963D01*
X-09404Y18464D02*
X-10026Y19465D01*
X-10026Y19465D02*
X-10534Y21359D01*
X03900Y20797D02*
X03900Y21600D01*
X22797Y05200D02*
X22984Y05391D01*
X22984Y05391D02*
X23018Y06102D01*
X23018Y06102D02*
X22993Y07784D01*
X22993Y07784D02*
X22976Y08294D01*
X22976Y08294D02*
X22742Y08712D01*
X22742Y08712D02*
X22395Y08900D01*
G54D61*
X22300Y08200D02*
X22395Y08900D01*
X22395Y08900D02*
X22926Y08620D01*
X22926Y08620D02*
X23060Y08286D01*
X23060Y08286D02*
X23600Y08300D01*
G54D64*
X21697Y05209D02*
X21713Y04995D01*
X21713Y04995D02*
X21776Y04939D01*
X21776Y04939D02*
X21870Y04907D01*
X21870Y04907D02*
X22166Y04904D01*
X22166Y04904D02*
X22491Y04937D01*
X22491Y04937D02*
X22666Y05016D01*
X22666Y05016D02*
X22797Y05200D01*
X11505Y17500D02*
X11097Y17500D01*
X14131Y16172D02*
X13710Y16172D01*
X13710Y16172D02*
X13292Y16591D01*
X13292Y16591D02*
X13082Y16800D01*
X13082Y16800D02*
X12800Y16800D01*
X12800Y16800D02*
X12095Y16500D01*
X14131Y15660D02*
X13460Y15660D01*
X13460Y15660D02*
X12800Y15000D01*
X12800Y15000D02*
X12095Y14700D01*
X25532Y12443D02*
X25250Y12397D01*
X25532Y12443D02*
X25703Y12300D01*
X21448Y13183D02*
X21285Y13029D01*
X22393Y12868D02*
X22233Y12698D01*
X22233Y12698D02*
X22232Y12600D01*
X22232Y12600D02*
X22239Y12499D01*
X22239Y12499D02*
X22162Y12378D01*
X22162Y12378D02*
X22197Y11900D01*
X22393Y12553D02*
X22565Y12399D01*
X22565Y12399D02*
X22603Y11900D01*
X14131Y14096D02*
X13649Y14080D01*
X13649Y14080D02*
X13131Y13478D01*
X12737Y13077D02*
X13131Y13478D01*
X12737Y13077D02*
X12035Y13083D01*
X12035Y13083D02*
X11784Y12800D01*
X11784Y12800D02*
X11658Y12340D01*
X11658Y12340D02*
X11650Y09964D01*
X11650Y09964D02*
X12300Y09500D01*
X12279Y09515D02*
X13200Y09503D01*
X11505Y14700D02*
X11097Y14700D01*
X11505Y15600D02*
X11097Y15600D01*
X14131Y15916D02*
X12816Y15916D01*
X12816Y15916D02*
X12800Y15900D01*
X12816Y15916D02*
X12095Y15600D01*
X11505Y16500D02*
X11097Y16500D01*
X14131Y16428D02*
X13796Y16428D01*
X13796Y16428D02*
X13543Y16681D01*
X13543Y16681D02*
X13522Y16701D01*
X13522Y16701D02*
X13522Y17354D01*
X13522Y17354D02*
X13176Y17700D01*
X13176Y17700D02*
X12800Y17700D01*
X12800Y17700D02*
X12095Y17500D01*
X10703Y17500D02*
X10703Y16500D01*
X10703Y16500D02*
X10703Y15600D01*
X10703Y15600D02*
X10703Y14700D01*
X10703Y14700D02*
X10708Y14368D01*
X21442Y12358D02*
X21448Y12553D01*
X21448Y16647D02*
X21444Y16819D01*
X12300Y10500D02*
X13343Y11390D01*
X13343Y11390D02*
X14427Y11386D01*
X14427Y11386D02*
X15824Y13076D01*
X15824Y13076D02*
X16469Y13072D01*
X22403Y05600D02*
X22403Y05200D01*
X21894Y05209D02*
X22403Y05200D01*
G54D63*
X21106Y06391D02*
X21108Y06679D01*
X21108Y06679D02*
X20700Y07000D01*
G54D64*
X14500Y08600D02*
X13200Y08697D01*
G54D63*
X21894Y06391D02*
X21899Y06691D01*
X21899Y06691D02*
X22300Y07000D01*
G54D61*
X20605Y08900D02*
X20700Y08200D01*
G54D64*
X20103Y05200D02*
X20103Y05600D01*
X20103Y05600D02*
X20299Y05796D01*
X20299Y05796D02*
X20309Y06159D01*
X20309Y06159D02*
X20311Y06339D01*
X20311Y06339D02*
X20154Y06595D01*
X20154Y06595D02*
X20071Y07069D01*
X20071Y07069D02*
X20098Y08579D01*
X20098Y08579D02*
X20308Y08829D01*
X20308Y08829D02*
X20605Y08900D01*
G54D61*
X20605Y08900D02*
X20642Y09122D01*
X20642Y09122D02*
X20968Y09298D01*
X20968Y09298D02*
X22583Y09306D01*
X22583Y09306D02*
X23600Y09200D01*
G54D64*
X12300Y11500D02*
X11834Y11972D01*
X11834Y11972D02*
X11868Y12633D01*
X11868Y12633D02*
X11982Y12827D01*
X11982Y12827D02*
X12159Y12944D01*
X12829Y12944D02*
X12159Y12944D01*
X12829Y12944D02*
X13650Y13846D01*
X13650Y13846D02*
X14131Y13840D01*
X22388Y12341D02*
X22389Y11760D01*
X22389Y11760D02*
X22314Y11700D01*
X22314Y11700D02*
X21165Y11711D01*
X21165Y11711D02*
X20601Y11812D01*
X20601Y11812D02*
X19855Y11992D01*
X19600Y12278D02*
X19111Y13210D01*
X19111Y13210D02*
X18252Y13791D01*
X18252Y13791D02*
X17167Y14094D01*
X17167Y14094D02*
X16469Y14096D01*
X16469Y14096D02*
X14979Y14113D01*
X14979Y14113D02*
X14570Y14356D01*
X14570Y14356D02*
X14131Y14352D01*
X14131Y14352D02*
X13633Y14348D01*
X13633Y14348D02*
X12300Y13500D01*
X19855Y11992D02*
X19600Y12278D01*
X19741Y15331D02*
X20027Y15563D01*
X20027Y15563D02*
X20503Y15703D01*
X19741Y15331D02*
X19697Y14900D01*
X20503Y15703D02*
X20663Y15854D01*
X19303Y16500D02*
X19254Y16025D01*
X19254Y16025D02*
X19470Y15777D01*
X19470Y15777D02*
X19781Y15717D01*
X19781Y15717D02*
X20023Y15757D01*
X20023Y15757D02*
X20503Y16018D01*
X14131Y13584D02*
X13658Y13570D01*
X13658Y13570D02*
X12863Y12725D01*
X12863Y12725D02*
X12300Y12500D01*
G54D63*
X26900Y16603D02*
X26688Y16648D01*
X26903Y17300D02*
X26511Y17233D01*
X26511Y17233D02*
X26413Y17119D01*
X26413Y17119D02*
X26537Y16877D01*
X26537Y16877D02*
X26699Y16648D01*
X26413Y17119D02*
X26091Y16984D01*
X26091Y16984D02*
X26091Y16566D01*
X25603Y16150D02*
X25437Y16160D01*
X26091Y16566D02*
X25768Y16364D01*
X25768Y16364D02*
X25626Y16277D01*
X25626Y16277D02*
X25437Y16160D01*
G54D64*
X26394Y16746D02*
X26450Y16547D01*
G54D63*
X26360Y16597D02*
X26394Y16746D01*
G54D64*
X26703Y16200D02*
X26666Y15902D01*
X21106Y05209D02*
X20497Y05200D01*
X20497Y05200D02*
X20497Y05600D01*
X20497Y05554D02*
X20497Y06000D01*
X21303Y06391D02*
X21305Y06728D01*
X21697Y06391D02*
X21707Y06732D01*
G54D63*
X21500Y05209D02*
X21500Y04797D01*
X20995Y04600D02*
X21247Y04694D01*
X21500Y04797D02*
X21247Y04694D01*
X21500Y04797D02*
X21751Y04704D01*
X22005Y04600D02*
X21751Y04704D01*
G54D61*
X20995Y04600D02*
X21247Y04694D01*
X22005Y04600D02*
X21751Y04704D01*
G54D64*
X23208Y25952D02*
X23260Y26146D01*
X23260Y26146D02*
X23400Y26403D01*
X22814Y25952D02*
X22784Y26146D01*
X22784Y26146D02*
X22600Y26403D01*
X23011Y25952D02*
X23000Y26403D01*
X21700Y26089D02*
X21712Y25764D01*
X21712Y25764D02*
X21837Y25626D01*
X21837Y25626D02*
X22206Y25495D01*
X22206Y25495D02*
X22548Y25489D01*
X04650Y02137D02*
X04649Y02484D01*
X04649Y02484D02*
X04508Y02605D01*
X04508Y02605D02*
X04089Y02605D01*
X04089Y02605D02*
X03915Y02456D01*
X03915Y02456D02*
X03915Y00427D01*
X03915Y00427D02*
X03700Y-00500D01*
X00600Y01103D02*
X01700Y-00500D01*
X-00400Y01103D02*
X-00300Y-00500D01*
X01100Y01103D02*
X02700Y-00500D01*
X00100Y01103D02*
X00700Y-00500D01*
X04150Y02137D02*
X04319Y00830D01*
X04319Y00830D02*
X04700Y-00500D01*
X01150Y02137D02*
X01100Y01497D01*
X00650Y02137D02*
X00600Y01497D01*
X00150Y02137D02*
X00100Y01497D01*
X-00350Y02137D02*
X-00400Y01497D01*
G54D63*
X23797Y22291D02*
X23426Y22244D01*
X24174Y22244D02*
X24600Y22303D01*
X23797Y22291D02*
X24174Y22244D01*
X21997Y22700D02*
X22387Y22871D01*
X22387Y22871D02*
X23155Y22949D01*
X23155Y22949D02*
X23654Y22955D01*
X23654Y22955D02*
X23799Y22809D01*
X23799Y22809D02*
X23797Y22291D01*
G54D64*
X21504Y24710D02*
X21497Y25018D01*
X21497Y25018D02*
X21332Y25189D01*
X21332Y25189D02*
X20900Y25203D01*
G54D62*
X-27401Y-01225D02*
X-27401Y-01533D01*
G54D64*
X-27401Y00070D02*
X-28226Y00514D01*
X-28226Y00514D02*
X-29462Y00680D01*
X-29462Y00680D02*
X-30633Y00743D01*
X-30598Y00741D02*
X-31535Y00895D01*
X-31535Y00895D02*
X-31826Y01140D01*
X-31826Y01140D02*
X-31951Y01318D01*
X-31951Y01318D02*
X-32108Y01767D01*
X-32108Y01767D02*
X-32248Y02681D01*
X-32248Y02681D02*
X-32189Y03629D01*
X-32189Y03629D02*
X-31956Y04098D01*
X-31956Y04098D02*
X-31875Y04172D01*
X-31875Y04172D02*
X-31348Y04335D01*
X-31348Y04335D02*
X-29687Y04468D01*
X-29687Y04468D02*
X-29567Y04582D01*
X-29567Y04582D02*
X-29529Y05101D01*
G54D62*
X-27401Y00070D02*
X-27401Y-00635D01*
X-26401Y-01225D02*
X-26401Y-01533D01*
X-25401Y-01225D02*
X-25401Y-01533D01*
G54D64*
X-25401Y00070D02*
X-25950Y00482D01*
X-25950Y00482D02*
X-26845Y00598D01*
X-26845Y00598D02*
X-27813Y00665D01*
X-27813Y00665D02*
X-28495Y00772D01*
X-28495Y00772D02*
X-29136Y00844D01*
X-29136Y00844D02*
X-29752Y00917D01*
X-29752Y00917D02*
X-30475Y00943D01*
X-30475Y00943D02*
X-31276Y01077D01*
X-31456Y01138D02*
X-31731Y01373D01*
X-31276Y01077D02*
X-31456Y01138D01*
X-31731Y01373D02*
X-31901Y01787D01*
X-31901Y01787D02*
X-32035Y02621D01*
X-32035Y02621D02*
X-31992Y03551D01*
X-31992Y03551D02*
X-31798Y03962D01*
X-31798Y03962D02*
X-31358Y04122D01*
X-31358Y04122D02*
X-29802Y04252D01*
X-29802Y04252D02*
X-29329Y04308D01*
X-29329Y04308D02*
X-29092Y04476D01*
X-29092Y04476D02*
X-29039Y04747D01*
X-29039Y04747D02*
X-29017Y05101D01*
G54D62*
X-25401Y00070D02*
X-25401Y-00635D01*
X-24401Y-01225D02*
X-24401Y-01533D01*
G54D64*
X-30803Y11300D02*
X-30966Y11072D01*
X-30966Y11072D02*
X-31169Y10938D01*
X-31169Y10938D02*
X-31374Y10856D01*
X-31152Y13097D02*
X-30697Y13100D01*
X-27838Y12558D02*
X-27800Y12297D01*
X-27302Y13683D02*
X-27464Y13527D01*
X-27303Y13023D02*
X-27300Y12297D01*
G54D62*
X-31401Y-01225D02*
X-31401Y-01533D01*
G54D64*
X-31401Y00070D02*
X-31926Y00468D01*
X-31926Y00468D02*
X-32439Y01256D01*
X-32439Y01256D02*
X-32548Y01800D01*
X-32548Y01800D02*
X-32667Y02768D01*
X-32667Y02768D02*
X-32576Y03862D01*
X-32576Y03862D02*
X-32239Y04418D01*
X-32239Y04418D02*
X-31985Y04627D01*
X-31985Y04627D02*
X-31029Y04921D01*
X-31029Y04921D02*
X-30553Y05101D01*
G54D62*
X-31401Y00070D02*
X-31401Y-00635D01*
X-30401Y-01225D02*
X-30401Y-01533D01*
X-29401Y-01225D02*
X-29401Y-01533D01*
G54D64*
X-29401Y00070D02*
X-30332Y00502D01*
X-30332Y00502D02*
X-31452Y00638D01*
X-31452Y00638D02*
X-31912Y00828D01*
X-31912Y00828D02*
X-32180Y01236D01*
X-32180Y01236D02*
X-32334Y01796D01*
X-32334Y01796D02*
X-32459Y02735D01*
X-32459Y02735D02*
X-32383Y03747D01*
X-32383Y03747D02*
X-32109Y04238D01*
X-32109Y04238D02*
X-31962Y04381D01*
X-31962Y04381D02*
X-31270Y04565D01*
X-31270Y04565D02*
X-30193Y04632D01*
X-30193Y04632D02*
X-30060Y04713D01*
X-30060Y04713D02*
X-30041Y05101D01*
G54D62*
X-29401Y00070D02*
X-29401Y-00635D01*
X-28401Y-01225D02*
X-28401Y-01533D01*
G54D63*
X-30518Y16459D02*
X-30595Y16100D01*
X-30518Y16459D02*
X-30523Y16938D01*
X-30523Y16938D02*
X-30683Y17315D01*
X-30683Y17315D02*
X-30774Y17712D01*
X-30026Y16688D02*
X-30005Y16100D01*
X-30026Y17712D02*
X-30105Y18300D01*
X-30096Y18230D02*
X-30100Y18703D01*
X-30456Y14874D02*
X-30900Y14897D01*
X-30400Y17700D02*
X-30368Y17093D01*
X-30368Y17093D02*
X-30305Y16236D01*
X-30305Y16236D02*
X-30232Y15805D01*
X-30232Y15805D02*
X-30218Y15490D01*
X-30456Y14874D02*
X-30500Y15203D01*
X-30500Y15203D02*
X-30268Y15254D01*
X-30268Y15254D02*
X-30210Y15370D01*
X-30210Y15370D02*
X-30218Y15490D01*
X-31944Y14926D02*
X-31500Y14903D01*
X-31500Y14903D02*
X-31387Y14480D01*
X-31387Y14480D02*
X-31193Y13764D01*
X-31193Y13764D02*
X-31169Y13536D01*
X-31169Y13536D02*
X-31152Y13294D01*
X-31152Y13294D02*
X-32302Y13294D01*
X-32302Y13294D02*
X-32648Y13294D01*
X-32294Y13648D02*
X-32302Y13294D01*
X-32648Y12900D02*
X-32871Y12891D01*
X-32871Y12891D02*
X-33200Y12797D01*
G54D64*
X-26000Y12297D02*
X-26042Y13053D01*
X-26400Y12297D02*
X-26206Y12952D01*
X-26206Y12952D02*
X-26196Y13175D01*
X-26042Y13683D02*
X-26201Y13538D01*
X-26196Y13175D02*
X-26198Y13367D01*
X-26198Y13367D02*
X-26201Y13538D01*
X-25600Y12297D02*
X-25731Y12665D01*
X-25731Y12665D02*
X-25727Y13053D01*
G54D63*
X-31944Y15674D02*
X-31903Y16100D01*
X-32456Y15674D02*
X-32447Y15487D01*
X-32447Y15487D02*
X-32364Y15410D01*
X-32364Y15410D02*
X-32035Y15412D01*
X-32035Y15412D02*
X-31943Y15502D01*
X-31943Y15502D02*
X-31944Y15674D01*
X-31903Y16100D02*
X-31754Y16343D01*
X-31754Y16343D02*
X-31500Y16397D01*
G54D62*
X-24401Y02275D02*
X-24402Y02075D01*
G54D64*
X-24401Y03570D02*
X-25251Y04289D01*
X-25251Y04289D02*
X-25530Y04608D01*
X-25530Y04608D02*
X-25560Y05031D01*
G54D62*
X-24401Y02865D02*
X-24401Y03570D01*
G54D64*
X-23252Y10397D02*
X-23047Y10417D01*
X-23047Y10417D02*
X-22801Y10473D01*
X-23252Y09806D02*
X-23030Y09792D01*
X-23030Y09792D02*
X-22798Y09670D01*
X-24001Y09422D02*
X-23977Y09201D01*
X-23977Y09201D02*
X-23817Y09012D01*
X-23817Y09012D02*
X-23804Y08870D01*
X-23804Y08870D02*
X-23801Y08467D01*
X-30851Y26517D02*
X-31251Y26517D01*
X-31251Y26517D02*
X-31251Y26823D01*
X-31957Y27111D02*
X-31646Y27099D01*
X-31646Y27099D02*
X-31251Y26823D01*
X-32548Y25929D02*
X-32554Y26138D01*
X-32498Y26198D02*
X-32554Y26138D01*
X-32498Y26198D02*
X-32216Y26197D01*
X-32216Y26197D02*
X-32157Y26138D01*
X-32157Y26138D02*
X-32154Y25929D01*
X-32154Y25929D02*
X-32153Y25722D01*
X-32056Y25577D02*
X-32153Y25722D01*
G54D63*
X-32351Y27111D02*
X-32351Y27356D01*
X-32351Y27356D02*
X-32300Y27603D01*
X-32300Y27603D02*
X-32518Y27600D01*
G54D62*
X-32800Y27605D02*
X-33109Y27761D01*
X-33109Y27761D02*
X-33381Y27956D01*
X-33381Y27956D02*
X-33820Y27949D01*
X-33820Y27949D02*
X-34900Y27581D01*
G54D61*
X-36900Y24450D02*
X-35860Y26810D01*
X-35860Y26810D02*
X-35609Y27111D01*
X-35609Y27111D02*
X-34900Y27581D01*
G54D63*
X-32518Y27600D02*
X-32800Y27605D01*
G54D61*
X-40400Y24700D02*
X-38900Y24450D01*
X-38900Y24450D02*
X-38900Y23400D01*
X-33051Y23920D02*
X-33146Y23220D01*
G54D64*
X-33451Y26323D02*
X-33597Y25594D01*
X-33597Y25594D02*
X-33592Y23856D01*
X-33592Y23856D02*
X-33539Y23497D01*
X-33539Y23497D02*
X-33384Y23265D01*
X-33384Y23265D02*
X-33146Y23220D01*
G54D61*
X-33146Y23220D02*
X-34300Y23200D01*
G54D64*
X-32548Y27111D02*
X-32564Y27328D01*
X-32564Y27328D02*
X-32660Y27380D01*
X-32660Y27380D02*
X-32923Y27377D01*
X-33187Y27219D02*
X-32923Y27377D01*
X-33187Y27219D02*
X-33618Y27212D01*
X-33618Y27212D02*
X-33693Y27142D01*
X-33693Y27142D02*
X-33693Y26533D01*
X-33693Y26533D02*
X-33451Y26323D01*
X-24604Y08070D02*
X-24598Y08470D01*
X-24598Y08439D02*
X-24604Y08870D01*
X-24604Y08870D02*
X-24585Y09149D01*
X-24585Y09149D02*
X-24492Y09286D01*
X-24492Y09286D02*
X-24395Y09422D01*
X-23801Y08073D02*
X-23801Y07767D01*
X-24394Y10948D02*
X-24400Y11303D01*
X-24198Y09422D02*
X-24197Y09105D01*
X-24197Y09105D02*
X-24198Y08870D01*
X-24198Y08870D02*
X-24204Y08470D01*
G54D62*
X-30401Y02275D02*
X-30401Y01967D01*
G54D64*
X-30401Y03570D02*
X-29459Y03980D01*
X-29459Y03980D02*
X-28372Y04098D01*
X-28372Y04098D02*
X-27438Y04258D01*
X-27438Y04258D02*
X-27134Y04574D01*
X-27134Y04574D02*
X-27096Y05031D01*
G54D62*
X-30401Y02865D02*
X-30401Y03570D01*
X-31401Y02275D02*
X-31401Y01967D01*
X-28401Y02275D02*
X-28401Y01967D01*
G54D64*
X-28401Y03570D02*
X-27459Y03986D01*
X-27459Y03986D02*
X-26805Y04302D01*
X-26805Y04302D02*
X-26582Y04603D01*
X-26582Y04603D02*
X-26584Y05031D01*
G54D62*
X-28401Y02865D02*
X-28401Y03570D01*
X-29401Y02275D02*
X-29401Y01967D01*
G54D64*
X-28566Y10596D02*
X-28603Y10100D01*
X-28603Y10100D02*
X-28063Y10050D01*
G54D62*
X-25401Y02275D02*
X-25401Y01967D01*
X-26401Y02275D02*
X-26401Y01967D01*
G54D64*
X-26401Y03570D02*
X-26134Y04144D01*
X-26134Y04144D02*
X-26065Y04620D01*
X-26065Y04620D02*
X-26072Y05031D01*
G54D62*
X-26401Y02865D02*
X-26401Y03570D01*
X-27401Y02275D02*
X-27401Y01967D01*
G54D64*
X-23498Y08870D02*
X-23528Y09117D01*
X-23528Y09117D02*
X-23565Y09262D01*
X-24748Y10397D02*
X-24983Y10437D01*
X-25200Y10497D02*
X-24983Y10437D01*
X-23565Y09262D02*
X-23607Y09422D01*
X-23252Y10200D02*
X-23047Y10188D01*
X-23047Y10188D02*
X-22798Y10070D01*
X-23300Y11303D02*
X-22900Y11303D01*
X-22982Y11303D02*
X-22500Y11303D01*
X-23300Y11303D02*
X-23333Y11036D01*
X-23333Y11036D02*
X-23433Y10702D01*
X-23433Y10702D02*
X-23542Y10306D01*
X-23542Y10306D02*
X-23466Y10209D01*
X-23466Y10209D02*
X-23252Y10200D01*
X-24748Y10397D02*
X-24164Y10399D01*
X-24164Y10399D02*
X-23542Y10306D01*
X-23607Y09422D02*
X-23607Y09644D01*
X-23607Y09644D02*
X-23680Y09991D01*
X-23680Y09991D02*
X-23619Y10189D01*
X-23619Y10189D02*
X-23542Y10306D01*
X-23801Y07373D02*
X-24104Y07370D01*
X-23800Y07403D02*
X-23271Y07200D01*
X-27302Y17147D02*
X-27200Y17903D01*
G54D63*
X-32745Y25929D02*
X-32787Y25615D01*
X-32787Y25615D02*
X-33051Y25120D01*
G54D61*
X-31651Y23920D02*
X-31556Y23220D01*
G54D64*
X-31556Y23220D02*
X-31317Y23212D01*
X-31317Y23212D02*
X-31094Y23483D01*
X-31094Y23483D02*
X-31094Y25632D01*
X-31094Y25632D02*
X-31251Y26123D01*
X-30851Y26123D02*
X-31251Y26123D01*
G54D61*
X-31556Y23220D02*
X-31400Y22500D01*
G54D64*
X-33451Y26717D02*
X-33451Y27023D01*
X-33451Y26988D02*
X-32745Y27111D01*
G54D63*
X-31957Y25929D02*
X-31867Y25722D01*
X-31867Y25722D02*
X-31651Y25120D01*
G54D64*
X-21000Y14500D02*
X-21608Y14022D01*
X-21608Y14022D02*
X-22025Y13935D01*
X-22025Y13935D02*
X-22514Y13872D01*
X-22514Y13872D02*
X-22800Y13597D01*
X-27803Y19400D02*
X-27752Y18904D01*
X-27755Y18935D02*
X-24731Y18977D01*
X-24731Y18977D02*
X-24504Y18797D01*
X-24504Y18797D02*
X-24504Y18331D01*
X-24245Y19507D02*
X-24248Y20669D01*
X-27803Y19400D02*
X-26902Y20579D01*
X-26902Y20579D02*
X-26784Y21109D01*
X-26784Y21109D02*
X-26400Y21800D01*
X-24245Y19507D02*
X-23872Y18805D01*
X-23872Y18805D02*
X-23768Y18414D01*
X-23768Y18414D02*
X-23695Y17953D01*
X-23695Y17953D02*
X-23727Y17665D01*
X-23727Y17665D02*
X-23804Y17611D01*
X-23804Y17611D02*
X-23946Y17611D01*
X-23946Y17611D02*
X-24141Y17631D01*
X-24141Y17631D02*
X-24342Y17810D01*
X-24342Y17810D02*
X-24487Y18042D01*
X-24487Y18042D02*
X-24504Y18331D01*
X-24504Y20669D02*
X-24448Y21012D01*
X-24448Y21012D02*
X-24079Y21290D01*
X-24079Y21290D02*
X-23145Y21304D01*
X-23145Y21304D02*
X-22400Y21800D01*
X-25016Y20669D02*
X-25041Y21081D01*
X-25041Y21081D02*
X-25400Y21800D01*
X-25528Y18331D02*
X-25518Y18001D01*
X-25518Y18001D02*
X-25625Y17900D01*
X-25625Y17900D02*
X-26627Y17895D01*
X-26627Y17895D02*
X-26816Y18195D01*
X-26816Y18195D02*
X-26859Y18664D01*
X-26859Y18664D02*
X-27004Y18727D01*
X-27004Y18727D02*
X-27361Y18740D01*
X-27361Y18740D02*
X-27582Y18630D01*
X-27582Y18630D02*
X-28345Y18637D01*
X-28345Y18637D02*
X-28460Y18760D01*
X-28460Y18760D02*
X-28457Y19382D01*
X-28457Y19382D02*
X-28334Y19604D01*
X-28334Y19604D02*
X-27725Y19896D01*
X-27725Y19896D02*
X-26986Y20670D01*
X-26986Y20670D02*
X-26867Y21660D01*
X-26867Y21660D02*
X-26819Y22155D01*
X-26819Y22155D02*
X-26491Y22399D01*
X-26491Y22399D02*
X-24037Y22378D01*
X-24037Y22378D02*
X-23400Y21800D01*
X-24760Y20669D02*
X-24720Y21207D01*
X-24720Y21207D02*
X-24400Y21800D01*
X-24748Y09806D02*
X-25024Y09796D01*
X-25024Y09796D02*
X-25205Y09719D01*
X-28908Y15876D02*
X-28955Y16145D01*
X-28247Y16203D02*
X-28955Y16145D01*
X-28908Y15876D02*
X-28904Y15670D01*
X-25205Y09719D02*
X-25367Y09498D01*
X-25367Y09498D02*
X-25373Y08910D01*
X-25373Y08910D02*
X-25490Y08703D01*
X-25490Y08703D02*
X-25866Y08504D01*
X-25866Y08504D02*
X-26824Y08510D01*
X-26824Y08510D02*
X-27573Y08441D01*
X-29447Y16795D02*
X-29298Y17270D01*
X-28247Y16518D02*
X-28971Y16472D01*
X-28971Y16472D02*
X-29326Y16508D01*
X-29326Y16508D02*
X-29447Y16795D01*
G54D63*
X-32648Y13097D02*
X-32898Y13099D01*
X-32297Y11000D02*
X-32516Y10953D01*
X-33200Y13205D02*
X-33206Y13406D01*
X-32898Y13099D02*
X-33200Y13205D01*
G54D62*
X-20400Y20013D02*
X-20400Y20800D01*
X-20903Y21200D02*
X-20400Y20800D01*
G54D64*
X-26831Y13522D02*
X-26672Y13368D01*
X-29103Y14400D02*
X-28680Y14380D01*
X-26674Y12856D02*
X-26672Y13053D01*
X-29103Y14000D02*
X-28687Y13990D01*
X-26993Y12848D02*
X-26987Y13053D01*
X-29103Y13600D02*
X-28670Y13634D01*
X-31401Y03570D02*
X-30526Y03966D01*
X-30526Y03966D02*
X-29431Y04091D01*
X-29431Y04091D02*
X-28051Y04258D01*
X-28051Y04258D02*
X-27480Y04481D01*
X-27480Y04481D02*
X-27360Y04701D01*
X-27360Y04701D02*
X-27352Y05031D01*
G54D62*
X-31401Y02865D02*
X-31401Y03570D01*
G54D64*
X-28476Y03973D02*
X-29401Y03570D01*
X-28476Y03973D02*
X-27403Y04161D01*
X-27403Y04161D02*
X-26994Y04382D01*
X-26994Y04382D02*
X-26843Y04568D01*
X-26843Y04568D02*
X-26840Y05031D01*
G54D62*
X-29401Y02865D02*
X-29401Y03570D01*
G54D64*
X-27401Y03570D02*
X-26483Y04231D01*
X-26483Y04231D02*
X-26332Y04608D01*
X-26332Y04608D02*
X-26328Y05031D01*
G54D62*
X-27401Y02865D02*
X-27401Y03570D01*
G54D64*
X-25401Y03570D02*
X-25734Y04405D01*
X-25734Y04405D02*
X-25816Y05031D01*
G54D62*
X-25401Y02865D02*
X-25401Y03570D01*
G54D64*
X-30401Y00070D02*
X-31332Y00478D01*
X-31332Y00478D02*
X-31980Y00736D01*
X-31980Y00736D02*
X-32312Y01251D01*
X-32312Y01251D02*
X-32439Y01803D01*
X-32439Y01803D02*
X-32565Y02761D01*
X-32565Y02761D02*
X-32479Y03817D01*
X-32479Y03817D02*
X-32179Y04323D01*
X-32179Y04323D02*
X-31973Y04506D01*
X-31973Y04506D02*
X-31221Y04679D01*
X-31221Y04679D02*
X-30362Y04723D01*
X-30362Y04723D02*
X-30302Y04795D01*
X-30302Y04795D02*
X-30297Y05101D01*
G54D62*
X-30401Y00070D02*
X-30401Y-00635D01*
G54D64*
X-28401Y00070D02*
X-29332Y00559D01*
X-29332Y00559D02*
X-30572Y00632D01*
X-30572Y00632D02*
X-31486Y00763D01*
X-31486Y00763D02*
X-31674Y00846D01*
X-31674Y00846D02*
X-31973Y01117D01*
X-31973Y01117D02*
X-32140Y01486D01*
X-32140Y01486D02*
X-32229Y01824D01*
X-32229Y01824D02*
X-32354Y02707D01*
X-32354Y02707D02*
X-32287Y03674D01*
X-32287Y03674D02*
X-32039Y04157D01*
X-32039Y04157D02*
X-31922Y04280D01*
X-31922Y04280D02*
X-31324Y04447D01*
X-31324Y04447D02*
X-29932Y04550D01*
X-29932Y04550D02*
X-29775Y04684D01*
X-29775Y04684D02*
X-29785Y05101D01*
G54D62*
X-28401Y00070D02*
X-28401Y-00635D01*
G54D64*
X-26401Y00070D02*
X-27272Y00478D01*
X-27272Y00478D02*
X-28437Y00658D01*
X-28437Y00658D02*
X-29331Y00765D01*
X-29331Y00765D02*
X-29742Y00815D01*
X-29742Y00815D02*
X-30436Y00833D01*
X-30400Y00832D02*
X-30942Y00900D01*
X-30942Y00900D02*
X-31416Y01005D01*
X-31566Y01063D02*
X-31832Y01329D01*
X-31416Y01005D02*
X-31566Y01063D01*
X-31832Y01329D02*
X-32002Y01771D01*
X-32002Y01771D02*
X-32141Y02647D01*
X-32141Y02647D02*
X-32091Y03592D01*
X-32091Y03592D02*
X-31874Y04037D01*
X-31874Y04037D02*
X-31727Y04112D01*
X-31727Y04112D02*
X-31332Y04235D01*
X-31332Y04235D02*
X-29730Y04362D01*
X-29730Y04362D02*
X-29475Y04392D01*
X-29475Y04392D02*
X-29276Y04577D01*
X-29276Y04577D02*
X-29273Y05101D01*
G54D62*
X-26401Y00070D02*
X-26401Y-00635D01*
G54D64*
X-24401Y00070D02*
X-25265Y00534D01*
X-25265Y00534D02*
X-26958Y00711D01*
X-26958Y00711D02*
X-28206Y00863D01*
X-28206Y00863D02*
X-29739Y01018D01*
X-29739Y01018D02*
X-30394Y01042D01*
X-30394Y01042D02*
X-31143Y01157D01*
X-31143Y01157D02*
X-31333Y01202D01*
X-31333Y01202D02*
X-31643Y01431D01*
X-31643Y01431D02*
X-31803Y01813D01*
X-31803Y01813D02*
X-31929Y02597D01*
X-31929Y02597D02*
X-31890Y03517D01*
X-31890Y03517D02*
X-31726Y03880D01*
X-31726Y03880D02*
X-31343Y04021D01*
X-31343Y04021D02*
X-29840Y04146D01*
X-29840Y04146D02*
X-29079Y04235D01*
X-29079Y04235D02*
X-28831Y04432D01*
X-28831Y04432D02*
X-28763Y04660D01*
X-28763Y04660D02*
X-28761Y05101D01*
G54D62*
X-24401Y00070D02*
X-24401Y-00635D01*
G54D63*
X-04937Y20650D02*
X-04937Y20150D01*
X-04937Y20150D02*
X-03100Y19119D01*
G54D64*
X-05800Y18997D02*
X-05300Y18997D01*
X-05300Y18997D02*
X-04937Y19650D01*
X-04200Y11797D02*
X-03792Y11789D01*
X-04626Y11856D02*
X-04200Y11797D01*
G54D63*
X-08600Y21381D02*
X-07373Y22121D01*
X-07373Y22121D02*
X-06600Y22197D01*
X-06600Y22197D02*
X-06327Y25584D01*
X-06327Y25584D02*
X-05372Y26804D01*
X-03100Y21481D02*
X-03823Y21964D01*
X-03823Y21964D02*
X-04852Y22185D01*
X-04852Y22185D02*
X-05500Y22197D01*
X-05500Y22197D02*
X-05372Y24639D01*
X-07063Y21150D02*
X-07063Y20650D01*
X-07888Y20245D02*
X-07063Y20650D01*
X-07888Y20245D02*
X-08593Y19844D01*
X-08593Y19844D02*
X-08600Y19019D01*
G54D64*
X-03596Y10410D02*
X-03591Y10692D01*
X-03591Y10692D02*
X-03562Y10958D01*
X-06270Y18284D02*
X-05800Y18603D01*
X-03792Y10410D02*
X-03799Y10784D01*
X-03799Y10784D02*
X-03896Y10963D01*
X-06300Y18603D02*
X-06682Y18298D01*
X-06800Y18997D02*
X-06300Y18997D01*
X-07063Y20150D02*
X-06675Y19964D01*
X-06675Y19964D02*
X-06598Y19846D01*
X-06598Y19846D02*
X-06633Y19344D01*
X-06633Y19344D02*
X-06800Y18997D01*
X25788Y15200D02*
X25250Y15197D01*
X26812Y15574D02*
X27348Y15589D01*
G54D63*
X27950Y12003D02*
X28426Y12044D01*
X27550Y12003D02*
X27950Y12003D01*
X28426Y12556D02*
X28564Y12508D01*
X28564Y12508D02*
X28657Y12403D01*
X28657Y12403D02*
X28653Y12113D01*
X28653Y12113D02*
X28571Y12050D01*
X28571Y12050D02*
X28426Y12044D01*
G54D64*
X27811Y16052D02*
X27793Y16285D01*
X27793Y16285D02*
X27700Y16503D01*
G54D63*
X25503Y13600D02*
X25500Y13197D01*
X25889Y13251D02*
X26669Y13251D01*
X26669Y13251D02*
X26674Y13256D01*
X25889Y13251D02*
X25554Y13251D01*
X25554Y13251D02*
X25500Y13197D01*
G54D64*
X27614Y16052D02*
X27594Y16241D01*
X27496Y16400D02*
X27594Y16241D01*
X27496Y16400D02*
X27259Y16646D01*
X28008Y16052D02*
X28020Y16275D01*
X28020Y16275D02*
X28100Y16503D01*
X-37504Y20570D02*
X-37323Y20746D01*
X-37323Y20746D02*
X-36951Y20742D01*
X-37504Y21170D02*
X-37323Y20994D01*
X-37323Y20994D02*
X-36951Y20998D01*
G54D63*
X-33705Y21200D02*
X-33803Y21700D01*
X-34197Y21700D02*
X-34601Y21573D01*
X-34601Y21573D02*
X-35001Y21573D01*
X-31789Y19863D02*
X-31806Y20504D01*
X-31806Y20504D02*
X-32572Y21352D01*
X-32572Y21352D02*
X-33416Y21884D01*
X-33416Y21884D02*
X-33730Y21961D01*
X-33730Y21961D02*
X-34099Y21933D01*
X-34099Y21933D02*
X-34197Y21700D01*
X-34697Y20300D02*
X-35236Y19770D01*
X-35172Y19833D02*
X-35866Y19770D01*
X-35251Y20742D02*
X-34700Y20703D01*
X-34700Y20703D02*
X-34297Y20700D01*
X-34297Y20700D02*
X-34303Y20300D01*
X-35251Y20998D02*
X-34885Y21009D01*
X-34885Y21009D02*
X-34700Y21097D01*
X-34752Y21072D02*
X-34295Y21200D01*
X-34295Y21200D02*
X-34011Y20959D01*
X-34011Y20959D02*
X-33903Y20700D01*
X-34601Y18873D02*
X-35001Y18873D01*
X-34197Y19000D02*
X-34389Y18940D01*
X-34389Y18940D02*
X-34601Y18873D01*
X-32813Y19863D02*
X-32818Y19496D01*
X-33705Y18500D02*
X-33803Y19000D01*
G54D64*
X-37323Y18294D02*
X-36951Y18298D01*
X-37504Y18470D02*
X-37323Y18294D01*
X-37323Y18046D02*
X-36951Y18042D01*
X-37504Y17870D02*
X-37323Y18046D01*
G54D63*
X-34297Y18000D02*
X-34303Y17600D01*
X-34700Y18003D02*
X-34297Y18000D01*
X-35251Y18042D02*
X-34700Y18003D01*
X-35172Y17133D02*
X-35866Y17070D01*
X-34697Y17600D02*
X-35236Y17070D01*
X-34011Y18259D02*
X-33903Y18000D01*
X-34295Y18500D02*
X-34011Y18259D01*
X-34752Y18372D02*
X-34295Y18500D01*
X-34885Y18309D02*
X-34700Y18397D01*
X-35251Y18298D02*
X-34885Y18309D01*
X-34601Y13473D02*
X-35001Y13473D01*
X-34398Y13546D02*
X-34197Y13600D01*
X-34398Y13546D02*
X-34601Y13473D01*
X-32813Y17678D02*
X-32825Y17310D01*
X-35172Y11733D02*
X-35866Y11670D01*
X-34697Y12200D02*
X-35236Y11670D01*
G54D64*
X-37323Y12646D02*
X-36951Y12642D01*
X-37504Y12470D02*
X-37323Y12646D01*
G54D63*
X-33705Y13100D02*
X-33803Y13600D01*
G54D64*
X-37323Y12894D02*
X-36951Y12898D01*
X-37504Y13070D02*
X-37323Y12894D01*
G54D63*
X-34297Y12600D02*
X-34303Y12200D01*
X-34700Y12603D02*
X-34297Y12600D01*
X-35251Y12642D02*
X-34700Y12603D01*
X-34011Y12859D02*
X-33903Y12600D01*
X-34295Y13100D02*
X-34011Y12859D01*
X-34752Y12972D02*
X-34295Y13100D01*
X-34885Y12909D02*
X-34700Y12997D01*
X-35251Y12898D02*
X-34885Y12909D01*
X-34601Y16173D02*
X-35001Y16173D01*
X-34197Y16300D02*
X-34601Y16173D01*
X-34197Y16300D02*
X-34078Y16545D01*
X-33520Y17562D02*
X-33214Y18099D01*
X-33214Y18099D02*
X-32652Y18274D01*
X-32652Y18274D02*
X-31884Y18201D01*
X-31884Y18201D02*
X-31778Y18029D01*
X-31778Y18029D02*
X-31789Y17678D01*
X-33723Y16865D02*
X-33520Y17562D01*
X-34078Y16545D02*
X-33723Y16865D01*
X-35172Y14433D02*
X-35866Y14370D01*
X-34697Y14900D02*
X-35236Y14370D01*
G54D64*
X-37323Y15346D02*
X-36951Y15342D01*
X-37504Y15170D02*
X-37323Y15346D01*
G54D63*
X-33705Y15800D02*
X-33803Y16300D01*
G54D64*
X-37323Y15594D02*
X-36951Y15598D01*
X-37504Y15770D02*
X-37323Y15594D01*
G54D63*
X-34297Y15300D02*
X-34303Y14900D01*
X-34700Y15303D02*
X-34297Y15300D01*
X-35251Y15342D02*
X-34700Y15303D01*
X-34011Y15559D02*
X-33903Y15300D01*
X-34295Y15800D02*
X-34011Y15559D01*
X-34752Y15672D02*
X-34295Y15800D01*
X-34885Y15609D02*
X-34700Y15697D01*
X-35251Y15598D02*
X-34885Y15609D01*
X-34601Y05373D02*
X-35001Y05373D01*
X-34197Y05500D02*
X-34601Y05373D01*
X-34197Y05500D02*
X-34034Y05720D01*
X-34034Y05720D02*
X-33738Y05802D01*
X-33738Y05802D02*
X-33488Y05697D01*
X-33488Y05697D02*
X-33337Y05552D01*
X-33337Y05552D02*
X-33139Y05366D01*
X-33139Y05366D02*
X-32994Y05337D01*
X-32994Y05337D02*
X-32837Y05441D01*
X-32837Y05441D02*
X-32812Y05807D01*
X-35172Y03633D02*
X-35866Y03570D01*
X-34697Y04100D02*
X-35236Y03570D01*
G54D64*
X-37323Y04546D02*
X-36951Y04542D01*
X-37504Y04370D02*
X-37323Y04546D01*
G54D63*
X-33705Y05000D02*
X-33803Y05500D01*
G54D64*
X-37323Y04794D02*
X-36951Y04798D01*
X-37504Y04970D02*
X-37323Y04794D01*
G54D63*
X-34297Y04500D02*
X-34303Y04100D01*
X-34700Y04503D02*
X-34297Y04500D01*
X-35251Y04542D02*
X-34700Y04503D01*
X-34011Y04759D02*
X-33903Y04500D01*
X-34295Y05000D02*
X-34011Y04759D01*
X-34752Y04872D02*
X-34295Y05000D01*
X-34885Y04809D02*
X-34700Y04897D01*
X-35251Y04798D02*
X-34885Y04809D01*
X-34297Y01800D02*
X-34303Y01400D01*
X-34700Y01803D02*
X-34297Y01800D01*
X-35251Y01842D02*
X-34700Y01803D01*
X-34011Y02059D02*
X-33903Y01800D01*
X-34295Y02300D02*
X-34011Y02059D01*
X-34752Y02172D02*
X-34295Y02300D01*
X-34885Y02109D02*
X-34700Y02197D01*
X-35251Y02098D02*
X-34885Y02109D01*
X-35172Y00933D02*
X-35866Y00870D01*
X-34697Y01400D02*
X-35236Y00870D01*
G54D64*
X-37323Y02094D02*
X-36951Y02098D01*
X-37504Y02270D02*
X-37323Y02094D01*
X-37323Y01846D02*
X-36951Y01842D01*
X-37504Y01670D02*
X-37323Y01846D01*
G54D63*
X-34601Y02673D02*
X-35001Y02673D01*
X-34197Y02800D02*
X-34378Y02743D01*
X-34378Y02743D02*
X-34601Y02673D01*
X-31789Y06220D02*
X-31788Y05808D01*
X-33705Y02300D02*
X-33803Y02800D01*
X-34601Y08073D02*
X-35001Y08073D01*
X-34197Y08200D02*
X-34393Y08138D01*
X-31788Y07993D02*
X-31787Y08409D01*
X-34393Y08138D02*
X-34601Y08073D01*
X-35172Y06333D02*
X-35866Y06270D01*
X-34697Y06800D02*
X-35236Y06270D01*
G54D64*
X-37323Y07246D02*
X-36951Y07242D01*
X-37504Y07070D02*
X-37323Y07246D01*
G54D63*
X-33705Y07700D02*
X-33803Y08200D01*
G54D64*
X-37323Y07494D02*
X-36951Y07498D01*
X-37504Y07670D02*
X-37323Y07494D01*
G54D63*
X-34297Y07200D02*
X-34303Y06800D01*
X-34700Y07203D02*
X-34297Y07200D01*
X-35251Y07242D02*
X-34700Y07203D01*
X-34069Y07422D02*
X-33903Y07200D01*
X-34295Y07700D02*
X-34069Y07422D01*
X-34752Y07572D02*
X-34295Y07700D01*
X-34885Y07509D02*
X-34700Y07597D01*
X-35251Y07498D02*
X-34885Y07509D01*
X-34601Y10773D02*
X-35001Y10773D01*
X-34197Y10900D02*
X-34601Y10773D01*
X-34197Y10900D02*
X-34075Y11106D01*
X-34075Y11106D02*
X-33934Y11193D01*
X-33934Y11193D02*
X-33716Y11189D01*
X-33716Y11189D02*
X-33537Y11072D01*
X-33537Y11072D02*
X-33494Y10821D01*
X-33494Y10821D02*
X-33455Y10162D01*
X-33455Y10162D02*
X-33334Y08463D01*
X-33334Y08463D02*
X-33290Y07761D01*
X-33290Y07761D02*
X-33213Y07669D01*
X-33213Y07669D02*
X-33077Y07626D01*
X-33077Y07626D02*
X-32956Y07626D01*
X-32956Y07626D02*
X-32821Y07718D01*
X-32821Y07718D02*
X-32812Y07992D01*
X-33705Y10400D02*
X-33803Y10900D01*
X-35172Y09033D02*
X-35866Y08970D01*
X-34697Y09500D02*
X-35236Y08970D01*
G54D64*
X-37323Y09946D02*
X-36951Y09942D01*
X-37504Y09770D02*
X-37323Y09946D01*
X-37323Y10194D02*
X-36951Y10198D01*
X-37504Y10370D02*
X-37323Y10194D01*
G54D63*
X-34297Y09900D02*
X-34303Y09500D01*
X-34700Y09903D02*
X-34297Y09900D01*
X-35251Y09942D02*
X-34700Y09903D01*
X-34011Y10159D02*
X-33903Y09900D01*
X-34295Y10400D02*
X-34011Y10159D01*
X-34752Y10272D02*
X-34295Y10400D01*
X-34885Y10209D02*
X-34700Y10297D01*
X-35251Y10198D02*
X-34885Y10209D01*
G54D64*
X-30163Y23850D02*
X-30163Y24350D01*
G54D63*
X-30163Y24350D02*
X-30535Y24999D01*
X-30535Y24999D02*
X-30544Y27124D01*
X-30544Y27124D02*
X-29981Y28100D01*
G54D64*
X-28110Y21504D02*
X-27497Y21500D01*
X-28110Y21308D02*
X-28104Y21164D01*
X-28104Y21164D02*
X-27900Y20997D01*
G54D63*
X-27619Y25800D02*
X-23572Y24639D01*
X-23572Y24639D02*
X-21200Y24497D01*
G54D64*
X-28037Y23850D02*
X-28037Y23350D01*
G54D63*
X-28037Y23820D02*
X-28503Y24113D01*
X-28503Y24113D02*
X-29582Y25150D01*
X-29582Y25150D02*
X-29981Y25800D01*
G54D64*
X-27900Y20603D02*
X-27500Y20603D01*
X-27900Y20603D02*
X-28104Y20767D01*
X-28104Y20767D02*
X-28201Y21047D01*
X-28201Y21047D02*
X-28409Y21173D01*
X-28409Y21173D02*
X-28646Y21580D01*
X-28646Y21580D02*
X-28806Y22117D01*
X-28806Y22117D02*
X-29097Y22722D01*
X-29097Y22722D02*
X-29745Y23163D01*
X-29745Y23163D02*
X-30163Y23350D01*
G54D63*
X-28856Y20874D02*
X-29300Y20897D01*
X-29489Y21308D02*
X-29300Y20897D01*
G54D64*
X-27103Y21500D02*
X-27103Y21900D01*
X-27103Y21900D02*
X-27136Y22519D01*
X-27136Y22519D02*
X-27417Y22848D01*
X-27417Y22848D02*
X-28037Y22850D01*
G54D63*
X-27619Y28100D02*
X-26964Y26957D01*
X-26964Y26957D02*
X-25734Y26271D01*
X-25734Y26271D02*
X-24805Y26263D01*
X-24805Y26263D02*
X-23572Y26804D01*
X-23572Y26804D02*
X-21200Y26797D01*
G54D64*
X23653Y13498D02*
X23521Y13635D01*
X23653Y15073D02*
X23467Y15071D01*
X23032Y15527D02*
X23023Y15703D01*
X21763Y15703D02*
X21760Y15524D01*
X21673Y14048D02*
X21448Y14128D01*
X21763Y13498D02*
X21756Y13682D01*
G54D63*
X-07986Y16884D02*
X-07900Y16497D01*
G54D64*
X-00272Y14870D02*
X-00103Y14672D01*
X-00272Y14870D02*
X-00103Y14987D01*
X-00103Y15302D02*
X-00103Y14987D01*
X-00132Y15275D02*
X00052Y15469D01*
X00212Y15302D02*
X00052Y15469D01*
X00527Y15302D02*
X00681Y15488D01*
X00842Y15302D02*
X00681Y15488D01*
X01157Y15302D02*
X01305Y15483D01*
X01472Y15302D02*
X01305Y15483D01*
X01787Y15302D02*
X01940Y15498D01*
X02102Y15302D02*
X01940Y15498D01*
X02102Y14672D02*
X02269Y14810D01*
X02102Y14987D02*
X02269Y14810D01*
X02102Y15302D02*
X02102Y14987D01*
X01787Y15302D02*
X01472Y15302D01*
X01157Y15302D02*
X00842Y15302D01*
X00527Y15302D02*
X00212Y15302D01*
X-26987Y13998D02*
X-26991Y14180D01*
X-27302Y14628D02*
X-27128Y14628D01*
X-26987Y16203D02*
X-26973Y16015D01*
X-25727Y16203D02*
X-25732Y16004D01*
X-25097Y15573D02*
X-25280Y15572D01*
X-25097Y13998D02*
X-25256Y14148D01*
X-07891Y01007D02*
X-07549Y01089D01*
G54D63*
X27150Y12397D02*
X27354Y12397D01*
X27354Y12397D02*
X27550Y12397D01*
G54D64*
X21448Y13813D02*
X21292Y13961D01*
X21133Y14443D02*
X21282Y14297D01*
X21448Y15073D02*
X21296Y14926D01*
X20818Y15073D02*
X20983Y14929D01*
X21133Y16018D02*
X21282Y15864D01*
X21904Y15861D02*
X22078Y16018D01*
X23023Y16018D02*
X22869Y15853D01*
X23653Y15703D02*
X23820Y15864D01*
X23653Y14443D02*
X23807Y14597D01*
X24283Y13498D02*
X24442Y13339D01*
X24597Y13183D02*
X24442Y13339D01*
X24597Y12553D02*
X24731Y12408D01*
X22864Y13327D02*
X23023Y13498D01*
X22393Y13498D02*
X22533Y13349D01*
X20326Y12510D02*
X20503Y12553D01*
X24697Y11900D02*
X24731Y12408D01*
X23402Y12130D02*
X23403Y11900D01*
X26097Y12300D02*
X26094Y12106D01*
X26097Y11900D02*
X26094Y12106D01*
G54D63*
X20326Y12510D02*
X19800Y12503D01*
G54D64*
X16469Y14352D02*
X16055Y14350D01*
X14543Y15103D02*
X14131Y15148D01*
G54D63*
X14160Y15145D02*
X14543Y15103D01*
G54D64*
X15103Y11400D02*
X15098Y11173D01*
X13200Y08303D02*
X13198Y07687D01*
X13200Y07097D02*
X13198Y07687D01*
X05340Y15760D02*
X05145Y15766D01*
X07230Y14185D02*
X07046Y14185D01*
X07230Y13555D02*
X07033Y13555D01*
X06154Y14509D02*
X05970Y14500D01*
X05970Y13870D02*
X06159Y13871D01*
X05970Y13240D02*
X06151Y13241D01*
X05340Y13240D02*
X05494Y13393D01*
X-04103Y14200D02*
X-04100Y13994D01*
X03580Y09064D02*
X03848Y09069D01*
X-31374Y10344D02*
X-31373Y10160D01*
G54D63*
X-30456Y14126D02*
X-30555Y13922D01*
X-30588Y13853D02*
X-30597Y13700D01*
X-30456Y14126D02*
X-30460Y14318D01*
X-30460Y14318D02*
X-30396Y14417D01*
X-30396Y14417D02*
X-30030Y14417D01*
X-30030Y14417D02*
X-29949Y14341D01*
X-29949Y14341D02*
X-29944Y14126D01*
X-31500Y16003D02*
X-31295Y16003D01*
G54D64*
X-28997Y11000D02*
X-28989Y11271D01*
G54D63*
X-28247Y13053D02*
X-28268Y12860D01*
X-28268Y12860D02*
X-28200Y12297D01*
X-28247Y13053D02*
X-28580Y13045D01*
X-28200Y12297D02*
X-28439Y12295D01*
X-28636Y09715D02*
X-28890Y09807D01*
X-28890Y09807D02*
X-28975Y09904D01*
X-28975Y09904D02*
X-28997Y10100D01*
X-25497Y11100D02*
X-25903Y10930D01*
G54D64*
X-24153Y13053D02*
X-23932Y13051D01*
X-22500Y11697D02*
X-22000Y11303D01*
X-28229Y19159D02*
X-28197Y19400D01*
X-24248Y18331D02*
X-24089Y18328D01*
G54D63*
X-28997Y19700D02*
X-28856Y20126D01*
X-28856Y20126D02*
X-28855Y20312D01*
X-28855Y20312D02*
X-28743Y20428D01*
X-28743Y20428D02*
X-28462Y20433D01*
X-28462Y20433D02*
X-28346Y20355D01*
X-28346Y20355D02*
X-28344Y20126D01*
X-28997Y19700D02*
X-29198Y19706D01*
X-29805Y20900D02*
X-30003Y21500D01*
X-29489Y21504D02*
X-30003Y21500D01*
X-29805Y20900D02*
X-30031Y20515D01*
X-28110Y22092D02*
X-28511Y22093D01*
X-28037Y24350D02*
X-27630Y24316D01*
X-27630Y24316D02*
X-27400Y24297D01*
G54D64*
X-27200Y18297D02*
X-27208Y18520D01*
X-03008Y10411D02*
X-03015Y10059D01*
X-03015Y10059D02*
X-03103Y09800D01*
X-03103Y09800D02*
X-03099Y09575D01*
X-03105Y09300D02*
X-03099Y09575D01*
G54D63*
X-05374Y11856D02*
X-05157Y11854D01*
X-05157Y11854D02*
X-05100Y11730D01*
X-05100Y11730D02*
X-05106Y11468D01*
X-05106Y11468D02*
X-05164Y11384D01*
X-05164Y11384D02*
X-05374Y11344D01*
X-05800Y11403D02*
X-05374Y11344D01*
X-05800Y11403D02*
X-05799Y11209D01*
G54D64*
X08103Y08800D02*
X07792Y08805D01*
X07497Y08800D02*
X07792Y08805D01*
X02852Y06731D02*
X03057Y06725D01*
X-07104Y11236D02*
X-07409Y11270D01*
X-07409Y11270D02*
X-07700Y11303D01*
X-00448Y06731D02*
X-00452Y07214D01*
X02150Y04263D02*
X02662Y04263D01*
X02662Y04263D02*
X03150Y04263D01*
X09497Y15100D02*
X09497Y15500D01*
X09497Y15427D02*
X09498Y15797D01*
X07554Y10919D02*
X07563Y10650D01*
X07554Y10919D02*
X07563Y11150D01*
X08200Y10797D02*
X07563Y10650D01*
X05437Y10150D02*
X05049Y10158D01*
X-00103Y13412D02*
X00047Y13250D01*
X-00103Y13097D02*
X00047Y13250D01*
X00212Y13097D02*
X00047Y13250D01*
X00212Y13412D02*
X00047Y13250D01*
X00527Y13412D02*
X00681Y13245D01*
X00527Y13097D02*
X00681Y13245D01*
X00842Y13412D02*
X00681Y13245D01*
X00842Y13097D02*
X00681Y13245D01*
X01157Y13412D02*
X01306Y13250D01*
X01157Y13097D02*
X01306Y13250D01*
X01472Y13412D02*
X01306Y13250D01*
X01472Y13097D02*
X01306Y13250D01*
X01787Y13412D02*
X01935Y13254D01*
X01787Y13097D02*
X01935Y13254D01*
X02102Y13412D02*
X01935Y13254D01*
X02102Y13097D02*
X01935Y13254D01*
X02102Y13727D02*
X02284Y13874D01*
X02102Y14042D02*
X02284Y13874D01*
X02102Y14357D02*
X02102Y14042D01*
X-00295Y14194D02*
X-00103Y14357D01*
X-00130Y14042D02*
X-00295Y14194D01*
X-00103Y13727D02*
X-00311Y13565D01*
X-00103Y13412D02*
X-00311Y13565D01*
X02102Y13727D02*
X02102Y13412D01*
X01787Y13412D02*
X01472Y13412D01*
X01787Y13097D02*
X01472Y13097D01*
X01157Y13412D02*
X00842Y13412D01*
X01157Y13097D02*
X00842Y13097D01*
X00527Y13412D02*
X00212Y13412D01*
X00527Y13097D02*
X00212Y13097D01*
X-27617Y14943D02*
X-27776Y15105D01*
X-27302Y14313D02*
X-27462Y14476D01*
X-27932Y15573D02*
X-27781Y15415D01*
X-25097Y14943D02*
X-24954Y14795D01*
X-25727Y13998D02*
X-25564Y14161D01*
X-26357Y13998D02*
X-26198Y14161D01*
X-24153Y13683D02*
X-24320Y13856D01*
X-24467Y13998D02*
X-24320Y13856D01*
X-27302Y15573D02*
X-27450Y15421D01*
X-26672Y16518D02*
X-26827Y16350D01*
X-25727Y16518D02*
X-25571Y16367D01*
X-25097Y16203D02*
X-25256Y16352D01*
X-27617Y16518D02*
X-27464Y16362D01*
G54D63*
X-25937Y10550D02*
X-25903Y10930D01*
X-25937Y10050D02*
X-25937Y10550D01*
X-28063Y09550D02*
X-28636Y09715D01*
G54D64*
X-22800Y13203D02*
X-22565Y13204D01*
X-24203Y06400D02*
X-24159Y06626D01*
X-25048Y05031D02*
X-24989Y05471D01*
X-28225Y05527D02*
X-28249Y05101D01*
G54D63*
X-30555Y13922D02*
X-30588Y13853D01*
X-31295Y16003D02*
X-31100Y16003D01*
G54D62*
X27297Y17300D02*
X27510Y17296D01*
X-06803Y12200D02*
X-06608Y12205D01*
X-06415Y12699D02*
X-06600Y12803D01*
X-06415Y12699D02*
X-06200Y12803D01*
X-05400Y12803D02*
X-05391Y12619D01*
X-04897Y21600D02*
X-04916Y21387D01*
X-04916Y21387D02*
X-04937Y21150D01*
G54D64*
X-01993Y15932D02*
X-01819Y15774D01*
X-01819Y15774D02*
X-01576Y15778D01*
X-01475Y15866D02*
X-01576Y15778D01*
X-01678Y16877D02*
X-01845Y17038D01*
X-01048Y16877D02*
X-01045Y16668D01*
X-00418Y16877D02*
X-00261Y17021D01*
X-00103Y17192D02*
X-00261Y17021D01*
X00900Y20503D02*
X00341Y20298D01*
X00341Y20298D02*
X00208Y20148D01*
X08103Y07400D02*
X07879Y07433D01*
X-03008Y10410D02*
X-03029Y10963D01*
X-03029Y10963D02*
X-03393Y11316D01*
X-03393Y11316D02*
X-03567Y11491D01*
X-03567Y11491D02*
X-03596Y11789D01*
X-03596Y11789D02*
X-03606Y12115D01*
X-03606Y12115D02*
X-03756Y12260D01*
X-28229Y19159D02*
X-28264Y18904D01*
G54D63*
X-07293Y01108D02*
X-07549Y01089D01*
X-07593Y01078D02*
X-07891Y01007D01*
G54D64*
X-22500Y11697D02*
X-22499Y11918D01*
G54D63*
X-20026Y19187D02*
X-20032Y18838D01*
X-21526Y19187D02*
X-21517Y19515D01*
X-23026Y19187D02*
X-23027Y19510D01*
X25897Y13600D02*
X25897Y14000D01*
X26205Y13689D02*
X25897Y13600D01*
X26320Y13514D02*
X26205Y13689D01*
G54D65*
X-08468Y28658D02*
X-10602Y28346D01*
X-08468Y28658D02*
X-01124Y28633D01*
X06779Y28606D02*
X08930Y27634D01*
X08930Y27634D02*
X09400Y26500D01*
G54D62*
X-01100Y21600D02*
X-01100Y20897D01*
G54D65*
X-01100Y21600D02*
X-01124Y28633D01*
X-01124Y28633D02*
X06779Y28606D01*
X-10602Y28346D02*
X-13258Y26700D01*
X-13258Y26700D02*
X-14350Y26400D01*
G54D62*
X29900Y18000D02*
X29556Y17579D01*
G54D63*
X27389Y17559D02*
X26737Y17559D01*
X27389Y17559D02*
X28347Y17589D01*
X28347Y17589D02*
X29556Y17579D01*
G54D61*
X09400Y26500D02*
X10992Y26500D01*
X10992Y26500D02*
X12139Y25353D01*
X12139Y25353D02*
X14484Y18784D01*
X14484Y18784D02*
X16425Y18068D01*
X16425Y18068D02*
X16997Y17826D01*
X16997Y17826D02*
X17292Y17182D01*
X17292Y17182D02*
X19054Y16906D01*
G54D62*
X24210Y16974D02*
X21682Y17038D01*
X21682Y17038D02*
X21036Y17026D01*
X21036Y17026D02*
X19550Y16934D01*
X19550Y16934D02*
X19054Y16906D01*
X24210Y16974D02*
X25780Y17290D01*
X25780Y17290D02*
X26737Y17559D01*
M02*
