G04 (created by PCBNEW-RS274X (2010-03-14)-final) date Thu 13 Oct 2011 09:10:50 PM EDT*
G01*
G70*
G90*
%MOIN*%
G04 Gerber Fmt 3.4, Leading zero omitted, Abs format*
%FSLAX34Y34*%
G04 APERTURE LIST*
%ADD10C,0.001000*%
%ADD11R,0.019700X0.023600*%
%ADD12R,0.023600X0.019700*%
%ADD13R,0.023600X0.035400*%
%ADD14R,0.082700X0.049200*%
%ADD15C,0.150000*%
%ADD16R,0.078700X0.118100*%
%ADD17R,0.118100X0.078700*%
%ADD18C,0.063000*%
%ADD19R,0.031500X0.035400*%
%ADD20C,0.129900*%
%ADD21C,0.060000*%
%ADD22C,0.015700*%
%ADD23R,0.047200X0.009800*%
%ADD24R,0.010200X0.031500*%
%ADD25R,0.118100X0.029500*%
%ADD26R,0.023600X0.009800*%
%ADD27R,0.009800X0.023600*%
%ADD28R,0.055100X0.055100*%
%ADD29R,0.016500X0.023600*%
%ADD30R,0.031500X0.027600*%
%ADD31R,0.015700X0.023600*%
%ADD32C,0.094500*%
%ADD33R,0.027600X0.055100*%
%ADD34R,0.023600X0.033500*%
%ADD35R,0.042000X0.023600*%
%ADD36R,0.013800X0.039400*%
%ADD37R,0.051200X0.013800*%
%ADD38R,0.013800X0.051200*%
%ADD39R,0.033500X0.023600*%
%ADD40R,0.055100X0.027600*%
%ADD41C,0.140000*%
%ADD42C,0.066900*%
%ADD43R,0.035400X0.023600*%
%ADD44R,0.063000X0.035400*%
%ADD45C,0.068900*%
%ADD46C,0.196900*%
%ADD47R,0.013000X0.032000*%
%ADD48C,0.080000*%
%ADD49C,0.055000*%
%ADD50C,0.070000*%
%ADD51R,0.035400X0.063000*%
%ADD52R,0.078700X0.078700*%
%ADD53R,0.027600X0.037400*%
%ADD54R,0.068900X0.135000*%
%ADD55R,0.023600X0.042000*%
%ADD56C,0.018000*%
%ADD57C,0.025000*%
%ADD58C,0.045000*%
%ADD59C,0.010000*%
%ADD60C,0.005000*%
%ADD61C,0.008000*%
%ADD62C,0.015000*%
%ADD63C,0.025000*%
%ADD64C,0.040000*%
G04 APERTURE END LIST*
G54D10*
G54D11*
X00897Y-13300D03*
X00503Y-13300D03*
X00897Y-12900D03*
X00503Y-12900D03*
X00097Y-12500D03*
X-00297Y-12500D03*
X00897Y-12500D03*
X00503Y-12500D03*
X02397Y-14000D03*
X02003Y-14000D03*
G54D12*
X-03900Y-17803D03*
X-03900Y-18197D03*
X-03300Y-18197D03*
X-03300Y-17803D03*
G54D11*
X02297Y-15600D03*
X01903Y-15600D03*
X-02297Y-30200D03*
X-01903Y-30200D03*
X11297Y-31700D03*
X10903Y-31700D03*
X10903Y-30700D03*
X11297Y-30700D03*
G54D12*
X08000Y-04903D03*
X08000Y-05297D03*
X08900Y-04203D03*
X08900Y-04597D03*
G54D11*
X10303Y-17300D03*
X10697Y-17300D03*
X06903Y-31900D03*
X07297Y-31900D03*
G54D12*
X11400Y-00197D03*
X11400Y00197D03*
X17100Y-26803D03*
X17100Y-27197D03*
X09400Y-04203D03*
X09400Y-04597D03*
X10600Y-00197D03*
X10600Y00197D03*
G54D11*
X02097Y-06400D03*
X01703Y-06400D03*
G54D12*
X12400Y-18003D03*
X12400Y-18397D03*
X12400Y-20397D03*
X12400Y-20003D03*
X12400Y-16403D03*
X12400Y-16797D03*
X00200Y-03732D03*
X00200Y-03338D03*
X00200Y-04532D03*
X00200Y-04138D03*
X-01900Y-03438D03*
X-01900Y-03832D03*
X-01900Y-04138D03*
X-01900Y-04532D03*
X-02300Y-03832D03*
X-02300Y-03438D03*
G54D11*
X-00803Y-04635D03*
X-01197Y-04635D03*
X00297Y-07400D03*
X-00097Y-07400D03*
G54D12*
X05690Y-26707D03*
X05690Y-26313D03*
X04690Y-26707D03*
X04690Y-26313D03*
X03690Y-26707D03*
X03690Y-26313D03*
X02690Y-26707D03*
X02690Y-26313D03*
X-04000Y-23597D03*
X-04000Y-23203D03*
X-02500Y-23203D03*
X-02500Y-23597D03*
X-03800Y-19503D03*
X-03800Y-19897D03*
X-03500Y-23203D03*
X-03500Y-23597D03*
X-03000Y-23203D03*
X-03000Y-23597D03*
X01690Y-26707D03*
X01690Y-26313D03*
X00690Y-26707D03*
X00690Y-26313D03*
X-00310Y-26707D03*
X-00310Y-26313D03*
X-01310Y-26707D03*
X-01310Y-26313D03*
G54D11*
X07897Y-19700D03*
X07503Y-19700D03*
X03597Y-20400D03*
X03203Y-20400D03*
X07397Y-15200D03*
X07003Y-15200D03*
X07397Y-14700D03*
X07003Y-14700D03*
X07397Y-15700D03*
X07003Y-15700D03*
X06597Y-20400D03*
X06203Y-20400D03*
G54D12*
X07083Y-26693D03*
X07083Y-26299D03*
X08083Y-26693D03*
X08083Y-26299D03*
X09083Y-26693D03*
X09083Y-26299D03*
X10083Y-26693D03*
X10083Y-26299D03*
X11083Y-26693D03*
X11083Y-26299D03*
X12083Y-26693D03*
X12083Y-26299D03*
X13083Y-26693D03*
X13083Y-26299D03*
X14083Y-26693D03*
X14083Y-26299D03*
X-03100Y-19897D03*
X-03100Y-19503D03*
X-02600Y-19897D03*
X-02600Y-19503D03*
G54D11*
X08297Y-06300D03*
X07903Y-06300D03*
X04697Y-06200D03*
X04303Y-06200D03*
G54D12*
X01000Y-11603D03*
X01000Y-11997D03*
X00600Y-11603D03*
X00600Y-11997D03*
X00200Y-11603D03*
X00200Y-11997D03*
G54D11*
X02703Y-10700D03*
X03097Y-10700D03*
X-00103Y-11000D03*
X-00497Y-11000D03*
G54D12*
X01500Y-11603D03*
X01500Y-11997D03*
G54D11*
X-00103Y-10600D03*
X-00497Y-10600D03*
G54D12*
X02000Y-11603D03*
X02000Y-11997D03*
G54D11*
X-00103Y-09800D03*
X-00497Y-09800D03*
X-00103Y-09400D03*
X-00497Y-09400D03*
G54D12*
X00200Y-08597D03*
X00200Y-08203D03*
G54D11*
X-00497Y-09000D03*
X-00103Y-09000D03*
G54D12*
X02200Y-08203D03*
X02200Y-08597D03*
G54D11*
X-01097Y-10200D03*
X-00703Y-10200D03*
G54D12*
X01400Y-08597D03*
X01400Y-08203D03*
X01800Y-08597D03*
X01800Y-08203D03*
X00600Y-08597D03*
X00600Y-08203D03*
X01000Y-08597D03*
X01000Y-08203D03*
G54D11*
X03297Y-06700D03*
X02903Y-06700D03*
X02903Y-08300D03*
X03297Y-08300D03*
X13997Y-13100D03*
X13603Y-13100D03*
X12703Y-13100D03*
X13097Y-13100D03*
X13997Y-13500D03*
X13603Y-13500D03*
X12703Y-13500D03*
X13097Y-13500D03*
X15697Y-01500D03*
X15303Y-01500D03*
X15697Y-11000D03*
X15303Y-11000D03*
X15697Y-03500D03*
X15303Y-03500D03*
X15697Y-06500D03*
X15303Y-06500D03*
G54D12*
X08500Y-14097D03*
X08500Y-13703D03*
X07800Y-14097D03*
X07800Y-13703D03*
X11800Y-06397D03*
X11800Y-06003D03*
X13400Y-06003D03*
X13400Y-06397D03*
G54D11*
X15697Y-15000D03*
X15303Y-15000D03*
X15697Y-10000D03*
X15303Y-10000D03*
X15697Y-18500D03*
X15303Y-18500D03*
X15697Y-23500D03*
X15303Y-23500D03*
X15697Y-12000D03*
X15303Y-12000D03*
X15697Y-20500D03*
X15303Y-20500D03*
X15697Y-21500D03*
X15303Y-21500D03*
X15697Y-13000D03*
X15303Y-13000D03*
X15697Y-04500D03*
X15303Y-04500D03*
X10503Y-16200D03*
X10897Y-16200D03*
X10503Y-15600D03*
X10897Y-15600D03*
X10303Y-18100D03*
X10697Y-18100D03*
G54D12*
X06300Y-16103D03*
X06300Y-16497D03*
X05900Y-16103D03*
X05900Y-16497D03*
X05500Y-16103D03*
X05500Y-16497D03*
X05100Y-16103D03*
X05100Y-16497D03*
X06000Y-13703D03*
X06000Y-14097D03*
X04600Y-16103D03*
X04600Y-16497D03*
X05600Y-13703D03*
X05600Y-14097D03*
X05200Y-13703D03*
X05200Y-14097D03*
G54D13*
X-01105Y-00335D03*
X-01695Y-00335D03*
X-00695Y-00335D03*
X-00105Y-00335D03*
X-01195Y-05035D03*
X-00605Y-05035D03*
G54D14*
X-01600Y-02235D03*
X-01600Y-01035D03*
X-00200Y-02235D03*
X-00200Y-01035D03*
G54D15*
X18000Y-32000D03*
X-09000Y08500D03*
X18000Y08500D03*
X-09000Y-32000D03*
G54D16*
X-03681Y-14300D03*
X-01319Y-14300D03*
X-03681Y-16500D03*
X-01319Y-16500D03*
G54D17*
X-03100Y05581D03*
X-03100Y03219D03*
G54D18*
X-05100Y03500D03*
X-05100Y04500D03*
X-01699Y01364D03*
X-01699Y00364D03*
X-00099Y01364D03*
X-00099Y00364D03*
X11500Y-14300D03*
X11500Y-15300D03*
X11500Y-16300D03*
X11500Y-17300D03*
X11500Y-18300D03*
X11500Y-19300D03*
X11500Y-20300D03*
X14200Y-20400D03*
X13200Y-20400D03*
X14200Y-19400D03*
X13200Y-19400D03*
X14200Y-18400D03*
X13200Y-18400D03*
X14200Y-17400D03*
X13200Y-17400D03*
X14200Y-16400D03*
X13200Y-16400D03*
X14200Y-15400D03*
X13200Y-15400D03*
X14200Y-14400D03*
X13200Y-14400D03*
X16400Y-01500D03*
X16400Y-02500D03*
X16400Y-04500D03*
X16400Y-05500D03*
X16400Y-06500D03*
X16400Y-07500D03*
X16400Y-08500D03*
X16400Y-03500D03*
X16400Y-10000D03*
X16400Y-11000D03*
X16400Y-13000D03*
X16400Y-14000D03*
X16400Y-15000D03*
X16400Y-16000D03*
X16400Y-17000D03*
X16400Y-12000D03*
X16400Y-18500D03*
X16400Y-19500D03*
X16400Y-21500D03*
X16400Y-22500D03*
X16400Y-23500D03*
X16400Y-24500D03*
X16400Y-25500D03*
X16400Y-20500D03*
G54D19*
X03346Y-07825D03*
X03346Y-07175D03*
X02854Y-07175D03*
X02854Y-07825D03*
G54D20*
X-06760Y01241D03*
X-06760Y-03641D03*
G54D18*
X-05693Y-00637D03*
X-04906Y-00637D03*
X-04906Y-01621D03*
X-05693Y-01621D03*
G54D21*
X-07650Y03600D03*
X-07650Y04600D03*
X-07650Y05600D03*
X-10150Y05600D03*
X-10150Y03600D03*
G54D22*
X04208Y-12993D03*
X04208Y-12678D03*
X04208Y-12363D03*
X04208Y-12048D03*
X04208Y-11733D03*
X04208Y-11418D03*
X04208Y-11103D03*
X04208Y-10788D03*
X04208Y-10473D03*
X04208Y-10158D03*
X04208Y-09843D03*
X04208Y-09528D03*
X04208Y-09213D03*
X04208Y-08898D03*
X04208Y-08583D03*
X04208Y-08268D03*
X04208Y-07953D03*
X04208Y-07638D03*
X04208Y-07323D03*
X04208Y-07008D03*
X04523Y-12993D03*
X04523Y-12678D03*
X04523Y-12363D03*
X04523Y-12048D03*
X04523Y-11733D03*
X04523Y-11418D03*
X04523Y-11103D03*
X04523Y-10788D03*
X04523Y-10473D03*
X04523Y-10158D03*
X04523Y-09843D03*
X04523Y-09528D03*
X04523Y-09213D03*
X04523Y-08898D03*
X04523Y-08583D03*
X04523Y-08268D03*
X04523Y-07953D03*
X04523Y-07638D03*
X04523Y-07323D03*
X04523Y-07008D03*
X04838Y-12993D03*
X04838Y-12678D03*
X04838Y-07323D03*
X04838Y-07008D03*
X05153Y-12993D03*
X05153Y-12678D03*
X05153Y-07323D03*
X05153Y-07008D03*
X05468Y-12993D03*
X05468Y-12678D03*
X05468Y-07323D03*
X05468Y-07008D03*
X05783Y-12993D03*
X05783Y-12678D03*
X05783Y-07323D03*
X05783Y-07008D03*
X06098Y-12993D03*
X06098Y-12678D03*
X06098Y-11103D03*
X06098Y-10788D03*
X06098Y-10473D03*
X06098Y-10158D03*
X06098Y-09843D03*
X06098Y-09528D03*
X06098Y-09213D03*
X06098Y-08898D03*
X06098Y-07323D03*
X06098Y-07008D03*
X06413Y-12993D03*
X06413Y-12678D03*
X06413Y-11103D03*
X06413Y-10788D03*
X06413Y-10473D03*
X06413Y-10158D03*
X06413Y-09843D03*
X06413Y-09528D03*
X06413Y-09213D03*
X06413Y-08898D03*
X06413Y-07323D03*
X06413Y-07008D03*
X06728Y-12993D03*
X06728Y-12678D03*
X06728Y-11103D03*
X06728Y-10788D03*
X06728Y-10473D03*
X06728Y-10158D03*
X06728Y-09843D03*
X06728Y-09528D03*
X06728Y-09213D03*
X06728Y-08898D03*
X06728Y-07323D03*
X06728Y-07008D03*
X07043Y-12993D03*
X07043Y-12678D03*
X07043Y-11103D03*
X07043Y-10788D03*
X07043Y-10473D03*
X07043Y-10158D03*
X07043Y-09843D03*
X07043Y-09528D03*
X07043Y-09213D03*
X07043Y-08898D03*
X07043Y-07323D03*
X07043Y-07008D03*
X07358Y-12993D03*
X07358Y-12678D03*
X07358Y-11103D03*
X07358Y-10788D03*
X07358Y-10473D03*
X07358Y-10158D03*
X07358Y-09843D03*
X07358Y-09528D03*
X07358Y-09213D03*
X07358Y-08898D03*
X07358Y-07323D03*
X07358Y-07008D03*
X07673Y-12993D03*
X07673Y-12678D03*
X07673Y-11103D03*
X07673Y-10788D03*
X07673Y-10473D03*
X07673Y-10158D03*
X07673Y-09843D03*
X07673Y-09528D03*
X07673Y-09213D03*
X07673Y-08898D03*
X07673Y-07323D03*
X07673Y-07008D03*
X07988Y-12993D03*
X07988Y-12678D03*
X07988Y-11103D03*
X07988Y-10788D03*
X07988Y-10473D03*
X07988Y-10158D03*
X07988Y-09843D03*
X07988Y-09528D03*
X07988Y-09213D03*
X07988Y-08898D03*
X07988Y-07323D03*
X07988Y-07008D03*
X08303Y-12993D03*
X08303Y-12678D03*
X08303Y-11103D03*
X08303Y-10788D03*
X08303Y-10473D03*
X08303Y-10158D03*
X08303Y-09843D03*
X08303Y-09528D03*
X08303Y-09213D03*
X08303Y-08898D03*
X08303Y-07323D03*
X08303Y-07008D03*
X08618Y-12993D03*
X08618Y-12678D03*
X08618Y-07323D03*
X08618Y-07008D03*
X08933Y-12993D03*
X08933Y-12678D03*
X08933Y-07323D03*
X08933Y-07008D03*
X09248Y-12993D03*
X09248Y-12678D03*
X09248Y-07323D03*
X09248Y-07008D03*
X09563Y-12993D03*
X09563Y-12678D03*
X09563Y-07323D03*
X09563Y-07008D03*
X09878Y-12993D03*
X09878Y-12678D03*
X09878Y-07323D03*
X09878Y-07008D03*
X10193Y-12993D03*
X10193Y-12678D03*
X10193Y-12363D03*
X10193Y-12048D03*
X10193Y-11733D03*
X10193Y-11418D03*
X10193Y-11103D03*
X10193Y-10788D03*
X10193Y-10473D03*
X10193Y-10158D03*
X10193Y-09843D03*
X10193Y-09528D03*
X10193Y-09213D03*
X10193Y-08898D03*
X10193Y-08583D03*
X10193Y-08268D03*
X10193Y-07953D03*
X10193Y-07638D03*
X10193Y-07323D03*
X10193Y-07008D03*
X09878Y-12363D03*
X09878Y-12048D03*
X09878Y-11733D03*
X09878Y-11418D03*
X09878Y-11103D03*
X09878Y-10788D03*
X09878Y-10473D03*
X09878Y-10158D03*
X09878Y-09843D03*
X09878Y-09528D03*
X09878Y-09213D03*
X09878Y-08898D03*
X09878Y-08583D03*
X09878Y-08268D03*
X09878Y-07953D03*
X09878Y-07638D03*
G54D23*
X01411Y-12608D03*
X01411Y-12804D03*
X01411Y-13000D03*
X01411Y-13196D03*
X01411Y-13392D03*
X02790Y-13392D03*
X02790Y-13196D03*
X02790Y-13000D03*
X02790Y-12804D03*
X02790Y-12608D03*
G54D24*
X-01294Y-04126D03*
X-01097Y-04126D03*
X-00900Y-04126D03*
X-00703Y-04126D03*
X-00506Y-04126D03*
X-00506Y-02944D03*
X-00703Y-02944D03*
X-00900Y-02944D03*
X-01097Y-02944D03*
X-01294Y-02944D03*
G54D25*
X-00900Y-03535D03*
G54D26*
X00355Y-09511D03*
X00355Y-09708D03*
X00355Y-09905D03*
X00355Y-10102D03*
X00355Y-10298D03*
X00355Y-10495D03*
X00355Y-10692D03*
X00355Y-10889D03*
X02245Y-10889D03*
X02245Y-10692D03*
X02245Y-10495D03*
X02245Y-10298D03*
X02245Y-10102D03*
X02245Y-09905D03*
X02245Y-09708D03*
X02245Y-09511D03*
G54D27*
X00611Y-11145D03*
X00808Y-11145D03*
X01005Y-11145D03*
X01202Y-11145D03*
X01398Y-11145D03*
X01595Y-11145D03*
X01792Y-11145D03*
X01989Y-11145D03*
X01989Y-09255D03*
X01792Y-09255D03*
X01595Y-09255D03*
X01398Y-09255D03*
X01202Y-09255D03*
X01005Y-09255D03*
X00808Y-09255D03*
X00611Y-09255D03*
G54D28*
X00946Y-09846D03*
X00946Y-10554D03*
X01654Y-10554D03*
X01654Y-09846D03*
G54D29*
X01636Y-07584D03*
G54D30*
X02089Y-07584D03*
G54D29*
X02148Y-06796D03*
X01636Y-06796D03*
G54D31*
X01944Y-15174D03*
X02200Y-15174D03*
X02456Y-15174D03*
X02456Y-14426D03*
X01944Y-14426D03*
X12856Y-05826D03*
X12600Y-05826D03*
X12344Y-05826D03*
X12344Y-06574D03*
X12856Y-06574D03*
G54D32*
X-09849Y-15859D03*
X-08904Y-15072D03*
X-06739Y-15072D03*
X-05951Y-14107D03*
X-05951Y-17493D03*
X-09455Y-17493D03*
G54D33*
X01250Y-14337D03*
X00750Y-14337D03*
X00250Y-14337D03*
X-00250Y-14337D03*
X-00250Y-16463D03*
X00250Y-16463D03*
X00750Y-16463D03*
X01250Y-16463D03*
G54D34*
X13100Y02487D03*
X13474Y03313D03*
X12726Y03313D03*
G54D35*
X00512Y-06774D03*
X00512Y-06400D03*
X00512Y-06026D03*
X-00512Y-06026D03*
X-00512Y-06400D03*
X-00512Y-06774D03*
G54D18*
X03690Y-24510D03*
X04690Y-24510D03*
X05690Y-24510D03*
X02690Y-24510D03*
X01690Y-24510D03*
X00690Y-24510D03*
X-00310Y-24510D03*
X-01310Y-24510D03*
X14083Y-24496D03*
X13083Y-24496D03*
X12083Y-24496D03*
X11083Y-24496D03*
X10083Y-24496D03*
X09083Y-24496D03*
X08083Y-24496D03*
X07083Y-24496D03*
G54D36*
X-03228Y-22702D03*
X-02972Y-22702D03*
X-02716Y-22702D03*
X-02460Y-22702D03*
X-02204Y-22702D03*
X-02204Y-20498D03*
X-02460Y-20498D03*
X-02716Y-20498D03*
X-02972Y-20498D03*
X-03228Y-20498D03*
X-03484Y-20498D03*
X-03740Y-20498D03*
X-03996Y-20498D03*
X-03484Y-22702D03*
X-03740Y-22702D03*
X-03996Y-22702D03*
G54D37*
X09669Y-19252D03*
X09669Y-18996D03*
X09669Y-18740D03*
X09669Y-18484D03*
X09669Y-18228D03*
X09669Y-17972D03*
X09669Y-17716D03*
X09669Y-17460D03*
X09669Y-17204D03*
X09669Y-16948D03*
X07331Y-16948D03*
X07331Y-17204D03*
X07331Y-17460D03*
X07331Y-17716D03*
X07331Y-17972D03*
X07331Y-18228D03*
X07331Y-18484D03*
X07331Y-18740D03*
X07331Y-18996D03*
X07331Y-19252D03*
G54D38*
X03152Y-17531D03*
X02896Y-17531D03*
X02640Y-17531D03*
X02384Y-17531D03*
X02128Y-17531D03*
X01872Y-17531D03*
X01616Y-17531D03*
X01360Y-17531D03*
X01104Y-17531D03*
X00848Y-17531D03*
X00848Y-19869D03*
X01104Y-19869D03*
X01360Y-19869D03*
X01616Y-19869D03*
X01872Y-19869D03*
X02128Y-19869D03*
X02384Y-19869D03*
X02640Y-19869D03*
X02896Y-19869D03*
X03152Y-19869D03*
X06252Y-17531D03*
X05996Y-17531D03*
X05740Y-17531D03*
X05484Y-17531D03*
X05228Y-17531D03*
X04972Y-17531D03*
X04716Y-17531D03*
X04460Y-17531D03*
X04204Y-17531D03*
X03948Y-17531D03*
X03948Y-19869D03*
X04204Y-19869D03*
X04460Y-19869D03*
X04716Y-19869D03*
X04972Y-19869D03*
X05228Y-19869D03*
X05484Y-19869D03*
X05740Y-19869D03*
X05996Y-19869D03*
X06252Y-19869D03*
G54D22*
X13860Y-11260D03*
X13545Y-11260D03*
X13230Y-11260D03*
X11970Y-11260D03*
X11655Y-11260D03*
X11340Y-11260D03*
X13860Y-10945D03*
X13545Y-10945D03*
X13230Y-10945D03*
X11970Y-10945D03*
X11655Y-10945D03*
X11340Y-10945D03*
X13860Y-10630D03*
X13545Y-10630D03*
X13230Y-10630D03*
X11970Y-10630D03*
X11655Y-10630D03*
X11340Y-10630D03*
X13860Y-10315D03*
X13545Y-10315D03*
X13230Y-10315D03*
X11970Y-10315D03*
X11655Y-10315D03*
X11340Y-10315D03*
X13860Y-10000D03*
X13545Y-10000D03*
X13230Y-10000D03*
X11970Y-10000D03*
X11655Y-10000D03*
X11340Y-10000D03*
X13860Y-09685D03*
X13545Y-09685D03*
X13230Y-09685D03*
X11970Y-09685D03*
X11655Y-09685D03*
X11340Y-09685D03*
X13860Y-09370D03*
X13545Y-09370D03*
X13230Y-09370D03*
X11970Y-09370D03*
X11655Y-09370D03*
X11340Y-09370D03*
X13860Y-09055D03*
X13545Y-09055D03*
X13230Y-09055D03*
X11970Y-09055D03*
X11655Y-09055D03*
X11340Y-09055D03*
X13860Y-08740D03*
X13545Y-08740D03*
X13230Y-08740D03*
X11970Y-08740D03*
X11655Y-08740D03*
X11340Y-08740D03*
G54D39*
X08487Y-05500D03*
X09313Y-05874D03*
X09313Y-05126D03*
G54D40*
X07937Y-14650D03*
X07937Y-15150D03*
X07937Y-15650D03*
X07937Y-16150D03*
X10063Y-16150D03*
X10063Y-15650D03*
X10063Y-15150D03*
X10063Y-14650D03*
G54D11*
X15697Y-05000D03*
X15303Y-05000D03*
X15303Y-05500D03*
X15697Y-05500D03*
X15697Y-13500D03*
X15303Y-13500D03*
X15303Y-14000D03*
X15697Y-14000D03*
X15697Y-22000D03*
X15303Y-22000D03*
X15303Y-22500D03*
X15697Y-22500D03*
X10697Y-18600D03*
X10303Y-18600D03*
G54D41*
X-06800Y-19480D03*
G54D42*
X-06241Y-22206D03*
X-06241Y-23297D03*
X-06241Y-24387D03*
X-06241Y-25478D03*
X-06241Y-26569D03*
X-07359Y-22752D03*
X-07359Y-23842D03*
X-07359Y-24933D03*
X-07359Y-26023D03*
G54D41*
X-06800Y-29319D03*
G54D12*
X10000Y03798D03*
X10000Y03404D03*
X10400Y03798D03*
X10400Y03404D03*
X10800Y03798D03*
X10800Y03404D03*
X11200Y03404D03*
X11200Y03798D03*
X11600Y03404D03*
X11600Y03798D03*
G54D11*
X09403Y00800D03*
X09797Y00800D03*
G54D12*
X08400Y-04597D03*
X08400Y-04203D03*
X09900Y-04203D03*
X09900Y-04597D03*
G54D11*
X09003Y-03800D03*
X09397Y-03800D03*
G54D12*
X08000Y-04203D03*
X08000Y-04597D03*
G54D11*
X08003Y-03800D03*
X08397Y-03800D03*
G54D12*
X11000Y00197D03*
X11000Y-00197D03*
X11800Y00197D03*
X11800Y-00197D03*
G54D11*
X11297Y-31200D03*
X10903Y-31200D03*
X06903Y-30700D03*
X07297Y-30700D03*
X06903Y-31100D03*
X07297Y-31100D03*
X10903Y-32100D03*
X11297Y-32100D03*
X06903Y-31500D03*
X07297Y-31500D03*
G54D12*
X00100Y-27403D03*
X00100Y-27797D03*
G54D13*
X08095Y06700D03*
X07505Y06700D03*
G54D43*
X14200Y02705D03*
X14200Y03295D03*
G54D44*
X08500Y03671D03*
X08500Y02529D03*
G54D45*
X17900Y-26898D03*
X17900Y-25898D03*
X17900Y-24898D03*
X17900Y-23898D03*
X17900Y-22898D03*
X17900Y-21898D03*
X17900Y-20898D03*
X17900Y-19898D03*
X17900Y-18898D03*
X17900Y-17898D03*
X17900Y-16898D03*
X17900Y-15898D03*
X17900Y-14898D03*
X17900Y-13898D03*
X17900Y-12898D03*
X17900Y-11898D03*
G54D46*
X17703Y-29063D03*
X05498Y-29063D03*
X05498Y00464D03*
X17703Y00464D03*
G54D43*
X-01300Y-25205D03*
X-01300Y-25795D03*
X-00300Y-25205D03*
X-00300Y-25795D03*
X00700Y-25205D03*
X00700Y-25795D03*
X01700Y-25205D03*
X01700Y-25795D03*
X02700Y-25205D03*
X02700Y-25795D03*
X03700Y-25205D03*
X03700Y-25795D03*
X04700Y-25205D03*
X04700Y-25795D03*
X05700Y-25205D03*
X05700Y-25795D03*
X07100Y-25205D03*
X07100Y-25795D03*
X08100Y-25105D03*
X08100Y-25695D03*
X09100Y-25205D03*
X09100Y-25795D03*
X10100Y-25205D03*
X10100Y-25795D03*
X11100Y-25205D03*
X11100Y-25795D03*
X12100Y-25205D03*
X12100Y-25795D03*
X13100Y-25205D03*
X13100Y-25795D03*
G54D47*
X-02100Y-30700D03*
X-01850Y-30700D03*
X-01600Y-30700D03*
X-01350Y-30700D03*
X-01100Y-30700D03*
X-00850Y-30700D03*
X-00600Y-30700D03*
X-00350Y-30700D03*
X-00100Y-30700D03*
G54D18*
X02100Y-28500D03*
X02100Y-29500D03*
X01100Y-28500D03*
X01100Y-29500D03*
X00100Y-28500D03*
X00100Y-29500D03*
X-00900Y-28500D03*
X-00900Y-29500D03*
X-01900Y-28500D03*
X-01900Y-29500D03*
X-02900Y-28500D03*
X-02900Y-29500D03*
X-03900Y-28500D03*
X-03900Y-29500D03*
G54D12*
X03900Y-29803D03*
X03900Y-30197D03*
G54D47*
X03900Y-30700D03*
X04150Y-30700D03*
X04400Y-30700D03*
X04650Y-30700D03*
X04900Y-30700D03*
X05150Y-30700D03*
X05400Y-30700D03*
X05650Y-30700D03*
X05900Y-30700D03*
G54D37*
X10269Y-31952D03*
X10269Y-31696D03*
X10269Y-31440D03*
X10269Y-31184D03*
X10269Y-30928D03*
X10269Y-30672D03*
X10269Y-30416D03*
X10269Y-30160D03*
X10269Y-29904D03*
X10269Y-29648D03*
X07931Y-29648D03*
X07931Y-29904D03*
X07931Y-30160D03*
X07931Y-30416D03*
X07931Y-30672D03*
X07931Y-30928D03*
X07931Y-31184D03*
X07931Y-31440D03*
X07931Y-31696D03*
X07931Y-31952D03*
G54D18*
X08000Y-28500D03*
X09000Y-28500D03*
X10000Y-28500D03*
X11000Y-28500D03*
X12000Y-28500D03*
X13000Y-28500D03*
X14000Y-28500D03*
G54D41*
X-06550Y-06750D03*
X-06550Y-11250D03*
G54D48*
X-05350Y-05950D03*
X-05350Y-12050D03*
G54D49*
X-07550Y-06330D03*
X-08350Y-06330D03*
X-07550Y-11670D03*
X-08350Y-11670D03*
X-03050Y-06750D03*
X-04050Y-07250D03*
X-03050Y-07750D03*
X-04050Y-08250D03*
X-03050Y-08750D03*
X-04050Y-09250D03*
X-03050Y-09750D03*
X-04050Y-10250D03*
X-03050Y-10750D03*
X-04050Y-11250D03*
G54D43*
X14083Y-25201D03*
X14083Y-25791D03*
G54D14*
X08600Y05600D03*
X08600Y04400D03*
X13100Y01800D03*
X13100Y00600D03*
X09800Y04400D03*
X09800Y05600D03*
G54D50*
X08900Y-03000D03*
X09900Y-03000D03*
X09900Y00000D03*
X08900Y00000D03*
G54D39*
X10813Y-05500D03*
X09987Y-05126D03*
X09987Y-05874D03*
G54D51*
X07071Y-04800D03*
X05929Y-04800D03*
X03929Y-04800D03*
X05071Y-04800D03*
G54D52*
X01513Y-04800D03*
X03087Y-04800D03*
G54D14*
X14300Y01800D03*
X14300Y00600D03*
G54D53*
X08135Y07300D03*
X07465Y07300D03*
G54D52*
X04813Y07300D03*
X06387Y07300D03*
G54D54*
X06761Y05543D03*
X05776Y05543D03*
X04792Y05543D03*
X03808Y05543D03*
X02824Y05543D03*
X01839Y05543D03*
X01839Y-03343D03*
X02824Y-03343D03*
X03808Y-03343D03*
X04792Y-03343D03*
X05776Y-03343D03*
X06761Y-03343D03*
G54D55*
X08226Y00888D03*
X08600Y00888D03*
X08974Y00888D03*
X08974Y01912D03*
X08600Y01912D03*
X08226Y01912D03*
G54D36*
X11100Y00708D03*
X11356Y00708D03*
X11612Y00708D03*
X11868Y00708D03*
X11868Y02893D03*
X11612Y02893D03*
X11356Y02893D03*
X11100Y02893D03*
X10844Y02893D03*
X10588Y02893D03*
X10332Y02893D03*
X10844Y00708D03*
X10588Y00708D03*
X10332Y00708D03*
G54D52*
X12800Y04313D03*
X12800Y05887D03*
G54D14*
X14400Y05800D03*
X14400Y04600D03*
G54D18*
X17000Y05300D03*
X17000Y03300D03*
G54D14*
X11000Y04400D03*
X11000Y05600D03*
G54D12*
X07000Y-14097D03*
X07000Y-13703D03*
X06400Y-14097D03*
X06400Y-13703D03*
G54D18*
X-01200Y-11500D03*
X-01200Y-12600D03*
G54D11*
X-00597Y-11500D03*
X-00203Y-11500D03*
X-00597Y-12000D03*
X-00203Y-12000D03*
G54D56*
X03859Y-08377D03*
X01854Y-11374D03*
X14014Y-11576D03*
X10421Y-12362D03*
X04107Y-14237D03*
X04573Y-15863D03*
X00101Y-10385D03*
X01251Y-11401D03*
X00367Y-09353D03*
X01615Y-09038D03*
X-00662Y-09598D03*
X00601Y-07989D03*
X00998Y-07986D03*
X01395Y-07986D03*
X01799Y-07986D03*
X04969Y-10816D03*
X02539Y-10943D03*
G54D57*
X15297Y-23200D03*
X15603Y-14641D03*
X15320Y-06792D03*
G54D56*
X13784Y-13740D03*
X07999Y-17215D03*
X05901Y-15859D03*
X07503Y-13755D03*
X07177Y-16324D03*
G54D57*
X15309Y-05761D03*
X15301Y-14316D03*
X15305Y-22738D03*
G54D56*
X09563Y-16121D03*
X06302Y-15863D03*
X04731Y-12368D03*
X14739Y-11844D03*
X05160Y-12475D03*
X14368Y-11601D03*
X03857Y-15435D03*
X03740Y-13351D03*
X04997Y-12836D03*
X14574Y-12301D03*
X02754Y-16764D03*
X02132Y-17025D03*
X04067Y-12823D03*
X14459Y-13424D03*
X05169Y-13251D03*
X14383Y-12787D03*
X04833Y-13240D03*
X14589Y-12561D03*
X04367Y-12837D03*
X14244Y-13571D03*
X04693Y-11418D03*
X01353Y-17011D03*
X03883Y-11425D03*
X01119Y-16989D03*
X02476Y-10696D03*
X04910Y-10552D03*
X03757Y-07821D03*
X02595Y-10439D03*
X05231Y-11040D03*
X-02163Y-13200D03*
X00112Y-10638D03*
X03902Y-08837D03*
X00998Y-11428D03*
X02372Y-11420D03*
X03676Y-09546D03*
X00734Y-11447D03*
X03549Y-09199D03*
X00348Y-11383D03*
X00150Y-10936D03*
X03690Y-08994D03*
X12187Y-09020D03*
X09390Y-07153D03*
X09544Y-15652D03*
G54D57*
X14922Y-05004D03*
X14912Y-13729D03*
X15010Y-14409D03*
X14840Y-21580D03*
G54D56*
X05501Y-15868D03*
X11158Y-09369D03*
X09309Y-07757D03*
X05104Y-15854D03*
X07615Y-14498D03*
X06956Y-18737D03*
X09084Y-07468D03*
X11813Y-10162D03*
X11035Y-09829D03*
X09090Y-07165D03*
G54D57*
X12674Y-14225D03*
G54D56*
X05330Y-11278D03*
X-01927Y-13379D03*
X02587Y-10085D03*
X02878Y-10435D03*
G54D57*
X12472Y-14791D03*
G54D56*
X11882Y03663D03*
G54D58*
X11648Y04597D03*
X12139Y00713D03*
X12198Y03226D03*
G54D57*
X-00907Y-06384D03*
G54D58*
X06396Y-05431D03*
X05614Y-05422D03*
G54D56*
X-00698Y-08993D03*
G54D57*
X-00309Y-03381D03*
X-00307Y-03688D03*
X-01492Y-03688D03*
X-01500Y-03378D03*
X-00899Y-02621D03*
X-00903Y-01844D03*
X-00899Y-01015D03*
X-00888Y-00336D03*
G54D56*
X-01097Y-04396D03*
G54D57*
X10098Y-17261D03*
X10691Y-17834D03*
G54D56*
X12597Y-06065D03*
X13198Y-06013D03*
X12035Y-06392D03*
G54D58*
X05501Y-04794D03*
G54D57*
X-02264Y-30549D03*
X05399Y-31016D03*
X04392Y-31013D03*
X06687Y-31888D03*
X11298Y-30397D03*
X10266Y-29399D03*
G54D58*
X-02102Y05592D03*
X-04044Y05582D03*
G54D56*
X07753Y-05296D03*
X09896Y-03927D03*
X09986Y-06120D03*
G54D58*
X06375Y-26692D03*
X14599Y-26688D03*
X-01795Y-26712D03*
G54D57*
X11583Y-31700D03*
X03891Y-29550D03*
G54D56*
X01299Y-09872D03*
X01622Y-10194D03*
X00946Y-10209D03*
X01295Y-10554D03*
X02841Y-09170D03*
X02877Y-08093D03*
X03303Y-06907D03*
X00868Y-06397D03*
G54D57*
X00721Y-15281D03*
X-00491Y-14328D03*
X00897Y-13604D03*
G54D56*
X01830Y-13195D03*
G54D57*
X07489Y-16159D03*
X02550Y-15603D03*
X02389Y-13744D03*
G54D56*
X01504Y-12197D03*
X04362Y-06820D03*
X06097Y-07539D03*
X07355Y-07494D03*
X06967Y-08015D03*
X05091Y-08619D03*
X05519Y-09788D03*
X05498Y-10364D03*
X07196Y-10307D03*
X06576Y-09995D03*
X06570Y-09357D03*
X07196Y-09372D03*
X07827Y-09385D03*
X06570Y-10307D03*
X07837Y-10314D03*
X07821Y-09688D03*
X06877Y-09679D03*
X07199Y-09998D03*
X07199Y-09998D03*
X07514Y-09995D03*
X07199Y-09685D03*
G54D57*
X07693Y-06297D03*
X12269Y-17039D03*
X00843Y-18003D03*
X03555Y-17528D03*
X06178Y-17956D03*
X03597Y-20667D03*
X06841Y-20401D03*
X05992Y-19419D03*
X-01960Y-20492D03*
X-03739Y-20142D03*
X-02240Y-23601D03*
X02888Y-19373D03*
G54D56*
X04189Y-13215D03*
X04687Y-08734D03*
X10404Y-12968D03*
X10336Y-06858D03*
X01397Y-07583D03*
X13821Y-11445D03*
X13054Y-11337D03*
X12159Y-10973D03*
X13008Y-10625D03*
X12173Y-10231D03*
X12971Y-09944D03*
X13862Y-08527D03*
X13359Y-13590D03*
G54D57*
X15030Y-01497D03*
X15305Y-10695D03*
X15296Y-12718D03*
X15305Y-18186D03*
X15324Y-21195D03*
X-00291Y-12766D03*
G54D56*
X00201Y-12175D03*
X-03586Y-18200D03*
X00556Y-07402D03*
X-00049Y-08250D03*
G54D57*
X15301Y-10249D03*
X08897Y-10345D03*
G54D56*
X-00397Y-11222D03*
X-00716Y-10603D03*
G54D57*
X15079Y-04499D03*
X08113Y-19699D03*
X-03995Y-23838D03*
G54D56*
X04031Y-07951D03*
G54D57*
X07765Y-11498D03*
X-00100Y-04527D03*
G54D58*
X08540Y04021D03*
X10989Y06038D03*
X11615Y05592D03*
X08040Y04408D03*
X13699Y00604D03*
G54D56*
X11401Y-00390D03*
X10199Y03801D03*
G54D58*
X02819Y04567D03*
X11600Y01198D03*
G54D56*
X03407Y-12322D03*
X11498Y-09843D03*
X09568Y-07504D03*
X09698Y-10490D03*
X12563Y-12421D03*
X10366Y-10485D03*
X12973Y-12183D03*
X05071Y-09790D03*
X09672Y-10147D03*
X12768Y-12296D03*
X10369Y-10148D03*
X13215Y-12038D03*
X05549Y-09121D03*
X01968Y-06794D03*
X07739Y-19041D03*
X-00903Y-03882D03*
X-01113Y-03187D03*
X-00693Y-03187D03*
X-00609Y-04641D03*
X09711Y-07153D03*
X13702Y-09532D03*
X10428Y-08906D03*
X13997Y-09507D03*
X11821Y-08904D03*
X10031Y-06855D03*
X11509Y-08911D03*
X10033Y-07166D03*
X11503Y-08594D03*
X10395Y-07320D03*
X12727Y-09535D03*
X08643Y-07911D03*
X12420Y-09053D03*
X10616Y-09103D03*
X12376Y-09466D03*
X08454Y-07156D03*
X01186Y-08868D03*
X03407Y-12059D03*
X00062Y-09551D03*
X00611Y-08805D03*
G54D57*
X09481Y-30011D03*
G54D56*
X00958Y-08836D03*
X01408Y-08937D03*
G54D57*
X09431Y-29658D03*
G54D56*
X00090Y-09880D03*
X10847Y01023D03*
X08968Y02296D03*
G54D58*
X07228Y03127D03*
X01853Y04547D03*
X08317Y06990D03*
X09164Y05618D03*
X08596Y06202D03*
X07703Y05556D03*
G54D56*
X06650Y-08717D03*
X07153Y-08719D03*
X07656Y-08723D03*
X08184Y-08724D03*
X06099Y-08720D03*
X08436Y-09385D03*
X05949Y-09371D03*
X07438Y-08009D03*
X-01101Y-10431D03*
X11194Y-08609D03*
X12159Y-11257D03*
X12205Y-10622D03*
X12192Y-09779D03*
X13035Y-10961D03*
X13003Y-10292D03*
X11166Y-11258D03*
X06195Y-10942D03*
X06601Y-10939D03*
X07192Y-10928D03*
X07596Y-10945D03*
X08150Y-10928D03*
X05948Y-10320D03*
X08450Y-10323D03*
X03361Y-10690D03*
X02003Y-12197D03*
X02378Y-12809D03*
G54D57*
X01168Y-16036D03*
X01652Y-15599D03*
G54D56*
X07003Y-14950D03*
G54D57*
X10064Y-14904D03*
X08390Y-15646D03*
X12292Y-17833D03*
X12409Y-19741D03*
G54D56*
X13371Y-13152D03*
X02208Y-07983D03*
X01429Y-06793D03*
G54D57*
X03413Y-19926D03*
X06404Y-19820D03*
G54D56*
X13904Y-07692D03*
X14299Y-10842D03*
X01003Y-12179D03*
X01412Y-13634D03*
X07461Y-19450D03*
X-04051Y-20158D03*
G54D57*
X15053Y-03499D03*
X15300Y-11719D03*
X15306Y-20776D03*
G54D56*
X04688Y-08114D03*
X04727Y-07545D03*
X05154Y-07546D03*
X05774Y-07546D03*
X06098Y-06771D03*
G54D57*
X-00202Y-11752D03*
X00099Y-27145D03*
X07519Y-31907D03*
X11580Y-32104D03*
X12087Y-05914D03*
X-01877Y-30432D03*
X06137Y-30694D03*
X03657Y-30703D03*
G54D59*
X00705Y-24459D02*
X00690Y-25215D01*
G54D60*
X17899Y-11898D02*
X17048Y-12580D01*
X00355Y-10298D02*
X00198Y-10251D01*
X00198Y-10251D02*
X00128Y-10187D01*
X00128Y-10187D02*
X-00269Y-10105D01*
X-00269Y-10105D02*
X-00622Y-09989D01*
X-00622Y-09989D02*
X-00808Y-09890D01*
X-00808Y-09890D02*
X-01025Y-09544D01*
X-01025Y-09544D02*
X-00980Y-08887D01*
X-00980Y-08887D02*
X-00449Y-08101D01*
X-00069Y-07819D02*
X00697Y-07650D01*
X00697Y-07650D02*
X01406Y-07256D01*
X01406Y-07256D02*
X02281Y-07087D01*
X02281Y-07087D02*
X02467Y-06796D01*
X02467Y-06796D02*
X02676Y-06369D01*
X02676Y-06369D02*
X02995Y-06159D01*
X02995Y-06159D02*
X04303Y-06200D01*
X-00449Y-08101D02*
X-00069Y-07819D01*
X04522Y-07953D02*
X04275Y-08102D01*
X04275Y-08102D02*
X04166Y-08112D01*
X04166Y-08112D02*
X04132Y-08132D01*
X04132Y-08132D02*
X04025Y-08193D01*
X04025Y-08193D02*
X03859Y-08377D01*
X02000Y-11603D02*
X01870Y-11465D01*
X01854Y-11374D02*
X01792Y-11145D01*
X01854Y-11374D02*
X01870Y-11465D01*
X04208Y-11103D02*
X03833Y-11101D01*
X01595Y-11145D02*
X01639Y-11350D01*
X01639Y-11350D02*
X01714Y-11480D01*
X01714Y-11480D02*
X01762Y-11737D01*
X01762Y-11737D02*
X01880Y-11810D01*
X01880Y-11810D02*
X02229Y-11791D01*
X02229Y-11791D02*
X02616Y-11621D01*
X02616Y-11621D02*
X03620Y-11194D01*
X03620Y-11194D02*
X03833Y-11101D01*
X10193Y-10788D02*
X11383Y-10790D01*
X11383Y-10790D02*
X11466Y-10840D01*
X11466Y-10840D02*
X11498Y-10928D01*
X11498Y-10928D02*
X11500Y-11056D01*
X11500Y-11056D02*
X11655Y-11260D01*
X09878Y-10788D02*
X10116Y-10938D01*
X10116Y-10938D02*
X10554Y-10969D01*
X10554Y-10969D02*
X11340Y-10945D01*
X13860Y-10315D02*
X14035Y-10541D01*
X14035Y-10541D02*
X14012Y-11368D01*
X14014Y-11576D02*
X14012Y-11368D01*
X10193Y-12362D02*
X10421Y-12362D01*
X13545Y-10630D02*
X13304Y-10779D01*
X13304Y-10779D02*
X13183Y-10789D01*
X13183Y-10789D02*
X12951Y-10796D01*
X12951Y-10796D02*
X12752Y-10887D01*
X12752Y-10887D02*
X12740Y-11436D01*
X12740Y-11436D02*
X12577Y-11721D01*
X12577Y-11721D02*
X12027Y-12003D01*
X12027Y-12003D02*
X11014Y-12363D01*
X11014Y-12363D02*
X10439Y-12533D01*
X10439Y-12533D02*
X10189Y-12523D01*
X10189Y-12523D02*
X10022Y-12512D01*
X10022Y-12512D02*
X09878Y-12363D01*
X13860Y-10630D02*
X13675Y-10789D01*
X13675Y-10789D02*
X13493Y-10792D01*
X13493Y-10792D02*
X13403Y-10848D01*
X13403Y-10848D02*
X13384Y-10988D01*
X13384Y-10988D02*
X13342Y-11058D01*
X13342Y-11058D02*
X13274Y-11097D01*
X13274Y-11097D02*
X13025Y-11136D01*
X13025Y-11136D02*
X12899Y-11212D01*
X12899Y-11212D02*
X12855Y-11335D01*
X12855Y-11335D02*
X12828Y-11541D01*
X12828Y-11541D02*
X12641Y-11817D01*
X12641Y-11817D02*
X11928Y-12163D01*
X11928Y-12163D02*
X10605Y-12613D01*
X10605Y-12613D02*
X10193Y-12678D01*
X13545Y-10945D02*
X13421Y-11129D01*
X13421Y-11129D02*
X13385Y-11246D01*
X13385Y-11246D02*
X13381Y-11363D01*
X13381Y-11363D02*
X13276Y-11540D01*
X13276Y-11540D02*
X12636Y-11940D01*
X12636Y-11940D02*
X11915Y-12281D01*
X11915Y-12281D02*
X10574Y-12730D01*
X10574Y-12730D02*
X10262Y-12823D01*
X10262Y-12823D02*
X10157Y-12839D01*
X10157Y-12839D02*
X10016Y-12746D01*
X10016Y-12746D02*
X09878Y-12678D01*
X09878Y-12993D02*
X09988Y-13207D01*
X09988Y-13207D02*
X10142Y-13274D01*
X10142Y-13274D02*
X10455Y-13267D01*
X10455Y-13267D02*
X11408Y-12873D01*
X11408Y-12873D02*
X13448Y-11716D01*
X13448Y-11716D02*
X13694Y-11336D01*
X13694Y-11336D02*
X13723Y-11129D01*
X13723Y-11129D02*
X13860Y-10945D01*
X09563Y-12993D02*
X09823Y-12839D01*
X09823Y-12839D02*
X09953Y-12839D01*
X09953Y-12839D02*
X10035Y-12942D01*
X10035Y-12942D02*
X10046Y-13084D01*
X10046Y-13084D02*
X10116Y-13153D01*
X10116Y-13153D02*
X10391Y-13168D01*
X10391Y-13168D02*
X11258Y-12826D01*
X11258Y-12826D02*
X13366Y-11647D01*
X13366Y-11647D02*
X13467Y-11489D01*
X13467Y-11489D02*
X13545Y-11260D01*
X10193Y-11103D02*
X10836Y-11109D01*
X10836Y-11109D02*
X11046Y-11403D01*
X11046Y-11403D02*
X11333Y-11472D01*
X11333Y-11472D02*
X11649Y-11461D01*
X11649Y-11461D02*
X11758Y-11409D01*
X11758Y-11409D02*
X11807Y-11296D01*
X11807Y-11296D02*
X11813Y-11193D01*
X11813Y-11193D02*
X11778Y-11072D01*
X11778Y-11072D02*
X11655Y-10945D01*
X09878Y-11103D02*
X09719Y-10963D01*
X09719Y-10963D02*
X09682Y-10803D01*
X09682Y-10803D02*
X09712Y-10679D01*
X09712Y-10679D02*
X09840Y-10632D01*
X09840Y-10632D02*
X10258Y-10634D01*
X10258Y-10634D02*
X10387Y-10667D01*
X10387Y-10667D02*
X11340Y-10630D01*
X11655Y-10630D02*
X11810Y-10784D01*
X11810Y-10784D02*
X12251Y-10788D01*
X12251Y-10788D02*
X12321Y-10855D01*
X12321Y-10855D02*
X12334Y-10980D01*
X12334Y-10980D02*
X12322Y-11326D01*
X12322Y-11326D02*
X12227Y-11428D01*
X12227Y-11428D02*
X11866Y-11532D01*
X11866Y-11532D02*
X11561Y-11575D01*
X11561Y-11575D02*
X11227Y-11572D01*
X11227Y-11572D02*
X10782Y-11462D01*
X10782Y-11462D02*
X10193Y-11418D01*
X09878Y-11418D02*
X09645Y-11343D01*
X09645Y-11343D02*
X09509Y-10767D01*
X09509Y-10767D02*
X09498Y-10424D01*
X09498Y-10424D02*
X09598Y-10314D01*
X09865Y-10313D02*
X09598Y-10314D01*
X09865Y-10313D02*
X10505Y-10321D01*
X10505Y-10321D02*
X11340Y-10315D01*
X11655Y-10315D02*
X11822Y-10465D01*
X11822Y-10465D02*
X12048Y-10473D01*
X12048Y-10473D02*
X12299Y-10445D01*
X12299Y-10445D02*
X12387Y-10498D01*
X12387Y-10498D02*
X12426Y-10691D01*
X12426Y-10691D02*
X12436Y-11044D01*
X12436Y-11044D02*
X12421Y-11363D01*
X12421Y-11363D02*
X12312Y-11509D01*
X12312Y-11509D02*
X11843Y-11643D01*
X11843Y-11643D02*
X11323Y-11705D01*
X11323Y-11705D02*
X10527Y-11720D01*
X10527Y-11720D02*
X10193Y-11733D01*
X11340Y-10000D02*
X10328Y-09981D01*
X10328Y-09981D02*
X10123Y-10012D01*
X10123Y-10012D02*
X09830Y-10002D01*
X09830Y-10002D02*
X09661Y-09976D01*
X09661Y-09976D02*
X09557Y-10011D01*
X09557Y-10011D02*
X09468Y-10115D01*
X09468Y-10115D02*
X09381Y-10389D01*
X09381Y-10389D02*
X09437Y-11226D01*
X09437Y-11226D02*
X09599Y-11644D01*
X09599Y-11644D02*
X09878Y-11733D01*
X13860Y-10000D02*
X13679Y-10141D01*
X13679Y-10141D02*
X13459Y-10169D01*
X13459Y-10169D02*
X13197Y-10156D01*
X13197Y-10156D02*
X12979Y-10115D01*
X12979Y-10115D02*
X12827Y-10158D01*
X12827Y-10158D02*
X12595Y-10445D01*
X12595Y-10445D02*
X12554Y-10702D01*
X12554Y-10702D02*
X12521Y-11394D01*
X12521Y-11394D02*
X12422Y-11566D01*
X12422Y-11566D02*
X11975Y-11792D01*
X11975Y-11792D02*
X10193Y-12048D01*
X10088Y-12201D02*
X09878Y-12048D01*
X10088Y-12201D02*
X10334Y-12204D01*
X10334Y-12204D02*
X12035Y-11885D01*
X12035Y-11885D02*
X12503Y-11638D01*
X12503Y-11638D02*
X12640Y-11389D01*
X12640Y-11389D02*
X12655Y-10704D01*
X12655Y-10704D02*
X12707Y-10535D01*
X12707Y-10535D02*
X12869Y-10469D01*
X12869Y-10469D02*
X13069Y-10454D01*
X13069Y-10454D02*
X13300Y-10477D01*
X13300Y-10477D02*
X13404Y-10475D01*
X13404Y-10475D02*
X13545Y-10315D01*
X05783Y-12993D02*
X06000Y-13703D01*
X04523Y-12993D02*
X04466Y-13523D01*
X04466Y-13523D02*
X04251Y-13782D01*
X04107Y-14237D02*
X04251Y-13782D01*
X04600Y-16103D02*
X04573Y-15863D01*
X00101Y-10385D02*
X00196Y-10461D01*
X00196Y-10461D02*
X00355Y-10495D01*
X-00703Y-10200D02*
X-00300Y-10405D01*
X-00300Y-10405D02*
X00101Y-10385D01*
X01202Y-11145D02*
X01251Y-11401D01*
X00355Y-09511D02*
X00367Y-09353D01*
X01615Y-09038D02*
X01595Y-09255D01*
X-00497Y-09800D02*
X-00662Y-09598D01*
X-00497Y-09400D02*
X-00662Y-09598D01*
X01615Y-09038D02*
X01838Y-08856D01*
X01838Y-08856D02*
X02052Y-08765D01*
X02052Y-08765D02*
X02200Y-08597D01*
X00600Y-08203D02*
X00601Y-07989D01*
X01000Y-08203D02*
X00998Y-07986D01*
X01400Y-08203D02*
X01395Y-07986D01*
X01800Y-08203D02*
X01799Y-07986D01*
G54D59*
X-00103Y-09000D02*
X00242Y-09173D01*
X00242Y-09173D02*
X00367Y-09353D01*
X-04050Y-08250D02*
X-07052Y-07948D01*
X-07052Y-07948D02*
X-07402Y-07380D01*
X-07402Y-07380D02*
X-07550Y-06851D01*
X-07550Y-06851D02*
X-07550Y-06330D01*
X-07550Y-11670D02*
X-07488Y-08757D01*
X-07488Y-08757D02*
X-07325Y-08259D01*
X-07325Y-08259D02*
X-07052Y-07948D01*
G54D60*
X06716Y-14509D02*
X06685Y-14884D01*
X06685Y-14884D02*
X06724Y-15587D01*
X06724Y-15587D02*
X06823Y-15843D01*
X06823Y-15843D02*
X06940Y-16086D01*
X06967Y-16410D02*
X06776Y-16784D01*
X06748Y-18259D02*
X06776Y-16784D01*
X06748Y-18259D02*
X06753Y-18920D01*
X06753Y-18920D02*
X07260Y-19904D01*
X07260Y-19904D02*
X08415Y-20403D01*
X08415Y-20403D02*
X14420Y-23188D01*
X14420Y-23188D02*
X15263Y-24231D01*
X15263Y-24231D02*
X15868Y-25771D01*
X15868Y-25771D02*
X16198Y-26025D01*
X16198Y-26025D02*
X16841Y-26041D01*
X16841Y-26041D02*
X16965Y-25971D01*
X16965Y-25971D02*
X17041Y-25798D01*
X17041Y-25798D02*
X17047Y-12571D01*
X06940Y-16086D02*
X06967Y-16410D01*
X06716Y-14509D02*
X07000Y-14097D01*
X06353Y-14763D02*
X06365Y-15217D01*
X06365Y-15217D02*
X06434Y-15730D01*
X06434Y-15730D02*
X06613Y-16146D01*
X06613Y-16146D02*
X06603Y-16427D01*
X06603Y-16427D02*
X06512Y-16609D01*
X06512Y-16609D02*
X06440Y-16807D01*
X06440Y-16807D02*
X06416Y-17056D01*
X06416Y-17056D02*
X06445Y-19038D01*
X06445Y-19038D02*
X06987Y-20109D01*
X06987Y-20109D02*
X07141Y-20233D01*
X07141Y-20233D02*
X14287Y-23510D01*
X14287Y-23510D02*
X15049Y-24519D01*
X15049Y-24519D02*
X15657Y-26062D01*
X15657Y-26062D02*
X16175Y-26371D01*
X16175Y-26371D02*
X17000Y-26340D01*
X17000Y-26340D02*
X17205Y-26214D01*
X17205Y-26214D02*
X17363Y-25818D01*
X17363Y-25818D02*
X17357Y-17310D01*
X17357Y-17310D02*
X17384Y-16192D01*
X17900Y-15898D02*
X17386Y-16188D01*
X06353Y-14763D02*
X06400Y-14097D01*
X06580Y-14872D02*
X06628Y-15656D01*
X06628Y-15656D02*
X06811Y-16063D01*
X06811Y-16063D02*
X06843Y-16426D01*
X06843Y-16426D02*
X06677Y-16755D01*
X06677Y-16755D02*
X06645Y-16956D01*
X06645Y-16956D02*
X06648Y-18959D01*
X06648Y-18959D02*
X07194Y-19995D01*
X07194Y-19995D02*
X14367Y-23286D01*
X14367Y-23286D02*
X15190Y-24322D01*
X15190Y-24322D02*
X15797Y-25866D01*
X15797Y-25866D02*
X16192Y-26143D01*
X16192Y-26143D02*
X16875Y-26142D01*
X16875Y-26142D02*
X17044Y-26041D01*
X17044Y-26041D02*
X17150Y-25803D01*
X17150Y-25803D02*
X17151Y-14419D01*
X07043Y-12993D02*
X06802Y-13544D01*
X06802Y-13544D02*
X06791Y-13981D01*
X06580Y-14872D02*
X06610Y-14450D01*
X06610Y-14450D02*
X06785Y-14204D01*
X06785Y-14204D02*
X06791Y-13981D01*
X17151Y-14419D02*
X17899Y-13898D01*
X06625Y-13462D02*
X06619Y-14152D01*
X06465Y-14609D02*
X06461Y-15022D01*
X06461Y-15022D02*
X06530Y-15690D01*
X06530Y-15690D02*
X06712Y-16089D01*
X06712Y-16089D02*
X06728Y-16419D01*
X06728Y-16419D02*
X06580Y-16721D01*
X06580Y-16721D02*
X06522Y-17003D01*
X06547Y-19011D02*
X07138Y-20102D01*
X06522Y-17003D02*
X06547Y-19011D01*
X07138Y-20102D02*
X14318Y-23386D01*
X14318Y-23386D02*
X15116Y-24411D01*
X15116Y-24411D02*
X15721Y-25949D01*
X15721Y-25949D02*
X16185Y-26260D01*
X16185Y-26260D02*
X16953Y-26241D01*
X16953Y-26241D02*
X17120Y-26149D01*
X17120Y-26149D02*
X17259Y-25799D01*
X17259Y-25799D02*
X17253Y-15451D01*
X17253Y-15451D02*
X17505Y-14999D01*
X17900Y-14898D02*
X17506Y-15002D01*
X06619Y-14152D02*
X06477Y-14500D01*
X06477Y-14500D02*
X06465Y-14609D01*
X06625Y-13462D02*
X06728Y-12993D01*
X06413Y-12678D02*
X06384Y-12030D01*
X06384Y-12030D02*
X06308Y-11890D01*
X06308Y-11890D02*
X05985Y-11657D01*
X02245Y-10889D02*
X02539Y-10943D01*
X05194Y-11413D02*
X04969Y-10816D01*
X05985Y-11657D02*
X05194Y-11413D01*
X04208Y-10788D02*
X03800Y-10819D01*
X03800Y-10819D02*
X03387Y-10881D01*
X03387Y-10881D02*
X03194Y-10921D01*
X03194Y-10921D02*
X02631Y-11153D01*
X02631Y-11153D02*
X01989Y-11145D01*
G54D59*
X15303Y-23500D02*
X15297Y-23200D01*
X15303Y-06500D02*
X15320Y-06792D01*
G54D60*
X07003Y-15700D02*
X06818Y-15455D01*
X06818Y-15455D02*
X06824Y-14539D01*
X06824Y-14539D02*
X06967Y-14417D01*
X07672Y-13475D02*
X07944Y-13193D01*
X07944Y-13193D02*
X07988Y-12992D01*
X15303Y-15000D02*
X15603Y-14641D01*
X07503Y-13755D02*
X07672Y-13475D01*
X09206Y-18222D02*
X09669Y-18228D01*
X09206Y-18222D02*
X07999Y-17215D01*
X06967Y-14417D02*
X07155Y-14420D01*
X07155Y-14420D02*
X07283Y-14317D01*
X07283Y-14317D02*
X07503Y-13755D01*
X05900Y-16103D02*
X05901Y-15859D01*
X07003Y-15700D02*
X07177Y-16324D01*
X07800Y-14097D02*
X08367Y-14446D01*
X08367Y-14446D02*
X09013Y-15384D01*
X09013Y-15384D02*
X09563Y-16121D01*
X09563Y-16121D02*
X10063Y-16150D01*
G54D59*
X15303Y-05500D02*
X15309Y-05761D01*
X15303Y-14000D02*
X15301Y-14316D01*
X15303Y-22500D02*
X15305Y-22738D01*
G54D61*
X10063Y-16150D02*
X10503Y-16200D01*
G54D60*
X06300Y-16103D02*
X06302Y-15863D01*
G54D61*
X16400Y-11000D02*
X15697Y-11000D01*
G54D59*
X16918Y-02909D02*
X16400Y-02500D01*
X16918Y-02909D02*
X16918Y-10463D01*
X16918Y-10463D02*
X16400Y-11000D01*
X16918Y-11515D02*
X16400Y-11000D01*
X16918Y-11515D02*
X16918Y-19029D01*
X16918Y-19029D02*
X16400Y-19500D01*
G54D60*
X04523Y-12363D02*
X04731Y-12368D01*
X15697Y-11000D02*
X15473Y-11371D01*
X15473Y-11371D02*
X15195Y-11401D01*
X15195Y-11401D02*
X14739Y-11844D01*
G54D61*
X15697Y-03500D02*
X16400Y-03500D01*
G54D60*
X15697Y-03500D02*
X14954Y-04214D01*
X14954Y-04214D02*
X14686Y-04976D01*
X14686Y-04976D02*
X14494Y-11358D01*
X14494Y-11358D02*
X14368Y-11601D01*
X05160Y-12475D02*
X05153Y-12678D01*
X05160Y-12475D02*
X05259Y-12244D01*
X05259Y-12244D02*
X05269Y-12067D01*
X05269Y-12067D02*
X05245Y-11971D01*
X05245Y-11971D02*
X05171Y-11919D01*
X05171Y-11919D02*
X05022Y-11909D01*
X05022Y-11909D02*
X04909Y-11979D01*
X04909Y-11979D02*
X04650Y-12162D01*
X04650Y-12162D02*
X04535Y-12209D01*
X04535Y-12209D02*
X04459Y-12203D01*
X04459Y-12203D02*
X04360Y-12292D01*
X04360Y-12292D02*
X04366Y-12442D01*
X04366Y-12442D02*
X04308Y-12514D01*
X04308Y-12514D02*
X04144Y-12524D01*
X04144Y-12524D02*
X03936Y-12619D01*
X03936Y-12619D02*
X03755Y-13181D01*
X03857Y-15435D02*
X03123Y-16759D01*
X03755Y-13181D02*
X03740Y-13351D01*
X02640Y-17531D02*
X02659Y-17227D01*
X02659Y-17227D02*
X02826Y-17052D01*
X02826Y-17052D02*
X03123Y-16759D01*
G54D61*
X16400Y-12000D02*
X15697Y-12000D01*
G54D60*
X15697Y-12000D02*
X15496Y-12314D01*
X15496Y-12314D02*
X14857Y-12314D01*
X14857Y-12314D02*
X14574Y-12301D01*
X04838Y-12678D02*
X04997Y-12836D01*
X04997Y-12836D02*
X05000Y-13391D01*
X05000Y-13391D02*
X04464Y-13856D01*
X04464Y-13856D02*
X04345Y-14406D01*
X04345Y-14406D02*
X03365Y-15870D01*
X03365Y-15870D02*
X02754Y-16764D01*
X02128Y-17531D02*
X02132Y-17025D01*
G54D61*
X16400Y-20500D02*
X15697Y-20500D01*
G54D60*
X15697Y-20500D02*
X15123Y-19438D01*
X15123Y-19438D02*
X14848Y-14961D01*
X14848Y-14961D02*
X14714Y-14502D01*
X14714Y-14502D02*
X14592Y-13619D01*
X04208Y-12678D02*
X04067Y-12823D01*
X14459Y-13424D02*
X14592Y-13619D01*
X02835Y-15588D02*
X03803Y-13936D01*
X03803Y-13936D02*
X04027Y-13340D01*
X04027Y-13340D02*
X04014Y-12985D01*
X04014Y-12985D02*
X04067Y-12823D01*
X01616Y-17531D02*
X01628Y-17155D01*
X01628Y-17155D02*
X02011Y-16490D01*
X02011Y-16490D02*
X02835Y-15588D01*
X16400Y-07500D02*
X14773Y-08459D01*
X14773Y-08459D02*
X14675Y-08713D01*
X14675Y-08713D02*
X14591Y-11497D01*
X05153Y-12993D02*
X05169Y-13251D01*
X14591Y-11497D02*
X14371Y-12190D01*
X14383Y-12787D02*
X14371Y-12190D01*
X05169Y-13251D02*
X05079Y-13472D01*
X05079Y-13472D02*
X04897Y-13675D01*
X04897Y-13675D02*
X04767Y-14619D01*
X04767Y-14619D02*
X03524Y-16507D01*
X02896Y-17531D02*
X02920Y-17205D01*
X02920Y-17205D02*
X03173Y-16966D01*
X03173Y-16966D02*
X03524Y-16507D01*
X16400Y-16000D02*
X15103Y-15495D01*
X15103Y-15495D02*
X14813Y-14461D01*
X14813Y-14461D02*
X14714Y-13764D01*
X14714Y-13764D02*
X14685Y-13558D01*
X14685Y-13558D02*
X14681Y-12735D01*
X04838Y-12993D02*
X04833Y-13240D01*
X14589Y-12561D02*
X14681Y-12735D01*
X04833Y-13240D02*
X04368Y-13798D01*
X04368Y-13798D02*
X04261Y-14321D01*
X04261Y-14321D02*
X03256Y-15849D01*
X02533Y-16777D02*
X03256Y-15849D01*
X02384Y-17531D02*
X02389Y-17196D01*
X02389Y-17196D02*
X02533Y-16777D01*
X16400Y-24500D02*
X15061Y-23665D01*
X15061Y-23665D02*
X14592Y-21636D01*
X14592Y-21636D02*
X14662Y-20959D01*
X14662Y-20959D02*
X14890Y-17860D01*
X14890Y-17860D02*
X14598Y-14420D01*
X04523Y-12678D02*
X04367Y-12837D01*
X14598Y-14420D02*
X14542Y-13995D01*
X14542Y-13995D02*
X14244Y-13571D01*
X02898Y-15704D02*
X04012Y-13961D01*
X04012Y-13961D02*
X04324Y-13442D01*
X04324Y-13442D02*
X04366Y-13149D01*
X04366Y-13149D02*
X04367Y-12837D01*
X01872Y-17531D02*
X01876Y-17115D01*
X01876Y-17115D02*
X01943Y-16892D01*
X02096Y-16576D02*
X02898Y-15704D01*
X01943Y-16892D02*
X02096Y-16576D01*
X04523Y-11418D02*
X04693Y-11418D01*
X01360Y-17531D02*
X01353Y-17011D01*
X04208Y-11418D02*
X03883Y-11425D01*
X01104Y-17531D02*
X01119Y-16989D01*
X02245Y-10692D02*
X02476Y-10696D01*
X02476Y-10696D02*
X02703Y-10700D01*
X06098Y-12993D02*
X06258Y-12811D01*
X06258Y-12811D02*
X06251Y-12579D01*
X06251Y-12579D02*
X06295Y-12296D01*
X06295Y-12296D02*
X06268Y-12034D01*
X06268Y-12034D02*
X05945Y-11752D01*
X04797Y-10899D02*
X04865Y-11016D01*
X04797Y-10899D02*
X04802Y-10663D01*
X04802Y-10663D02*
X04910Y-10552D01*
X04865Y-11016D02*
X05113Y-11494D01*
X05113Y-11494D02*
X05945Y-11752D01*
X04522Y-07638D02*
X04314Y-07789D01*
X04314Y-07789D02*
X04135Y-07794D01*
X03757Y-07821D02*
X03916Y-07743D01*
X02245Y-10495D02*
X02595Y-10439D01*
X03757Y-07821D02*
X03668Y-08346D01*
X03668Y-08346D02*
X03430Y-08648D01*
X03430Y-08648D02*
X02934Y-08721D01*
X02934Y-08721D02*
X02704Y-08689D01*
X02704Y-08689D02*
X02623Y-08523D01*
X02623Y-08523D02*
X02587Y-08019D01*
X02587Y-08019D02*
X02478Y-07850D01*
X02478Y-07850D02*
X02089Y-07584D01*
X03916Y-07743D02*
X04135Y-07794D01*
X05468Y-12993D02*
X05600Y-13703D01*
X05468Y-12678D02*
X05308Y-12834D01*
X05308Y-12834D02*
X05306Y-13065D01*
X05376Y-13273D02*
X05200Y-13703D01*
X05306Y-13065D02*
X05364Y-13115D01*
X05364Y-13115D02*
X05376Y-13273D01*
X-03100Y-19503D02*
X-02317Y-18595D01*
X-02317Y-18595D02*
X-02156Y-17849D01*
X-02156Y-17849D02*
X-02526Y-16636D01*
X-02526Y-16636D02*
X-02519Y-13548D01*
X-02519Y-13548D02*
X-02163Y-13200D01*
X07358Y-12678D02*
X07267Y-12504D01*
X07267Y-12504D02*
X06389Y-11686D01*
X06389Y-11686D02*
X05998Y-11423D01*
X05998Y-11423D02*
X05296Y-11056D01*
X05296Y-11056D02*
X05225Y-11042D01*
X04522Y-08583D02*
X04290Y-08730D01*
X04290Y-08730D02*
X04146Y-08744D01*
X04146Y-08744D02*
X03902Y-08837D01*
X00355Y-10692D02*
X00112Y-10638D01*
X00112Y-10638D02*
X-00103Y-10600D01*
X01000Y-11603D02*
X00998Y-11428D01*
X01005Y-11145D02*
X00998Y-11428D01*
X04523Y-10158D02*
X04668Y-10364D01*
X04668Y-10364D02*
X04701Y-10690D01*
X04701Y-10690D02*
X04674Y-10861D01*
X04674Y-10861D02*
X04600Y-10939D01*
X04600Y-10939D02*
X04405Y-10949D01*
X04405Y-10949D02*
X04093Y-10949D01*
X04093Y-10949D02*
X03518Y-11026D01*
X03518Y-11026D02*
X02372Y-11420D01*
X04207Y-09528D02*
X03676Y-09546D01*
X00600Y-11603D02*
X00734Y-11447D01*
X00808Y-11145D02*
X00734Y-11447D01*
X03549Y-09199D02*
X04207Y-09213D01*
X00200Y-11603D02*
X00348Y-11383D01*
X00348Y-11383D02*
X00564Y-11315D01*
X00564Y-11315D02*
X00611Y-11145D01*
X04522Y-08898D02*
X04354Y-09060D01*
X04354Y-09060D02*
X04051Y-09057D01*
X04051Y-09057D02*
X03690Y-08994D01*
X00150Y-10936D02*
X00355Y-10889D01*
X00150Y-10936D02*
X-00103Y-11000D01*
X04522Y-08268D02*
X04307Y-08425D01*
X04307Y-08425D02*
X04115Y-08431D01*
X04115Y-08431D02*
X03802Y-08668D01*
X03802Y-08668D02*
X02970Y-08965D01*
X02970Y-08965D02*
X01956Y-09016D01*
X01956Y-09016D02*
X01810Y-09063D01*
X01810Y-09063D02*
X01792Y-09255D01*
X04523Y-11103D02*
X04270Y-11264D01*
X04270Y-11264D02*
X03967Y-11233D01*
X03732Y-11267D02*
X02659Y-11752D01*
X02659Y-11752D02*
X02269Y-12239D01*
X02269Y-12239D02*
X02115Y-12384D01*
X02115Y-12384D02*
X01900Y-12381D01*
X01900Y-12381D02*
X01774Y-12230D01*
X01774Y-12230D02*
X01734Y-11930D01*
X01734Y-11930D02*
X01664Y-11799D01*
X01664Y-11799D02*
X01500Y-11603D01*
X01518Y-11624D02*
X01418Y-11356D01*
X01418Y-11356D02*
X01398Y-11145D01*
X03967Y-11233D02*
X03732Y-11267D01*
X11970Y-09685D02*
X12125Y-09442D01*
X12187Y-09020D02*
X12125Y-09442D01*
X09248Y-07008D02*
X09390Y-07153D01*
X08500Y-14097D02*
X09007Y-14936D01*
X09007Y-14936D02*
X09544Y-15652D01*
X09544Y-15652D02*
X10063Y-15650D01*
G54D61*
X10063Y-15650D02*
X10503Y-15600D01*
G54D60*
X14840Y-21580D02*
X15303Y-22000D01*
X15303Y-05000D02*
X14922Y-05004D01*
X15303Y-13500D02*
X15178Y-13618D01*
X14912Y-13729D02*
X15010Y-14409D01*
G54D62*
X14912Y-13729D02*
X15010Y-14409D01*
G54D60*
X14912Y-13729D02*
X15178Y-13618D01*
X05500Y-16103D02*
X05501Y-15868D01*
X11340Y-09370D02*
X11158Y-09369D01*
X08618Y-07323D02*
X08704Y-07475D01*
X08704Y-07475D02*
X08980Y-07700D01*
X08980Y-07700D02*
X09309Y-07757D01*
X08303Y-12992D02*
X08206Y-13714D01*
X08206Y-13714D02*
X08055Y-13876D01*
X08055Y-13876D02*
X07915Y-13899D01*
X07915Y-13899D02*
X07657Y-13904D01*
X07657Y-13904D02*
X07567Y-13986D01*
X07567Y-13986D02*
X07539Y-14260D01*
X07539Y-14260D02*
X07615Y-14498D01*
X07615Y-14498D02*
X07937Y-14650D01*
X07397Y-14700D02*
X07937Y-14650D01*
X07331Y-18740D02*
X06956Y-18737D01*
X05100Y-16103D02*
X05104Y-15854D01*
X11813Y-09847D02*
X11655Y-09685D01*
X08933Y-07323D02*
X09084Y-07468D01*
X11813Y-10162D02*
X11813Y-09847D01*
X11035Y-09829D02*
X11340Y-09685D01*
X08933Y-07008D02*
X09087Y-07169D01*
X09563Y-12677D02*
X09406Y-12871D01*
X09406Y-12871D02*
X09410Y-13097D01*
X09410Y-13097D02*
X09623Y-13250D01*
X09623Y-13250D02*
X10185Y-13389D01*
X10185Y-13389D02*
X11789Y-13326D01*
X11789Y-13326D02*
X12352Y-13654D01*
X12352Y-13654D02*
X12651Y-13813D01*
X12651Y-13813D02*
X13481Y-13903D01*
X13481Y-13903D02*
X13644Y-14138D01*
X13644Y-14138D02*
X13712Y-14433D01*
X13712Y-14433D02*
X13688Y-16665D01*
X13688Y-16665D02*
X13200Y-17400D01*
X08618Y-12992D02*
X08703Y-13286D01*
X08703Y-13286D02*
X09019Y-13604D01*
X09019Y-13604D02*
X09659Y-13851D01*
X09659Y-13851D02*
X10472Y-13936D01*
X10472Y-13936D02*
X11639Y-13885D01*
X11975Y-14120D02*
X11639Y-13885D01*
X11975Y-14120D02*
X12345Y-15009D01*
X12345Y-15009D02*
X13200Y-15400D01*
X08933Y-12992D02*
X08986Y-13193D01*
X08986Y-13193D02*
X09369Y-13508D01*
X09369Y-13508D02*
X09726Y-13635D01*
X09726Y-13635D02*
X10254Y-13708D01*
X10254Y-13708D02*
X11707Y-13653D01*
X11707Y-13653D02*
X12249Y-14007D01*
X12249Y-14007D02*
X12384Y-14295D01*
X12546Y-14433D02*
X13200Y-14400D01*
X12384Y-14295D02*
X12546Y-14433D01*
X09248Y-12677D02*
X09087Y-12887D01*
X09087Y-12887D02*
X09091Y-13121D01*
X09091Y-13121D02*
X09305Y-13319D01*
X09305Y-13319D02*
X09594Y-13481D01*
X09594Y-13481D02*
X10219Y-13601D01*
X10219Y-13601D02*
X11713Y-13536D01*
X11713Y-13536D02*
X12209Y-13835D01*
X12674Y-14225D02*
X12209Y-13835D01*
X-02600Y-19503D02*
X-02217Y-18619D01*
X-02217Y-18619D02*
X-02051Y-17838D01*
X-02051Y-17838D02*
X-02425Y-16560D01*
X-02425Y-16560D02*
X-02419Y-13834D01*
X-02419Y-13834D02*
X-01927Y-13379D01*
X07358Y-12993D02*
X07203Y-12741D01*
X07203Y-12741D02*
X07194Y-12582D01*
X07194Y-12582D02*
X06323Y-11763D01*
X06323Y-11763D02*
X05983Y-11534D01*
X05330Y-11278D02*
X05983Y-11534D01*
X04208Y-10473D02*
X03791Y-10462D01*
X03791Y-10462D02*
X02949Y-10270D01*
X02949Y-10270D02*
X02593Y-10260D01*
X02593Y-10260D02*
X02245Y-10298D01*
X04523Y-10473D02*
X04348Y-10316D01*
X04348Y-10316D02*
X03920Y-10324D01*
X03920Y-10324D02*
X03102Y-10114D01*
X03102Y-10114D02*
X02703Y-09878D01*
X02703Y-09878D02*
X02469Y-09865D01*
X02469Y-09865D02*
X02245Y-09905D01*
X04298Y-09984D02*
X04199Y-10000D01*
X04199Y-10000D02*
X03828Y-10002D01*
X03828Y-10002D02*
X03174Y-09895D01*
X03174Y-09895D02*
X02569Y-09711D01*
X02569Y-09711D02*
X02245Y-09708D01*
X04298Y-09984D02*
X04385Y-09926D01*
X04385Y-09926D02*
X04523Y-09843D01*
X04522Y-09528D02*
X04301Y-09666D01*
X04301Y-09666D02*
X04199Y-09689D01*
X04199Y-09689D02*
X03807Y-09742D01*
X03807Y-09742D02*
X03365Y-09691D01*
X03365Y-09691D02*
X02737Y-09565D01*
X02737Y-09565D02*
X02245Y-09511D01*
X04522Y-09213D02*
X04260Y-09369D01*
X04260Y-09369D02*
X03991Y-09369D01*
X03991Y-09369D02*
X03613Y-09376D01*
X01989Y-09255D02*
X02197Y-09257D01*
X03613Y-09376D02*
X02791Y-09369D01*
X02791Y-09369D02*
X02197Y-09257D01*
X04523Y-10788D02*
X04284Y-10627D01*
X04284Y-10627D02*
X03928Y-10638D01*
X03542Y-10574D02*
X03928Y-10638D01*
X02245Y-10102D02*
X02587Y-10085D01*
X03542Y-10574D02*
X03106Y-10434D01*
X02878Y-10435D02*
X03106Y-10434D01*
X08933Y-12677D02*
X08776Y-12891D01*
X08776Y-12891D02*
X08784Y-13206D01*
X08784Y-13206D02*
X09034Y-13476D01*
X09034Y-13476D02*
X09648Y-13738D01*
X09648Y-13738D02*
X10445Y-13832D01*
X11712Y-13780D02*
X10445Y-13832D01*
X11712Y-13780D02*
X12116Y-14065D01*
X12472Y-14791D02*
X12116Y-14065D01*
G54D61*
X13200Y-20400D02*
X12400Y-20397D01*
G54D60*
X09248Y-12992D02*
X09333Y-13169D01*
X09333Y-13169D02*
X09575Y-13355D01*
X09575Y-13355D02*
X10185Y-13492D01*
X10185Y-13492D02*
X11745Y-13431D01*
X11745Y-13431D02*
X12289Y-13741D01*
X12289Y-13741D02*
X12593Y-13914D01*
X12593Y-13914D02*
X13406Y-13997D01*
X13406Y-13997D02*
X13551Y-14181D01*
X13551Y-14181D02*
X13609Y-14437D01*
X13609Y-14437D02*
X13595Y-15938D01*
X13595Y-15938D02*
X13200Y-16400D01*
G54D61*
X13200Y-16400D02*
X12400Y-16403D01*
G54D60*
X04523Y-11733D02*
X04344Y-11579D01*
X04344Y-11579D02*
X04051Y-11577D01*
X03127Y-12012D02*
X03329Y-11639D01*
X03127Y-12012D02*
X03142Y-12917D01*
X03142Y-12917D02*
X03073Y-12993D01*
X03073Y-12993D02*
X02790Y-13000D01*
X03329Y-11639D02*
X03488Y-11577D01*
X03883Y-11627D02*
X03488Y-11577D01*
X04051Y-11577D02*
X03883Y-11627D01*
X03057Y-13193D02*
X02790Y-13196D01*
X03225Y-13026D02*
X03057Y-13193D01*
X03225Y-13026D02*
X03250Y-12886D01*
X03235Y-12028D02*
X03373Y-11776D01*
X03533Y-11726D02*
X04208Y-11733D01*
X03235Y-12028D02*
X03250Y-12886D01*
X03373Y-11776D02*
X03533Y-11726D01*
X02790Y-13392D02*
X03113Y-13371D01*
X03113Y-13371D02*
X03335Y-13206D01*
X03335Y-13206D02*
X03638Y-12661D01*
X03638Y-12661D02*
X03823Y-12466D01*
X03823Y-12466D02*
X04208Y-12363D01*
X10600Y00197D02*
X10404Y00362D01*
X10404Y00362D02*
X10332Y00708D01*
G54D61*
X08900Y00000D02*
X09531Y00366D01*
X09531Y00366D02*
X10109Y00568D01*
X10109Y00568D02*
X10332Y00708D01*
G54D60*
X10600Y00197D02*
X10828Y00001D01*
X10828Y00001D02*
X11603Y00006D01*
X11603Y00006D02*
X11800Y-00197D01*
G54D63*
X11000Y04400D02*
X09800Y04400D01*
X11000Y04400D02*
X11648Y04597D01*
X11648Y04597D02*
X12800Y05887D01*
X12800Y05887D02*
X14400Y05800D01*
G54D60*
X11612Y02893D02*
X11868Y02893D01*
X11600Y03798D02*
X11772Y03795D01*
X11772Y03795D02*
X11882Y03663D01*
X11882Y03663D02*
X11868Y02893D01*
G54D63*
X14400Y05800D02*
X17000Y05300D01*
X12800Y04313D02*
X14400Y04600D01*
G54D61*
X11200Y03798D02*
X11315Y03997D01*
X11315Y03997D02*
X11742Y04071D01*
X11742Y04071D02*
X12800Y04313D01*
X11868Y00708D02*
X12139Y00713D01*
G54D63*
X12198Y03226D02*
X12420Y03831D01*
X12420Y03831D02*
X12800Y04313D01*
G54D60*
X10588Y00708D02*
X10649Y00469D01*
X10649Y00469D02*
X10844Y00388D01*
X10844Y00388D02*
X11000Y00197D01*
X11000Y00197D02*
X11400Y00197D01*
X11400Y00197D02*
X11800Y00197D01*
G54D63*
X13100Y01800D02*
X14300Y01800D01*
X13100Y02487D02*
X13100Y01800D01*
G54D60*
X11100Y00708D02*
X11149Y00448D01*
X11149Y00448D02*
X11388Y00381D01*
X11388Y00381D02*
X12294Y00383D01*
X12294Y00383D02*
X12448Y00518D01*
X12448Y00518D02*
X12542Y00877D01*
X12542Y00877D02*
X12635Y01521D01*
X12635Y01521D02*
X13100Y01800D01*
X-00512Y-06400D02*
X-00197Y-06549D01*
X-00197Y-06549D02*
X-00110Y-06690D01*
X-00110Y-06690D02*
X-00101Y-07145D01*
X-00101Y-07145D02*
X-00097Y-07400D01*
X-00101Y-07145D02*
X00816Y-07113D01*
X00816Y-07113D02*
X01487Y-06267D01*
X01487Y-06267D02*
X01599Y-06160D01*
X01599Y-06160D02*
X01898Y-06024D01*
X01898Y-06024D02*
X02913Y-05950D01*
X02913Y-05950D02*
X04516Y-05906D01*
X04516Y-05906D02*
X04882Y-05968D01*
X04882Y-05968D02*
X05147Y-06134D01*
X05147Y-06134D02*
X05283Y-06808D01*
X05283Y-06808D02*
X05322Y-07077D01*
X05322Y-07077D02*
X05468Y-07323D01*
G54D61*
X-00512Y-06400D02*
X-00803Y-06381D01*
X-00803Y-06381D02*
X-00907Y-06384D01*
G54D64*
X06396Y-05431D02*
X07071Y-04800D01*
X04641Y-05410D02*
X05614Y-05422D01*
X04641Y-05410D02*
X03929Y-04800D01*
X03087Y-04800D02*
X03929Y-04800D01*
X05614Y-05422D02*
X06396Y-05431D01*
G54D61*
X08003Y-03800D02*
X08000Y-04203D01*
X08000Y-04203D02*
X08400Y-04203D01*
X07071Y-04800D02*
X07703Y-04283D01*
X07703Y-04283D02*
X08000Y-04203D01*
G54D59*
X-00497Y-09000D02*
X-00698Y-08993D01*
X-00900Y-02944D02*
X-00900Y-03535D01*
X-00900Y-03535D02*
X-00309Y-03381D01*
X-00900Y-03535D02*
X-00307Y-03688D01*
X-00900Y-03535D02*
X-01492Y-03688D01*
X-00900Y-03535D02*
X-01500Y-03378D01*
G54D61*
X-00900Y-02944D02*
X-00899Y-02621D01*
G54D63*
X-00899Y-02621D02*
X-00903Y-01844D01*
X-00903Y-01844D02*
X-00899Y-01015D01*
X-00899Y-01015D02*
X-00888Y-00336D01*
X-00695Y-00335D02*
X-00888Y-00336D01*
X-01105Y-00335D02*
X-00888Y-00336D01*
G54D59*
X-01195Y-05035D02*
X-01197Y-04635D01*
X-01197Y-04635D02*
X-01097Y-04396D01*
X-01097Y-04396D02*
X-01097Y-04126D01*
G54D60*
X-01097Y-04126D02*
X-01097Y-03698D01*
X-01097Y-03698D02*
X-01008Y-03563D01*
X09669Y-17972D02*
X09669Y-17716D01*
X09669Y-17716D02*
X09669Y-17460D01*
X09669Y-17460D02*
X09669Y-17204D01*
X09669Y-17204D02*
X09669Y-16948D01*
X09669Y-17204D02*
X10098Y-17261D01*
X10303Y-17300D02*
X10098Y-17261D01*
G54D61*
X10697Y-18100D02*
X10691Y-17834D01*
G54D59*
X12600Y-05826D02*
X12597Y-06065D01*
X13400Y-06003D02*
X13198Y-06013D01*
X11800Y-06397D02*
X12035Y-06392D01*
X12035Y-06392D02*
X12597Y-06065D01*
X12597Y-06065D02*
X13199Y-06029D01*
G54D64*
X05071Y-04800D02*
X04792Y-03343D01*
X05071Y-04800D02*
X05501Y-04794D01*
X05929Y-04800D02*
X05501Y-04794D01*
X04792Y-03343D02*
X05776Y-03343D01*
X05539Y-03343D02*
X06761Y-03343D01*
G54D60*
X-02100Y-30700D02*
X-02264Y-30549D01*
X-02264Y-30549D02*
X-02297Y-30200D01*
X-00100Y-30700D02*
X-00009Y-30477D01*
X-00009Y-30477D02*
X00794Y-30005D01*
X00794Y-30005D02*
X01100Y-29500D01*
X05400Y-30700D02*
X05399Y-31016D01*
X04400Y-30700D02*
X04392Y-31013D01*
X06903Y-31900D02*
X06687Y-31888D01*
X11297Y-30700D02*
X11298Y-30397D01*
X10269Y-30672D02*
X10269Y-30416D01*
X10269Y-30446D02*
X10269Y-30160D01*
X10269Y-30187D02*
X10269Y-29904D01*
X10269Y-29904D02*
X10269Y-29648D01*
X10269Y-29648D02*
X10266Y-29399D01*
G54D64*
X-03100Y05581D02*
X-02102Y05592D01*
X-03100Y05581D02*
X-04044Y05582D01*
G54D61*
X08000Y-05297D02*
X07753Y-05296D01*
X09900Y-04203D02*
X09896Y-03927D01*
X09987Y-05874D02*
X09986Y-06120D01*
G54D59*
X-01310Y-26707D02*
X-00310Y-26707D01*
X-00310Y-26707D02*
X00690Y-26707D01*
X00690Y-26707D02*
X01690Y-26707D01*
X01690Y-26707D02*
X02690Y-26707D01*
X02690Y-26707D02*
X03690Y-26707D01*
X03690Y-26707D02*
X04690Y-26707D01*
X04634Y-26707D02*
X05690Y-26707D01*
X07083Y-26693D02*
X08083Y-26693D01*
X08028Y-26693D02*
X09083Y-26693D01*
X09083Y-26693D02*
X10083Y-26693D01*
X10083Y-26693D02*
X11083Y-26693D01*
X11083Y-26693D02*
X12083Y-26693D01*
X12083Y-26693D02*
X13083Y-26693D01*
X13083Y-26693D02*
X14083Y-26693D01*
X05690Y-26707D02*
X06375Y-26692D01*
X07083Y-26693D02*
X06375Y-26692D01*
X14083Y-26693D02*
X14599Y-26688D01*
X-01310Y-26707D02*
X-01795Y-26712D01*
X17100Y-27197D02*
X17900Y-26898D01*
G54D60*
X11297Y-31700D02*
X11583Y-31700D01*
G54D61*
X03900Y-29803D02*
X03891Y-29550D01*
X01654Y-10554D02*
X01622Y-10194D01*
X01654Y-09846D02*
X01622Y-10194D01*
X00946Y-09846D02*
X01299Y-09872D01*
X01654Y-09846D02*
X01299Y-09872D01*
X00946Y-10554D02*
X01295Y-10554D01*
X00946Y-10554D02*
X00946Y-10209D01*
X00946Y-10209D02*
X00946Y-09846D01*
X01295Y-10554D02*
X01654Y-10554D01*
G54D60*
X02903Y-08300D02*
X02877Y-08093D01*
X02854Y-07825D02*
X02877Y-08093D01*
X03346Y-07175D02*
X03303Y-06907D01*
X03297Y-06700D02*
X03303Y-06907D01*
X00512Y-06400D02*
X00868Y-06397D01*
X-00250Y-14337D02*
X-00491Y-14328D01*
X00897Y-13300D02*
X01089Y-13206D01*
X01089Y-13206D02*
X01411Y-13196D01*
X01411Y-13196D02*
X01411Y-13000D01*
X00897Y-13300D02*
X00897Y-13604D01*
X01411Y-13196D02*
X01830Y-13195D01*
X07937Y-16150D02*
X07489Y-16159D01*
X02297Y-15600D02*
X02550Y-15603D01*
G54D61*
X02200Y-15174D02*
X02297Y-15600D01*
X02297Y-15600D02*
X02550Y-15603D01*
X02397Y-14000D02*
X02389Y-13744D01*
X01500Y-11997D02*
X01504Y-12205D01*
X04208Y-07008D02*
X04362Y-06820D01*
X04523Y-07008D02*
X04362Y-06820D01*
X06098Y-07323D02*
X06097Y-07539D01*
X07358Y-07323D02*
X07355Y-07494D01*
G54D60*
X06728Y-09843D02*
X06576Y-09995D01*
X06413Y-09843D02*
X06576Y-09995D01*
X06413Y-10158D02*
X06576Y-09995D01*
X06728Y-10158D02*
X06576Y-09995D01*
X06728Y-10158D02*
X06570Y-10307D01*
X06413Y-10158D02*
X06570Y-10307D01*
X06413Y-10473D02*
X06570Y-10307D01*
X06728Y-10473D02*
X06570Y-10307D01*
X07043Y-10158D02*
X07196Y-10307D01*
X07358Y-10158D02*
X07196Y-10307D01*
X07043Y-10473D02*
X07196Y-10307D01*
X07358Y-10473D02*
X07196Y-10307D01*
X07673Y-10158D02*
X07837Y-10314D01*
X07673Y-10473D02*
X07837Y-10314D01*
X07988Y-10473D02*
X07837Y-10314D01*
X07988Y-09843D02*
X07821Y-09688D01*
X07673Y-09843D02*
X07821Y-09688D01*
X07673Y-09528D02*
X07821Y-09688D01*
X07988Y-09528D02*
X07821Y-09688D01*
X07988Y-09528D02*
X07827Y-09385D01*
X07673Y-09528D02*
X07827Y-09385D01*
X07673Y-09213D02*
X07827Y-09385D01*
X07988Y-09213D02*
X07827Y-09385D01*
X07358Y-09213D02*
X07196Y-09372D01*
X07043Y-09213D02*
X07196Y-09372D01*
X07043Y-09528D02*
X07196Y-09372D01*
X07358Y-09528D02*
X07196Y-09372D01*
X06728Y-09213D02*
X06570Y-09357D01*
X06413Y-09528D02*
X06570Y-09357D01*
X06413Y-09213D02*
X06570Y-09357D01*
X06728Y-09528D02*
X06570Y-09357D01*
X06728Y-09528D02*
X06877Y-09679D01*
X06728Y-09843D02*
X06877Y-09679D01*
X07043Y-09843D02*
X06877Y-09679D01*
X07043Y-09528D02*
X06877Y-09679D01*
X07043Y-09843D02*
X07199Y-09998D01*
X07043Y-10158D02*
X07199Y-09998D01*
X07358Y-10158D02*
X07199Y-09998D01*
X07358Y-09843D02*
X07199Y-09998D01*
X06728Y-10158D02*
X07043Y-10158D01*
X07358Y-09843D02*
X07514Y-09995D01*
X07358Y-10158D02*
X07514Y-09995D01*
X07673Y-10158D02*
X07514Y-09995D01*
X07673Y-09843D02*
X07514Y-09995D01*
X07673Y-09528D02*
X07358Y-09528D01*
X07043Y-09843D02*
X07199Y-09685D01*
X07043Y-09528D02*
X07199Y-09685D01*
X07358Y-09528D02*
X07199Y-09685D01*
X07358Y-09843D02*
X07199Y-09685D01*
G54D61*
X07903Y-06300D02*
X07693Y-06297D01*
G54D59*
X12400Y-16797D02*
X12269Y-17039D01*
X00848Y-17531D02*
X00843Y-18003D01*
X03152Y-17531D02*
X03555Y-17528D01*
X03948Y-17531D02*
X03555Y-17528D01*
G54D60*
X06252Y-17531D02*
X06226Y-17896D01*
X06226Y-17896D02*
X06178Y-17956D01*
X03597Y-20400D02*
X03597Y-20667D01*
X06597Y-20400D02*
X06841Y-20401D01*
X05996Y-19869D02*
X05992Y-19419D01*
X-02460Y-20498D02*
X-02204Y-20498D01*
X-02204Y-20498D02*
X-01960Y-20492D01*
X-03740Y-20498D02*
X-03739Y-20142D01*
X-03800Y-19897D02*
X-03739Y-20142D01*
X-02500Y-23597D02*
X-02240Y-23601D01*
G54D59*
X02896Y-19869D02*
X02888Y-19373D01*
G54D60*
X04189Y-13215D02*
X04208Y-12993D01*
X04208Y-08898D02*
X04452Y-08751D01*
X04452Y-08751D02*
X04541Y-08737D01*
X04541Y-08737D02*
X04687Y-08734D01*
X07837Y-10314D02*
X07988Y-10158D01*
X10404Y-12968D02*
X10193Y-12993D01*
X10193Y-07008D02*
X10336Y-06858D01*
G54D61*
X01636Y-07584D02*
X01397Y-07583D01*
G54D60*
X13821Y-11445D02*
X13860Y-11260D01*
X13821Y-11445D02*
X13842Y-11437D01*
X13230Y-11260D02*
X13054Y-11337D01*
X12159Y-10973D02*
X11970Y-10945D01*
X13230Y-10630D02*
X13008Y-10625D01*
X11970Y-10315D02*
X12173Y-10231D01*
X13230Y-10000D02*
X12971Y-09944D01*
X13862Y-08527D02*
X13860Y-08740D01*
X13359Y-13590D02*
X13603Y-13500D01*
X13097Y-13500D02*
X13359Y-13590D01*
X15303Y-01500D02*
X15030Y-01497D01*
G54D61*
X15303Y-11000D02*
X15305Y-10695D01*
G54D60*
X15303Y-13000D02*
X15296Y-12718D01*
X15305Y-18186D02*
X15303Y-18500D01*
G54D59*
X15303Y-21500D02*
X15324Y-21195D01*
G54D60*
X-00297Y-12500D02*
X-00291Y-12766D01*
X00200Y-11997D02*
X00201Y-12177D01*
G54D61*
X-03300Y-18197D02*
X-03586Y-18200D01*
X-03900Y-18197D02*
X-03586Y-18200D01*
G54D59*
X00297Y-07400D02*
X00556Y-07402D01*
X00200Y-08203D02*
X-00049Y-08250D01*
G54D61*
X15303Y-10000D02*
X15301Y-10249D01*
X-00497Y-11000D02*
X-00397Y-11222D01*
X-00716Y-10603D02*
X-00497Y-10600D01*
X15303Y-04500D02*
X15079Y-04499D01*
X07897Y-19700D02*
X08113Y-19699D01*
G54D59*
X-01900Y-04532D02*
X-01197Y-04635D01*
X-04000Y-23597D02*
X-03995Y-23838D01*
G54D60*
X04208Y-07953D02*
X04034Y-07944D01*
G54D61*
X00200Y-04532D02*
X-00100Y-04527D01*
G54D63*
X08600Y04400D02*
X08540Y04021D01*
X08500Y03671D02*
X08540Y04021D01*
X11000Y05600D02*
X10989Y06038D01*
X11000Y05600D02*
X11615Y05592D01*
X08600Y04400D02*
X08040Y04408D01*
G54D61*
X11600Y01198D02*
X11612Y00708D01*
G54D63*
X13100Y00600D02*
X13699Y00604D01*
X14300Y00600D02*
X13699Y00604D01*
G54D61*
X11400Y-00197D02*
X11401Y-00390D01*
X10400Y03798D02*
X10199Y03801D01*
X10000Y03798D02*
X10199Y03801D01*
G54D63*
X02824Y05543D02*
X02819Y04567D01*
G54D60*
X07988Y-12677D02*
X08144Y-12904D01*
X08144Y-12904D02*
X08142Y-13218D01*
X08142Y-13218D02*
X08055Y-13479D01*
X08055Y-13479D02*
X07800Y-13703D01*
X08303Y-12677D02*
X08458Y-12910D01*
X08458Y-12910D02*
X08465Y-13424D01*
X08465Y-13424D02*
X08500Y-13703D01*
X04523Y-12048D02*
X04243Y-12207D01*
X04243Y-12207D02*
X04117Y-12203D01*
X03407Y-12322D02*
X04117Y-12203D01*
X-00597Y-12000D02*
X-01200Y-12600D01*
X06400Y-13703D02*
X06552Y-13151D01*
X06552Y-13151D02*
X06577Y-12901D01*
X06577Y-12901D02*
X06728Y-12678D01*
X07000Y-13703D02*
X07200Y-13119D01*
X07200Y-13119D02*
X07195Y-12935D01*
X07043Y-12678D02*
X07195Y-12935D01*
X00611Y-09255D02*
X00582Y-09071D01*
X00582Y-09071D02*
X00204Y-08790D01*
X00204Y-08790D02*
X00200Y-08597D01*
X11498Y-09843D02*
X11655Y-10000D01*
X09563Y-07323D02*
X09568Y-07504D01*
X00512Y-06026D02*
X00254Y-06167D01*
X00254Y-06167D02*
X00157Y-06380D01*
X00157Y-06380D02*
X00181Y-06932D01*
X00181Y-06932D02*
X00254Y-07019D01*
X00254Y-07019D02*
X00752Y-07014D01*
X00752Y-07014D02*
X01383Y-06229D01*
X01383Y-06229D02*
X01522Y-06085D01*
X01888Y-05918D02*
X02856Y-05850D01*
X02856Y-05850D02*
X04525Y-05801D01*
X04525Y-05801D02*
X04922Y-05872D01*
X05230Y-06067D02*
X05453Y-06675D01*
X05453Y-06675D02*
X05468Y-07008D01*
X01522Y-06085D02*
X01888Y-05918D01*
X04922Y-05872D02*
X05230Y-06067D01*
X09878Y-10473D02*
X09698Y-10490D01*
X12703Y-13500D02*
X12500Y-13309D01*
X12563Y-12421D02*
X12500Y-13309D01*
X10193Y-10473D02*
X10365Y-10486D01*
X13997Y-13500D02*
X13821Y-13326D01*
X13821Y-13326D02*
X13787Y-12923D01*
X13787Y-12923D02*
X13522Y-12708D01*
X12973Y-12183D02*
X13522Y-12708D01*
X04213Y-10166D02*
X04421Y-10023D01*
X04421Y-10023D02*
X04598Y-09984D01*
X04598Y-09984D02*
X04873Y-09965D01*
X05071Y-09790D02*
X04873Y-09965D01*
X09878Y-10158D02*
X09672Y-10147D01*
X12768Y-12296D02*
X12703Y-13100D01*
X10193Y-10158D02*
X10369Y-10148D01*
X13997Y-13100D02*
X13808Y-12708D01*
X13215Y-12038D02*
X13808Y-12708D01*
X09878Y-09843D02*
X10119Y-09692D01*
X10119Y-09692D02*
X10368Y-09681D01*
X10368Y-09681D02*
X10884Y-09482D01*
X10884Y-09482D02*
X11013Y-09272D01*
X11013Y-09272D02*
X11086Y-09190D01*
X11086Y-09190D02*
X11183Y-09180D01*
X11669Y-09213D02*
X11856Y-09250D01*
X11856Y-09250D02*
X11970Y-09370D01*
X11255Y-09209D02*
X11669Y-09213D01*
X11183Y-09180D02*
X11255Y-09209D01*
G54D61*
X15697Y-04500D02*
X16400Y-04500D01*
X15697Y-04500D02*
X15697Y-05000D01*
X16400Y-13000D02*
X15697Y-13000D01*
X15697Y-13000D02*
X15697Y-13500D01*
X16400Y-21500D02*
X15697Y-21500D01*
X15697Y-21500D02*
X15697Y-22000D01*
G54D60*
X08618Y-07008D02*
X08616Y-06858D01*
X08616Y-06858D02*
X08830Y-06683D01*
X08830Y-06683D02*
X11250Y-06681D01*
X11250Y-06681D02*
X12177Y-06849D01*
X12177Y-06849D02*
X12702Y-06842D01*
X12702Y-06842D02*
X12856Y-06574D01*
G54D59*
X13400Y-06397D02*
X12856Y-06574D01*
G54D61*
X16400Y-23500D02*
X15697Y-23500D01*
X16400Y-15000D02*
X15697Y-15000D01*
G54D60*
X00512Y-06774D02*
X00866Y-06672D01*
X00866Y-06672D02*
X01437Y-06014D01*
X01437Y-06014D02*
X01917Y-05792D01*
X01917Y-05792D02*
X04473Y-05676D01*
X04473Y-05676D02*
X04955Y-05774D01*
X05277Y-05957D02*
X05688Y-06562D01*
X05688Y-06562D02*
X05783Y-07008D01*
X04955Y-05774D02*
X05277Y-05957D01*
X04207Y-07638D02*
X03725Y-07646D01*
X03297Y-08300D02*
X03318Y-08093D01*
X03318Y-08093D02*
X03346Y-07825D01*
X03725Y-07646D02*
X03346Y-07825D01*
X04207Y-09843D02*
X04462Y-09692D01*
X04462Y-09692D02*
X04634Y-09676D01*
X04634Y-09676D02*
X05182Y-09427D01*
X05549Y-09121D02*
X05182Y-09427D01*
G54D61*
X16400Y-05500D02*
X15697Y-05500D01*
X16400Y-06500D02*
X15697Y-06500D01*
G54D59*
X-03500Y-23203D02*
X-03484Y-22702D01*
X-02972Y-22702D02*
X-03000Y-23203D01*
X-02716Y-20498D02*
X-02719Y-20158D01*
X-02719Y-20158D02*
X-02600Y-19897D01*
X-02972Y-20498D02*
X-02981Y-20169D01*
X-02981Y-20169D02*
X-03100Y-19897D01*
X-06241Y-24387D02*
X-05429Y-23802D01*
X-05429Y-23802D02*
X-03347Y-21100D01*
X-03347Y-21100D02*
X-03238Y-20798D01*
X-03238Y-20798D02*
X-03228Y-20498D01*
X03690Y-25805D02*
X03690Y-26313D01*
X04690Y-25805D02*
X04690Y-26313D01*
X05690Y-25805D02*
X05690Y-26313D01*
X02690Y-25805D02*
X02690Y-26313D01*
X-01310Y-25805D02*
X-01310Y-26313D01*
X-00310Y-25805D02*
X-00310Y-26313D01*
X00690Y-25805D02*
X00690Y-26313D01*
X01690Y-25805D02*
X01690Y-26313D01*
G54D61*
X-00512Y-06026D02*
X-01268Y-05804D01*
X-01268Y-05804D02*
X-02516Y-04664D01*
X-02516Y-04664D02*
X-04548Y-01200D01*
X-04548Y-01200D02*
X-05001Y-01109D01*
X-05001Y-01109D02*
X-05363Y-01060D01*
X-05363Y-01060D02*
X-05693Y-00637D01*
G54D59*
X-03484Y-20498D02*
X-03497Y-20899D01*
X-03497Y-20899D02*
X-05664Y-23668D01*
X-05664Y-23668D02*
X-06157Y-23843D01*
X-06157Y-23843D02*
X-06536Y-23883D01*
X-06536Y-23883D02*
X-06793Y-24320D01*
X-06793Y-24320D02*
X-06776Y-24922D01*
X-06776Y-24922D02*
X-06241Y-25478D01*
X-02716Y-22702D02*
X-02678Y-22993D01*
X-02678Y-22993D02*
X-02500Y-23203D01*
X-04000Y-23203D02*
X-03771Y-22999D01*
X-03771Y-22999D02*
X-03740Y-22702D01*
X-03000Y-23597D02*
X-03225Y-23504D01*
X-03225Y-23504D02*
X-03236Y-23202D01*
X-03236Y-23202D02*
X-03228Y-22702D01*
X-03500Y-23597D02*
X-03658Y-24018D01*
X-03658Y-24018D02*
X-03869Y-24140D01*
X-03869Y-24140D02*
X-04158Y-24104D01*
X-04158Y-24104D02*
X-04293Y-23982D01*
X-04293Y-23982D02*
X-04374Y-23716D01*
X-04271Y-22806D02*
X-04374Y-23716D01*
X-04271Y-22806D02*
X-04154Y-22713D01*
X-04154Y-22713D02*
X-03996Y-22702D01*
G54D61*
X07331Y-18996D02*
X07739Y-19041D01*
X09669Y-19252D02*
X10389Y-19495D01*
X10389Y-19495D02*
X11500Y-20300D01*
G54D60*
X02148Y-06796D02*
X02097Y-06400D01*
X02148Y-06796D02*
X01968Y-06794D01*
G54D61*
X07739Y-19041D02*
X09669Y-19252D01*
X12400Y-18397D02*
X12693Y-18783D01*
X12693Y-18783D02*
X13104Y-18885D01*
X13104Y-18885D02*
X13588Y-18894D01*
X13588Y-18894D02*
X14200Y-18400D01*
G54D60*
X07331Y-18228D02*
X06997Y-18184D01*
X06957Y-18135D02*
X06997Y-18184D01*
X06987Y-16857D02*
X06957Y-18135D01*
X06987Y-16857D02*
X07114Y-16721D01*
X10146Y-16627D02*
X10686Y-16592D01*
X11017Y-16453D02*
X11098Y-16325D01*
X11098Y-16325D02*
X11098Y-15924D01*
X11098Y-15924D02*
X10897Y-15600D01*
X10146Y-16627D02*
X08780Y-16650D01*
X07114Y-16721D02*
X08780Y-16650D01*
X10686Y-16592D02*
X11017Y-16453D01*
X07331Y-18484D02*
X06945Y-18480D01*
X06849Y-18294D02*
X06945Y-18480D01*
X06883Y-16805D02*
X06849Y-18294D01*
X06883Y-16805D02*
X07073Y-16612D01*
X07073Y-16612D02*
X08815Y-16544D01*
X08815Y-16544D02*
X10633Y-16493D01*
X10633Y-16493D02*
X10796Y-16389D01*
X10796Y-16389D02*
X10897Y-16200D01*
X04207Y-07323D02*
X03511Y-07486D01*
X03511Y-07486D02*
X03060Y-07484D01*
X03060Y-07484D02*
X02854Y-07175D01*
X02854Y-07175D02*
X02903Y-06700D01*
X07331Y-17972D02*
X07735Y-17969D01*
X07735Y-17969D02*
X07815Y-17108D01*
X09332Y-16743D02*
X10134Y-16743D01*
X10134Y-16743D02*
X11500Y-17300D01*
X07815Y-17108D02*
X08193Y-16798D01*
X08193Y-16798D02*
X09332Y-16743D01*
G54D61*
X09669Y-18740D02*
X10057Y-18754D01*
X10057Y-18754D02*
X10658Y-19265D01*
X11166Y-19658D02*
X10658Y-19265D01*
X11166Y-19658D02*
X11518Y-19725D01*
X11518Y-19725D02*
X11850Y-19645D01*
X11850Y-19645D02*
X12006Y-19423D01*
X12006Y-19423D02*
X12030Y-18989D01*
X12030Y-18989D02*
X11896Y-18694D01*
X11896Y-18694D02*
X11500Y-18300D01*
X10697Y-18600D02*
X11500Y-19300D01*
X-00900Y-04126D02*
X-00903Y-03882D01*
X-01097Y-02944D02*
X-01113Y-03187D01*
X-00703Y-02944D02*
X-00693Y-03187D01*
G54D59*
X-00900Y-04126D02*
X-00902Y-04408D01*
X-00902Y-04408D02*
X-00803Y-04635D01*
X-00605Y-05035D02*
X-00803Y-04635D01*
G54D64*
X-03100Y03219D02*
X-05100Y04500D01*
G54D59*
X-00803Y-04635D02*
X-00609Y-04641D01*
G54D60*
X-01294Y-04126D02*
X-01900Y-04138D01*
X-01900Y-04138D02*
X-01900Y-03832D01*
X-01900Y-03832D02*
X-02300Y-03832D01*
G54D63*
X-00200Y-01035D02*
X-00105Y-00335D01*
G54D60*
X-00703Y-04126D02*
X-00669Y-03927D01*
X-00669Y-03927D02*
X-00594Y-03867D01*
X-00594Y-03867D02*
X-00339Y-03897D01*
X-00339Y-03897D02*
X-00162Y-03901D01*
X-00162Y-03901D02*
X-00054Y-03758D01*
X-00054Y-03758D02*
X00014Y-03537D01*
X00014Y-03537D02*
X00200Y-03338D01*
X00200Y-03338D02*
X00378Y-03169D01*
X00378Y-03169D02*
X00367Y-01413D01*
X00367Y-01413D02*
X-00200Y-01035D01*
G54D63*
X-00105Y-00335D02*
X-00099Y00364D01*
G54D60*
X-00506Y-04126D02*
X00200Y-04138D01*
X00200Y-04138D02*
X00200Y-03732D01*
G54D59*
X-00506Y-02944D02*
X-00497Y-02659D01*
X-00497Y-02659D02*
X-00200Y-02235D01*
X-01294Y-02944D02*
X-01299Y-02695D01*
X-01299Y-02695D02*
X-01600Y-02235D01*
G54D60*
X09563Y-07008D02*
X09711Y-07153D01*
X13860Y-09685D02*
X13702Y-09532D01*
X10428Y-08906D02*
X10192Y-08897D01*
X13860Y-09370D02*
X13997Y-09507D01*
X10193Y-08268D02*
X10605Y-08299D01*
X10605Y-08299D02*
X11119Y-08218D01*
X11119Y-08218D02*
X11548Y-08222D01*
X11548Y-08222D02*
X11840Y-08278D01*
X11840Y-08278D02*
X12122Y-08418D01*
X12122Y-08418D02*
X12945Y-09091D01*
X12945Y-09091D02*
X13114Y-09184D01*
X13114Y-09184D02*
X13232Y-09214D01*
X13232Y-09214D02*
X13549Y-09214D01*
X13670Y-09182D02*
X13860Y-09055D01*
X13549Y-09214D02*
X13670Y-09182D01*
X11970Y-09055D02*
X11821Y-08904D01*
X09878Y-07008D02*
X10031Y-06855D01*
X11970Y-08740D02*
X11795Y-08534D01*
X11795Y-08534D02*
X11666Y-08460D01*
X11666Y-08460D02*
X11518Y-08428D01*
X09693Y-07791D02*
X09878Y-07638D01*
X11518Y-08428D02*
X11115Y-08431D01*
X11115Y-08431D02*
X10630Y-08714D01*
X10630Y-08714D02*
X10216Y-08739D01*
X10216Y-08739D02*
X09784Y-08741D01*
X09784Y-08741D02*
X09711Y-08666D01*
X09711Y-08666D02*
X09693Y-07791D01*
X11655Y-09055D02*
X11509Y-08911D01*
X09878Y-07323D02*
X10033Y-07166D01*
X11655Y-08740D02*
X11503Y-08594D01*
X10193Y-07323D02*
X10395Y-07320D01*
X13545Y-09685D02*
X13374Y-09836D01*
X13374Y-09836D02*
X13181Y-09841D01*
X13181Y-09841D02*
X13094Y-09808D01*
X13094Y-09808D02*
X13026Y-09731D01*
X13026Y-09731D02*
X12913Y-09641D01*
X12727Y-09535D02*
X12913Y-09641D01*
X07042Y-07008D02*
X07231Y-07153D01*
X07231Y-07153D02*
X07446Y-07169D01*
X07446Y-07169D02*
X07508Y-07267D01*
X07508Y-07267D02*
X07519Y-07402D01*
X07519Y-07402D02*
X07592Y-07528D01*
X07592Y-07528D02*
X08001Y-07746D01*
X08001Y-07746D02*
X08643Y-07911D01*
X13545Y-09370D02*
X13381Y-09522D01*
X13381Y-09522D02*
X13210Y-09526D01*
X13210Y-09526D02*
X13097Y-09503D01*
X13097Y-09503D02*
X13014Y-09388D01*
X13014Y-09388D02*
X12955Y-09341D01*
X12955Y-09341D02*
X12848Y-09273D01*
X12848Y-09273D02*
X12695Y-09211D01*
X12420Y-09053D02*
X12695Y-09211D01*
X09877Y-08897D02*
X10085Y-09046D01*
X10085Y-09046D02*
X10265Y-09062D01*
X10265Y-09062D02*
X10616Y-09103D01*
X09878Y-08268D02*
X10037Y-08106D01*
X10037Y-08106D02*
X10032Y-07879D01*
X10032Y-07879D02*
X10127Y-07804D01*
X10127Y-07804D02*
X10270Y-07793D01*
X10270Y-07793D02*
X11589Y-08007D01*
X11589Y-08007D02*
X11970Y-08096D01*
X11970Y-08096D02*
X12326Y-08284D01*
X12326Y-08284D02*
X12892Y-08772D01*
X12892Y-08772D02*
X13141Y-08891D01*
X13141Y-08891D02*
X13374Y-08916D01*
X13374Y-08916D02*
X13545Y-09055D01*
X09878Y-07953D02*
X09936Y-07798D01*
X09936Y-07798D02*
X10001Y-07762D01*
X10001Y-07762D02*
X10040Y-07697D01*
X10040Y-07697D02*
X10037Y-07577D01*
X10037Y-07577D02*
X10085Y-07515D01*
X10085Y-07515D02*
X10169Y-07482D01*
X10169Y-07482D02*
X10411Y-07497D01*
X10411Y-07497D02*
X12082Y-07903D01*
X12082Y-07903D02*
X12822Y-08310D01*
X12822Y-08310D02*
X13326Y-08563D01*
X13326Y-08563D02*
X13545Y-08740D01*
X13230Y-09685D02*
X13017Y-09583D01*
X13017Y-09583D02*
X12821Y-09395D01*
X12821Y-09395D02*
X12707Y-09347D01*
X12707Y-09347D02*
X12556Y-09358D01*
X12556Y-09358D02*
X12376Y-09466D01*
X08303Y-07008D02*
X08454Y-07156D01*
X08303Y-07008D02*
X08297Y-06300D01*
X13229Y-09371D02*
X12883Y-09172D01*
X12883Y-09172D02*
X12050Y-08496D01*
X12050Y-08496D02*
X11670Y-08353D01*
X11670Y-08353D02*
X11519Y-08323D01*
X11519Y-08323D02*
X11095Y-08327D01*
X11095Y-08327D02*
X10470Y-08423D01*
X10470Y-08423D02*
X10026Y-08425D01*
X10026Y-08425D02*
X09878Y-08583D01*
X13230Y-09055D02*
X12968Y-08965D01*
X12968Y-08965D02*
X12183Y-08325D01*
X12183Y-08325D02*
X11873Y-08177D01*
X11873Y-08177D02*
X11544Y-08114D01*
X11544Y-08114D02*
X10463Y-08033D01*
X10463Y-08033D02*
X10193Y-07953D01*
X13230Y-08740D02*
X12947Y-08687D01*
X12947Y-08687D02*
X12374Y-08190D01*
X12374Y-08190D02*
X11987Y-07984D01*
X11987Y-07984D02*
X10195Y-07627D01*
X04837Y-07323D02*
X04685Y-07153D01*
X04685Y-07153D02*
X04680Y-06775D01*
X04680Y-06775D02*
X04697Y-06200D01*
X01202Y-09255D02*
X01207Y-09030D01*
X01186Y-08868D02*
X01207Y-09030D01*
X01186Y-08868D02*
X01400Y-08597D01*
G54D59*
X07083Y-25791D02*
X07083Y-26299D01*
G54D60*
X07937Y-15150D02*
X07397Y-15200D01*
X07397Y-15200D02*
X07397Y-15700D01*
G54D59*
X05947Y-20675D02*
X13668Y-23897D01*
X13668Y-23897D02*
X14083Y-24496D01*
X14083Y-24496D02*
X14083Y-25201D01*
X05947Y-20675D02*
X05758Y-20218D01*
X05758Y-20218D02*
X05740Y-19869D01*
X14083Y-25791D02*
X14083Y-26299D01*
X13083Y-25791D02*
X13083Y-26299D01*
G54D60*
X09609Y-08916D02*
X09571Y-07875D01*
X09571Y-07875D02*
X09248Y-07323D01*
X09609Y-08916D02*
X09644Y-09270D01*
X09644Y-09270D02*
X09715Y-09344D01*
X09715Y-09344D02*
X09880Y-09372D01*
X09880Y-09372D02*
X10291Y-09370D01*
X10291Y-09370D02*
X10689Y-09302D01*
X10689Y-09302D02*
X11031Y-09088D01*
X11031Y-09088D02*
X11340Y-09055D01*
G54D59*
X10083Y-25791D02*
X10083Y-26299D01*
X09083Y-25791D02*
X09083Y-26299D01*
X08083Y-25791D02*
X08083Y-26299D01*
X12083Y-25791D02*
X12083Y-26299D01*
X11083Y-25791D02*
X11083Y-26299D01*
G54D60*
X05996Y-17531D02*
X06077Y-17155D01*
X06077Y-17155D02*
X06300Y-16497D01*
X05900Y-16497D02*
X05740Y-17531D01*
X05500Y-16497D02*
X05484Y-17531D01*
X05100Y-16497D02*
X05228Y-17531D01*
X05785Y-14930D02*
X05994Y-14416D01*
X05994Y-14416D02*
X06000Y-14097D01*
X04969Y-15692D02*
X05785Y-14930D01*
X04969Y-15692D02*
X04866Y-15886D01*
X04866Y-15886D02*
X04866Y-16719D01*
X04866Y-16719D02*
X04938Y-17164D01*
X04938Y-17164D02*
X04972Y-17531D01*
X04600Y-16497D02*
X04690Y-17142D01*
X04690Y-17142D02*
X04716Y-17531D01*
X05479Y-14618D02*
X05600Y-14097D01*
X04460Y-17531D02*
X04375Y-16651D01*
X04375Y-16651D02*
X04388Y-15800D01*
X04388Y-15800D02*
X04681Y-15431D01*
X04681Y-15431D02*
X05356Y-14909D01*
X05356Y-14909D02*
X05479Y-14618D01*
X05183Y-14661D02*
X05200Y-14097D01*
X04204Y-17531D02*
X04208Y-16674D01*
X04208Y-16674D02*
X04294Y-15719D01*
X05183Y-14661D02*
X04294Y-15719D01*
G54D63*
X-01600Y-01035D02*
X-01695Y-00335D01*
G54D60*
X-02300Y-03438D02*
X-01900Y-03438D01*
X-02300Y-03438D02*
X-02275Y-00734D01*
X-02275Y-00734D02*
X-01920Y-00328D01*
X-01920Y-00328D02*
X-01695Y-00335D01*
G54D63*
X-01695Y-00335D02*
X-01699Y00364D01*
G54D59*
X01616Y-19869D02*
X01690Y-24510D01*
X01690Y-24510D02*
X01690Y-25215D01*
X02531Y-22192D02*
X03690Y-24510D01*
X02148Y-20357D02*
X02531Y-22192D01*
X03690Y-24510D02*
X03690Y-25215D01*
X02148Y-20357D02*
X02128Y-19869D01*
X02662Y-20361D02*
X03186Y-22037D01*
X03186Y-22037D02*
X05690Y-24510D01*
X05690Y-24510D02*
X05690Y-25215D01*
X02662Y-20361D02*
X02640Y-19869D01*
X01086Y-22206D02*
X-00310Y-24510D01*
X01104Y-19869D02*
X01086Y-22206D01*
X-00310Y-24510D02*
X-00310Y-25215D01*
X05444Y-20661D02*
X05800Y-21015D01*
X05800Y-21015D02*
X11887Y-23960D01*
X11887Y-23960D02*
X12083Y-24496D01*
X12083Y-24496D02*
X12083Y-25201D01*
X05444Y-20661D02*
X05248Y-20207D01*
X05248Y-20207D02*
X05228Y-19869D01*
X04911Y-20651D02*
X05444Y-21217D01*
X05444Y-21217D02*
X09578Y-23718D01*
X09578Y-23718D02*
X10083Y-24496D01*
X10083Y-24496D02*
X10083Y-25201D01*
X04911Y-20651D02*
X04737Y-20215D01*
X04737Y-20215D02*
X04716Y-19869D01*
X04427Y-20641D02*
X05042Y-21433D01*
X05042Y-21433D02*
X07796Y-23892D01*
X07796Y-23892D02*
X08083Y-24496D01*
X08083Y-24496D02*
X08083Y-25201D01*
X04427Y-20641D02*
X04238Y-20215D01*
X04238Y-20215D02*
X04204Y-19869D01*
X04180Y-20637D02*
X06056Y-23106D01*
X06056Y-23106D02*
X07083Y-24496D01*
X07083Y-24496D02*
X07083Y-25201D01*
X04180Y-20637D02*
X03994Y-20185D01*
X03994Y-20185D02*
X03948Y-19869D01*
X04655Y-20641D02*
X05109Y-21210D01*
X05109Y-21210D02*
X08919Y-24032D01*
X08919Y-24032D02*
X09083Y-24496D01*
X09083Y-24496D02*
X09083Y-25201D01*
X04655Y-20641D02*
X04493Y-20237D01*
X04493Y-20237D02*
X04460Y-19869D01*
X05183Y-20661D02*
X05611Y-21105D01*
X05611Y-21105D02*
X10885Y-23868D01*
X10885Y-23868D02*
X11083Y-24496D01*
X11083Y-24496D02*
X11083Y-25201D01*
X05183Y-20661D02*
X04996Y-20196D01*
X04996Y-20196D02*
X04972Y-19869D01*
X05681Y-20661D02*
X05918Y-20861D01*
X05918Y-20861D02*
X12729Y-23926D01*
X12729Y-23926D02*
X13083Y-24496D01*
X13083Y-24496D02*
X13083Y-25201D01*
X05681Y-20661D02*
X05518Y-20226D01*
X05518Y-20226D02*
X05484Y-19869D01*
X02944Y-22129D02*
X04067Y-23481D01*
X04067Y-23481D02*
X04690Y-24510D01*
X02433Y-20387D02*
X02944Y-22129D01*
X04690Y-24510D02*
X04690Y-25215D01*
X02433Y-20387D02*
X02384Y-19869D01*
X02107Y-22242D02*
X02690Y-24510D01*
X01886Y-20369D02*
X02107Y-22242D01*
X02690Y-24510D02*
X02690Y-25215D01*
X01886Y-20369D02*
X01872Y-19869D01*
X01367Y-22286D02*
X00690Y-24510D01*
X01360Y-19869D02*
X01367Y-22286D01*
X00825Y-22125D02*
X-01310Y-24510D01*
X00848Y-19869D02*
X00825Y-22125D01*
X-01310Y-24510D02*
X-01310Y-25215D01*
G54D60*
X-01600Y-30700D02*
X-01615Y-30023D01*
X-01615Y-30023D02*
X-01900Y-29500D01*
X-00600Y-30700D02*
X-00759Y-30027D01*
X-00759Y-30027D02*
X-00900Y-29500D01*
X00100Y-28500D02*
X00100Y-27797D01*
X03407Y-12059D02*
X04208Y-12048D01*
X-00597Y-11500D02*
X-01200Y-11500D01*
X00355Y-09708D02*
X00110Y-09614D01*
X00110Y-09614D02*
X00062Y-09551D01*
X00062Y-09551D02*
X-00103Y-09400D01*
X00611Y-08805D02*
X00798Y-09018D01*
X00611Y-08805D02*
X00600Y-08597D01*
X00798Y-09018D02*
X00808Y-09255D01*
X06903Y-31500D02*
X06024Y-31419D01*
X06024Y-31419D02*
X05727Y-31157D01*
X05727Y-31157D02*
X05674Y-30982D01*
X05674Y-30982D02*
X05650Y-30700D01*
X05150Y-30700D02*
X05208Y-30469D01*
X05208Y-30469D02*
X05302Y-30400D01*
X05302Y-30400D02*
X05984Y-30391D01*
X05984Y-30391D02*
X06303Y-30528D01*
X06303Y-30528D02*
X06518Y-30803D01*
X06518Y-30803D02*
X06903Y-31100D01*
X10269Y-30928D02*
X09887Y-30924D01*
X09887Y-30924D02*
X09703Y-30740D01*
X09701Y-29631D02*
X09703Y-30740D01*
X07583Y-29306D02*
X05876Y-30180D01*
X05876Y-30180D02*
X05211Y-30190D01*
X05211Y-30190D02*
X04364Y-30308D01*
X04364Y-30308D02*
X04206Y-30439D01*
X04206Y-30439D02*
X04150Y-30700D01*
X09419Y-29325D02*
X09701Y-29631D01*
X09419Y-29325D02*
X07583Y-29306D01*
X10193Y-09843D02*
X11127Y-09547D01*
X11127Y-09547D02*
X11494Y-09509D01*
X11494Y-09509D02*
X11655Y-09370D01*
G54D61*
X-00512Y-06774D02*
X-00949Y-06766D01*
X-00949Y-06766D02*
X-02689Y-04729D01*
X-02689Y-04729D02*
X-03985Y-02672D01*
X-06209Y-01911D02*
X-06412Y-01123D01*
X-06412Y-01123D02*
X-06286Y-00421D01*
X-06286Y-00421D02*
X-06025Y-00119D01*
X-06025Y-00119D02*
X-05450Y-00071D01*
X-05450Y-00071D02*
X-05082Y-00255D01*
X-05082Y-00255D02*
X-04906Y-00637D01*
X-03985Y-02672D02*
X-04611Y-02307D01*
X-05723Y-02199D02*
X-06209Y-01911D01*
X-04611Y-02307D02*
X-05723Y-02199D01*
G54D60*
X-00350Y-30700D02*
X-00294Y-30913D01*
X-00294Y-30913D02*
X-00200Y-30965D01*
X-00200Y-30965D02*
X00213Y-30961D01*
X00213Y-30961D02*
X01665Y-30125D01*
X01665Y-30125D02*
X02100Y-29500D01*
X-01350Y-30700D02*
X-01348Y-29419D01*
X-01348Y-29419D02*
X-01161Y-29104D01*
X-01161Y-29104D02*
X-00977Y-29040D01*
X-00977Y-29040D02*
X-00459Y-29055D01*
X-00459Y-29055D02*
X00100Y-29500D01*
X-01100Y-30700D02*
X-01168Y-30973D01*
X-01168Y-30973D02*
X-01652Y-31040D01*
X-01652Y-31040D02*
X-02902Y-31010D01*
X-02902Y-31010D02*
X-03502Y-30339D01*
X-03502Y-30339D02*
X-03900Y-29500D01*
X-00850Y-30700D02*
X-00920Y-30954D01*
X-00920Y-30954D02*
X-01176Y-31104D01*
X-01176Y-31104D02*
X-01670Y-31143D01*
X-01670Y-31143D02*
X-02970Y-31109D01*
X-02970Y-31109D02*
X-04328Y-29802D01*
X-04328Y-29802D02*
X-04373Y-29506D01*
X-04373Y-29506D02*
X-04294Y-29224D01*
X-04294Y-29224D02*
X-04117Y-29059D01*
X-04117Y-29059D02*
X-03742Y-29048D01*
X-03742Y-29048D02*
X-03239Y-29213D01*
X-03239Y-29213D02*
X-02900Y-29500D01*
X07931Y-31440D02*
X07297Y-31500D01*
X06903Y-30700D02*
X06716Y-30481D01*
X06716Y-30481D02*
X05971Y-30281D01*
X05971Y-30281D02*
X05387Y-30290D01*
X05387Y-30290D02*
X04942Y-30337D01*
X04942Y-30337D02*
X04705Y-30481D01*
X04705Y-30481D02*
X04650Y-30700D01*
G54D61*
X09669Y-18996D02*
X10020Y-19016D01*
X10020Y-19016D02*
X10722Y-19510D01*
X10722Y-19510D02*
X11129Y-19813D01*
X11129Y-19813D02*
X11354Y-19877D01*
X11354Y-19877D02*
X11664Y-19870D01*
X11664Y-19870D02*
X12017Y-19769D01*
X12017Y-19769D02*
X12175Y-19588D01*
X12175Y-19588D02*
X12212Y-19030D01*
X12212Y-19030D02*
X12006Y-18337D01*
X12006Y-18337D02*
X11955Y-17768D01*
X11990Y-17211D02*
X11902Y-16845D01*
X11902Y-16845D02*
X11500Y-16300D01*
X10697Y-17300D02*
X10969Y-17656D01*
X10969Y-17656D02*
X11230Y-17777D01*
X11230Y-17777D02*
X11955Y-17768D01*
X11955Y-17768D02*
X11990Y-17211D01*
G54D60*
X10903Y-31700D02*
X10269Y-31696D01*
X10269Y-31696D02*
X09883Y-31654D01*
X09883Y-31654D02*
X09487Y-31091D01*
X09481Y-30011D02*
X09487Y-31091D01*
G54D61*
X10303Y-18600D02*
X10303Y-18100D01*
X09669Y-18484D02*
X10050Y-18486D01*
X10050Y-18486D02*
X10303Y-18600D01*
X16400Y-22500D02*
X15697Y-22500D01*
X16400Y-14000D02*
X15697Y-14000D01*
G54D60*
X11297Y-31200D02*
X11839Y-30478D01*
X11839Y-30478D02*
X12769Y-29019D01*
X12769Y-29019D02*
X13000Y-28500D01*
X10269Y-31440D02*
X11320Y-31440D01*
X11320Y-31440D02*
X11524Y-31398D01*
X11524Y-31398D02*
X13350Y-28949D01*
X13350Y-28949D02*
X13454Y-28678D01*
X13454Y-28678D02*
X13449Y-28218D01*
X13449Y-28218D02*
X13360Y-28103D01*
X13360Y-28103D02*
X13130Y-28012D01*
X13130Y-28012D02*
X12790Y-28045D01*
X12790Y-28045D02*
X12386Y-28162D01*
X12386Y-28162D02*
X12000Y-28500D01*
X07931Y-30928D02*
X07578Y-30891D01*
X07578Y-30891D02*
X07297Y-30700D01*
X07931Y-31184D02*
X07297Y-31100D01*
X00958Y-08836D02*
X01000Y-08597D01*
X00958Y-08836D02*
X01002Y-09002D01*
X01002Y-09002D02*
X01005Y-09255D01*
X01628Y-08781D02*
X01800Y-08597D01*
X01408Y-08937D02*
X01628Y-08781D01*
X01408Y-08937D02*
X01398Y-09255D01*
X10269Y-31184D02*
X10903Y-31200D01*
X10903Y-31200D02*
X10903Y-30700D01*
X09431Y-29658D02*
X08239Y-30637D01*
X08239Y-30637D02*
X07931Y-30672D01*
X07931Y-31696D02*
X08344Y-31741D01*
X08344Y-31741D02*
X10269Y-31952D01*
X08347Y-32067D02*
X08344Y-31741D01*
X08347Y-32067D02*
X08160Y-32242D01*
X08160Y-32242D02*
X06074Y-32242D01*
X06074Y-32242D02*
X04905Y-31204D01*
X04905Y-31204D02*
X04900Y-30700D01*
X10240Y-31949D02*
X10903Y-32100D01*
X10903Y-32100D02*
X11065Y-32325D01*
X11065Y-32325D02*
X11647Y-32337D01*
X11647Y-32337D02*
X11778Y-32217D01*
X11778Y-32217D02*
X13617Y-29350D01*
X13617Y-29350D02*
X14000Y-28500D01*
X00355Y-09905D02*
X00090Y-09880D01*
X00090Y-09880D02*
X-00103Y-09800D01*
X00750Y-16463D02*
X00250Y-16463D01*
X00250Y-16463D02*
X00095Y-16829D01*
X00095Y-16829D02*
X-00289Y-16959D01*
X-00289Y-16959D02*
X-00683Y-16899D01*
X-00683Y-16899D02*
X-01319Y-16500D01*
X00503Y-12900D02*
X00503Y-13300D01*
X-00250Y-16463D02*
X-00186Y-15748D01*
X-00186Y-15748D02*
X00052Y-15327D01*
X00052Y-15327D02*
X01084Y-14916D01*
X01084Y-14916D02*
X01483Y-14727D01*
X01483Y-14727D02*
X01570Y-14560D01*
X01570Y-14560D02*
X01564Y-14041D01*
X01564Y-14041D02*
X01456Y-13933D01*
X01456Y-13933D02*
X00755Y-13859D01*
X00755Y-13859D02*
X00496Y-13615D01*
X00496Y-13615D02*
X00503Y-13300D01*
X01410Y-12804D02*
X01109Y-12808D01*
X01109Y-12808D02*
X00897Y-12900D01*
X-03681Y-14300D02*
X-03213Y-15018D01*
X-03213Y-15018D02*
X-03070Y-16678D01*
X-03070Y-16678D02*
X-03155Y-17650D01*
X-03155Y-17650D02*
X-03300Y-17803D01*
G54D61*
X-03681Y-14300D02*
X-05580Y-13520D01*
X-05580Y-13520D02*
X-06196Y-13487D01*
X-06196Y-13487D02*
X-06941Y-13766D01*
X-06941Y-13766D02*
X-08904Y-15072D01*
G54D60*
X-03900Y-17803D02*
X-03681Y-16500D01*
G54D61*
X-03681Y-16500D02*
X-06739Y-15072D01*
G54D60*
X01250Y-14337D02*
X00750Y-14337D01*
X00750Y-14337D02*
X00576Y-14721D01*
X00576Y-14721D02*
X00284Y-14835D01*
X00284Y-14835D02*
X-00446Y-14814D01*
X-00446Y-14814D02*
X-01319Y-14300D01*
X01410Y-12608D02*
X01139Y-12597D01*
X01139Y-12597D02*
X00897Y-12500D01*
X00503Y-12500D02*
X00097Y-12500D01*
X00097Y-12500D02*
X00160Y-13690D01*
X00160Y-13690D02*
X00250Y-14337D01*
G54D59*
X01944Y-14426D02*
X02003Y-14000D01*
G54D60*
X02003Y-14000D02*
X02059Y-13575D01*
X02059Y-13575D02*
X02086Y-12796D01*
X02086Y-12796D02*
X02237Y-12601D01*
X02237Y-12601D02*
X02789Y-12608D01*
G54D61*
X08000Y-04597D02*
X08000Y-04903D01*
X08487Y-05500D02*
X08496Y-05111D01*
X08496Y-05111D02*
X08347Y-04904D01*
X08347Y-04904D02*
X08000Y-04903D01*
G54D63*
X07465Y07300D02*
X06387Y07300D01*
X07505Y06700D02*
X07465Y07300D01*
G54D61*
X11356Y00708D02*
X11314Y00992D01*
X11314Y00992D02*
X11112Y01174D01*
X11112Y01174D02*
X10785Y01213D01*
X10785Y01213D02*
X10467Y01135D01*
X10467Y01135D02*
X09981Y00922D01*
X09981Y00922D02*
X09797Y00800D01*
G54D63*
X08500Y02529D02*
X08968Y02296D01*
X08968Y02296D02*
X08974Y01912D01*
G54D61*
X10844Y00708D02*
X10847Y01023D01*
X08397Y-03800D02*
X08900Y-03000D01*
G54D64*
X02824Y-03343D02*
X01839Y-03343D01*
X03808Y-03343D02*
X02824Y-03343D01*
X01513Y-04800D02*
X01839Y-03343D01*
G54D60*
X10588Y02893D02*
X10515Y03160D01*
X10515Y03160D02*
X10400Y03404D01*
X10332Y02893D02*
X10259Y03132D01*
X10259Y03132D02*
X10000Y03404D01*
X10844Y02893D02*
X10800Y03404D01*
X11100Y02893D02*
X11200Y03404D01*
X11356Y02893D02*
X11434Y03138D01*
X11434Y03138D02*
X11600Y03404D01*
G54D63*
X07314Y02126D02*
X05026Y04717D01*
X05026Y04717D02*
X04792Y05543D01*
X04792Y05543D02*
X04813Y07300D01*
X07314Y02126D02*
X07944Y01891D01*
X07944Y01891D02*
X08226Y01912D01*
X08226Y01912D02*
X08600Y01912D01*
X08226Y00888D02*
X08226Y01912D01*
X08600Y00888D02*
X08226Y00888D01*
X08600Y00888D02*
X08600Y01912D01*
G54D59*
X14200Y02705D02*
X13053Y02861D01*
X13053Y02861D02*
X12521Y02706D01*
X12521Y02706D02*
X12125Y02440D01*
X12125Y02440D02*
X10413Y02466D01*
X10413Y02466D02*
X09396Y02874D01*
X09396Y02874D02*
X08825Y03108D01*
X08825Y03108D02*
X07528Y03127D01*
X01839Y05543D02*
X01853Y04547D01*
X07528Y03127D02*
X07228Y03127D01*
G54D63*
X13474Y03313D02*
X14200Y03295D01*
X08317Y06990D02*
X08135Y07300D01*
X09164Y05618D02*
X08600Y05600D01*
X09164Y05618D02*
X09800Y05600D01*
X08596Y06202D02*
X08600Y05600D01*
X08095Y06700D02*
X08135Y07300D01*
X08596Y06202D02*
X08095Y06700D01*
X08600Y05600D02*
X07703Y05556D01*
X07703Y05556D02*
X06761Y05543D01*
G54D61*
X09403Y00800D02*
X08974Y00888D01*
X09987Y-05126D02*
X09900Y-04597D01*
X09900Y-04597D02*
X09400Y-04597D01*
X09400Y-04597D02*
X08900Y-04597D01*
X08900Y-04597D02*
X08400Y-04597D01*
X09397Y-03800D02*
X09400Y-04203D01*
X09003Y-03800D02*
X09149Y-03459D01*
X08900Y-04203D02*
X09003Y-03800D01*
X09313Y-05874D02*
X09775Y-05503D01*
X09775Y-05503D02*
X10414Y-05501D01*
X10414Y-05501D02*
X10813Y-05500D01*
X10414Y-05501D02*
X10423Y-03941D01*
X09149Y-03459D02*
X09423Y-03351D01*
X09423Y-03351D02*
X09900Y-03000D01*
X10423Y-03941D02*
X10295Y-03491D01*
X10295Y-03491D02*
X09900Y-03000D01*
G54D60*
X10600Y-00197D02*
X11000Y-00197D01*
G54D59*
X06098Y-08898D02*
X06099Y-08720D01*
X06728Y-08898D02*
X06650Y-08717D01*
X07043Y-08898D02*
X07153Y-08719D01*
X07358Y-08898D02*
X07153Y-08719D01*
X07673Y-08898D02*
X07656Y-08723D01*
X07988Y-08898D02*
X08184Y-08724D01*
X08303Y-08898D02*
X08184Y-08724D01*
X08303Y-09528D02*
X08436Y-09385D01*
X08303Y-09213D02*
X08436Y-09385D01*
X08303Y-09213D02*
X08303Y-08898D01*
X06098Y-09528D02*
X05949Y-09371D01*
X06098Y-09213D02*
X05949Y-09371D01*
G54D60*
X06098Y-09213D02*
X06098Y-08898D01*
X06728Y-08898D02*
X07043Y-08898D01*
X06413Y-08898D02*
X06098Y-08898D01*
X07358Y-08898D02*
X07673Y-08898D01*
X07673Y-08898D02*
X07988Y-08898D01*
G54D59*
X06413Y-08898D02*
X06650Y-08717D01*
G54D61*
X-01097Y-10200D02*
X-01101Y-10431D01*
G54D60*
X11340Y-08740D02*
X11194Y-08609D01*
X11970Y-11260D02*
X12159Y-11257D01*
X11970Y-10630D02*
X12205Y-10622D01*
X12192Y-09779D02*
X12074Y-09881D01*
X13035Y-10961D02*
X13230Y-10945D01*
X13230Y-10315D02*
X13003Y-10292D01*
X11340Y-11260D02*
X11166Y-11258D01*
X06098Y-10788D02*
X06195Y-10942D01*
X06098Y-11103D02*
X06195Y-10942D01*
X06413Y-11103D02*
X06601Y-10939D01*
X06413Y-10788D02*
X06601Y-10939D01*
X06728Y-10788D02*
X06601Y-10939D01*
X06728Y-11103D02*
X06601Y-10939D01*
X07043Y-10788D02*
X07192Y-10928D01*
X07043Y-11103D02*
X07192Y-10928D01*
X07358Y-10787D02*
X07192Y-10928D01*
X07358Y-11102D02*
X07192Y-10928D01*
X07358Y-10787D02*
X07596Y-10945D01*
X07673Y-11102D02*
X07596Y-10945D01*
X07673Y-10787D02*
X07596Y-10945D01*
X07988Y-10787D02*
X08150Y-10928D01*
X07988Y-11102D02*
X08150Y-10928D01*
X08303Y-10787D02*
X08150Y-10928D01*
X08303Y-11102D02*
X08150Y-10928D01*
X08303Y-10787D02*
X08303Y-10472D01*
X06098Y-10788D02*
X06098Y-10473D01*
X06098Y-10473D02*
X05948Y-10320D01*
X06098Y-10158D02*
X05948Y-10320D01*
X06098Y-10158D02*
X06097Y-09843D01*
X08450Y-10323D02*
X08303Y-10472D01*
X08450Y-10323D02*
X08303Y-10157D01*
X08303Y-10157D02*
X08302Y-09842D01*
X06413Y-10788D02*
X06195Y-10942D01*
X06413Y-11103D02*
X06195Y-10942D01*
X06728Y-10788D02*
X07043Y-10788D01*
X06728Y-11103D02*
X07043Y-11103D01*
X07596Y-10945D02*
X07358Y-11102D01*
X07673Y-10787D02*
X07988Y-10787D01*
X07673Y-11102D02*
X07988Y-11102D01*
G54D59*
X13371Y-13152D02*
X13097Y-13100D01*
X13371Y-13152D02*
X13603Y-13100D01*
G54D60*
X12074Y-09881D02*
X11970Y-10000D01*
X03361Y-10690D02*
X03097Y-10700D01*
X02000Y-11997D02*
X02003Y-12197D01*
G54D59*
X-03996Y-20498D02*
X-04051Y-20158D01*
X-04051Y-20158D02*
X-04039Y-19577D01*
G54D60*
X02789Y-12804D02*
X02378Y-12809D01*
G54D59*
X01250Y-16463D02*
X01168Y-16036D01*
G54D61*
X01944Y-15174D02*
X02009Y-14977D01*
X02009Y-14977D02*
X02089Y-14930D01*
X02089Y-14930D02*
X02332Y-14927D01*
X02332Y-14927D02*
X02392Y-14967D01*
X02392Y-14967D02*
X02456Y-15174D01*
X01944Y-15174D02*
X01923Y-15388D01*
X01923Y-15388D02*
X01903Y-15600D01*
X01903Y-15600D02*
X01652Y-15599D01*
G54D60*
X07003Y-14700D02*
X07003Y-14950D01*
X07003Y-15200D02*
X07003Y-14950D01*
G54D61*
X10063Y-15150D02*
X10064Y-14904D01*
X10063Y-14650D02*
X10064Y-14904D01*
X07937Y-15650D02*
X08390Y-15646D01*
X12400Y-18003D02*
X12292Y-17833D01*
X12400Y-20003D02*
X12409Y-19741D01*
G54D60*
X02200Y-08203D02*
X02208Y-07983D01*
X01636Y-06796D02*
X01703Y-06400D01*
X01636Y-06796D02*
X01429Y-06793D01*
X01000Y-11997D02*
X00600Y-11997D01*
X01000Y-11997D02*
X01003Y-12179D01*
X01411Y-13392D02*
X01412Y-13634D01*
G54D61*
X07503Y-19700D02*
X07461Y-19450D01*
X07331Y-19252D02*
X07461Y-19450D01*
G54D59*
X-04039Y-19577D02*
X-03800Y-19503D01*
G54D60*
X15303Y-12000D02*
X15300Y-11719D01*
X15303Y-03500D02*
X15053Y-03499D01*
X15303Y-20500D02*
X15306Y-20776D01*
X04208Y-08268D02*
X04435Y-08135D01*
X04435Y-08135D02*
X04489Y-08112D01*
X04489Y-08112D02*
X04688Y-08114D01*
X04523Y-07323D02*
X04727Y-07545D01*
X05153Y-07323D02*
X05154Y-07546D01*
X05783Y-07323D02*
X05774Y-07546D01*
X06098Y-07008D02*
X06098Y-06771D01*
X-00203Y-12000D02*
X-00202Y-11752D01*
X-00203Y-11500D02*
X-00202Y-11752D01*
G54D59*
X03203Y-20400D02*
X03152Y-19869D01*
X03413Y-19926D02*
X03157Y-19919D01*
X06203Y-20400D02*
X06252Y-19869D01*
X06404Y-19820D02*
X06252Y-19869D01*
X12087Y-05914D02*
X11800Y-06003D01*
X12344Y-05826D02*
X12350Y-05656D01*
X12350Y-05656D02*
X12419Y-05591D01*
X12419Y-05591D02*
X12769Y-05595D01*
X12769Y-05595D02*
X12834Y-05656D01*
X12834Y-05656D02*
X12856Y-05826D01*
G54D60*
X00100Y-27403D02*
X00099Y-27145D01*
X07931Y-31952D02*
X07519Y-31907D01*
X07297Y-31900D02*
X07519Y-31907D01*
X11297Y-32100D02*
X11580Y-32104D01*
G54D59*
X17900Y-25898D02*
X17100Y-26803D01*
X12087Y-05914D02*
X12344Y-05826D01*
G54D61*
X15697Y-01500D02*
X16400Y-01500D01*
X16400Y-10000D02*
X15697Y-10000D01*
X16400Y-18500D02*
X15697Y-18500D01*
G54D60*
X-01850Y-30700D02*
X-01877Y-30432D01*
X-01903Y-30200D02*
X-01877Y-30432D01*
X05900Y-30700D02*
X06137Y-30694D01*
X03900Y-30700D02*
X03657Y-30703D01*
G54D64*
X-07650Y03600D02*
X-05100Y03500D01*
G54D61*
X03900Y-30197D02*
X03900Y-30700D01*
M02*
