G04 (created by PCBNEW-RS274X (2010-03-14)-final) date Wed 26 Oct 2011 11:50:54 AM EDT*
G01*
G70*
G90*
%MOIN*%
G04 Gerber Fmt 3.4, Leading zero omitted, Abs format*
%FSLAX34Y34*%
G04 APERTURE LIST*
%ADD10C,0.001000*%
%ADD11R,0.025600X0.021700*%
%ADD12R,0.021700X0.025600*%
%ADD13R,0.037400X0.025600*%
%ADD14R,0.025600X0.037400*%
%ADD15C,0.152000*%
%ADD16C,0.065000*%
%ADD17R,0.033500X0.037400*%
%ADD18C,0.131900*%
%ADD19C,0.062000*%
%ADD20C,0.096500*%
%ADD21C,0.142000*%
%ADD22C,0.068900*%
%ADD23C,0.070900*%
%ADD24C,0.198900*%
%ADD25C,0.082000*%
%ADD26C,0.057000*%
%ADD27C,0.072000*%
G04 APERTURE END LIST*
G54D10*
G54D11*
X00500Y-15303D03*
X00500Y-15697D03*
X02100Y-13197D03*
X02100Y-12803D03*
X06900Y-09197D03*
X06900Y-08803D03*
G54D12*
X06347Y-09600D03*
X05953Y-09600D03*
X07003Y-07800D03*
X07397Y-07800D03*
G54D11*
X01600Y-09797D03*
X01600Y-09403D03*
X01100Y-10703D03*
X01100Y-11097D03*
G54D12*
X00897Y-09700D03*
X00503Y-09700D03*
X12797Y-09800D03*
X12403Y-09800D03*
X12403Y-11000D03*
X12797Y-11000D03*
X13903Y-11100D03*
X14297Y-11100D03*
X12797Y-11400D03*
X12403Y-11400D03*
G54D11*
X13900Y-08297D03*
X13900Y-07903D03*
G54D12*
X12797Y-10600D03*
X12403Y-10600D03*
X05497Y-10000D03*
X05103Y-10000D03*
X05497Y-08400D03*
X05103Y-08400D03*
X00897Y-10400D03*
X00503Y-10400D03*
G54D11*
X07400Y-09197D03*
X07400Y-08803D03*
X07900Y-09197D03*
X07900Y-08803D03*
X06400Y-09197D03*
X06400Y-08803D03*
X07900Y-10503D03*
X07900Y-10897D03*
G54D12*
X08897Y-10600D03*
X08503Y-10600D03*
X05503Y-10600D03*
X05897Y-10600D03*
G54D11*
X07400Y-10503D03*
X07400Y-10897D03*
X06900Y-10503D03*
X06900Y-10897D03*
X06400Y-10503D03*
X06400Y-10897D03*
G54D12*
X08053Y-10100D03*
X08447Y-10100D03*
X06347Y-10100D03*
X05953Y-10100D03*
X12403Y-10200D03*
X12797Y-10200D03*
X08053Y-09600D03*
X08447Y-09600D03*
G54D13*
X01000Y-15795D03*
X01000Y-15205D03*
G54D14*
X07495Y-08300D03*
X06905Y-08300D03*
X02005Y-09200D03*
X02595Y-09200D03*
G54D13*
X-00300Y-10405D03*
X-00300Y-10995D03*
G54D14*
X06905Y-11500D03*
X07495Y-11500D03*
G54D15*
X18000Y-32000D03*
X-09000Y08500D03*
X18000Y08500D03*
X-09000Y-32000D03*
G54D16*
X-05100Y03500D03*
X-05100Y04500D03*
X-01699Y01364D03*
X-01699Y00364D03*
X-00099Y01364D03*
X-00099Y00364D03*
X11500Y-14300D03*
X11500Y-15300D03*
X11500Y-16300D03*
X11500Y-17300D03*
X11500Y-18300D03*
X11500Y-19300D03*
X11500Y-20300D03*
X14200Y-20400D03*
X13200Y-20400D03*
X14200Y-19400D03*
X13200Y-19400D03*
X14200Y-18400D03*
X13200Y-18400D03*
X14200Y-17400D03*
X13200Y-17400D03*
X14200Y-16400D03*
X13200Y-16400D03*
X14200Y-15400D03*
X13200Y-15400D03*
X14200Y-14400D03*
X13200Y-14400D03*
X16400Y-01500D03*
X16400Y-02500D03*
X16400Y-04500D03*
X16400Y-05500D03*
X16400Y-06500D03*
X16400Y-07500D03*
X16400Y-08500D03*
X16400Y-03500D03*
X16400Y-10000D03*
X16400Y-11000D03*
X16400Y-13000D03*
X16400Y-14000D03*
X16400Y-15000D03*
X16400Y-16000D03*
X16400Y-17000D03*
X16400Y-12000D03*
X16400Y-18500D03*
X16400Y-19500D03*
X16400Y-21500D03*
X16400Y-22500D03*
X16400Y-23500D03*
X16400Y-24500D03*
X16400Y-25500D03*
X16400Y-20500D03*
G54D17*
X05054Y-09525D03*
X05054Y-08875D03*
X05546Y-08875D03*
X05546Y-09525D03*
G54D18*
X-06760Y01241D03*
X-06760Y-03641D03*
G54D16*
X-05693Y-00637D03*
X-04906Y-00637D03*
X-04906Y-01621D03*
X-05693Y-01621D03*
G54D19*
X-07650Y03600D03*
X-07650Y04600D03*
X-07650Y05600D03*
X-10150Y05600D03*
X-10150Y03600D03*
G54D20*
X-09849Y-15859D03*
X-08904Y-15072D03*
X-06739Y-15072D03*
X-05951Y-14107D03*
X-05951Y-17493D03*
X-09455Y-17493D03*
G54D16*
X03690Y-24510D03*
X04690Y-24510D03*
X05690Y-24510D03*
X02690Y-24510D03*
X01690Y-24510D03*
X00690Y-24510D03*
X-00310Y-24510D03*
X-01310Y-24510D03*
X14083Y-24496D03*
X13083Y-24496D03*
X12083Y-24496D03*
X11083Y-24496D03*
X10083Y-24496D03*
X09083Y-24496D03*
X08083Y-24496D03*
X07083Y-24496D03*
G54D21*
X-06800Y-19480D03*
G54D22*
X-06241Y-22206D03*
X-06241Y-23297D03*
X-06241Y-24387D03*
X-06241Y-25478D03*
X-06241Y-26569D03*
X-07359Y-22752D03*
X-07359Y-23842D03*
X-07359Y-24933D03*
X-07359Y-26023D03*
G54D21*
X-06800Y-29319D03*
G54D23*
X17900Y-26898D03*
X17900Y-25898D03*
X17900Y-24898D03*
X17900Y-23898D03*
X17900Y-22898D03*
X17900Y-21898D03*
X17900Y-20898D03*
X17900Y-19898D03*
X17900Y-18898D03*
X17900Y-17898D03*
X17900Y-16898D03*
X17900Y-15898D03*
X17900Y-14898D03*
X17900Y-13898D03*
X17900Y-12898D03*
X17900Y-11898D03*
G54D24*
X17703Y-29063D03*
X05498Y-29063D03*
X05498Y00464D03*
X17703Y00464D03*
G54D16*
X02100Y-28500D03*
X02100Y-29500D03*
X01100Y-28500D03*
X01100Y-29500D03*
X00100Y-28500D03*
X00100Y-29500D03*
X-00900Y-28500D03*
X-00900Y-29500D03*
X-01900Y-28500D03*
X-01900Y-29500D03*
X-02900Y-28500D03*
X-02900Y-29500D03*
X-03900Y-28500D03*
X-03900Y-29500D03*
X08000Y-28500D03*
X09000Y-28500D03*
X10000Y-28500D03*
X11000Y-28500D03*
X12000Y-28500D03*
X13000Y-28500D03*
X14000Y-28500D03*
G54D21*
X-06550Y-06750D03*
X-06550Y-11250D03*
G54D25*
X-05350Y-05950D03*
X-05350Y-12050D03*
G54D26*
X-07550Y-06330D03*
X-08350Y-06330D03*
X-07550Y-11670D03*
X-08350Y-11670D03*
X-03050Y-06750D03*
X-04050Y-07250D03*
X-03050Y-07750D03*
X-04050Y-08250D03*
X-03050Y-08750D03*
X-04050Y-09250D03*
X-03050Y-09750D03*
X-04050Y-10250D03*
X-03050Y-10750D03*
X-04050Y-11250D03*
G54D27*
X08900Y-03000D03*
X09900Y-03000D03*
X09900Y00000D03*
X08900Y00000D03*
G54D16*
X17000Y05300D03*
X17000Y03300D03*
X-01200Y-11500D03*
X-01200Y-12600D03*
M02*
