M48
;DRILL file {PCBnew (2010-03-14)-final} date Thu 13 Oct 2011 09:11:03 PM EDT
;FORMAT={2:4/ absolute / inch / keep zeros}
R,T
VER,1
FMAT,2
INCH,TZ
TCST,OFF
ICI,OFF
ATC,ON
T1C0.008
T2C0.010
T3C0.020
T4C0.035
T5C0.039
T6C0.040
T7C0.047
T8C0.062
T9C0.063
T10C0.091
T11C0.098
T12C0.112
T13C0.126
%
M47
G05
M72
T1
X-004051Y-020158
X-003586Y-018200
X-002163Y-013200
X-001927Y-013379
X-001113Y-003187
X-001101Y-010431
X-001097Y-004396
X-000903Y-003882
X-000716Y-010603
X-000698Y-008993
X-000693Y-003187
X-000662Y-009598
X-000609Y-004641
X-000397Y-011222
X-000049Y-008250
X000062Y-009551
X000090Y-009880
X000101Y-010385
X000112Y-010638
X000150Y-010936
X000201Y-012175
X000348Y-011383
X000367Y-009353
X000556Y-007402
X000601Y-007989
X000611Y-008805
X000734Y-011447
X000868Y-006397
X000946Y-010209
X000958Y-008836
X000998Y-007986
X000998Y-011428
X001003Y-012179
X001119Y-016989
X001186Y-008868
X001251Y-011401
X001295Y-010554
X001299Y-009872
X001353Y-017011
X001395Y-007986
X001397Y-007583
X001408Y-008937
X001412Y-013634
X001429Y-006793
X001504Y-012197
X001615Y-009038
X001622Y-010194
X001799Y-007986
X001830Y-013195
X001854Y-011374
X001968Y-006794
X002003Y-012197
X002132Y-017025
X002208Y-007983
X002372Y-011420
X002378Y-012809
X002476Y-010696
X002539Y-010943
X002587Y-010085
X002595Y-010439
X002754Y-016764
X002841Y-009170
X002877Y-008093
X002878Y-010435
X003303Y-006907
X003361Y-010690
X003407Y-012059
X003407Y-012322
X003549Y-009199
X003676Y-009546
X003690Y-008994
X003740Y-013351
X003757Y-007821
X003857Y-015435
X003859Y-008377
X003883Y-011425
X003902Y-008837
X004031Y-007951
X004067Y-012823
X004107Y-014237
X004189Y-013215
X004362Y-006820
X004367Y-012837
X004573Y-015863
X004687Y-008734
X004688Y-008114
X004693Y-011418
X004727Y-007545
X004731Y-012368
X004833Y-013240
X004910Y-010552
X004969Y-010816
X004997Y-012836
X005071Y-009790
X005091Y-008619
X005104Y-015854
X005154Y-007546
X005160Y-012475
X005169Y-013251
X005231Y-011040
X005330Y-011278
X005498Y-010364
X005501Y-015868
X005519Y-009788
X005549Y-009121
X005774Y-007546
X005901Y-015859
X005948Y-010320
X005949Y-009371
X006097Y-007539
X006098Y-006771
X006099Y-008720
X006195Y-010942
X006302Y-015863
X006570Y-009357
X006570Y-010307
X006576Y-009995
X006601Y-010939
X006650Y-008717
X006877Y-009679
X006956Y-018737
X006967Y-008015
X007003Y-014950
X007153Y-008719
X007177Y-016324
X007192Y-010928
X007196Y-009372
X007196Y-010307
X007199Y-009685
X007199Y-009998
X007199Y-009998
X007355Y-007494
X007438Y-008009
X007461Y-019450
X007503Y-013755
X007514Y-009995
X007596Y-010945
X007615Y-014498
X007656Y-008723
X007739Y-019041
X007753Y-005296
X007821Y-009688
X007827Y-009385
X007837Y-010314
X007999Y-017215
X008150Y-010928
X008184Y-008724
X008436Y-009385
X008450Y-010323
X008454Y-007156
X008643Y-007911
X008968Y002296
X009084Y-007468
X009090Y-007165
X009309Y-007757
X009390Y-007153
X009544Y-015652
X009563Y-016121
X009568Y-007504
X009672Y-010147
X009698Y-010490
X009711Y-007153
X009896Y-003927
X009986Y-006120
X010031Y-006855
X010033Y-007166
X010199Y003801
X010336Y-006858
X010366Y-010485
X010369Y-010148
X010395Y-007320
X010404Y-012968
X010421Y-012362
X010428Y-008906
X010616Y-009103
X010847Y001023
X011035Y-009829
X011158Y-009369
X011166Y-011258
X011194Y-008609
X011401Y-000390
X011498Y-009843
X011503Y-008594
X011509Y-008911
X011813Y-010162
X011821Y-008904
X011882Y003663
X012035Y-006392
X012159Y-010973
X012159Y-011257
X012173Y-010231
X012187Y-009020
X012192Y-009779
X012205Y-010622
X012376Y-009466
X012420Y-009053
X012563Y-012421
X012597Y-006065
X012727Y-009535
X012768Y-012296
X012971Y-009944
X012973Y-012183
X013003Y-010292
X013008Y-010625
X013035Y-010961
X013054Y-011337
X013198Y-006013
X013215Y-012038
X013359Y-013590
X013371Y-013152
X013702Y-009532
X013784Y-013740
X013821Y-011445
X013862Y-008527
X013904Y-007692
X013997Y-009507
X014014Y-011576
X014244Y-013571
X014299Y-010842
X014368Y-011601
X014383Y-012787
X014459Y-013424
X014574Y-012301
X014589Y-012561
X014739Y-011844
T2
X-003995Y-023838
X-003739Y-020142
X-002264Y-030549
X-002240Y-023601
X-001960Y-020492
X-001877Y-030432
X-001500Y-003378
X-001492Y-003688
X-000907Y-006384
X-000903Y-001844
X-000899Y-001015
X-000899Y-002621
X-000888Y-000336
X-000491Y-014328
X-000309Y-003381
X-000307Y-003688
X-000291Y-012766
X-000202Y-011752
X-000100Y-004527
X000099Y-027145
X000721Y-015281
X000843Y-018003
X000897Y-013604
X001168Y-016036
X001652Y-015599
X002389Y-013744
X002550Y-015603
X002888Y-019373
X003413Y-019926
X003555Y-017528
X003597Y-020667
X003657Y-030703
X003891Y-029550
X004392Y-031013
X005399Y-031016
X005992Y-019419
X006137Y-030694
X006178Y-017956
X006404Y-019820
X006687Y-031888
X006841Y-020401
X007489Y-016159
X007519Y-031907
X007693Y-006297
X007765Y-011498
X008113Y-019699
X008390Y-015646
X008897Y-010345
X009431Y-029658
X009481Y-030011
X010064Y-014904
X010098Y-017261
X010266Y-029399
X010691Y-017834
X011298Y-030397
X011580Y-032104
X011583Y-031700
X012087Y-005914
X012269Y-017039
X012292Y-017833
X012409Y-019741
X012472Y-014791
X012674Y-014225
X014840Y-021580
X014912Y-013729
X014922Y-005004
X015010Y-014409
X015030Y-001497
X015053Y-003499
X015079Y-004499
X015296Y-012718
X015297Y-023200
X015300Y-011719
X015301Y-010249
X015301Y-014316
X015305Y-010695
X015305Y-018186
X015305Y-022738
X015306Y-020776
X015309Y-005761
X015320Y-006792
X015324Y-021195
X015603Y-014641
T3
X-004044Y005582
X-002102Y005592
X-001795Y-026712
X001853Y004547
X002819Y004567
X005501Y-004794
X005614Y-005422
X006375Y-026692
X006396Y-005431
X007228Y003127
X007703Y005556
X008040Y004408
X008317Y006990
X008540Y004021
X008596Y006202
X009164Y005618
X010989Y006038
X011600Y001198
X011615Y005592
X011648Y004597
X012139Y000713
X012198Y003226
X013699Y000604
X014599Y-026688
T4
X-010150Y005600
X-010150Y003600
X-007650Y005600
X-007650Y004600
X-007650Y003600
X-004050Y-007250
X-004050Y-008250
X-004050Y-009250
X-004050Y-010250
X-004050Y-011250
X-003050Y-006750
X-003050Y-007750
X-003050Y-008750
X-003050Y-009750
X-003050Y-010750
T5
X-005693Y-000637
X-005693Y-001621
X-005100Y004500
X-005100Y003500
X-004906Y-000637
X-004906Y-001621
X-003900Y-028500
X-003900Y-029500
X-002900Y-028500
X-002900Y-029500
X-001900Y-028500
X-001900Y-029500
X-001699Y001364
X-001699Y000364
X-001310Y-024510
X-001200Y-011500
X-001200Y-012600
X-000900Y-028500
X-000900Y-029500
X-000310Y-024510
X-000099Y001364
X-000099Y000364
X000100Y-028500
X000100Y-029500
X000690Y-024510
X001100Y-028500
X001100Y-029500
X001690Y-024510
X002100Y-028500
X002100Y-029500
X002690Y-024510
X003690Y-024510
X004690Y-024510
X005690Y-024510
X007083Y-024496
X008000Y-028500
X008083Y-024496
X009000Y-028500
X009083Y-024496
X010000Y-028500
X010083Y-024496
X011000Y-028500
X011083Y-024496
X011500Y-014300
X011500Y-015300
X011500Y-016300
X011500Y-017300
X011500Y-018300
X011500Y-019300
X011500Y-020300
X012000Y-028500
X012083Y-024496
X013000Y-028500
X013083Y-024496
X013200Y-014400
X013200Y-015400
X013200Y-016400
X013200Y-017400
X013200Y-018400
X013200Y-019400
X013200Y-020400
X014000Y-028500
X014083Y-024496
X014200Y-014400
X014200Y-015400
X014200Y-016400
X014200Y-017400
X014200Y-018400
X014200Y-019400
X014200Y-020400
X016400Y-001500
X016400Y-002500
X016400Y-003500
X016400Y-004500
X016400Y-005500
X016400Y-006500
X016400Y-007500
X016400Y-008500
X016400Y-010000
X016400Y-011000
X016400Y-012000
X016400Y-013000
X016400Y-014000
X016400Y-015000
X016400Y-016000
X016400Y-017000
X016400Y-018500
X016400Y-019500
X016400Y-020500
X016400Y-021500
X016400Y-022500
X016400Y-023500
X016400Y-024500
X016400Y-025500
X017000Y005300
X017000Y003300
X017900Y-011898
X017900Y-012898
X017900Y-013898
X017900Y-014898
X017900Y-015898
X017900Y-016898
X017900Y-017898
X017900Y-018898
X017900Y-019898
X017900Y-020898
X017900Y-021898
X017900Y-022898
X017900Y-023898
X017900Y-024898
X017900Y-025898
X017900Y-026898
T6
X-008350Y-006330
X-008350Y-011670
X-007550Y-006330
X-007550Y-011670
X008900Y000000
X008900Y-003000
X009900Y000000
X009900Y-003000
T7
X-007359Y-022752
X-007359Y-023842
X-007359Y-024933
X-007359Y-026023
X-006241Y-022206
X-006241Y-023297
X-006241Y-024387
X-006241Y-025478
X-006241Y-026569
T8
X-005350Y-005950
X-005350Y-012050
T9
X-009849Y-015859
X-009455Y-017493
X-008904Y-015072
X-006739Y-015072
X-005951Y-014107
X-005951Y-017493
T10
X-006760Y001241
X-006760Y-003641
T11
X005498Y000464
X005498Y-029063
X017703Y000464
X017703Y-029063
T12
X-009000Y008500
X-009000Y-032000
X018000Y008500
X018000Y-032000
T13
X-006800Y-019480
X-006800Y-029319
X-006550Y-006750
X-006550Y-011250
T0
M30
