solid Table1
   facet normal 0.000000e+000 -1.000000e+000 0.000000e+000
      outer loop
         vertex -5.000000e-001 4.479962e-001 5.305794e-002
         vertex -4.829904e-001 4.479962e-001 6.555793e-002
         vertex -4.850000e-001 4.479962e-001 7.305793e-002
      endloop
   endfacet
   facet normal 0.000000e+000 -1.000000e+000 0.000000e+000
      outer loop
         vertex -4.850000e-001 4.479962e-001 7.305793e-002
         vertex -4.570096e-001 4.479962e-001 2.261404e-001
         vertex -4.625000e-001 4.479962e-001 2.206501e-001
      endloop
   endfacet
   facet normal 0.000000e+000 -1.000000e+000 0.000000e+000
      outer loop
         vertex -4.625000e-001 4.479962e-001 2.206501e-001
         vertex -4.700000e-001 4.479962e-001 2.186404e-001
         vertex -4.850000e-001 4.479962e-001 7.305793e-002
      endloop
   endfacet
   facet normal 0.000000e+000 -1.000000e+000 0.000000e+000
      outer loop
         vertex -4.850000e-001 4.479962e-001 7.305793e-002
         vertex -4.700000e-001 4.479962e-001 2.186404e-001
         vertex -4.775000e-001 4.479962e-001 2.206501e-001
      endloop
   endfacet
   facet normal 0.000000e+000 -1.000000e+000 0.000000e+000
      outer loop
         vertex -4.850000e-001 4.479962e-001 7.305793e-002
         vertex -4.775000e-001 4.479962e-001 2.206501e-001
         vertex -5.000000e-001 4.479962e-001 5.305794e-002
      endloop
   endfacet
   facet normal 0.000000e+000 -1.000000e+000 0.000000e+000
      outer loop
         vertex -5.000000e-001 4.479962e-001 5.305794e-002
         vertex -4.775000e-001 4.479962e-001 2.206501e-001
         vertex -4.829904e-001 4.479962e-001 2.261404e-001
      endloop
   endfacet
   facet normal 0.000000e+000 -1.000000e+000 0.000000e+000
      outer loop
         vertex -5.000000e-001 4.479962e-001 5.305794e-002
         vertex -4.829904e-001 4.479962e-001 2.261404e-001
         vertex -5.000000e-001 4.479962e-001 2.536404e-001
      endloop
   endfacet
   facet normal 0.000000e+000 -1.000000e+000 0.000000e+000
      outer loop
         vertex -5.000000e-001 4.479962e-001 2.536404e-001
         vertex -4.829904e-001 4.479962e-001 2.261404e-001
         vertex -4.850000e-001 4.479962e-001 2.336404e-001
      endloop
   endfacet
   facet normal 0.000000e+000 -1.000000e+000 0.000000e+000
      outer loop
         vertex -5.000000e-001 4.479962e-001 2.536404e-001
         vertex -4.850000e-001 4.479962e-001 2.336404e-001
         vertex -4.829904e-001 4.479962e-001 2.411404e-001
      endloop
   endfacet
   facet normal 0.000000e+000 -1.000000e+000 0.000000e+000
      outer loop
         vertex -4.570096e-001 4.479962e-001 6.555793e-002
         vertex -4.625000e-001 4.479962e-001 6.006755e-002
         vertex 5.000000e-001 4.479962e-001 5.305794e-002
      endloop
   endfacet
   facet normal 0.000000e+000 -1.000000e+000 0.000000e+000
      outer loop
         vertex 5.000000e-001 4.479962e-001 5.305794e-002
         vertex -4.625000e-001 4.479962e-001 6.006755e-002
         vertex -4.700000e-001 4.479962e-001 5.805793e-002
      endloop
   endfacet
   facet normal 0.000000e+000 -1.000000e+000 0.000000e+000
      outer loop
         vertex 5.000000e-001 4.479962e-001 5.305794e-002
         vertex -4.700000e-001 4.479962e-001 5.805793e-002
         vertex -5.000000e-001 4.479962e-001 5.305794e-002
      endloop
   endfacet
   facet normal 0.000000e+000 -1.000000e+000 0.000000e+000
      outer loop
         vertex -5.000000e-001 4.479962e-001 5.305794e-002
         vertex -4.700000e-001 4.479962e-001 5.805793e-002
         vertex -4.775000e-001 4.479962e-001 6.006755e-002
      endloop
   endfacet
   facet normal 0.000000e+000 -1.000000e+000 0.000000e+000
      outer loop
         vertex -5.000000e-001 4.479962e-001 5.305794e-002
         vertex -4.775000e-001 4.479962e-001 6.006755e-002
         vertex -4.829904e-001 4.479962e-001 6.555793e-002
      endloop
   endfacet
   facet normal 0.000000e+000 -1.000000e+000 0.000000e+000
      outer loop
         vertex -4.625000e-001 4.479962e-001 2.466308e-001
         vertex 5.000000e-001 4.479962e-001 2.536404e-001
         vertex -4.700000e-001 4.479962e-001 2.486404e-001
      endloop
   endfacet
   facet normal 0.000000e+000 -1.000000e+000 0.000000e+000
      outer loop
         vertex -4.700000e-001 4.479962e-001 2.486404e-001
         vertex 5.000000e-001 4.479962e-001 2.536404e-001
         vertex -5.000000e-001 4.479962e-001 2.536404e-001
      endloop
   endfacet
   facet normal 0.000000e+000 -1.000000e+000 0.000000e+000
      outer loop
         vertex -4.700000e-001 4.479962e-001 2.486404e-001
         vertex -5.000000e-001 4.479962e-001 2.536404e-001
         vertex -4.775000e-001 4.479962e-001 2.466308e-001
      endloop
   endfacet
   facet normal 0.000000e+000 -1.000000e+000 0.000000e+000
      outer loop
         vertex -4.775000e-001 4.479962e-001 2.466308e-001
         vertex -5.000000e-001 4.479962e-001 2.536404e-001
         vertex -4.829904e-001 4.479962e-001 2.411404e-001
      endloop
   endfacet
   facet normal 0.000000e+000 -1.000000e+000 0.000000e+000
      outer loop
         vertex 4.700000e-001 4.479962e-001 2.486404e-001
         vertex 4.775000e-001 4.479962e-001 2.466308e-001
         vertex 5.000000e-001 4.479962e-001 2.536404e-001
      endloop
   endfacet
   facet normal 0.000000e+000 -1.000000e+000 0.000000e+000
      outer loop
         vertex -4.550000e-001 4.479962e-001 7.305793e-002
         vertex -4.570096e-001 4.479962e-001 6.555793e-002
         vertex 4.570096e-001 4.479962e-001 6.555793e-002
      endloop
   endfacet
   facet normal 0.000000e+000 -1.000000e+000 0.000000e+000
      outer loop
         vertex -4.570096e-001 4.479962e-001 2.261404e-001
         vertex -4.850000e-001 4.479962e-001 7.305793e-002
         vertex -4.550000e-001 4.479962e-001 2.336404e-001
      endloop
   endfacet
   facet normal 0.000000e+000 -1.000000e+000 0.000000e+000
      outer loop
         vertex -4.550000e-001 4.479962e-001 2.336404e-001
         vertex -4.850000e-001 4.479962e-001 7.305793e-002
         vertex -4.829904e-001 4.479962e-001 8.055793e-002
      endloop
   endfacet
   facet normal 0.000000e+000 -1.000000e+000 0.000000e+000
      outer loop
         vertex -4.550000e-001 4.479962e-001 2.336404e-001
         vertex -4.829904e-001 4.479962e-001 8.055793e-002
         vertex -4.775000e-001 4.479962e-001 8.604831e-002
      endloop
   endfacet
   facet normal 0.000000e+000 -1.000000e+000 0.000000e+000
      outer loop
         vertex 5.000000e-001 4.479962e-001 5.305794e-002
         vertex 4.850000e-001 4.479962e-001 7.305793e-002
         vertex 4.829904e-001 4.479962e-001 6.555793e-002
      endloop
   endfacet
   facet normal 0.000000e+000 -1.000000e+000 0.000000e+000
      outer loop
         vertex -4.550000e-001 4.479962e-001 7.305793e-002
         vertex 4.570096e-001 4.479962e-001 2.261404e-001
         vertex -4.570096e-001 4.479962e-001 8.055793e-002
      endloop
   endfacet
   facet normal 0.000000e+000 -1.000000e+000 0.000000e+000
      outer loop
         vertex -4.570096e-001 4.479962e-001 8.055793e-002
         vertex 4.570096e-001 4.479962e-001 2.261404e-001
         vertex 4.550000e-001 4.479962e-001 2.336404e-001
      endloop
   endfacet
   facet normal 0.000000e+000 -1.000000e+000 0.000000e+000
      outer loop
         vertex -4.570096e-001 4.479962e-001 8.055793e-002
         vertex 4.550000e-001 4.479962e-001 2.336404e-001
         vertex 4.570096e-001 4.479962e-001 2.411404e-001
      endloop
   endfacet
   facet normal 0.000000e+000 -1.000000e+000 0.000000e+000
      outer loop
         vertex 4.775000e-001 4.479962e-001 2.466308e-001
         vertex 4.829904e-001 4.479962e-001 2.411404e-001
         vertex 5.000000e-001 4.479962e-001 2.536404e-001
      endloop
   endfacet
   facet normal 0.000000e+000 -1.000000e+000 0.000000e+000
      outer loop
         vertex 5.000000e-001 4.479962e-001 2.536404e-001
         vertex 4.829904e-001 4.479962e-001 2.411404e-001
         vertex 4.850000e-001 4.479962e-001 2.336404e-001
      endloop
   endfacet
   facet normal 0.000000e+000 -1.000000e+000 0.000000e+000
      outer loop
         vertex 5.000000e-001 4.479962e-001 2.536404e-001
         vertex 4.850000e-001 4.479962e-001 2.336404e-001
         vertex 5.000000e-001 4.479962e-001 5.305794e-002
      endloop
   endfacet
   facet normal 0.000000e+000 -1.000000e+000 0.000000e+000
      outer loop
         vertex 5.000000e-001 4.479962e-001 5.305794e-002
         vertex 4.850000e-001 4.479962e-001 2.336404e-001
         vertex 4.829904e-001 4.479962e-001 2.261404e-001
      endloop
   endfacet
   facet normal 0.000000e+000 -1.000000e+000 0.000000e+000
      outer loop
         vertex 5.000000e-001 4.479962e-001 5.305794e-002
         vertex 4.829904e-001 4.479962e-001 2.261404e-001
         vertex 4.775000e-001 4.479962e-001 2.206501e-001
      endloop
   endfacet
   facet normal 0.000000e+000 -1.000000e+000 0.000000e+000
      outer loop
         vertex 4.829904e-001 4.479962e-001 6.555793e-002
         vertex 4.775000e-001 4.479962e-001 6.006755e-002
         vertex 5.000000e-001 4.479962e-001 5.305794e-002
      endloop
   endfacet
   facet normal 0.000000e+000 -1.000000e+000 0.000000e+000
      outer loop
         vertex 5.000000e-001 4.479962e-001 5.305794e-002
         vertex 4.775000e-001 4.479962e-001 6.006755e-002
         vertex 4.700000e-001 4.479962e-001 5.805793e-002
      endloop
   endfacet
   facet normal 0.000000e+000 -1.000000e+000 0.000000e+000
      outer loop
         vertex 5.000000e-001 4.479962e-001 5.305794e-002
         vertex 4.700000e-001 4.479962e-001 5.805793e-002
         vertex -4.570096e-001 4.479962e-001 6.555793e-002
      endloop
   endfacet
   facet normal 0.000000e+000 -1.000000e+000 0.000000e+000
      outer loop
         vertex -4.570096e-001 4.479962e-001 6.555793e-002
         vertex 4.700000e-001 4.479962e-001 5.805793e-002
         vertex 4.625000e-001 4.479962e-001 6.006755e-002
      endloop
   endfacet
   facet normal 0.000000e+000 -1.000000e+000 0.000000e+000
      outer loop
         vertex -4.570096e-001 4.479962e-001 6.555793e-002
         vertex 4.625000e-001 4.479962e-001 6.006755e-002
         vertex 4.570096e-001 4.479962e-001 6.555793e-002
      endloop
   endfacet
   facet normal 0.000000e+000 -1.000000e+000 0.000000e+000
      outer loop
         vertex 4.570096e-001 4.479962e-001 6.555793e-002
         vertex 4.550000e-001 4.479962e-001 7.305793e-002
         vertex -4.550000e-001 4.479962e-001 7.305793e-002
      endloop
   endfacet
   facet normal 0.000000e+000 -1.000000e+000 0.000000e+000
      outer loop
         vertex -4.550000e-001 4.479962e-001 7.305793e-002
         vertex 4.550000e-001 4.479962e-001 7.305793e-002
         vertex 4.570096e-001 4.479962e-001 8.055793e-002
      endloop
   endfacet
   facet normal 0.000000e+000 -1.000000e+000 0.000000e+000
      outer loop
         vertex -4.550000e-001 4.479962e-001 7.305793e-002
         vertex 4.570096e-001 4.479962e-001 8.055793e-002
         vertex 4.570096e-001 4.479962e-001 2.261404e-001
      endloop
   endfacet
   facet normal 0.000000e+000 -1.000000e+000 0.000000e+000
      outer loop
         vertex 4.570096e-001 4.479962e-001 2.261404e-001
         vertex 4.570096e-001 4.479962e-001 8.055793e-002
         vertex 4.625000e-001 4.479962e-001 8.604831e-002
      endloop
   endfacet
   facet normal 0.000000e+000 -1.000000e+000 0.000000e+000
      outer loop
         vertex -4.775000e-001 4.479962e-001 8.604831e-002
         vertex -4.700000e-001 4.479962e-001 8.805794e-002
         vertex -4.550000e-001 4.479962e-001 2.336404e-001
      endloop
   endfacet
   facet normal 0.000000e+000 -1.000000e+000 0.000000e+000
      outer loop
         vertex -4.550000e-001 4.479962e-001 2.336404e-001
         vertex -4.700000e-001 4.479962e-001 8.805794e-002
         vertex -4.625000e-001 4.479962e-001 8.604831e-002
      endloop
   endfacet
   facet normal 0.000000e+000 -1.000000e+000 0.000000e+000
      outer loop
         vertex -4.550000e-001 4.479962e-001 2.336404e-001
         vertex -4.625000e-001 4.479962e-001 8.604831e-002
         vertex -4.570096e-001 4.479962e-001 8.055793e-002
      endloop
   endfacet
   facet normal 0.000000e+000 -1.000000e+000 0.000000e+000
      outer loop
         vertex 4.850000e-001 4.479962e-001 7.305793e-002
         vertex 5.000000e-001 4.479962e-001 5.305794e-002
         vertex 4.829904e-001 4.479962e-001 8.055793e-002
      endloop
   endfacet
   facet normal 0.000000e+000 -1.000000e+000 0.000000e+000
      outer loop
         vertex 4.829904e-001 4.479962e-001 8.055793e-002
         vertex 5.000000e-001 4.479962e-001 5.305794e-002
         vertex 4.775000e-001 4.479962e-001 2.206501e-001
      endloop
   endfacet
   facet normal 0.000000e+000 -1.000000e+000 0.000000e+000
      outer loop
         vertex 4.829904e-001 4.479962e-001 8.055793e-002
         vertex 4.775000e-001 4.479962e-001 2.206501e-001
         vertex 4.775000e-001 4.479962e-001 8.604831e-002
      endloop
   endfacet
   facet normal 0.000000e+000 -1.000000e+000 0.000000e+000
      outer loop
         vertex 4.775000e-001 4.479962e-001 8.604831e-002
         vertex 4.775000e-001 4.479962e-001 2.206501e-001
         vertex 4.700000e-001 4.479962e-001 8.805794e-002
      endloop
   endfacet
   facet normal 0.000000e+000 -1.000000e+000 0.000000e+000
      outer loop
         vertex 4.700000e-001 4.479962e-001 8.805794e-002
         vertex 4.775000e-001 4.479962e-001 2.206501e-001
         vertex 4.700000e-001 4.479962e-001 2.186404e-001
      endloop
   endfacet
   facet normal 0.000000e+000 -1.000000e+000 0.000000e+000
      outer loop
         vertex 4.700000e-001 4.479962e-001 8.805794e-002
         vertex 4.700000e-001 4.479962e-001 2.186404e-001
         vertex 4.625000e-001 4.479962e-001 8.604831e-002
      endloop
   endfacet
   facet normal 0.000000e+000 -1.000000e+000 0.000000e+000
      outer loop
         vertex 4.625000e-001 4.479962e-001 8.604831e-002
         vertex 4.700000e-001 4.479962e-001 2.186404e-001
         vertex 4.625000e-001 4.479962e-001 2.206501e-001
      endloop
   endfacet
   facet normal 0.000000e+000 -1.000000e+000 0.000000e+000
      outer loop
         vertex 4.625000e-001 4.479962e-001 8.604831e-002
         vertex 4.625000e-001 4.479962e-001 2.206501e-001
         vertex 4.570096e-001 4.479962e-001 2.261404e-001
      endloop
   endfacet
   facet normal 0.000000e+000 -1.000000e+000 0.000000e+000
      outer loop
         vertex -4.625000e-001 4.479962e-001 2.466308e-001
         vertex -4.570096e-001 4.479962e-001 2.411404e-001
         vertex 5.000000e-001 4.479962e-001 2.536404e-001
      endloop
   endfacet
   facet normal 0.000000e+000 -1.000000e+000 0.000000e+000
      outer loop
         vertex 5.000000e-001 4.479962e-001 2.536404e-001
         vertex -4.570096e-001 4.479962e-001 2.411404e-001
         vertex -4.550000e-001 4.479962e-001 2.336404e-001
      endloop
   endfacet
   facet normal 0.000000e+000 -1.000000e+000 0.000000e+000
      outer loop
         vertex 5.000000e-001 4.479962e-001 2.536404e-001
         vertex -4.550000e-001 4.479962e-001 2.336404e-001
         vertex 4.700000e-001 4.479962e-001 2.486404e-001
      endloop
   endfacet
   facet normal 0.000000e+000 -1.000000e+000 0.000000e+000
      outer loop
         vertex 4.700000e-001 4.479962e-001 2.486404e-001
         vertex -4.550000e-001 4.479962e-001 2.336404e-001
         vertex -4.570096e-001 4.479962e-001 8.055793e-002
      endloop
   endfacet
   facet normal 0.000000e+000 -1.000000e+000 0.000000e+000
      outer loop
         vertex 4.700000e-001 4.479962e-001 2.486404e-001
         vertex -4.570096e-001 4.479962e-001 8.055793e-002
         vertex 4.625000e-001 4.479962e-001 2.466308e-001
      endloop
   endfacet
   facet normal 0.000000e+000 -1.000000e+000 0.000000e+000
      outer loop
         vertex 4.625000e-001 4.479962e-001 2.466308e-001
         vertex -4.570096e-001 4.479962e-001 8.055793e-002
         vertex 4.570096e-001 4.479962e-001 2.411404e-001
      endloop
   endfacet
   facet normal 0.000000e+000 0.000000e+000 1.000000e+000
      outer loop
         vertex 5.000000e-001 4.479962e-001 2.536404e-001
         vertex 5.000000e-001 4.612046e-001 2.536404e-001
         vertex -5.000000e-001 4.479962e-001 2.536404e-001
      endloop
   endfacet
   facet normal 0.000000e+000 0.000000e+000 1.000000e+000
      outer loop
         vertex -5.000000e-001 4.479962e-001 2.536404e-001
         vertex 5.000000e-001 4.612046e-001 2.536404e-001
         vertex -5.000000e-001 4.612046e-001 2.536404e-001
      endloop
   endfacet
   facet normal 0.000000e+000 0.000000e+000 -1.000000e+000
      outer loop
         vertex 5.000000e-001 4.612046e-001 5.305794e-002
         vertex 5.000000e-001 4.479962e-001 5.305794e-002
         vertex -5.000000e-001 4.612046e-001 5.305794e-002
      endloop
   endfacet
   facet normal 0.000000e+000 0.000000e+000 -1.000000e+000
      outer loop
         vertex -5.000000e-001 4.612046e-001 5.305794e-002
         vertex 5.000000e-001 4.479962e-001 5.305794e-002
         vertex -5.000000e-001 4.479962e-001 5.305794e-002
      endloop
   endfacet
   facet normal 0.000000e+000 1.000000e+000 0.000000e+000
      outer loop
         vertex 5.000000e-001 4.612046e-001 2.536404e-001
         vertex 5.000000e-001 4.612046e-001 5.305794e-002
         vertex -5.000000e-001 4.612046e-001 2.536404e-001
      endloop
   endfacet
   facet normal 0.000000e+000 1.000000e+000 0.000000e+000
      outer loop
         vertex -5.000000e-001 4.612046e-001 2.536404e-001
         vertex 5.000000e-001 4.612046e-001 5.305794e-002
         vertex -5.000000e-001 4.612046e-001 5.305794e-002
      endloop
   endfacet
   facet normal 1.000000e+000 0.000000e+000 0.000000e+000
      outer loop
         vertex 5.000000e-001 4.479962e-001 5.305794e-002
         vertex 5.000000e-001 4.612046e-001 5.305794e-002
         vertex 5.000000e-001 4.479962e-001 2.536404e-001
      endloop
   endfacet
   facet normal 1.000000e+000 0.000000e+000 0.000000e+000
      outer loop
         vertex 5.000000e-001 4.479962e-001 2.536404e-001
         vertex 5.000000e-001 4.612046e-001 5.305794e-002
         vertex 5.000000e-001 4.612046e-001 2.536404e-001
      endloop
   endfacet
   facet normal -1.000000e+000 0.000000e+000 0.000000e+000
      outer loop
         vertex -5.000000e-001 4.612046e-001 5.305794e-002
         vertex -5.000000e-001 4.479962e-001 5.305794e-002
         vertex -5.000000e-001 4.612046e-001 2.536404e-001
      endloop
   endfacet
   facet normal -1.000000e+000 0.000000e+000 0.000000e+000
      outer loop
         vertex -5.000000e-001 4.612046e-001 2.536404e-001
         vertex -5.000000e-001 4.479962e-001 5.305794e-002
         vertex -5.000000e-001 4.479962e-001 2.536404e-001
      endloop
   endfacet
   facet normal 1.718619e-001 0.000000e+000 9.851210e-001
      outer loop
         vertex -4.625000e-001 1.479962e-001 2.466308e-001
         vertex -4.700000e-001 4.479962e-001 2.486404e-001
         vertex -4.700000e-001 1.479962e-001 2.486404e-001
      endloop
   endfacet
   facet normal -1.718619e-001 0.000000e+000 9.851210e-001
      outer loop
         vertex -4.700000e-001 1.479962e-001 2.486404e-001
         vertex -4.700000e-001 4.479962e-001 2.486404e-001
         vertex -4.775000e-001 4.479962e-001 2.466308e-001
      endloop
   endfacet
   facet normal -3.437238e-001 0.000000e+000 9.390708e-001
      outer loop
         vertex -4.700000e-001 1.479962e-001 2.486404e-001
         vertex -4.775000e-001 4.479962e-001 2.466308e-001
         vertex -4.775000e-001 1.479962e-001 2.466308e-001
      endloop
   endfacet
   facet normal -6.413973e-001 0.000000e+000 7.672089e-001
      outer loop
         vertex -4.775000e-001 1.479962e-001 2.466308e-001
         vertex -4.775000e-001 4.479962e-001 2.466308e-001
         vertex -4.829904e-001 4.479962e-001 2.411404e-001
      endloop
   endfacet
   facet normal -7.672089e-001 0.000000e+000 6.413973e-001
      outer loop
         vertex -4.775000e-001 1.479962e-001 2.466308e-001
         vertex -4.829904e-001 4.479962e-001 2.411404e-001
         vertex -4.829904e-001 1.479962e-001 2.411404e-001
      endloop
   endfacet
   facet normal -9.390708e-001 0.000000e+000 3.437238e-001
      outer loop
         vertex -4.829904e-001 1.479962e-001 2.411404e-001
         vertex -4.829904e-001 4.479962e-001 2.411404e-001
         vertex -4.850000e-001 4.479962e-001 2.336404e-001
      endloop
   endfacet
   facet normal -9.851211e-001 0.000000e+000 1.718619e-001
      outer loop
         vertex -4.829904e-001 1.479962e-001 2.411404e-001
         vertex -4.850000e-001 4.479962e-001 2.336404e-001
         vertex -4.850000e-001 1.479962e-001 2.336404e-001
      endloop
   endfacet
   facet normal -9.851211e-001 0.000000e+000 -1.718619e-001
      outer loop
         vertex -4.850000e-001 1.479962e-001 2.336404e-001
         vertex -4.850000e-001 4.479962e-001 2.336404e-001
         vertex -4.829904e-001 4.479962e-001 2.261404e-001
      endloop
   endfacet
   facet normal -9.390708e-001 0.000000e+000 -3.437238e-001
      outer loop
         vertex -4.850000e-001 1.479962e-001 2.336404e-001
         vertex -4.829904e-001 4.479962e-001 2.261404e-001
         vertex -4.829904e-001 1.479962e-001 2.261404e-001
      endloop
   endfacet
   facet normal -7.672089e-001 0.000000e+000 -6.413973e-001
      outer loop
         vertex -4.829904e-001 1.479962e-001 2.261404e-001
         vertex -4.829904e-001 4.479962e-001 2.261404e-001
         vertex -4.775000e-001 4.479962e-001 2.206501e-001
      endloop
   endfacet
   facet normal -6.413973e-001 0.000000e+000 -7.672089e-001
      outer loop
         vertex -4.829904e-001 1.479962e-001 2.261404e-001
         vertex -4.775000e-001 4.479962e-001 2.206501e-001
         vertex -4.775000e-001 1.479962e-001 2.206501e-001
      endloop
   endfacet
   facet normal -3.437238e-001 0.000000e+000 -9.390708e-001
      outer loop
         vertex -4.775000e-001 1.479962e-001 2.206501e-001
         vertex -4.775000e-001 4.479962e-001 2.206501e-001
         vertex -4.700000e-001 4.479962e-001 2.186404e-001
      endloop
   endfacet
   facet normal -1.718619e-001 0.000000e+000 -9.851210e-001
      outer loop
         vertex -4.775000e-001 1.479962e-001 2.206501e-001
         vertex -4.700000e-001 4.479962e-001 2.186404e-001
         vertex -4.700000e-001 1.479962e-001 2.186404e-001
      endloop
   endfacet
   facet normal 1.718619e-001 0.000000e+000 -9.851210e-001
      outer loop
         vertex -4.700000e-001 1.479962e-001 2.186404e-001
         vertex -4.700000e-001 4.479962e-001 2.186404e-001
         vertex -4.625000e-001 4.479962e-001 2.206501e-001
      endloop
   endfacet
   facet normal 3.437238e-001 0.000000e+000 -9.390708e-001
      outer loop
         vertex -4.700000e-001 1.479962e-001 2.186404e-001
         vertex -4.625000e-001 4.479962e-001 2.206501e-001
         vertex -4.625000e-001 1.479962e-001 2.206501e-001
      endloop
   endfacet
   facet normal 6.413973e-001 0.000000e+000 -7.672089e-001
      outer loop
         vertex -4.625000e-001 1.479962e-001 2.206501e-001
         vertex -4.625000e-001 4.479962e-001 2.206501e-001
         vertex -4.570096e-001 4.479962e-001 2.261404e-001
      endloop
   endfacet
   facet normal 7.672089e-001 0.000000e+000 -6.413973e-001
      outer loop
         vertex -4.625000e-001 1.479962e-001 2.206501e-001
         vertex -4.570096e-001 4.479962e-001 2.261404e-001
         vertex -4.570096e-001 1.479962e-001 2.261404e-001
      endloop
   endfacet
   facet normal 9.390708e-001 0.000000e+000 -3.437238e-001
      outer loop
         vertex -4.570096e-001 1.479962e-001 2.261404e-001
         vertex -4.570096e-001 4.479962e-001 2.261404e-001
         vertex -4.550000e-001 4.479962e-001 2.336404e-001
      endloop
   endfacet
   facet normal 9.851211e-001 0.000000e+000 -1.718619e-001
      outer loop
         vertex -4.570096e-001 1.479962e-001 2.261404e-001
         vertex -4.550000e-001 4.479962e-001 2.336404e-001
         vertex -4.550000e-001 1.479962e-001 2.336404e-001
      endloop
   endfacet
   facet normal 9.851211e-001 0.000000e+000 1.718619e-001
      outer loop
         vertex -4.550000e-001 1.479962e-001 2.336404e-001
         vertex -4.550000e-001 4.479962e-001 2.336404e-001
         vertex -4.570096e-001 4.479962e-001 2.411404e-001
      endloop
   endfacet
   facet normal 9.390708e-001 0.000000e+000 3.437238e-001
      outer loop
         vertex -4.550000e-001 1.479962e-001 2.336404e-001
         vertex -4.570096e-001 4.479962e-001 2.411404e-001
         vertex -4.570096e-001 1.479962e-001 2.411404e-001
      endloop
   endfacet
   facet normal 7.672089e-001 0.000000e+000 6.413973e-001
      outer loop
         vertex -4.570096e-001 1.479962e-001 2.411404e-001
         vertex -4.570096e-001 4.479962e-001 2.411404e-001
         vertex -4.625000e-001 4.479962e-001 2.466308e-001
      endloop
   endfacet
   facet normal 6.413973e-001 0.000000e+000 7.672089e-001
      outer loop
         vertex -4.570096e-001 1.479962e-001 2.411404e-001
         vertex -4.625000e-001 4.479962e-001 2.466308e-001
         vertex -4.625000e-001 1.479962e-001 2.466308e-001
      endloop
   endfacet
   facet normal 3.437238e-001 0.000000e+000 9.390708e-001
      outer loop
         vertex -4.625000e-001 1.479962e-001 2.466308e-001
         vertex -4.625000e-001 4.479962e-001 2.466308e-001
         vertex -4.700000e-001 4.479962e-001 2.486404e-001
      endloop
   endfacet
   facet normal 0.000000e+000 -1.000000e+000 0.000000e+000
      outer loop
         vertex -4.700000e-001 1.479962e-001 2.486404e-001
         vertex -4.775000e-001 1.479962e-001 2.466308e-001
         vertex -4.829904e-001 1.479962e-001 2.411404e-001
      endloop
   endfacet
   facet normal 0.000000e+000 -1.000000e+000 0.000000e+000
      outer loop
         vertex -4.700000e-001 1.479962e-001 2.186404e-001
         vertex -4.625000e-001 1.479962e-001 2.206501e-001
         vertex -4.775000e-001 1.479962e-001 2.206501e-001
      endloop
   endfacet
   facet normal 0.000000e+000 -1.000000e+000 0.000000e+000
      outer loop
         vertex -4.775000e-001 1.479962e-001 2.206501e-001
         vertex -4.625000e-001 1.479962e-001 2.206501e-001
         vertex -4.570096e-001 1.479962e-001 2.261404e-001
      endloop
   endfacet
   facet normal 0.000000e+000 -1.000000e+000 0.000000e+000
      outer loop
         vertex -4.775000e-001 1.479962e-001 2.206501e-001
         vertex -4.570096e-001 1.479962e-001 2.261404e-001
         vertex -4.829904e-001 1.479962e-001 2.261404e-001
      endloop
   endfacet
   facet normal 0.000000e+000 -1.000000e+000 0.000000e+000
      outer loop
         vertex -4.829904e-001 1.479962e-001 2.261404e-001
         vertex -4.570096e-001 1.479962e-001 2.261404e-001
         vertex -4.829904e-001 1.479962e-001 2.411404e-001
      endloop
   endfacet
   facet normal 0.000000e+000 -1.000000e+000 0.000000e+000
      outer loop
         vertex -4.829904e-001 1.479962e-001 2.261404e-001
         vertex -4.829904e-001 1.479962e-001 2.411404e-001
         vertex -4.850000e-001 1.479962e-001 2.336404e-001
      endloop
   endfacet
   facet normal 0.000000e+000 -1.000000e+000 0.000000e+000
      outer loop
         vertex -4.625000e-001 1.479962e-001 2.466308e-001
         vertex -4.700000e-001 1.479962e-001 2.486404e-001
         vertex -4.570096e-001 1.479962e-001 2.411404e-001
      endloop
   endfacet
   facet normal 0.000000e+000 -1.000000e+000 0.000000e+000
      outer loop
         vertex -4.570096e-001 1.479962e-001 2.411404e-001
         vertex -4.700000e-001 1.479962e-001 2.486404e-001
         vertex -4.829904e-001 1.479962e-001 2.411404e-001
      endloop
   endfacet
   facet normal 0.000000e+000 -1.000000e+000 0.000000e+000
      outer loop
         vertex -4.570096e-001 1.479962e-001 2.411404e-001
         vertex -4.829904e-001 1.479962e-001 2.411404e-001
         vertex -4.550000e-001 1.479962e-001 2.336404e-001
      endloop
   endfacet
   facet normal 0.000000e+000 -1.000000e+000 0.000000e+000
      outer loop
         vertex -4.550000e-001 1.479962e-001 2.336404e-001
         vertex -4.829904e-001 1.479962e-001 2.411404e-001
         vertex -4.570096e-001 1.479962e-001 2.261404e-001
      endloop
   endfacet
   facet normal 1.718619e-001 0.000000e+000 9.851210e-001
      outer loop
         vertex -4.625000e-001 1.479962e-001 8.604831e-002
         vertex -4.700000e-001 4.479962e-001 8.805794e-002
         vertex -4.700000e-001 1.479962e-001 8.805794e-002
      endloop
   endfacet
   facet normal -1.718619e-001 0.000000e+000 9.851210e-001
      outer loop
         vertex -4.700000e-001 1.479962e-001 8.805794e-002
         vertex -4.700000e-001 4.479962e-001 8.805794e-002
         vertex -4.775000e-001 4.479962e-001 8.604831e-002
      endloop
   endfacet
   facet normal -3.437238e-001 0.000000e+000 9.390708e-001
      outer loop
         vertex -4.700000e-001 1.479962e-001 8.805794e-002
         vertex -4.775000e-001 4.479962e-001 8.604831e-002
         vertex -4.775000e-001 1.479962e-001 8.604831e-002
      endloop
   endfacet
   facet normal -6.413973e-001 0.000000e+000 7.672089e-001
      outer loop
         vertex -4.775000e-001 1.479962e-001 8.604831e-002
         vertex -4.775000e-001 4.479962e-001 8.604831e-002
         vertex -4.829904e-001 4.479962e-001 8.055793e-002
      endloop
   endfacet
   facet normal -7.672089e-001 0.000000e+000 6.413973e-001
      outer loop
         vertex -4.775000e-001 1.479962e-001 8.604831e-002
         vertex -4.829904e-001 4.479962e-001 8.055793e-002
         vertex -4.829904e-001 1.479962e-001 8.055793e-002
      endloop
   endfacet
   facet normal -9.390708e-001 0.000000e+000 3.437238e-001
      outer loop
         vertex -4.829904e-001 1.479962e-001 8.055793e-002
         vertex -4.829904e-001 4.479962e-001 8.055793e-002
         vertex -4.850000e-001 4.479962e-001 7.305793e-002
      endloop
   endfacet
   facet normal -9.851211e-001 0.000000e+000 1.718619e-001
      outer loop
         vertex -4.829904e-001 1.479962e-001 8.055793e-002
         vertex -4.850000e-001 4.479962e-001 7.305793e-002
         vertex -4.850000e-001 1.479962e-001 7.305793e-002
      endloop
   endfacet
   facet normal -9.851211e-001 0.000000e+000 -1.718619e-001
      outer loop
         vertex -4.850000e-001 1.479962e-001 7.305793e-002
         vertex -4.850000e-001 4.479962e-001 7.305793e-002
         vertex -4.829904e-001 4.479962e-001 6.555793e-002
      endloop
   endfacet
   facet normal -9.390708e-001 0.000000e+000 -3.437238e-001
      outer loop
         vertex -4.850000e-001 1.479962e-001 7.305793e-002
         vertex -4.829904e-001 4.479962e-001 6.555793e-002
         vertex -4.829904e-001 1.479962e-001 6.555793e-002
      endloop
   endfacet
   facet normal -7.672089e-001 0.000000e+000 -6.413973e-001
      outer loop
         vertex -4.829904e-001 1.479962e-001 6.555793e-002
         vertex -4.829904e-001 4.479962e-001 6.555793e-002
         vertex -4.775000e-001 4.479962e-001 6.006755e-002
      endloop
   endfacet
   facet normal -6.413973e-001 0.000000e+000 -7.672089e-001
      outer loop
         vertex -4.829904e-001 1.479962e-001 6.555793e-002
         vertex -4.775000e-001 4.479962e-001 6.006755e-002
         vertex -4.775000e-001 1.479962e-001 6.006755e-002
      endloop
   endfacet
   facet normal -3.437238e-001 0.000000e+000 -9.390708e-001
      outer loop
         vertex -4.775000e-001 1.479962e-001 6.006755e-002
         vertex -4.775000e-001 4.479962e-001 6.006755e-002
         vertex -4.700000e-001 4.479962e-001 5.805793e-002
      endloop
   endfacet
   facet normal -1.718619e-001 0.000000e+000 -9.851210e-001
      outer loop
         vertex -4.775000e-001 1.479962e-001 6.006755e-002
         vertex -4.700000e-001 4.479962e-001 5.805793e-002
         vertex -4.700000e-001 1.479962e-001 5.805793e-002
      endloop
   endfacet
   facet normal 1.718619e-001 0.000000e+000 -9.851210e-001
      outer loop
         vertex -4.700000e-001 1.479962e-001 5.805793e-002
         vertex -4.700000e-001 4.479962e-001 5.805793e-002
         vertex -4.625000e-001 4.479962e-001 6.006755e-002
      endloop
   endfacet
   facet normal 3.437238e-001 0.000000e+000 -9.390708e-001
      outer loop
         vertex -4.700000e-001 1.479962e-001 5.805793e-002
         vertex -4.625000e-001 4.479962e-001 6.006755e-002
         vertex -4.625000e-001 1.479962e-001 6.006755e-002
      endloop
   endfacet
   facet normal 6.413973e-001 0.000000e+000 -7.672089e-001
      outer loop
         vertex -4.625000e-001 1.479962e-001 6.006755e-002
         vertex -4.625000e-001 4.479962e-001 6.006755e-002
         vertex -4.570096e-001 4.479962e-001 6.555793e-002
      endloop
   endfacet
   facet normal 7.672089e-001 0.000000e+000 -6.413973e-001
      outer loop
         vertex -4.625000e-001 1.479962e-001 6.006755e-002
         vertex -4.570096e-001 4.479962e-001 6.555793e-002
         vertex -4.570096e-001 1.479962e-001 6.555793e-002
      endloop
   endfacet
   facet normal 9.390708e-001 0.000000e+000 -3.437238e-001
      outer loop
         vertex -4.570096e-001 1.479962e-001 6.555793e-002
         vertex -4.570096e-001 4.479962e-001 6.555793e-002
         vertex -4.550000e-001 4.479962e-001 7.305793e-002
      endloop
   endfacet
   facet normal 9.851211e-001 0.000000e+000 -1.718619e-001
      outer loop
         vertex -4.570096e-001 1.479962e-001 6.555793e-002
         vertex -4.550000e-001 4.479962e-001 7.305793e-002
         vertex -4.550000e-001 1.479962e-001 7.305793e-002
      endloop
   endfacet
   facet normal 9.851211e-001 0.000000e+000 1.718619e-001
      outer loop
         vertex -4.550000e-001 1.479962e-001 7.305793e-002
         vertex -4.550000e-001 4.479962e-001 7.305793e-002
         vertex -4.570096e-001 4.479962e-001 8.055793e-002
      endloop
   endfacet
   facet normal 9.390708e-001 0.000000e+000 3.437238e-001
      outer loop
         vertex -4.550000e-001 1.479962e-001 7.305793e-002
         vertex -4.570096e-001 4.479962e-001 8.055793e-002
         vertex -4.570096e-001 1.479962e-001 8.055793e-002
      endloop
   endfacet
   facet normal 7.672089e-001 0.000000e+000 6.413973e-001
      outer loop
         vertex -4.570096e-001 1.479962e-001 8.055793e-002
         vertex -4.570096e-001 4.479962e-001 8.055793e-002
         vertex -4.625000e-001 4.479962e-001 8.604831e-002
      endloop
   endfacet
   facet normal 6.413973e-001 0.000000e+000 7.672089e-001
      outer loop
         vertex -4.570096e-001 1.479962e-001 8.055793e-002
         vertex -4.625000e-001 4.479962e-001 8.604831e-002
         vertex -4.625000e-001 1.479962e-001 8.604831e-002
      endloop
   endfacet
   facet normal 3.437238e-001 0.000000e+000 9.390708e-001
      outer loop
         vertex -4.625000e-001 1.479962e-001 8.604831e-002
         vertex -4.625000e-001 4.479962e-001 8.604831e-002
         vertex -4.700000e-001 4.479962e-001 8.805794e-002
      endloop
   endfacet
   facet normal 0.000000e+000 -1.000000e+000 0.000000e+000
      outer loop
         vertex -4.570096e-001 1.479962e-001 6.555793e-002
         vertex -4.829904e-001 1.479962e-001 8.055793e-002
         vertex -4.625000e-001 1.479962e-001 6.006755e-002
      endloop
   endfacet
   facet normal 0.000000e+000 -1.000000e+000 0.000000e+000
      outer loop
         vertex -4.625000e-001 1.479962e-001 6.006755e-002
         vertex -4.829904e-001 1.479962e-001 8.055793e-002
         vertex -4.850000e-001 1.479962e-001 7.305793e-002
      endloop
   endfacet
   facet normal 0.000000e+000 -1.000000e+000 0.000000e+000
      outer loop
         vertex -4.625000e-001 1.479962e-001 6.006755e-002
         vertex -4.850000e-001 1.479962e-001 7.305793e-002
         vertex -4.700000e-001 1.479962e-001 5.805793e-002
      endloop
   endfacet
   facet normal 0.000000e+000 -1.000000e+000 0.000000e+000
      outer loop
         vertex -4.700000e-001 1.479962e-001 5.805793e-002
         vertex -4.850000e-001 1.479962e-001 7.305793e-002
         vertex -4.829904e-001 1.479962e-001 6.555793e-002
      endloop
   endfacet
   facet normal 0.000000e+000 -1.000000e+000 0.000000e+000
      outer loop
         vertex -4.700000e-001 1.479962e-001 5.805793e-002
         vertex -4.829904e-001 1.479962e-001 6.555793e-002
         vertex -4.775000e-001 1.479962e-001 6.006755e-002
      endloop
   endfacet
   facet normal 0.000000e+000 -1.000000e+000 0.000000e+000
      outer loop
         vertex -4.700000e-001 1.479962e-001 8.805794e-002
         vertex -4.775000e-001 1.479962e-001 8.604831e-002
         vertex -4.625000e-001 1.479962e-001 8.604831e-002
      endloop
   endfacet
   facet normal 0.000000e+000 -1.000000e+000 0.000000e+000
      outer loop
         vertex -4.625000e-001 1.479962e-001 8.604831e-002
         vertex -4.775000e-001 1.479962e-001 8.604831e-002
         vertex -4.829904e-001 1.479962e-001 8.055793e-002
      endloop
   endfacet
   facet normal 0.000000e+000 -1.000000e+000 0.000000e+000
      outer loop
         vertex -4.625000e-001 1.479962e-001 8.604831e-002
         vertex -4.829904e-001 1.479962e-001 8.055793e-002
         vertex -4.570096e-001 1.479962e-001 8.055793e-002
      endloop
   endfacet
   facet normal 0.000000e+000 -1.000000e+000 0.000000e+000
      outer loop
         vertex -4.570096e-001 1.479962e-001 8.055793e-002
         vertex -4.829904e-001 1.479962e-001 8.055793e-002
         vertex -4.570096e-001 1.479962e-001 6.555793e-002
      endloop
   endfacet
   facet normal 0.000000e+000 -1.000000e+000 0.000000e+000
      outer loop
         vertex -4.570096e-001 1.479962e-001 8.055793e-002
         vertex -4.570096e-001 1.479962e-001 6.555793e-002
         vertex -4.550000e-001 1.479962e-001 7.305793e-002
      endloop
   endfacet
   facet normal 1.718619e-001 0.000000e+000 9.851210e-001
      outer loop
         vertex 4.775000e-001 1.479962e-001 8.604831e-002
         vertex 4.700000e-001 4.479962e-001 8.805794e-002
         vertex 4.700000e-001 1.479962e-001 8.805794e-002
      endloop
   endfacet
   facet normal -1.718619e-001 0.000000e+000 9.851210e-001
      outer loop
         vertex 4.700000e-001 1.479962e-001 8.805794e-002
         vertex 4.700000e-001 4.479962e-001 8.805794e-002
         vertex 4.625000e-001 4.479962e-001 8.604831e-002
      endloop
   endfacet
   facet normal -3.437238e-001 0.000000e+000 9.390708e-001
      outer loop
         vertex 4.700000e-001 1.479962e-001 8.805794e-002
         vertex 4.625000e-001 4.479962e-001 8.604831e-002
         vertex 4.625000e-001 1.479962e-001 8.604831e-002
      endloop
   endfacet
   facet normal -6.413973e-001 0.000000e+000 7.672089e-001
      outer loop
         vertex 4.625000e-001 1.479962e-001 8.604831e-002
         vertex 4.625000e-001 4.479962e-001 8.604831e-002
         vertex 4.570096e-001 4.479962e-001 8.055793e-002
      endloop
   endfacet
   facet normal -7.672089e-001 0.000000e+000 6.413973e-001
      outer loop
         vertex 4.625000e-001 1.479962e-001 8.604831e-002
         vertex 4.570096e-001 4.479962e-001 8.055793e-002
         vertex 4.570096e-001 1.479962e-001 8.055793e-002
      endloop
   endfacet
   facet normal -9.390708e-001 0.000000e+000 3.437238e-001
      outer loop
         vertex 4.570096e-001 1.479962e-001 8.055793e-002
         vertex 4.570096e-001 4.479962e-001 8.055793e-002
         vertex 4.550000e-001 4.479962e-001 7.305793e-002
      endloop
   endfacet
   facet normal -9.851211e-001 0.000000e+000 1.718619e-001
      outer loop
         vertex 4.570096e-001 1.479962e-001 8.055793e-002
         vertex 4.550000e-001 4.479962e-001 7.305793e-002
         vertex 4.550000e-001 1.479962e-001 7.305793e-002
      endloop
   endfacet
   facet normal -9.851211e-001 0.000000e+000 -1.718619e-001
      outer loop
         vertex 4.550000e-001 1.479962e-001 7.305793e-002
         vertex 4.550000e-001 4.479962e-001 7.305793e-002
         vertex 4.570096e-001 4.479962e-001 6.555793e-002
      endloop
   endfacet
   facet normal -9.390708e-001 0.000000e+000 -3.437238e-001
      outer loop
         vertex 4.550000e-001 1.479962e-001 7.305793e-002
         vertex 4.570096e-001 4.479962e-001 6.555793e-002
         vertex 4.570096e-001 1.479962e-001 6.555793e-002
      endloop
   endfacet
   facet normal -7.672089e-001 0.000000e+000 -6.413973e-001
      outer loop
         vertex 4.570096e-001 1.479962e-001 6.555793e-002
         vertex 4.570096e-001 4.479962e-001 6.555793e-002
         vertex 4.625000e-001 4.479962e-001 6.006755e-002
      endloop
   endfacet
   facet normal -6.413973e-001 0.000000e+000 -7.672089e-001
      outer loop
         vertex 4.570096e-001 1.479962e-001 6.555793e-002
         vertex 4.625000e-001 4.479962e-001 6.006755e-002
         vertex 4.625000e-001 1.479962e-001 6.006755e-002
      endloop
   endfacet
   facet normal -3.437238e-001 0.000000e+000 -9.390708e-001
      outer loop
         vertex 4.625000e-001 1.479962e-001 6.006755e-002
         vertex 4.625000e-001 4.479962e-001 6.006755e-002
         vertex 4.700000e-001 4.479962e-001 5.805793e-002
      endloop
   endfacet
   facet normal -1.718619e-001 0.000000e+000 -9.851210e-001
      outer loop
         vertex 4.625000e-001 1.479962e-001 6.006755e-002
         vertex 4.700000e-001 4.479962e-001 5.805793e-002
         vertex 4.700000e-001 1.479962e-001 5.805793e-002
      endloop
   endfacet
   facet normal 1.718619e-001 0.000000e+000 -9.851210e-001
      outer loop
         vertex 4.700000e-001 1.479962e-001 5.805793e-002
         vertex 4.700000e-001 4.479962e-001 5.805793e-002
         vertex 4.775000e-001 4.479962e-001 6.006755e-002
      endloop
   endfacet
   facet normal 3.437238e-001 0.000000e+000 -9.390708e-001
      outer loop
         vertex 4.700000e-001 1.479962e-001 5.805793e-002
         vertex 4.775000e-001 4.479962e-001 6.006755e-002
         vertex 4.775000e-001 1.479962e-001 6.006755e-002
      endloop
   endfacet
   facet normal 6.413973e-001 0.000000e+000 -7.672089e-001
      outer loop
         vertex 4.775000e-001 1.479962e-001 6.006755e-002
         vertex 4.775000e-001 4.479962e-001 6.006755e-002
         vertex 4.829904e-001 4.479962e-001 6.555793e-002
      endloop
   endfacet
   facet normal 7.672089e-001 0.000000e+000 -6.413973e-001
      outer loop
         vertex 4.775000e-001 1.479962e-001 6.006755e-002
         vertex 4.829904e-001 4.479962e-001 6.555793e-002
         vertex 4.829904e-001 1.479962e-001 6.555793e-002
      endloop
   endfacet
   facet normal 9.390708e-001 0.000000e+000 -3.437238e-001
      outer loop
         vertex 4.829904e-001 1.479962e-001 6.555793e-002
         vertex 4.829904e-001 4.479962e-001 6.555793e-002
         vertex 4.850000e-001 4.479962e-001 7.305793e-002
      endloop
   endfacet
   facet normal 9.851211e-001 0.000000e+000 -1.718619e-001
      outer loop
         vertex 4.829904e-001 1.479962e-001 6.555793e-002
         vertex 4.850000e-001 4.479962e-001 7.305793e-002
         vertex 4.850000e-001 1.479962e-001 7.305793e-002
      endloop
   endfacet
   facet normal 9.851211e-001 0.000000e+000 1.718619e-001
      outer loop
         vertex 4.850000e-001 1.479962e-001 7.305793e-002
         vertex 4.850000e-001 4.479962e-001 7.305793e-002
         vertex 4.829904e-001 4.479962e-001 8.055793e-002
      endloop
   endfacet
   facet normal 9.390708e-001 0.000000e+000 3.437238e-001
      outer loop
         vertex 4.850000e-001 1.479962e-001 7.305793e-002
         vertex 4.829904e-001 4.479962e-001 8.055793e-002
         vertex 4.829904e-001 1.479962e-001 8.055793e-002
      endloop
   endfacet
   facet normal 7.672089e-001 0.000000e+000 6.413973e-001
      outer loop
         vertex 4.829904e-001 1.479962e-001 8.055793e-002
         vertex 4.829904e-001 4.479962e-001 8.055793e-002
         vertex 4.775000e-001 4.479962e-001 8.604831e-002
      endloop
   endfacet
   facet normal 6.413973e-001 0.000000e+000 7.672089e-001
      outer loop
         vertex 4.829904e-001 1.479962e-001 8.055793e-002
         vertex 4.775000e-001 4.479962e-001 8.604831e-002
         vertex 4.775000e-001 1.479962e-001 8.604831e-002
      endloop
   endfacet
   facet normal 3.437238e-001 0.000000e+000 9.390708e-001
      outer loop
         vertex 4.775000e-001 1.479962e-001 8.604831e-002
         vertex 4.775000e-001 4.479962e-001 8.604831e-002
         vertex 4.700000e-001 4.479962e-001 8.805794e-002
      endloop
   endfacet
   facet normal 0.000000e+000 -1.000000e+000 0.000000e+000
      outer loop
         vertex 4.829904e-001 1.479962e-001 6.555793e-002
         vertex 4.570096e-001 1.479962e-001 8.055793e-002
         vertex 4.775000e-001 1.479962e-001 6.006755e-002
      endloop
   endfacet
   facet normal 0.000000e+000 -1.000000e+000 0.000000e+000
      outer loop
         vertex 4.775000e-001 1.479962e-001 6.006755e-002
         vertex 4.570096e-001 1.479962e-001 8.055793e-002
         vertex 4.550000e-001 1.479962e-001 7.305793e-002
      endloop
   endfacet
   facet normal 0.000000e+000 -1.000000e+000 0.000000e+000
      outer loop
         vertex 4.775000e-001 1.479962e-001 6.006755e-002
         vertex 4.550000e-001 1.479962e-001 7.305793e-002
         vertex 4.700000e-001 1.479962e-001 5.805793e-002
      endloop
   endfacet
   facet normal 0.000000e+000 -1.000000e+000 0.000000e+000
      outer loop
         vertex 4.700000e-001 1.479962e-001 5.805793e-002
         vertex 4.550000e-001 1.479962e-001 7.305793e-002
         vertex 4.570096e-001 1.479962e-001 6.555793e-002
      endloop
   endfacet
   facet normal 0.000000e+000 -1.000000e+000 0.000000e+000
      outer loop
         vertex 4.700000e-001 1.479962e-001 5.805793e-002
         vertex 4.570096e-001 1.479962e-001 6.555793e-002
         vertex 4.625000e-001 1.479962e-001 6.006755e-002
      endloop
   endfacet
   facet normal 0.000000e+000 -1.000000e+000 0.000000e+000
      outer loop
         vertex 4.700000e-001 1.479962e-001 8.805794e-002
         vertex 4.625000e-001 1.479962e-001 8.604831e-002
         vertex 4.775000e-001 1.479962e-001 8.604831e-002
      endloop
   endfacet
   facet normal 0.000000e+000 -1.000000e+000 0.000000e+000
      outer loop
         vertex 4.775000e-001 1.479962e-001 8.604831e-002
         vertex 4.625000e-001 1.479962e-001 8.604831e-002
         vertex 4.570096e-001 1.479962e-001 8.055793e-002
      endloop
   endfacet
   facet normal 0.000000e+000 -1.000000e+000 0.000000e+000
      outer loop
         vertex 4.775000e-001 1.479962e-001 8.604831e-002
         vertex 4.570096e-001 1.479962e-001 8.055793e-002
         vertex 4.829904e-001 1.479962e-001 8.055793e-002
      endloop
   endfacet
   facet normal 0.000000e+000 -1.000000e+000 0.000000e+000
      outer loop
         vertex 4.829904e-001 1.479962e-001 8.055793e-002
         vertex 4.570096e-001 1.479962e-001 8.055793e-002
         vertex 4.829904e-001 1.479962e-001 6.555793e-002
      endloop
   endfacet
   facet normal 0.000000e+000 -1.000000e+000 0.000000e+000
      outer loop
         vertex 4.829904e-001 1.479962e-001 8.055793e-002
         vertex 4.829904e-001 1.479962e-001 6.555793e-002
         vertex 4.850000e-001 1.479962e-001 7.305793e-002
      endloop
   endfacet
   facet normal 1.718619e-001 0.000000e+000 9.851210e-001
      outer loop
         vertex 4.775000e-001 1.479962e-001 2.466308e-001
         vertex 4.700000e-001 4.479962e-001 2.486404e-001
         vertex 4.700000e-001 1.479962e-001 2.486404e-001
      endloop
   endfacet
   facet normal -1.718619e-001 0.000000e+000 9.851210e-001
      outer loop
         vertex 4.700000e-001 1.479962e-001 2.486404e-001
         vertex 4.700000e-001 4.479962e-001 2.486404e-001
         vertex 4.625000e-001 4.479962e-001 2.466308e-001
      endloop
   endfacet
   facet normal -3.437238e-001 0.000000e+000 9.390708e-001
      outer loop
         vertex 4.700000e-001 1.479962e-001 2.486404e-001
         vertex 4.625000e-001 4.479962e-001 2.466308e-001
         vertex 4.625000e-001 1.479962e-001 2.466308e-001
      endloop
   endfacet
   facet normal -6.413973e-001 0.000000e+000 7.672089e-001
      outer loop
         vertex 4.625000e-001 1.479962e-001 2.466308e-001
         vertex 4.625000e-001 4.479962e-001 2.466308e-001
         vertex 4.570096e-001 4.479962e-001 2.411404e-001
      endloop
   endfacet
   facet normal -7.672089e-001 0.000000e+000 6.413973e-001
      outer loop
         vertex 4.625000e-001 1.479962e-001 2.466308e-001
         vertex 4.570096e-001 4.479962e-001 2.411404e-001
         vertex 4.570096e-001 1.479962e-001 2.411404e-001
      endloop
   endfacet
   facet normal -9.390708e-001 0.000000e+000 3.437238e-001
      outer loop
         vertex 4.570096e-001 1.479962e-001 2.411404e-001
         vertex 4.570096e-001 4.479962e-001 2.411404e-001
         vertex 4.550000e-001 4.479962e-001 2.336404e-001
      endloop
   endfacet
   facet normal -9.851211e-001 0.000000e+000 1.718619e-001
      outer loop
         vertex 4.570096e-001 1.479962e-001 2.411404e-001
         vertex 4.550000e-001 4.479962e-001 2.336404e-001
         vertex 4.550000e-001 1.479962e-001 2.336404e-001
      endloop
   endfacet
   facet normal -9.851211e-001 0.000000e+000 -1.718619e-001
      outer loop
         vertex 4.550000e-001 1.479962e-001 2.336404e-001
         vertex 4.550000e-001 4.479962e-001 2.336404e-001
         vertex 4.570096e-001 4.479962e-001 2.261404e-001
      endloop
   endfacet
   facet normal -9.390708e-001 0.000000e+000 -3.437238e-001
      outer loop
         vertex 4.550000e-001 1.479962e-001 2.336404e-001
         vertex 4.570096e-001 4.479962e-001 2.261404e-001
         vertex 4.570096e-001 1.479962e-001 2.261404e-001
      endloop
   endfacet
   facet normal -7.672089e-001 0.000000e+000 -6.413973e-001
      outer loop
         vertex 4.570096e-001 1.479962e-001 2.261404e-001
         vertex 4.570096e-001 4.479962e-001 2.261404e-001
         vertex 4.625000e-001 4.479962e-001 2.206501e-001
      endloop
   endfacet
   facet normal -6.413973e-001 0.000000e+000 -7.672089e-001
      outer loop
         vertex 4.570096e-001 1.479962e-001 2.261404e-001
         vertex 4.625000e-001 4.479962e-001 2.206501e-001
         vertex 4.625000e-001 1.479962e-001 2.206501e-001
      endloop
   endfacet
   facet normal -3.437238e-001 0.000000e+000 -9.390708e-001
      outer loop
         vertex 4.625000e-001 1.479962e-001 2.206501e-001
         vertex 4.625000e-001 4.479962e-001 2.206501e-001
         vertex 4.700000e-001 4.479962e-001 2.186404e-001
      endloop
   endfacet
   facet normal -1.718619e-001 0.000000e+000 -9.851210e-001
      outer loop
         vertex 4.625000e-001 1.479962e-001 2.206501e-001
         vertex 4.700000e-001 4.479962e-001 2.186404e-001
         vertex 4.700000e-001 1.479962e-001 2.186404e-001
      endloop
   endfacet
   facet normal 1.718619e-001 0.000000e+000 -9.851210e-001
      outer loop
         vertex 4.700000e-001 1.479962e-001 2.186404e-001
         vertex 4.700000e-001 4.479962e-001 2.186404e-001
         vertex 4.775000e-001 4.479962e-001 2.206501e-001
      endloop
   endfacet
   facet normal 3.437238e-001 0.000000e+000 -9.390708e-001
      outer loop
         vertex 4.700000e-001 1.479962e-001 2.186404e-001
         vertex 4.775000e-001 4.479962e-001 2.206501e-001
         vertex 4.775000e-001 1.479962e-001 2.206501e-001
      endloop
   endfacet
   facet normal 6.413973e-001 0.000000e+000 -7.672089e-001
      outer loop
         vertex 4.775000e-001 1.479962e-001 2.206501e-001
         vertex 4.775000e-001 4.479962e-001 2.206501e-001
         vertex 4.829904e-001 4.479962e-001 2.261404e-001
      endloop
   endfacet
   facet normal 7.672089e-001 0.000000e+000 -6.413973e-001
      outer loop
         vertex 4.775000e-001 1.479962e-001 2.206501e-001
         vertex 4.829904e-001 4.479962e-001 2.261404e-001
         vertex 4.829904e-001 1.479962e-001 2.261404e-001
      endloop
   endfacet
   facet normal 9.390708e-001 0.000000e+000 -3.437238e-001
      outer loop
         vertex 4.829904e-001 1.479962e-001 2.261404e-001
         vertex 4.829904e-001 4.479962e-001 2.261404e-001
         vertex 4.850000e-001 4.479962e-001 2.336404e-001
      endloop
   endfacet
   facet normal 9.851211e-001 0.000000e+000 -1.718619e-001
      outer loop
         vertex 4.829904e-001 1.479962e-001 2.261404e-001
         vertex 4.850000e-001 4.479962e-001 2.336404e-001
         vertex 4.850000e-001 1.479962e-001 2.336404e-001
      endloop
   endfacet
   facet normal 9.851211e-001 0.000000e+000 1.718619e-001
      outer loop
         vertex 4.850000e-001 1.479962e-001 2.336404e-001
         vertex 4.850000e-001 4.479962e-001 2.336404e-001
         vertex 4.829904e-001 4.479962e-001 2.411404e-001
      endloop
   endfacet
   facet normal 9.390708e-001 0.000000e+000 3.437238e-001
      outer loop
         vertex 4.850000e-001 1.479962e-001 2.336404e-001
         vertex 4.829904e-001 4.479962e-001 2.411404e-001
         vertex 4.829904e-001 1.479962e-001 2.411404e-001
      endloop
   endfacet
   facet normal 7.672089e-001 0.000000e+000 6.413973e-001
      outer loop
         vertex 4.829904e-001 1.479962e-001 2.411404e-001
         vertex 4.829904e-001 4.479962e-001 2.411404e-001
         vertex 4.775000e-001 4.479962e-001 2.466308e-001
      endloop
   endfacet
   facet normal 6.413973e-001 0.000000e+000 7.672089e-001
      outer loop
         vertex 4.829904e-001 1.479962e-001 2.411404e-001
         vertex 4.775000e-001 4.479962e-001 2.466308e-001
         vertex 4.775000e-001 1.479962e-001 2.466308e-001
      endloop
   endfacet
   facet normal 3.437238e-001 0.000000e+000 9.390708e-001
      outer loop
         vertex 4.775000e-001 1.479962e-001 2.466308e-001
         vertex 4.775000e-001 4.479962e-001 2.466308e-001
         vertex 4.700000e-001 4.479962e-001 2.486404e-001
      endloop
   endfacet
   facet normal 0.000000e+000 -1.000000e+000 0.000000e+000
      outer loop
         vertex 4.700000e-001 1.479962e-001 2.486404e-001
         vertex 4.625000e-001 1.479962e-001 2.466308e-001
         vertex 4.570096e-001 1.479962e-001 2.411404e-001
      endloop
   endfacet
   facet normal 0.000000e+000 -1.000000e+000 0.000000e+000
      outer loop
         vertex 4.700000e-001 1.479962e-001 2.186404e-001
         vertex 4.775000e-001 1.479962e-001 2.206501e-001
         vertex 4.625000e-001 1.479962e-001 2.206501e-001
      endloop
   endfacet
   facet normal 0.000000e+000 -1.000000e+000 0.000000e+000
      outer loop
         vertex 4.625000e-001 1.479962e-001 2.206501e-001
         vertex 4.775000e-001 1.479962e-001 2.206501e-001
         vertex 4.829904e-001 1.479962e-001 2.261404e-001
      endloop
   endfacet
   facet normal 0.000000e+000 -1.000000e+000 0.000000e+000
      outer loop
         vertex 4.625000e-001 1.479962e-001 2.206501e-001
         vertex 4.829904e-001 1.479962e-001 2.261404e-001
         vertex 4.570096e-001 1.479962e-001 2.261404e-001
      endloop
   endfacet
   facet normal 0.000000e+000 -1.000000e+000 0.000000e+000
      outer loop
         vertex 4.570096e-001 1.479962e-001 2.261404e-001
         vertex 4.829904e-001 1.479962e-001 2.261404e-001
         vertex 4.570096e-001 1.479962e-001 2.411404e-001
      endloop
   endfacet
   facet normal 0.000000e+000 -1.000000e+000 0.000000e+000
      outer loop
         vertex 4.570096e-001 1.479962e-001 2.261404e-001
         vertex 4.570096e-001 1.479962e-001 2.411404e-001
         vertex 4.550000e-001 1.479962e-001 2.336404e-001
      endloop
   endfacet
   facet normal 0.000000e+000 -1.000000e+000 0.000000e+000
      outer loop
         vertex 4.775000e-001 1.479962e-001 2.466308e-001
         vertex 4.700000e-001 1.479962e-001 2.486404e-001
         vertex 4.829904e-001 1.479962e-001 2.411404e-001
      endloop
   endfacet
   facet normal 0.000000e+000 -1.000000e+000 0.000000e+000
      outer loop
         vertex 4.829904e-001 1.479962e-001 2.411404e-001
         vertex 4.700000e-001 1.479962e-001 2.486404e-001
         vertex 4.570096e-001 1.479962e-001 2.411404e-001
      endloop
   endfacet
   facet normal 0.000000e+000 -1.000000e+000 0.000000e+000
      outer loop
         vertex 4.829904e-001 1.479962e-001 2.411404e-001
         vertex 4.570096e-001 1.479962e-001 2.411404e-001
         vertex 4.850000e-001 1.479962e-001 2.336404e-001
      endloop
   endfacet
   facet normal 0.000000e+000 -1.000000e+000 0.000000e+000
      outer loop
         vertex 4.850000e-001 1.479962e-001 2.336404e-001
         vertex 4.570096e-001 1.479962e-001 2.411404e-001
         vertex 4.829904e-001 1.479962e-001 2.261404e-001
      endloop
   endfacet
endsolid