M48
;DRILL file {PCBnew (2010-03-14)-final} date Mon 31 Jan 2011 05:12:47 PM EST
;FORMAT={2:4/ absolute / inch / keep zeros}
R,T
VER,1
FMAT,2
INCH,TZ
TCST,OFF
ICI,OFF
ATC,ON
T1C0.008
T2C0.010
T3C0.032
T4C0.035
T5C0.039
T6C0.047
T7C0.063
T8C0.067
T9C0.091
T10C0.098
T11C0.106
T12C0.112
T13C0.126
%
M47
G05
M72
T1
X-004051Y-020158
X-003776Y-020134
X-002240Y-010505
X-002163Y-013200
X-001927Y-013379
X-001300Y-007295
X-001101Y-010431
X-001095Y-010703
X-000696Y-010792
X-000662Y-009598
X-000480Y-012488
X000062Y-009551
X000090Y-009880
X000101Y-010385
X000112Y-010638
X000150Y-010936
X000196Y-012175
X000348Y-011383
X000367Y-009353
X000601Y-007989
X000734Y-011447
X000771Y-008931
X000895Y-013497
X000943Y-010203
X000998Y-007986
X000998Y-011428
X001000Y-008994
X001003Y-012179
X001188Y-008860
X001251Y-011401
X001287Y-010553
X001299Y-009842
X001319Y-017052
X001395Y-007986
X001403Y-008944
X001412Y-013634
X001429Y-006793
X001437Y-007575
X001498Y-012196
X001572Y-017055
X001615Y-009038
X001663Y-010200
X001799Y-007986
X001810Y-013193
X001854Y-011374
X001968Y-006794
X002003Y-012197
X002208Y-007983
X002372Y-011420
X002378Y-012809
X002424Y-017032
X002476Y-010696
X002539Y-010943
X002587Y-010085
X002595Y-010439
X002828Y-009194
X002878Y-008088
X002878Y-010435
X002998Y-016833
X003300Y-003098
X003303Y-003518
X003318Y-006905
X003342Y-017119
X003361Y-010690
X003407Y-012059
X003407Y-012322
X003549Y-009199
X003676Y-009546
X003690Y-008994
X003740Y-013351
X003757Y-007821
X003857Y-015435
X003859Y-008377
X003883Y-011425
X003902Y-008837
X004018Y-007959
X004067Y-012823
X004107Y-014237
X004189Y-013169
X004362Y-006855
X004367Y-012837
X004676Y-008741
X004688Y-008114
X004693Y-011418
X004727Y-007545
X004731Y-012368
X004796Y-015854
X004833Y-013240
X004910Y-010552
X004969Y-010816
X004997Y-012836
X005071Y-009790
X005078Y-008607
X005084Y-012079
X005154Y-007546
X005160Y-012475
X005169Y-013251
X005231Y-011040
X005300Y-015866
X005330Y-011278
X005498Y-010385
X005499Y-012260
X005522Y-009790
X005549Y-009121
X005712Y-015856
X005774Y-007546
X005813Y-012200
X005948Y-010320
X005949Y-009371
X006097Y-007532
X006098Y-006771
X006098Y-012271
X006099Y-008720
X006195Y-010942
X006501Y-015861
X006558Y-009678
X006561Y-009372
X006568Y-010323
X006601Y-010939
X006650Y-008717
X006683Y-008308
X006844Y-018750
X006884Y-010000
X006918Y-008016
X007003Y-014950
X007153Y-008719
X007192Y-010928
X007197Y-009372
X007204Y-009681
X007207Y-010320
X007279Y-019428
X007362Y-007489
X007385Y-016426
X007438Y-008009
X007490Y-011774
X007520Y-009997
X007596Y-010945
X007615Y-014498
X007656Y-008723
X007715Y-011505
X007739Y-019041
X007770Y-019697
X007826Y-009691
X007832Y-009385
X007832Y-010323
X007999Y-017215
X008150Y-010928
X008184Y-008724
X008436Y-009385
X008450Y-010323
X008454Y-007162
X008643Y-007911
X008891Y-010389
X009084Y-007468
X009090Y-007165
X009309Y-007757
X009390Y-007153
X009544Y-015652
X009563Y-016121
X009568Y-007504
X009672Y-010147
X009698Y-010490
X009711Y-007153
X010031Y-006855
X010033Y-007166
X010328Y-006851
X010363Y-012992
X010366Y-010485
X010369Y-010148
X010395Y-007320
X010421Y-012362
X010428Y-008906
X010616Y-009103
X011035Y-009829
X011158Y-009369
X011166Y-011258
X011194Y-008609
X011498Y-009843
X011503Y-008594
X011509Y-008911
X011813Y-010162
X011821Y-008904
X012157Y-010954
X012159Y-011257
X012179Y-010194
X012187Y-009020
X012192Y-009779
X012205Y-010622
X012420Y-009053
X012501Y-009388
X012563Y-012421
X012727Y-009535
X012768Y-012296
X012968Y-009934
X012973Y-012183
X013003Y-010292
X013033Y-011328
X013035Y-010961
X013036Y-010627
X013215Y-012038
X013366Y-013591
X013371Y-013152
X013702Y-009532
X013784Y-013740
X013829Y-011436
X013880Y-008547
X013904Y-007692
X013997Y-009507
X014014Y-011576
X014244Y-013571
X014299Y-010842
X014368Y-011601
X014383Y-012787
X014459Y-013424
X014574Y-012301
X014589Y-012561
X014739Y-011844
X024308Y003300
X038537Y-021979
X038548Y-026230
T2
X-003997Y-023802
X-003153Y-017802
X-003145Y-002276
X-002501Y-023800
X-002402Y-002858
X-001994Y-020491
X-001733Y-026699
X-001639Y-002286
X-000907Y-006384
X-000454Y-013942
X-000300Y-011279
X-000042Y-008202
X000568Y-007401
X000829Y-006400
X000994Y-003308
X000999Y-014924
X001050Y-017895
X001056Y-016045
X001412Y-003296
X001652Y-015599
X002547Y-015603
X002644Y-013996
X002728Y-003309
X003047Y-003319
X003090Y-019466
X003183Y-020779
X003740Y-020523
X004038Y-002709
X004044Y-003906
X004154Y-017949
X004346Y-003900
X004380Y-002680
X005087Y-003496
X005345Y-002396
X005475Y-003116
X005501Y-004289
X005712Y-003878
X006198Y-019448
X006373Y-026691
X006488Y-017130
X006819Y-020494
X007047Y-002396
X007048Y000569
X007266Y-013964
X007423Y000843
X007447Y-003538
X007552Y-002390
X007624Y001664
X007745Y-016385
X007747Y-003020
X008149Y-003088
X008210Y002608
X008295Y-005317
X008357Y-003456
X008390Y-015646
X008572Y001542
X008593Y000847
X008651Y-004705
X009069Y001303
X009236Y-004974
X009653Y-005600
X009969Y001866
X009985Y003319
X010057Y-000250
X010058Y-016964
X010064Y-014904
X010068Y-002355
X010532Y-002361
X010550Y-000245
X010694Y-017833
X011641Y002054
X011641Y000553
X012283Y-016980
X012292Y-017833
X012409Y-019741
X012472Y-014791
X012674Y-014225
X012891Y000549
X012900Y002044
X012906Y003034
X012906Y-000444
X014035Y001106
X014040Y001610
X014045Y002108
X014045Y000603
X014496Y-026691
X014705Y002848
X014840Y-021580
X014912Y-013729
X014922Y-005004
X014949Y003593
X015010Y-014409
X015053Y-003499
X015291Y-010703
X015291Y-021222
X015297Y-023200
X015300Y-011719
X015301Y-014316
X015305Y-001787
X015305Y-004248
X015305Y-010299
X015305Y-018197
X015305Y-022738
X015306Y-020776
X015309Y-005761
X015312Y-012697
X015320Y-006792
X015511Y000898
X015512Y002396
X015516Y001895
X015516Y001392
X015516Y000403
X015603Y-014641
X021170Y003105
X021472Y001229
X021472Y-000971
X021472Y-003171
X021472Y-005371
X021472Y-007571
X021472Y-009771
X021472Y-011971
X021472Y-014171
X021472Y-016371
X021472Y-018571
X021472Y-020771
X021472Y-022971
X021472Y-025171
X021472Y-027371
X021472Y-029571
X021682Y001604
X021682Y-000596
X021682Y-002796
X021682Y-004996
X021682Y-007196
X021682Y-009396
X021682Y-011596
X021682Y-013796
X021682Y-015996
X021682Y-018196
X021682Y-020396
X021682Y-022596
X021682Y-024796
X021682Y-026996
X021682Y-029196
X021781Y003097
X022366Y003089
X022968Y003072
X023781Y001510
X023781Y-000690
X023781Y-002890
X023781Y-005090
X023781Y-007290
X023781Y-009490
X023781Y-011690
X023781Y-013890
X023781Y-016090
X023781Y-018290
X023781Y-020490
X023781Y-022690
X023781Y-024890
X023781Y-027090
X023781Y-029290
X024570Y-019807
X024570Y-024207
X024572Y-006603
X024572Y-017604
X024573Y-015400
X024573Y-022000
X024576Y-028594
X024577Y-002193
X024578Y-004390
X024580Y-026387
X024581Y-010983
X024583Y000020
X024583Y-008780
X024585Y002224
X024585Y-013176
X024903Y003061
X025121Y002168
X025121Y-000032
X025121Y-002232
X025121Y-004432
X025121Y-006632
X025121Y-008832
X025121Y-011032
X025121Y-013232
X025121Y-015432
X025121Y-017632
X025121Y-019832
X025121Y-022032
X025121Y-024232
X025121Y-026432
X025121Y-028632
X025687Y003095
X026655Y-029649
X027394Y-029119
X027484Y-027871
X028167Y-027349
X028795Y-029565
X031137Y-029794
X035438Y003515
X035441Y003027
X035466Y-017004
X035470Y000423
X035470Y-004208
X035470Y-021204
X035470Y-024988
X035474Y-008073
X035478Y-003773
X035478Y-008492
X035478Y-009733
X035478Y-016549
X035478Y-020756
X035478Y-025428
X035482Y000012
X035482Y-001229
X035482Y-012716
X035485Y-022484
X035486Y-012281
X035490Y-013994
X035490Y-029256
X035499Y-018238
X035502Y-005498
X035510Y-029712
X035522Y-026743
X035943Y-013215
X035943Y-017465
X035947Y-021718
X035949Y-025978
X035953Y-004743
X035963Y-000464
X035963Y-008964
X038503Y-025003
X038517Y-029722
X038525Y-012251
X038531Y-025449
X038531Y-029262
X038539Y-003753
X038539Y-004206
X038544Y-016963
X038546Y000506
X038546Y000046
X038547Y-017733
X038552Y-016486
X038552Y-021218
X038553Y-008451
X038559Y-020765
X038560Y-012718
X038567Y-007998
X038568Y-009238
X038568Y-013480
X038578Y-000729
X038578Y-004978
X038645Y003513
X039452Y002502
X039469Y001991
T3
X043919Y-009035
X043919Y-010035
X043919Y-011035
X043919Y-012035
X043919Y-013035
X043919Y-014035
X043919Y-015035
X043919Y-016035
X043919Y-017035
X043919Y-018035
X043919Y-019035
X043919Y-020035
X043919Y-021035
X043919Y-022035
X043919Y-023035
X043919Y-024035
X043919Y-025035
X044669Y-008535
X044669Y-009535
X044669Y-010535
X044669Y-011535
X044669Y-012535
X044669Y-013535
X044669Y-014535
X044669Y-015535
X044669Y-016535
X044669Y-017535
X044669Y-018535
X044669Y-019535
X044669Y-020535
X044669Y-021535
X044669Y-022535
X044669Y-023535
X044669Y-024535
X045419Y-009035
X045419Y-010035
X045419Y-011035
X045419Y-012035
X045419Y-013035
X045419Y-014035
X045419Y-015035
X045419Y-016035
X045419Y-017035
X045419Y-018035
X045419Y-019035
X045419Y-020035
X045419Y-021035
X045419Y-022035
X045419Y-023035
X045419Y-024035
X045419Y-025035
X046169Y-008535
X046169Y-009535
X046169Y-010535
X046169Y-011535
X046169Y-012535
X046169Y-013535
X046169Y-014535
X046169Y-015535
X046169Y-016535
X046169Y-017535
X046169Y-018535
X046169Y-019535
X046169Y-020535
X046169Y-021535
X046169Y-022535
X046169Y-023535
X046169Y-024535
T4
X-010350Y003500
X-010350Y001500
X-007850Y003500
X-007850Y002500
X-007850Y001500
X032400Y-027350
X032400Y-029850
X033400Y-027350
X034400Y-027350
X034400Y-029850
T5
X-008049Y-006891
X-008049Y-007891
X-008049Y-011111
X-008049Y-012111
X-005593Y-002237
X-005593Y-003221
X-004806Y-002237
X-004806Y-003221
X-003951Y-007751
X-003951Y-008751
X-003951Y-009751
X-003951Y-010751
X-002951Y-008251
X-002951Y-009251
X-002951Y-010251
X-002951Y-011251
X-002400Y002500
X-002400Y001500
X-001310Y-024510
X-001000Y-011500
X-001000Y-012600
X-000700Y-002500
X-000700Y-004100
X-000310Y-024510
X000100Y003100
X000100Y000100
X000300Y-002500
X000300Y-004100
X000690Y-024510
X001100Y000100
X001690Y-024510
X002690Y-024510
X003690Y-024510
X004100Y000100
X004690Y-024510
X005100Y000100
X005690Y-024510
X006100Y003100
X006100Y000100
X007083Y-024496
X008083Y-024496
X009083Y-024496
X010083Y-024496
X011083Y-024496
X011500Y-014300
X011500Y-015300
X011500Y-016300
X011500Y-017300
X011500Y-018300
X011500Y-019300
X011500Y-020300
X012083Y-024496
X013083Y-024496
X013200Y-014400
X013200Y-015400
X013200Y-016400
X013200Y-017400
X013200Y-018400
X013200Y-019400
X013200Y-020400
X014083Y-024496
X014200Y-014400
X014200Y-015400
X014200Y-016400
X014200Y-017400
X014200Y-018400
X014200Y-019400
X014200Y-020400
X016400Y-001500
X016400Y-002500
X016400Y-003500
X016400Y-004500
X016400Y-005500
X016400Y-006500
X016400Y-007500
X016400Y-008500
X016400Y-010000
X016400Y-011000
X016400Y-012000
X016400Y-013000
X016400Y-014000
X016400Y-015000
X016400Y-016000
X016400Y-017000
X016400Y-018500
X016400Y-019500
X016400Y-020500
X016400Y-021500
X016400Y-022500
X016400Y-023500
X016400Y-024500
X016400Y-025500
X020117Y002415
X020117Y000215
X020117Y-001985
X020117Y-004185
X020117Y-006385
X020117Y-008585
X020117Y-010785
X020117Y-012985
X020117Y-015185
X020117Y-017385
X020117Y-019585
X020117Y-021785
X020117Y-023985
X020117Y-026185
X020117Y-028385
X040900Y-024500
X040900Y-025500
X040900Y-026500
X040900Y-027500
X040900Y-028500
X041900Y-024500
X041900Y-025500
X041900Y-026500
X041900Y-027500
X041900Y-028500
X041900Y-029500
T6
X-007359Y-022752
X-007359Y-023842
X-007359Y-024933
X-007359Y-026023
X-006241Y-022206
X-006241Y-023297
X-006241Y-024387
X-006241Y-025478
X-006241Y-026569
T7
X-009349Y-015859
X-008955Y-017493
X-008404Y-015072
X-006239Y-015072
X-005451Y-014107
X-005451Y-017493
T8
X-005250Y-006448
X-005250Y-012552
T9
X-006660Y-000359
X-006660Y-005241
T10
X030084Y-025254
X030108Y003454
T11
X045419Y-005385
X045419Y-028185
T12
X-009000Y006000
X-009000Y-032000
X016000Y006000
X016000Y-032000
X021000Y006000
X021000Y-032000
X046000Y006000
X046000Y-032000
T13
X-006800Y-019480
X-006800Y-029319
X-006451Y-007251
X-006451Y-011751
X030100Y000068
X030100Y-021845
T0
M30
