G04 (created by PCBnew (20090216-final)) date Tue 02 Mar 2010 01:05:27 PM EST*
G01*
G70*
G90*
%MOIN*%
G04 Gerber Fmt 3.4, Leading zero omitted, Abs format*
%FSLAX34Y34*%
G04 APERTURE LIST*
%ADD10C,0.015000*%
%ADD11C,0.001500*%
G04 APERTURE END LIST*
G54D10*
X-26500Y03000D02*
X64000Y03000D01*
X-28500Y07500D02*
X-27500Y07500D01*
X-28500Y12000D02*
X-27500Y12000D01*
X-28500Y15000D02*
X-27500Y15000D01*
X-28500Y19500D02*
X-27500Y19500D01*
X-28500Y22500D02*
X-27500Y22500D01*
X-28500Y27000D02*
X-27500Y27000D01*
X-28500Y30000D02*
X-27500Y30000D01*
X-28500Y34500D02*
X-27500Y34500D01*
X-28500Y36500D02*
X-27500Y36500D01*
X65000Y04000D02*
X64000Y03000D01*
X65000Y51500D02*
X65000Y04000D01*
X64000Y52500D02*
X65000Y51500D01*
X-17000Y52500D02*
X64000Y52500D01*
X-18000Y51500D02*
X-17000Y52500D01*
X-18000Y47000D02*
X-18000Y51500D01*
X-18500Y46500D02*
X-18000Y47000D01*
X-34500Y46500D02*
X-18500Y46500D01*
X-35000Y46000D02*
X-34500Y46500D01*
X-35000Y37000D02*
X-35000Y46000D01*
X-34500Y36500D02*
X-35000Y37000D01*
X-28500Y36500D02*
X-34500Y36500D01*
X-27000Y36000D02*
X-27500Y36500D01*
X-27000Y35000D02*
X-27000Y36000D01*
X-27500Y34500D02*
X-27000Y35000D01*
X-35500Y34500D02*
X-28500Y34500D01*
X-36000Y34000D02*
X-35500Y34500D01*
X-36000Y30500D02*
X-36000Y34000D01*
X-35500Y30000D02*
X-36000Y30500D01*
X-28500Y30000D02*
X-35500Y30000D01*
X-27000Y29500D02*
X-27500Y30000D01*
X-27000Y27500D02*
X-27000Y29500D01*
X-27500Y27000D02*
X-27000Y27500D01*
X-35500Y27000D02*
X-28500Y27000D01*
X-36000Y26500D02*
X-35500Y27000D01*
X-36000Y23000D02*
X-36000Y26500D01*
X-35500Y22500D02*
X-36000Y23000D01*
X-28500Y22500D02*
X-35500Y22500D01*
X-27000Y22000D02*
X-27500Y22500D01*
X-27000Y20000D02*
X-27000Y22000D01*
X-27500Y19500D02*
X-27000Y20000D01*
X-35500Y19500D02*
X-28500Y19500D01*
X-36000Y19000D02*
X-35500Y19500D01*
X-36000Y15500D02*
X-36000Y19000D01*
X-35500Y15000D02*
X-36000Y15500D01*
X-28500Y15000D02*
X-35500Y15000D01*
X-27000Y14500D02*
X-27500Y15000D01*
X-27000Y12500D02*
X-27000Y14500D01*
X-27500Y12000D02*
X-27000Y12500D01*
X-35500Y12000D02*
X-28500Y12000D01*
X-36000Y11500D02*
X-35500Y12000D01*
X-36000Y08000D02*
X-36000Y11500D01*
X-35500Y07500D02*
X-36000Y08000D01*
X-28500Y07500D02*
X-35500Y07500D01*
X-27000Y07000D02*
X-27500Y07500D01*
X-27000Y03500D02*
X-27000Y07000D01*
X-26500Y03000D02*
X-27000Y03500D01*
M02*
